<?xml version="1.0" encoding="UTF-8" standalone="no"?>
<!-- Created with Inkscape (http://www.inkscape.org/) -->

<svg
   xmlns:dc="http://purl.org/dc/elements/1.1/"
   xmlns:cc="http://creativecommons.org/ns#"
   xmlns:rdf="http://www.w3.org/1999/02/22-rdf-syntax-ns#"
   xmlns:svg="http://www.w3.org/2000/svg"
   xmlns="http://www.w3.org/2000/svg"
   xmlns:sodipodi="http://sodipodi.sourceforge.net/DTD/sodipodi-0.dtd"
   xmlns:inkscape="http://www.inkscape.org/namespaces/inkscape"
   width="1000"
   height="1000"
   id="svg2"
   version="1.1"
   inkscape:version="0.47 r22583"
   sodipodi:docname="A.svg">
  <defs
     id="defs4">
    <inkscape:perspective
       sodipodi:type="inkscape:persp3d"
       inkscape:vp_x="0 : 526.18109 : 1"
       inkscape:vp_y="0 : 1000 : 0"
       inkscape:vp_z="744.09448 : 526.18109 : 1"
       inkscape:persp3d-origin="372.04724 : 350.78739 : 1"
       id="perspective10" />
    <inkscape:perspective
       id="perspective2870"
       inkscape:persp3d-origin="0.5 : 0.33333333 : 1"
       inkscape:vp_z="1 : 0.5 : 1"
       inkscape:vp_y="0 : 1000 : 0"
       inkscape:vp_x="0 : 0.5 : 1"
       sodipodi:type="inkscape:persp3d" />
  </defs>
  <sodipodi:namedview
     id="base"
     pagecolor="#ffffff"
     bordercolor="#666666"
     borderopacity="1.0"
     inkscape:pageopacity="0.0"
     inkscape:pageshadow="2"
     inkscape:zoom="0.531"
     inkscape:cx="460.71679"
     inkscape:cy="549.34087"
     inkscape:document-units="px"
     inkscape:current-layer="svg2"
     showgrid="false"
     showborder="true"
     inkscape:showpageshadow="false"
     showguides="true"
     inkscape:guide-bbox="true"
     inkscape:window-width="1280"
     inkscape:window-height="750"
     inkscape:window-x="0"
     inkscape:window-y="26"
     inkscape:window-maximized="1">
    <sodipodi:guide
       orientation="0,1"
       position="0,200"
       id="guide2818" />
  </sodipodi:namedview>
  <metadata
     id="metadata7">
    <rdf:RDF>
      <cc:Work
         rdf:about="">
        <dc:format>image/svg+xml</dc:format>
        <dc:type
           rdf:resource="http://purl.org/dc/dcmitype/StillImage" />
        <dc:title />
      </cc:Work>
    </rdf:RDF>
  </metadata>
  <g
     inkscape:label="Layer 1"
     inkscape:groupmode="layer"
     id="layer1" />
  <path
     style="fill:#800000"
     d="M 0,0 0,6.0717486 0,793.74419 0,800 l 6.0286797,0 724.9068303,0 6.21136,0 0,-6.25581 0,-787.6724414 L 737.14687,0 730.93551,0 6.0286797,0 0,0 z m 26.307107,12.327566 696.224723,0 c 0.43359,0.572731 0.75714,0.98872 1.27878,1.655908 l 0.91344,1.103955 0,767.249281 c -1.59628,2.10041 -2.88442,4.06503 -3.47107,5.33574 l -709.012889,0 0,-772.585021 c 2.813104,-1.235475 7.285986,-2.162595 14.067016,-2.759863 z m 471.335543,8.831623 c -87.62754,0.01726 -365.08814,2.409588 -401.000578,3.495874 -22.367069,0.676206 -43.771223,1.318388 -47.498971,1.287908 -3.727748,-0.02891 -11.09895,0.427818 -16.441906,1.103955 l -9.682468,1.287965 1.096107,82.244699 c 1.154709,76.76063 1.478894,153.78516 0.730758,164.30544 -0.09411,1.32 -0.04619,4.80145 0,9.01562 l 0.182445,46.36618 c -0.222283,19.56616 -0.676603,101.34117 -1.096166,211.77556 -0.553106,145.33482 0.03464,227.48847 1.461515,230.17466 2.123627,3.99669 10.252144,4.1483 186.890054,4.41584 101.53618,0.15358 184.90061,0.7564 185.42847,1.28798 1.66585,1.67778 281.17502,-0.57776 297.05106,-2.39193 l 14.98045,-1.65591 0,-207.35965 c -0.006,-128.15368 0.95517,-224.67387 2.55762,-252.80587 1.67034,-29.31912 2.00249,-67.13175 0.91343,-105.97981 -0.93,-33.16377 -1.69344,-86.87288 -1.82686,-119.411197 -0.1328,-32.538092 -0.94473,-60.259086 -1.82694,-61.63752 -1.51722,-2.371372 -122.39236,-5.537063 -211.91825,-5.519794 z m -192.0053,9.751577 c 4.136,-0.163977 13.52194,2.582845 22.65332,7.17576 17.71318,8.909051 20.27838,9.203611 20.27838,2.207863 0,-5.353063 0.53058,-5.851258 5.48064,-4.599783 3.097,0.78272 10.52998,4.636617 16.44198,8.463668 10.11144,6.545589 11.6125,7.063132 25.94169,5.703749 14.50546,-1.375954 15.44615,-1.2468 20.82646,4.59984 l 5.84601,6.071748 9.8652,-3.679885 c 5.38804,-2.07264 13.17482,-6.276766 17.35538,-9.383623 4.18104,-3.106343 9.34958,-5.88752 11.50934,-5.887749 4.47259,0 7.23171,6.772835 5.1153,12.327497 -1.14582,3.007566 0.1016,3.706675 6.21136,3.679898 13.4287,-0.05886 31.1372,-7.51584 45.3067,-18.951269 4.65936,-3.760491 8.91632,-6.475326 9.49979,-5.887749 0.58348,0.587463 0.54097,4.892618 -0.18244,9.383635 -0.90824,5.640171 -3.03447,8.96256 -6.7595,10.671531 -5.61437,2.576503 -7.36802,7.175886 -2.7403,7.175714 9.21423,0 40.14781,-13.529737 42.93169,-18.7672 2.59914,-4.891702 9.45748,-5.405657 13.15358,-0.920022 2.15862,2.619222 -0.30138,6.378205 -12.42282,19.319268 -16.47054,17.584434 -16.09758,16.015874 -4.20188,33.670629 3.0392,4.510823 5.48072,10.183094 5.48072,12.511504 0,5.16693 -1.53312,5.07715 -10.23056,0.36778 -3.72774,-2.01797 -11.5666,-5.93619 -17.17272,-8.831673 -5.6049,-2.895611 -12.38928,-7.826686 -15.16312,-11.039543 -5.01698,-5.8116 -14.06696,-8.085737 -14.06696,-3.495885 0,1.322948 1.15541,6.903542 2.55763,12.511508 1.40227,5.607893 2.12501,10.739713 1.46152,11.407543 -1.60852,1.61983 -17.86429,-8.652983 -28.31671,-18.031246 -4.61428,-4.140503 -10.30302,-8.710903 -12.78812,-10.119588 -4.09044,-2.318652 -3.9562,-2.51328 2.55763,-2.57592 8.15963,-0.07851 18.82193,-3.61176 18.81691,-6.25576 -0.002,-1.47352 -58.21819,-2.436892 -67.22931,-1.103955 -1.57965,0.233829 -4.24777,2.94336 -5.66333,6.071749 -3.6621,8.094914 -16.9083,8.13608 -23.93216,0 -5.79572,-6.712446 -8.25848,-6.066731 -10.04788,2.943931 -1.62468,8.181578 -18.51149,20.730732 -22.47064,16.743292 -1.92052,-1.934549 -1.92947,-4.707749 0,-11.039543 3.02533,-9.927269 2.0249,-11.930926 -3.47106,-6.991714 -6.39363,5.747394 -41.22048,29.071084 -43.47978,29.070854 -3.08474,-7e-5 -2.53608,-3.3826 1.82687,-11.039597 2.15145,-3.77504 3.11633,-7.532869 2.37495,-8.279669 -0.74196,-0.746754 -10.89976,3.343977 -22.47064,9.015623 -11.57094,5.671813 -22.17926,10.303873 -23.74949,10.303643 -5.27563,-7e-5 -5.79721,-4.46844 -1.0961,-10.487597 9.70031,-12.42016 5.96661,-12.764446 -20.64378,-1.655966 -10.9407,4.567452 -20.42311,7.581413 -21.19181,6.807763 -0.76816,-0.773591 0.1605,-3.868106 2.19222,-6.991763 2.0324,-3.12384 3.83647,-6.553668 3.83647,-7.543657 5e-5,-0.98976 -4.87605,-4.016023 -10.77859,-6.807771 C 215.44266,74.28072 192.73623,55.0208 192.73623,51.51776 c 6e-5,-0.714937 14.6838,-0.729829 32.7012,-0.184171 18.01802,0.546171 32.70898,0.333131 32.70119,-0.367783 -0.006,-0.701315 -3.03949,-3.019966 -6.75943,-5.151795 -18.19823,-10.429337 1.19932,-10.866731 33.43194,-0.736 34.60144,10.875452 41.83287,9.703703 26.48978,-3.86384 -4.34904,-3.845874 -7.8556,-7.9784 -7.8556,-9.199622 -5e-5,-0.785258 0.81396,-1.04928 2.19228,-1.103966 z M 94.632472,46.366149 c 4.55648,0 3.982416,6.718377 -1.27884,14.719417 -6.302408,9.584377 -5.891096,13.900628 1.82692,15.455383 10.101918,2.034651 10.618998,7.860971 1.46152,16.559337 -9.118624,8.661244 -9.595288,11.136254 -3.28844,14.535424 6.323648,3.40853 5.503056,9.498 -2.557624,21.52714 -3.815624,5.69416 -7.149272,10.30381 -7.4902,10.30357 -0.340632,0 -2.484992,-2.07928 -4.749894,-4.59978 -2.415074,-2.6877 -5.750567,-4.04298 -8.038277,-3.31187 -3.841718,1.22803 -11.32666,-4.07191 -11.32666,-8.09567 0,-1.13318 2.687009,-3.73942 5.66333,-5.70381 9.79384,-6.46296 9.286981,-15.85363 -0.913433,-17.29529 -5.439201,-0.768629 -5.869503,-1.175726 -5.115305,-14.903429 0.654663,-11.898011 -0.01733,-16.107908 -4.932571,-25.57496 -3.409568,-6.567645 -4.784019,-11.4072 -3.288381,-11.407542 3.858981,4.5e-5 24.662917,21.85368 24.662917,25.94296 0,5.863497 -3.210324,4.033691 -8.403686,-4.967783 l -4.749897,-8.46368 0.730758,16.743348 c 0.418582,9.173463 1.043222,16.833063 1.461515,17.111292 0.418005,0.278857 3.410491,2.124194 6.759495,4.231828 5.876316,3.698876 7.269242,11.568516 2.557624,15.087436 -0.961122,0.71759 -3.08573,3.01136 -4.749896,5.15179 -2.660913,3.42221 -2.250529,4.57397 4.384488,8.64762 9.961793,6.11673 10.624537,5.86667 14.432369,-3.31182 3.005824,-7.24511 2.975392,-8.43487 -1.46152,-16.00739 l -4.932568,-8.27967 7.12484,-7.175714 c 8.55236,-8.886983 9.019896,-12.879223 1.46152,-12.879452 -6.31528,0 -7.033624,-3.128571 -3.471056,-15.639383 2.889488,-10.145977 0.454376,-13.624354 -4.749896,-6.80776 -2.279399,2.986183 -4.174047,4.212778 -4.201817,2.75992 -0.06582,-3.450148 13.024945,-14.351177 17.172665,-14.351462 z m 553.362508,0 c 1.58075,-0.109143 3.27159,1.02e-4 5.11532,0 12.42137,0 14.10546,0.4128 20.64377,7.911714 3.85673,4.423634 6.94217,9.941931 6.94217,12.327508 0,6.376538 4.12624,8.060789 9.13439,3.495875 7.09072,-6.462617 7.65584,-2.162137 1.27883,10.119588 -3.26274,6.285029 -5.84605,12.862423 -5.84605,14.719372 0,5.687804 -7.02116,25.004934 -10.5959,29.070844 -4.9925,5.67869 -1.79465,8.64791 9.49978,8.64767 7.41261,0 10.04782,0.79051 10.04782,3.31189 0,2.52043 -2.65346,3.49605 -10.04782,3.49581 -8.51338,0 -10.57304,-0.90656 -14.61508,-6.62369 -3.50068,-4.95175 -4.32439,-7.84914 -2.7403,-10.8556 5.62994,-10.68528 9.31711,-21.20023 9.31711,-26.678924 0,-4.753132 -1.73304,-6.730343 -8.03828,-9.383635 -9.13583,-3.84472 -8.34335,-7.727428 1.46147,-7.727657 8.0724,0 8.06529,-0.587805 0.91342,-12.87952 -5.56097,-9.556823 -14.69772,-14.496674 -26.6724,-14.535417 -2.1742,-0.0057 -3.83646,-0.956148 -3.83646,-2.207908 0,-0.944732 3.29612,-1.881155 8.03821,-2.20792 z m -51.88339,3.679874 c 3.57977,-0.375852 6.94817,0.320434 9.8652,1.839908 10.33274,5.38112 12.38888,9.7584 11.69201,23.919063 -0.62187,12.636332 -0.32563,13.204103 6.39409,16.007383 9.42895,3.933634 11.21817,11.992933 4.38448,19.319213 -2.85398,3.059 -7.28603,5.68625 -9.86514,5.70375 -9.1998,0.0607 -13.7531,2.51952 -18.8169,10.30359 -9.35159,14.37526 -1.00796,28.0674 16.99004,28.15089 10.80716,0.052 18.90663,4.6466 17.35534,9.56763 -0.7053,2.23782 -1.94679,9.23744 -2.92298,15.45537 -1.60256,10.20856 -1.22352,12.10731 4.56716,20.79118 7.09512,10.63944 8.14498,19.41656 3.1057,26.12691 -1.82432,2.429 -3.24888,6.16517 -3.28836,8.27967 -0.052,2.76623 -2.43327,4.09177 -8.40364,4.59985 -11.7539,1.00027 -12.01694,5.33054 -0.36546,7.17572 12.32784,1.95185 30.7043,11.5301 36.72033,19.1352 17.49893,22.12342 21.6243,42.653 13.70161,70.10119 -4.78222,16.56697 -23.64862,33.96041 -50.42194,46.73415 -10.80508,5.15537 -21.3847,10.94745 -23.56675,12.8795 -4.88235,4.32208 -7.25544,2.25048 -4.20188,-3.49588 2.2216,-4.18136 19.62585,-14.35118 24.66293,-14.35142 1.41734,0 2.74034,-3.05311 2.74034,-6.8077 0,-3.75442 -0.2292,-6.80752 -0.54791,-6.80776 -0.31869,0 -3.91475,-0.88556 -7.85554,-2.02392 -6.00431,-1.73431 -8.32655,-1.19622 -14.6151,3.49588 -4.12762,3.0795 -14.50331,9.33421 -23.20139,13.79942 -8.69814,4.46509 -18.62368,9.97362 -21.92262,12.32756 -6.50766,4.64493 -10.77858,5.57118 -10.77858,2.20786 0,-3.9054 24.44802,-27.36829 37.08568,-35.51054 12.20002,-7.85988 15.61842,-12.32728 9.31718,-12.32751 -1.72548,0 -3.09549,-1.85753 -2.92303,-4.04784 0.17205,-2.19007 -0.82198,-3.80851 -2.37495,-3.49587 -4.08646,0.82319 -3.52822,-1.52469 2.7403,-11.77556 6.73416,-11.01177 6.87179,-12.46491 1.46152,-11.03954 -6.77688,1.78484 -28.51151,-26.1152 -23.93216,-30.72675 0.73809,-0.74381 4.82986,2.87569 9.13438,8.09565 12.14604,14.72584 20.78275,19.1593 33.98004,17.47931 6.06834,-0.77181 14.21903,-3.38376 18.26882,-5.70375 8.16738,-4.67894 17.01274,-3.03308 22.28798,4.23184 1.5529,2.13904 3.49345,3.28954 4.38442,2.39186 2.59983,-2.61801 -5.41004,-13.15634 -12.0574,-15.82338 -3.38291,-1.35719 -4.83738,-2.91582 -3.28834,-3.49582 1.53496,-0.57505 5.69002,1.07884 9.31707,3.67982 6.72007,4.81906 11.57169,6.01494 11.50939,2.94387 -0.10743,-5.31617 -10.04857,-11.77527 -17.90348,-11.77549 -2.56635,0 -4.56717,-1.08381 -4.56717,-2.39192 0,-1.48599 2.91582,-2.03749 7.85555,-1.10396 5.11605,0.96661 7.85566,0.50402 7.85566,-1.10396 0,-2.38708 -3.52521,-3.58664 -15.71121,-5.51974 -4.55654,-0.72273 -4.27899,-0.85414 1.64419,-1.10397 4.03854,-0.17032 7.30752,-1.28611 7.30752,-2.39192 6e-5,-2.89688 -11.87434,-4.82593 -14.79777,-2.39192 -1.35713,1.12977 -3.20149,1.37549 -4.01908,0.55196 -2.58141,-2.60059 -1.50735,-5.33551 2.00948,-5.33581 1.86399,0 3.28845,-0.98507 3.28845,-2.20786 0,-1.22278 -3.74375,-1.9742 -8.40364,-1.83997 -4.65948,0.13453 -12.17162,-0.78815 -16.62469,-2.02392 -12.50262,-3.46955 -35.23185,0.42897 -46.0374,7.91173 -18.56483,12.85504 -25.89857,40.74258 -17.17272,65.50135 12.18779,34.58123 12.34246,34.4373 6.94223,43.23826 -8.19255,13.34977 -11.67232,9.97899 -18.81691,-19.50321 -3.48411,-14.37775 -7.88591,-31.07848 -9.68247,-37.16652 -4.68223,-15.86726 -4.0323,-27.45661 2.19227,-39.74238 11.41407,-22.52907 29.04573,-32.17396 61.93127,-34.03863 21.65224,-1.22751 25.65337,-3.67775 12.78818,-8.27967 -13.50883,-4.83246 -19.44929,-11.06304 -21.1918,-22.6311 -1.49962,-9.94891 -1.29045,-10.97846 3.65374,-13.24745 8.77648,-4.02699 9.03334,-11.70529 0.73075,-22.26314 -13.13505,-16.70294 -19.1015,-18.56092 -63.75819,-17.84731 l -38.91262,0.73602 0.54792,8.09565 c 0.3337,4.38016 5.04711,24.319 10.59594,44.34223 5.54879,20.02341 12.98478,50.07877 16.6246,66.97332 13.45028,62.41971 16.24514,74.23499 19.73034,86.47652 10.3478,36.34806 12.51584,43.52936 16.98999,58.69365 2.67649,9.07319 5.27482,16.55957 5.84605,16.55933 0.57101,0 5.4903,-1.18859 10.96126,-2.57586 8.77597,-2.22553 11.1851,-1.94662 20.46104,2.57586 19.14717,9.33502 28.03063,30.32792 20.46117,48.57406 -4.99597,12.04236 -11.17933,14.90367 -31.23974,14.90344 -11.42413,0 -17.53801,0.92533 -17.53801,2.57586 0,1.39674 1.43114,7.26399 3.28832,13.06347 5.41143,16.89455 30.77312,107.21499 34.16276,121.61912 6.00756,25.53265 18.85975,42.53025 27.03781,35.69455 2.58187,-2.15804 3.06633,-4.99834 2.00954,-10.67159 -1.158,-6.21725 -0.37412,-8.92932 3.6538,-13.24747 4.50417,-4.82818 6.3457,-5.2295 17.35539,-4.04782 12.01908,1.28986 12.27502,1.01261 10.96132,-4.04784 -0.74312,-2.86115 0.72642,-11.3792 3.28832,-18.95126 5.91707,-17.48381 8.48578,-66.33142 4.20186,-79.85278 -10.75438,-33.9484 -37.34006,-75.49576 -72.52722,-112.78744 -13.99214,-14.82826 -26.05828,-29.40358 -29.41283,-35.1426 -1.10401,-1.8876 0.95408,-4.60359 6.21142,-7.72766 4.4152,-2.62356 8.99271,-4.7835 10.04787,-4.78378 1.05518,-6e-5 2.45231,5.10272 3.28838,11.22354 1.31984,9.66792 2.43004,11.3419 7.67288,12.51151 7.63903,1.70447 14.65788,8.51217 38.91261,36.7985 25.82611,30.11927 44.50538,57.85989 50.78735,75.98899 14.20465,40.99283 13.79565,80.67446 -1.27885,121.25101 -5.01651,13.50375 -6.32943,14.96873 -10.77857,10.48759 -4.12208,-4.15182 -6.30633,-0.10629 -2.37502,4.41578 5.83805,6.71568 9.5154,19.60806 7.85561,28.51896 -0.84825,4.55376 -5.05792,12.68212 -9.13439,18.03125 -7.59019,9.95987 -9.54465,10.65957 -25.211,8.46367 -6.47821,-0.90783 -6.68818,-0.7542 -6.75943,7.35971 -0.0808,9.35263 -2.79843,12.24251 -18.81691,20.23922 -8.06109,4.02411 -12.51151,4.595 -25.21094,3.67983 -27.94426,-2.01386 -39.7962,-14.87698 -40.73953,-44.15827 -0.46881,-14.56909 0.0889,-16.93775 4.93263,-22.07909 2.99242,-3.1762 6.00684,-5.8662 6.75948,-5.8878 0.75254,-0.0231 1.98934,6.62018 2.74031,14.71937 2.13857,23.06393 10.68457,36.04338 25.39361,38.82253 8.6019,1.62538 22.10501,-2.5482 27.58596,-8.64766 5.51656,-6.13896 -0.15589,-8.86974 -9.86516,-4.78386 -17.775,7.4797 -30.20908,0.21998 -27.22052,-15.82332 2.2799,-12.24004 -1.80216,-29.0813 -8.58637,-34.95865 -16.56459,-14.34947 -41.86064,1.99719 -36.53761,23.73511 4.02249,16.42683 3.98664,17.49858 -1.82692,22.99908 l -5.66332,5.51975 -11.50934,-4.96785 c -10.20209,-4.42 -12.73968,-4.72911 -26.12443,-2.57586 -24.0679,3.87243 -37.52997,-0.28292 -47.13357,-14.53543 -7.00498,-10.39601 -7.14227,-15.14933 -0.36546,-29.8068 9.1013,-19.68532 33.91255,-29.97007 47.31624,-19.31916 5.67886,4.51168 6.35367,6.42573 5.29798,14.35137 -1.47902,11.10756 -0.006,15.27138 5.29792,15.27138 5.55605,0 14.01113,-10.75208 17.90342,-22.6311 2.82447,-8.62111 2.74751,-12.89746 -0.5479,-35.14258 -2.0618,-13.92246 -6.40749,-44.66711 -9.68248,-68.44524 -3.27504,-23.77777 -6.66174,-45.58428 -7.67293,-48.20604 -1.59021,-4.12352 -4.33777,-4.97744 -20.64377,-6.25576 -32.60362,-2.55572 -69.32263,-1.72606 -70.33496,1.47192 -0.4948,1.56456 -0.79751,13.2997 -0.73077,26.12696 0.0676,12.82761 -0.36489,23.36733 -1.0961,23.3671 -0.73145,0 -3.28809,-10.53926 -5.48065,-23.3671 -2.19205,-12.82743 -5.46311,-25.60544 -7.30752,-28.51884 -3.5475,-5.60502 -3.26378,-13.6158 1.27878,-53.90986 4.09932,-36.35815 4.74325,-48.94177 2.74035,-48.942 -3.10761,0 -4.75531,7.9899 -9.13443,43.23826 -3.26386,26.27316 -4.08312,46.43646 -3.65374,98.62004 0.33602,40.89812 1.48016,66.25646 2.92297,67.70925 1.54962,1.56071 5.2709,1.49715 11.14399,0 4.81796,-1.22826 13.54832,-2.84843 19.54767,-3.67987 12.83794,-1.77912 26.37408,-12.56671 32.15311,-25.75892 2.2988,-5.247 7.61565,-10.79364 14.24969,-15.08742 7.09401,-4.59142 11.36234,-9.33848 12.97084,-14.35136 2.66092,-8.28979 5.53407,-7.38224 5.48071,1.65596 -0.0403,7.18812 -1.80584,9.93252 -8.40374,13.43141 -5.8274,3.09115 -6.97438,9.38379 -1.64412,9.38356 1.96728,0 3.28364,1.37976 2.7403,2.94395 -0.54272,1.5645 -2.70475,2.57586 -4.74984,2.2079 -4.96763,-0.89305 -4.8394,5.42581 0.18244,8.27962 3.16708,1.79949 3.35812,2.85132 1.0961,5.15179 -2.11813,2.15457 -2.74029,2.23206 -2.74029,0.18417 0,-1.50175 -1.42463,-2.75963 -3.28845,-2.75992 -1.86392,0 -3.47105,1.40384 -3.47105,3.12788 0,1.72416 1.60713,4.33004 3.47105,5.88774 1.86382,1.55794 3.32621,4.58709 3.28845,6.62382 -0.0607,3.24762 -0.35623,3.124 -2.37501,-0.36778 -2.41888,-4.18316 -8.95164,-5.52176 -8.95164,-1.83997 0,1.18046 2.3541,3.75558 5.11517,5.70381 l 4.93263,3.49588 -5.1153,5.15173 -5.29792,5.15185 -3.47112,-5.15185 c -1.9089,-2.81587 -4.86472,-5.15151 -6.5767,-5.15173 -4.24396,6e-5 -3.83825,7.92511 0.54791,11.59155 3.14157,2.62546 2.61097,3.43185 -4.01913,6.99171 -9.30488,4.9959 -10.96132,5.2 -10.96132,0.91996 0,-2.11191 1.91676,-3.28198 4.93258,-2.94388 5.60721,0.62862 7.2619,-2.47402 4.01914,-7.35971 -1.97617,-2.97731 -2.6003,-2.99601 -5.29799,0.55195 -1.70089,2.23702 -4.51825,3.85586 -6.21135,3.49588 -2.04072,-0.43359 -3.05068,1.57814 -3.1057,6.07176 -0.0721,5.89576 -1.34472,7.20232 -9.13446,9.56762 -14.61058,4.43634 -16.13296,3.89512 -19.913,-6.6237 -1.91111,-5.31882 -3.83642,-11.58428 -4.20182,-13.98348 -0.36663,-2.3993 -2.09494,-4.93551 -3.83647,-5.51979 -2.45007,-0.82169 -2.92257,0.55483 -1.82687,6.07175 1.74096,8.7676 0.0403,9.26365 -3.1057,0.91996 -9.07024,-24.02512 -14.34092,-83.90828 -16.25922,-182.70458 -0.3776,-19.44824 -1.50506,-36.66895 -2.37496,-38.08647 -0.8699,-1.41769 -4.47075,-3.07447 -8.03828,-3.86389 -10.88116,-2.40688 -24.1445,-15.86784 -28.31671,-28.51884 -3.14479,-9.53478 -3.49807,-13.15167 -1.27877,-23.91904 3.74604,-18.17513 7.96657,-26.9746 16.98998,-36.06256 8.95344,-9.01712 21.62846,-33.94759 28.49938,-55.93377 8.34595,-26.70583 22.62048,-76.17929 23.01867,-79.66883 0.51558,-4.51977 0.40299,-4.78356 -24.48018,-4.78379 -15.27975,0 -21.7012,1.10985 -22.28797,3.12787 -0.45496,1.56464 -4.73726,18.68903 -9.31712,38.08648 -4.57986,19.39773 -9.17313,37.71795 -10.2305,40.84634 -1.72097,5.09163 -10.39769,38.00137 -31.97042,121.80313 -3.86574,15.01757 -9.94471,38.10512 -13.51894,51.14999 -3.57424,13.04434 -6.39409,25.49667 -6.39409,27.78288 0,3.86966 2.95063,4.04806 40.55674,4.04778 29.63735,0 40.77625,0.8572 42.38367,2.94392 2.40566,3.12234 2.56939,36.78646 0.18243,39.19043 -0.81759,0.82296 -22.14114,1.46822 -47.49891,1.28797 -35.25558,-0.25114 -46.82404,0.33198 -48.59506,2.57586 -3.03632,3.8475 -5.82424,14.06119 -11.8747,41.76637 -2.73325,12.51456 -7.91126,35.29127 -11.50938,50.78192 -8.97066,38.61903 -10.3339,55.39186 -5.66334,71.57309 4.32006,14.96717 6.88929,15.81143 17.90348,6.07175 6.34414,-5.61003 9.66435,-6.80776 18.81686,-6.80776 12.40966,0 19.98992,5.1339 22.47064,15.08743 3.28614,13.18713 -4.61052,32.75714 -13.88428,34.59064 -2.2488,0.44457 -7.90722,-0.46244 -12.6055,-2.02396 -7.50665,-2.49516 -10.42858,-2.15868 -24.48024,2.39197 -15.34309,4.96867 -16.21218,4.97692 -20.46104,1.10391 -2.65041,-2.41583 -4.97392,-8.46939 -5.84601,-15.08738 -2.3734,-18.01698 -4.90225,-14.78218 -8.76903,11.0396 -2.85728,19.08464 -23.89273,40.84362 -45.48938,47.28604 -17.9891,5.36622 -46.51972,4.89574 -63.940874,-1.10396 -30.287505,-10.43048 -51.251714,-31.13038 -56.450679,-56.30172 -5.117671,-24.77902 -1.87848,-61.82094 6.394088,-72.3091 0.995071,-1.26124 4.081032,-8.75669 6.94217,-16.7433 2.861774,-7.98636 9.626062,-19.72174 14.797716,-26.12697 17.427337,-21.587 28.341993,-42.33759 32.153169,-60.71755 1.95787,-9.44264 2.93902,-19.27286 2.00954,-21.71114 -1.60684,-4.21677 -1.91214,-4.1084 -6.028676,1.28796 -2.380608,3.12048 -4.35672,7.79014 -4.384552,10.48759 -0.05192,5.25821 -32.806155,41.95059 -37.451089,41.95031 -1.855502,0 -2.687759,-5.99676 -2.557623,-19.87118 0.146071,-15.67355 -1.060369,-24.14848 -5.846005,-39.37442 -8.480646,-26.98574 -9.821842,-38.64622 -5.480654,-47.10216 3.885712,-7.5667 7.5686,-9.7514 17.172722,-9.75158 8.437171,0 20.64372,10.12594 20.64372,17.29536 0,7.51184 -3.813255,6.94015 -8.038278,-1.28796 -4.018042,-7.82616 -7.855603,-9.06158 -7.855603,-2.39198 0,5.83214 -2.072531,5.79554 -8.586303,-0.36778 -3.863485,-3.65547 -5.824585,-4.25296 -7.672928,-2.39192 -1.848229,1.86168 -1.194548,4.74136 2.557623,10.85554 4.023065,6.55592 5.750049,14.59887 8.038279,37.90252 1.598059,16.27148 3.66366,30.00056 4.384546,30.72682 3.280529,3.30408 4.440434,-3.46829 4.201814,-25.02302 -0.16166,-14.61896 0.434748,-21.62672 1.64419,-18.76726 1.057367,2.50295 1.922245,14.10894 2.009598,25.75896 0.08718,11.64982 1.127632,20.53421 2.192216,19.87124 2.587532,-1.61066 6.942575,-24.36571 7.672927,-39.92645 0.676888,-14.42243 2.612072,-9.55159 4.932576,11.95955 0.778152,7.21278 2.277776,12.58818 3.288376,11.95956 4.156032,-2.58696 4.841928,-17.64679 1.27884,-29.99086 -2.500752,-8.66495 -3.040056,-13.31265 -1.461512,-14.90344 3.091448,-3.11308 9.31712,2.0286 9.31712,7.72773 -5.6e-5,2.34988 1.075608,4.23207 2.374946,4.23184 3.67705,0 0.29387,-15.46307 -6.576818,-29.62286 C 90.187824,442.04247 80.15444,425.53608 71.247759,412.1441 46.511807,374.94989 35.11396,349.86065 31.056311,323.27566 c -0.250572,-1.64252 -0.505762,-3.1194 -0.913432,-4.41584 -0.01733,-0.0577 0.01731,-0.12933 0,-0.18417 -0.378744,-6.47712 -0.159928,-12.98072 0.182443,-19.50323 0.594849,-2.84554 1.133752,-5.31287 1.826867,-9.38362 6.016554,-35.33677 23.70087,-61.32373 47.13356,-69.36523 13.395843,-4.59674 22.778491,-4.38207 42.566401,0.92001 38.02222,10.18828 66.37754,29.25271 69.96954,47.28609 1.55246,7.79337 10.15228,16.55958 16.44198,16.55935 2.02905,-7e-5 7.65739,2.77991 12.60544,6.07175 14.64512,9.74251 20.46832,19.21632 7.8556,12.87945 -11.33734,-5.69624 -33.83794,-7.55123 -50.05654,-4.04783 -7.86708,1.69904 -17.87663,3.26794 -22.28796,3.31187 -8.1018,0.0808 -13.51894,3.24364 -13.51894,8.09567 0,1.57184 5.63978,3.17869 14.06696,4.04784 15.3738,1.58662 48.90488,10.31404 59.55639,15.45537 3.64541,1.76013 6.89096,4.81127 7.30752,6.99171 0.67186,3.51459 -1.30742,4.04808 -18.08615,4.04789 -18.18928,0 -19.26703,0.25347 -27.03782,7.35966 -4.44753,4.06735 -14.11152,10.89157 -21.37452,15.27143 -12.56544,7.57818 -14.1228,8.01692 -32.88388,7.72767 -14.84425,-0.22863 -20.63419,-1.27849 -23.38407,-4.04783 -2.008564,-2.0226 -4.482532,-3.6796 -5.66334,-3.67984 -1.180864,0 -6.165104,-5.95836 -10.961304,-13.43146 -15.300363,-23.84244 -17.654758,-54.6118 -5.663331,-72.86112 6.112219,-9.30274 20.487083,-17.69592 33.797295,-19.87122 8.77991,-1.43507 23.58922,5.65398 35.07615,16.74334 7.26192,7.01024 9.13826,7.63575 16.4419,6.25576 4.5181,-0.85356 8.06894,-2.62304 8.03828,-4.04784 -0.0289,-1.42514 -3.40673,-7.39216 -7.67287,-13.24746 -5.68561,-7.80369 -11.63254,-12.54152 -22.28797,-17.66329 -16.79766,-8.07397 -18.29226,-8.13366 -41.47022,-3.31189 -23.786498,4.94833 -32.497452,12.04697 -39.095288,32.01472 -6.008703,18.18535 -5.098793,35.65304 3.288381,63.4775 8.053983,26.71898 9.701348,29.9635 37.268417,71.5731 5.98042,9.02722 15.50123,31.95051 19.18227,46.18212 1.85826,7.1864 4.00176,14.05345 4.7499,15.2714 2.78105,4.53188 1.18478,40.99459 -2.37496,54.8298 -3.61037,14.03094 -17.63507,43.99484 -21.73988,46.55014 -1.14138,0.71022 -3.90113,4.9592 -6.39409,9.56758 -2.493536,4.6078 -7.634536,13.61402 -11.326664,19.87122 -3.691664,6.25726 -7.706411,13.68203 -8.951767,16.55934 -1.244776,2.87678 -4.95324,10.89001 -8.220952,17.8473 -7.0383,14.98466 -9.27093,35.86371 -5.66333,52.80584 3.452985,16.21622 13.480712,25.51054 41.287553,37.90252 9.801,4.36815 16.59745,5.70375 28.86474,5.70381 20.11105,0 45.92735,-5.79607 50.96996,-11.40761 6.03664,-6.71786 8.12823,-19.92156 5.48065,-34.95858 -2.16923,-12.32214 -1.94348,-13.86611 2.37495,-18.21526 3.97024,-3.9983 5.36883,-4.20822 9.13445,-1.83998 9.77761,6.14999 15.49296,1.57948 6.21136,-4.96778 -6.79854,-4.79585 -15.83586,-4.54857 -22.28798,0.73595 -4.89244,4.00742 -5.54572,5.93873 -5.11524,22.81509 0.44168,17.31475 0.15242,18.41935 -5.11525,21.89514 -6.34473,4.18716 -17.14593,3.31223 -28.49938,-2.39186 -9.87502,-4.96202 -15.20469,-4.45597 -25.21094,2.39186 -10.63095,7.27542 -21.58112,6.39103 -30.874336,-2.57586 -12.817905,-12.36792 -10.230779,-41.9309 4.201816,-48.02212 4.129936,-1.74308 9.33456,-2.71928 11.50939,-2.02397 4.78055,1.52815 15.67975,12.73275 19.18226,19.68728 3.77164,7.48753 9.45234,10.54313 14.24964,7.54371 5.59947,-3.50108 35.51996,-55.12299 39.46068,-68.07728 6.21512,-20.42854 26.85514,-100.87968 26.85514,-104.87578 0,-1.66157 -2.31974,-3.74442 -5.11524,-4.59978 -14.04104,-4.29558 -24.48024,-18.86847 -24.48024,-34.77466 0,-7.2138 7.97032,-21.44548 14.06702,-25.20696 2.89894,-1.78886 11.83564,-3.70204 19.913,-4.41582 l 14.79773,-1.28797 3.65378,-16.00733 c 8.85767,-36.58379 24.73105,-99.27418 30.14352,-119.41121 3.19606,-11.88889 7.05926,-27.81757 8.76903,-35.32659 7.32201,-32.15081 23.97714,-94.78686 26.30711,-99.17205 4.57704,-8.6128 0.0785,-9.77732 -39.46063,-9.19962 -35.596,0.52019 -41.6562,1.54627 -68.87344,9.93563 -9.59858,2.95867 -16.05768,10.85578 -8.76904,10.85555 6.44033,0 13.15352,9.01787 13.15352,17.8473 0,6.56389 -1.99753,10.48562 -7.85554,16.92729 -7.22358,7.94204 -8.29295,8.4639 -21.37454,8.46367 -12.47865,0 -14.54026,-0.69577 -21.73989,-7.35971 -6.96381,-6.44565 -8.16079,-9.25904 -9.31712,-21.15912 -0.7292,-7.50879 -2.87459,-16.30786 -4.56722,-19.68723 -1.69199,-3.37948 -2.92297,-7.03101 -2.92297,-8.09567 0,-1.06417 7.48073,-3.24664 16.80731,-4.59984 9.32659,-1.35308 18.60381,-3.59952 20.46105,-5.15179 2.15532,-1.80141 3.28838,-6.86215 3.28838,-13.98342 0,-10.02784 -0.62585,-11.48583 -6.21136,-13.79946 -3.4169,-1.41591 -10.66766,-3.12043 -16.25928,-3.86383 -9.98737,-1.32769 -10.19308,-1.5599 -9.68248,-9.38363 1.17417,-17.97582 0.92828,-22.099923 -1.27878,-36.246563 -2.0858,-13.371943 -1.8678,-15.177897 2.00955,-18.583246 5.91701,-5.19608 24.26933,-7.360982 35.8069,-4.23184 11.09254,3.00824 22.83599,13.285623 22.83599,20.055223 0,7.3656 -3.89414,15.329806 -10.23049,21.711075 -7.85099,7.907041 -7.24598,11.364071 2.74029,17.663301 9.71042,6.12556 -13.3545,5.44098 243.88876,6.80776 158.1521,0.84033 152.44969,1.25453 155.4677,-10.8556 1.06792,-4.28483 -0.43764,-8.32118 -5.66332,-16.191336 -5.99492,-9.030571 -6.77832,-12.107988 -5.84602,-20.791165 0.86598,-8.06576 2.64539,-11.564652 8.5863,-16.559349 6.47054,-5.440297 13.03327,-8.757486 18.99959,-9.383623 z m 42.93175,8.095668 c 4.01133,-0.192262 7.92489,2.832675 7.30746,7.175715 -0.88376,6.217303 -7.08818,7.396834 -12.05742,2.39192 -3.35287,-3.376949 -3.25715,-4.263246 -0.36547,-7.175715 1.5002,-1.510697 3.29145,-2.304274 5.1153,-2.39192 z m -274.76309,4.59984 c -13.61334,0.38048 -34.82921,2.430492 -51.33537,5.519749 -11.49358,2.151451 -21.00919,4.888571 -21.00919,5.887794 0,2.661669 9.69679,2.133909 36.35498,-1.655965 13.04707,-1.854983 29.3925,-3.85464 36.5376,-4.599783 7.14517,-0.745246 12.97092,-2.578755 12.97092,-3.863886 0,-1.21008 -5.35041,-1.516137 -13.51894,-1.287909 z m -143.59296,4.783783 c -0.26962,0.04617 -0.60304,0.174949 -0.91343,0.367783 -1.24252,0.773429 -2.19221,1.839909 -2.19221,2.391932 0,0.551942 0.94963,0.920182 2.19221,0.919942 1.24259,0 2.19228,-1.067005 2.19228,-2.39192 0,-0.99408 -0.46823,-1.425142 -1.27885,-1.287954 z m 32.15318,2.759875 c -3.97746,0.07737 -7.00372,0.336605 -8.03829,0.919965 -3.04299,1.715029 -2.69266,2.224252 2.00955,3.311875 3.08918,0.71424 11.72676,1.51776 19.18226,1.83992 14.52226,0.62776 19.18226,-0.06526 19.18226,-2.759875 0,-1.94136 -20.4033,-3.543977 -32.33578,-3.311885 z m 117.10312,0.919965 c -2.1726,0 -3.28839,2.329566 -3.28839,6.255749 0,5.872857 0.10743,5.891908 3.28839,1.655966 4.26896,-5.684115 4.21658,-7.911486 0,-7.911715 z m 71.43112,2.39192 c 12.10874,0 13.5948,0.51384 15.34579,5.151795 1.08237,2.8672 3.66984,6.613657 5.66333,8.279668 1.99298,1.66624 3.65379,4.826103 3.65379,7.175714 0,5.936009 -7.97828,5.493989 -18.63424,-1.103965 -9.81272,-6.075497 -19.73034,-14.911337 -19.73034,-17.663303 0,-1.033177 6.21499,-1.83968 13.70167,-1.839909 z m 198.9474,60.349616 c 1.44888,-0.1253 2.95324,1.01176 3.47112,2.57586 0.63636,1.92271 -1.65227,2.94411 -7.1249,2.94387 -8.40104,0 -11.43266,-4.36618 -3.47106,-4.96778 2.48516,-0.18765 5.67476,-0.42666 7.12484,-0.55195 z m 18.08611,0.18417 c 1.41723,-0.0946 3.00039,0.25923 4.56722,1.10396 4.97535,2.68175 5.2011,12.2984 0.36546,14.16742 -5.04498,1.94955 -6.42279,1.81111 -9.49979,-1.28797 -5.48094,-5.51962 -1.57392,-13.57251 4.56716,-13.98341 z m -535.64179,5.3358 c 4.02256,0.003 7.50043,0.48787 10.04789,1.47191 2.69705,1.04236 0.0791,2.6358 -8.58637,5.3358 -19.93414,6.21187 -25.721606,7.05065 -28.499374,3.67982 -1.981712,-2.40457 -0.633416,-3.90205 6.576824,-6.8077 5.8736,-2.36692 13.75645,-3.68486 20.46103,-3.67983 z m -38.547182,9.01563 c 5.747912,0 8.321064,5.74796 4.567216,10.30358 -3.587048,4.35366 -8.931213,4.36832 -10.595957,0 -2.027958,-5.32165 0.902694,-10.30336 6.028741,-10.30358 z m -29.960842,2.39186 c 9.114581,0.052 13.624473,3.53399 6.942113,5.33579 -5.905242,1.59257 -6.441258,1.61423 -10.413228,0 -5.064266,-2.05803 -2.890353,-5.37147 3.471115,-5.33579 z m 615.659204,5.33579 c 2.25594,-0.1732 5.71482,3.34439 10.41322,10.11965 3.73046,5.37898 6.86666,7.35994 11.5094,7.35966 5.38018,0 9.13438,3.47381 9.13438,8.27966 0,0.52309 -3.98138,0.92019 -8.95172,0.92002 l -9.13443,0 0,9.19962 c -1.2e-4,10.57916 -4.04478,29.10364 -7.30752,33.30263 -2.65993,3.4236 -6.21142,3.74097 -6.21142,0.55195 0,-1.26464 2.06647,-11.51119 4.56722,-22.8151 3.30236,-14.93246 3.87423,-21.67274 2.19228,-24.839 -2.27045,-4.27157 -2.50808,-4.22081 -10.23055,0.36777 -8.7743,5.21381 -10.65509,2.24683 -3.47106,-5.51974 2.48569,-2.6866 4.74989,-7.30065 4.74989,-10.11959 0,-4.404 0.98537,-6.67277 2.74031,-6.80776 z m -262.88834,7.17555 c -8.64855,0.30657 -10.80728,2.54722 -6.94212,6.43974 1.3827,1.39276 2.55763,5.53741 2.55763,9.19964 0,9.67358 -13.10325,52.71854 -20.64377,67.89332 -7.09951,14.28716 -7.3842,15.4556 -4.38456,15.45532 4.76618,0 26.82546,-51.24253 33.98004,-78.9328 1.37496,-5.31877 3.39634,-9.75135 4.56721,-9.75165 4.27671,0 -4.79146,48.10017 -14.79777,78.38087 -4.9642,15.02328 -5.16235,20.86046 -0.91343,18.21532 2.47235,-1.53867 15.18823,-34.98956 18.45151,-48.57407 2.60196,-10.83383 6.57676,-17.63854 6.57676,-11.40755 5e-5,9.8003 -5.921,32.27852 -11.87475,45.99814 -8.57568,19.76001 -7.71882,27.19922 1.46152,12.87951 8.8755,-13.84439 16.97001,-38.6625 18.63423,-57.58969 1.36274,-15.50226 3.38504,-16.15069 6.02876,-2.02391 0.76152,4.06729 0.42377,7.35989 -0.73077,7.35971 -1.15523,-6e-5 -2.82719,3.77082 -3.65379,8.46362 -0.82596,4.69325 -3.80154,19.01366 -6.7595,31.8307 -5.57436,24.15352 -6.80638,39.37472 -3.28838,39.37444 1.1191,7e-5 2.95479,-5.57303 4.20182,-12.1435 1.24703,-6.57024 4.02214,-21.35842 6.21142,-32.93467 2.18868,-11.57614 4.80924,-20.97495 5.84605,-20.97518 1.03619,0 1.97115,1.19582 2.0096,2.75993 0.0403,1.56457 1.11614,10.48538 2.37489,19.87116 4.32894,32.27378 3.093,40.09128 -8.22094,52.43795 -7.72692,8.43215 -12.20344,23.99607 -12.24016,42.50225 -0.0289,12.87438 -1.53807,19.33393 -6.21135,29.62286 -7.9339,17.47 -13.59181,38.27145 -15.52854,56.48572 l -1.64418,14.71936 44.57593,0 c 26.95912,0 44.21058,-0.87237 44.21058,-2.20786 0,-4.83569 -31.79122,-177.47154 -38.36452,-208.27966 -2.40347,-11.2632 -6.53028,-31.67985 -9.13444,-45.44618 -2.60364,-13.7662 -5.35866,-25.65012 -6.21142,-26.49497 -0.85315,-0.84462 -9.55532,-2.15533 -19.18226,-2.75987 -4.34344,-0.27309 -8.0784,-0.47055 -10.9613,-0.36778 z m -342.723046,8.27966 c 1.247547,-0.002 1.937141,0.921 1.096109,3.12788 -2.118027,5.56067 8.05404,10.80732 17.538067,9.01568 10.994688,-2.07721 10.252896,-6.72936 -1.461456,-9.01568 l -9.682525,-1.83992 8.951773,-0.91996 c 18.752184,-1.80774 25.675358,5.20543 12.60544,12.69551 -7.552784,4.32821 -8.402704,7.57513 -3.653736,16.74335 4.247776,8.2008 0.983992,7.97119 -7.672928,-0.55195 -3.813367,-3.75448 -7.581529,-6.80753 -8.403625,-6.80776 -0.822095,0 -5.851086,4.91132 -11.143984,10.85559 -10.390594,11.67093 -11.912213,10.84538 -6.759496,-3.86389 1.827212,-5.21432 2.747112,-12.47877 2.009599,-16.19133 -0.787628,-3.96944 -0.197455,-8.10658 1.461515,-10.11958 1.81988,-2.20851 3.868218,-3.1258 5.115247,-3.12788 z m 359.895766,25.75896 c 0.13625,0.052 0.39144,0.34526 0.54791,0.73602 0.62625,1.56451 0.62625,4.13963 0,5.70374 -0.62695,1.56458 -1.27936,0.18476 -1.27885,-2.94387 6e-5,-2.34642 0.32216,-3.64917 0.73077,-3.49589 z m 255.39808,37.90253 c 3.07147,-0.21189 3.46592,0.92366 2.92298,4.78379 -0.49711,3.53439 -2.51952,5.38718 -6.02868,5.88774 -4.38016,0.62505 -5.00526,-0.005 -4.38448,-4.41577 0.49652,-3.53446 2.33683,-5.57142 5.846,-6.07175 0.54732,-0.0785 1.20592,-0.15358 1.64418,-0.18418 z m -563.04504,40.66234 c -2.99745,0.15473 -5.57309,0.87025 -6.39409,2.20792 -0.76805,1.25148 -3.29496,2.20809 -5.66332,2.20792 -4.579292,0 -9.875372,7.87927 -8.403636,12.32751 0.484984,1.46509 6.412736,4.24454 13.153526,6.25575 6.74022,2.01121 13.66466,3.16725 15.52854,2.57592 8.75812,-2.78054 11.91712,-15.59625 5.48065,-22.07913 -2.45959,-2.47674 -8.70576,-3.75344 -13.70167,-3.49589 z m -6.02868,9.19963 c 0.68959,-0.0993 1.40291,5e-5 2.19227,0 3.55807,0 5.33615,1.16984 4.74991,2.94387 -1.04075,3.14671 -5.6705,4.20973 -10.04788,2.39193 -3.8882,-1.61447 -1.72139,-4.64079 3.1057,-5.3358 z m 287.73388,9.38363 c -0.80535,0.0403 -1.38525,0.29157 -1.82687,0.73601 -1.32214,1.3311 0.32853,2.84821 16.25923,14.16742 9.1942,6.53306 10.44684,2.02519 1.6442,-6.07175 -5.96148,-5.48417 -12.58518,-8.99825 -16.07656,-8.83168 z m -45.12397,2.02391 c -2.50912,-0.14376 -6.36759,6.09081 -8.95171,14.90344 -1.9395,6.61775 -4.62686,11.11764 -7.12484,11.77554 -7.96392,2.09719 -8.59086,35.6688 -0.91344,47.4701 1.94956,2.99654 4.44968,5.33598 5.66334,5.33574 2.89895,6e-5 3.04006,0.2165 -2.19227,-10.11958 -2.90288,-5.73486 -4.53357,-13.0571 -4.38449,-20.42316 l 0.18244,-11.40756 2.7403,12.51151 c 2.86004,13.01385 7.73348,23.85745 9.68247,21.89513 0.61961,-0.62434 -0.26213,-8.83635 -1.82687,-18.2153 -2.73048,-16.36864 -2.49181,-17.61353 3.28838,-34.59058 3.31171,-9.72786 5.50658,-18.18951 4.93258,-18.76727 -0.2933,-0.29561 -0.73741,-0.34757 -1.09612,-0.36777 z m -211.5529,0.36778 c -0.78705,0.0952 -3.03256,1.5823 -5.29799,3.86389 -2.58862,2.60711 -5.69958,4.78402 -6.94216,4.78379 -2.97846,0 -2.85866,8.26085 0.18244,13.98342 4.52369,8.51268 9.86358,4.16427 11.50939,-9.38364 0.83319,-6.86099 1.14963,-12.82536 0.73077,-13.24746 -0.0519,-0.052 -0.0704,-0.0115 -0.18245,0 z m 312.57952,1.83998 2.55762,10.30358 c 2.81669,11.26592 1.95729,14.7196 -3.65378,14.71937 -1.98351,0 -7.46219,4.14101 -12.24009,9.19962 -4.77842,5.05867 -8.58637,8.25265 -8.58637,7.17571 0,-7.28472 8.09261,-25.7518 14.43237,-32.93467 l 7.49025,-8.46361 z m -367.386016,1.2879 c -0.397216,0.11257 -0.629776,0.45034 -0.913432,0.73601 -2.579736,2.59821 -1.119952,10.69232 1.826872,10.11959 1.225896,-0.23846 2.892024,1.66086 3.836464,4.23182 1.411168,3.84334 2.347576,4.15356 5.115304,1.83992 2.8422,-2.37558 3.471058,-1.74777 3.471058,3.49582 0,4.58582 0.78653,5.75092 3.28837,4.78385 2.05192,-0.79288 3.47106,0.0289 3.47106,2.02391 6e-5,1.81417 2.38592,3.81759 5.48066,4.59978 l 5.66333,1.47198 -7.30753,4.9678 c -4.0264,2.72614 -7.64111,7.16282 -8.03827,9.93563 -0.93717,6.54541 1.61486,6.46216 8.22095,-0.55195 7.50285,-7.9664 10.23777,-7.10666 4.93257,1.6559 -2.46178,4.06735 -4.5622,8.73942 -4.56716,10.30359 -0.0115,4.40487 3.32146,3.28845 9.13439,-2.94387 6.68011,-7.16157 8.95171,-7.08402 8.95171,0 l 0,5.51975 8.22101,-4.9678 c 4.46635,-2.75819 11.00379,-7.96576 14.79771,-11.40754 3.79508,-3.44157 8.13044,-6.06448 9.4998,-6.07175 1.3688,-0.006 6.30194,-1.27256 10.9613,-2.57587 13.30192,-3.72047 10.25451,-7.04558 -4.7499,-5.3358 -10.51801,1.19841 -13.47384,0.91337 -15.89387,-2.02392 -3.75777,-4.55988 -9.85221,-4.75133 -18.26883,-0.36777 -4.00586,2.08668 -9.06452,2.88446 -13.33626,2.02392 -7.95768,-1.60263 -8.43024,-2.39308 -3.47106,-7.91167 5.37136,-5.97735 1.80984,-9.96919 -4.93257,-5.51979 -2.99133,1.97408 -5.29798,2.56788 -5.29798,1.2879 6e-5,-1.28035 0.9497,-2.39164 2.19228,-2.39187 1.24258,0 2.19227,-1.66705 2.19227,-3.67988 0,-2.76755 -1.2095,-3.28728 -5.48065,-2.20787 -4.42687,1.11932 -5.831572,0.57932 -5.846012,-2.57592 -0.01736,-3.8136 -7.3074,-8.47002 -11.692064,-8.46368 -0.50576,8e-4 -1.06424,-0.11257 -1.46152,0 z m 21.557216,3.31188 5.29798,5.7038 c 5.73175,6.14507 11.14399,7.51946 11.14399,2.75987 0,-4.66139 -4.86411,-8.46338 -10.96131,-8.46367 l -5.48066,0 z m 79.46935,0.55194 c 2.66483,-0.10388 4.32322,0.306 5.1153,1.10397 1.27486,1.28421 2.05192,4.88015 1.64418,7.91167 l -0.73075,5.33578 -15.52853,-4.78378 -15.52848,-4.78384 13.88429,-3.12788 c 4.74286,-1.01342 8.47914,-1.55187 11.14399,-1.65592 z m 381.08762,1.83992 c 1.35494,-0.21939 3.78704,1.3282 6.39408,5.3358 2.79048,4.28968 2.81964,5.74543 0.54792,6.62376 -1.59576,0.61638 -4.01614,-0.76666 -5.48072,-3.12788 -3.24265,-5.22905 -3.2046,-8.54976 -1.46146,-8.83168 z m 76.729,1.28796 c -2.22324,-0.0976 -5.22196,2.3156 -11.50934,8.64768 -7.50665,7.5608 -13.78614,11.38716 -22.65333,13.98342 -6.74517,1.97454 -12.05741,4.64284 -12.05741,5.88774 0,3.16651 4.63553,11.861 7.30752,13.61547 1.90897,1.25361 14.93409,-1.29075 16.07656,-3.12788 0.21882,-0.35161 6.62792,-8.42909 14.24969,-18.03124 11.57031,-14.57735 13.46067,-17.99771 10.77857,-20.23924 -0.6479,-0.54155 -1.45082,-0.70345 -2.19226,-0.73595 z m -269.6478,1.83992 c -1.33154,0.14088 -3.18826,0.97266 -5.29792,2.57592 -5.83692,4.43386 -17.53807,28.07491 -17.53807,35.32655 0,2.55895 0.90576,6.59506 2.19228,9.01568 1.286,2.42073 4.14287,4.41607 6.21136,4.41578 2.92516,0 3.0221,-0.63648 0.91348,-2.75987 -4.19945,-4.22954 -3.18203,-6.43947 2.92299,-6.43976 4.55538,6e-5 6.65636,-2.18095 11.50938,-12.51144 3.27048,-6.96314 5.39122,-13.15354 4.7499,-13.79948 -0.64133,-0.646 -3.87214,0.42898 -7.12485,2.57588 -10.67655,7.04522 -9.87703,2.54612 2.19222,-13.98342 2.24989,-3.08118 1.48795,-4.65112 -0.73077,-4.41584 z m 29.04748,1.28796 c -2.11808,0.0346 0.47342,3.76926 6.57676,9.56764 7.06452,6.71243 10.40029,8.50362 11.14398,6.25575 1.21418,-3.66927 -12.53686,-15.90825 -17.72074,-15.82339 z m -280.06101,11.40755 c -3.0325,0 -5.11859,4.12317 -3.47105,6.8077 2.36108,3.84771 5.66332,2.40745 5.66332,-2.39186 0,-2.50289 -1.02313,-4.41561 -2.19227,-4.41584 z m 276.40721,0.73595 c -0.30946,0.0855 -0.6676,0.3112 -0.91343,0.55196 -1.97565,1.9343 0.005,5.38267 8.22095,13.9834 5.99993,6.28064 11.67389,11.64727 12.6055,11.77556 4.49922,0.61979 0.77136,-7.35914 -8.22095,-17.2953 -5.60939,-6.19882 -8.71061,-8.84409 -10.77863,-9.01562 -0.34468,-0.0289 -0.60368,-0.0855 -0.91344,0 z m 178.85177,1.47197 c 1.93733,0 2.95988,0.95667 2.19222,2.20792 -0.76799,1.25147 -2.30185,2.39209 -3.47099,2.39186 -1.1692,0 -2.19228,-1.14022 -2.19228,-2.39186 0,-1.25142 1.53374,-2.20769 3.47105,-2.20792 z m -120.39155,7.17571 c 1.54137,-0.18072 1.64425,1.44736 1.64425,4.41578 0,3.17666 -2.50987,5.66176 -7.8556,7.91172 -4.39633,1.84961 -9.36712,6.30287 -11.32665,10.11959 -4.1416,8.06604 -7.77409,8.84547 -7.67294,1.65596 0.0959,-6.80015 3.4874,-11.10963 14.98046,-18.39931 5.74114,-3.64086 8.68929,-5.52332 10.23048,-5.70374 z m 164.78476,2.02391 c 1.37388,-0.2396 1.82692,0.35046 1.82692,1.65591 0,0.95044 -2.08206,3.03689 -4.56721,4.59985 -3.71159,2.33453 -4.56717,2.25145 -4.56717,-0.36777 -6e-5,-1.75384 1.68807,-3.84029 3.65374,-4.59985 1.74095,-0.67262 2.82944,-1.14461 3.65372,-1.28791 z m -222.33154,6.80771 c -3.09705,0.70148 -1.74771,3.9233 4.38454,10.85559 9.94124,11.23769 12.85776,9.29431 5.11526,-3.49587 -2.46231,-4.0673 -6.15605,-7.35956 -8.03829,-7.35972 -0.62481,0 -1.01903,-0.10045 -1.46151,0 z m 59.55638,11.03959 c 2.894,0.13337 4.14951,2.14222 4.20187,6.43971 0.0403,3.17632 -7.7041,3.60932 -14.61509,0.73601 -4.07197,-1.69275 -3.82728,-2.22559 3.28844,-5.3358 3.00911,-1.31539 5.38886,-1.91983 7.12478,-1.83992 z m -59.37365,0.18417 c -3.8229,0 -2.06353,7.71746 2.92297,13.06348 5.55658,5.95724 8.58636,6.59263 8.58636,2.02391 -6e-5,-3.80605 -8.62037,-15.08715 -11.50933,-15.08739 z M 356.79,366.14534 c -1.47509,-0.1634 -3.09359,1.33305 -5.66334,4.96779 -2.6381,3.7312 -4.74989,8.01253 -4.74989,9.38362 0,1.37117 1.89938,2.39216 4.38456,2.39192 2.8456,0 4.56721,-1.46913 4.56721,-4.04782 0,-2.25261 1.24905,-5.30589 2.74031,-6.80776 1.93616,-1.95043 1.9209,-3.40102 0.18243,-5.1518 -0.43417,-0.43763 -0.96984,-0.68158 -1.46151,-0.73595 z m 10.23055,3.12787 c -5.42696,-6e-5 -12.39604,14.19485 -8.76904,17.8473 4.09542,4.12526 5.87552,3.03326 9.49979,-5.7038 4.39633,-10.59641 4.25517,-12.14326 -0.73075,-12.1435 z m 249.18673,1.47197 c 0.75207,-0.0982 1.09617,-0.0791 1.09617,0.36777 -6e-5,1.19138 -3.94304,4.31192 -8.95177,6.80777 -10.18707,5.07639 -8.76371,1.58686 2.00954,-4.78385 2.38944,-1.41319 4.59407,-2.22756 5.84606,-2.39186 z m -233.65819,6.07175 c -5.77292,-0.0115 -11.01784,1.64828 -12.42284,5.3358 -1.17138,3.0754 0.0231,3.39629 8.22096,2.20786 5.29694,-0.76794 11.28965,-0.31004 13.15358,0.91996 4.7712,3.14872 9.5144,2.64526 8.40362,-0.73596 -1.65364,-5.03412 -9.93263,-7.7108 -17.35532,-7.72766 z m 213.19709,9.19963 c 0.81044,-0.15762 1.27885,0.16512 1.27885,1.10395 0,1.25148 -0.94964,2.90664 -2.19229,3.67983 -1.24257,0.77337 -2.1922,0.51558 -2.1922,-0.73595 0,-1.25125 0.94963,-2.90629 2.1922,-3.67989 0.31063,-0.19341 0.64365,-0.31523 0.91344,-0.36777 z m 40.92215,23.36704 c 0.69248,-0.21767 1.01164,0.0855 1.09616,0.91997 1.57745,15.6329 2.66472,19.6114 5.66334,22.63108 3.05201,3.074 4.01907,3.1975 9.31712,0.18417 3.27879,-1.86508 7.15798,-6.93345 8.5863,-11.22348 l 2.55768,-7.72766 6.02868,10.30359 c 3.18428,5.73826 7.53049,16.42302 9.68246,23.73498 12.67507,43.06524 13.47847,47.67362 8.76904,49.49397 -4.94141,1.90948 -7.16999,1.6861 -8.76904,-0.9199 -0.76753,-1.25147 0.62558,-2.39181 3.10571,-2.39199 3.94299,0 4.27318,-1.00384 3.10571,-8.46361 -0.73526,-4.69279 -5.85877,-16.66702 -11.5094,-26.67898 -12.32623,-21.84139 -11.5856,-20.34627 -13.15352,-18.7672 -0.70304,0.70789 2.03714,7.48765 5.84606,15.08737 7.06105,14.08809 9.71158,22.61602 3.28833,10.6716 -2.79654,-5.20088 -4.12953,-5.81264 -5.84601,-3.31189 -1.61902,2.35792 -2.0111,1.92248 -1.0961,-1.47196 1.68408,-6.25189 -1.79223,-11.23278 -6.57683,-9.38357 -3.89951,1.50701 -4.08547,-0.0173 -0.91337,-12.14356 0.6691,-2.56092 -0.88058,-3.12926 -6.94217,-2.57587 -10.2432,0.93515 -12.00846,2.32484 -8.76904,6.25575 1.90158,2.30844 1.82329,3.1281 0,3.12788 -4.35135,0 -2.74387,4.81964 2.0096,6.0718 2.48511,0.65438 4.56717,2.24297 4.56717,3.49577 0,1.25333 3.03174,5.84341 6.75949,10.11965 12.01868,13.78631 7.20003,13.6105 -5.84605,-0.18418 -25.30102,-26.75196 -28.82981,-37.16836 -16.80726,-51.33388 2.72539,-3.21142 4.69182,-5.15681 5.84594,-5.51974 z m -66.86385,39.55838 c -13.94878,0 -18.27518,2.93747 -12.78817,8.46368 2.69486,2.71425 5.03886,2.82129 11.87474,0.91995 8.04456,-2.23667 8.9158,-1.87634 16.07656,5.3358 8.85713,8.91995 9.161,11.03884 2.92302,21.34318 -4.35071,7.18778 -5.27829,7.62674 -14.06701,6.4397 -8.5318,-1.15246 -13.36755,-4.73188 -15.89388,-11.59156 -0.67077,-1.82004 -1.6536,-1.70712 -3.65373,0.18418 -4.64049,4.38813 -0.78186,16.00532 6.21135,18.58326 3.33515,1.22936 10.81727,2.29268 16.62464,2.39192 20.74291,0.35277 30.15022,-15.53776 20.82646,-35.32659 -5.89699,-12.51584 -13.05059,-16.74307 -28.13398,-16.74335 z m -374.87621,0.36777 c -1.18138,-0.0231 -2.94186,0.56985 -5.29792,1.83998 -6.70014,3.61164 -10.59596,11.43393 -10.59596,22.07908 0,6.5961 2.06618,9.9925 10.04787,18.03125 5.42807,5.46697 11.2691,9.93587 13.15353,9.93563 4.7685,0 11.99524,-11.06824 8.03828,-12.3275 -1.59632,-0.50865 -6.61688,-2.09654 -11.14398,-3.49582 -7.50943,-2.32155 -8.2724,-3.40847 -9.68248,-12.87958 -1.32266,-8.88173 -0.87347,-11.1654 3.47112,-15.82333 4.17382,-4.4746 4.60932,-7.31283 2.00954,-7.35971 z m 12.6055,6.43976 c -4.27,0.052 -8.76164,1.54224 -11.50932,4.59984 -5.27576,5.87118 -2.53528,15.69303 5.66332,19.87116 6.79188,3.46112 6.16141,3.42158 11.14398,0.73602 5.02368,-2.7078 7.697,-14.90135 4.56716,-20.79118 -1.59742,-3.00629 -5.5945,-4.46677 -9.86514,-4.41584 z m 364.64566,6.6237 c -3.08204,-0.0462 -6.17637,0.6691 -8.58636,2.20792 -4.92085,3.1422 -2.19966,14.60193 4.20188,17.84736 8.45998,4.28905 12.88511,3.54981 16.98992,-2.75999 3.42856,-5.26956 3.42856,-6.13768 0,-11.40754 -2.3933,-3.67937 -7.46825,-5.81055 -12.60544,-5.88775 z m -507.325123,9.38362 c 0.54791,0 1.789453,0.95669 2.557623,2.20792 0.767593,1.25142 0.219973,2.20816 -1.096107,2.20792 -1.316022,0 -2.374949,-0.95626 -2.374949,-2.20792 0,-1.25146 0.365467,-2.20768 0.913433,-2.20792 z m 601.774913,9.01568 c 1.28307,0 3.54347,1.58814 5.11525,3.49584 4.36574,5.29787 1.20119,6.30396 -3.47105,1.10402 -2.25596,-2.51016 -2.92749,-4.59962 -1.6442,-4.59986 z m -356.97273,36.79852 c 0.37182,0.17147 0.30254,1.49911 0.36548,4.2319 0.0923,4.01942 -3.46292,9.31042 -11.32672,17.11129 -12.40349,12.30411 -13.65912,17.473 -7.85556,31.46265 1.86382,4.4928 3.47106,10.8146 3.47106,13.98347 0,9.03307 3.66979,6.67289 8.03828,-5.15185 5.00769,-13.55583 7.8556,-16.87376 7.8556,-9.19951 0,3.20819 2.42814,8.33336 5.48066,11.40743 6.86758,6.91677 10.41046,15.75993 8.76904,22.07914 -1.48507,5.71984 0.42608,5.9516 11.50934,1.28796 9.68702,-4.0764 28.82073,-3.91561 34.89346,0.36778 2.29776,1.62104 4.97444,6.72687 5.846,11.4076 0.87158,4.68016 3.08372,11.48607 4.93257,15.08737 4.00085,7.79105 2.97148,9.31158 -4.74989,7.35973 -3.74334,-0.9459 -5.846,-2.95572 -5.846,-5.88782 0,-2.47921 -0.9497,-4.41554 -2.19228,-4.41578 -1.24258,0 -2.19227,1.08554 -2.19227,2.39192 5e-5,1.30644 -1.84431,2.02375 -4.01913,1.65592 -2.90791,-0.49191 -3.8665,0.65033 -3.47107,4.41584 0.29677,2.81593 -0.41685,5.15202 -1.64419,5.15178 -1.22751,0 -2.19226,-2.09672 -2.19226,-4.59984 0,-2.503 -1.17043,-4.5996 -2.55764,-4.59984 -1.41722,0 -2.02166,2.38518 -1.46152,5.33586 0.72863,3.83866 -0.54674,5.9034 -4.38448,7.72766 -4.96698,2.3608 -5.1153,1.98834 -5.1153,-5.5198 0,-10.1085 -5.38511,-9.00229 -6.39409,1.28796 -0.39664,4.04686 -2.00567,7.17589 -3.65373,7.17577 -1.61804,0 -5.42708,2.28108 -8.58636,4.78379 -5.43198,4.30314 -15.20106,5.58013 -21.73989,2.94387 -1.62583,-0.65576 -5.90161,-7.91207 -9.49979,-15.82333 -3.59762,-7.91131 -7.94262,-15.15856 -9.68247,-16.19132 -5.19665,-3.08614 -8.4918,-11.62937 -6.94217,-17.84737 0.91609,-3.67527 0.2448,-7.11382 -1.82686,-9.56757 -6.30692,-7.47046 -9.5028,-18.30682 -6.39409,-22.07914 3.70707,-4.49887 11.10258,-4.51556 16.25923,0.18417 5.89865,5.3765 8.00311,1.83922 3.47111,-5.88775 -2.10919,-3.59628 -3.83647,-10.29024 -3.83647,-14.90343 0,-6.99026 1.83466,-10.05163 10.77858,-18.9512 5.90202,-5.8728 12.0383,-12.81011 13.51894,-15.27144 1.27369,-2.11791 2.00342,-3.11495 2.37494,-2.94387 z m 296.3203,5.5198 c 9.68697,0.36662 22.50119,8.24064 29.41275,19.68722 5.85086,9.68882 9.70833,32.24635 7.85561,45.81412 -1.18075,8.6474 -3.46493,13.4503 -9.13444,19.50317 -7.36144,7.85785 -7.76242,7.90248 -10.9613,3.49587 -1.80604,-2.48742 -3.84988,-3.85008 -4.74984,-2.94386 -0.89994,0.9065 -0.42494,3.45264 1.27876,5.51979 2.71428,3.29411 2.24528,4.57572 -4.56715,10.30359 -10.44504,8.78225 -16.90801,8.47228 -20.09575,-0.73595 -3.51575,-10.15855 -3.63346,-10.03206 7.49024,-15.45544 20.20395,-9.8502 30.20264,-29.62753 24.11484,-48.20606 -3.30778,-10.09417 -18.2455,-24.64241 -27.22054,-26.49486 -6.57335,-1.35656 -6.8222,-1.96109 -3.83646,-6.07175 2.28378,-3.14438 6.01026,-4.58269 10.41328,-4.41584 z M 141.58336,547.5619 c 2.08303,-0.43591 2.43967,4.11197 0.91343,12.32738 -3.3729,18.15839 1.12907,33.94776 12.97084,45.44618 10.60925,10.3014 11.72978,11.95973 7.12486,11.95956 -3.97076,0 -10.11711,16.47465 -6.57678,17.6633 1.41442,0.47458 2.74031,1.7969 2.74031,2.94387 0,5.46686 -7.25596,1.06648 -13.51893,-8.27968 l -6.94212,-10.48757 4.56717,-5.70375 c 4.79008,-6.13336 5.91361,-11.95933 2.37495,-11.95956 -1.15188,0 -3.91782,2.53326 -6.3941,5.70374 -2.8784,3.68514 -5.22304,4.92311 -6.2114,3.31194 -0.85045,-1.38617 0.67307,-4.92385 3.28843,-7.72771 4.74783,-5.08944 6.53617,-12.69528 2.92297,-12.69551 -1.05014,0 -3.77936,2.09718 -6.02867,4.59984 -5.41027,6.02128 -8.03829,5.69855 -8.03829,-0.92002 0,-3.50898 1.64264,-5.85374 4.56718,-6.62369 5.77966,-1.52244 5.92394,-6.25553 0.18244,-6.25575 -3.70494,0 -4.1039,-0.82661 -2.55763,-6.25576 1.99961,-7.02358 8.37061,-20.41399 11.87475,-24.83902 1.02729,-1.2965 2.04614,-2.06265 2.74029,-2.20779 z m 260.69601,5.88769 c 0.42956,-0.11086 0.97618,0.0635 1.6442,0.73594 0.70915,0.71425 0.94744,4.82802 0.54789,9.01562 l -0.73069,7.54373 -1.64424,-7.72773 c -1.23636,-5.61534 -1.10548,-9.2349 0.18243,-9.56756 z m 48.96048,46.36608 c -0.85542,-0.16917 -0.91344,0.81672 -0.91344,3.12793 0,2.44758 0.63273,5.23759 1.46152,6.07175 2.523,2.54134 5.29798,1.65948 5.29798,-1.65597 0,-1.72363 -1.60724,-4.32953 -3.47111,-5.88775 -1.05627,-0.88242 -1.86157,-1.55424 -2.37495,-1.65596 z m -158.75608,1.65596 c -1.25367,0.14954 -3.24092,2.44828 -4.74988,6.80771 -2.42682,7.01156 -0.65837,15.73713 4.56721,22.07914 6.59893,8.00791 20.16913,-0.80945 20.09569,-13.06346 -0.0403,-7.06123 -1.83194,-9.94557 -8.40368,-13.43152 -5.71673,-3.03192 -6.84252,0.0711 -1.64418,4.41584 1.86397,1.55799 3.3073,4.40301 3.28842,6.43976 -0.0289,3.02509 -0.37874,3.14611 -2.00959,0.55195 -2.39782,-3.81454 -10.14793,-1.54559 -8.76904,2.57586 0.5225,1.56388 2.92183,2.94832 5.29799,3.12794 2.37673,0.17956 5.36812,0.60305 6.57675,0.73589 1.20869,0.13279 -0.0462,1.83465 -2.92303,3.86383 -4.58096,3.23186 -5.88619,3.27193 -8.76904,0.36778 -3.61146,-3.63705 -4.14234,-8.64936 -1.82686,-18.21525 1.04184,-4.30349 0.52251,-6.40524 -0.73076,-6.25575 z m 332.8579,0 c -1.61164,0.63428 -1.52439,3.43301 0.36546,5.3358 2.74376,2.76392 4.97536,1.44466 3.65378,-2.02392 -0.71522,-1.87726 -2.17875,-3.31165 -3.28842,-3.31188 -0.29618,0 -0.50057,-0.0906 -0.73076,0 z m -471.51822,10.11964 c -2.94624,0.0403 -8.58636,6.57729 -8.58636,10.6716 0,2.30878 0.66972,4.04807 1.64419,4.04784 2.62535,0 9.54539,-12.6495 7.8556,-14.35143 -0.28349,-0.28521 -0.49248,-0.37413 -0.91343,-0.36777 z m 459.09545,1.10396 c -1.24252,0 -2.37495,1.61885 -2.37495,3.49589 0,1.87727 1.13243,3.31205 2.37495,3.31187 1.24253,6e-5 2.19228,-1.43449 2.19228,-3.31187 1.1e-4,-1.87715 -0.94975,-3.49566 -2.19228,-3.49589 z m -9.31712,4.78384 c -1.10961,0.19516 -2.00954,1.70366 -2.00954,4.4158 0,2.52828 1.40558,4.41607 3.28839,4.41584 3.80274,0 3.94737,-0.25 2.00954,-5.33575 -0.9683,-2.54215 -2.17935,-3.69137 -3.28839,-3.49589 z m -185.61121,4.9678 c -1.4573,0.2165 -3.1042,1.92946 -3.65378,4.78378 -0.43188,2.24511 0.6356,3.68013 2.74035,3.6799 2.09527,-6e-5 3.65373,-1.98894 3.65373,-4.78385 0,-2.77275 -1.283,-3.89616 -2.7403,-3.67983 z m -53.71032,13.06352 c 1.24258,0 2.37495,0.36777 2.37495,0.9199 0,0.55195 -1.13237,1.61873 -2.37495,2.39192 -1.24258,0.77337 -2.19227,0.4053 -2.19227,-0.91996 0,-1.32544 0.94969,-2.39163 2.19227,-2.39186 z m -42.01832,3.12787 c -0.27019,-0.0115 -0.41974,-0.0115 -0.73075,0.18417 -1.24259,0.77338 -2.37495,2.50198 -2.37495,3.6799 0,1.17751 1.13236,2.0242 2.37495,2.02385 1.24258,0 2.19227,-1.54523 2.19227,-3.49583 0,-1.46364 -0.65166,-2.35571 -1.46152,-2.39186 z m 36.35498,9.01557 c 1.78658,-0.28406 4.89776,1.19546 9.13439,4.23178 9.04241,6.47948 27.77891,30.42866 29.59549,37.71858 2.19424,8.80552 -1.22231,20.39199 -7.12484,24.287 -7.54388,4.97824 -25.1282,4.38178 -35.44149,-1.1039 -17.9118,-9.52734 -33.39719,-44.3771 -23.93216,-53.90992 3.83507,-3.8622 6.39409,-3.30604 6.39409,1.28797 0,5.77112 9.57895,27.78288 12.0574,27.78288 1.25594,0 1.14554,-1.2588 -0.18243,-2.94388 -1.23254,-1.56399 -2.96824,-6.76965 -3.83647,-11.77555 -0.86828,-5.0059 -2.069,-11.53554 -2.7403,-14.35142 -0.98172,-4.11914 -0.30946,-4.9675 3.65374,-4.96778 3.76949,-6e-5 4.81837,1.04962 4.38454,4.96778 -0.78144,7.05377 2.40012,19.87122 4.93258,19.87122 1.14357,-5e-5 2.0096,-0.86418 2.0096,-2.02397 0,-6.18318 20.70238,-1.44876 26.48977,6.0718 3.83785,4.98737 3.69663,15.1879 -0.36546,18.58333 -5.5165,4.61104 -18.56744,3.83524 -25.94176,-1.65598 -8.19017,-6.09882 -9.13439,-6.19778 -9.13439,-0.73601 0,8.55211 17.69605,15.79487 32.15312,13.06351 9.64586,-1.82276 14.14322,-9.40701 12.05742,-20.60722 -1.98068,-10.63211 -24.92406,-35.98514 -28.13398,-31.09471 -1.6264,2.47795 -2.84722,1.80423 -5.66332,-3.67989 -2.73938,-5.33487 -2.66196,-8.64992 -0.36548,-9.01562 z m 12.42278,33.67064 c -6.65454,0.48786 -12.37312,13.96354 -6.21142,16.55938 9.00685,3.79444 18.53765,-4.14968 13.88435,-11.59154 -1.36943,-2.1898 -4.2588,-4.36076 -6.39409,-4.78384 -0.44918,-0.0889 -0.83498,-0.21652 -1.27884,-0.18418 z m 116.92049,40.66239 c 9.40333,0 13.9635,4.75359 14.06696,14.90343 0.0999,9.86682 -5.32915,13.74675 -24.84559,17.84724 -9.30881,1.95597 -20.78869,3.41511 -25.75902,3.31188 -10.72102,-0.22286 -30.58243,-4.77149 -42.74908,-9.93552 -4.79343,-2.03512 -8.95811,-3.33006 -9.13438,-2.94388 -5.24683,11.48982 -12.45718,13.89074 -16.80732,5.70368 -4.4603,-8.39322 -0.13105,-16.9476 9.4998,-18.7672 9.51573,-1.7977 16.27274,0.26616 24.48019,7.17572 3.42296,2.88157 11.24373,5.75594 16.99003,6.6237 11.57372,1.748 47.48938,0.1934 49.87386,-2.20786 0.8344,-0.84035 -0.27019,-4.58645 -2.37489,-8.27973 -5.22003,-9.15951 -3.03544,-13.43152 6.75944,-13.43146 z m -260.14803,4.59984 c 5.6027,5e-5 12.24014,8.7292 12.24014,16.19133 l 0,7.17566 14.61504,-1.47186 c 8.0317,-0.75512 22.00242,-3.74524 31.057,-6.8077 46.96504,-15.88446 57.01562,-17.38455 70.15224,-10.30364 5.55046,2.99174 5.43561,18.24637 -0.18246,23.36704 -6.27075,5.71541 -11.692,2.32957 -11.692,-7.17566 l 0,-7.91171 -8.40369,1.65597 c -4.65994,0.86216 -14.46706,4.02913 -21.92256,7.1757 -7.45549,3.14694 -19.28964,7.09362 -26.12443,8.83156 -6.83421,1.73796 -21.67396,3.72389 -32.88388,4.41586 l -20.27836,1.28795 -7.30752,-7.54366 c -4.01256,-4.16919 -7.30758,-9.09564 -7.30758,-11.03954 6e-5,-6.87053 4.91237,-17.84736 8.03829,-17.8473 z"
     id="path2396" />
</svg>
