<?xml version="1.0" encoding="UTF-8" standalone="no"?>
<!-- Created with Inkscape (http://www.inkscape.org/) -->

<svg
   xmlns:dc="http://purl.org/dc/elements/1.1/"
   xmlns:cc="http://creativecommons.org/ns#"
   xmlns:rdf="http://www.w3.org/1999/02/22-rdf-syntax-ns#"
   xmlns:svg="http://www.w3.org/2000/svg"
   xmlns="http://www.w3.org/2000/svg"
   xmlns:sodipodi="http://sodipodi.sourceforge.net/DTD/sodipodi-0.dtd"
   xmlns:inkscape="http://www.inkscape.org/namespaces/inkscape"
   width="1000"
   height="1000"
   id="svg2"
   version="1.1"
   inkscape:version="0.47 r22583"
   sodipodi:docname="E.svg">
  <defs
     id="defs4">
    <inkscape:perspective
       sodipodi:type="inkscape:persp3d"
       inkscape:vp_x="0 : 526.18109 : 1"
       inkscape:vp_y="0 : 1000 : 0"
       inkscape:vp_z="744.09448 : 526.18109 : 1"
       inkscape:persp3d-origin="372.04724 : 350.78739 : 1"
       id="perspective10" />
    <inkscape:perspective
       id="perspective2940"
       inkscape:persp3d-origin="0.5 : 0.33333333 : 1"
       inkscape:vp_z="1 : 0.5 : 1"
       inkscape:vp_y="0 : 1000 : 0"
       inkscape:vp_x="0 : 0.5 : 1"
       sodipodi:type="inkscape:persp3d" />
    <inkscape:perspective
       id="perspective2953"
       inkscape:persp3d-origin="0.5 : 0.33333333 : 1"
       inkscape:vp_z="1 : 0.5 : 1"
       inkscape:vp_y="0 : 1000 : 0"
       inkscape:vp_x="0 : 0.5 : 1"
       sodipodi:type="inkscape:persp3d" />
    <inkscape:perspective
       id="perspective2966"
       inkscape:persp3d-origin="0.5 : 0.33333333 : 1"
       inkscape:vp_z="1 : 0.5 : 1"
       inkscape:vp_y="0 : 1000 : 0"
       inkscape:vp_x="0 : 0.5 : 1"
       sodipodi:type="inkscape:persp3d" />
    <inkscape:perspective
       id="perspective2979"
       inkscape:persp3d-origin="0.5 : 0.33333333 : 1"
       inkscape:vp_z="1 : 0.5 : 1"
       inkscape:vp_y="0 : 1000 : 0"
       inkscape:vp_x="0 : 0.5 : 1"
       sodipodi:type="inkscape:persp3d" />
  </defs>
  <sodipodi:namedview
     id="base"
     pagecolor="#ffffff"
     bordercolor="#666666"
     borderopacity="1.0"
     inkscape:pageopacity="0.0"
     inkscape:pageshadow="2"
     inkscape:zoom="0.532"
     inkscape:cx="500"
     inkscape:cy="500"
     inkscape:document-units="px"
     inkscape:current-layer="svg2"
     showgrid="false"
     showborder="true"
     inkscape:showpageshadow="false"
     showguides="true"
     inkscape:guide-bbox="true"
     inkscape:window-width="1280"
     inkscape:window-height="750"
     inkscape:window-x="0"
     inkscape:window-y="26"
     inkscape:window-maximized="1">
    <sodipodi:guide
       orientation="0,1"
       position="0,200"
       id="guide2818" />
  </sodipodi:namedview>
  <metadata
     id="metadata7">
    <rdf:RDF>
      <cc:Work
         rdf:about="">
        <dc:format>image/svg+xml</dc:format>
        <dc:type
           rdf:resource="http://purl.org/dc/dcmitype/StillImage" />
        <dc:title></dc:title>
      </cc:Work>
    </rdf:RDF>
  </metadata>
  <g
     inkscape:label="Layer 1"
     inkscape:groupmode="layer"
     id="layer1" />
  <path
     style="fill:#800000"
     d="M 0,0 0,6.2128558 0,793.78709 0,800 l 6.1746927,0 724.7974773,0 6.17469,0 0,-6.21291 0,-787.5742342 L 737.14686,0 730.97217,0 6.1746927,0 0,0 z m 719.89412,12.425769 4.90341,0 0,768.204671 c -1.28155,3.62348 -3.99471,4.186 -17.43437,5.48187 -5.71368,0.5508 -51.83941,1.02048 -117.86361,1.46192 l -576.242159,0 c -0.341794,-0.8199 -0.627354,-2.9086 -0.908063,-5.66471 l 0,-391.95979 c 0.300224,-21.29821 0.621984,-42.44244 0.908063,-68.15897 0.800618,-71.97858 1.760816,-170.33037 2.360919,-218.73001 L 16.889529,14.984028 53.211142,13.887631 C 73.256261,13.267148 232.46065,12.791408 406.98348,12.791235 l 312.91064,0 0,-0.365466 z M 374.11248,22.476013 C 223.92747,22.475436 72.735949,22.561461 53.392778,22.658457 l -24.880349,0.182444 -1.452797,12.973968 c -3.105418,30.809665 -7.2846,658.646201 -4.721896,708.451291 l 1.634492,31.79533 53.029563,1.82733 c 86.122499,3.05426 533.081429,2.13736 611.474129,-1.27907 l 26.87794,-1.27919 0.18187,-12.42577 c 0.13279,-6.82543 0.53463,-99.3393 0.72642,-205.75604 0.20727,-115.69471 0.26097,-161.76479 1.27122,-180.3563 l 0,-16.99403 -0.54502,-10.78118 c -1.45488,-10.80455 -1.36065,-45.74202 -0.90806,-160.25581 L 716.62531,22.840901 689.02089,22.658457 C 673.47602,22.563193 524.29768,22.47659 374.11266,22.476013 z m 106.60387,11.694838 c 2.0395,-0.02309 6.24316,1.635877 13.25739,4.933785 10.7967,5.076159 22.06747,13.162127 41.40666,29.419799 5.90784,4.966578 11.30149,8.546524 11.98612,7.857451 2.50092,-2.516458 -1.78132,-15.174209 -8.35404,-24.303341 -3.70835,-5.151331 -6.24432,-9.797362 -5.62978,-10.415709 4.91467,-4.944523 31.70595,19.725842 40.49854,37.277308 3.32533,6.638713 6.48098,11.762851 6.90118,11.329373 0.41916,-0.433593 1.90908,-6.989513 3.26886,-14.435829 1.71475,-9.386979 3.96337,-14.65638 7.44597,-17.359496 7.8634,-6.104198 8.86153,-4.656828 3.81372,5.299249 -3.21194,6.334794 -4.26163,11.165809 -3.26892,15.714902 1.67173,7.657223 13.6613,17.907982 21.06651,17.907751 4.03306,0 4.72092,0.698946 3.26899,3.837326 -1.00477,2.17172 -1.64223,7.77218 -1.6345,12.42577 0.006,4.654 -0.99951,8.40583 -1.99764,8.40565 -0.99779,0 -6.75274,-3.51366 -12.89424,-7.85745 -6.14126,-4.34355 -11.93403,-7.85722 -12.89412,-7.85745 -0.96025,0 -6.56071,-3.98958 -12.53096,-8.953846 -11.66788,-9.70181 -16.55518,-11.709503 -12.34939,-4.933784 1.43819,2.317559 9.77675,8.56073 18.52408,13.88763 24.42447,14.87422 39.94099,31.61283 29.42049,31.61259 -1.78864,0 -3.99079,1.68732 -5.08505,3.65466 -1.22497,2.20226 -8.471,4.79712 -18.70559,6.76105 -22.40858,4.30003 -30.23139,3.84536 -44.13074,-2.19279 -22.2878,-9.6816 -21.13014,-14.92393 3.4505,-14.98397 15.80179,-0.0404 17.15696,-3.41644 2.17934,-5.66472 -10.34452,-1.55256 -46.03895,5.01156 -60.47548,11.14664 -8.28977,3.52245 -8.58745,3.57239 -8.53561,-1.46186 0.0289,-2.80894 3.64525,-9.2151 7.99082,-14.07036 9.5099,-10.62569 7.81017,-12.3838 -9.62525,-9.86751 -7.05343,1.01805 -19.87896,1.22335 -28.51249,0.36546 -8.63405,-0.85852 -16.57533,-1.38265 -17.61595,-1.09639 -1.04011,0.28694 -1.60915,-0.78567 -1.08965,-2.37547 0.95737,-2.92811 15.28541,-8.724754 32.68942,-13.156701 5.24209,-1.334671 9.44362,-3.240461 9.44362,-4.385586 0,-3.156398 -21.83469,-9.136349 -33.59748,-9.13658 -5.71905,0 -15.8302,1.656142 -22.51937,3.654655 -16.63157,4.969638 -30.9502,3.000801 -51.21344,-7.30931 -22.46556,-11.430121 -25.20072,-11.299351 -58.11462,3.106457 -16.02263,7.01278 -45.25785,2.084539 -59.38572,-9.867511 -10.86523,-9.191833 -22.30136,-11.265518 -36.50324,-6.761112 -14.94627,4.740717 -29.21294,5.508194 -32.87106,1.827327 -2.12876,-2.141928 -0.55253,-2.702135 7.26428,-2.740991 5.48839,-0.02887 14.60834,-2.026688 20.15851,-4.568261 13.33193,-6.105294 24.75062,-4.411971 48.48936,7.12652 24.80587,12.056724 38.81042,12.296153 56.84328,1.096396 17.89933,-11.116213 29.24671,-13.528401 49.57901,-10.415709 9.15303,1.40124 24.41459,3.723649 33.96069,5.116517 l 17.25269,2.558201 9.44367,-7.674718 c 17.21695,-13.921176 32.06697,-16.412807 51.57671,-8.953847 6.41476,2.452372 12.0577,3.947547 12.53085,3.471865 0.47285,-0.475741 -0.60126,-3.897779 -2.54244,-7.674718 -3.28174,-6.385831 -4.2569,-9.290214 -1.63449,-9.319313 z m 215.38706,12.42577 c 0.16686,-0.01732 0.22171,0.09469 0.36316,0.182444 3.14849,1.957636 2.33546,17.041373 -1.27128,23.389676 -4.85399,8.54306 -4.02982,10.807964 4.54014,12.42577 9.87589,1.863989 9.84488,4.708673 0.18187,8.771114 -4.14177,1.741475 -11.4102,7.983372 -16.16316,13.704895 -5.13972,6.18653 -10.50959,10.23321 -13.25727,10.23298 -4.42566,0 -21.28026,-12.17791 -21.24816,-15.349494 0.006,-0.840512 3.3251,-3.755345 7.44586,-6.578321 8.69138,-5.953912 14.08791,-19.210552 11.98617,-29.785323 -0.86736,-4.362665 -0.64052,-6.514639 0.72643,-5.664657 1.21169,0.753678 2.81841,5.477825 3.63214,10.598442 l 1.45291,9.319312 7.44591,-8.771114 c 4.10759,-4.881649 8.63971,-12.218326 9.98847,-16.2631 1.17965,-3.539184 3.00986,-6.106911 4.17693,-6.212913 z M 448.93499,62.494254 c -2.47442,0.05196 -3.9711,0.341217 -4.35862,0.730931 -1.03248,1.038835 5.98982,2.627137 15.61825,3.471923 11.61482,1.019204 21.60063,3.427235 29.78371,7.309252 14.03734,6.659497 59.60736,32.39866 86.26383,48.60668 9.86214,5.99635 19.10172,10.83152 20.34009,10.78118 5.28839,-0.21536 -15.17594,-14.55875 -33.77906,-23.75515 C 551.70274,104.15166 534.53244,94.424392 524.66551,88.076724 494.7799,68.851507 488.36947,66.070851 466.55089,63.590651 459.63644,62.804525 453.05852,62.403783 448.93499,62.494254 z M 120.58768,77.29555 c 2.11341,-0.109698 4.42225,0.228632 7.08276,0.730931 13.07402,2.467844 17.81976,11.797607 13.6206,26.861599 l -1.81607,6.39559 9.80678,-1.0964 c 5.4105,-0.6837 17.44615,-2.94006 26.69641,-4.93373 10.44602,-2.25099 33.93576,-4.1122 61.92828,-4.93378 39.81946,-1.169316 48.63468,-0.727004 75.18578,3.65466 108.68626,17.93529 164.01826,40.44369 230.64216,93.92417 36.77939,29.52361 61.25785,59.81613 77.36495,95.7515 1.94712,4.34355 4.51295,9.75013 5.81142,12.0603 6.69979,11.91862 20.6361,63.02225 19.97693,73.45816 -0.73526,11.64132 -0.41396,11.99865 8.89877,10.41571 7.08102,-1.20349 10.34227,-0.48498 17.43438,4.02012 12.28391,7.80255 16.09786,14.7931 16.70789,30.33347 0.97076,24.72983 -12.36111,37.82573 -38.50084,37.8255 l -14.52861,0 -1.63449,20.28316 c -4.08709,54.07666 -16.70408,90.66039 -47.76294,138.69347 -8.64473,13.36888 -41.14939,47.88712 -54.84557,58.10873 -6.91983,5.16461 -49.98483,26.43608 -63.19955,31.24724 -14.68611,5.34648 -31.61906,9.61434 -52.84799,13.33943 -17.52381,3.0747 -60.57645,4.02751 -84.62934,1.82727 -17.67069,-1.61648 -56.46488,-12.86508 -75.18572,-21.74508 -22.48542,-10.66628 -43.85771,-23.50636 -59.74899,-36.3637 -24.67117,-19.96065 -60.7664,-67.43913 -71.37195,-93.74138 -7.47201,-18.53118 -16.29907,-62.38294 -18.52402,-91.54865 l -1.81607,-22.29328 -11.441319,0 c -14.00928,-0.0346 -19.21598,-4.23836 -24.153864,-18.82136 -5.146077,-15.19649 -4.4872,-25.43028 2.360919,-35.63271 7.982679,-11.89333 8.838376,-12.41775 23.972228,-11.69484 15.674366,0.74871 14.870406,1.91982 21.611366,-28.68893 7.0551,-32.03492 14.22348,-52.16105 30.87341,-86.98032 14.52381,-30.3725 14.58871,-30.5341 42.85946,-58.65693 35.15137,-34.96668 64.0747,-53.24191 100.97407,-63.95617 16.9363,-4.91727 21.5672,-8.63879 14.34698,-11.51205 -2.21063,-0.87977 -17.65972,-2.0544 -34.32391,-2.74099 -23.10879,-0.95223 -34.57898,-0.42378 -48.30778,2.37547 -39.11053,7.97384 -58.85588,17.66162 -89.5327,43.67295 -18.00856,15.26913 -20.03646,20.35348 -10.16999,25.94794 14.08318,7.98487 5.40185,31.18015 -11.62296,31.06439 -16.877285,-0.11432 -23.649366,-15.88037 -16.344733,-38.00824 2.558894,-7.75179 2.915468,-12.60752 1.452913,-14.43583 -1.205112,-1.50632 -2.747746,-6.2561 -3.632138,-10.41571 -0.884392,-4.15966 -3.410434,-9.2789 -5.629901,-11.5121 -2.219351,-2.2331 -4.808267,-6.16656 -5.629843,-8.77112 -1.409553,-4.46895 -0.671117,-4.75088 12.712599,-4.75105 7.799833,0 17.736103,-0.96961 21.974523,-2.19273 8.07101,-2.32911 24.69877,-17.16753 24.69877,-21.92782 0,-2.37056 -19.9853,-9.86739 -26.3332,-9.86757 -5.16692,0 -13.89358,-9.69286 -15.2551,-16.99403 -1.164408,-6.246744 -0.41858,-9.641243 4.17699,-16.62862 4.89585,-7.444007 9.27861,-10.817433 15.61825,-11.14664 z m 547.91137,17.907751 c -0.72008,0.569849 0.72152,2.928632 3.81371,5.664659 3.53387,3.12695 7.11636,5.08274 7.80919,4.38558 1.73795,-1.74869 -7.69106,-10.137997 -11.25969,-10.050239 -0.19919,0.0049 -0.26039,-0.08141 -0.36316,0 z m -37.22968,2.923667 c 5.4056,-0.04042 13.68313,4.703882 20.15851,11.694842 3.08336,3.32902 9.16695,7.33633 13.43897,9.13663 16.08164,6.77861 19.24681,13.85484 11.07811,24.30329 -3.70073,4.73413 -6.49645,6.03041 -13.98388,6.03018 -15.73568,0 -36.13212,-14.57931 -39.95375,-28.50614 -2.64238,-9.6286 0.6736,-20.24609 7.0827,-22.293337 0.64104,-0.204383 1.40701,-0.359692 2.17934,-0.365465 z m -9.80683,46.231152 14.7103,29.96806 c 16.8568,34.63291 20.32878,43.27487 25.24345,61.21518 3.80384,13.88642 6.94021,17.82161 4.5402,5.66466 -3.23243,-16.3788 -10.72107,-36.74199 -23.60901,-63.77338 -7.47507,-15.67911 -13.27292,-30.06044 -12.89412,-31.79539 0.84149,-3.84847 19.1098,21.00411 24.88023,33.80539 2.28627,5.07212 7.26867,17.80764 11.07805,28.32346 3.80956,10.51588 7.48125,17.98286 7.99082,16.44589 1.50049,-4.53039 -6.33595,-26.91449 -16.70801,-47.69302 -5.30837,-10.63499 -9.80406,-20.08317 -9.80677,-21.01415 -0.006,-2.22905 20.63922,-2.24712 24.15386,0 3.03135,1.93847 17.28606,32.1493 19.61366,41.4801 1.19363,4.78396 0.48614,6.29277 -3.26898,7.49199 -5.50103,1.75683 -5.96725,5.24313 -1.08958,7.12658 5.28066,2.03881 10.95871,14.37278 7.9907,17.35949 -3.95557,3.98005 -2.89451,9.32953 3.08741,14.98403 6.75031,6.38035 7.17253,9.13681 1.27122,9.13658 -4.37872,0 -4.3786,-0.0462 0,10.23298 5.28556,12.40671 5.83376,32.43261 1.08958,41.66289 -2.33465,4.54292 -2.84792,8.09648 -1.45286,11.69484 5.10238,13.16322 7.03074,25.14212 7.80919,49.70302 0.46246,14.5819 0.47978,26.49636 0,26.49613 -0.47978,0 -1.89205,-2.50139 -3.08735,-5.66466 -1.19518,-3.16326 -4.69037,-11.27487 -7.80912,-17.90775 -8.75437,-18.6194 -13.12149,-34.7478 -13.62061,-50.79947 -0.56927,-18.2947 -0.59138,-18.09014 -3.08735,-18.09043 -1.13796,0 -3.36534,3.75211 -4.90347,8.40565 l -2.72407,8.58838 -1.81607,-6.57832 c -0.97631,-3.63035 -1.29016,-16.12575 -0.72643,-27.77526 0.95079,-19.63318 0.74415,-21.30168 -3.08735,-20.64869 -5.10895,0.87077 -11.60575,-4.20458 -11.6229,-9.13658 -0.006,-2.0197 -1.04582,-7.47755 -2.36091,-12.24303 -2.28004,-8.26056 -2.56946,-8.54716 -6.53791,-4.93373 -3.95067,3.59773 -4.29945,3.49808 -7.99071,-3.65466 -2.64717,-5.12962 -4.15094,-14.02469 -4.5402,-27.59253 -0.31466,-10.96309 -1.13588,-20.51231 -1.81607,-21.19688 -0.6807,-0.6844 -3.80771,0.58203 -7.08275,2.74099 -4.81924,3.17718 -7.12444,3.52418 -11.6229,1.46186 -4.44973,-2.04025 -5.29221,-3.7517 -4.17693,-8.22297 1.58899,-6.36793 -0.26559,-6.96636 -6.53797,-2.19273 -6.05627,4.60931 -22.56105,4.46901 -24.33544,-0.18303 -0.75269,-1.97363 -0.88664,-4.51693 -0.18186,-5.66471 2.56767,-4.18045 17.78431,-8.93624 24.51702,-7.67472 l 6.71954,1.27913 -6.17475,-3.47192 c -3.39127,-1.94159 -6.03168,-4.40816 -5.99306,-5.29925 0.13857,-3.18596 11.27297,-9.77976 18.52408,-10.96391 l 7.44591,-1.0964 z m -249.34776,34.53632 c -3.57423,0.0289 -7.37467,0.18764 -11.07811,0.36546 -31.13391,1.49195 -51.6121,6.60252 -78.45464,19.55235 -41.08699,19.82209 -68.49043,46.0602 -85.90056,82.22934 -12.45453,25.87588 -15.4454,37.3631 -19.43203,73.45816 -4.74083,42.92002 -5.87181,39.06595 9.44362,37.27731 9.54228,-1.11441 15.41848,-0.4463 21.97458,2.19279 7.79325,3.13746 9.47497,5.15433 13.62054,16.44583 3.3661,9.16868 4.59332,17.17041 4.17699,27.22706 -0.32274,7.80191 -0.98416,14.40708 -1.45285,14.80124 -8.81355,7.41445 -34.57985,26.1309 -35.95846,26.13067 -1.02452,0 -1.5842,-3.14127 -1.27122,-7.12652 0.42724,-5.44076 -0.42262,-7.41069 -3.45056,-8.04018 -8.69144,-1.80631 -9.66087,2.11768 -7.80907,34.90172 2.20336,39.01873 7.51629,60.05447 23.06417,92.09685 10.75646,22.16764 14.57612,27.29836 35.05033,48.42394 30.77791,31.75728 47.13478,41.72202 88.26148,53.35774 32.4904,9.19246 70.14432,6.12377 114.59462,-9.31937 50.84907,-17.66631 81.22474,-41.43975 104.96943,-82.59475 8.60005,-14.90545 16.78076,-36.65185 20.70336,-55.00226 3.34381,-15.64395 5.3731,-89.98027 2.54244,-92.82784 -0.72764,-0.7322 -5.80056,1.34911 -11.25963,4.56832 -7.67362,4.52473 -11.71637,5.49723 -17.61595,4.38553 -11.515,-2.16906 -24.16085,-9.93651 -29.05728,-17.9077 -16.50519,-26.87135 14.25021,-68.03593 39.59054,-52.9922 6.64494,3.94437 7.97511,4.17808 9.08034,1.27913 2.35578,-6.17712 -0.72908,-49.31181 -4.72172,-66.51438 -9.46879,-40.79449 -23.56825,-68.13836 -48.12615,-92.46231 -38.41868,-38.05229 -77.87758,-54.3524 -131.48421,-53.90593 z m -40.13539,22.29334 c 0.68896,-6e-5 5.26865,3.16321 10.17005,7.12652 8.3116,6.72087 10.32321,7.22969 29.60213,8.04018 13.18164,0.55426 25.18761,2.59128 33.05263,5.48198 6.78345,2.49325 16.78774,5.65017 22.33779,6.94379 19.62076,4.57305 36.02566,19.8405 43.76758,40.74923 4.92946,13.31397 3.65143,40.90621 -3.26904,67.97624 -2.50918,9.81456 -4.1831,18.26721 -3.63208,18.82135 0.55022,0.55427 4.23201,-2.79353 8.17234,-7.30925 3.94033,-4.51543 7.52195,-7.78112 7.99077,-7.30931 0.93,0.93589 -4.6025,15.97991 -8.35404,22.65875 -7.25827,12.92275 16.4258,1.24235 30.69183,-15.1667 5.68862,-6.54345 10.02761,-9.96151 10.16999,-8.04025 1.01135,13.62881 -5.25035,27.36061 -16.88959,37.64278 -9.47052,8.36691 -15.5649,10.63718 -21.06646,7.67477 -4.86519,-2.61992 -11.86464,0.59491 -8.35398,3.83733 1.22336,1.1296 7.05308,3.84397 12.89412,6.03018 17.46654,6.53849 17.6308,9.03393 1.27134,16.8113 -17.93639,8.52661 -22.55488,12.6637 -31.59978,29.60253 -3.99656,7.48391 -9.15621,17.51718 -11.6229,22.11055 -7.05354,13.13413 -17.88177,27.7621 -26.87799,36.36365 -8.1224,7.76651 -18.63718,24.8815 -15.25516,24.85153 0.95016,-0.006 4.18098,-3.78369 7.26434,-8.40564 8.49837,-12.73835 36.26243,-39.92258 47.5813,-46.59663 5.52378,-3.25737 12.83956,-6.02994 16.16316,-6.03018 9.76959,0 21.41933,-5.96696 23.79059,-12.24303 3.33185,-8.81731 6.71954,-6.89437 6.71954,3.83739 1.7e-4,14.17936 -9.61336,25.21244 -25.2435,28.87165 -23.2264,5.43765 -64.47089,28.44939 -64.47089,35.99813 -6e-5,1.36232 -1.69482,5.54889 -3.63214,9.31937 -3.27458,6.3711 -3.06916,7.06976 0.72643,9.86745 3.48428,2.56848 4.30637,2.48742 5.99306,-0.73093 3.32902,-6.35252 15.57922,-18.73903 21.97458,-22.11049 3.3307,-1.75562 10.97008,-2.97834 16.88958,-2.92367 9.59587,0.0878 14.24883,1.31527 30.87335,7.85739 3.41921,1.34565 3.87977,0.96459 1.99771,-1.09639 -1.35823,-1.48715 -8.34295,-5.21334 -15.61831,-8.22286 -10.61236,-4.38986 -11.95436,-5.43868 -6.90112,-5.48198 3.61845,-0.0289 5.69895,-0.89675 4.90341,-2.1928 -0.76245,-1.24096 -4.83656,-2.37529 -9.0804,-2.37552 -10.22028,0 -9.80141,-3.63676 0.72643,-6.57832 12.00684,-3.35524 16.98069,-2.94313 23.06422,1.82727 17.42652,13.66506 34.26733,15.46034 43.22267,4.75105 7.24575,-8.66425 9.05252,-8.44895 7.26428,0.54849 -4.78587,24.07713 -30.48912,33.6238 -58.1145,21.56229 -12.93881,-5.64884 -33.345,-6.7528 -37.9561,-2.01001 -2.2596,2.32426 -1.23525,2.66282 5.26668,1.46181 16.37892,-3.02534 32.12413,10.03818 25.24351,21.01421 -3.02384,4.82339 -6.71954,5.59145 -6.71954,1.4618 5e-5,-1.89597 0.78814,-3.2889 1.81612,-3.28913 1.02735,0 1.99765,-1.13433 1.99765,-2.37558 -6e-5,-1.24097 -1.15506,-1.95458 -2.54244,-1.64454 -1.38732,0.31004 -3.00998,-0.83411 -3.6322,-2.55826 -0.74969,-2.07611 -0.23613,-2.62506 1.63444,-1.46186 1.86006,1.15684 2.32685,0.78526 1.63449,-1.27907 -0.73936,-2.20469 -4.70983,-3.16766 -13.80218,-3.10658 -12.45672,0.0837 -13.263,0.53694 -22.88259,10.78135 -5.49058,5.84682 -11.35558,10.5985 -12.89418,10.59833 -6.3696,0 -39.59053,-18.10342 -39.59053,-21.56229 -6e-5,-1.97756 2.24729,-7.77102 5.08499,-12.97403 2.83724,-5.20289 7.3854,-15.15186 9.98841,-22.11049 2.60364,-6.95851 10.15249,-20.06238 16.70795,-29.23712 14.62047,-20.46099 47.25521,-61.57973 49.76064,-62.67699 5.23158,-2.29164 13.63296,-11.52123 11.98605,-13.1567 -2.02512,-2.0111 -29.56927,26.48874 -44.67553,46.23116 -5.01011,6.54818 -9.53455,11.42013 -9.9884,10.9639 -0.45323,-0.45668 4.37744,-10.72927 10.71483,-22.84148 19.15923,-36.61883 34.35428,-77.15069 27.24115,-72.72728 -1.26752,0.78814 -2.8504,3.99136 -3.63208,7.12657 -2.0395,8.17506 -27.53756,61.18892 -34.68718,72.17909 -9.36238,14.39068 -11.08705,17.37376 -17.07116,28.68881 -7.26994,13.7474 -9.23883,14.69893 -12.34933,5.84745 -2.28448,-6.50084 -2.8601,-6.89598 -4.90341,-3.28913 -1.6099,2.84007 -1.39189,4.9981 0.36315,7.12646 8.20132,9.94257 6.37775,33.20644 -3.63214,48.42401 -7.92794,12.05291 -11.32273,15.89792 -13.98381,15.89769 -4.5327,0 -5.21017,-4.63518 -2.5425,-16.62862 2.05711,-9.25148 2.06479,-14.43058 0,-23.02427 -5.36519,-22.32625 -5.32673,-22.44207 0.54502,-26.31334 3.02211,-1.9924 7.56981,-7.50596 9.98853,-12.24304 38.82929,-76.04673 58.02131,-116.9272 61.02026,-129.55683 1.93945,-8.16558 4.57808,-15.19372 5.81142,-15.71496 1.37792,-0.58261 2.56721,8.50022 3.26893,23.75514 l 1.27133,24.85154 5.81143,-12.6085 c 9.04316,-19.14531 11.58802,-30.5431 11.62289,-52.80948 0.0231,-16.2277 -0.97913,-22.45926 -4.90341,-30.88171 -5.77147,-12.3864 -15.23067,-21.03575 -26.33315,-24.12061 -9.85596,-2.73816 -16.77677,-0.12413 -28.33091,10.78117 -7.10752,6.70782 -8.35397,9.42249 -8.35397,17.35956 6e-5,17.62253 14.02325,26.4653 29.78376,18.82135 3.48422,-1.69003 2.96882,-0.71823 -1.81607,3.47193 -5.64964,4.94666 -8.35045,5.79843 -16.708,4.93372 -7.08651,-0.73283 -11.02292,-2.61767 -13.80219,-6.39559 -11.56291,-15.71634 -11.35148,-15.75456 -10.35162,1.46187 0.65356,11.25524 3.15374,21.71003 8.89877,36.18091 9.58201,24.1344 12.33691,35.78594 10.71495,46.04842 l -1.08976,7.49198 -4.54014,-5.11651 c -2.46675,-2.75953 -10.2992,-8.97642 -17.2528,-13.88758 -12.51087,-8.83577 -12.55568,-9.07711 -16.52626,-26.67886 -2.20682,-9.78345 -4.97836,-17.25956 -5.99311,-16.62857 -3.56419,2.21658 -1.76925,19.99397 2.72413,27.40974 4.77611,7.88222 6.43433,34.35382 2.17928,34.35359 -1.21233,0 -4.71248,-4.99845 -7.80913,-11.14664 -5.15427,-10.23512 -5.4512,-12.94499 -4.35862,-31.97806 0.85027,-14.81891 0.45842,-21.28782 -1.45285,-22.47601 -1.99644,-1.24172 -1.4457,-5.10803 2.36091,-15.3495 5.32778,-14.33525 9.08041,-17.73697 9.08041,-8.22291 0,3.05899 1.3726,9.84892 3.08729,15.16676 1.7148,5.31761 3.75188,12.61681 4.54026,16.08036 0.78785,3.46355 2.23597,5.75865 3.26892,5.11652 1.03243,-0.64271 -0.35219,-11.07822 -3.26892,-23.20694 -2.91732,-12.12895 -5.44602,-23.70492 -5.44827,-25.76521 -0.0115,-11.17221 40.55068,-47.14458 53.21114,-47.14481 2.78805,0 5.26663,-0.95154 5.26663,-2.1928 6e-5,-1.24096 -3.94991,-2.37523 -8.71719,-2.37552 -8.90841,0 -13.7527,2.87563 -29.42049,17.54228 -4.41942,4.1375 -12.6652,10.26912 -18.52396,13.52217 -8.67938,4.81964 -10.71484,7.02993 -10.71484,12.0603 -6e-5,3.86048 -4.49101,12.51266 -11.98617,23.02421 -16.43509,23.0491 -16.43388,22.89962 -10.89647,19.91776 2.53464,-1.36481 5.29515,-2.55809 5.99305,-2.55826 4.72692,0 -3.60217,19.09699 -21.97458,50.25128 -3.47642,5.89479 -5.29388,10.78134 -3.99541,10.78117 1.29911,0 4.98078,-4.57103 8.17234,-10.05024 3.19099,-5.47939 7.26572,-11.31754 9.26204,-12.97397 3.27666,-2.7198 3.54687,-2.0805 2.17929,6.57832 -3.48041,22.03295 5.60351,4.3689 11.80453,-23.02421 1.79875,-7.94446 1.98108,-6.7808 2.17928,10.23297 0.12414,10.63066 -0.84876,25.28646 -2.17928,32.52632 -2.0294,11.0497 -1.76532,14.86024 1.45286,23.57241 2.10844,5.70819 6.47284,13.03332 9.62525,16.44583 5.5467,6.00512 5.49919,6.21315 0.90806,6.21291 -7.35492,0 -18.64549,-13.98843 -21.97458,-27.40979 -2.64168,-10.6511 -6.67104,-12.1502 -16.16316,-5.84745 -29.76142,19.76273 -61.55132,14.62364 -82.63157,-13.33938 -13.6493,-18.1059 -12.19968,-37.85824 4.17698,-56.28139 15.07918,-16.96303 16.52782,-27.95777 3.63208,-27.958 -5.05162,0 -6.53686,-0.8766 -5.99305,-3.65466 2.22709,-11.38774 19.23491,-8.10779 23.7907,4.56832 3.60674,10.03616 3.3187,15.01602 -1.08969,19.91776 -4.1114,4.5708 -2.24453,8.65397 1.9977,4.38558 3.57036,-3.59264 6.35627,-3.34346 6.35627,0.54791 6e-5,1.75637 -3.32851,6.1669 -7.26428,9.68478 -23.94191,21.40115 -24.53064,22.16944 -22.88258,32.70899 2.9773,19.04722 14.34697,27.86239 14.34697,11.14664 -5e-5,-7.1376 0.87319,-8.9897 4.90342,-10.05024 6.46112,-1.69997 7.89365,-0.10393 4.5402,5.29925 -3.82815,6.16845 -3.4889,11.27966 1.63449,19.73502 3.69461,6.09629 5.79277,7.30948 12.53096,7.30925 11.10796,0 23.41636,-12.12381 23.42744,-23.02421 0.004,-4.15736 2.99399,-14.63941 6.53791,-23.38968 3.5438,-8.75021 6.97438,-19.01627 7.80907,-22.84148 l 1.63449,-6.94378 -9.80683,1.09639 c -9.96849,1.13046 -23.97229,-3.7625 -23.97229,-8.40564 6e-5,-1.20927 5.36882,-2.19262 11.98623,-2.1928 14.23664,0 20.90168,-4.43166 29.60207,-19.36961 4.43992,-7.62293 7.63863,-10.52391 13.98376,-12.24304 4.557,-1.23467 10.46548,-3.63491 12.89424,-5.48192 4.35706,-3.31488 4.34551,-3.40108 -0.36316,-3.47192 -2.62465,-0.0404 -8.30196,1.32814 -12.53102,3.10645 -8.8124,3.70466 -27.19947,3.21598 -32.14457,-0.91366 -6.01176,-5.01999 -3.97739,-8.92163 3.9953,-7.67472 9.98292,1.56157 25.11931,-4.3648 35.59518,-13.88763 8.43596,-7.66895 9.2446,-7.90295 25.06193,-7.49204 16.27447,0.42262 21.79294,-0.86696 21.79294,-5.11646 -6e-5,-1.32607 -3.26095,-1.62376 -7.9907,-0.73093 -18.25971,3.44634 -39.22733,-9.2845 -39.22733,-23.93788 -5e-5,-3.62781 0.58221,-6.57809 1.27122,-6.57832 z m 342.87593,29.968 c -1.283,-0.10393 -0.50519,6.39668 2.72407,25.7652 0.6725,4.03322 2.02623,7.30948 2.90577,7.30925 2.27362,0 -2.22917,-29.98832 -4.90342,-32.70899 -0.26385,-0.26847 -0.54329,-0.35103 -0.72642,-0.36546 z M 486.34619,373.32116 c -0.26789,0.052 -0.59935,0.17379 -0.90801,0.36547 -1.23346,0.76701 -2.17928,2.41357 -2.17928,3.6546 1.2e-4,1.24102 0.94588,1.68085 2.17928,0.91366 1.23329,-0.7669 2.36087,-2.41357 2.36087,-3.6546 1.1e-4,-0.93058 -0.64849,-1.43553 -1.45286,-1.27913 z m 219.74569,24.48608 c 0.153,-0.0577 0.35796,-0.005 0.54502,0.18302 0.74462,0.74981 0.82978,2.75669 0.18187,4.38553 -0.71552,1.79973 -1.34524,1.34962 -1.45286,-1.27913 -0.0733,-1.78391 0.2679,-3.11922 0.72643,-3.28914 z m 0.36315,12.79123 c 0.12009,0.0115 0.22286,0.3747 0.36316,0.91361 0.56119,2.1574 0.53636,6.33017 0,9.13663 -0.53578,2.80693 -0.88318,0.94409 -0.90806,-4.02012 -0.0173,-3.72301 0.18591,-6.06147 0.54502,-6.03012 z m -49.39736,2.19274 c -3.91695,0.0872 -7.95052,2.23586 -10.71478,6.94384 -5.21929,8.8912 -4.82894,13.04891 1.81601,19.73502 9.50915,9.56792 21.61137,2.99439 21.61137,-11.69484 -6e-5,-9.40285 -6.18405,-15.12958 -12.7126,-14.98402 z m -124.58304,0.73093 c -3.67139,0.24133 -7.3003,1.68385 -10.35168,4.56832 -6.57988,6.21926 -6.67693,14.64835 -0.18186,20.10043 8.34716,7.00614 19.29507,5.17823 23.60907,-4.02007 4.05955,-8.65541 3.46857,-13.3795 -2.17928,-17.35949 -3.48353,-2.45538 -7.22508,-3.53041 -10.89648,-3.28919 z m -339.60694,4.38558 c -3.08948,0.12644 -6.62191,1.17244 -9.62525,3.28919 -5.98954,4.22162 -6.81307,16.90027 -1.45286,22.29322 4.84291,4.87288 15.24049,4.53484 19.97688,-0.73093 4.09662,-4.55521 3.187,-16.08775 -1.63449,-22.11049 -1.54529,-1.93038 -4.17485,-2.8676 -7.26428,-2.74099 z m -91.34882,2.74099 c -0.6482,0.0658 -1.43005,0.27021 -2.360862,0.54849 -11.366497,3.39727 -13.70207,13.98884 -5.085052,22.65869 6.794484,6.83669 8.424014,6.72364 15.981524,0.18244 4.61318,-3.99292 5.58417,-6.34772 4.35857,-10.23297 -1.94003,-6.15079 -6.63872,-5.11231 -7.62761,1.64459 -0.83514,5.71477 -7.266874,6.52319 -11.441264,1.46186 -2.227146,-2.70017 -2.227088,-4.06053 0,-6.76105 1.535359,-1.86151 4.112151,-3.47169 5.811474,-3.47192 1.69881,0 3.08735,-1.5267 3.08735,-3.47187 0,-1.95792 -0.78185,-2.75606 -2.72413,-2.55826 z m 555.5388,1.0964 c 1.21625,-0.10566 2.55837,0.0577 3.81383,0.73087 4.9914,2.68776 5.34636,10.20648 0.54502,12.06031 -4.95896,1.91474 -6.3845,1.6163 -9.26198,-1.27913 -4.30193,-4.32837 -0.36547,-11.05426 4.90336,-11.51205 z m -296.20258,0.73087 c 1.79708,0.0231 -0.0231,2.84047 -5.6299,8.77118 -8.23538,8.71095 -16.93133,29.66806 -14.16534,34.17079 0.67516,1.09911 0.59791,3.92486 -0.18186,6.39559 -1.89748,6.01575 -4.82825,5.71258 -9.26198,-1.0964 -3.40923,-5.23476 -3.35403,-6.36591 0.18129,-17.35949 4.05285,-12.59933 11.889,-22.75182 21.79306,-27.95794 3.77618,-1.98512 6.18658,-2.93903 7.26427,-2.92373 z m 172.16434,0.91367 c 0.74455,-0.15011 1.45048,-0.0462 2.17934,0 2.91558,0.17667 5.55415,1.83327 5.99305,4.93378 0.96268,6.80361 -6.4293,10.68516 -12.16775,6.39559 -3.3792,-2.52604 -3.80084,-4.05239 -1.81607,-7.30925 1.35482,-2.22334 3.57787,-3.56967 5.81143,-4.02012 z m -342.87587,2.01006 c 0.53867,-0.0964 1.09201,-0.0231 1.63455,0 4.70099,0.22055 9.17873,4.22525 8.53549,8.77111 -0.69935,4.94089 -10.12749,8.2661 -13.62054,4.75105 -2.93164,-2.9493 -1.75655,-11.59414 1.81601,-12.97396 0.52597,-0.20323 1.09564,-0.4515 1.63449,-0.54849 z m 98.24994,1.64459 c 1.08595,0.0115 1.45852,2.83961 0.54503,8.58838 -2.7433,17.26066 1.37578,22.17493 21.24815,26.13067 9.64436,1.91971 25.79176,17.60609 31.59983,30.5162 4.82409,10.72482 6.01078,28.12306 2.36086,33.80538 -2.48984,3.87688 -2.67782,2.4899 -2.17922,-10.4157 0.38105,-9.84846 -4.50285,-23.99435 -10.53332,-30.69893 -5.99242,-6.66314 -8.08319,-4.5592 -3.26898,3.28913 5.32818,8.6874 8.87238,34.19135 5.08499,36.54637 -5.04977,3.14047 -2.19273,7.71404 5.99312,9.68484 7.06676,1.70152 8.25138,2.74578 7.62755,7.12646 -0.98047,6.88305 1.23057,16.08066 3.99535,16.08043 1.20967,0 2.36092,-4.25187 2.36092,-9.31932 -6e-5,-6.37965 0.78295,-8.88877 2.72407,-8.22291 1.54206,0.52943 2.53211,3.00282 2.17934,5.48192 -0.35276,2.47905 0.38741,7.29829 1.63449,10.5985 2.63274,6.967 7.97004,8.30629 5.81142,1.46181 -1.61976,-5.13523 2.79561,-6.33 4.72184,-1.27907 0.67354,1.7656 2.38552,3.58081 3.99535,4.20279 2.33142,0.90004 2.60185,-0.42955 0.72643,-6.57832 -3.12366,-10.24152 -1.23138,-11.44265 8.35398,-5.48198 8.99963,5.59647 9.28259,6.23982 4.72178,12.79117 -3.1579,4.5368 -2.58291,7.49228 1.45285,7.49205 1.05396,0 2.95352,-2.37922 4.35863,-5.48187 1.40447,-3.10259 3.55309,-5.66454 4.72183,-5.66477 1.16938,0 1.49985,2.56241 0.72643,5.66477 -1.74349,6.98894 4.35718,8.00981 6.53785,1.09634 0.78295,-2.48205 3.07158,-4.56803 5.08505,-4.56826 2.84769,0 3.00097,0.63503 0.90806,2.74099 -1.4801,1.48905 -2.54255,4.05135 -2.54255,5.6646 6e-5,4.64863 4.69736,3.34092 5.99311,-1.64454 0.64485,-2.4821 2.60901,-4.56809 4.35857,-4.56832 2.45012,0 2.69619,1.02406 0.90806,4.38553 -1.27699,2.40012 -2.36097,5.43845 -2.36097,6.76111 -6e-5,4.49852 4.51884,2.55543 7.08275,-3.10645 1.40459,-3.10259 3.97798,-5.66443 5.62985,-5.66466 3.5158,0 3.96937,3.64813 0.72642,5.66466 -2.88896,1.79649 -2.87915,7.85768 0,7.85745 1.20956,0 2.8586,-2.5619 3.6322,-5.6646 0.77412,-3.10259 2.64209,-5.66449 4.35851,-5.66472 3.61014,0 4.19968,3.61811 0.90806,5.66472 -3.01321,1.87386 -2.878,7.85751 0.18187,7.85733 1.34044,0 3.59709,-2.91379 4.9033,-6.39559 1.98592,-5.29428 3.36419,-6.08982 8.71724,-5.29919 7.49078,1.10616 7.49696,1.07694 2.72408,8.40571 -2.01676,3.09727 -2.88712,6.4173 -1.99765,7.30919 1.98027,1.98524 10.17005,-7.71328 10.17005,-12.06024 6e-5,-1.72381 1.12751,-3.28896 2.36086,-3.28919 3.28388,0 2.53441,4.01365 -1.63444,10.41576 -2.01733,3.09728 -2.93342,6.1852 -2.17928,6.94373 2.13165,2.14499 7.49233,-3.21176 10.53332,-10.59838 1.5155,-3.68179 3.63803,-6.76088 4.72172,-6.76111 3.30553,0 2.06312,4.67368 -2.90571,11.69484 -4.22121,5.96476 -4.26192,7.17819 -1.27122,10.59838 3.61389,4.13288 5.34607,29.60282 1.99765,29.60259 -1.05622,0 -1.64558,-2.37195 -1.08959,-5.29919 0.67724,-3.56499 -0.20034,-5.78706 -2.72419,-6.76106 -4.97645,-1.92161 -7.80912,0.0958 -7.80912,5.48193 6e-5,2.40861 -1.07175,4.38587 -2.36092,4.38558 -1.44922,0 -1.78917,-2.95143 -0.90801,-7.67477 1.67012,-8.95887 -2.42558,-13.21045 -5.26668,-5.48187 -1.72202,4.68373 -2.14372,4.41648 -3.63208,-2.74099 l -1.45292,-7.85751 -4.35856,8.04019 -4.17699,7.85745 1.27122,-8.4056 c 1.60043,-10.48227 -2.21358,-11.424 -5.44827,-1.27918 l -2.3608,7.30931 -0.18187,-7.49204 c -0.26443,-8.68937 -4.87108,-8.79918 -7.08275,-0.18245 -1.15385,4.49494 -1.68224,3.48307 -3.08729,-5.29925 -1.8346,-11.46742 -5.81148,-12.41953 -5.81148,-1.46186 -6e-5,11.62428 -6.55557,6.59662 -6.90112,-5.29919 l 0,-4.93379 -2.17934,4.93379 c -2.86033,7.16018 -5.64878,6.36874 -7.62743,-2.1928 -1.20304,-5.20531 -2.00262,-6.18058 -2.72419,-3.28919 -1.16326,4.66237 -6.3419,4.09634 -6.35627,-0.73087 -0.0173,-5.21022 -1.89581,-5.68394 -7.62749,-1.64471 l -5.44827,3.8375 5.44827,4.38548 5.4482,4.56831 -5.62984,-1.27907 -5.62984,-1.09651 5.08505,4.56838 c 2.79139,2.47846 6.28364,5.04059 7.80912,5.66471 2.14921,0.87926 2.12005,1.47791 -0.18186,3.1064 -2.23148,1.5786 -0.56697,3.67048 6.71948,8.22297 5.33314,3.3318 7.49661,5.32143 4.72184,4.56827 -6.27764,-1.70407 -6.66579,2.55156 -0.54502,5.84744 2.46669,1.32827 4.5402,3.52395 4.5402,4.93373 6e-5,1.41007 1.37479,4.28969 3.26898,6.39565 3.16512,3.51949 3.10692,3.75788 -2.17928,2.74093 -4.18871,-0.80552 -5.42691,-2.12189 -4.54026,-4.93373 1.75671,-5.56922 -8.24509,-9.85048 -16.34474,-6.94378 l -5.99306,2.19273 5.08505,-4.38553 c 6.08399,-5.2041 4.72069,-10.28101 -1.81606,-6.76105 -6.23301,3.35639 -8.59376,2.49787 -3.63214,-1.27913 5.7583,-4.38351 2.8941,-6.89639 -4.17699,-3.65465 -6.82872,3.13076 -7.63361,-0.58117 -0.90806,-4.20292 3.15183,-1.69713 4.03865,-3.42833 2.54249,-4.93366 -1.49615,-1.50603 -4.27288,-0.92585 -8.17234,1.64459 -3.21546,2.11982 -5.81142,2.74215 -5.81142,1.46186 0,-1.28028 1.18208,-2.73498 2.72413,-3.28924 1.54206,-0.55369 2.1667,-1.77352 1.27122,-2.741 -0.89507,-0.96718 -3.17533,-0.49768 -5.08505,1.0964 -1.9096,1.59489 -4.22543,2.32674 -5.08499,1.46198 -0.85962,-0.86465 -0.14376,-2.54833 1.63443,-3.65471 1.77889,-1.10599 2.4858,-2.61606 1.63455,-3.47193 -0.85079,-0.85627 -4.00378,-0.0173 -7.08281,2.01006 -8.8527,5.83683 -9.47913,4.267 -1.27122,-3.1064 9.07694,-8.15398 7.28864,-11.1833 -3.4505,-6.03023 -4.30135,2.06392 -7.80919,2.91569 -7.80919,1.82732 6e-5,-1.08791 1.60049,-2.57471 3.45056,-3.28919 5.02281,-1.93939 4.04807,-6.65101 -1.08964,-5.29919 -2.42483,0.63821 -5.559,-0.34526 -7.08276,-2.19279 -2.42691,-2.94284 -3.24969,-2.97673 -5.81142,0.54849 -5.0582,6.96058 -3.47267,17.55366 3.81378,25.76514 6.54275,7.37415 10.48666,15.21399 8.53555,17.17676 -0.53752,0.54041 -4.87997,-1.63472 -9.44356,-4.75099 -4.56422,-3.11627 -8.87769,-5.66448 -9.80689,-5.66466 -0.9285,0 -1.58813,6.65171 -1.27122,14.80124 0.40762,10.46473 2.0357,17.10379 5.44827,22.65875 2.65716,4.3264 4.50152,8.44456 3.99529,8.95384 -0.50634,0.50923 -4.1073,-1.09564 -7.9907,-3.47186 -5.6049,-3.42926 -8.14699,-7.45411 -11.80454,-19.36956 -6.37001,-20.75151 -5.99912,-36.53835 0.90801,-46.77935 6.14536,-9.11124 8.48388,-22.1251 4.17699,-23.57241 -1.54142,-0.51789 -2.90571,0.58324 -2.90571,2.37552 5e-5,1.7924 -2.53205,11.22378 -5.62985,21.0141 -5.15092,16.28123 -5.36027,19.24092 -3.26886,34.7191 1.73027,12.80827 3.90557,19.23296 9.08028,26.67881 3.76032,5.41062 6.55344,10.23044 6.1747,10.5985 -0.37817,0.36778 -4.45227,-1.44027 -9.08035,-3.83738 -12.36018,-6.40166 -20.08623,-19.27187 -19.97687,-33.43993 l 0,-11.51204 -11.07811,1.4618 c -13.0828,1.74621 -29.79583,-3.4505 -33.59748,-10.59844 -3.47106,-6.52538 -0.97371,-7.60197 5.62984,-2.37558 10.73932,8.5001 30.14138,-1.36221 30.32856,-15.34944 0.0404,-3.06108 1.60371,-9.82323 3.63213,-15.1667 2.02773,-5.34336 3.25525,-10.42963 2.5425,-11.1467 -2.56438,-2.58008 -6.0154,1.83264 -7.44597,9.5021 -0.80206,4.30332 -2.70387,7.67495 -4.35851,7.67472 -2.4093,0 -2.24602,-1.98009 0.72643,-10.05024 3.61719,-9.82144 2.98146,-14.26967 -1.45291,-11.51211 -1.20794,0.75143 -2.80011,5.4582 -3.63214,10.41571 -1.83997,10.95761 -6.51689,11.70569 -16.88953,2.92372 -7.4671,-6.32151 -7.5145,-6.17821 -3.26898,-27.04433 0.81823,-4.02087 -0.0739,-13.36789 -1.99765,-21.37961 -1.88541,-7.85024 -3.93727,-18.48904 -4.72184,-23.57247 -1.40274,-9.09236 -1.31481,-9.30846 5.44827,-9.50199 5.05982,-0.14434 7.83239,1.30251 10.71489,5.66466 12.25464,18.54786 41.52722,41.29777 53.21109,41.29749 3.3076,0 6.32018,-22.85609 4.17699,-31.61271 -1.95833,-8.00173 -4.83645,-10.90115 -16.34468,-16.81124 -21.50768,-11.0448 -29.3261,-28.03762 -22.51938,-48.78947 1.88264,-5.74029 3.63584,-8.59791 4.72178,-8.58839 z m 413.8846,25.03427 c 0.52944,-0.1605 0.70986,0.99461 0.72643,3.47193 0.0346,5.21899 -1.14229,6.45551 -3.08734,3.28913 -0.60836,-0.99022 -0.2246,-3.31459 0.90806,-5.11646 0.60351,-0.95951 1.13485,-1.54806 1.45285,-1.6446 z m -299.28991,1.6446 c 0.1172,0.0115 0.0999,0.0999 0.18129,0.18244 0.61124,0.61881 -0.72661,3.46592 -3.08729,6.39559 -2.36075,2.92979 -4.35863,4.43051 -4.35863,3.28925 -5e-5,-2.8332 5.50929,-10.06745 7.26439,-9.86751 z m -355.770105,5.84739 c 0.304843,-0.0289 0.811819,0.52193 1.634491,1.82727 1.451932,2.30538 6.868269,8.69935 11.986056,14.07042 15.931698,16.71846 21.300115,25.04674 24.517135,38.92185 2.202897,9.5021 2.436841,15.65121 0.908063,21.01415 -2.841104,9.96762 -2.72904,22.29351 0.181867,22.29328 1.27197,0 2.740587,-1.61019 3.45056,-3.47187 0.709973,-1.86156 2.119527,-3.28901 3.087347,-3.28919 3.740392,0 4.227679,10.85543 1.089641,25.94794 -4.316361,20.75665 -4.44286,20.24205 4.72178,14.80129 4.387315,-2.60456 8.578565,-4.75082 9.262095,-4.75105 0.68342,0 0.47632,3.71759 -0.36315,8.22286 -1.62151,8.6941 -9.337793,22.68236 -15.436679,27.77532 -8.269219,6.90545 -2.097875,12.41936 6.537849,5.84739 4.29569,-3.26944 12.16775,-4.69955 12.16775,-2.19279 -1.2e-4,0.70974 -2.59665,5.81009 -5.81142,11.32937 -4.58016,7.86334 -5.316687,10.67402 -3.26898,13.1567 2.84664,3.45091 0.75454,13.97372 -5.811482,29.78532 -2.616341,6.29998 -3.83121,7.635 -5.26663,5.29925 -2.693128,-4.38501 -4.038249,-2.40018 -4.903357,7.8574 -0.473431,5.60963 0.41685,9.09345 2.179283,9.68477 1.70972,0.57332 2.724074,-1.15395 2.724074,-4.56826 0,-3.05409 1.608857,-6.867 3.450618,-8.40559 4.871084,-4.06711 16.707894,-25.72964 16.707894,-30.51631 -1.2e-4,-4.77189 8.71909,-23.6231 10.89647,-23.57241 0.81482,0.0173 2.73049,0.97146 4.35863,2.01006 2.36242,1.50747 1.67785,6.12481 -3.99541,23.02427 -3.90818,11.64426 -9.09715,23.91438 -11.44127,27.22701 -2.34487,3.31257 -4.17699,6.52526 -4.17699,7.12646 -5e-5,0.60097 3.49236,1.74349 7.80913,2.55832 4.31671,0.81505 7.80913,2.2709 7.80913,3.28918 -6e-5,1.01794 -5.28938,7.43027 -11.80454,14.2531 -11.159746,11.68647 -20.604518,17.27601 -23.608956,14.2531 -1.538188,-1.54772 -9.443675,5.19584 -9.443675,8.04018 0,3.75015 7.619985,1.7629 27.241211,-7.12658 10.95675,-4.96403 22.64414,-8.9539 26.15151,-8.95384 3.50749,5e-5 8.06997,-1.8484 9.98847,-4.02012 4.55965,-5.1615 8.33792,-19.3982 8.35397,-31.42986 0.0173,-12.19142 3.49525,-12.41428 7.0827,-0.36547 2.31213,7.76467 2.08766,11.67948 -0.90801,23.20706 -1.97547,7.60047 -3.13053,14.01373 -2.72407,14.43577 0.40588,0.42205 7.62166,-0.15242 15.98141,-1.46192 8.36027,-1.30955 15.66842,-1.97732 16.34473,-1.27907 0.67638,0.69831 -2.31831,4.298 -6.5379,7.85739 -5.74231,4.84366 -6.64033,6.72336 -4.17699,7.67472 3.83814,1.48196 33.68362,-4.46815 40.31702,-8.04018 6.26517,-3.37372 7.4197,-1.28265 1.99771,3.65465 -2.47443,2.25301 -4.54026,4.99285 -4.54026,6.21286 -6e-5,3.00247 26.191,0.28579 38.31926,-4.02006 5.20728,-1.8484 9.88795,-2.84215 10.53331,-2.1928 0.64537,0.6493 -0.47112,4.76653 -2.54249,9.13658 -2.07086,4.37 -3.6322,8.85149 -3.6322,10.0503 6e-5,3.76499 4.94724,2.35509 10.53332,-2.92372 5.02287,-4.74718 7.46947,-5.11657 35.7767,-5.11652 26.24303,-5e-5 30.56493,0.5971 33.05263,4.02007 1.57849,2.17189 4.61613,4.02012 6.71949,4.02017 2.10353,6e-5 6.0236,1.08 8.71725,2.55821 2.69416,1.47825 10.49405,4.27842 17.43432,6.21291 6.93986,1.93448 13.16016,4.51295 13.62066,5.66471 2.45849,6.15103 -38.13,9.04121 -58.65941,4.2028 -8.0168,-1.88945 -24.93952,-3.57873 -37.59283,-3.83739 -22.55782,-0.4613 -23.09782,-0.62302 -30.32856,-7.67472 -11.82457,-11.53162 -15.38182,-8.73941 -9.26203,7.30931 0.96504,2.52991 0.16916,3.47181 -2.90566,3.47193 -7.79775,5e-5 -25.48553,-6.23722 -34.50554,-12.24316 -9.58432,-6.38207 -22.15622,-10.05821 -22.15622,-6.39553 0,1.24455 1.43005,5.987 3.26899,10.41571 1.8395,4.42866 2.52771,8.65091 1.45279,9.31932 -2.72274,1.69315 -30.68207,-6.06367 -42.8594,-11.87758 -10.48315,-5.00497 -19.10438,-6.30113 -21.06652,-3.10639 -0.62672,1.01972 0.1478,4.43864 1.81607,7.67471 1.6689,3.23596 2.52004,6.60113 1.81601,7.30926 -2.6157,2.63267 -25.57173,1.10505 -33.415842,-2.1928 -7.297417,-3.06789 -8.800791,-2.99503 -13.620547,0.18302 -3.816141,2.51554 -8.008545,3.1922 -14.710304,2.1928 -5.183491,-0.77297 -13.7064,-0.63244 -18.887177,0.54848 -5.181296,1.18064 -10.037484,1.59535 -10.714894,0.91367 -0.67741,-0.68169 -1.089641,-6.1803 -1.089641,-12.24304 0,-10.29406 0.421469,-11.06656 6.90112,-13.33943 7.200825,-2.52564 7.514502,-5.07876 3.087288,-19.00415 -1.045127,-3.28884 0.324474,-6.87168 4.358566,-11.69478 3.174008,-3.79576 5.811479,-8.02835 5.811479,-9.5021 -5.8e-5,-1.4733 -3.473596,-6.88756 -7.62749,-12.06031 -4.153951,-5.17298 -8.592192,-11.72521 -9.988467,-14.43577 -3.090521,-5.99958 -3.593397,-63.77315 -0.545022,-63.77338 1.14957,5e-5 4.464683,3.27625 7.264334,7.30925 5.240475,7.54943 8.509168,10.53828 11.441379,10.59844 2.735045,0.0577 1.838702,-14.5416 -1.634549,-27.95799 -3.517879,-13.58972 -2.840931,-22.5856 2.724133,-42.5765 2.769917,-9.94858 2.90548,-13.52246 0.908063,-15.53217 -3.688949,-3.71205 -3.275044,-22.34201 0.726428,-31.97812 5.585445,-13.45075 4.354409,-22.91186 -4.176988,-32.52626 -4.81381,-5.42413 -7.889089,-11.5778 -8.717131,-17.35955 -0.671348,-4.68575 -0.871171,-6.71209 -0.363156,-6.76105 z m 654.696805,9.86757 c 0.30427,0.0699 0.76777,0.74825 1.27128,2.01 1.12711,2.8243 1.30603,9.58033 0.54502,15.16676 -0.7609,5.58602 -2.36173,10.90438 -3.63214,11.69478 -1.43091,0.88953 -1.83887,-0.11836 -0.90806,-2.55826 0.82585,-2.16658 1.73766,-9.59425 1.81607,-16.6285 0.0768,-6.91336 0.23845,-9.83824 0.90806,-9.68478 z m -389.91237,0.18244 c -1.35032,0.0404 -0.18707,2.12755 2.72413,4.56838 6.84864,5.7404 8.82562,5.77453 3.63214,0 -2.23263,-2.48205 -5.00526,-4.6096 -6.35627,-4.56838 z m -63.38113,0.73093 c 0.58399,-0.0849 1.5685,0.82706 3.26887,2.37553 2.25526,2.05394 5.38342,3.65494 6.90117,3.65465 1.517,0 2.12357,0.91748 1.45286,2.01006 -0.67135,1.09276 -3.79946,2.50988 -6.90112,3.10646 -5.01577,0.96482 -5.62984,0.38914 -5.62984,-5.66471 -6e-5,-3.62851 0.15646,-5.37304 0.90806,-5.48199 z m 141.29098,2.37553 c 0.80391,-0.13626 1.45292,0.29329 1.45292,1.27919 0,1.31411 -1.12764,2.37575 -2.36098,2.37546 -1.23335,0 -2.1798,-0.36662 -2.17928,-0.9136 5e-5,-0.54733 0.94593,-1.6084 2.17928,-2.37553 0.30831,-0.19168 0.63977,-0.32043 0.90806,-0.36546 z m -152.55072,2.55826 c 0.83248,-0.21651 1.56041,2.11612 1.81606,7.85756 0.69791,15.69014 0.71125,16.82308 2.72414,20.10049 1.06602,1.73564 1.02417,3.57163 -0.18187,4.38547 -1.17272,0.79202 -2.83608,3.31044 -3.6322,5.48198 -3.39357,9.25523 -5.56096,2.8922 -4.90341,-13.88763 0.53752,-13.70114 2.58863,-23.52379 4.17699,-23.93787 z M 362.12631,480.95 c -1.23328,0 -2.17928,1.42786 -2.17928,3.28919 6e-5,1.86139 0.94594,3.47204 2.17928,3.47187 1.23341,0 2.36098,-1.61025 2.36098,-3.47187 0,-1.86162 -1.12763,-3.28896 -2.36098,-3.28919 z m 314.00028,9.31926 c 2.73886,0.0774 4.34292,4.94608 5.26663,15.53228 0.59497,6.8256 2.33904,21.54006 3.81372,32.70905 1.47456,11.16904 1.97906,26.35953 1.27128,33.80538 -1.84794,19.43399 -9.52185,46.56187 -13.80219,48.97215 -2.45116,1.38011 -2.89768,2.97603 -1.45285,4.75099 3.41395,4.19293 3.69998,11.16604 0.54502,17.72497 -1.60395,3.33347 -2.31969,7.98227 -1.45285,10.23297 1.49373,3.87809 1.84257,3.72787 5.08505,-0.54849 3.21817,-4.24448 3.24265,-3.9558 1.81601,3.47187 -2.94035,15.30457 -10.59036,27.48907 -19.06881,30.33352 -4.31671,1.44818 -12.90203,5.27448 -19.06882,8.40565 -10.51126,5.33707 -11.16823,6.25136 -10.53331,13.52217 0.37297,4.26561 -0.1963,10.04955 -1.27122,12.97402 -1.87923,5.11138 -2.52466,4.69563 -14.16546,-8.77117 l -11.98611,-13.88769 -10.16999,1.27919 c -5.587,0.76765 -13.18949,2.0279 -16.88958,2.74099 -6.14421,1.18444 -5.22322,-0.0346 9.62519,-14.61856 15.03928,-14.77324 19.1049,-20.64869 14.34703,-20.64869 -1.04218,0 -3.82491,2.12461 -6.17469,4.75105 -2.34972,2.62639 -8.64623,7.75047 -13.80224,11.32932 l -9.26192,6.3957 -0.72649,-5.11663 c -1.22509,-7.73476 2.84538,-15.64631 7.44597,-14.43572 2.1514,0.56639 4.43576,-0.30657 5.08505,-2.01011 0.65022,-1.70574 2.63661,-2.56207 4.5402,-1.82727 2.51733,0.97243 3.88808,-0.55542 4.90336,-5.66466 1.53652,-7.72991 4.39973,-9.24183 5.99306,-3.10652 0.56407,2.17178 1.11118,0.50634 1.27128,-3.83733 0.39318,-10.67217 2.57581,-18.09025 5.26668,-18.09048 1.27642,0 1.53461,1.56815 0.54503,3.83739 -2.51277,5.75853 -1.91653,14.19276 1.27122,17.17682 2.15763,2.01918 2.56969,1.5312 1.63449,-2.37559 -1.40355,-5.8643 2.03361,-23.22276 5.26663,-26.49607 1.47739,-1.49575 1.82894,1.12653 0.90806,7.85745 -1.29761,9.48293 -1.10506,9.75481 2.17934,5.66477 1.93454,-2.40918 3.44987,-6.05125 3.4505,-8.22297 1.2e-4,-2.17155 0.94594,-4.53212 2.17929,-5.29925 1.23334,-0.76696 2.36091,0.0751 2.36091,2.01012 1.8e-4,1.93454 0.94594,3.47209 2.17934,3.47186 1.23329,0 2.17929,-2.37922 2.17929,-5.48198 1.1e-4,-3.10259 1.13467,-5.66443 2.3608,-5.66466 1.24328,0 1.6506,3.4512 1.08976,7.85751 -0.55253,4.34338 -0.52886,7.85768 0,7.85739 2.07305,6e-5 7.94728,-13.71615 6.71948,-15.7149 -1.83858,-2.99387 8.92666,-5.29319 17.07111,-3.65471 4.88719,0.9837 6.4673,0.54329 5.81142,-1.46181 -1.38288,-4.22802 -20.29933,-4.71843 -29.78365,-0.73093 -11.66054,4.90215 -13.20352,4.39096 -8.1724,-2.55826 4.12532,-5.69802 5.31207,-5.91603 21.42974,-5.66471 9.41157,0.14722 17.25274,-0.74756 17.25274,-1.82733 -1.7e-4,-3.46909 -8.95217,-4.86502 -20.34009,-3.28907 -9.15471,1.26712 -11.07811,0.86811 -11.07811,-2.01 -1.1e-4,-4.37583 6.10212,-7.93563 11.25974,-6.57844 2.15261,0.56638 4.43796,-0.11259 5.26663,-1.46186 0.89877,-1.46308 -0.33371,-2.37524 -3.08728,-2.37547 -5.82563,0 -5.76674,-0.50807 0.908,-11.1467 7.66502,-12.21781 15.42224,-32.18712 22.70095,-58.29152 0.43302,-1.551 2.83418,-2.74076 5.26663,-2.74093 2.43309,0 5.04914,-1.13427 5.81148,-2.37547 0.76199,-1.24096 -0.72931,-2.19256 -3.26887,-2.19279 -3.12222,0 -4.54026,-1.51648 -4.54026,-4.56826 -1.1e-4,-2.50705 1.40015,-4.38536 3.26899,-4.38559 1.85013,0 3.45056,-1.13421 3.45056,-2.37552 0,-1.24103 -0.946,-2.19257 -2.17929,-2.1928 -3.02458,0 -3.06084,-8.32995 0,-10.23303 0.76234,-0.47401 1.54708,-0.74871 2.17929,-0.73093 z m -414.61108,2.01012 c -0.87279,0 -3.26252,3.03827 -5.44827,6.76105 -2.18557,3.72307 -3.02845,6.76134 -1.81607,6.76111 1.21303,0 3.60264,-3.03781 5.44827,-6.76111 1.84563,-3.72301 2.68891,-6.76082 1.81607,-6.76105 z m 2.5425,11.69489 c -1.66891,-5.2e-4 -4.2088,2.47119 -5.62985,6.761 -1.49887,4.5253 -0.92619,7.00366 2.17928,10.41576 2.23604,2.45596 4.17924,4.64742 4.35863,4.75106 0.9684,0.55772 9.37751,-18.88822 8.53555,-19.73508 -0.55137,-0.55484 -2.4787,0.2575 -4.35851,1.82732 -2.83504,2.36785 -3.45061,2.09603 -3.45061,-1.09639 -6e-5,-2.12236 -0.63302,-2.92367 -1.63449,-2.92367 z m -20.15846,7.12641 c 1.05506,0.004 1.1908,2.97326 0.36316,8.58843 -1.37809,9.34553 -1.24033,9.62249 2.36092,5.29925 3.59513,-4.31647 3.66158,-4.21266 2.36086,5.84745 -0.83578,6.46609 -0.55888,11.14803 0.90806,12.06031 1.31296,0.81632 1.79962,2.49942 1.08958,3.65465 -2.24585,3.65697 -7.11791,2.15024 -10.5332,-3.10651 -5.81523,-8.95102 -6.69748,-14.82312 -2.90571,-18.63863 1.93455,-1.94638 3.45056,-5.53746 3.45056,-7.85745 -5e-5,-2.31993 1.09819,-4.69672 2.36086,-5.48192 0.1888,-0.11721 0.39434,-0.36605 0.54503,-0.36547 z m 39.22727,7.85756 c -3.59357,0.0895 -9.58952,2.37761 -11.6229,5.29919 -4.60989,6.62226 -4.66947,11.67036 0,9.86751 2.58539,-0.99842 3.29127,-0.43012 2.36092,2.01006 -0.76742,2.01266 0.0173,3.47216 1.81612,3.47193 2.43528,0 10.17005,-14.62624 10.17005,-19.18688 0,-1.07625 -1.09109,-1.50274 -2.72419,-1.46181 z m 7.80924,4.751 c -1.65406,-0.0347 -4.28709,2.87493 -6.35639,7.8575 -1.78703,4.30355 -3.08723,8.95206 -3.08723,10.23292 6e-5,3.36275 6.63779,2.82061 6.71943,-0.54791 0.0404,-1.56521 1.09218,-1.09478 2.36092,1.0964 2.41155,4.16596 6.5379,5.47517 6.5379,2.01006 0,-1.12486 2.07346,-1.56278 4.54015,-0.91372 3.64103,0.95812 4.54026,0.0404 4.54026,-4.75105 -6e-5,-3.24705 -1.12758,-5.84699 -2.36092,-5.84728 -1.2334,0 -2.17934,0.95194 -2.17934,2.19274 0,1.24096 -1.12752,2.3757 -2.36086,2.37546 -1.23335,0 -2.17929,-1.61024 -2.17929,-3.47186 0,-1.86162 -0.94599,-3.47175 -2.17934,-3.47198 -1.23328,0 -2.36138,-1.42739 -2.36086,-3.28913 6e-5,-2.2973 -0.64184,-3.45091 -1.63443,-3.47192 z m 385.19053,4.56826 c -2.4668,0 -4.54026,0.95205 -4.54026,2.19279 6e-5,1.24102 2.07346,2.37593 4.54026,2.37564 2.46669,0 4.53957,-1.13439 4.54021,-2.37564 -6e-5,-1.24097 -2.07352,-2.19256 -4.54021,-2.19279 z m -268.23499,5.2993 c 0.8042,-0.13625 1.4528,0.2933 1.4528,1.27913 6e-5,1.31412 -1.12752,2.55843 -2.36092,2.5582 -1.23335,0 -2.17928,-0.54906 -2.17928,-1.09639 -6e-5,-0.54733 0.94599,-1.6084 2.17928,-2.37547 0.30888,-0.19168 0.64029,-0.31986 0.90812,-0.36547 z m -94.98108,1.46187 c -1.23334,0 -2.36086,2.56235 -2.36086,5.6646 0,3.10258 1.12758,5.66494 2.36086,5.66471 1.23335,0 2.17934,-2.56189 2.17934,-5.66471 -5e-5,-3.10248 -0.94593,-5.66437 -2.17934,-5.6646 z m 16.16311,0.54791 c -2.31329,-0.0116 -2.72893,6.04161 -0.18187,12.06024 l 2.72419,6.57838 0.90795,-7.67472 c 0.45553,-4.19084 -0.16975,-8.57689 -1.45286,-9.86757 -0.7165,-0.72065 -1.46382,-1.09368 -1.9977,-1.09633 z m -7.26428,1.82727 c -1.23335,0 -2.17928,1.42791 -2.17928,3.28913 5e-5,1.86162 0.94593,3.47221 2.17928,3.47198 1.23334,0 2.17882,-1.61013 2.17928,-3.47198 0,-1.86151 -0.94594,-3.2889 -2.17928,-3.28913 z m 17.61596,0 c -2.31271,0 -2.78736,14.18953 -0.54503,16.44589 3.23631,3.25628 4.26983,1.1513 3.45056,-7.49205 -0.47054,-4.96404 -1.80215,-8.95361 -2.90577,-8.95384 z m 335.61158,6.76111 c -3.08347,0 -5.62984,0.952 -5.62984,2.19273 -1.1e-4,1.24097 2.54648,2.19297 5.62984,2.1928 3.08337,0 5.62927,-0.9516 5.62991,-2.1928 -6e-5,-1.24096 -2.54643,-2.1925 -5.62991,-2.19273 z m -411.16046,2.19273 c -1.95493,0 -7.08276,9.94061 -7.08276,13.70484 0,4.2073 3.41488,1.95868 6.17469,-4.02006 3.27892,-7.10441 3.51223,-9.68455 0.90807,-9.68478 z m 8.71719,2.37553 c -2.0581,0.0404 -4.51174,4.14408 -6.53791,11.69484 -1.8219,6.79194 -1.57473,8.40588 0.90801,8.40565 3.36176,0 9.37779,-17.05968 6.90112,-19.55229 -0.43995,-0.44283 -0.79646,-0.55773 -1.27122,-0.54791 z m 27.24115,8.95385 c -1.28964,0 -3.00658,3.27619 -3.81372,7.30931 -0.80662,4.03334 -1.93466,9.15771 -2.54255,11.32937 -0.71488,2.55398 0.0883,3.83744 2.36092,3.83727 1.94222,0 3.45056,-1.86537 3.45056,-4.20274 0,-2.32679 0.68162,-7.45093 1.45285,-11.32937 0.8546,-4.30043 0.52193,-6.94361 -0.90806,-6.94384 z m 371.75156,2.19285 c -2.46669,0 -4.35856,0.95194 -4.35856,2.19273 1.1e-4,1.24102 1.89182,2.37576 4.35856,2.37553 2.46681,0 4.54026,-1.13427 4.54026,-2.37553 0,-1.24108 -2.07351,-2.1925 -4.54026,-2.19273 z m -360.85509,0.36546 c -0.17378,0.001 -0.36027,0.12125 -0.54502,0.18245 -3.07072,1.03023 -6.62821,11.96971 -4.5402,14.0703 2.00024,2.01324 7.26427,-5.74543 7.26427,-10.78112 -6e-5,-2.05468 -0.9602,-3.48064 -2.17928,-3.47192 z m 19.06887,6.39565 c -3.45379,0 -6.82202,14.44535 -4.35857,18.45589 0.86228,1.40349 2.84146,-1.4864 4.54021,-6.39565 3.80782,-11.00622 3.64599,-12.06001 -0.18187,-12.06024 z m 124.0383,4.56826 c -2.69146,0 -8.5863,6.38722 -8.71725,9.50199 -0.14203,3.36528 3.50131,1.43276 7.44597,-4.02007 2.54833,-3.52325 2.9545,-5.48169 1.27128,-5.48192 z m 49.03415,0.54791 c 2.84983,0.14953 5.12501,1.95573 3.63214,4.38553 -1.29206,2.1037 -1.81491,2.01496 -2.54255,-0.18245 -0.6982,-2.10746 -2.11913,-1.77011 -5.26663,1.0964 -2.33927,2.12963 -4.17751,2.74324 -4.17699,1.4618 -1.7e-4,-1.28138 1.43496,-3.58439 3.26898,-5.11646 1.51821,-1.26741 3.37522,-1.73443 5.08505,-1.64459 z m 161.81265,3.83739 c -2.53961,0 -3.84974,1.13467 -3.08728,2.37546 0.76182,1.24103 2.76304,2.19291 4.54014,2.19274 1.77785,0 3.26898,-0.95142 3.26898,-2.19274 -1.1e-4,-1.24096 -2.18275,-2.37523 -4.72184,-2.37546 z m -179.79193,2.74099 c 0.83982,-0.0462 0.58982,1.66647 -0.72643,5.11646 -0.74808,1.96294 -2.34914,3.47215 -3.4505,3.47192 -3.10225,0 -2.27478,-3.64773 1.45285,-6.76117 1.36931,-1.14316 2.22005,-1.7999 2.72408,-1.82721 z m 25.60677,1.82721 c 1.12024,0 0.38625,2.56253 -1.63449,5.66477 -2.02068,3.10253 -4.69118,5.66495 -5.81142,5.66472 -1.11949,0 -0.38625,-2.56196 1.63443,-5.66472 2.02005,-3.10247 4.69136,-5.6646 5.81148,-5.66477 z m -18.1608,2.37564 c 1.15938,-0.40068 0.67544,2.10203 -1.63444,6.76105 -1.8458,3.72302 -3.8319,6.76129 -4.35862,6.76106 -2.00123,0 -0.67666,-5.8993 2.17928,-9.68478 1.7495,-2.31842 3.11754,-3.59715 3.81378,-3.83733 z m 17.43438,6.94373 c 1.51313,-0.11894 2.72407,1.70164 2.72407,5.66466 -6e-5,3.30934 -0.82279,5.38498 -1.63443,4.56832 -0.81159,-0.81638 -2.70341,-0.28522 -4.35857,1.09639 -3.74593,3.12857 -4.15603,-0.8617 -0.72643,-7.30925 1.44807,-2.72263 2.8183,-3.92734 3.99536,-4.02012 z m 148.37374,2.01012 c -3.70004,0 -6.71949,0.952 -6.71949,2.19279 -6e-5,1.24102 3.01939,2.3757 6.71949,2.37547 3.70009,0 6.71896,-1.13421 6.71948,-2.37547 1.2e-4,-1.24102 -3.01945,-2.19256 -6.71948,-2.19279 z m -169.6219,12.24298 c 1.23762,-0.14146 1.29738,0.58486 0.54503,2.55825 -0.75397,1.97704 -1.27128,4.5252 -1.27128,5.66472 1.1e-4,1.13941 -1.12752,2.01023 -2.36086,2.01006 -3.69351,0 -2.44874,-8.36119 1.45285,-9.86751 0.66142,-0.25519 1.22197,-0.31812 1.63444,-0.36547 z m 7.80924,10.23303 c 3.15952,0 4.53484,2.5276 3.26887,5.84739 -1.79609,4.70879 -5.08557,3.89484 -5.08505,-1.27913 -1.7e-4,-2.48199 0.78815,-4.56809 1.81618,-4.56826 z m 150.00818,8.95385 c -0.34237,-0.20265 -1.52491,1.5211 -3.6322,5.29919 -2.61155,4.682 -4.63858,11.47198 -4.35856,15.16682 0.73589,9.71659 3.28572,8.19393 4.90335,-2.92378 0.76777,-5.2742 1.96341,-12.064 2.72408,-15.16671 0.36835,-1.5021 0.56869,-2.25393 0.36315,-2.37552 z m 8.53555,6.94373 c -1.80383,0.13163 -3.91238,1.2446 -5.44832,3.10657 -2.49833,3.0288 -2.84919,16.13256 -0.54502,20.46589 0.62712,1.17989 1.49638,0.70397 1.99764,-1.09634 0.50115,-1.80059 2.43742,-6.50499 4.17705,-10.41576 1.73986,-3.91054 3.08734,-8.32084 3.08734,-9.68478 6e-5,-1.74944 -1.46469,-2.50734 -3.26892,-2.37558 z m 11.6229,2.55831 c -0.5098,0.0231 -1.60816,1.08046 -3.63214,2.92373 -2.94254,2.67921 -4.72183,6.92196 -4.72183,11.69478 5e-5,4.15112 0.62365,7.67477 1.27127,7.67477 1.37746,0 4.0651,-7.49631 6.35627,-16.99403 0.90408,-3.75147 1.38173,-5.32696 0.72643,-5.29925 z m -259.51786,11.51211 c 0.83982,-0.16455 1.62883,0.17667 2.54255,1.09639 1.82739,1.83848 0.6825,3.40732 -4.35862,6.03013 -7.63655,3.97324 -15.27825,4.8242 -8.17234,0.91372 2.46675,-1.35765 5.71789,-3.8968 7.26434,-5.84745 1.0308,-1.30066 1.88431,-2.0283 2.72407,-2.19279 z m -10.16999,2.5582 c 0.66246,-0.13048 0.12818,0.55772 -1.63455,2.01006 -4.43217,3.65119 -2.96558,10.59844 2.17934,10.59844 4.06995,0 16.91742,-6.61042 18.88724,-9.68478 0.93907,-1.46509 2.91085,-0.90777 5.08505,1.27919 2.55445,2.57067 2.62725,3.93508 0.72643,5.84739 -3.14358,3.16315 -6.79991,3.45223 -4.90348,0.36547 0.76206,-1.24074 0.32506,-2.19274 -0.908,-2.19274 -1.23346,0 -2.87032,0.95177 -3.63214,2.19274 -0.76251,1.24096 -3.00813,2.19279 -4.90341,2.19279 -1.89529,0 -5.98815,1.88448 -9.26204,4.20285 -4.63593,3.28348 -7.14887,3.80454 -11.07811,2.01012 -2.77535,-1.26741 -5.085,-3.47822 -5.085,-4.93378 6e-5,-2.83487 7.90595,-10.65635 13.43897,-13.33949 0.49826,-0.24192 0.86881,-0.50461 1.0897,-0.54849 z m 225.01226,4.75105 -11.98611,13.52222 c -10.66963,12.09928 -13.3108,19.18677 -7.26428,19.18677 1.22353,0 5.07888,-3.03804 8.5355,-6.76105 3.45662,-3.7229 7.47876,-6.76106 9.08046,-6.76106 2.26577,0 2.45618,0.63515 0.36316,2.74094 -4.27099,4.29725 -3.19612,7.59048 3.45056,10.23303 3.39149,1.3483 6.51186,2.42627 6.90106,2.5582 2.46848,0.83693 9.26198,-4.92166 9.26198,-7.85751 1.1e-4,-2.18569 1.42826,-3.15611 3.45056,-2.37541 1.93073,0.74537 5.07085,-1.06533 7.80918,-4.56832 4.50447,-5.76142 4.50389,-6.24963 0.54503,-10.23303 -2.24972,-2.26358 -9.86977,-5.241 -17.07123,-6.76106 l -13.07575,-2.92372 z m -209.39401,10.23298 c 1.92288,0 3.6322,0.36604 3.6322,0.91372 0,2.38136 -4.35014,3.36297 -5.62984,1.27913 -0.77464,-1.26129 0.0745,-2.19285 1.99764,-2.19285 z m 149.28175,17.90769 c 1.35061,0 1.76711,2.54625 0.90806,6.21286 -0.79888,3.41314 -2.57159,7.34747 -3.81371,8.58849 -1.51354,1.51244 -1.66226,0.30947 -0.72643,-3.47186 0.76736,-3.10253 1.25465,-6.85447 1.27122,-8.40576 0.0173,-1.55113 1.10436,-2.92373 2.36086,-2.92373 z m 59.20426,5.48204 c -0.26847,-0.0115 -0.59947,-0.0115 -0.90807,0.18245 -1.23334,0.76718 -2.17991,2.48695 -2.17928,3.65465 1.2e-4,1.16799 0.94594,2.01012 2.17928,2.01012 1.23335,0 2.36092,-1.53761 2.36092,-3.47198 1.8e-4,-1.45124 -0.649,-2.33962 -1.45285,-2.37547 z m -70.82716,1.64454 c 0.29965,-0.1149 0.66252,-0.0173 0.90806,0 1.26204,0.0774 1.72133,1.84903 0.54503,4.93378 -1.43051,3.75079 -7.80907,7.16855 -7.80907,4.2028 -1.7e-4,-0.96476 1.51983,-3.80592 3.26892,-6.21286 1.16355,-1.601 2.18927,-2.57973 3.08729,-2.92372 z m 88.98796,1.27913 c -1.21175,0.0346 -3.31771,0.62394 -5.6299,1.82727 -3.70026,1.92548 -6.71942,3.97965 -6.71942,4.56837 1.1e-4,1.81873 4.53004,1.17123 9.08034,-1.27913 2.38609,-1.28455 4.35857,-3.3393 4.35857,-4.56837 1.1e-4,-0.46073 -0.362,-0.56985 -1.08959,-0.54791 z m 13.62061,6.21285 c 0.59854,-0.0918 0.908,0.071 0.908,0.73099 1.2e-4,1.26019 -1.41948,2.94041 -3.26898,3.6546 -1.85054,0.71459 -3.4505,0.97787 -3.4505,0.54791 -1.2e-4,-0.42955 1.59991,-2.1096 3.4505,-3.6546 0.96903,-0.80939 1.76249,-1.18704 2.36098,-1.27913 z m -116.04754,1.27913 c 0.65761,0 -0.67366,2.08627 -2.90577,4.56838 -3.51892,3.91279 -14.52861,6.37746 -14.52861,3.28913 0,-1.07359 15.07248,-7.85751 17.43438,-7.85751 z m 126.94401,1.27913 c 0.74744,-0.0173 1.37988,0.10912 1.81601,0.54791 1.93137,1.94303 1.65314,2.74105 -1.08958,2.74105 -4.42167,0 -13.33054,10.81206 -11.44132,13.88763 0.74138,1.20765 5.20508,-1.51359 9.98846,-6.21297 8.57164,-8.42222 8.64751,-8.58388 12.53097,-4.20279 5.84161,6.58906 17.77796,24.10334 19.43196,28.68886 0.89998,2.49533 -0.321,5.62234 -3.08728,8.40571 -5.78221,5.81789 -8.04007,5.44007 -20.70331,-3.47198 -5.82995,-4.10251 -11.86885,-7.95121 -13.43897,-8.58838 -1.85382,-0.75183 0.61673,-4.48131 6.90107,-10.59839 5.32552,-5.18366 9.14235,-9.98765 8.53555,-10.59849 -2.83602,-2.85387 -10.76102,2.76778 -15.61825,10.9639 l -5.44821,9.13658 -1.08976,-6.39559 c -0.59611,-3.50962 -1.65799,-8.00606 -2.3608,-9.86751 -1.60782,-4.26059 9.83899,-14.32803 15.07346,-14.43583 z M 535.01707,707.9024 c 0.44918,0.006 0.77395,-0.0831 1.08976,0 7.93614,2.08835 13.3213,23.87714 6.53785,26.49614 -1.8499,0.71436 -3.40368,2.61282 -3.45056,4.20285 -0.0462,1.59038 -3.99512,5.72372 -8.89877,9.13652 -9.51902,6.62578 -20.42259,7.73765 -35.77682,3.65466 -4.31746,-1.1479 -13.37494,-2.14412 -20.1584,-2.19274 l -12.34938,0 9.98841,-3.28919 c 5.55017,-1.76024 14.56972,-3.08769 19.97693,-3.1064 12.3719,-0.0404 28.37225,-4.72888 24.51702,-7.12657 -1.52762,-0.94992 -5.86714,-1.08277 -9.62525,-0.36547 -9.86798,1.88362 -5.60496,-1.44991 8.17239,-6.39559 6.52244,-2.34117 8.89831,-3.82953 5.26669,-3.1064 l -6.5379,1.27908 5.4482,-4.751 5.44827,-4.75105 -5.44827,1.0964 c -3.08336,0.59612 -9.30384,1.64119 -13.6206,2.37552 -7.23616,1.23087 -7.34788,1.09028 -2.17928,-1.27907 3.0833,-1.41371 10.68908,-4.96866 16.88958,-7.85751 5.42535,-2.52771 11.56713,-4.07745 14.71013,-4.02012 z m 48.30779,5.66472 c 1.85302,-0.13626 4.20256,2.51992 6.71948,7.85751 2.07825,4.4051 7.87841,12.34448 13.07581,17.72496 9.39172,9.72346 22.59847,14.80112 38.31926,14.80124 3.0228,-6e-5 5.44827,0.95177 5.44827,2.19279 -1.2e-4,3.37972 -29.16859,2.51138 -37.41125,-1.0964 -14.4453,-6.32243 -32.29139,-29.71026 -29.05728,-38.19097 0.79663,-2.08916 1.79384,-3.20743 2.90571,-3.28913 z m -26.33321,4.20285 c 0.94092,0 4.01654,5.36213 6.90118,11.87757 2.88464,6.51522 8.59341,15.62588 12.71254,20.28322 4.11856,4.65729 7.62749,9.54373 7.62749,10.78118 0,1.2375 -2.78319,2.29083 -6.17469,2.19273 -3.3919,-0.0982 -4.9925,-0.83589 -3.45044,-1.4618 4.49147,-1.82346 3.15766,-5.29931 -1.99777,-5.29925 -3.27891,0 -4.34598,-0.94063 -3.4505,-3.28913 0.71009,-1.86157 0.46824,-3.47204 -0.72637,-3.47192 -1.19483,0 -2.17934,-2.12432 -2.17934,-4.75106 6e-5,-3.77203 -1.10621,-4.47115 -4.90347,-3.47186 -3.60911,0.94969 -4.10499,0.65842 -2.17929,-1.27913 3.61453,-3.63699 3.13492,-6.21291 -1.08958,-6.21291 -2.44539,0 -3.15438,-1.28058 -2.17934,-3.83733 0.79051,-2.07259 0.34295,-4.40822 -1.0897,-5.29925 -2.62973,-1.63524 -0.98907,-6.76111 2.17928,-6.76106 z m 115.50275,0 c -4.15216,0 -11.98617,6.29051 -11.98617,9.50199 -1.8e-4,3.14624 2.24666,2.10209 9.26204,-3.83727 5.09902,-4.31734 5.72418,-5.66477 2.72413,-5.66472 z m -177.97587,4.56826 c 1.96035,-0.22632 2.47604,0.61483 0.72643,2.37553 -2.37391,2.38869 -16.5269,7.08166 -16.52632,5.48198 6e-5,-0.5023 3.08129,-2.49232 6.71954,-4.38558 3.84934,-2.00279 7.12046,-3.24583 9.08035,-3.47193 z m 184.51372,0 c -4.99764,6e-5 -9.6252,4.06025 -9.6252,8.40571 -1.1e-4,3.56701 6.44276,0.68601 11.07811,-4.93378 2.44642,-2.96587 2.19198,-3.47198 -1.45291,-3.47193 z m 1.63455,8.95385 c -2.53927,0 -4.54021,1.1345 -4.54021,2.37553 0,1.24096 1.49114,2.19273 3.26893,2.19279 1.77727,0 3.77826,-0.95183 4.54014,-2.19279 0.76246,-1.24097 -0.72873,-2.37559 -3.26886,-2.37553 z m -235.72722,7.12658 c 3.4378,-0.0883 4.72184,1.43779 4.72184,4.56826 6e-5,2.9142 1.00546,4.17889 2.72413,3.47192 1.54143,-0.63422 4.79753,-1.88425 7.26428,-2.74099 3.61285,-1.25459 3.98092,-1.04784 1.27122,0.91366 -1.85008,1.33895 -2.50456,2.52022 -1.27122,2.55826 1.2334,0.0404 0.76043,0.98959 -1.08964,2.1928 -5.03621,3.27469 -17.28525,2.76108 -24.69871,-1.0964 -3.60847,-1.87727 -12.30892,-4.02243 -19.43203,-4.75099 -12.32918,-1.26135 -13.34307,-0.99415 -19.61366,5.66465 -7.2678,7.71756 -10.38043,8.2433 -20.34009,3.65466 l -6.71954,-3.10646 9.62525,-0.18244 c 6.13543,-0.11721 11.26696,-1.66867 14.1654,-4.38565 5.98018,-5.60611 14.81578,-7.21549 28.14927,-5.11646 5.98018,0.94138 13.44289,1.05593 16.52631,0.18245 3.87232,-1.0964 6.65459,-1.77427 8.71719,-1.82733 z m -370.843557,3.1064 c -1.095819,0.0612 -2.939081,0.83589 -4.721722,2.19279 -2.376738,1.80937 -3.412743,3.26864 -2.17934,3.28919 3.332491,0.0577 9.035369,-3.88288 7.627548,-5.29925 -0.168011,-0.16859 -0.361424,-0.20323 -0.726486,-0.18302 z m 80.634047,0.54848 c -8.02633,0.0404 -21.37431,2.14384 -23.24592,4.20286 -0.76892,0.84605 2.69417,0.96505 7.62755,0.18302 4.93402,-0.78249 12.39124,-1.41048 16.70795,-1.46192 5.55623,-0.0658 6.92139,-0.80581 4.5402,-2.19268 -0.87122,-0.50749 -2.9538,-0.74513 -5.62978,-0.73099 z m 135.11629,6.21292 c -3.40149,-0.37759 -19.61366,8.02228 -19.61366,10.41571 6e-5,1.11135 1.8372,2.01629 3.99541,2.01006 4.47022,-0.0115 17.87345,-10.13494 15.98146,-12.06036 -0.10508,-0.10681 -0.13625,-0.34007 -0.36315,-0.36547 z m -18.7056,1.46186 c -3.38491,0.27655 -7.79117,4.60816 -6.35633,6.94373 0.73925,1.20338 3.32712,0.2523 5.81154,-2.01 2.62119,-2.38708 3.4695,-4.2573 1.99765,-4.751 -0.4232,-0.14203 -0.96927,-0.22228 -1.45286,-0.18302 z m 33.23421,0.36547 c -3.49253,0.67891 -13.96887,7.12386 -13.98382,8.95379 -0.006,0.93081 0.53694,1.64453 1.27134,1.64459 2.30329,0 14.79754,-9.41429 13.80218,-10.41571 -0.16339,-0.16455 -0.59063,-0.27944 -1.0897,-0.18244 z m -192.68606,1.64453 c -2.66097,6e-5 -7.78765,1.13907 -11.25968,2.5582 -3.472156,1.4192 -14.56897,3.08094 -24.698658,3.83739 -16.507436,1.23288 -18.491342,1.02885 -19.068928,-2.55826 -0.588497,-3.65794 -1.183519,-3.58641 -7.809068,1.09634 -3.987211,2.81801 -7.424954,6.53906 -7.445912,8.22303 -0.02887,2.05642 1.35967,2.40867 3.995352,1.27913 2.158614,-0.92509 13.999523,-2.37044 26.333146,-3.28924 24.837856,-1.85002 33.727208,-3.68226 40.316968,-8.22292 4.34378,-2.99307 4.38755,-2.92372 -0.36316,-2.92367 z m 206.48824,1.46186 c -1.10194,0.004 -2.82852,0.55888 -5.26663,1.82727 -3.70009,1.92531 -6.71942,4.45557 -6.71942,5.66472 -6e-5,3.1467 2.62875,2.75554 8.35397,-1.27913 5.05601,-3.56332 6.05628,-6.22059 3.63208,-6.21286 z m 13.07582,5.66466 c -1.5916,0.11663 -3.84178,1.5465 -4.54021,3.65466 -0.54617,1.64886 0.54041,2.12241 2.72414,1.27913 1.9533,-0.75414 3.63219,-2.26017 3.63219,-3.47193 6e-5,-1.11215 -0.86158,-1.53172 -1.81612,-1.46186 z m 10.89647,4.02007 c -2.53898,0 -4.72178,1.1345 -4.72178,2.37552 0,1.24102 1.49119,2.19274 3.26886,2.19279 1.77728,6e-5 3.95945,-0.95188 4.7219,-2.19279 0.76234,-1.24091 -0.72937,-2.37558 -3.26898,-2.37552 z"
     id="path9013" />
</svg>
