<?xml version="1.0" encoding="UTF-8" standalone="no"?>
<!-- Created with Inkscape (http://www.inkscape.org/) -->

<svg
   xmlns:dc="http://purl.org/dc/elements/1.1/"
   xmlns:cc="http://creativecommons.org/ns#"
   xmlns:rdf="http://www.w3.org/1999/02/22-rdf-syntax-ns#"
   xmlns:svg="http://www.w3.org/2000/svg"
   xmlns="http://www.w3.org/2000/svg"
   xmlns:sodipodi="http://sodipodi.sourceforge.net/DTD/sodipodi-0.dtd"
   xmlns:inkscape="http://www.inkscape.org/namespaces/inkscape"
   width="1000"
   height="1000"
   id="svg2"
   version="1.1"
   inkscape:version="0.47 r22583"
   sodipodi:docname="R.svg">
  <defs
     id="defs4">
    <inkscape:perspective
       sodipodi:type="inkscape:persp3d"
       inkscape:vp_x="0 : 526.18109 : 1"
       inkscape:vp_y="0 : 1000 : 0"
       inkscape:vp_z="744.09448 : 526.18109 : 1"
       inkscape:persp3d-origin="372.04724 : 350.78739 : 1"
       id="perspective10" />
    <inkscape:perspective
       id="perspective2940"
       inkscape:persp3d-origin="0.5 : 0.33333333 : 1"
       inkscape:vp_z="1 : 0.5 : 1"
       inkscape:vp_y="0 : 1000 : 0"
       inkscape:vp_x="0 : 0.5 : 1"
       sodipodi:type="inkscape:persp3d" />
    <inkscape:perspective
       id="perspective2953"
       inkscape:persp3d-origin="0.5 : 0.33333333 : 1"
       inkscape:vp_z="1 : 0.5 : 1"
       inkscape:vp_y="0 : 1000 : 0"
       inkscape:vp_x="0 : 0.5 : 1"
       sodipodi:type="inkscape:persp3d" />
    <inkscape:perspective
       id="perspective2966"
       inkscape:persp3d-origin="0.5 : 0.33333333 : 1"
       inkscape:vp_z="1 : 0.5 : 1"
       inkscape:vp_y="0 : 1000 : 0"
       inkscape:vp_x="0 : 0.5 : 1"
       sodipodi:type="inkscape:persp3d" />
    <inkscape:perspective
       id="perspective2979"
       inkscape:persp3d-origin="0.5 : 0.33333333 : 1"
       inkscape:vp_z="1 : 0.5 : 1"
       inkscape:vp_y="0 : 1000 : 0"
       inkscape:vp_x="0 : 0.5 : 1"
       sodipodi:type="inkscape:persp3d" />
    <inkscape:perspective
       id="perspective2992"
       inkscape:persp3d-origin="0.5 : 0.33333333 : 1"
       inkscape:vp_z="1 : 0.5 : 1"
       inkscape:vp_y="0 : 1000 : 0"
       inkscape:vp_x="0 : 0.5 : 1"
       sodipodi:type="inkscape:persp3d" />
    <inkscape:perspective
       id="perspective3005"
       inkscape:persp3d-origin="0.5 : 0.33333333 : 1"
       inkscape:vp_z="1 : 0.5 : 1"
       inkscape:vp_y="0 : 1000 : 0"
       inkscape:vp_x="0 : 0.5 : 1"
       sodipodi:type="inkscape:persp3d" />
    <inkscape:perspective
       id="perspective3018"
       inkscape:persp3d-origin="0.5 : 0.33333333 : 1"
       inkscape:vp_z="1 : 0.5 : 1"
       inkscape:vp_y="0 : 1000 : 0"
       inkscape:vp_x="0 : 0.5 : 1"
       sodipodi:type="inkscape:persp3d" />
    <inkscape:perspective
       id="perspective3031"
       inkscape:persp3d-origin="0.5 : 0.33333333 : 1"
       inkscape:vp_z="1 : 0.5 : 1"
       inkscape:vp_y="0 : 1000 : 0"
       inkscape:vp_x="0 : 0.5 : 1"
       sodipodi:type="inkscape:persp3d" />
    <inkscape:perspective
       id="perspective3044"
       inkscape:persp3d-origin="0.5 : 0.33333333 : 1"
       inkscape:vp_z="1 : 0.5 : 1"
       inkscape:vp_y="0 : 1000 : 0"
       inkscape:vp_x="0 : 0.5 : 1"
       sodipodi:type="inkscape:persp3d" />
    <inkscape:perspective
       id="perspective3057"
       inkscape:persp3d-origin="0.5 : 0.33333333 : 1"
       inkscape:vp_z="1 : 0.5 : 1"
       inkscape:vp_y="0 : 1000 : 0"
       inkscape:vp_x="0 : 0.5 : 1"
       sodipodi:type="inkscape:persp3d" />
    <inkscape:perspective
       id="perspective3070"
       inkscape:persp3d-origin="0.5 : 0.33333333 : 1"
       inkscape:vp_z="1 : 0.5 : 1"
       inkscape:vp_y="0 : 1000 : 0"
       inkscape:vp_x="0 : 0.5 : 1"
       sodipodi:type="inkscape:persp3d" />
    <inkscape:perspective
       id="perspective3083"
       inkscape:persp3d-origin="0.5 : 0.33333333 : 1"
       inkscape:vp_z="1 : 0.5 : 1"
       inkscape:vp_y="0 : 1000 : 0"
       inkscape:vp_x="0 : 0.5 : 1"
       sodipodi:type="inkscape:persp3d" />
    <inkscape:perspective
       id="perspective3096"
       inkscape:persp3d-origin="0.5 : 0.33333333 : 1"
       inkscape:vp_z="1 : 0.5 : 1"
       inkscape:vp_y="0 : 1000 : 0"
       inkscape:vp_x="0 : 0.5 : 1"
       sodipodi:type="inkscape:persp3d" />
    <inkscape:perspective
       id="perspective3109"
       inkscape:persp3d-origin="0.5 : 0.33333333 : 1"
       inkscape:vp_z="1 : 0.5 : 1"
       inkscape:vp_y="0 : 1000 : 0"
       inkscape:vp_x="0 : 0.5 : 1"
       sodipodi:type="inkscape:persp3d" />
    <inkscape:perspective
       id="perspective3122"
       inkscape:persp3d-origin="0.5 : 0.33333333 : 1"
       inkscape:vp_z="1 : 0.5 : 1"
       inkscape:vp_y="0 : 1000 : 0"
       inkscape:vp_x="0 : 0.5 : 1"
       sodipodi:type="inkscape:persp3d" />
    <inkscape:perspective
       id="perspective3135"
       inkscape:persp3d-origin="0.5 : 0.33333333 : 1"
       inkscape:vp_z="1 : 0.5 : 1"
       inkscape:vp_y="0 : 1000 : 0"
       inkscape:vp_x="0 : 0.5 : 1"
       sodipodi:type="inkscape:persp3d" />
  </defs>
  <sodipodi:namedview
     id="base"
     pagecolor="#ffffff"
     bordercolor="#666666"
     borderopacity="1.0"
     inkscape:pageopacity="0.0"
     inkscape:pageshadow="2"
     inkscape:zoom="0.532"
     inkscape:cx="500"
     inkscape:cy="500"
     inkscape:document-units="px"
     inkscape:current-layer="svg2"
     showgrid="false"
     showborder="true"
     inkscape:showpageshadow="false"
     showguides="true"
     inkscape:guide-bbox="true"
     inkscape:window-width="1280"
     inkscape:window-height="750"
     inkscape:window-x="0"
     inkscape:window-y="26"
     inkscape:window-maximized="1">
    <sodipodi:guide
       orientation="0,1"
       position="0,200"
       id="guide2818" />
  </sodipodi:namedview>
  <metadata
     id="metadata7">
    <rdf:RDF>
      <cc:Work
         rdf:about="">
        <dc:format>image/svg+xml</dc:format>
        <dc:type
           rdf:resource="http://purl.org/dc/dcmitype/StillImage" />
        <dc:title></dc:title>
      </cc:Work>
    </rdf:RDF>
  </metadata>
  <g
     inkscape:label="Layer 1"
     inkscape:groupmode="layer"
     id="layer1" />
  <path
     style="fill:#800000"
     d="M 0,0 0,6.0633205 0,793.93668 0,800 l 6.1976132,0 724.7515868,0 6.19755,0 0,-6.06332 0,-787.8733595 L 737.14675,0 730.9492,0 6.1976132,0 0,0 z m 12.395169,12.126641 229.127971,0 c 103.43256,0.706567 243.98799,0.657318 344.14764,0 l 135.43521,0 3.64565,1.248356 0,511.457793 c -0.3008,18.8911 -0.65183,35.93767 -1.09368,46.72317 -1.3804,33.69372 -1.7271,92.33644 -0.91141,137.13777 0.97313,53.50311 0.79507,72.783 -0.72915,79.17963 l -153.66339,0 c -65.2704,-0.8464 -167.79594,-1.71694 -271.96411,-2.31831 -148.83653,-0.85899 -272.877941,-1.6446 -275.60981,-1.78333 L 15.858546,783.59331 15.493658,567.81095 C 15.25752,449.11995 14.361869,275.41109 13.488563,181.89915 L 12.39488,68.65803 l 0,-56.531447 z M 25.701692,23.896592 25.519247,139.45608 c -0.288677,164.71639 2.311728,580.38833 3.827862,606.86582 l 1.275953,22.29154 30.805622,1.42665 c 16.913315,0.74548 109.308186,2.08303 205.249046,2.85328 95.94139,0.77054 230.12547,2.00672 298.21267,2.85335 68.08732,0.84686 128.88097,1.75146 135.07073,1.96168 l 11.11916,0.3568 0.18244,-26.92817 C 712.24516,477.73335 711.879,103.84606 710.71598,69.549812 L 709.25775,24.966719 468.28148,24.431511 C 335.701,24.150917 181.92207,23.920553 126.50348,23.896304 l -100.801788,0 z M 209.80611,40.481508 c 4.43859,-0.264428 7.29124,0.271934 7.29124,1.604988 5e-5,2.383147 -10.54954,8.133368 -20.96231,11.413319 -5.84721,1.841531 -10.24383,5.264724 -13.30658,10.343309 -3.67838,6.099809 -5.0608,6.921673 -7.65583,4.814964 -2.59949,-2.110809 -5.79243,-0.0023 -16.58769,11.234917 -9.26787,9.647711 -14.41418,13.435965 -16.95211,12.483273 -4.339,-1.628891 -20.27335,5.850045 -23.14973,10.878282 -1.72785,3.02141 -2.71091,3.17788 -6.74454,0.71338 -3.4628,-2.1156 -6.51256,-2.32143 -11.1191,-0.71338 -5.825568,2.03345 -6.286239,3.11939 -6.197557,13.73163 0.07679,9.20009 -0.50865,11.41332 -3.463377,11.41332 -5.513622,6e-5 -11.268519,7.23576 -12.759711,16.22823 -0.728102,4.38922 -2.543478,8.025 -4.010189,8.025 -4.246848,-6e-5 -11.828438,15.34065 -14.400206,29.06818 -1.29899,6.93392 -3.928494,15.65676 -5.833129,19.25992 -1.90452,3.60344 -3.46332,9.50308 -3.46332,13.19665 5.8e-5,10.48557 -3.867352,8.01259 -6.562097,-4.27999 -3.146467,-14.35332 -3.026204,-24.25322 0.182444,-24.25322 1.779927,6e-5 1.998686,-3.97445 0.911412,-13.375 -1.311057,-11.33838 -0.939067,-13.86101 2.369637,-16.22822 3.491147,-2.49735 3.614413,-4.74274 1.640495,-19.97324 l -2.187308,-16.94161 13.12431,-13.0183 C 72.526422,93.709447 73.054066,92.93458 69.81401,88.096348 65.98661,82.381461 54.094606,73.473052 50.492144,73.473052 49.075316,73.47311 48.745704,71.2007 49.58079,67.944766 50.51495,64.303044 49.345807,59.745118 46.117413,54.391482 38.878829,42.388799 43.187569,39.689839 57.418841,47.436495 c 6.118169,3.330586 13.204273,6.063263 15.676275,6.06332 2.935733,-5.7e-5 5.455308,2.636375 7.473567,7.311677 3.753613,8.693229 1.85123,11.30749 -6.015343,8.38163 -8.197916,-3.049529 -9.910754,0.778101 -3.098777,6.95493 3.015061,2.733427 5.910494,6.854007 6.379884,9.273296 1.097262,5.653399 13.293648,7.454572 17.498983,2.496655 1.59373,-1.878481 6.00478,-3.566666 9.66093,-3.566666 4.36613,5.8e-5 12.44378,-3.851302 23.51439,-11.413319 18.60889,-12.71104 19.17729,-16.778272 0.91141,-6.241608 -13.47661,7.77408 -14.94575,7.968591 -16.95229,2.853287 -1.72155,-4.389339 1.70285,-7.10152 18.04591,-15.158215 6.18976,-3.051492 12.82865,-7.033738 14.76487,-8.738262 2.67251,-2.353355 4.03034,-2.477198 6.01528,-0.535208 3.38734,3.314131 25.75902,2.462071 41.37791,-1.604988 6.63912,-1.729004 12.69476,-2.767088 17.13444,-3.031747 z m 355.44912,1.604988 c 2.731,-0.102192 5.56403,-0.01155 8.56719,0 22.20368,0.09469 43.661,4.891406 52.13259,11.770067 2.04706,1.662146 7.84942,2.018894 17.31682,1.069896 16.11755,-1.615438 38.23277,2.045856 36.8208,6.06332 -0.60519,1.722942 -6.38462,2.313172 -18.04586,1.783275 -21.69387,-0.985428 -22.16724,1.336981 -3.09878,15.514963 18.26594,13.581574 35.36263,29.198903 35.36263,32.278223 6e-5,3.96215 -4.69436,2.85075 -12.57744,-3.03169 -9.31163,-6.94835 -11.16852,-6.90724 -17.86358,0.53521 -3.8983,4.33322 -5.41744,8.63988 -5.46842,15.33656 -0.0797,10.45629 -3.58087,12.35394 -6.9267,3.74507 -3.41459,-8.78815 -2.73417,-13.60323 3.64559,-24.25323 l 6.01535,-9.986675 -12.94204,-11.948296 c -7.03097,-6.608805 -12.06007,-13.065304 -11.30143,-14.266606 0.75905,-1.201186 -0.40992,-2.14008 -2.55202,-2.139965 -2.14233,0 -10.63141,-2.669341 -18.77494,-5.884975 -11.48462,-4.534659 -19.72798,-5.994442 -37.18545,-6.776642 -38.28242,-1.715667 -52.89902,5.258488 -55.04903,26.214902 -1.02238,9.961849 -2.04106,11.769951 -5.83307,11.769951 -3.83063,5.8e-5 -4.53206,-1.597887 -5.10387,-11.234917 L 511.66443,67.231618 467.37007,65.62663 c -24.38971,-0.940165 -54.68253,-1.863239 -67.26193,-1.961678 -21.32477,-0.166856 -23.28852,0.12009 -28.80053,5.171596 l -5.83301,5.528344 -1.45823,-5.171596 c -1.28727,-4.816177 -2.07409,-5.069001 -14.03572,-3.745069 -6.98818,0.773482 -20.29598,0.300802 -29.52961,-1.069953 -9.23357,-1.370525 -28.21647,-2.417615 -42.28932,-2.318368 -21.42956,0.151267 -28.68436,1.21002 -44.47669,6.241665 -14.76838,4.705094 -19.37307,5.299769 -21.50923,3.209977 -4.34881,-4.254815 1.64466,-8.096129 20.59788,-13.374882 24.79651,-6.906258 50.27806,-8.038335 81.8444,-3.566666 14.64894,2.075243 27.29283,3.079667 28.07133,2.31831 0.77862,-0.761531 0.18938,-3.232031 -1.27601,-5.528344 -2.25093,-3.526424 -1.88327,-4.320864 2.0051,-5.528286 3.06223,-0.950961 5.54901,-0.07794 7.47362,2.496712 2.48037,3.318173 8.81586,4.085362 44.29436,5.706573 37.99882,1.736164 41.49165,1.544193 44.1122,-1.96162 2.67979,-3.586238 3.30056,-3.64328 9.29633,-0.178402 4.67086,2.699248 14.51857,4.076643 36.82091,5.171654 28.71265,1.409727 30.91041,1.339636 37.18545,-3.031689 10.80282,-7.52576 23.5369,-11.234109 42.65386,-11.948296 z M 109.73346,53.499815 c 2.06197,0.113739 1.87929,4.85538 -1.09362,13.553285 -3.52435,10.313343 -5.03402,11.477405 -9.114122,6.954987 -3.223891,-3.573133 -2.944913,-4.572302 2.005092,-12.126641 3.75875,-5.737115 6.59847,-8.470081 8.20265,-8.381631 z m 467.37007,14.088262 c 7.67322,-0.01155 15.52449,2.173451 22.0561,6.598297 13.32812,9.028729 23.66502,32.859276 23.51427,54.748176 -0.0346,5.27806 0.88901,8.38163 2.73424,8.38163 1.58709,-6e-5 4.65919,2.0074 6.92669,4.45827 3.106,3.35789 3.59057,5.04723 1.64056,6.95499 -1.95008,1.90775 -5.50087,0.97815 -14.03573,-3.56667 -13.39185,-7.13067 -17.55233,-6.37192 -26.97758,4.81497 -10.2727,12.19292 -9.50072,20.0756 3.82791,40.83814 l 5.46842,8.38163 6.74442,-5.70663 c 7.52461,-6.19427 20.05095,-7.76358 20.05095,-2.4966 0,1.73495 -1.84407,3.73947 -4.01019,4.45827 -2.16663,0.71898 -6.83859,3.89299 -10.39007,6.95493 -5.70143,4.91525 -6.35396,6.61781 -5.10387,14.26667 0.7792,4.76502 0.80904,14.13144 0,20.8649 -1.26002,10.49238 -2.42362,12.77524 -7.83805,15.51496 -17.99511,9.10367 -46.02458,-2.20596 -50.67436,-20.32998 -1.91335,-7.45844 -0.34064,-8.07032 8.93179,-4.27999 4.38876,1.7939 9.73813,2.72667 12.03063,2.14002 2.44209,-0.62446 5.92568,0.72937 8.38498,3.38832 5.91713,6.39651 9.48553,5.67142 11.11921,-2.31825 2.48638,-12.16463 1.64044,-18.17391 -4.92166,-31.74324 -6.19957,-12.82155 -15.75889,-22.30708 -35.72716,-35.84489 -14.52729,-9.84869 -63.00238,-32.7027 -80.56846,-37.98486 -11.00743,-3.30986 -57.04702,-10.41738 -77.65206,-11.94823 -10.5224,-0.7818 -31.29903,-2.90756 -46.11724,-4.63668 -34.45554,-4.02053 -50.80172,-3.8457 -71.27206,0.3568 -17.98228,3.69126 -52.8922,19.67584 -69.63156,31.92154 -10.49319,7.6765 -23.22923,25.41076 -28.43593,39.58984 -4.05401,11.04231 -8.07656,46.43357 -6.92675,61.16801 2.18834,28.03992 20.52149,50.17309 51.40344,62.05973 17.07618,6.57243 58.20081,7.97575 125.40979,4.28004 29.43614,-1.61849 77.8356,-2.72592 107.54604,-2.49665 79.81835,0.61633 108.46611,7.09465 141.81521,31.92147 19.11812,14.23272 28.51682,24.57707 38.27908,42.2649 4.67847,8.47794 9.73547,17.37266 11.30148,19.79484 4.99874,7.73412 14.50869,50.07212 15.31162,68.30145 1.37318,31.16018 -5.45462,70.208 -15.67622,89.70128 -3.11656,5.94283 -17.44344,22.09184 -32.62844,36.91479 -11.67902,11.40027 -31.22681,25.35077 -40.28423,28.71155 -4.33322,1.60776 -8.96978,3.55778 -10.20774,4.45839 -8.14752,5.92834 -58.55011,24.83826 -78.9279,29.60317 -65.65844,15.3518 -163.84522,10.43355 -242.7991,-12.12659 -53.48405,-15.28251 -79.74716,-16.3945 -105.17646,-4.63667 -25.98344,12.01365 -29.50438,31.0693 -7.83811,42.08644 14.99604,7.62523 16.61321,11.36309 8.74946,19.97323 -4.98776,5.46137 -8.28613,7.11977 -16.22302,7.66831 -25.963469,1.795 -37.086148,-8.94871 -34.086675,-33.16983 1.912891,-15.44626 4.215093,-19.83409 18.592665,-36.7365 15.29921,-17.98563 16.11206,-29.17783 3.64565,-46.54483 -2.41271,-3.36089 -2.04667,-4.4544 1.64055,-7.13327 6.6763,-4.85001 12.20251,-3.82942 18.41051,3.38832 6.94494,8.07488 19.14208,11.5602 30.98784,8.91661 9.99279,-2.22992 10.85536,-2.96016 14.7648,-12.66162 4.86427,-12.07046 1.30702,-25.38576 -9.11406,-34.59653 -7.71756,-6.82104 -11.33399,-8.19653 -19.50414,-7.66825 -1.66081,0.10739 -5.34901,-13.84826 -4.01018,-15.15833 0.37759,-0.36951 8.01275,-1.12798 17.13444,-1.78328 25.59615,-1.83893 28.83574,-3.44611 40.28428,-20.15158 19.28613,-28.14298 46.45511,-34.9956 63.98082,-16.04994 3.31922,3.58826 4.40805,7.75688 4.19246,16.76326 -0.15761,6.5565 -1.02538,13.76979 -1.82282,16.22829 -3.19121,9.83748 -26.89595,7.8791 -32.08152,-2.675 -4.10943,-8.36379 -15.50659,-8.40461 -23.33205,0 -15.66444,16.82405 -17.06874,28.55122 -5.83307,46.90146 9.01856,14.72935 26.01779,26.64867 55.77817,39.05486 43.6588,18.20018 72.91948,22.87629 140.90368,22.82652 49.84401,-0.0346 76.62974,-3.14057 97.52068,-11.23491 5.57078,-2.15844 17.71803,-6.68508 26.97771,-10.16497 47.71651,-17.9328 74.53215,-48.88155 84.57864,-97.54793 4.48627,-21.73053 3.50338,-34.92608 -4.37479,-56.17475 -12.29852,-33.17266 -40.22811,-52.92766 -93.14589,-65.98309 -21.97308,-5.42107 -23.29678,-5.47292 -70.54298,-3.56661 -26.47933,1.06851 -55.60768,2.91864 -64.89224,4.10164 -52.34805,6.66926 -149.85343,4.21688 -176.44863,-4.45833 -7.2835,-2.3761 -14.5789,-3.82746 -16.22297,-3.20992 -4.14726,1.55707 -27.10767,-15.85075 -42.65392,-32.27822 -21.14469,-22.34391 -35.21991,-45.73116 -44.294478,-74.18638 -3.816256,-11.9663 -4.374905,-17.97016 -3.281049,-36.37986 1.661223,-27.94939 2.315885,-31.54637 9.296387,-52.42975 7.47473,-22.36227 18.21,-38.67092 38.27914,-57.95809 23.76917,-22.84263 44.13847,-30.84765 104.81191,-41.551516 32.259,-5.691158 49.24085,-7.66421 57.23646,-6.776643 6.24784,0.693692 21.52441,1.283402 33.90428,1.426701 52.0323,0.602355 112.91065,7.966051 136.16441,16.584916 8.0466,2.982322 25.97426,10.424022 39.91963,16.406572 13.9449,5.98255 26.27997,10.87834 27.3423,10.87834 1.75776,-6e-5 17.06891,5.97978 28.2536,11.05663 2.47587,1.12388 7.59539,1.74563 11.30155,1.42664 5.45594,-0.46996 7.04003,-1.82178 8.20265,-7.13339 2.7851,-12.72651 1.98246,-22.42485 -2.18743,-27.46314 -4.08726,-4.937477 -4.17473,-4.890365 -14.40026,-1.07001 -8.93861,3.34 -11.21419,3.30778 -16.7699,0.71332 -5.48862,-2.56334 -6.52821,-4.413296 -7.10903,-13.196592 -0.63105,-9.539226 -0.0577,-10.650923 7.65584,-16.406629 5.95917,-4.446612 13.47159,-6.584902 21.14469,-6.598297 z M 84.2141,80.071407 c 5.604035,5.8e-5 7.834933,3.461992 3.281106,5.171597 -4.775069,1.792743 -4.902607,1.805041 -6.379884,-1.961678 C 80.24242,81.05597 81.317974,80.071407 84.2141,80.071407 z M 71.636718,112.52792 c -2.130669,-0.0346 -7.612652,11.99142 -7.473567,17.47658 0.06005,2.38205 1.803425,0.64756 4.55706,-4.45828 2.495211,-4.62668 4.152566,-10.09198 3.645648,-12.12664 -0.136255,-0.54848 -0.424933,-0.88629 -0.729141,-0.89166 z m 222.383552,19.61654 c 17.3461,-0.14549 38.99089,3.27747 46.84632,7.48997 1.85694,0.9957 -12.46797,1.67 -31.89925,1.4267 -22.78391,-0.28521 -36.16688,0.43532 -37.73232,1.96162 -1.73229,1.68911 8.51466,3.08169 36.09177,5.17165 33.97027,2.57443 38.20494,3.37308 34.45115,6.06332 -3.15743,2.26219 -10.94589,3.00023 -30.07642,2.675 -22.09831,-0.37528 -27.92601,0.26097 -39.00821,4.45834 -22.80436,8.63705 -30.89621,29.16368 -18.59273,46.90146 2.98897,4.30937 4.72998,8.56915 4.01019,9.27329 -0.71921,0.70397 -3.04196,1.07001 -5.28614,1.07001 -5.19954,6e-5 -13.71131,-15.7858 -12.75971,-23.7183 0.49768,-4.15026 -0.48152,-6.06321 -3.28111,-6.59824 -4.22075,-0.80668 -5.37933,2.73268 -1.64055,4.99331 3.56037,2.15266 -1.49356,9.42774 -9.29633,13.37488 -6.39357,3.23498 -7.32444,3.32608 -11.48382,-0.35681 -3.4445,-3.04981 -4.23299,-6.14848 -3.64559,-13.37499 0.72591,-8.93872 0.50692,-9.45159 -5.2862,-9.45159 -7.53061,6e-5 -10.15024,-4.40793 -8.93173,-14.62329 0.73474,-6.15691 2.91644,-9.27336 10.20774,-14.4449 8.84242,-6.27145 9.97882,-6.40944 24.42574,-4.9933 12.63598,1.23865 15.1294,0.94374 15.1294,-1.78334 6e-5,-1.94204 5.95357,-5.86355 14.58254,-9.45164 11.77653,-4.8966 18.116,-5.93734 33.17526,-6.06332 z m 140.72135,3.56667 c 6.31817,-0.0289 10.20867,1.83472 18.41045,5.88498 7.6958,3.80084 25.10725,10.3134 38.64368,14.62329 21.25063,6.76642 25.48027,9.12186 30.98789,16.04988 8.07869,10.16087 11.41424,22.49149 12.75971,48.14982 0.62955,11.99858 2.52945,22.91353 4.557,26.74994 8.26714,15.64059 0.2194,22.89707 -9.4786,8.55997 -5.75421,-8.50703 -6.20587,-10.47021 -6.37989,-35.66654 -0.23844,-34.4459 -3.221,-41.43068 -21.6915,-50.46813 -19.05443,-9.3233 -21.54762,-7.73315 -20.41549,13.37494 1.10546,20.62265 -4.44418,36.34615 -20.59793,58.49307 -11.91874,16.34144 -12.74326,22.54818 -4.37468,32.27822 5.09141,5.91996 5.42073,7.38263 2.73418,9.98656 -2.57783,2.49833 -6.07966,2.55237 -19.3218,0.53521 -13.79191,-2.10128 -17.49772,-1.88512 -25.88402,1.2483 -12.19593,4.55688 -13.66911,4.67183 -12.75972,0.1784 0.99912,-4.93835 14.94847,-11.94824 23.87893,-11.94824 8.5609,0 8.72712,-0.88462 3.09878,-13.73157 -6.80545,-15.53205 -7.93857,-26.84422 -3.46332,-33.52658 3.27816,-4.89522 3.45252,-7.62345 1.45822,-18.36825 -2.65381,-14.2994 -12.33876,-40.6602 -15.31161,-41.55152 -1.08503,-0.32505 -4.19431,5.89624 -6.74443,13.73163 -4.43201,13.62101 -4.44142,14.30564 -0.54676,15.51496 2.24049,0.69566 4.19247,2.44042 4.19247,3.9233 -6e-5,6.18104 -43.94968,41.3226 -55.04904,44.04818 -7.32842,1.79938 -9.50499,0.75633 -10.93694,-5.70669 -0.6072,-2.74313 -1.82375,-6.79708 -2.73424,-8.91667 -0.98906,-2.30128 -0.55079,-3.74489 0.91147,-3.74489 1.34645,5e-5 3.05103,2.32212 3.82786,5.34994 0.77701,3.02788 2.86253,5.52828 4.73939,5.52828 2.63107,-5e-5 3.05842,-1.61705 2.00516,-7.13333 -1.24409,-6.5125 -1.07758,-6.739 1.82276,-3.03157 3.56084,4.55296 8.53377,3.06454 6.5621,-1.96168 -0.7247,-1.84921 0.0756,-3.34231 1.82288,-3.38832 4.57606,-0.12009 28.98274,-23.39089 28.98274,-27.64155 6e-5,-2.02894 1.87669,-6.74511 4.19246,-10.52171 2.31566,-3.77618 4.76687,-10.61645 5.46847,-15.15821 1.249,-8.08724 1.1923,-8.27967 -5.83307,-8.20329 -3.94552,0.0404 -9.84713,1.59639 -12.94198,3.38832 -5.5474,3.212 -5.37275,3.28175 2.73424,1.96162 7.07629,-1.15245 8.33325,-0.70529 9.66093,3.38833 1.91849,5.91407 -4.54967,15.85704 -22.78518,34.77493 -13.2235,13.71812 -21.14464,17.35361 -21.14464,9.80827 6e-5,-2.16617 -1.89892,-7.73216 -4.37484,-12.48333 -2.47587,-4.75116 -4.55701,-9.26504 -4.55701,-9.98662 0,-1.62554 26.90386,-20.9526 31.53477,-22.64823 2.68141,-0.98162 2.58118,-1.2886 -0.54676,-1.42664 -2.16669,-0.0953 -4.01024,-0.93832 -4.01024,-1.96168 0,-5.49122 30.10124,-22.37532 44.84128,-25.14489 10.79174,-2.02779 17.14149,-3.1896 22.0561,-3.20998 z m -208.71248,22.2916 c -2.95577,0.0699 -7.16214,1.34536 -14.03561,3.92324 -4.35273,1.63242 -6.19761,3.80662 -6.19761,7.49003 -6e-5,7.32426 6.22561,6.77208 18.04591,-1.60499 7.36768,-5.22177 8.94657,-7.27369 6.5621,-8.73832 -1.19472,-0.7337 -2.6015,-1.11193 -4.37479,-1.06996 z m 265.76661,16.94155 c 0.31235,-0.052 0.69484,-0.0173 1.09368,0 0.45553,0.0173 0.87648,0.097 1.45828,0.1784 3.92157,0.54849 5.52142,2.58996 6.74443,9.45159 2.02253,11.3486 0.006,36.58661 -4.01019,50.46818 -1.72889,5.9725 -3.09884,17.23444 -3.09884,24.96655 6e-5,7.73222 -1.08848,16.02563 -2.36963,18.36813 -1.48288,2.71103 -4.76861,4.28005 -8.93179,4.28005 -8.54023,-6e-5 -10.35001,-3.2702 -4.19247,-7.48997 l 4.92161,-3.38832 -6.01535,-14.08832 -6.01522,-13.90986 5.46841,-9.80833 c 7.0857,-12.50821 12.57744,-33.59107 12.57744,-48.14976 -6e-5,-8.06922 0.18302,-10.51559 2.36964,-10.87834 z m 181.73478,1.78333 c 2.64267,-0.43359 3.04739,9.43958 2.18731,33.16989 -0.67441,18.6108 -0.39434,32.99155 0.72914,32.99155 3.5643,-6e-5 2.09787,6.84413 -2.73424,12.83996 -4.06284,5.04135 -4.18732,5.98503 -1.09362,6.59824 4.9817,0.98785 4.73015,3.20605 -3.46338,20.50827 -7.01757,14.81729 -11.45339,18.53095 -14.03567,11.94824 -0.72983,-1.86087 -2.76443,-2.70306 -4.73933,-1.96162 -8.36794,3.1415 -14.28641,-1.21868 -19.13959,-13.90997 -5.4892,-14.35292 -3.30328,-19.84403 4.19252,-10.5216 2.65265,3.29912 5.33816,5.47754 6.01528,4.81496 0.67718,-0.66239 2.22824,-6.99603 3.28105,-14.08826 2.05983,-13.87677 18.06497,-65.13761 23.6966,-75.79136 2.20376,-4.17052 3.90193,-6.40119 5.10393,-6.5983 z m -308.2382,6.77665 c -2.35954,5e-5 -2.51629,3.06719 -0.36431,5.17159 2.73348,2.67494 5.14451,1.39501 3.82792,-1.96162 -0.71269,-1.81653 -2.35792,-3.20997 -3.46338,-3.20997 z m -11.30143,6.59829 c -0.27655,-0.002 -0.50057,0.13337 -0.72908,0.35681 -0.74716,0.73018 -0.63128,3.96256 0.18244,7.13327 1.66249,6.48202 5.33932,7.70128 5.2862,1.78339 -0.0404,-4.20048 -2.80542,-9.25765 -4.73933,-9.27335 z m -22.23837,7.66831 c 3.97145,-0.30888 5.09798,0.74392 7.47351,3.56673 4.15828,4.94134 5.38371,15.15821 1.82282,15.15821 -1.15431,0 -2.68031,-2.04464 -3.46338,-4.45833 -1.33155,-4.10309 -2.39094,-3.76233 -14.76474,4.45833 -7.79504,5.17887 -15.90168,8.91667 -19.68647,8.91667 -3.53428,5e-5 -7.49106,0.90858 -8.74946,2.13996 -3.06437,2.99786 -5.2862,0.38394 -5.2862,-6.06332 0,-2.95121 -0.92666,-4.68564 -2.18737,-3.9233 -1.23791,0.74843 -2.36969,3.35599 -2.36969,5.70658 5e-5,2.80617 -1.41891,4.28004 -4.37473,4.28004 -5.3552,0 -5.69295,-2.52258 -1.27596,-10.87828 3.56696,-6.74899 14.9129,-11.3161 41.74245,-16.94161 5.29371,-1.10996 8.73642,-1.77623 11.11922,-1.96168 z m -123.95152,14.97993 c 7.33183,0.37759 20.92582,18.39602 21.32696,29.60322 0.33891,9.45245 -4.54949,12.02041 -10.20774,5.52835 -7.61837,-8.74202 -16.77435,-32.49976 -13.30658,-34.59654 0.6012,-0.36373 1.4293,-0.57389 2.18736,-0.5352 z m 20.78009,3.92336 c 2.89867,-0.0901 8.4784,2.12085 16.58769,6.59824 7.46929,4.12421 14.54864,6.46943 18.4104,6.06332 7.09568,-0.74618 9.80128,4.98505 5.10387,10.52165 -3.87838,4.57219 -22.17417,3.9599 -28.61814,-0.89167 -6.00131,-4.5182 -14.01471,-15.64192 -14.03578,-19.61654 -0.0115,-1.67156 0.81314,-2.62102 2.55196,-2.675 z m 99.16124,2.85334 c 1.15424,0.0935 2.1085,0.62262 3.09872,1.42664 5.18008,4.20609 3.85892,7.61063 -2.91651,7.66825 -3.40454,0.0289 -9.052,0.85126 -12.57738,1.78334 -9.31325,2.46253 -6.91509,-2.90346 3.64559,-8.025 4.18542,-2.02963 6.82566,-3.00969 8.74958,-2.85323 z m 338.67922,4.10164 c -0.37643,-0.0872 -0.95506,0.22055 -1.64061,0.89161 -3.53584,3.45899 -10.70167,32.57943 -12.39511,50.28984 -2.27703,23.80537 2.39077,15.26895 9.11406,-16.9416 5.29267,-25.358 6.55194,-33.8618 4.92166,-34.23985 z m -274.88067,5.35 c 0.91262,-0.0173 1.95394,0.48498 3.09878,1.60493 5.19117,5.07864 0.67989,12.32069 -13.8534,22.1132 -12.39828,8.35352 -31.06999,13.04735 -33.9044,8.56004 -0.70754,-1.11949 1.56798,-4.76023 5.10393,-8.02494 4.51619,-4.17076 6.91267,-5.15134 7.83811,-3.2101 1.05171,2.20723 1.50297,2.19897 2.55191,0 0.72198,-1.51388 3.27793,-2.675 5.65074,-2.675 2.37276,-5e-5 4.37479,-0.92879 4.37479,-2.1399 -1.1e-4,-1.21118 1.48733,-2.31831 3.28105,-2.31831 1.79436,-6e-5 5.94046,-3.54213 9.29633,-7.8466 3.40963,-4.37317 5.04164,-6.03832 6.56216,-6.06332 z m -74.73544,8.38157 c 6.97664,-0.13452 10.34775,0.93884 14.76475,3.56667 15.3701,9.1442 2.60035,18.7056 -22.60286,16.94161 -16.41136,-1.14882 -20.38235,1.53189 -10.02547,6.95492 7.21214,3.7759 15.57449,15.15822 14.03566,19.08157 -0.68001,1.7338 -2.42431,3.02378 -4.01019,2.85341 -23.36958,-2.51213 -31.3425,-4.7331 -55.23136,-15.33668 -12.49909,-5.54786 -14.21793,-7.05521 -14.21793,-12.66162 0,-6.01089 0.56003,-6.2416 10.20774,-6.2416 5.57067,-6e-5 10.20775,0.77388 10.20775,1.78327 6e-5,1.00928 1.89897,1.78333 4.37479,1.78333 4.14719,0 5.73347,2.55428 4.73933,7.66831 -0.21651,1.11343 1.17209,0.67291 3.09872,-0.89166 1.92686,-1.5644 3.46338,-5.63435 3.46338,-9.0949 5e-5,-8.51731 11.68375,-14.21487 32.81071,-15.87165 3.32095,-0.26039 6.0598,-0.49017 8.38498,-0.53521 z m 165.87624,1.24836 c -1.23785,0 -2.18737,1.39333 -2.18737,3.20998 6e-5,1.81676 0.94946,3.38832 2.18737,3.38832 1.23802,0 2.18742,-1.57162 2.18742,-3.38832 0,-1.81659 -0.94946,-3.20998 -2.18742,-3.20998 z m 115.74886,0.89161 c -1.22411,0.27251 -3.43041,1.57918 -5.65074,3.38838 -4.16452,3.39242 -4.65672,4.40169 -1.82289,4.45821 3.85575,0.0774 10.13333,-5.95806 8.20271,-7.84659 -0.15473,-0.15185 -0.32043,-0.0907 -0.72908,0 z M 283.08332,267.4989 c -4.06844,0.19053 -3.96054,3.2874 0.91136,6.06327 5.76962,3.28792 7.77234,2.91477 6.92675,-1.42659 -0.41281,-2.11953 -3.06009,-4.24956 -5.83301,-4.63668 -0.74872,-0.1045 -1.42376,-0.0289 -2.0051,0 z m 78.19882,2.49666 c 1.1942,-0.052 2.67944,0.70911 5.46847,2.49665 7.2525,4.64915 4.56947,8.98272 -7.65584,12.30499 -4.50845,1.22526 -8.67741,2.06422 -9.29633,1.96168 -5.44827,-0.90195 -15.56317,-4.5917 -16.22315,-5.88498 -0.45322,-0.88912 1.50655,-4.03819 4.37479,-6.95499 4.17872,-4.24921 5.10382,-4.53119 5.10382,-1.60504 -6e-5,4.14633 3.52065,4.90849 5.83313,1.2483 1.07434,-1.70037 2.05965,-1.54968 3.46332,0.5352 1.62739,2.41635 2.65843,2.29557 5.28614,-1.06995 1.54546,-1.97934 2.4515,-2.97886 3.64565,-3.03169 z m 296.0253,36.73655 c 4.19425,0 6.03942,3.78601 4.37479,8.91661 -1.67023,5.14677 -9.77421,5.89248 -11.66603,1.06995 -1.51446,-3.86105 2.95681,-9.98656 7.29124,-9.98656 z M 69.449352,332.05529 c 2.551677,-0.0999 6.661403,3.04099 12.759653,8.025 41.363595,33.80579 44.313005,57.56607 10.936886,89.34459 -12.985052,12.36318 -13.444222,13.17991 -12.030569,21.39994 2.234305,12.99215 8.795363,21.96378 20.050948,27.46325 14.36487,7.01902 31.32403,8.36166 46.29957,3.56661 19.2102,-6.15027 26.71599,-10.76991 48.3046,-29.78157 22.09386,-19.45673 42.5317,-32.17862 61.79346,-38.34148 31.65624,-10.12871 89.05632,1.30725 107.18161,21.22159 14.30223,15.71398 19.81932,30.82514 26.97765,74.18632 5.14244,31.15169 12.46815,55.28315 16.7699,55.28315 0.9643,5e-5 2.86535,3.05247 4.19246,6.77658 2.35347,6.60459 6.9267,7.22663 6.9267,0.89167 0,-1.74529 1.13179,-3.20998 2.36969,-3.20998 1.23791,0 2.18742,0.80356 2.18742,1.78333 -5e-5,0.97931 1.54212,3.71216 3.46332,6.06327 3.39635,4.15603 3.35386,4.08495 2.0051,-0.71332 -2.43667,-8.66725 1.45118,-10.68649 7.10897,-3.74496 6.52168,8.00133 9.94435,5.35543 4.55706,-3.56666 -4.51342,-7.47478 -3.29041,-11.05536 2.5519,-6.95493 11.4307,8.02251 13.18465,6.44327 17.31672,-16.22829 3.15807,-17.32837 11.7991,-42.79115 18.22818,-54.03479 1.83755,-3.21471 3.28111,-8.16397 3.28111,-11.05663 5e-5,-4.37479 1.75556,-5.81315 10.20774,-8.02494 12.57779,-3.29104 31.37039,-3.49704 37.36778,-0.3568 3.63167,1.90163 4.13334,3.79697 2.91645,9.45158 -0.82839,3.85199 -2.35619,7.9444 -3.46332,9.09495 -1.10772,1.15061 -2.0051,4.75221 -2.0051,8.02494 -6e-5,4.65412 1.37203,6.54928 6.74443,8.38169 3.77803,1.28842 6.70349,3.43815 6.37982,4.99337 -0.32331,1.55499 0.61754,4.86715 2.0051,7.31156 3.65673,6.44056 5.73908,19.81666 4.01025,25.14489 -1.65857,5.11213 -5.65075,6.24415 -5.65075,1.60499 -5e-5,-5.25803 -13.46818,-21.2216 -17.86358,-21.2216 -2.32576,0 -5.67262,2.38916 -7.65589,5.35006 -2.82604,4.21965 -5.95184,5.53614 -14.218,6.06332 -10.99831,0.70103 -15.59273,4.7458 -7.65572,6.77659 6.94708,1.77715 5.52413,6.77392 -3.28111,11.41331 -4.33275,2.28252 -7.8381,4.79384 -7.8381,5.70658 5e-5,2.69376 12.24765,12.06971 19.86867,15.15827 3.87896,1.57156 7.10903,3.75078 7.10903,4.81496 0,3.79894 -10.01762,1.92929 -24.97261,-4.81496 l -15.12935,-6.95499 -10.75467,10.16502 c -12.85428,12.05078 -23.27438,14.39068 -43.56522,9.98662 -11.57371,-2.51207 -15.21,-4.60359 -27.52457,-16.40663 -14.3748,-13.77689 -22.55049,-26.99352 -31.17011,-50.11143 -2.62107,-7.02779 -5.82285,-12.36804 -7.10902,-11.9483 -1.28721,0.41974 -4.29182,6.51758 -6.56216,13.73163 -2.27137,7.21399 -7.18038,16.49739 -10.93688,20.50821 -3.75644,4.01094 -6.73941,7.9048 -6.74443,8.73832 -0.004,0.83359 -7.672,6.45616 -16.95217,12.48328 -9.28069,6.02706 -16.95217,11.59692 -16.95217,12.30493 0,1.66399 18.20867,5.91748 32.62833,7.6683 6.18976,0.75172 13.38216,1.8174 15.85849,2.31837 2.47593,0.50114 0.39491,-1.05858 -4.557,-3.38832 -4.95174,-2.3298 -10.73106,-4.19015 -12.75971,-4.28005 -2.02923,-0.0895 -6.00928,-2.25451 -8.9318,-4.63661 l -5.28614,-4.27999 6.74437,0 c 15.61831,-0.003 45.86926,14.51452 65.98597,31.74324 l 10.20781,8.91655 24.42573,1.07007 c 15.25037,0.68936 24.6844,0.30889 25.15483,-1.07007 0.4613,-1.3506 2.84947,-1.12642 6.37982,0.71332 6.44524,3.35865 17.08924,1.04138 29.89421,-6.59824 8.75697,-5.22494 17.40442,-5.56668 16.40536,-0.5352 -0.87331,4.39828 -10.06121,9.72369 -25.70169,14.80164 -19.10767,6.20321 -79.52356,3.00236 -86.40152,-4.63662 -4.69465,-5.21403 -28.64216,-22.46995 -31.17011,-22.46995 -1.13981,6e-5 -3.30189,1.47912 -4.92166,3.38832 -2.11791,2.49654 -4.99775,3.12961 -10.39007,2.13997 -9.97669,-1.83097 -13.22633,0.29445 -8.38487,5.52834 2.13847,2.31161 2.98804,5.6269 2.18731,7.66825 -1.66855,4.25354 -7.56155,3.74547 -32.08152,-3.03157 -25.96958,-7.17791 -28.74215,-9.25483 -32.99298,-24.07494 -5.71431,-19.92451 -5.23107,-21.6116 7.29123,-27.81983 6.03567,-2.99203 11.62209,-7.12306 12.39517,-9.09501 2.7119,-6.9129 1.28999,-12.38374 -3.28105,-13.55329 -4.14217,-1.05962 -4.41376,-2.42113 -3.09877,-14.97993 1.3577,-12.9608 0.95205,-14.5954 -7.10903,-29.60316 -7.53448,-14.02816 -8.3661,-17.68195 -8.02032,-29.95991 0.21593,-7.66693 1.45915,-16.51454 2.73424,-19.79495 4.12947,-10.62673 0.32389,-8.3202 -5.83308,3.56666 -5.87429,11.34161 -5.98162,13.81258 -1.82276,28.17653 2.25745,7.7989 -3.08885,3.81573 -6.9267,-5.1716 -3.0288,-7.09217 -2.77765,-9.8103 2.18737,-31.56484 1.56474,-6.8573 1.19587,-7.47172 -3.82792,-6.77665 -5.01935,0.69393 -5.50693,2.21618 -7.65584,20.68656 -2.07975,17.8764 -2.43488,18.91714 -4.01019,11.41326 -2.10792,-10.04077 -6.01534,-8.77013 -6.01534,1.96162 -6e-5,5.09966 -0.89444,7.24407 -2.55191,6.24167 -1.55314,-0.93895 -2.0794,-6.04404 -1.45828,-13.37488 0.64669,-7.62836 0.11258,-11.78491 -1.45823,-11.77001 -2.54509,0.0231 -14.74927,9.28819 -35.54489,26.92822 -15.45371,13.10918 -33.96514,21.46974 -52.49707,23.71825 -17.79112,2.15838 -30.11129,-0.30484 -45.023612,-9.09495 -15.533033,-9.15592 -20.623742,-19.94749 -24.97255,-52.96478 -1.149398,-8.72649 -0.593059,-11.22562 4.192461,-17.47659 11.796336,-15.40988 13.584115,-20.8959 10.572344,-34.06155 -2.944104,-12.87137 -5.255139,-13.85276 -5.650743,-2.4966 -0.658819,18.88972 -0.964644,21.39988 -4.010189,21.39988 -2.395502,-6e-5 -3.635545,-5.11617 -4.739274,-21.39988 -2.274315,-33.53882 -2.86645,-45.64138 2.005095,-45.8315 z m 589.680908,1.24836 c 1.77144,-6e-5 3.56523,3.40033 4.37474,8.20328 0.76528,4.54176 2.84982,10.92349 4.55711,14.08826 1.70661,3.16489 3.87706,12.9298 4.73928,21.93492 1.48126,15.45913 4.02918,24.05646 6.56209,21.57828 1.64806,-1.61209 -2.79052,-30.83824 -6.74436,-44.40486 -6.59097,-22.61718 -6.63681,-21.86523 -0.72915,-21.04325 4.20424,0.58498 5.68325,2.49492 6.74443,8.91666 0.73971,4.4812 3.7759,12.53726 6.74437,18.01156 4.93961,9.10933 5.00976,10.26 1.64055,12.83991 -3.2012,2.4511 -3.27475,4.0562 -0.91141,12.83996 2.96801,11.03377 2.45237,15.15833 -1.82282,15.15833 -2.0801,0 -2.33379,3.62059 -1.09363,13.90992 1.87184,15.52783 -0.21016,22.94909 -4.37479,15.33656 -1.3875,-2.53603 -2.55191,-6.6845 -2.55191,-9.09496 6e-5,-2.41034 -3.05726,-11.67878 -6.74448,-20.68661 -3.68664,-9.00771 -7.32767,-22.09201 -8.02038,-29.06813 -0.69271,-6.97595 -2.68683,-16.30617 -4.557,-20.68662 -3.72596,-8.72296 -2.60814,-17.83321 2.18736,-17.83321 z M 73.459484,344.53856 c -1.407532,0.21363 -1.532761,4.63945 0,10.16497 1.091143,3.93611 2.414497,7.13333 3.098778,7.13333 1.46013,0 -0.348145,-15.14216 -2.005095,-16.76332 -0.455533,-0.44572 -0.769498,-0.58417 -1.093683,-0.53521 z m 15.676218,13.73163 c -0.704777,0.40473 0.821171,3.4751 4.19246,9.62993 5.939767,10.84203 5.544856,21.05624 -1.093683,37.62822 -3.002763,7.49638 -4.559947,13.55323 -3.64559,13.55323 2.334649,6e-5 12.646721,-11.17302 15.676161,-16.94155 5.91425,-11.26234 1.4689,-30.24778 -9.478606,-40.12482 -3.102184,-2.79901 -5.10214,-4.0599 -5.650742,-3.74501 z m -5.103873,4.81497 c -1.684605,0.38683 -1.52566,6.13266 0.911412,15.33662 2.834927,10.7086 1.189177,24.16864 -3.463377,28.71149 -0.928675,0.90668 -1.667631,2.78949 -1.640496,4.10165 0.09122,4.34609 8.81788,-8.56131 11.119158,-16.40663 3.229375,-11.00669 2.821416,-17.59719 -2.005153,-26.39313 -2.12351,-3.86932 -3.910769,-5.58216 -4.921544,-5.35 z m 396.280161,31.92153 c 1.52341,0.0647 3.72781,2.79099 6.01529,8.20334 1.91964,4.54182 5.78497,13.20422 8.56725,19.25986 2.78175,6.05564 5.73266,13.61102 6.56209,16.94161 1.25581,5.04163 0.74086,6.06332 -2.91645,6.06332 -2.41611,0 -4.86496,-1.8577 -5.65074,-4.27993 -1.50666,-4.64292 -3.64045,-5.18395 -11.8483,-3.03175 -4.01359,1.05234 -4.9843,2.76986 -4.557,8.20334 0.61344,7.7947 -3.7942,9.75597 -10.39002,4.81497 -5.6911,-4.2629 -4.03455,-13.17304 2.55191,-14.08821 2.78493,-0.38682 5.10387,-1.45146 5.10387,-2.49677 -5e-5,-1.04507 1.98801,-2.59035 4.55706,-3.38832 6.7927,-2.10913 3.19549,-4.32756 -5.83301,-3.5666 -7.86657,0.66303 -10.8355,-3.10271 -4.37473,-5.52829 1.85683,-0.69721 3.28105,-3.02008 3.28105,-5.1716 0,-2.15157 1.95538,-4.37444 4.37473,-4.99336 3.67451,-0.94011 4.19875,-2.4619 3.09878,-9.09496 -0.88774,-5.35294 -0.0658,-7.91126 1.45822,-7.84665 z m -184.10436,35.13157 c -2.29031,0 -4.89891,11.06338 -4.55706,19.4382 0.20092,4.92807 0.5687,4.65613 3.09884,-2.85334 3.54536,-10.52628 4.14794,-16.58486 1.45822,-16.58486 z m -22.96751,4.63656 c -1.10656,0.26039 -2.62419,2.28523 -4.37479,6.42007 -3.67325,8.67573 -3.67388,29.73041 0,34.06144 1.56665,1.84644 2.95525,3.38832 3.28105,3.38832 0.32563,0 0.47747,-6.34034 0.36489,-13.90992 -0.11374,-7.56958 0.71008,-17.39315 1.64055,-21.93491 1.15378,-5.63342 0.51096,-8.35946 -0.91141,-8.025 z m 37.54999,0.53521 c -2.50809,-0.34411 -5.83296,7.03755 -5.83296,13.19659 0,3.03602 -1.13179,6.20656 -2.36969,6.95493 -1.23797,0.74848 -2.08881,4.98159 -2.0051,9.45164 0.12125,6.47498 0.50461,7.2536 2.0051,3.74507 4.88078,-11.41216 10.34042,-32.20755 8.74958,-33.16995 -0.15762,-0.0947 -0.37933,-0.1553 -0.54676,-0.1784 z m 227.66975,1.96162 c 1.61307,-0.0173 2.73423,3.38058 2.73423,10.16502 -5e-5,18.16248 0.32505,17.86295 -25.51947,18.01161 -12.55666,0.0722 -27.42227,0.94034 -32.99293,1.96162 -5.57073,1.02106 -18.64261,3.5956 -29.16507,5.52829 -17.91901,3.2915 -26.93885,4.14316 -27.34219,2.85335 -0.0947,-0.30254 -0.33949,-1.92831 -0.72914,-3.74496 -4.85428,-22.63669 -4.10061,-24.33041 6.5621,-12.30498 5.61667,6.33514 7.82171,7.5018 13.12425,6.42001 5.25485,-1.07221 6.15177,-2.21901 4.9216,-6.06332 -5.38504,-16.83538 -1.82213,-19.92515 7.83811,-6.77665 4.80272,6.5367 6.76555,7.61375 13.48891,7.13328 6.66729,-0.4769 8.23608,-1.70152 10.20774,-7.66831 3.42291,-10.36023 5.3627,-11.04474 8.38492,-3.20998 2.29083,5.93671 3.89559,6.95499 10.20775,6.95499 7.54631,-6e-5 8.07211,-0.64912 10.57234,-11.76995 1.79269,-7.97529 5.54775,-6.62653 8.74952,3.03163 3.69559,11.14624 9.20996,10.98995 12.94204,-0.35681 2.23818,-6.80631 4.40227,-10.1492 6.01529,-10.16502 z m -211.62893,2.675 c -2.84047,0.0462 -8.38498,10.88394 -8.38498,16.94166 -6e-5,6.31297 2.93914,3.30033 7.47351,-7.49002 1.90359,-4.52964 2.57321,-8.77787 1.45828,-9.45164 -0.16224,-0.0981 -0.35796,-0.003 -0.54676,0 z m 12.39511,9.98667 c -1.83137,0.0173 -11.8483,13.57297 -11.8483,16.04994 0,3.54854 4.61733,1.11268 8.93179,-4.81496 4.74897,-6.52521 5.94542,-11.26182 2.91651,-11.23498 z m -60.51751,3.03163 c -0.31696,-0.0289 -0.64259,0.27194 -1.09362,0.71333 -1.47024,1.43842 -1.81965,5.2254 -0.91147,9.27329 2.12183,9.44957 3.46338,8.45507 3.46338,-2.49665 -6e-5,-5.04908 -0.5075,-7.39678 -1.45829,-7.48997 z m -64.16309,12.30499 c 0.47574,-0.0826 1.02602,0.11201 1.64055,0.71332 0.7281,0.71246 0.71927,3.13573 0.18245,5.34994 -0.93249,3.84703 -0.87833,3.77273 -2.55191,0 -1.32439,-2.98423 -0.69941,-5.81569 0.72914,-6.06326 z m 138.35178,0 c -4.06689,6e-5 -14.218,8.27851 -14.218,11.59161 6e-5,2.28522 0.56754,2.03898 10.57235,-3.92336 8.04486,-4.79389 9.47566,-7.66825 3.64565,-7.66825 z m -146.37216,5.1716 c 2.63822,-0.32852 1.62,10.54203 -1.64055,13.73163 -3.79634,3.71441 -5.83296,4.03253 -5.83296,0.8916 0,-1.24899 1.50672,-2.83198 3.46332,-3.5666 2.1339,-0.8012 3.20911,-2.89203 2.55197,-5.35 -0.60253,-2.254 -0.21074,-4.67173 0.91141,-5.34994 0.21015,-0.12702 0.37124,-0.33487 0.54675,-0.35681 z m 260.48041,4.27998 c 0.94646,0.006 1.79003,0.32448 2.55196,1.07002 2.03154,1.98771 0.62441,4.69614 -6.37988,11.05662 -5.02316,4.56116 -12.99389,15.47253 -17.4991,24.25323 -7.97511,15.54758 -12.57732,19.88981 -12.57732,11.9483 0,-2.15371 3.68756,-11.12805 8.02032,-19.97324 4.33281,-8.84525 7.83816,-16.58024 7.83816,-17.29835 -1.1e-4,-2.86946 -11.25033,9.25401 -12.57744,13.55328 -3.19069,10.33782 -10.73105,25.50158 -12.57743,25.50158 -2.85878,0 -2.37184,-10.75669 0.91141,-19.97324 1.55539,-4.3678 5.76153,-11.69449 9.29633,-16.22822 5.53914,-7.10475 7.43719,-8.06801 13.12425,-6.95493 4.74903,0.92896 8.34815,-0.11259 13.12425,-3.56673 3.18077,-2.30075 5.16744,-3.39923 6.74449,-3.38832 z m 43.56527,10.52166 c -7.50185,0 -26.35289,10.39538 -25.15482,13.90997 0.48267,1.41729 4.74187,3.19906 9.29633,3.9233 4.55447,0.72412 8.97931,2.00821 9.84321,2.85334 3.89068,3.80633 10.51553,-0.18013 12.39511,-7.31173 2.59677,-9.85441 0.95367,-13.37488 -6.37983,-13.37488 z m -314.4357,0.1784 c 0.64347,0.0987 1.25309,0.86592 1.82277,2.31831 0.7042,1.79534 0.35969,5.50248 -0.72914,8.38157 l -2.0051,5.35 -1.64049,-6.24166 c -1.30113,-5.07074 0.62083,-10.10435 2.55196,-9.80822 z m 269.4122,6.41989 c 0.093,-0.0346 0.12125,-0.0289 0.18245,0 3.3658,1.6465 2.1488,6.64264 -6.01534,23.36162 -4.35926,8.92763 -8.97793,15.45168 -11.30149,15.87159 -2.16664,0.39203 -4.05892,-0.25115 -4.01019,-1.24835 0.22863,-4.73148 18.24544,-36.84291 21.14475,-37.98486 z m 36.27398,2.14003 c 2.0137,-6e-5 2.61253,1.37629 1.82283,3.38832 -0.712,1.8167 -2.17496,3.20997 -3.28105,3.20997 -1.10489,-1.1e-4 -2.0051,-1.39327 -2.0051,-3.20997 0,-1.81665 1.64581,-3.38832 3.46332,-3.38832 z m -76.19366,37.98485 c 0.61061,-0.0941 1.51071,0.14261 2.55191,0.53521 2.16664,0.8173 8.18804,2.53274 13.48885,3.9233 6.60921,1.73391 9.38392,3.5856 8.93179,5.88509 -0.97255,4.94048 -6.19421,4.98823 -16.95217,0.1784 -5.64278,-2.52281 -9.47861,-5.6956 -9.47861,-7.84665 -5e-5,-1.60672 0.43995,-2.51808 1.45823,-2.67495 z m -201.78573,1.78333 c 0.83128,0.0577 1.98148,0.86858 3.64559,2.49672 3.26835,3.1964 3.3751,4.70284 0.91141,10.52153 -3.84674,9.08479 -9.1584,8.72066 -9.11412,-0.5352 0.0173,-3.93618 1.01326,-8.52667 2.18743,-10.34331 0.93698,-1.44991 1.53847,-2.19695 2.36969,-2.13997 z m 211.99347,14.08826 c 2.71582,-0.10565 6.98559,1.2994 9.66094,3.74501 1.35043,1.23456 1.35043,2.68788 0,3.9233 -2.87488,2.62997 -12.39511,-1.90896 -12.39511,-5.88497 0,-1.22746 1.10442,-1.72 2.73417,-1.78334 z m 245.35101,5.52835 c 3.26881,0 1.88951,28.9765 -2.36964,50.28978 -2.24689,11.24698 -3.19034,20.79371 -2.18736,21.39994 1.00234,0.60599 4.31936,-2.7791 7.4735,-7.66837 3.15531,-4.88933 6.84558,-8.91661 8.20266,-8.91661 3.85788,0 0.45149,10.13737 -10.57229,31.38656 -5.48204,10.5664 -10.02548,19.59536 -10.02548,20.15152 -1.1e-4,0.556 2.79353,1.39992 6.19756,1.78334 l 6.19755,0.71332 -10.93688,11.41332 c -11.79472,12.39661 -13.66246,13.51506 -15.67616,8.38163 -0.71275,-1.81671 -3.97595,-3.38832 -7.10903,-3.38832 -4.77662,5e-5 -5.65074,-0.9296 -5.65074,-6.24161 -6e-5,-3.48509 -1.51446,-7.48257 -3.28105,-8.91667 -4.10389,-3.33231 -6.92496,-29.18273 -3.82786,-34.59647 2.02923,-3.54802 2.60225,-3.09606 6.19756,4.27993 5.03031,10.32056 6.44593,7.6839 8.74952,-16.40657 1.59973,-16.72573 4.04344,-24.04197 6.92669,-21.22159 3.46887,3.39392 3.46719,21.99628 0,43.33479 -3.35922,20.66964 -3.46834,27.1109 -0.18244,23.89659 0.64288,-0.62885 3.71886,-17.54944 6.74443,-37.62822 3.02614,-20.07854 6.00639,-38.74275 6.56215,-41.55146 3.92324,-19.82278 6.94304,-30.49483 8.56719,-30.49483 z m -445.31391,6.59824 c 4.95561,0 14.94708,8.83791 14.94708,13.19665 0,8.65062 -9.61359,7.26087 -14.58248,-2.14002 -4.14269,-7.83725 -4.32289,-11.05663 -0.36489,-11.05663 z m 40.83104,24.25322 c -3.51476,-6e-5 -4.41342,2.63793 -1.82283,5.17171 2.5895,2.5339 5.28621,1.65534 5.28621,-1.78339 -6e-5,-1.81664 -1.60638,-3.38832 -3.46338,-3.38832 z m 32.81071,8.91667 c -3.0389,5e-5 -5.1235,3.97041 -3.46331,6.59829 0.77752,1.2311 2.31126,1.58836 3.46331,0.89167 2.73413,-1.6532 2.73915,-7.48996 0,-7.48996 z m -146.37209,48.3281 c 6.69898,-0.61292 26.15122,7.35625 42.28926,18.01167 8.49612,5.60964 11.01679,6.34727 14.40026,4.27993 5.24325,-3.20356 7.14835,-1.95723 10.75462,6.95499 5.30369,13.1104 15.4701,20.72657 12.5775,9.45164 -2.16895,-8.45611 2.29769,-8.63243 8.74952,-0.3568 7.12946,9.14483 8.55483,20.71721 2.9165,24.25322 -4.57276,2.86818 -1.9417,4.42485 -35.18041,-21.57822 -23.59232,-18.45676 -35.93524,-26.54654 -37.73226,-24.7882 -0.99524,0.9733 32.67729,25.67986 34.99808,25.67986 0.93532,1.2e-4 4.82669,3.45074 8.74947,7.66831 3.92277,4.2174 9.6749,9.25754 12.75971,11.23498 4.11729,2.63891 5.65074,5.50236 5.65074,10.87828 -6e-5,4.02826 -1.07244,7.95393 -2.36958,8.73832 -1.29731,0.78434 -2.07888,3.1594 -1.82288,5.17166 0.25519,2.01213 -0.31986,6.45413 -1.27595,9.80827 -1.66025,5.82378 -2.23073,5.93232 -12.2129,4.63668 -8.81182,-1.14363 -11.16402,-0.50403 -14.76481,3.38832 -3.38127,3.65534 -7.01595,4.45827 -17.13444,4.45827 -7.0297,6e-5 -13.26322,-0.31466 -13.85339,-0.89161 -0.59017,-0.57741 -6.89015,-1.31261 -14.03572,-1.60504 -9.78438,-0.40069 -13.51241,-1.50291 -15.12935,-4.45828 -1.88183,-3.44051 -1.09103,-3.89685 6.37983,-3.92341 11.59039,-0.0404 18.77505,-2.15296 18.77505,-5.52823 -6e-5,-3.54242 5.59456,-5.83347 10.20774,-4.1017 2.31629,0.86938 3.94859,-0.25404 4.73928,-3.20998 0.99738,-3.7319 3.07458,-4.38783 12.39516,-4.45833 11.88358,-0.0901 26.61311,-3.98657 26.61311,-6.95498 -6e-5,-0.9796 -4.63708,-2.39279 -10.20775,-3.20998 -9.97617,-1.46377 -12.48627,-4.54811 -7.65583,-9.27324 1.70221,-1.66567 -1.65441,-3.92763 -11.66597,-7.8466 -15.34569,-6.00656 -18.48823,-9.25643 -10.75468,-11.23503 4.57051,-1.16926 4.14212,-1.99793 -6.56209,-11.41326 -12.51959,-11.01229 -13.77736,-13.60017 -7.65584,-14.80164 2.83111,-0.55542 1.22503,-2.2544 -5.65075,-6.06332 -5.2616,-2.91437 -9.66093,-6.14513 -9.66093,-7.13322 -6e-5,-1.11729 0.82366,-1.64194 2.3697,-1.78339 z m 402.47771,30.85158 c 2.26641,6e-5 9.03947,2.55508 15.12941,5.70657 6.08988,3.15138 15.09921,7.7119 20.05095,10.16502 4.95174,2.45307 9.76445,5.82771 10.75467,7.48997 2.48534,4.17381 9.94314,3.85586 11.66597,-0.53521 1.19033,-3.03642 3.71124,-3.42793 15.85855,-2.31837 9.39535,0.85847 18.67724,0.23903 26.6131,-1.78333 6.72162,-1.71301 15.88493,-2.50249 20.41549,-1.78333 l 8.38498,1.24841 -4.73933,4.45827 c -2.68314,2.44533 -11.85956,5.66356 -20.96242,7.48997 -12.49788,2.50733 -17.54644,4.83182 -22.23826,9.80827 -3.6662,3.88877 -8.36217,6.24161 -11.84835,6.24161 -3.86112,-6e-5 -11.26315,4.72334 -22.23838,14.08832 -14.95614,12.76115 -23.80462,19.08157 -27.15991,19.08157 -3.51875,-6e-5 -0.51269,-6.2781 5.46847,-11.41326 6.52867,-5.60473 8.71904,-10.69994 4.73927,-10.69994 -1.06337,-6e-5 -12.94821,4.01636 -26.43089,8.91655 -29.04723,10.55681 -40.97976,13.46062 -42.83613,10.52171 -0.73307,-1.16025 0.39145,-3.7464 2.36969,-5.88504 3.69617,-3.99593 5.06398,-15.69325 1.82283,-15.69325 -6.00195,6e-5 -30.32596,9.90475 -32.81072,13.375 -1.63403,2.28292 -6.89436,5.71766 -11.66603,7.66831 -6.08162,2.48592 -18.09163,3.80996 -40.28428,4.45827 -26.73695,0.7807 -32.90148,0.35566 -39.55503,-2.85334 l -7.83816,-3.74495 10.2078,-0.71332 c 29.33204,-1.92115 65.25683,-10.08795 65.25683,-14.80164 -5e-5,-1.29749 -10.27662,-4.10298 -22.78524,-6.41996 -22.40142,-4.14933 -22.59483,-4.44274 -17.49904,-8.20334 7.19823,-5.31172 32.48821,-7.21682 57.05418,-4.27993 20.32456,2.42985 47.19274,1.97986 50.12749,-0.89172 2.62333,-2.56629 -8.43452,-9.24062 -28.07144,-16.94155 -30.58161,-11.9931 -20.92876,-18.19447 11.66602,-7.49002 15.51751,5.09625 32.41327,8.53382 54.68455,11.41326 15.03651,1.94424 11.75552,-4.10205 -7.83822,-14.62324 -9.87623,-5.30364 -12.70261,-11.05657 -5.46842,-11.05657 z m -264.12599,28.71156 c 1.62583,-6e-5 -2.20533,10.15786 -4.37474,11.5916 -4.36439,2.88418 -12.57749,1.83045 -12.57749,-1.60504 5e-5,-2.48211 12.72022,-9.98656 16.95223,-9.98656 z m 48.48687,0.3568 c 1.83079,0.12586 2.18742,1.27341 2.18742,3.74507 0,3.74299 1.07619,4.32895 6.19756,3.38832 31.36081,-5.76136 41.01337,-6.74564 41.01337,-4.27999 -6e-5,2.99878 -16.68451,10.69827 -31.53477,14.62324 -12.70746,3.35865 -12.38027,3.22441 -8.02032,7.48996 6.51603,6.37458 3.80823,7.66831 -15.49394,7.66831 -11.32828,6e-5 -19.50789,0.88174 -20.41561,2.31837 -1.6551,2.62015 -6.3953,1.94626 -20.05095,-3.03169 -9.85307,-3.59149 -21.50923,-1.22647 -21.50923,4.27999 6e-5,1.69829 -1.80972,3.03163 -4.01019,3.03163 -4.47022,-6e-5 -14.03566,-5.80276 -14.03566,-8.55992 0,-0.98011 6.37087,-4.04234 14.03566,-6.77664 12.48859,-4.45504 16.212,-4.92934 37.00318,-3.56666 14.2479,0.93364 23.33205,0.75009 23.33205,-0.53521 6e-5,-2.72211 -7.94105,-4.59904 -18.77499,-4.63662 -17.62762,-0.0612 -3.25905,-8.27413 24.97255,-14.26661 2.39769,-0.50865 4.00505,-0.96718 5.10387,-0.89172 z m -93.51043,13.01831 c 2.40826,-0.21131 5.26969,0.49075 7.83811,2.14002 3.0012,1.9275 3.0012,2.35249 0,4.28005 -4.38051,2.81327 -10.62858,2.79653 -12.39511,0 -2.20048,-3.48359 0.54213,-6.06788 4.557,-6.42007 z m -48.12234,17.47664 c -1.2379,0 -2.88036,0.92885 -3.64564,2.13996 -0.76465,1.21124 -0.32679,2.14003 0.91141,2.14003 1.23796,-6e-5 2.88042,-0.92885 3.64565,-2.14003 0.76528,-1.21106 0.32678,-2.13996 -0.91142,-2.13996 z"
     id="path9071" />
</svg>
