<?xml version="1.0" encoding="UTF-8" standalone="no"?>
<!-- Created with Inkscape (http://www.inkscape.org/) -->

<svg
   xmlns:dc="http://purl.org/dc/elements/1.1/"
   xmlns:cc="http://creativecommons.org/ns#"
   xmlns:rdf="http://www.w3.org/1999/02/22-rdf-syntax-ns#"
   xmlns:svg="http://www.w3.org/2000/svg"
   xmlns="http://www.w3.org/2000/svg"
   xmlns:sodipodi="http://sodipodi.sourceforge.net/DTD/sodipodi-0.dtd"
   xmlns:inkscape="http://www.inkscape.org/namespaces/inkscape"
   width="1000"
   height="1000"
   id="svg2"
   version="1.1"
   inkscape:version="0.47 r22583"
   sodipodi:docname="V.svg">
  <defs
     id="defs4">
    <inkscape:perspective
       sodipodi:type="inkscape:persp3d"
       inkscape:vp_x="0 : 526.18109 : 1"
       inkscape:vp_y="0 : 1000 : 0"
       inkscape:vp_z="744.09448 : 526.18109 : 1"
       inkscape:persp3d-origin="372.04724 : 350.78739 : 1"
       id="perspective10" />
    <inkscape:perspective
       id="perspective2940"
       inkscape:persp3d-origin="0.5 : 0.33333333 : 1"
       inkscape:vp_z="1 : 0.5 : 1"
       inkscape:vp_y="0 : 1000 : 0"
       inkscape:vp_x="0 : 0.5 : 1"
       sodipodi:type="inkscape:persp3d" />
    <inkscape:perspective
       id="perspective2953"
       inkscape:persp3d-origin="0.5 : 0.33333333 : 1"
       inkscape:vp_z="1 : 0.5 : 1"
       inkscape:vp_y="0 : 1000 : 0"
       inkscape:vp_x="0 : 0.5 : 1"
       sodipodi:type="inkscape:persp3d" />
    <inkscape:perspective
       id="perspective2966"
       inkscape:persp3d-origin="0.5 : 0.33333333 : 1"
       inkscape:vp_z="1 : 0.5 : 1"
       inkscape:vp_y="0 : 1000 : 0"
       inkscape:vp_x="0 : 0.5 : 1"
       sodipodi:type="inkscape:persp3d" />
    <inkscape:perspective
       id="perspective2979"
       inkscape:persp3d-origin="0.5 : 0.33333333 : 1"
       inkscape:vp_z="1 : 0.5 : 1"
       inkscape:vp_y="0 : 1000 : 0"
       inkscape:vp_x="0 : 0.5 : 1"
       sodipodi:type="inkscape:persp3d" />
    <inkscape:perspective
       id="perspective2992"
       inkscape:persp3d-origin="0.5 : 0.33333333 : 1"
       inkscape:vp_z="1 : 0.5 : 1"
       inkscape:vp_y="0 : 1000 : 0"
       inkscape:vp_x="0 : 0.5 : 1"
       sodipodi:type="inkscape:persp3d" />
    <inkscape:perspective
       id="perspective3005"
       inkscape:persp3d-origin="0.5 : 0.33333333 : 1"
       inkscape:vp_z="1 : 0.5 : 1"
       inkscape:vp_y="0 : 1000 : 0"
       inkscape:vp_x="0 : 0.5 : 1"
       sodipodi:type="inkscape:persp3d" />
    <inkscape:perspective
       id="perspective3018"
       inkscape:persp3d-origin="0.5 : 0.33333333 : 1"
       inkscape:vp_z="1 : 0.5 : 1"
       inkscape:vp_y="0 : 1000 : 0"
       inkscape:vp_x="0 : 0.5 : 1"
       sodipodi:type="inkscape:persp3d" />
    <inkscape:perspective
       id="perspective3031"
       inkscape:persp3d-origin="0.5 : 0.33333333 : 1"
       inkscape:vp_z="1 : 0.5 : 1"
       inkscape:vp_y="0 : 1000 : 0"
       inkscape:vp_x="0 : 0.5 : 1"
       sodipodi:type="inkscape:persp3d" />
    <inkscape:perspective
       id="perspective3044"
       inkscape:persp3d-origin="0.5 : 0.33333333 : 1"
       inkscape:vp_z="1 : 0.5 : 1"
       inkscape:vp_y="0 : 1000 : 0"
       inkscape:vp_x="0 : 0.5 : 1"
       sodipodi:type="inkscape:persp3d" />
    <inkscape:perspective
       id="perspective3057"
       inkscape:persp3d-origin="0.5 : 0.33333333 : 1"
       inkscape:vp_z="1 : 0.5 : 1"
       inkscape:vp_y="0 : 1000 : 0"
       inkscape:vp_x="0 : 0.5 : 1"
       sodipodi:type="inkscape:persp3d" />
    <inkscape:perspective
       id="perspective3070"
       inkscape:persp3d-origin="0.5 : 0.33333333 : 1"
       inkscape:vp_z="1 : 0.5 : 1"
       inkscape:vp_y="0 : 1000 : 0"
       inkscape:vp_x="0 : 0.5 : 1"
       sodipodi:type="inkscape:persp3d" />
    <inkscape:perspective
       id="perspective3083"
       inkscape:persp3d-origin="0.5 : 0.33333333 : 1"
       inkscape:vp_z="1 : 0.5 : 1"
       inkscape:vp_y="0 : 1000 : 0"
       inkscape:vp_x="0 : 0.5 : 1"
       sodipodi:type="inkscape:persp3d" />
    <inkscape:perspective
       id="perspective3096"
       inkscape:persp3d-origin="0.5 : 0.33333333 : 1"
       inkscape:vp_z="1 : 0.5 : 1"
       inkscape:vp_y="0 : 1000 : 0"
       inkscape:vp_x="0 : 0.5 : 1"
       sodipodi:type="inkscape:persp3d" />
    <inkscape:perspective
       id="perspective3109"
       inkscape:persp3d-origin="0.5 : 0.33333333 : 1"
       inkscape:vp_z="1 : 0.5 : 1"
       inkscape:vp_y="0 : 1000 : 0"
       inkscape:vp_x="0 : 0.5 : 1"
       sodipodi:type="inkscape:persp3d" />
    <inkscape:perspective
       id="perspective3122"
       inkscape:persp3d-origin="0.5 : 0.33333333 : 1"
       inkscape:vp_z="1 : 0.5 : 1"
       inkscape:vp_y="0 : 1000 : 0"
       inkscape:vp_x="0 : 0.5 : 1"
       sodipodi:type="inkscape:persp3d" />
    <inkscape:perspective
       id="perspective3135"
       inkscape:persp3d-origin="0.5 : 0.33333333 : 1"
       inkscape:vp_z="1 : 0.5 : 1"
       inkscape:vp_y="0 : 1000 : 0"
       inkscape:vp_x="0 : 0.5 : 1"
       sodipodi:type="inkscape:persp3d" />
    <inkscape:perspective
       id="perspective3148"
       inkscape:persp3d-origin="0.5 : 0.33333333 : 1"
       inkscape:vp_z="1 : 0.5 : 1"
       inkscape:vp_y="0 : 1000 : 0"
       inkscape:vp_x="0 : 0.5 : 1"
       sodipodi:type="inkscape:persp3d" />
    <inkscape:perspective
       id="perspective3161"
       inkscape:persp3d-origin="0.5 : 0.33333333 : 1"
       inkscape:vp_z="1 : 0.5 : 1"
       inkscape:vp_y="0 : 1000 : 0"
       inkscape:vp_x="0 : 0.5 : 1"
       sodipodi:type="inkscape:persp3d" />
    <inkscape:perspective
       id="perspective3174"
       inkscape:persp3d-origin="0.5 : 0.33333333 : 1"
       inkscape:vp_z="1 : 0.5 : 1"
       inkscape:vp_y="0 : 1000 : 0"
       inkscape:vp_x="0 : 0.5 : 1"
       sodipodi:type="inkscape:persp3d" />
  </defs>
  <sodipodi:namedview
     id="base"
     pagecolor="#ffffff"
     bordercolor="#666666"
     borderopacity="1.0"
     inkscape:pageopacity="0.0"
     inkscape:pageshadow="2"
     inkscape:zoom="0.532"
     inkscape:cx="500"
     inkscape:cy="500"
     inkscape:document-units="px"
     inkscape:current-layer="svg2"
     showgrid="false"
     showborder="true"
     inkscape:showpageshadow="false"
     showguides="true"
     inkscape:guide-bbox="true"
     inkscape:window-width="1280"
     inkscape:window-height="750"
     inkscape:window-x="0"
     inkscape:window-y="26"
     inkscape:window-maximized="1">
    <sodipodi:guide
       orientation="0,1"
       position="0,200"
       id="guide2818" />
  </sodipodi:namedview>
  <metadata
     id="metadata7">
    <rdf:RDF>
      <cc:Work
         rdf:about="">
        <dc:format>image/svg+xml</dc:format>
        <dc:type
           rdf:resource="http://purl.org/dc/dcmitype/StillImage" />
        <dc:title></dc:title>
      </cc:Work>
    </rdf:RDF>
  </metadata>
  <g
     inkscape:label="Layer 1"
     inkscape:groupmode="layer"
     id="layer1" />
  <path
     style="fill:#800000"
     d="M 0,0 0,6.2584664 0,793.74153 0,800 l 6.1678794,0 724.8115706,0 6.1673,0 0,-6.25847 0,-787.4830636 0,-6.2584664 -6.1673,0 L 6.1678794,0 0,0 z m 296.40982,12.516817 428.57784,0 0,774.966423 -336.06022,0 c -8.76078,-0.11027 -17.98056,-0.25923 -25.90475,-0.35738 -59.24236,-0.73497 -112.61533,-1.54264 -118.59903,-1.78818 -11.52747,-0.47286 -79.88221,0.78808 -136.22163,2.14579 l -91.108292,0 c -4.807054,-7.6119 -4.174851,-31.35087 -4.229122,-100.13413 0,-23.235 -0.317545,-55.27922 -0.70495,-88.86902 l 0,-582.9235 C 15.682106,14.552512 132.29619,13.358196 296.40982,12.517048 z M 701.37328,24.139543 391.39447,24.85477 C 218.45482,25.265269 63.776324,25.442863 47.757042,25.212153 L 18.680309,24.67579 19.913538,244.79207 c 1.92721,306.56855 4.084207,529.22218 4.934073,530.17424 0.398375,0.44225 113.018319,0.72983 250.414869,0.71528 137.39769,-0.0173 263.15939,0.63867 279.31608,1.43051 16.15669,0.79202 59.64939,1.43548 96.74731,1.43046 l 67.49391,0 -0.53116,-82.78948 c -0.72458,-109.82382 -2.97973,-286.58798 -3.87694,-305.94541 -0.32332,-6.95222 -1.35736,-53.97752 -2.46704,-108.0018 l 0,-257.666442 -6.16788,0 -4.40579,0 z m -255.17284,9.119316 c 5.73775,5.8e-5 4.74643,5.750626 -1.93818,11.086306 -6.30125,5.029105 -14.0736,16.654141 -12.33576,18.417497 1.51209,1.534205 47.73799,-10.374889 62.55926,-16.093009 12.97142,-5.00376 34.54543,-1.051017 30.13445,5.543124 -0.87527,1.308516 -6.06858,3.348541 -11.45472,4.470283 -7.65919,1.595289 -9.86468,3.180069 -10.397,6.973636 -0.5254,3.75344 1.30944,5.779724 8.10663,9.298123 l 8.81101,4.64909 23.43771,-9.298123 c 12.89753,-5.029163 28.37987,-10.995315 34.36415,-13.410793 13.47026,-5.43741 23.94578,-7.219069 25.72865,-4.291535 2.38332,3.912675 -0.8539,8.683356 -6.87282,10.013466 -3.21529,0.710608 -7.36878,2.304164 -9.16378,3.576192 -2.79786,1.982289 -2.46472,3.048432 1.93818,6.794829 6.94327,5.907492 13.17985,5.530364 35.42129,-2.145739 16.85875,-5.818233 20.22242,-6.460771 31.19158,-4.64909 9.08525,1.500314 14.96388,4.139575 22.02839,10.013408 10.31213,8.574408 14.78894,15.326282 12.68794,18.775168 -2.30653,3.787735 -5.07841,2.450755 -15.50774,-7.688863 -13.87788,-13.4922 -20.06943,-14.37867 -48.81418,-6.973635 -20.10869,5.180256 -24.48792,5.648549 -34.01138,3.57625 -8.21345,-1.787375 -11.39179,-3.804825 -13.21681,-7.867669 -2.63389,-5.866097 -5.84225,-6.53935 -14.45003,-3.218637 -6.38208,2.462129 -7.40226,9.593959 -2.29094,16.450623 1.75689,2.357223 3.34808,7.05435 3.34808,10.549885 0,5.262814 -0.85449,6.306154 -4.75798,5.721874 -2.92834,-0.43821 -5.75969,-3.21552 -7.22502,-7.331192 -5.45946,-15.329689 -7.23194,-17.003151 -17.09374,-15.377725 -4.99642,0.823366 -9.96571,2.307918 -11.10252,3.397386 -3.21067,3.076665 -7.11359,2.558374 -19.56078,-3.218637 -9.55695,-4.435411 -11.89755,-6.538656 -13.04071,-12.337895 -1.35332,-6.86694 -1.47629,-7.092166 -10.57367,-5.543124 -15.18905,2.586087 -19.67163,5.102083 -17.79811,9.47693 0.9024,2.108326 1.82213,6.262277 1.93818,9.298181 0.17898,4.683385 -0.74652,5.543124 -6.16788,5.543124 -5.37691,-5.8e-5 -6.74639,-1.137216 -8.28273,-7.152443 -1.28,-5.012361 -3.38272,-7.604453 -7.22502,-8.582896 -6.57664,-1.674848 -21.62366,3.742702 -33.13034,11.980282 -8.04601,5.759978 -9.03098,5.926892 -44.0562,6.437215 -48.0105,0.699523 -58.21697,1.897938 -59.91613,7.331249 -0.73497,2.34839 -2.00284,4.409145 -2.8198,4.470225 -0.81638,0.0612 -5.66269,0.44803 -10.74918,0.89409 -10.88718,0.95552 -12.57883,-3.21696 -3.70085,-9.119314 4.66445,-3.101376 5.09342,-4.130741 2.64313,-6.616022 -9.18167,-9.316252 -78.63916,-17.217985 -83.35384,-9.477045 -0.5889,0.967127 1.39373,5.510099 4.40522,10.013465 6.92363,10.351565 7.00966,14.126076 0.17898,14.126076 -4.35326,6e-5 -5.82378,-1.62947 -7.92997,-8.761758 -3.08307,-10.440015 -7.43113,-12.301984 -33.83529,-14.483634 -15.78141,-1.304013 -17.93552,-1.082193 -19.91296,2.503294 -2.09984,3.80777 -2.45376,3.930515 -6.34397,0.357383 -3.02188,-2.774824 -9.97496,-4.305045 -25.90533,-5.364317 L 98.512287,74.563906 84.062256,90.478109 C 71.076973,104.70851 65.02976,109.1564 65.02976,104.42538 c 0,-2.47425 10.500349,-18.190654 16.741552,-25.033519 6.751008,-7.402379 5.25335,-10.108325 -7.049499,-11.98034 -10.546537,-1.604757 -11.268231,-2.483202 -6.872253,-8.582953 2.768416,-3.841833 3.732598,-3.742817 22.379998,2.861023 15.444812,5.469511 23.153652,6.973635 36.655092,6.973635 l 16.91764,0 -1.2338,-10.013465 c -0.73844,-5.464719 -0.54849,-9.834659 0.53116,-9.834601 5.6575,0 8.81101,3.187055 8.81101,8.940625 0,3.769606 1.60216,7.199843 3.87694,8.404032 7.90918,4.186109 36.02866,5.016461 53.39606,1.609318 10.90392,-2.139157 22.09825,-2.845146 31.36826,-1.966932 l 14.45003,1.251705 -1.4099,-6.973636 c -1.27191,-6.453958 -1.06291,-7.073171 3.34865,-6.437215 3.24416,0.467657 5.58822,2.918874 6.87283,7.331307 1.74131,5.98047 3.30363,6.935819 17.09374,10.371021 8.40455,2.09343 17.51001,5.766502 20.08963,8.225283 5.19908,4.956012 18.35468,6.227231 18.85583,1.788067 0.1732,-1.517981 0.12702,-9.680678 -0.17321,-18.059826 -0.49075,-13.534982 -0.27713,-15.043437 2.9959,-13.768464 2.02709,0.789359 4.54031,1.430454 5.63902,1.430511 1.0987,5.8e-5 2.11485,3.407894 2.11485,7.509998 0,4.102047 1.44165,10.81749 3.17198,15.020169 l 3.17199,7.688805 28.90064,-0.894034 c 37.81384,-1.198299 40.67579,-2.30376 50.75294,-17.881076 9.56388,-14.784436 24.24369,-29.146247 29.78168,-29.14619 z M 125.11967,83.862375 c 2.67027,-0.05196 5.36305,0.473431 8.10606,1.430454 11.3635,3.963771 15.72945,8.64017 17.27041,18.417501 1.30309,8.26766 -3.11078,26.67961 -7.93054,32.90124 -1.43184,1.84852 -1.37064,3.61574 0,5.00671 2.87407,2.91598 64.51534,2.90195 88.81735,0 10.77113,-1.28612 31.95311,-3.74011 47.05209,-5.54319 27.26269,-3.25541 65.69949,-10.73354 98.5094,-19.13272 9.41434,-2.40988 17.50481,-4.05251 17.97478,-3.57625 2.16219,2.19453 2.66911,61.33221 0.53117,61.33221 -4.84285,6e-5 -36.77691,21.22777 -60.0928,40.05357 -25.22578,20.36861 -41.6521,37.67585 -66.61287,70.45153 -41.95521,55.09117 -56.83825,94.38853 -62.55926,163.6119 -4.23663,51.25356 5.08072,88.89593 32.42481,130.88964 16.97481,26.06866 29.57788,39.3753 54.80597,57.75591 25.99597,18.94006 43.6838,25.04258 72.42856,25.03357 25.51272,-0.006 54.86716,-4.68067 74.19007,-11.80159 27.04617,-9.96739 58.73659,-40.78179 65.37963,-63.47783 2.94682,-10.07022 5.58129,-26.83313 8.81101,-55.96783 2.91738,-26.32218 5.16733,-125.96441 4.58189,-206.52656 -0.76961,-105.9302 -2.90698,-124.1361 -17.26983,-149.66476 -9.83524,-17.48016 -15.33165,-20.90658 -23.61438,-15.02011 -6.54085,4.64886 -24.37765,4.5394 -32.24872,-0.17898 -6.18289,-3.70569 -10.74977,-11.19496 -10.74977,-17.5234 -5.8e-4,-7.82668 7.74348,-19.37446 17.09374,-25.39119 11.34906,-7.3029 26.50462,-8.48302 42.11744,-3.21864 17.46382,5.88832 28.52074,4.75856 31.01549,-3.21858 1.69916,-5.43314 3.30651,-5.36455 12.86462,0.35796 8.98075,5.37621 9.84909,10.32662 3.17198,19.49034 l -4.58188,6.43721 4.75798,6.07955 c 10.34792,13.34861 20.99723,16.99639 32.60148,10.9075 8.05698,-4.22785 9.30522,-8.29636 7.75387,-24.31829 -0.70783,-7.31515 -0.41569,-14.38578 0.53117,-15.7354 0.94109,-1.34945 6.18635,-3.2721 11.8069,-4.11261 10.67644,-1.5961 14.42521,0.53809 20.4424,11.08624 2.11658,3.71014 3.21875,3.82706 11.10195,1.43052 17.44073,-5.30202 38.47376,-2.14707 48.99027,7.51005 5.40057,4.9589 8.9617,17.4894 7.40169,25.92761 -1.57214,8.50097 -12.50781,20.68852 -20.4424,22.70892 -4.04264,1.0296 -9.39125,-0.46997 -18.85582,-5.54307 -14.66019,-7.85878 -19.69299,-8.61754 -26.78637,-3.57619 -12.04651,8.56153 -16.51003,33.53351 -19.03192,104.78317 -1.46359,41.33587 -1.336,265.15328 0.17898,312.38256 2.2182,69.24347 4.48143,88.50564 10.92586,91.01482 1.73264,0.67441 3.17199,2.5996 3.17199,4.29136 0,4.51295 3.78225,3.73872 5.28683,-1.07284 0.71188,-2.27541 7.17132,-9.7551 14.27394,-16.62943 l 12.86462,-12.51676 11.98299,0.8941 c 13.69543,0.98606 16.06951,2.46293 25.20038,16.45062 5.42713,8.31379 6.23889,11.42544 5.11074,17.88108 -2.19857,12.57715 -9.21516,27.41089 -15.15556,31.82834 -7.34049,5.45826 -26.85045,5.71974 -41.94135,0.53637 -14.92866,-5.1279 -29.11772,-3.79744 -34.71633,3.21857 -3.09116,3.87371 -5.26028,4.70521 -9.69205,3.57625 -8.63954,-2.19995 -15.09725,-10.17749 -13.56957,-16.80823 3.65408,-15.85658 3.64599,-21.62199 0.17898,-28.43096 -4.23721,-8.31356 -15.17519,-15.72368 -23.26162,-15.73534 -17.79464,-0.0231 -24.76736,5.63994 -30.48663,24.67596 -2.35099,7.82454 -1.10621,14.7771 5.81511,33.08 0.93936,2.48187 -1.23265,4.30989 -8.10605,6.97357 -12.72952,4.93257 -14.80338,4.49402 -14.80338,-3.21858 0,-7.90883 -6.97386,-9.8484 -32.95367,-9.29812 -13.55455,0.28695 -30.34229,1.05881 -37.18337,1.78807 -34.60894,3.68981 -91.28611,-8.52297 -145.20873,-31.47074 -27.81925,-11.839 -34.12974,-15.56086 -61.67879,-36.83505 -11.73242,-9.06013 -53.21016,-51.72837 -56.74414,-58.29232 -1.08428,-2.01398 -5.14885,-7.24874 -8.98768,-11.62272 -9.81214,-11.18013 -40.86632,-75.07094 -48.81418,-100.49169 -7.71057,-24.66124 -7.95653,-27.27989 -2.81922,-27.53693 19.2005,-0.96112 25.31526,-2.14817 37.00669,-7.68886 9.25962,-4.38778 14.57936,-8.51778 17.09374,-13.23205 5.35439,-10.03604 3.17892,-23.88706 -5.81511,-36.83499 -8.93052,-12.85578 -17.09547,-15.69123 -34.18748,-11.62273 -5.54549,1.31983 -7.04892,1.13652 -7.04892,-1.43051 0,-5.09279 13.4056,-29.96921 25.1998,-46.66965 5.87111,-8.31339 12.18795,-17.2319 13.92175,-19.8479 2.91217,-4.39343 21.37193,-27.69385 23.96657,-30.21914 0.62527,-0.60819 7.09337,-7.66415 14.27393,-15.55653 15.67634,-17.22844 57.13328,-49.83777 81.59234,-64.19306 30.60268,-17.96145 39.2197,-22.85551 50.0474,-28.96738 22.69293,-12.8089 29.64197,-18.088 25.55256,-18.95398 -2.07616,-0.43994 -16.90205,1.2834 -32.77757,3.75506 -15.8761,2.47125 -33.6667,5.16969 -39.65041,5.90074 -5.98428,0.73139 -15.83337,2.23407 -21.85172,3.39738 -21.54802,4.16579 -69.92457,7.53904 -90.22724,6.25841 C 112.31568,173.47809 92.895781,163.77207 88.474977,139.6514 86.143042,126.92991 86.298927,126.08207 93.233534,112.4722 102.76566,93.763488 113.55584,84.088467 125.13007,83.862433 z M 62.383744,163.25441 c 4.103837,-0.77054 15.660167,11.6636 25.376468,27.35801 3.569784,5.76621 7.384943,10.54757 8.282152,10.54988 0.898364,0.002 1.585993,-3.40835 1.585993,-7.51005 0,-8.72291 4.619413,-14.13451 8.282733,-9.6558 1.51036,1.84598 1.75977,7.31018 0.70495,15.19892 -2.04211,15.26797 -1.5681,17.03052 5.11074,15.73534 6.14074,-1.1912 6.72445,1.02324 2.81922,11.98034 -3.03342,8.51355 -6.75274,9.31538 -11.45471,2.50341 -1.83541,-2.65907 -3.939871,-4.22739 -4.757983,-3.39739 -0.818111,0.82989 0.127018,3.31477 2.114853,5.54313 4.21122,4.72195 4.76029,8.64161 1.2338,9.8346 -1.800765,0.60893 -2.023624,3.90234 -0.53116,11.80141 2.24071,11.84108 0.0808,25.22901 -7.930545,49.35181 -5.071483,15.27519 -5.071483,15.55654 -2.114273,15.55654 1.226301,0 3.092311,-2.27426 4.053029,-5.00665 18.912409,-53.80246 19.232259,-54.13213 18.503639,-18.95397 -0.31177,15.02992 -0.62181,28.02635 -0.70495,28.96738 -0.0808,0.94085 -2.44452,2.6586 -5.28684,3.755 -5.48429,2.11594 -9.280972,14.29501 -6.87283,21.99374 0.80368,2.5679 -0.908752,6.10761 -4.757975,10.01341 -5.870542,5.95692 -5.936938,5.96407 -7.929966,1.43051 -1.113717,-2.53297 -3.940445,-4.64909 -6.16788,-4.64909 -4.697357,0 -15.701159,11.55743 -19.384681,20.38449 -2.64082,6.3289 -6.177694,8.15444 -6.696736,3.39738 -1.691072,-15.48603 1.985522,-44.11537 8.282729,-65.62357 l 1.585993,-5.54312 -6.167879,4.11261 c -4.998736,3.32349 -6.398821,3.52585 -7.929966,1.07284 -4.211802,-6.74471 -1.894878,-10.35653 10.044816,-15.37772 l 11.982995,-5.0067 -5.286836,-4.6491 c -5.969847,-5.12748 -10.952417,-14.09917 -8.987102,-16.09295 0.716497,-0.72729 6.111876,-0.0964 11.982995,1.43046 9.346216,2.43049 11.305758,2.36859 16.212695,-0.89409 7.037375,-4.67871 7.518312,-15.21659 1.233807,-27.71568 -3.803612,-7.56444 -5.311085,-8.76171 -11.630809,-8.76171 -9.487091,-5e-5 -14.264701,-5.16028 -10.397579,-11.44391 2.408723,-3.9132 2.057691,-5.18985 -3.171987,-10.72864 -3.297272,-3.49207 -7.668424,-6.98039 -9.868722,-7.68886 -5.743524,-1.84985 -2.940467,-4.95936 7.048922,-7.68886 l 8.635493,-2.32461 -6.696736,-9.83454 c -6.83126,-10.07391 -7.306423,-17.95232 -1.233807,-23.06664 0.202074,-0.17148 0.607955,-0.306 0.881621,-0.35739 z m 598.634186,24.67585 c 3.92023,0 10.63833,9.17382 11.98357,16.45062 2.03402,10.99901 0.0577,19.10923 -9.86872,39.1596 -4.63732,9.38443 -8.45883,18.53799 -8.45883,20.20568 0,1.66757 -2.43297,7.62858 -5.46293,13.41073 -3.21471,6.13543 -4.99007,12.40909 -4.22912,14.84131 1.80828,5.78226 -2.73089,5.13724 -6.52064,-0.89404 -9.03676,-14.38375 -11.84443,-25.25476 -12.51185,-46.66971 -0.6478,-20.78846 -0.9053,-21.79461 -6.87283,-27.00039 -7.41497,-6.46845 -5.84226,-9.86133 2.46703,-5.18545 8.48538,4.77478 13.56553,16.40466 13.56957,31.47073 0.003,14.64668 2.93527,15.06093 6.52006,0.89398 1.29386,-5.10988 5.20312,-15.44539 8.63492,-22.88778 3.43122,-7.4421 6.92479,-17.99055 7.75387,-23.60307 0.83024,-5.61217 2.16104,-10.19221 2.9959,-10.19221 z m -444.61387,0.17898 c 0.99132,0.0289 0.88104,0.74305 0.88104,1.78812 0,2.77402 -27.77364,22.1725 -31.72044,22.1725 -3.66909,6e-5 -4.01146,2.54602 -0.88104,5.72199 4.32208,4.38576 -2.99532,9.31134 -15.86051,10.54982 -13.90097,1.33808 -15.47715,-0.59871 -7.75387,-8.94051 2.60271,-2.81085 3.74992,-5.01842 2.6437,-5.00676 -1.92778,0.0231 -17.41359,11.37343 -25.37646,18.59636 -6.42596,5.82892 -8.03793,3.88993 -4.75798,-5.54318 1.72051,-4.94845 3.65985,-13.63423 4.40521,-19.31159 1.6166,-12.30735 2.23841,-13.18337 7.0495,-10.0134 2.16162,1.42445 3.58711,4.86334 3.34808,8.22534 -0.23094,3.21731 0.67089,5.7303 2.11485,5.72193 2.63101,-0.0173 10.95357,-11.04318 13.56899,-18.05989 2.09407,-5.61841 7.2995,-4.77674 9.69263,1.60932 1.13681,3.03591 3.08423,5.54313 4.22912,5.54313 1.1449,0 9.99921,-2.9728 19.73745,-6.61603 12.44719,-4.65682 17.02561,-6.48542 18.67973,-6.43715 z m 193.84681,15.55653 c 3.37522,0.0346 6.45541,0.64975 9.16378,1.78812 8.29139,3.48451 22.57803,14.72053 23.43771,18.4175 0.34064,1.45915 1.18242,5.43926 1.93818,8.76176 4.1379,18.17917 -9.58063,34.41074 -28.37179,33.61642 -11.53901,-0.48787 -18.50364,-5.81154 -18.50364,-14.30489 0,-8.50749 7.13207,-14.40026 17.44593,-14.12602 9.56561,0.25462 10.58349,-1.59991 4.2297,-8.04653 -2.82038,-2.86126 -7.17132,-4.29142 -12.51185,-4.29142 -6.99465,6e-5 -9.89702,1.49904 -18.8564,10.72869 -10.30925,10.62032 -24.01507,36.63789 -21.49896,40.7688 0.66396,1.08895 6.20772,1.33531 12.33518,0.71529 11.90217,-1.20402 34.27986,3.57457 41.58917,8.7617 6.17538,4.38235 7.24002,3.87376 10.74976,-4.64909 3.20721,-7.788 10.94029,-11.90009 17.6226,-9.29812 5.23776,2.03938 4.02069,13.28429 -2.11485,19.13278 -10.23361,9.75527 -5.75334,11.45731 6.16788,2.32448 12.44199,-9.53154 15.49619,-10.4347 24.14266,-6.43715 l 5.46293,2.50335 -5.81512,8.04647 c -12.7272,17.36458 -18.52904,20.14772 -16.56546,7.86767 1.24305,-7.77229 1.29963,-7.82309 -4.40521,-5.18551 -6.82145,3.15374 -7.45481,8.68659 -1.4099,12.51676 2.39313,1.51694 4.40521,4.18276 4.40521,5.9008 0,1.71815 2.213,5.80409 5.11074,9.29812 2.89775,3.49432 7.39014,12.33657 9.86873,19.4904 2.47743,7.15388 5.39884,13.88214 6.52006,15.02011 4.89135,4.96288 25.84932,-20.72646 22.02839,-27.0004 -1.45493,-2.38776 -3.82555,-2.21196 -13.04071,0.89404 -6.20194,2.09014 -11.79939,3.22689 -12.51185,2.50335 -1.80885,-1.83478 5.31975,-9.44708 13.92175,-14.84131 11.42989,-7.16797 9.09392,-9.33097 -8.10663,-7.86766 -8.37742,0.71268 -15.15499,0.37528 -15.15499,-0.53637 -5.7e-4,-8.97601 18.6347,-12.89937 32.07263,-6.79483 9.60314,4.36255 11.6337,8.1683 12.51185,24.67597 0.51385,9.66572 -0.30022,12.07069 -7.75387,21.63607 -4.59632,5.90011 -10.4224,11.37291 -12.86461,12.15915 -7.29719,2.35018 -4.90752,5.54312 4.0536,5.54312 5.52067,-5e-5 9.63605,1.46233 12.15909,4.29148 5.094,5.71067 3.60327,9.12215 -5.28626,12.15915 -10.08407,3.44484 -10.38026,6.35794 -0.70495,9.8346 15.03258,5.40179 17.75539,11.14606 7.75387,16.09295 -8.07776,3.99564 -9.58408,9.5909 -2.11485,7.68886 3.07442,-0.78306 6.20022,-0.56754 6.87283,0.53636 0.67204,1.10414 -1.69511,8.5079 -5.28683,16.62943 -7.53621,17.04409 -7.9444,19.25253 -3.17199,26.64278 2.93354,4.54263 3.08596,6.02914 0.70495,8.94051 -2.56634,3.13752 -3.07268,3.06581 -4.58189,-1.07278 -2.09752,-5.75299 -8.43111,-5.88607 -15.15555,-0.35738 -4.83015,3.9707 -4.96525,4.69516 -2.11428,11.62261 4.07035,9.89384 5.46236,23.57379 3.17199,32.54363 -1.55944,6.1068 -4.13617,8.56021 -15.33165,14.30489 -7.41381,3.80413 -13.53839,8.12753 -13.56957,9.83454 -0.0808,4.57086 10.12045,17.51128 15.15556,19.13278 8.94611,2.88112 4.53339,6.15645 -6.52007,4.8279 -10.71801,-1.28779 -10.99918,-1.20783 -8.45882,3.57625 3.63445,6.84298 12.60192,33.16717 11.63081,34.15283 -1.85562,1.88287 -9.63778,-2.33418 -15.50774,-8.40409 -3.46529,-3.58381 -6.84685,-6.58224 -7.57778,-6.61596 -0.73151,-0.0346 -1.80481,5.71286 -2.46704,12.69556 -0.66223,6.98265 -3.39196,17.89956 -5.99179,24.13949 -3.84864,9.23646 -6.542,12.16446 -14.80279,16.62937 -5.58129,3.01628 -14.52798,6.00374 -19.91354,6.61602 -11.60598,1.31932 -35.86989,-2.59919 -43.70343,-7.15244 -3.05306,-1.77456 -8.80928,-5.2601 -12.86462,-7.68886 -4.05592,-2.42893 -14.11863,-11.45853 -22.38058,-20.20568 -8.48769,-8.98681 -18.21322,-17.08081 -22.2039,-18.4175 -12.97027,-4.34349 -22.13289,-3.4255 -30.48721,3.03978 -6.67249,5.16403 -8.00098,5.57689 -9.1632,2.5034 -0.85044,-2.2481 1.16568,-5.99109 5.11017,-10.19227 6.06511,-6.45956 6.74466,-6.61123 22.90943,-5.90073 l 16.74098,0.53636 6.87283,-9.47699 c 7.24753,-10.14493 7.07201,-14.18145 -0.35219,-9.47699 -2.45491,1.5562 -5.00624,2.25238 -5.63902,1.60932 -0.63394,-0.64265 -0.0635,-8.31847 1.23323,-17.16585 1.29443,-8.84709 1.53345,-17.04097 0.53116,-18.05988 -1.00402,-1.01915 -4.57957,1.67802 -7.75387,5.90074 -7.64937,10.17627 -25.05488,17.95428 -35.77347,15.9142 -8.67129,-1.65077 -11.0523,-4.17705 -11.10195,-11.62273 -0.0577,-5.52112 -3.13215,-6.57716 -5.81569,-1.96687 -1.91855,3.29652 -9.93281,8.04642 -13.56899,8.04642 -5.55762,5e-5 -1.70147,-8.08424 5.81511,-12.15915 8.85489,-4.79955 10.13835,-8.47181 3.52475,-9.47693 -11.58866,-1.76151 -14.88074,-3.58139 -22.73276,-12.15915 -7.06335,-7.71588 -8.4363,-10.9385 -8.45882,-18.5963 0,-7.8802 0.57793,-9.34997 4.75798,-10.01346 2.79728,-0.44399 7.58759,1.41209 11.10195,4.29153 3.3833,2.77188 7.28506,5.00665 8.81101,5.00665 6.124,-6e-5 17.93783,-10.58112 22.73334,-20.38437 6.10841,-12.48946 4.74008,-16.59318 -3.52475,-10.54995 -3.22684,2.36017 -8.35836,4.97547 -11.45472,5.72199 -5.22621,1.2599 -5.6396,0.73405 -4.75798,-5.36432 0.80079,-5.53169 2.18818,-6.78576 8.81159,-8.04647 4.32554,-0.82337 11.8427,-4.43045 16.56488,-8.22534 l 8.45882,-6.97364 -1.4099,14.66256 c -1.88968,18.71524 -8.23942,33.19171 -17.79869,40.59005 -6.56279,5.07945 -9.0991,5.69335 -19.38468,4.82784 -10.74341,-0.90379 -11.71914,-0.64762 -9.86872,2.86102 3.66505,6.94881 13.11634,12.78789 23.08553,14.30488 8.65396,1.31655 10.41316,0.83209 15.68441,-4.29147 3.27649,-3.18585 6.60667,-5.9008 7.40111,-5.9008 2.31461,6e-5 -0.74479,7.27744 -6.52007,15.19898 -2.93642,4.02635 -4.95254,7.67039 -4.40579,8.22528 3.00398,3.04809 26.07276,6.06488 31.54377,4.11261 9.23075,-3.2938 8.47845,-8.36656 -3.52417,-21.81488 -11.71453,-13.12489 -13.11692,-18.17495 -7.75387,-28.60971 2.00861,-3.90823 2.43181,-7.25065 1.2338,-8.76176 -2.18298,-2.75162 -4.70313,-125.69513 -2.6437,-128.92265 2.12235,-3.32666 13.76875,-8.57759 22.55666,-10.19222 4.48836,-0.82446 8.10664,-1.96046 8.10664,-2.50335 0,-0.54271 -1.88333,-3.33792 -4.2297,-6.07954 -2.34464,-2.74163 -5.5605,-6.80436 -7.22502,-9.11944 -3.62463,-5.03938 -14.87612,-5.29093 -22.02781,-0.53636 -2.66795,1.77404 -10.45589,14.60621 -17.27041,28.60983 -15.16595,31.1682 -16.44248,43.00686 -5.9912,54.3584 3.50107,3.80332 9.29425,7.8567 12.86403,9.11943 6.59974,2.3343 10.29712,9.65476 7.92997,15.91415 -2.71126,7.1686 -18.49902,17.32317 -29.78168,19.13278 -12.49684,2.00434 -18.85525,-0.75778 -23.26162,-10.37108 -2.99705,-6.53733 -3.12753,-6.39149 1.76208,-7.68886 2.68932,-0.71361 5.94098,0.73589 8.98768,4.29147 3.93294,4.58882 6.07031,5.35225 12.51186,4.29148 7.59625,-1.25072 20.08963,-11.07285 20.08963,-15.7354 0,-1.29777 -3.01033,-3.70852 -6.69674,-5.36431 -3.68583,-1.65568 -9.54598,-6.90667 -13.04071,-11.80154 -5.31859,-7.44972 -6.34397,-11.04779 -6.34397,-21.99369 0,-11.56175 1.29443,-15.78008 11.8069,-36.11982 7.49695,-14.50326 12.48183,-27.18139 13.39347,-34.15284 1.58831,-12.14759 3.96701,-14.08364 6.16788,-5.18551 1.17261,4.73974 2.21416,5.41952 6.16788,4.11262 14.74506,-4.87472 19.79807,-3.96152 28.72455,5.36431 4.73084,4.94291 9.26654,9.11938 10.22091,9.11938 3.77821,-6e-5 1.53923,-12.35464 -3.70084,-20.02682 -7.14246,-10.45826 -5.65231,-17.27081 6.16788,-27.53687 11.34039,-9.84909 17.21209,-8.57371 25.37646,5.54307 3.3348,5.76656 13.70929,-1.62272 15.68384,-11.26506 4.6835,-22.87219 23.93424,-50.85639 37.71223,-54.71613 3.93582,-1.1028 11.80748,-1.4439 17.62202,-0.89409 10.07541,0.95252 10.49111,0.78786 6.34455,-2.6821 -6.57723,-5.50276 -25.2864,-3.04243 -36.47842,4.82784 -11.72896,8.24717 -22.477,25.21389 -27.66742,43.62994 -2.33482,8.2851 -4.82668,15.62558 -5.46292,16.27176 -3.2303,3.27701 -3.98664,-3.45449 -1.93876,-17.88108 2.61657,-18.42847 10.33522,-31.83348 26.96246,-46.13323 9.30753,-8.00479 21.77089,-12.62773 31.89653,-12.51676 z m 23.96657,28.2521 c -0.14434,-0.0404 -0.20785,0.10277 -0.35219,0.17898 -1.15239,0.60714 -1.85677,3.58011 -1.58657,6.61602 0.62355,6.9913 -0.96533,9.39645 -10.397,15.19892 l -7.75387,4.64914 6.16788,0 c 9.41781,0.0115 17.2196,-9.13998 16.38879,-19.31164 -0.32332,-3.96955 -1.45147,-7.06059 -2.46704,-7.33125 z m -279.13999,2.32454 c 5.81627,6e-5 3.81343,6.4714 -2.46703,7.86767 -3.29093,0.73162 -7.1771,1.69315 -8.63492,2.14574 -1.45782,0.45265 -3.20143,-0.14203 -3.87694,-1.25159 -1.37352,-2.25532 9.74171,-8.76182 14.97889,-8.76182 z m -35.94956,10.90744 c 2.73204,-0.0964 4.58188,2.2742 4.58188,6.79483 0,5.40733 -0.93762,6.64362 -4.93407,6.61608 -2.69336,-0.0173 -6.35898,-1.02411 -8.10663,-2.14579 -2.71934,-1.74506 -2.59233,-2.72131 0.88104,-6.61597 2.71992,-3.04953 5.45311,-4.57409 7.57778,-4.64915 z m 292.53231,0.17898 c -3.05132,0.0889 -5.57725,3.82411 -3.87636,6.61597 1.23669,2.03073 2.34868,1.66849 4.58131,-1.43051 2.09175,-2.90196 2.22743,-4.25338 0.53116,-4.82784 -0.44456,-0.15069 -0.79732,-0.37009 -1.23323,-0.35739 z m 266.80423,8.22529 c 4.39251,0.0941 8.85315,1.50764 13.56899,4.29147 5.37805,3.17493 7.4011,5.91448 7.92996,11.44392 l 0.70495,7.33119 -8.28215,-6.61596 c -8.03505,-6.46401 -11.47492,-7.8858 -17.97478,-7.33131 -1.68703,0.14376 -7.31682,4.9869 -12.51243,10.72869 -9.74113,10.76651 -11.52573,10.01578 -6.34397,-2.32454 4.89308,-11.65292 13.24682,-17.7301 22.90943,-17.52346 z m -240.19396,30.21903 c -0.7061,0.10565 -1.81809,0.91909 -3.34808,2.3246 -2.36542,2.17189 -3.74876,4.84348 -2.99589,6.07954 0.81465,1.33796 2.65987,0.63405 4.40521,-1.78818 3.02303,-4.19431 3.49127,-6.84893 1.93876,-6.61596 z m -106.79213,3.03983 c -6.28277,0.66961 -14.09784,3.96538 -14.09784,6.61596 0,1.08635 1.46532,5.11086 3.34808,8.94057 1.88275,3.82965 4.04263,6.97357 4.75797,6.97357 2.49014,6e-5 9.33987,-7.31877 9.33987,-10.0134 0,-1.49177 2.06231,-3.26529 4.58189,-3.93381 5.91904,-1.57029 4.26376,-6.48207 -2.81923,-8.40415 -0.72053,-0.19572 -1.54731,-0.15704 -2.46761,-0.17898 -0.80425,-0.0173 -1.74534,-0.0958 -2.64313,0 z m 44.0562,3.57613 c -1.91682,-0.0664 -2.15584,15.21364 -0.17898,22.70903 0.72169,2.73245 2.07674,5.00665 3.17199,5.00665 2.48839,0 0.12701,-24.4706 -2.64313,-27.35801 -0.14434,-0.1478 -0.22517,-0.35334 -0.35219,-0.35796 z m 36.65451,2.50347 c -1.56694,-0.53463 -7.91206,13.07183 -7.75387,17.16579 0.0577,1.36983 2.1697,-1.26169 4.58189,-5.9008 2.41218,-4.63944 3.84749,-9.65371 3.34808,-11.08624 -0.0577,-0.16917 -0.0693,-0.14319 -0.17321,-0.17898 z m -25.19979,0.71517 c -0.35219,0.0115 -0.63163,0.28348 -1.05772,0.71522 -0.60622,0.61558 -0.37528,4.44217 0.53117,8.58296 l 1.58599,7.51005 0.70495,-7.33119 c 0.54849,-5.80917 -0.24249,-9.53207 -1.76208,-9.47704 z m 37.88832,4.47028 c -1.71302,0.40357 -5.0253,4.09645 -9.34045,10.19227 -3.86712,5.46478 -6.10437,9.83449 -4.93407,9.83449 2.12582,0 15.50775,-15.88407 15.50775,-18.41744 0,-1.18716 -0.45612,-1.79286 -1.23323,-1.60932 z m -71.72361,3.03977 c -1.84812,0.29849 -0.80715,7.26324 2.64313,15.19892 2.01612,4.63685 3.97393,7.94775 4.40579,7.51011 1.31637,-1.33611 -4.12924,-21.07298 -6.16788,-22.35136 -0.38683,-0.24306 -0.61719,-0.4001 -0.88104,-0.35796 z m -9.86873,8.22528 c -2.24533,6e-5 0.15012,8.69751 4.05361,14.84131 1.76093,2.77044 3.78167,4.56664 4.40522,3.93386 1.47802,-1.49968 -6.31395,-18.77517 -8.45883,-18.77517 z m 51.45789,13.23205 c -6.61706,-6e-5 -12.15967,0.93133 -12.15967,2.14574 0,1.21446 4.71295,2.31761 10.397,2.32454 5.68522,0.006 13.78608,0.95581 17.97536,2.14574 10.38661,2.95028 28.02884,20.18005 30.66273,29.86142 2.02882,7.45543 6.34397,10.69919 6.34397,4.82789 5.8e-4,-1.57052 3.06229,-3.84495 6.87283,-5.00676 3.81112,-1.16175 7.43056,-3.42077 7.92997,-5.0067 0.71476,-2.26791 -0.84756,-2.19684 -6.87225,0.35738 -7.26774,3.08128 -10.22149,2.9127 -10.22149,-0.89403 0,-0.93347 3.56516,-3.11217 7.75387,-4.64909 8.31968,-3.05277 10.03038,-6.25841 3.34866,-6.25841 -5.37864,6e-5 -8.07835,-4.38126 -4.2297,-6.79477 1.61486,-1.01262 2.03691,-2.59943 1.05771,-3.57619 -0.97977,-0.97689 -4.47969,1.58068 -7.75387,5.54318 l -5.99179,7.15238 -4.05303,-4.8279 c -7.93862,-8.91903 -27.99188,-17.34465 -41.0603,-17.34465 z m 50.92845,0 c -3.3348,-6e-5 -10.74919,6.30893 -10.74919,9.11931 -5.8e-4,3.41367 3.46471,2.0077 8.63492,-3.57619 3.26551,-3.52769 3.98605,-5.54312 2.11427,-5.54312 z m -77.89091,6.79483 c -0.84525,-0.0231 -2.06462,0.65639 -3.17199,1.78806 -2.13275,2.18062 -1.86774,2.45001 1.23323,1.25171 2.14661,-0.82902 3.48953,-2.18119 2.8198,-2.86102 -0.16743,-0.16975 -0.59929,-0.17032 -0.88104,-0.17898 z m -7.92997,5.0067 c -0.60795,0.12933 -1.6189,0.40935 -2.8198,1.07284 -5.20254,2.87298 -17.97478,15.84082 -17.97478,18.23875 0,3.91383 3.73375,1.74794 12.68795,-7.51006 7.8168,-8.08134 10.73879,-12.36127 8.10663,-11.80153 z m -273.148202,1.43022 c -1.196856,6e-5 -2.11485,0.93139 -2.11485,2.14574 5.78e-4,1.21429 0.917994,2.32455 2.11485,2.32455 1.196856,0 2.11485,-1.1102 2.11485,-2.32455 0,-1.21441 -0.917994,-2.14574 -2.11485,-2.14574 z m 232.263992,13.23205 c -3.58249,-0.16166 -1.22168,3.50904 4.40579,6.97358 3.27591,2.01693 6.21234,3.352 6.69616,2.86096 1.04097,-1.05581 -8.73191,-9.72785 -11.10195,-9.83454 z m -16.74155,0.71528 c -0.0924,0.0462 -0.17898,0.0612 -0.17898,0.17898 0,0.668 4.19737,4.217 9.16377,7.86767 10.21225,7.50596 12.82651,8.53284 7.75387,2.86097 -3.38965,-3.79028 -13.68446,-10.544 -16.21269,-10.90739 -0.17898,-0.0289 -0.43879,-0.0462 -0.53117,0 z m 34.18747,15.02 c -0.24249,-0.0115 -0.70899,0.24249 -1.40932,0.89409 -1.3845,1.28629 -5.04146,12.24644 -8.10664,24.31829 -7.77177,30.61019 -9.43051,79.59619 -3.34807,99.77647 5.30069,17.59072 11.22031,27.01684 23.6138,38.08669 5.47794,4.89251 11.46742,8.80547 13.39347,8.76182 2.43066,-0.0577 1.698,-1.61336 -2.6437,-5.00676 -16.33164,-12.76496 -22.56418,-21.1959 -27.66742,-38.44437 -2.77938,-9.39598 -5.30646,-22.76047 -5.81511,-29.50374 -1.68241,-22.28924 5.17194,-79.78008 11.45471,-95.84266 0.80195,-2.05059 0.93185,-3.01922 0.53117,-3.03983 z m -48.28532,0.89409 c -0.81003,0.0231 -1.23323,0.44976 -1.23323,1.0729 0,2.37062 9.03098,7.52951 21.14677,11.98034 15.60128,5.73105 15.92286,3.62388 0.53117,-4.29148 -11.68739,-6.00934 -18.01289,-8.83583 -20.4424,-8.76176 z m 325.31046,6.0796 c 4.96294,-0.004 10.72379,3.03562 13.74566,8.22528 2.06751,3.55218 4.20314,12.98125 4.93407,20.92091 1.24825,13.56581 1.0658,14.30489 -3.17198,14.30489 -3.88791,-6e-5 -4.68177,-1.75274 -5.81569,-12.69569 -1.73496,-16.74594 -5.09574,-23.29296 -12.86404,-24.67584 -5.55704,-0.98924 -5.94733,-1.483 -2.8198,-4.11262 1.65758,-1.3935 3.73548,-1.96502 5.99178,-1.96693 z m -249.88658,3.755 c -5.32206,-0.0173 -15.68384,9.66896 -15.68384,14.6625 0,2.20746 3.65408,3.03977 14.09784,3.03977 7.77928,6e-5 14.09843,-0.85067 14.09843,-1.96687 0,-5.71264 -7.8884,-15.72241 -12.51243,-15.7354 z m 285.1312,2.50335 c 1.68356,0.0577 4.02358,2.3772 7.93054,6.0796 5.68175,5.38528 6.69616,8.019 6.69616,16.62938 0,10.36963 -3.8677,19.56706 -14.27394,34.15289 -2.94451,4.12618 -5.29434,10.25082 -5.28684,13.41085 l 0,5.72187 3.34808,-6.6159 c 8.07027,-15.74458 21.40254,-21.73717 36.65509,-16.62943 9.65741,3.23434 19.19012,19.63196 14.62671,25.21232 -4.28167,5.23442 -5.88209,4.30505 -8.10664,-4.82789 -1.68414,-6.91394 -3.22799,-8.64635 -10.04482,-10.9075 -12.42467,-4.12099 -23.19291,0.0935 -28.90064,11.44392 -9.02059,17.93944 -8.46517,17.30707 -13.2168,11.98034 -5.77874,-6.47781 -5.99005,-34.82569 -0.35219,-45.95443 2.11716,-4.17883 4.47162,-11.70044 5.11017,-16.62937 2.18356,-16.85269 3.00917,-23.16104 5.81569,-23.06665 z m -358.79299,2.14574 c -0.75807,0.10912 -0.88104,0.77291 -0.88104,1.78807 0,1.11308 5.63036,4.0032 12.51185,6.43721 22.76394,8.05185 24.64553,4.90948 2.11485,-3.57619 -9.09103,-3.42365 -12.48183,-4.83136 -13.74566,-4.64909 z m 197.90042,2.32455 c -1.76497,-0.0404 -2.8198,1.10124 -2.8198,3.03983 0,2.27414 1.31868,3.32637 3.70084,2.8609 4.80244,-0.93837 4.676,-4.77379 -0.1732,-5.72193 -0.27713,-0.052 -0.45034,-0.17263 -0.70495,-0.17898 z m -36.65509,0.89403 c -0.69975,-0.57447 0.98785,23.59504 2.64371,36.83505 0.72111,5.76829 1.96647,10.54989 2.99589,10.54989 2.25861,0 0.77423,-24.7949 -2.11485,-34.1529 -1.13566,-3.6774 -2.74879,-9.12324 -3.34808,-12.15914 -0.12124,-0.6299 -0.10392,-1.01349 -0.17321,-1.0729 z m -35.94956,1.0729 c -6.54201,0 -12.86462,4.90243 -12.86462,10.01341 5.8e-4,2.40728 3.2251,3.21863 13.92175,3.21863 7.70884,0 14.47486,-1.02884 15.15556,-2.14579 1.96763,-3.23128 -9.53443,-11.08625 -16.21269,-11.08625 z m 57.62518,15.37772 c -1.86543,-5e-5 -2.86656,1.09022 -2.11427,2.32455 0.75172,1.23421 2.41046,1.59269 3.52417,0.89409 3.01841,-1.89268 2.41219,-3.21864 -1.4099,-3.21864 z m -179.3962,4.8279 c -0.306,0.20265 0.90067,0.72077 3.34808,1.78813 2.39371,1.04362 6.24178,1.96693 8.63491,1.96693 4.3521,-6e-5 4.3521,-0.0693 0,-1.96693 -2.39313,-1.0438 -6.2412,-1.78807 -8.63491,-1.78813 -1.08774,0 -1.92317,-0.0289 -2.46704,0 -0.40992,0.0231 -0.77885,-0.0675 -0.88104,0 z m 178.16297,5.54312 c -4.75162,0.27944 -10.57367,1.73259 -10.57367,3.21858 0,2.23731 8.77348,2.54117 13.92175,0.53637 1.88564,-0.73446 2.98608,-2.00891 2.46704,-2.86103 -0.5023,-0.8229 -2.96472,-1.06181 -5.81512,-0.89403 z m -176.40089,3.93381 c -1.07792,0.12009 -1.76208,0.48267 -1.76208,1.07296 0,1.16042 3.15928,2.37119 7.04892,2.8609 3.88906,0.4896 8.14301,1.09426 9.33987,1.25171 4.05938,0.53405 -4.37808,-3.37533 -10.39701,-4.8279 -1.67375,-0.40357 -3.15177,-0.47747 -4.2297,-0.35796 z m 175.51985,5.54318 c -4.18871,6e-5 -7.57778,0.93139 -7.57778,2.14574 0,1.21429 3.38907,2.32449 7.57778,2.32449 4.18871,0 7.75387,-1.11014 7.75387,-2.32449 0,-1.21441 -3.56516,-2.14574 -7.75387,-2.14574 z m -175.69594,4.64909 c -2.14603,0.24134 -3.70084,0.93774 -3.70084,1.78813 0,1.13358 2.70029,2.54007 5.99178,3.03977 3.29093,0.49941 7.21751,0.59779 8.81101,0.17898 1.59408,-0.41858 4.06516,-0.95183 5.46293,-1.0729 4.23952,-0.36662 -7.86299,-3.69796 -14.27394,-3.9338 -0.82273,-0.0289 -1.5756,-0.0803 -2.29094,0 z m 76.83378,6.43722 c -4.35268,0 -6.07551,4.20579 -2.9959,7.33125 2.33252,2.36634 6.09687,0.30888 6.87283,-3.75506 0.47343,-2.48164 -0.83427,-3.57619 -3.87693,-3.57619 z m 98.15721,0.17898 c -1.18358,0.0173 -2.43586,0.23383 -3.17199,0.53636 -1.47398,0.60478 0.28868,1.11764 3.87694,1.07284 3.59057,-0.0462 4.93638,-0.51269 2.81922,-1.07284 -1.05829,-0.28002 -2.34117,-0.55137 -3.52417,-0.53636 z m -173.05281,4.64909 c -1.88448,0.0404 -3.13965,0.50345 -4.05303,1.43051 -1.89199,1.91999 0.38683,2.52454 9.33987,2.32454 l 11.80748,-0.35738 -9.34045,-2.32454 c -3.40697,-0.83012 -5.86881,-1.11505 -7.75387,-1.0729 z m 112.25506,3.93386 c -1.64431,-0.0993 -2.58539,1.81913 -1.58599,6.43722 1.17491,5.42701 0.67146,6.79483 -2.11428,6.79483 -1.92836,0 -4.06919,-1.39703 -4.75855,-3.21864 -1.81982,-4.81329 -4.7984,-4.05055 -3.52418,0.89409 1.39258,5.40225 -2.98376,13.41079 -7.22501,13.41079 -1.80885,0 -4.83419,-2.98059 -6.87283,-6.61608 -4.02243,-7.17253 -7.04892,-8.47192 -7.04892,-3.21858 0,3.97821 -6.33762,4.48518 -6.69674,0.53637 -0.13856,-1.51787 -0.36951,-4.25799 -0.53117,-6.0796 -0.58255,-6.58231 -6.88957,-3.46494 -7.57777,3.75505 -0.95784,10.04776 3.08307,16.77013 9.33986,15.55653 2.76033,-0.53578 7.40284,0.38106 10.22091,1.96699 7.50388,4.22231 15.77737,3.60275 20.2663,-1.43051 2.16624,-2.42881 5.59803,-4.47028 7.5772,-4.47028 1.97975,0 5.33996,-1.15298 7.40169,-2.6821 3.37406,-2.50359 3.40986,-3.68866 0.70495,-11.62279 -2.13506,-6.26227 -5.46235,-9.88546 -7.57778,-10.0134 z m 63.61697,0 c -1.97282,-6e-5 -3.01841,1.7066 -2.64313,3.93386 0.45034,2.66704 -1.40066,4.0472 -5.99178,5.00665 l -6.52007,1.43051 6.52007,1.0729 c 12.79071,2.22686 14.7849,2.07091 13.39347,-1.60932 -0.72689,-1.92091 -1.4099,-4.89383 -1.4099,-6.61596 0,-1.72231 -1.50054,-3.21864 -3.34866,-3.21864 z m -172.87614,9.11932 c -1.38045,-6e-5 -2.65294,0.25865 -3.70026,0.53636 -2.09522,0.55542 -0.48498,0.89403 3.70026,0.89403 4.18929,-5e-5 5.97158,-0.3389 3.87694,-0.89403 -1.04674,-0.27771 -2.4959,-0.53636 -3.87694,-0.53636 z m 153.66813,6.79483 c -0.24826,0.0115 -0.2829,0.10219 -0.35218,0.17898 -0.79329,0.85367 -1.46995,11.35096 -0.88162,13.7684 0.29445,1.21447 0.87238,-0.16166 1.4099,-3.03971 1.03115,-5.52072 3.17314,-5.53383 23.61438,-1.07284 4.60094,1.00408 5.76315,0.59796 4.22912,-1.07296 -1.87121,-2.0391 -24.29451,-8.91562 -28.0196,-8.7617 z m -148.55738,1.78806 c -10.30521,-0.0762 -16.0366,1.66463 -16.0366,4.82796 0,2.40941 16.49964,0.42089 21.85229,-2.68216 2.21358,-1.28306 0.33487,-2.10019 -5.81569,-2.1458 z m 6.34397,11.62279 c -1.08485,0.0173 -3.41448,0.25692 -7.04892,0.71522 -13.29706,1.67733 -17.44593,3.08175 -17.44593,5.72199 0,2.64336 11.03729,0.50115 20.61791,-3.9338 4.03802,-1.86954 5.68521,-2.53372 3.87694,-2.50341 z m 146.97139,0 c -0.63509,0.0115 -1.02653,0.14722 -1.2338,0.35738 -1.4942,1.51659 -1.29617,1.64373 8.28272,6.0796 7.41035,3.43157 10.74977,3.34698 10.74977,-0.17898 0,-1.9223 -13.35421,-6.32688 -17.79869,-6.25841 z m -114.546,4.29147 c -0.25981,0.0964 -0.35219,0.37528 -0.35219,0.89404 0,1.25505 0.61142,2.9456 1.4099,3.755 0.79733,0.80968 2.02479,0.98514 2.64313,0.35796 0.61893,-0.62718 0.006,-2.31791 -1.4099,-3.75506 -0.9763,-0.99011 -1.85677,-1.41192 -2.29094,-1.25165 z m 85.46869,0 c -1.0964,-0.0797 -3.82035,1.54062 -6.52006,4.11262 -4.15754,3.96134 -8.33123,5.53758 -15.86051,5.72193 -16.1515,0.39606 -28.40296,2.64786 -33.48253,6.25841 -2.58655,1.83835 -8.09047,3.39738 -12.15909,3.39738 -6.23658,0 -6.97848,0.50403 -4.75855,3.21864 1.44973,1.77132 6.64997,4.05078 11.6308,5.18551 4.98084,1.13467 15.71502,2.19452 23.79048,2.32449 13.99623,0.22516 15.00025,-0.1328 23.43771,-7.86762 8.99865,-8.24878 16.5568,-19.85713 14.27451,-22.17255 -0.0866,-0.0878 -0.1963,-0.16743 -0.35218,-0.17898 z m 21.67563,0.35739 c -0.25981,-0.0115 -0.5814,0.16974 -0.88105,0.35738 -1.19685,0.7505 -2.11485,2.2548 -2.11485,3.39738 5.8e-4,1.14282 0.918,2.14574 2.11485,2.14574 1.19686,0 2.29095,-1.6831 2.29095,-3.57619 0,-1.42 -0.62932,-2.2895 -1.4099,-2.32454 z m 11.10253,8.22528 c -1.24709,-0.0583 -0.78059,0.79294 1.05713,3.03977 3.00225,3.67048 6.52007,4.48455 6.52007,1.43051 0,-1.08462 -1.45494,-2.48153 -3.34808,-3.21863 -1.99649,-0.77724 -3.48087,-1.21666 -4.22912,-1.25165 z m -14.09843,1.96693 c -1.19628,-6e-5 -2.29094,1.03069 -2.29094,2.14574 0,1.11499 -0.53694,3.85494 -1.23323,6.0796 -1.15817,3.70096 -1.0352,3.56407 2.11485,-0.35796 3.94045,-4.90826 4.55995,-7.86767 1.40932,-7.86767 z m 5.6396,4.47028 c -1.24766,6e-5 3.46759,5.94572 10.5731,13.23199 13.47834,13.8202 14.27451,14.3147 14.27451,11.44392 0,-2.62096 -22.22064,-24.67591 -24.84761,-24.67591 z m -149.79119,9.29819 c -1.09293,0.0289 -2.68874,0.18821 -4.75798,0.71522 -3.1333,0.79802 -5.63902,2.92794 -5.63902,4.64909 0,2.61386 1.07503,2.59198 6.69673,-0.35738 5.83995,-3.06402 6.98022,-5.08545 3.70027,-5.00665 z m 146.44254,1.25158 c -0.87065,0.35046 0.56003,3.24866 4.93465,8.58296 2.81402,3.43266 6.33646,8.53272 7.75387,11.26511 1.41625,2.73227 4.02012,5.0067 5.81511,5.0067 4.22566,-5e-5 1.76267,-4.39799 -9.86872,-17.70227 -4.58824,-5.24809 -7.76369,-7.50249 -8.63491,-7.1525 z m -132.52079,2.86103 c -0.84582,-0.0231 -2.0652,0.65639 -3.17198,1.78806 -2.13275,2.18073 -1.86775,2.45001 1.2338,1.25171 2.14545,-0.82908 3.31286,-2.18119 2.64313,-2.86097 -0.16743,-0.16974 -0.42147,-0.17032 -0.70495,-0.17898 z m 129.52489,6.61602 c -0.14434,0.0173 -0.25403,0.0808 -0.35218,0.17898 -0.79618,0.80535 0.0866,4.01111 2.11485,7.15238 3.63849,5.63389 7.57778,7.58038 7.57778,3.75506 0,-3.08619 -7.16036,-11.35223 -9.33987,-11.08625 z m -120.36112,8.7617 c -1.36371,-0.0404 -4.92829,1.90302 -7.75387,4.29154 -2.82557,2.38834 -4.00684,4.251 -2.64313,4.29136 1.36314,0.0404 4.9283,-1.72421 7.75388,-4.11261 2.82499,-2.38852 4.00684,-4.42981 2.64312,-4.47029 z m 51.28122,0.53637 c -4.4185,0.0918 -6.75505,1.72877 -2.64313,3.21857 1.49535,0.54214 2.8198,2.3925 2.8198,4.11267 -5.8e-4,3.80396 14.12787,4.4267 16.38879,0.71523 1.88044,-3.08827 -2.07732,-5.69156 -11.63081,-7.51 -1.80423,-0.34352 -3.46182,-0.56696 -4.93465,-0.53636 z m 65.20297,0.53636 c -1.01903,0.63896 -1.20263,2.68758 -0.53117,4.47022 1.08716,2.87402 5.11074,4.70585 5.11074,2.32455 0,-3.07534 -2.63447,-7.09586 -4.22912,-6.79477 -0.10392,0.0173 -0.25404,-0.0606 -0.35219,0 z m -117.18914,9.83454 c -1.19627,6e-5 -2.60906,1.1102 -3.34807,2.32455 -0.7396,1.2144 -0.49076,2.14573 0.70495,2.14573 1.19685,0 2.78515,-0.93127 3.52417,-2.14573 0.74017,-1.21441 0.31754,-2.32455 -0.88105,-2.32455 z m 111.90288,0.71529 c -0.53117,0.73814 0.53694,4.80359 3.17198,11.62272 2.31231,5.98399 4.65695,12.53737 5.28684,14.66244 0.62874,2.12519 2.25226,3.93386 3.52417,3.93386 4.42831,0 4.71641,-6.33467 0.53117,-12.51675 -2.31866,-3.42279 -5.86823,-9.07169 -7.92997,-12.51676 -2.06173,-3.44306 -3.56458,-5.04937 -4.2297,-5.18551 -0.13856,-0.0289 -0.27713,-0.10566 -0.35218,0 z m 221.86641,0.53636 c 0.86141,-0.003 2.10908,0.22112 3.34808,0.89409 4.58881,2.49163 6.46175,6.65592 8.81158,18.77517 2.13564,11.01639 0.15589,16.20311 -13.2168,34.51045 -5.92597,8.11056 -10.90796,16.02927 -10.92643,17.70232 0,1.67295 -1.35967,7.03137 -2.99532,11.80148 l -2.99589,8.58289 -3.52475,-6.97357 c -7.2891,-14.3035 -4.69274,-24.81909 13.74566,-58.64994 4.90174,-8.99409 6.71752,-14.77 5.81511,-18.41755 -1.33022,-5.37696 -0.64433,-8.21483 1.93876,-8.22534 z m -229.62029,0.89409 c -0.34063,0.0681 -0.70899,0.36085 -1.05771,0.71523 -1.11025,1.1267 6.80008,35.57024 9.86872,42.91459 1.14201,2.73222 3.64196,5.00671 5.46293,5.00671 4.43524,-6e-5 4.11943,-2.90115 -0.70495,-7.3312 -2.56461,-2.35508 -4.85844,-9.79199 -6.69673,-21.27857 -2.22282,-13.89196 -4.47508,-20.50475 -6.87226,-20.02676 z m -95.33741,0.35738 c -1.87987,0.40761 -4.53339,4.24275 -4.58189,7.33119 0,1.17094 1.6778,0.62256 3.70027,-1.43051 2.02363,-2.05296 2.83077,-4.6387 1.93876,-5.54306 -0.31177,-0.31697 -0.62412,-0.4515 -1.05714,-0.35739 z m -279.139989,1.96688 c 10.547114,0 24.576254,14.75285 32.601484,34.15295 3.785714,9.15153 6.872829,17.99851 6.872829,19.84795 5.77e-4,1.84909 0.898364,3.39744 1.938757,3.39744 2.013235,6e-5 4.542049,-12.63517 4.581889,-22.70903 0,-3.73358 1.29038,-6.07955 3.17198,-6.07955 4.44968,0 6.49236,18.8131 3.34808,30.93432 -1.41567,5.45889 -3.13215,15.32744 -3.70084,21.81488 -0.92723,10.57951 -0.61084,11.63399 2.99589,10.9075 2.60503,-0.52482 3.92024,-2.27766 3.52475,-5.18557 -0.82215,-6.05316 8.02639,-19.05865 15.50775,-22.70891 7.90398,-3.85662 9.84389,-1.6099 4.05303,4.64903 -5.29723,5.72545 -13.49913,22.93928 -13.56899,28.60977 -0.0577,3.11402 2.06635,3.93519 10.397,4.11267 22.00934,0.46881 27.75459,5.96326 12.68795,11.80147 -5.27876,2.04592 -11.22955,5.62084 -13.3929,8.04648 -3.76031,4.21596 -3.90292,5.01779 -0.35219,20.02687 2.04269,8.6363 3.36425,16.25577 2.8198,16.80818 -1.97974,2.00856 -5.74987,-2.23026 -10.22148,-11.26505 -5.65692,-11.43255 -14.60419,-23.60307 -17.26983,-23.60307 -3.003402,6e-5 -0.12702,6.4565 9.33986,20.7421 4.6887,7.07629 8.16033,13.05526 7.75388,13.41079 -0.40415,0.35508 -13.74797,1.16424 -29.605595,1.78813 -20.839038,0.82025 -28.724547,0.39491 -28.724547,-1.43051 0,-4.29425 10.832327,-14.48364 15.331652,-14.48364 4.714678,-5e-5 5.873428,-4.01354 1.585993,-5.54318 -1.495926,-0.53347 -8.048901,-1.58518 -14.450609,-2.14574 -6.401708,-0.56061 -12.165439,-1.43628 -12.864038,-2.14574 -2.458376,-2.49411 2.841162,-5.46148 11.454138,-6.25835 4.787425,-0.44283 8.851424,-1.70585 8.98768,-2.86096 0.369507,-3.11189 -12.519358,-17.5431 -18.503639,-20.7421 -4.090557,-2.18644 -4.666757,-3.30103 -2.290943,-4.82784 1.657585,-1.06528 5.913266,-1.76959 9.339866,-1.78813 6.120536,-0.0346 6.15691,-0.36777 4.757979,-9.8346 -0.991318,-6.70799 0,-14.84627 3.171987,-26.82164 3.680635,-13.93584 4.012614,-19.16916 2.290943,-27.35812 -2.364267,-11.25103 -1.204362,-14.23381 2.995893,-8.40403 3.06633,4.25418 5.639023,4.91109 5.639023,1.60926 0,-3.66546 -20.451056,-21.99369 -24.494848,-21.99369 -2.116004,0 -3.876936,-1.11014 -3.876936,-2.32461 0,-1.2144 2.745899,-2.14573 6.167879,-2.14573 z m 558.103309,0.35796 c 0.62412,-0.0728 1.31406,-0.0289 1.93818,0 9.35776,0.43012 18.36276,11.95152 19.91354,26.10635 0.73151,6.67422 0.81984,14.92537 0.35218,18.41756 -1.88448,14.06569 -7.57777,12.32167 -7.57777,-2.32455 0,-16.26003 -9.35719,-33.79528 -17.97479,-33.79528 -6.76255,-5e-5 -3.73894,-7.57552 3.34808,-8.40408 z m -269.44736,0.35738 c -0.67435,0.26212 -1.72167,1.41694 -3.34808,3.39744 -2.35387,2.86691 -4.2297,6.24196 -4.2297,7.51006 0,1.26793 2.01208,0.40992 4.40579,-1.78807 2.39314,-2.19805 4.26896,-5.57309 4.22913,-7.51011 0,-1.33814 -0.38106,-1.87144 -1.05714,-1.60932 z m 8.63492,3.75511 c -1.21938,-0.23671 -3.13735,1.12099 -4.05303,3.755 -0.73902,2.12513 -1.94627,5.09798 -2.64371,6.61597 -0.69745,1.51792 -0.1963,2.86096 1.05771,2.86096 2.43413,6e-5 6.87283,-6.99904 6.87283,-10.90744 0,-1.42035 -0.5023,-2.18252 -1.2338,-2.32449 z m 51.98616,1.07279 c -1.12757,-0.0837 -3.14081,0.34006 -6.34397,1.07289 -9.30176,2.12877 -12.20239,4.47034 -5.63902,4.47034 2.59347,6e-5 4.75797,0.93134 4.75797,2.14569 0,3.7442 3.96874,2.35808 6.34398,-2.14569 2.05769,-3.9013 2.76148,-5.40328 0.88104,-5.54323 z m 13.3929,1.2517 c -0.95264,0.11836 -1.21707,1.23427 -0.53117,3.39739 0.72747,2.28799 2.6414,8.66141 4.05361,14.12607 1.41105,5.46484 2.77361,11.17759 3.17198,12.69557 1.66567,6.35113 2.94567,2.08148 1.93818,-6.61596 -1.65527,-14.2785 -4.15811,-22.32735 -7.40111,-23.42426 -0.50807,-0.17206 -0.91626,-0.21824 -1.2338,-0.17898 z m -58.33014,4.8279 c -0.5941,0.15011 -1.545,1.03011 -2.64313,2.50335 -1.75747,2.35751 -3.21009,5.33025 -3.17199,6.61602 0.0577,1.28594 1.59061,0.56927 3.34808,-1.78812 1.75689,-2.3574 3.21009,-5.33026 3.17199,-6.61603 0,-0.48209 -0.34641,-0.80523 -0.70495,-0.71522 z m 9.69263,1.60932 c -1.58138,-6e-5 -6.87283,9.5208 -6.87283,12.33789 0,2.74417 4.54436,0.34872 6.52006,-3.39739 2.72454,-5.16455 2.83193,-8.9405 0.35219,-8.9405 z m 21.49895,2.14573 c -3.59057,0 -6.52006,1.0307 -6.52006,2.14568 0,1.11511 -0.68359,3.62221 -1.4099,5.54319 -0.72632,1.92091 -0.31755,3.39738 0.88104,3.39738 1.19686,0 2.80421,-1.49188 3.52475,-3.39738 0.87065,-2.30232 2.73955,-3.0795 5.63902,-2.1458 3.09982,0.99825 4.40579,0.49191 4.40579,-1.96687 0,-2.37339 -2.04325,-3.5762 -6.52064,-3.5762 z m 11.98357,7.33125 c -0.32331,0.0289 -0.69629,0.31004 -1.05771,0.53637 -1.00113,0.62804 -1.03346,4.27969 0,8.22528 1.03404,3.94541 2.5011,9.89251 3.17256,13.23198 2.13622,10.62547 3.91966,6.46672 2.64313,-6.07954 -1.15644,-11.37262 -2.48955,-16.11576 -4.75798,-15.91415 z m -29.42949,3.755 c -1.19686,0 -2.11485,0.93139 -2.11485,2.14574 0,1.21435 0.91799,2.32449 2.11485,2.32449 1.19685,-6e-5 2.11485,-1.11014 2.11485,-2.32449 0,-1.21435 -0.918,-2.14574 -2.11485,-2.14574 z m 19.56077,2.14574 c -3.08538,0 -2.68354,11.91718 0.53117,15.19892 2.18413,2.2313 2.93238,2.00942 3.52475,-0.89404 1.05425,-5.17638 -1.53634,-14.30488 -4.05361,-14.30488 z m -44.76115,13.41085 c -2.62234,0.0462 -5.64248,2.36929 -9.33986,7.15239 -4.579,5.9251 0.38682,4.45486 6.16788,-1.78807 2.81114,-3.03602 4.27819,-5.38285 3.17198,-5.36432 z m 335.88414,8.7617 c 6.83357,6e-5 9.80117,1.55453 16.56488,8.5829 4.80994,4.99793 8.01426,10.23176 7.57778,12.51682 -1.28808,6.74154 -5.55877,5.79866 -10.397,-2.14574 -8.07951,-13.26415 -23.68251,-14.36043 -37.36004,-2.68222 -8.09163,6.90851 -10.57945,6.1352 -5.46293,-1.78806 4.82841,-7.47744 18.84081,-14.4837 29.07731,-14.4837 z m -309.09777,2.32455 c -8.34162,0.61979 -34.18748,23.10671 -34.18748,30.93431 0,6.64408 5.71639,4.89932 8.81101,-2.68221 3.32441,-8.14313 16.09319,-21.45473 23.43771,-24.3183 2.85964,-1.11464 4.59863,-2.66518 3.87694,-3.39738 -0.43879,-0.44399 -1.07561,-0.60051 -1.93818,-0.53636 z m 58.85899,4.47028 c -0.8285,0.0289 -1.92085,0.38683 -3.34808,0.71523 -3.29149,0.75697 -9.15164,1.92444 -13.0407,2.68222 -6.04144,1.17699 -7.04893,2.39694 -7.04893,7.86761 0,7.01387 -4.9664,10.44723 -9.51653,6.61602 -3.52591,-2.96939 -16.827,-1.06764 -29.25283,4.29148 -8.87105,3.82595 -13.39347,10.35064 -13.39347,18.77505 0,3.68612 11.26881,9.10552 24.67152,11.80159 17.58564,3.53774 29.67891,1.30459 40.00317,-7.51006 6.88149,-5.87545 13.56898,-24.40229 13.56898,-37.55027 0,-5.97245 -0.15588,-7.78061 -2.64313,-7.68887 z M 85.292598,602.77122 c -0.0866,0.0808 -0.121244,0.28232 -0.173206,0.53636 -0.444563,2.03361 0.242489,7.98181 1.58657,13.05324 3.503388,13.20207 4.889617,9.35574 1.762087,-4.82796 -1.264407,-5.73353 -2.558259,-9.32687 -3.171987,-8.7617 z m 10.044816,35.40459 c -0.43879,-0.0404 -0.751138,0.22633 -1.233229,0.71523 -0.729199,0.73988 -0.05774,4.33351 1.585993,8.04648 3.844027,8.81141 6.383812,8.69092 3.876936,-0.17898 -1.657008,-5.86246 -2.903516,-8.46171 -4.2297,-8.5829 z M 214.6414,695.21643 c 0.92492,0.0577 1.40412,0.48209 1.76266,1.43051 2.03402,5.37748 -3.10906,11.72018 -11.63081,14.48369 -13.05226,4.23253 -13.32246,6.61597 -0.88162,6.61597 9.46342,5e-5 13.20352,-1.33941 22.55725,-7.86767 l 11.27804,-7.68887 2.8198,5.00671 c 4.01204,7.33604 3.38388,12.40712 -1.58599,15.55653 -2.39372,1.51671 -4.2297,3.59507 -4.2297,4.64909 0,2.88037 10.85426,-0.52539 17.79869,-5.54312 l 6.16787,-4.29148 0,5.36432 c 0,2.95501 -2.10157,7.88672 -4.58188,11.08636 -3.2482,4.19125 -3.74241,5.90068 -1.58599,5.90068 4.86825,0 38.76936,17.17757 38.76936,19.6692 0,3.3307 -5.9456,2.93654 -20.79458,-1.78812 -10.74804,-3.42002 -14.95522,-3.84062 -22.90886,-1.96693 -5.34515,1.25903 -15.32588,2.42546 -22.20448,2.68221 -8.05525,0.3008 -13.99912,1.75631 -16.56488,4.11261 -5.86535,5.38591 -19.32117,4.63951 -29.60559,-1.78806 -4.78742,-2.9918 -11.74108,-5.51819 -15.33165,-5.54318 -8.48134,-0.0583 -10.53037,-1.53917 -18.15145,-13.05318 -6.5449,-9.8887 -6.85551,-16.62764 -0.88105,-18.95392 1.87929,-0.73168 15.78257,3.17291 30.8394,8.58289 40.07534,14.39842 43.78831,15.47051 46.34714,12.87443 3.3527,-3.40235 0.54849,-6.41718 -6.34397,-6.61602 -3.38272,-0.0976 -13.62961,-3.04953 -22.55667,-6.61608 -28.9272,-11.55673 -47.45451,-16.64906 -56.39196,-15.19886 -6.26141,1.0158 -9.56619,0.46189 -13.39289,-2.68216 -4.33189,-3.55921 -4.6148,-4.63292 -2.11485,-7.68892 3.59576,-4.39678 10.35197,-4.72316 12.68794,-0.53636 2.51496,4.50689 33.25274,5.88561 49.16695,2.14574 6.95712,-1.63478 17.03138,-5.55317 22.37999,-8.5829 4.90232,-2.7769 7.62282,-3.84726 9.16378,-3.75505 z m -134.282874,7.15244 c 0.774232,-0.0346 1.55597,-0.004 2.467036,0 12.372132,0.0577 31.109018,5.16173 30.839398,8.40409 -0.12125,1.43883 -0.35219,4.0793 -0.53117,5.90074 -0.17898,1.82167 -1.64199,3.21863 -3.17198,3.21863 -4.37751,-5e-5 -34.936309,15.51237 -33.48253,16.98699 0.717074,0.72747 10.556352,-2.84116 21.851718,-7.86761 20.444702,-9.0979 20.628302,-9.05962 27.314642,-5.18551 7.36416,4.26671 7.30931,4.91698 -0.17898,22.88778 -2.33078,5.59566 -6.91786,12.18478 -10.2209,14.6625 l -5.99179,4.47028 -9.16377,-8.40415 c -4.999894,-4.68506 -8.987105,-10.57563 -8.987105,-13.05318 0,-4.76283 -3.316325,-6.1386 -5.639022,-2.32454 -1.841762,3.02464 -34.832959,19.84801 -38.946034,19.84801 -4.17947,5e-5 -8.091047,-7.36156 -6.343972,-11.98034 0.745364,-1.97034 6.753894,-7.06988 13.216802,-11.26506 11.63485,-7.55203 17.227684,-16.29687 14.802795,-22.70903 -0.67435,-1.78316 0.265583,-5.53925 2.11485,-8.40409 2.33309,-3.61239 4.625188,-4.9466 10.044815,-5.18551 z"
     id="path9111" />
</svg>
