<?xml version="1.0" encoding="UTF-8" standalone="no"?>
<!-- Created with Inkscape (http://www.inkscape.org/) -->

<svg
   xmlns:dc="http://purl.org/dc/elements/1.1/"
   xmlns:cc="http://creativecommons.org/ns#"
   xmlns:rdf="http://www.w3.org/1999/02/22-rdf-syntax-ns#"
   xmlns:svg="http://www.w3.org/2000/svg"
   xmlns="http://www.w3.org/2000/svg"
   xmlns:sodipodi="http://sodipodi.sourceforge.net/DTD/sodipodi-0.dtd"
   xmlns:inkscape="http://www.inkscape.org/namespaces/inkscape"
   width="1000"
   height="1000"
   id="svg2"
   version="1.1"
   inkscape:version="0.47 r22583"
   sodipodi:docname="B.svg">
  <defs
     id="defs4">
    <inkscape:perspective
       sodipodi:type="inkscape:persp3d"
       inkscape:vp_x="0 : 526.18109 : 1"
       inkscape:vp_y="0 : 1000 : 0"
       inkscape:vp_z="744.09448 : 526.18109 : 1"
       inkscape:persp3d-origin="372.04724 : 350.78739 : 1"
       id="perspective10" />
    <inkscape:perspective
       id="perspective2901"
       inkscape:persp3d-origin="0.5 : 0.33333333 : 1"
       inkscape:vp_z="1 : 0.5 : 1"
       inkscape:vp_y="0 : 1000 : 0"
       inkscape:vp_x="0 : 0.5 : 1"
       sodipodi:type="inkscape:persp3d" />
  </defs>
  <sodipodi:namedview
     id="base"
     pagecolor="#ffffff"
     bordercolor="#666666"
     borderopacity="1.0"
     inkscape:pageopacity="0.0"
     inkscape:pageshadow="2"
     inkscape:zoom="0.532"
     inkscape:cx="500"
     inkscape:cy="500"
     inkscape:document-units="px"
     inkscape:current-layer="svg2"
     showgrid="false"
     showborder="true"
     inkscape:showpageshadow="false"
     showguides="true"
     inkscape:guide-bbox="true"
     inkscape:window-width="1280"
     inkscape:window-height="750"
     inkscape:window-x="0"
     inkscape:window-y="26"
     inkscape:window-maximized="1">
    <sodipodi:guide
       orientation="0,1"
       position="0,200"
       id="guide2818" />
  </sodipodi:namedview>
  <metadata
     id="metadata7">
    <rdf:RDF>
      <cc:Work
         rdf:about="">
        <dc:format>image/svg+xml</dc:format>
        <dc:type
           rdf:resource="http://purl.org/dc/dcmitype/StillImage" />
        <dc:title />
      </cc:Work>
    </rdf:RDF>
  </metadata>
  <g
     inkscape:label="Layer 1"
     inkscape:groupmode="layer"
     id="layer1" />
  <path
     style="fill:#800000"
     d="M 0,0 0,6.3651033 0,793.6349 0,800 l 6.0876844,0 724.9713856,0 6.08769,0 0,-6.3651 0,-787.2697967 L 737.14676,0 731.05907,0 6.0876844,0 0,0 z m 83.616128,12.54834 636.520892,0 3.04387,4.728303 c 0.8169,1.269256 1.36094,3.882536 1.7905,8.911122 l 0,180.950255 c -0.48498,74.80039 -0.48556,126.24268 0,174.40329 l 0,402.81879 c -4.69424,1.29697 -25.48386,2.28921 -60.51871,3.09156 l -647.442948,0 c -2.730945,-0.38567 -4.027914,-0.93035 -4.834363,-1.45482 l 0,-769.447606 3.401889,-0.727467 c 5.947214,-1.133116 34.760094,-2.340076 68.03887,-3.273427 z m -62.667337,8.547388 1.611455,57.831299 c 0.882775,31.816223 1.80839,201.115063 1.969529,376.085483 0.161082,174.97042 1.136176,318.86173 2.148568,319.89093 1.012911,1.02913 44.73222,2.38591 97.223917,3.09156 52.49105,0.70558 97.47766,1.21954 99.90959,0.90927 2.43193,-0.31004 71.54462,-1.28883 153.62447,-2.00042 208.04851,-1.80388 320.39328,-3.43976 328.7349,-4.91028 4.50908,-0.79485 7.69573,-2.94509 8.59433,-5.81945 0.77885,-2.49313 0.66904,-122.38052 -0.35796,-266.42419 -1.02717,-144.04339 -1.8547,-272.55074 -1.79049,-285.5194 0.0635,-12.96836 0.31696,-57.19863 0.53694,-98.38601 0.2217,-41.187492 -0.31986,-78.862996 -1.07429,-83.655386 -1.22578,-7.787935 -2.25855,-8.874286 -9.1315,-10.18413 -4.22923,-0.805929 -58.48319,-0.761935 -120.6794,0 -133.07631,1.630334 -324.22836,1.592401 -326.76531,0 C 254.52706,21.39168 207.0882,21.089377 150.22241,21.277595 93.357254,21.465235 40.964231,21.598027 33.840253,21.459461 L 20.948734,21.095728 z m 502.770989,5.273903 c 3.57666,-0.04041 6.96342,0.333134 9.66861,1.0912 5.3582,1.500776 6.78092,3.316498 7.34112,9.092931 0.38048,3.932708 1.62647,7.092743 2.86472,7.092512 1.23843,0 12.75509,-3.676709 25.60406,-8.183655 22.17365,-7.777716 24.025,-7.965241 36.34707,-5.637636 7.13974,1.348412 15.61981,4.369997 18.80017,6.910646 3.17932,2.540533 6.94361,4.728534 8.4154,4.72836 1.47179,0 4.42364,1.894647 6.62486,4.364628 3.98432,4.472131 3.99327,4.546725 -28.82709,4.546494 -26.24486,0 -36.129,0.99865 -48.34328,4.546494 L 546.8172,59.286232 530.88175,49.283968 c -14.21689,-8.999687 -29.54318,-15.08385 -29.54318,-11.639006 0,0.702294 5.7926,3.956957 13.07056,7.274379 14.02418,6.392354 21.11369,12.184838 14.86117,12.184549 -1.89575,0 -11.73514,-2.084828 -21.84404,-4.546494 -18.7172,-4.557175 -49.7772,-5.812113 -58.19105,-2.364152 -5.7202,2.343713 6.48225,4.163131 39.928,5.637637 16.3288,0.719672 26.69179,2.256879 31.51264,4.728361 3.94905,2.024667 12.41336,4.083628 18.80023,4.72836 9.45089,0.953963 13.73844,0.176093 23.63453,-4.546494 8.98975,-4.290206 15.74607,-5.803395 25.96219,-5.819503 7.5996,-0.01155 13.96586,0.281172 13.96586,0.727409 6e-5,0.446295 -9.19402,10.172584 -20.23258,21.459461 -11.03862,11.287052 -20.40498,20.368435 -20.94879,20.368262 -1.39235,0 -5.37154,-10.857615 -5.37154,-14.730625 0,-4.20828 -4.43108,-3.999277 -10.56385,0.363733 -5.36802,3.818624 -26.6086,10.002495 -34.37749,10.002264 -2.68833,0 -6.25511,-2.270504 -7.87817,-4.910227 -2.69654,-4.385874 -4.1965,-4.653074 -18.26311,-3.455294 -13.78787,1.173993 -15.80266,0.911585 -19.15824,-3.273485 -12.63778,-15.760856 -12.5402,-15.830889 -21.48597,-15.639901 -39.17304,0.836414 -50.47078,0.0015 -56.75869,-4.546494 -7.67414,-5.550052 -6.97178,-9.613069 1.7905,-10.547864 3.55431,-0.379322 14.91006,-2.624134 25.24598,-5.092094 14.80799,-3.535431 22.63744,-4.090961 36.88424,-2.909752 17.4756,1.448179 18.55167,1.16718 34.19839,-6.365045 12.95947,-6.238316 26.87042,-9.883502 37.60044,-10.002264 z M 119.9632,28.18824 c 6.06522,0.0739 12.06549,1.675426 18.08395,4.728361 9.56077,4.849836 10.00827,4.844178 20.41163,1.091143 14.851,-5.357389 16.22897,-5.071829 14.50303,2.909751 -1.78374,8.249473 1.05072,8.524121 18.80022,2.182285 12.19581,-4.35741 25.55799,-5.542719 34.55646,-3.09156 3.44669,0.939067 5.2843,3.588085 6.26678,9.456663 1.16978,6.984721 2.65508,8.923073 10.56397,12.366474 8.04654,3.503387 8.7837,4.386682 5.37148,6.365045 -2.68187,1.554874 -6.07608,1.424449 -10.92205,-0.181867 -3.9136,-1.297488 -15.0234,-2.210632 -24.52983,-2.000418 -18.8799,0.41685 -17.70048,-0.712282 -13.2496,13.639425 1.78207,5.745371 -10.52881,5.321708 -15.75635,-0.5456 -2.20128,-2.470154 -5.4295,-4.546263 -6.98299,-4.546437 -1.55343,0 -3.34623,2.076572 -4.11809,4.546437 -2.17397,6.957123 -11.13873,5.701203 -17.00974,-2.364152 -2.98711,-4.103778 -6.79309,-6.754182 -9.48963,-6.546912 -10.02241,0.769556 -11.8573,-0.433016 -16.29346,-11.275331 l -4.47623,-11.093406 -15.93539,-0.5456 C 90.457722,42.483367 87.551896,38.908733 101.34201,32.55281 c 6.29767,-2.902708 12.55533,-4.438529 18.62119,-4.364627 z m -71.44082,6.546913 c 2.712874,0.01732 6.287738,0.794209 7.878234,1.818609 3.888483,2.505026 1.138832,13.327999 -4.118155,16.1855 -5.996173,3.259571 -8.23654,2.611029 -9.847763,-2.546018 -2.445039,-7.825233 0.546177,-15.496659 6.087684,-15.458091 z m 633.47714,0 c 4.89608,-0.132215 9.77565,2.109365 14.32399,6.728836 5.81806,5.909282 6.51233,7.956697 5.37148,15.094358 -0.76257,4.775531 -3.53757,9.910811 -6.44582,12.184549 -6.30482,4.928184 -5.1653,5.072118 -18.26305,-2.182285 -9.78397,-5.419107 -11.04439,-6.959836 -11.6382,-14.185024 -0.5456,-6.633573 0.362,-9.053209 5.19244,-12.912074 3.75361,-2.99901 7.65174,-4.625476 11.45916,-4.72836 z m -597.488204,7.638112 5.908647,5.637637 c 9.204821,8.836065 9.850597,15.87904 2.506758,26.551498 C 89.487708,79.558942 84.439955,84.871354 81.64654,86.201406 74.59017,89.561032 67.534147,89.082232 61.95107,85.110264 49.267629,76.086962 56.464643,53.758466 74.484572,46.374217 l 10.026744,-4.000952 z m 109.936454,3.455352 c -10.16173,0 -33.66133,6.598008 -33.66133,9.456664 0,2.370733 19.73756,0.376435 28.28979,-2.909694 2.81519,-1.08127 7.71063,-2.000245 10.74301,-2.000476 3.11281,0 4.88939,-0.914183 4.11816,-2.182343 -0.75114,-1.235077 -5.08124,-2.36392 -9.48963,-2.364151 z m 489.52134,2.364151 c -1.1927,0.309462 -0.90125,1.294545 0.71615,3.273485 1.4696,1.79846 2.03771,4.348635 1.25332,5.637637 -1.96555,3.229664 -10.76685,2.863505 -14.32394,-0.5456 -2.36397,-2.264962 -2.74468,-2.172239 -1.96953,0.5456 0.52828,1.852731 4.22474,5.021253 8.23631,7.092512 4.01089,2.070913 8.63382,3.340689 10.20578,2.727943 6.62596,-2.582738 4.45401,-18.731346 -2.50675,-18.731577 -0.73804,0 -1.21389,-0.103346 -1.61134,0 z m -56.22158,9.092989 c 15.80185,-0.403571 34.3455,6.130697 43.50898,16.7311 3.68393,4.261743 7.46664,7.820152 8.41535,7.819922 5.42245,2.3e-4 23.73608,32.020661 25.42508,44.555611 1.16585,8.65096 -5.2455,10.95767 -13.60779,4.91017 -3.87821,-2.80491 -7.53251,-4.53362 -8.23631,-3.81903 -0.70368,0.71453 0.9841,6.75383 3.76002,13.27575 4.52271,10.62667 10.85346,31.61784 10.92205,36.00822 0.0716,4.61225 -6.70251,0.75189 -10.92205,-6.18324 -3.90765,-6.42174 -8.9524,-10.36663 -8.9524,-7.09251 -6e-5,2.43713 12.67767,32.11644 19.51638,45.82856 6.08375,12.19973 7.45295,16.79917 5.55045,18.73152 -1.90232,1.93257 -5.60294,-0.38106 -14.86111,-9.2748 -11.95302,-11.4822 -15.42916,-11.50754 -8.9524,0 2.0999,3.73063 3.17066,12.60423 3.22285,26.5515 0.0404,11.54305 1.32601,26.18701 3.04382,32.55281 1.7174,6.36545 3.75453,20.47305 4.47634,31.27986 1.10714,16.5923 0.84179,19.64108 -1.96959,19.64085 -1.83108,0 -3.40194,-1.37128 -3.40194,-3.09162 0,-1.72063 -1.52301,-3.81395 -3.40195,-4.54649 -1.87894,-0.73226 -4.80572,-4.85302 -6.6248,-9.27486 -2.13476,-5.18897 -5.66257,-8.76551 -9.66872,-10.18413 -5.87591,-2.08056 -5.98988,-2.77084 -5.0134,-13.09388 0.89761,-9.49108 0.25865,-11.35755 -3.93906,-13.63948 -3.86141,-2.09898 -4.51613,-3.94108 -3.40195,-9.09294 0.93243,-4.31162 0.2575,-8.35986 -2.32766,-12.36647 -3.38942,-5.25496 -3.54536,-7.46236 -1.25338,-18.73152 3.80904,-18.73192 3.3859,-23.25232 -1.6114,-21.64127 -7.82275,2.52171 -10.10682,-4.16209 -6.44576,-18.54971 1.80268,-7.0831 4.03687,-14.61157 5.0134,-16.91291 1.62266,-3.82451 1.04126,-4.16642 -7.34106,-2.72788 -7.50492,1.28785 -9.38438,0.9397 -10.56397,-2.18234 -3.22764,-8.54277 12.88032,-28.51416 29.00612,-35.8263 18.07865,-8.19786 30.18415,-26.12056 27.39455,-40.73658 -1.5659,-8.202534 -5.78925,-5.445839 -7.16197,4.72836 -2.15266,15.95167 -10.97724,26.88873 -26.6784,32.73474 -14.96041,5.5695 -32.94194,5.04457 -42.43475,-1.27301 -8.4635,-5.63273 -16.26841,-24.63907 -16.29347,-39.827251 -0.0173,-11.280584 0.87677,-13.82464 7.16197,-21.095728 3.93317,-4.549381 10.21277,-9.606603 14.14484,-11.275273 4.21255,-1.787721 9.23577,-2.77517 14.50309,-2.909751 z M 81.288465,59.286232 c -2.985443,0 -5.033204,4.230739 -3.401946,6.910646 0.763089,1.255342 2.269754,1.620057 3.401946,0.909276 2.68568,-1.68576 2.690588,-7.819691 0,-7.819922 z m 419.333905,0.181867 c -6.04023,0.04619 -21.95865,8.845707 -23.27646,12.912016 -0.70968,2.191522 1.15604,1.899958 7.52005,-0.909276 4.68384,-2.067969 11.33843,-4.823451 14.68207,-6.183237 7.35699,-2.991793 7.88418,-5.870079 1.07434,-5.819503 z m 32.76602,10.729673 c -1.51215,0.05947 -4.95653,1.290445 -10.02674,4.182819 -6.07833,3.467649 -11.09935,7.075769 -11.10103,8.001788 -0.003,2.762988 2.44296,2.005441 12.53345,-4.000894 8.38607,-4.991808 11.11396,-8.283595 8.59432,-8.183713 z m 119.42603,2.546076 c -4.73275,0 -4.44384,6.181158 0.35796,7.456246 6.93553,1.840664 11.6382,1.664975 11.6382,-0.5456 6e-5,-2.665069 -7.29834,-6.91053 -11.99633,-6.910704 z M 82.720882,75.289866 c -1.050555,0.118935 -2.290424,0.590749 -3.93906,1.636743 -2.663914,1.689801 -7.290949,2.30503 -11.101085,1.454876 -7.188757,-1.60343 -8.720017,1.780099 -2.5067,5.455769 5.812113,3.438436 10.502541,2.949763 16.293523,-1.818609 4.589565,-3.779074 4.403772,-7.085122 1.253322,-6.728779 z m -32.407952,6.54697 c 0.846863,0 1.326241,13.933876 1.253379,30.916064 -0.08545,19.82538 0.929714,33.11608 2.68568,37.28123 4.35181,10.32241 5.524822,5.27546 2.685738,-11.82087 -2.631236,-15.84428 -1.258171,-45.10092 2.148625,-45.101151 3.234283,0 7.038241,21.209521 4.834363,27.097041 -1.622597,4.33536 -0.749175,8.42297 3.93906,18.91339 3.303392,7.39077 7.655202,15.23136 9.847706,17.4585 3.841255,3.90154 3.890735,4.19316 -0.17898,5.27397 -2.473387,0.65708 -6.752162,6.55303 -10.384877,14.36689 -9.934771,21.36876 -17.8529,16.54155 -20.232583,-12.36648 -0.604721,-7.35526 -2.013466,-14.41134 -3.222966,-15.6399 -2.867316,-2.91229 -2.86951,-25.29563 0,-27.09704 3.495131,-2.19394 2.523386,-7.45717 -2.506643,-14.36689 -3.965214,-5.44722 -4.288821,-7.274435 -1.96953,-11.820871 3.297446,-6.464236 9.002228,-13.093652 11.101086,-13.093883 z m 604.29198,2.182285 c -4.68916,0 -3.58035,4.217344 3.04387,11.275273 6.18064,6.584616 9.55574,7.437656 11.10103,2.727943 1.03271,-3.145717 -9.91618,-14.002985 -14.1449,-14.003216 z m -431.68836,3.273485 c 5.63971,-0.295028 10.7941,3.612335 21.84409,14.003154 16.30374,15.33194 22.12579,16.49964 53.35674,10.18413 12.58339,-2.54492 33.42687,-5.74392 46.19478,-7.09251 12.76791,-1.34841 29.23013,-3.33255 36.52611,-4.36463 19.03347,-2.692719 66.06818,-1.544649 82.89986,2.00048 30.30176,6.38248 65.41404,20.01076 82.72088,32.18914 42.48181,29.8942 58.91055,49.56421 69.65027,82.92792 3.63438,11.29028 6.41048,20.76761 6.08774,21.09572 -0.32332,0.32794 -5.85755,-2.09862 -12.17543,-5.27396 -19.76285,-9.93413 -37.58503,-6.11886 -48.52244,10.366 -9.21013,13.88168 -4.89758,33.3465 9.66873,43.10073 6.61504,4.43016 30.4457,5.99641 32.76603,2.18229 0.66188,-1.08733 3.56689,-2.49781 6.62479,-3.09162 5.05399,-0.98104 5.72967,-0.36489 5.72967,6.54697 6e-5,18.72113 -31.92228,67.94909 -57.29586,88.38375 -18.34712,14.77519 -23.11283,16.04624 -35.63086,9.09293 -4.25597,-2.36369 -17.09605,-7.54412 -28.64793,-11.45714 -11.55194,-3.91337 -21.99571,-7.88418 -23.09736,-8.91112 -1.14408,-1.0673 3.74143,-8.16992 11.45916,-16.54918 11.54582,-12.53748 14.4244,-17.40995 19.51643,-33.28033 10.909,-33.99447 9.72289,-82.34895 -2.86489,-120.7547 -8.50108,-25.93881 -44.74879,-52.75895 -84.69035,-62.55966 -31.19337,-7.65439 -58.76898,-10.13216 -79.67707,-7.27443 -17.46578,2.38759 -41.89758,11.2445 -41.89758,15.27622 0,2.98262 16.36812,18.54989 19.51643,18.54965 1.8372,0 2.60196,-2.36894 2.14863,-7.09251 -0.93301,-9.72103 4.09662,-10.68516 15.93539,-2.72788 l 9.13149,6.18323 10.2059,-10.54786 10.02674,-10.72973 6.26673,6.3651 c 4.73661,4.81121 6.67912,9.44015 7.69908,18.18598 1.43097,12.27485 3.95234,14.88841 6.44582,6.91064 1.88933,-6.04675 16.23578,-22.18663 19.69541,-22.18687 4.00938,0 16.65165,14.23809 16.65165,18.73152 -5e-5,6.13526 -4.18114,13.29786 -11.81729,20.00459 -5.31247,4.66595 -5.99617,5.95535 -3.04381,6.00137 6.28566,0.0982 5.2142,14.7088 -1.61146,21.64127 -6.42289,6.52393 -6.89171,7.63828 -2.32766,7.63805 1.8398,0 5.65074,4.41503 8.23631,9.82046 5.86656,12.26434 4.22554,21.64144 -3.58104,21.64127 -10.79093,0 -18.61443,-2.71184 -19.69547,-6.91065 -2.42697,-9.42646 -26.6056,-0.48209 -35.8099,13.27575 -5.32113,7.953 -7.78135,25.09674 -3.58098,25.09657 3.40414,0 14.30754,-18.44106 11.81729,-20.00453 -3.88156,-2.4365 0.17032,-6.29455 9.48963,-8.91112 4.86398,-1.36579 9.88506,-2.39654 11.10114,-2.36415 4.56012,0.12124 9.40274,5.88688 10.92188,12.91201 l 1.61151,7.09251 -9.84771,0 c -5.36576,0 -10.48002,0.82406 -11.28012,1.63675 -2.76074,2.80403 3.53751,7.45642 10.02674,7.45624 3.57891,0 8.61517,1.01303 11.10109,2.36415 4.31688,2.34672 4.23085,2.73453 -2.86483,7.09257 -4.08554,2.50948 -8.17679,5.70427 -9.13144,7.09252 -4.51954,6.57554 4.33137,31.81004 14.68201,41.64579 6.87404,6.53208 7.37357,9.09322 1.43241,9.09299 -2.43187,0 -4.47623,-0.92867 -4.47623,-2.00047 0,-2.67223 -24.03457,-39.03385 -27.03641,-40.91839 -1.32873,-0.83416 -3.6848,-1.133 -5.19256,-0.5456 -1.50724,0.58751 -3.49426,0.0462 -4.29713,-1.27301 -0.80345,-1.31955 -3.9326,-2.36392 -6.98293,-2.36415 -6.39068,0 -6.04179,2.00515 2.68574,21.82313 2.85536,6.48416 4.19234,11.82111 3.04381,11.82088 -1.14905,0 -1.96953,-0.8602 -1.96953,-2.00048 0,-1.14033 -2.60248,-5.13661 -5.72955,-8.91112 -3.12759,-3.77457 -5.10653,-7.94428 -4.29725,-9.2748 1.94816,-3.20091 -0.64012,-13.45738 -3.40195,-13.45761 -1.19304,0 -2.14857,1.69159 -2.14857,3.81902 0,3.38671 -0.39779,3.33267 -3.04381,-0.5456 -4.9548,-7.26179 -10.20584,-28.9347 -10.20584,-42.00953 0,-9.54188 -1.04651,-13.05041 -4.65527,-16.36737 -3.88144,-3.56787 -4.24788,-5.70484 -2.86477,-13.27574 0.90633,-4.95717 1.43132,-12.29338 1.25332,-16.1855 -0.3187,-6.96296 -8.4299,-25.72831 -15.93539,-36.73563 -2.10544,-3.0877 -4.49413,-10.94185 -5.19244,-17.64032 -0.69843,-6.69847 -2.23384,-13.36287 -3.402,-14.54882 -2.60774,-2.64896 -20.27225,10.08685 -30.97554,22.36874 -17.53166,20.11821 -31.1029,55.21305 -41.00228,105.29666 -3.17337,16.05611 -6.42826,38.03623 -7.16197,48.92023 l -1.25338,19.82266 -9.13155,-1.81855 c -8.29589,-1.67011 -25.04235,-1.7376 -38.85371,-0.18186 l -5.55046,0.5456 0.71609,-57.28576 c 0.73821,-56.08082 -1.25903,-92.73192 -6.62479,-119.11801 -2.98112,-14.66065 -6.0277,-16.54461 -10.38488,-6.54697 -4.74204,10.88158 -22.51631,13.32252 -35.27273,4.91023 -11.994943,-7.91062 -17.555676,-33.37999 -10.384932,-47.46536 3.805864,-7.47472 13.542202,-15.82159 18.442152,-15.82177 1.86803,0 5.08863,1.54991 7.16197,3.45535 2.07276,1.90562 7.1477,4.04674 11.28012,4.72837 6.34287,1.04535 9.24038,-0.29561 19.33733,-8.00185 9.04317,-6.901466 12.67132,-8.392195 14.86111,-6.546912 4.80677,4.051932 7.8578,19.433522 6.26672,32.371002 -2.01825,16.4057 -0.1247,22.12602 8.95252,27.82451 16.16056,10.14452 28.1924,1.08883 27.93167,-21.09573 -0.0831,-7.03795 -1.36464,-16.33648 -2.86478,-20.55013 -3.85263,-10.82199 -0.59104,-19.088036 9.66867,-24.187289 3.32198,-1.651234 6.0307,-2.593823 8.59433,-2.727943 z m 430.256,9.274797 c -1.99482,-0.02887 -1.72525,3.279201 1.79049,8.729317 3.94137,6.10979 6.56787,7.08021 8.77343,3.45529 0.74519,-1.22451 -1.33554,-4.99371 -4.65533,-8.36552 -2.61923,-2.659932 -4.71115,-3.803556 -5.90859,-3.819087 z m -7.16197,3.455347 c -1.36833,0.34757 -1.95821,3.15346 -1.25337,8.36553 0.22459,1.6678 -0.57736,2.39844 -1.79055,1.63674 -3.52447,-2.21231 -5.11825,2.68158 -2.50665,7.63811 2.78637,5.28845 6.8039,6.04231 6.8039,1.27301 0,-1.9029 1.25961,-2.87794 3.04381,-2.18228 5.17806,2.01814 6.11551,-3.05548 1.96959,-10.18414 -2.73135,-4.69718 -4.89782,-6.894302 -6.26673,-6.54697 z m -12.5335,16.36737 c -0.79963,0.006 -1.55528,0.12529 -2.14856,0.72741 -1.95949,1.99055 -1.79581,3.54761 0.35796,6.18324 3.33555,4.08172 5.80922,4.30943 7.87817,0.90933 1.92623,-3.1661 -2.62477,-7.84804 -6.08768,-7.81998 z m -9.31059,3.81903 c -2.1234,-0.11778 -3.57683,1.85827 -2.14863,5.63769 0.65444,1.73178 3.20629,3.09174 5.55058,3.09156 3.57827,0 3.95574,-0.77677 1.96958,-4.54643 -1.51041,-2.86622 -3.72059,-4.0916 -5.37153,-4.18282 z m -5.72949,4.18282 c -1.21597,0 -2.14863,1.12925 -2.14863,2.36415 6e-5,1.23508 0.9326,2.18246 2.14863,2.18228 1.21596,0 2.14856,-0.94697 2.14856,-2.18228 0,-1.23514 -0.93266,-2.36392 -2.14856,-2.36415 z m 47.80611,18.00405 c -3.4128,0 -21.30681,18.47061 -21.30681,22.005 0,4.26325 3.29924,3.20282 8.9524,-2.90975 2.85595,-3.08763 5.97926,-5.6374 6.98299,-5.63763 2.58753,0 2.18985,15.12634 -0.71626,29.82498 -1.75216,8.85945 -1.80378,16.02511 -0.17898,24.55102 2.419,12.6917 8.90373,38.86919 11.10108,44.55555 3.26425,8.44733 2.49365,-21.87487 -0.89525,-34.37142 -2.08679,-7.69544 -4.30746,-18.86604 -4.8343,-24.73289 -1.24928,-13.9147 2.40861,-13.97232 13.60773,-0.36373 4.63927,5.63631 9.04882,9.72259 9.66867,9.09293 0.61984,-0.62943 -3.5583,-8.30617 -9.31054,-17.09478 -9.38888,-14.34431 -10.38672,-16.75852 -9.13156,-24.73289 1.64171,-10.42679 -0.22978,-20.1861 -3.93911,-20.18639 z m -264.45605,13.45762 c -1.21603,0 -2.14863,1.1293 -2.14863,2.36415 -6e-5,1.23513 0.9326,2.18251 2.14863,2.18234 1.21596,0 2.14862,-0.94698 2.14862,-2.18234 0,-1.23508 -0.93266,-2.36392 -2.14862,-2.36415 z m -44.40429,3.45535 -4.29719,5.2739 c -6.46204,7.87956 -5.44884,9.40932 5.55052,8.36552 5.47199,-0.51904 10.0268,-0.0231 10.0268,1.09114 5e-5,1.11251 0.9326,2.00071 2.14862,2.00048 3.79218,0 2.49111,-6.38058 -2.32772,-11.27527 -2.53383,-2.57327 -4.86525,-4.41278 -5.19238,-4.0009 -0.32794,0.41166 -1.86485,2.80398 -3.22291,5.27391 -2.34539,4.26491 -2.37281,4.24015 -2.5067,-1.09115 l -0.17898,-5.63763 z m 45.29953,6.54691 c -0.72071,0.0404 -1.57918,0.13856 -2.5067,0.36373 -3.34421,0.81176 -7.44631,2.43269 -8.9524,3.63722 -3.53422,2.82581 -1.37,6.37908 2.86472,4.7283 1.79678,-0.70015 3.22296,0.0676 3.22296,1.63675 0,1.87103 1.55649,1.41111 4.47618,-1.27301 5.78272,-5.31496 5.93826,-9.36608 0.89524,-9.09299 z m -76.4541,3.81908 c -1.84367,0.19919 -2.07917,3.41298 -0.8953,9.8204 0.81488,4.41457 2.4265,7.45348 3.58104,6.72878 2.86252,-1.79696 2.74278,-13.98757 -0.17898,-15.82177 -0.95847,-0.60183 -1.89159,-0.79392 -2.50664,-0.72741 z m -21.12789,3.09157 c -0.5277,0.0658 -0.53694,0.70772 -0.53694,1.8186 6e-5,2.08345 1.86526,5.71379 4.2972,8.18372 4.53847,4.60954 8.95246,5.96921 8.95246,2.72788 -6e-5,-1.00425 -2.97684,-4.63362 -6.6248,-8.18371 -3.24086,-3.15374 -5.20809,-4.65561 -6.08768,-4.54649 z M 86.839036,185.13302 c 1.56977,0 5.601148,2.31329 8.773365,5.09209 7.552319,6.61504 10.723379,20.92033 7.520099,33.64401 -5.07021,20.14015 -5.238798,22.71908 -1.07434,21.09567 10.48182,-4.08536 14.61406,-3.99281 21.8441,0.5456 8.63653,5.42136 11.50061,14.36193 7.87817,24.91476 -2.74162,7.98891 -8.30669,8.73549 -14.14495,2.18234 -8.52332,-9.56584 -17.3211,-2.14383 -23.2764,19.45893 -3.135728,11.37602 -2.233496,13.5523 4.297192,10.00232 6.788078,-3.69005 14.363428,0.7318 12.354408,7.27438 -4.21515,13.7288 -4.07566,14.69321 2.5067,15.45803 9.37843,1.08982 9.69401,9.32353 0.71615,18.73152 -3.97128,4.16134 -6.42844,8.55911 -5.55051,10.00227 0.86002,1.41313 -0.96274,6.43259 -4.1181,11.27533 -6.389642,9.8074 -7.302613,18.14412 -2.50676,22.18687 2.41132,2.03246 4.2689,2.144 7.87818,0.18186 5.92423,-3.22002 6.31926,-2.69803 5.0134,6.00132 -2.26329,15.07207 -19.818968,14.88622 -33.48218,-0.36374 -3.83375,-4.27964 -8.590343,-7.81969 -10.384934,-7.81992 -4.686445,0 -3.97526,12.4868 1.253321,24.18729 4.989787,11.16604 3.953031,15.11913 -4.65521,19.64085 -7.37276,3.87209 -6.202462,3.89299 -13.249652,0 -15.747462,-8.69946 -15.516232,-32.3415 0.357959,-57.46762 l 6.44576,-10.366 -5.729494,-15.45803 c -12.4234,-33.21221 -19.431272,-71.49734 -17.72594,-97.11301 0.844208,-12.68748 7.226516,-27.4606 11.817294,-27.46077 3.681617,0 9.009907,10.99924 10.742952,22.00501 2.728578,17.33564 8.550159,18.32534 16.293523,2.90975 5.690696,-11.32961 5.858879,-19.37868 0.35796,-22.36874 -5.476901,-2.97742 -8.179209,-18.18326 -4.476172,-25.27849 3.398598,-6.51296 10.549654,-13.09365 14.323936,-13.09388 z m 287.911544,4.54649 c -5.0033,-0.14491 -13.61598,1.29316 -19.87451,4.18276 -5.20092,2.40053 -12.46589,5.2567 -16.11448,6.18324 l -6.6248,1.63674 6.26678,0.90928 c 3.4471,0.46996 10.33343,-0.76136 15.39822,-2.72789 7.90993,-3.07129 8.69946,-3.10922 5.0134,-0.18186 -2.36011,1.87461 -5.10416,3.45552 -6.08768,3.45529 -5.07357,0 -0.73117,5.1877 7.52004,8.91112 5.16773,2.33234 10.3216,4.27704 11.45916,4.36463 3.06558,0.23498 12.35446,-9.19761 12.35446,-12.54828 0,-3.64727 -6.89806,-7.54874 -13.60778,-7.63812 -4.55695,-0.0606 -4.71243,-0.31812 -1.25332,-2.36415 2.13748,-1.26446 4.78627,-1.6137 5.90859,-0.90933 1.12237,0.70449 2.63828,0.16397 3.40194,-1.09114 0.90195,-1.48276 -0.75812,-2.0954 -3.76002,-2.18229 z m -74.66367,13.45762 c 6.53225,0 10.13235,14.91786 6.62486,27.64264 -2.54469,9.23034 -2.41767,10.88359 2.32766,19.45898 l 5.19238,9.2748 -5.19238,4.0009 c -4.4215,3.38705 -4.6824,4.60013 -2.5067,8.72925 1.4032,2.66288 3.94801,4.91046 5.72955,4.91023 2.33621,0 3.22291,2.75415 3.22291,9.63859 -0.001,20.68788 18.04331,54.69574 31.15463,58.92244 5.21784,1.68189 5.58666,6.83103 0.71615,8.72925 -5.73538,2.23529 -15.28292,1.57127 -18.08401,-1.27301 -4.53241,-4.60417 -5.88746,0.17436 -1.96948,6.91071 2.06399,3.54888 3.76003,7.46652 3.76003,8.72919 0,1.26274 -5.69855,5.00521 -12.53345,8.18372 -12.59759,5.85737 -18.31097,7.05648 -18.44215,4.00089 -0.0404,-0.92631 -1.07624,-8.64433 -2.14856,-17.09478 -1.62913,-12.84082 -1.20979,-17.3816 2.32766,-27.8245 4.90105,-14.46805 4.71883,-14.00293 2.14862,-14.00322 -3.38358,0 -9.23472,18.09591 -10.56397,32.55287 -0.87579,9.52115 -0.14838,17.71965 2.32766,26.36963 1.97796,6.91117 3.76003,15.16156 3.76003,18.36784 0,7.76375 3.12597,7.41249 6.44576,-0.72746 5.97163,-14.64495 35.57716,-26.73908 71.79883,-29.46125 27.44634,-2.0633 66.23724,0.50345 85.04854,5.8195 40.6382,11.48335 85.69305,31.21756 104.923,45.82862 24.56644,18.66599 51.33606,53.99108 61.41396,81.29123 5.67874,15.38235 19.69547,59.99598 19.69547,62.74147 0,1.1595 -3.95794,0.13106 -8.77343,-2.36415 -21.20744,-10.98885 -44.07178,0.0935 -51.02913,24.73283 -5.72188,20.2633 10.90386,40.49288 36.16803,44.01001 8.52163,1.18629 9.47843,1.78864 8.41534,6.00137 -1.29928,5.1489 -9.23392,17.85296 -11.99633,19.09525 -0.92544,0.41627 -2.56478,2.64215 -3.76002,4.91017 -2.00411,3.80384 -1.19004,3.99697 10.92205,3.63722 14.93045,-0.44399 20.36283,2.65312 15.39822,8.72925 -2.60837,3.19185 -2.37022,4.21954 1.25332,6.91071 5.46761,4.06099 14.78391,4.03022 24.70887,-0.18187 14.92496,-6.33375 16.39577,-2.43395 2.68568,7.09257 -14.37636,9.9891 -17.36781,13.73434 -17.36781,21.09561 -5e-5,6.66204 -15.80358,33.46226 -19.69547,33.46232 -0.96545,0 -3.15183,2.62639 -4.8343,5.81945 -5.74682,10.90663 -13.48654,13.02177 -52.99867,14.73056 -119.88266,5.18453 -123.72316,5.11248 -123.72316,-4.7283 0,-6.08006 7.43327,-7.64498 15.75641,-3.27349 9.40718,4.94106 29.7923,3.04555 53.89386,-4.91022 11.80228,-3.8957 25.89429,-6.27025 42.25565,-7.45625 21.25202,-1.54032 26.27657,-2.84867 37.60039,-8.91118 7.18599,-3.84703 14.23613,-6.90787 15.75636,-6.91059 3.86579,-0.006 3.47446,4.43778 -0.53694,6.00137 -4.08675,1.59287 -4.32069,5.09198 -0.35796,5.09204 4.03605,0 14.00131,-10.94347 16.83069,-18.54965 3.96539,-10.65976 2.56172,-11.99212 -4.47629,-4.36451 -3.70407,4.01394 -8.83502,7.2742 -11.28012,7.27426 -3.97179,0 -4.27664,-0.9285 -3.04375,-9.45666 1.68125,-11.62896 -1.34247,-16.57972 -12.7126,-20.55019 -7.87841,-2.75069 -8.08551,-3.10524 -4.83425,-7.81998 1.86312,-2.70185 5.04897,-4.91011 6.80384,-4.91011 1.75475,0 3.04387,-1.03883 3.04387,-2.36415 0,-4.15303 -5.94958,-1.24449 -21.8441,10.36599 -8.45368,6.17527 -15.94128,13.45081 -16.6516,16.18545 -0.90731,3.49438 -3.95441,5.69751 -10.38487,7.45624 -5.03211,1.37642 -15.78603,5.90623 -23.81351,10.18413 -8.2355,4.38905 -27.44911,11.25842 -44.04621,15.63996 -25.28767,6.67549 -32.79097,7.72229 -54.07295,7.638 -43.88773,-0.17378 -88.93022,-6.85632 -127.66234,-19.09525 -37.43827,-11.82977 -35.54293,-11.85073 -51.38721,-1.45482 -17.60233,11.54963 -31.30122,15.4906 -36.16797,10.54786 -1.88703,-1.91716 -5.36184,-4.36734 -7.69914,-5.63769 -5.10076,-2.77275 -5.35918,-8.40097 -0.89519,-17.09478 1.91156,-3.72318 3.39479,-12.47917 3.40194,-20.73193 0.0115,-13.06179 -0.69236,-14.76325 -6.98298,-20.73206 -7.58327,-7.19568 -17.27336,-8.64357 -22.56025,-3.27348 -12.65296,12.85145 -16.89611,33.52478 -9.31053,45.28307 10.70611,16.5956 -11.48798,20.05667 -32.22892,5.09204 l -5.72955,-4.18276 -11.99633,9.2748 c -11.47134,8.75708 -12.33432,9.01215 -25.78316,8.18377 -7.683546,-0.47344 -14.748865,-1.92046 -15.577311,-3.09168 -0.828966,-1.17128 -6.22013,-6.0154 -11.996273,-10.72967 -8.950151,-7.30498 -10.384935,-9.61394 -10.384935,-16.36737 0,-4.35828 1.631835,-11.21396 3.760022,-15.09436 4.37196,-7.97217 18.10734,-21.56217 21.844095,-21.64127 1.356437,-0.0289 5.032973,-2.16854 8.236309,-4.72836 l 5.908533,-4.54649 5.72967,4.54649 c 3.20385,2.55982 7.10348,4.72836 8.59432,4.72836 1.49091,0 5.15445,4.62617 8.05727,10.18413 2.90283,5.55802 5.85952,10.00227 6.6248,10.00227 6.81105,-6e-5 17.14489,-40.47701 19.51643,-76.38096 2.21537,-33.54632 0.659,-109.08473 -2.32766,-114.75332 -1.33467,-2.53233 -1.56861,-8.59479 -0.71621,-14.36689 1.58998,-10.77089 5.25624,-12.57969 14.68201,-7.45624 2.5175,1.3689 13.62615,3.02631 24.70888,3.81902 l 20.05354,1.45494 1.61151,24.73289 c 1.90828,29.52389 6.3132,52.96137 15.39822,81.83672 19.35558,61.51459 44.99619,87.22419 103.84866,104.2054 28.1458,8.12135 30.4073,8.60454 51.74534,9.45678 23.24701,0.92832 38.19489,-2.48563 64.0997,-14.18509 51.7073,-23.35226 83.36116,-59.48565 91.67334,-104.93281 1.12717,-6.16002 2.90819,-15.90132 4.11821,-21.45946 2.32033,-10.6586 -0.13106,-44.66882 -4.47629,-61.65038 -10.61079,-41.46717 -42.73417,-76.22842 -86.30186,-93.29392 -42.97227,-16.83173 -71.2571,-19.11656 -93.64293,-7.63811 -7.05262,3.61585 -14.39986,8.71771 -16.11443,11.45714 -2.93492,4.6891 -2.53892,5.253 5.0134,8.91112 7.08091,3.42949 10.37449,3.67977 27.39461,1.45487 10.60583,-1.3864 26.61327,-5.05583 35.63075,-8.18365 9.0177,-3.12816 17.30562,-5.25993 18.44214,-4.54649 1.17296,0.7363 1.38034,6.60014 0.53694,13.45755 -0.92042,7.48108 -0.63751,12.00297 0.71615,12.00274 1.20188,0 2.7858,-1.1838 3.40195,-2.72788 0.89051,-2.2279 1.45944,-2.27836 3.04393,0 1.4875,2.13985 2.54221,1.58345 4.47617,-2.72789 1.42728,-3.18093 2.68574,-7.84532 2.68574,-10.18413 0,-2.33921 1.01753,-4.81525 2.32766,-5.63763 1.64985,-1.03537 1.95337,1.56393 0.89525,8.72925 -1.68686,11.42833 2.31583,15.02594 4.65532,4.18276 2.19083,-10.15688 2.98354,-11.8207 5.37148,-11.82087 1.25413,0 2.32761,3.02384 2.32761,6.72884 5e-5,3.70528 0.9326,6.72901 2.14862,6.72877 1.21597,0 2.14857,-1.89424 2.14857,-4.36462 0,-2.47016 0.84444,-4.54627 1.79049,-4.5465 3.08024,0 9.78062,9.42988 7.87818,11.09341 -2.53482,2.21646 -37.95847,12.41364 -58.19105,16.73116 -22.86711,4.87963 -48.60766,5.77695 -70.36648,2.36415 -21.18781,-3.32325 -30.0569,-8.21426 -36.70514,-20.18645 -6.07343,-10.93706 -11.55535,-13.42148 -9.31054,-4.18276 2.47108,10.17414 8.75091,19.62976 16.47251,24.91481 3.90551,2.67327 5.92683,5.14625 4.47628,5.63752 -1.47185,0.49826 -2.01335,2.09407 -1.07434,3.63728 0.92579,1.52121 3.51534,2.16918 5.72961,1.45487 2.85,-0.91828 5.51789,1.02885 9.1315,6.18324 8.16137,11.64166 17.63374,19.25091 32.58699,26.55144 23.88169,11.65939 36.4977,10.79699 54.07295,-3.27349 4.65013,-3.72272 12.5335,-23.50624 12.5335,-31.46161 0,-5.91713 3.3635,-9.41382 5.55052,-5.81956 0.74571,1.22573 1.86768,7.01602 2.5067,12.91202 0.88121,8.13267 0.0462,12.76057 -3.40195,19.45898 -2.49839,4.85608 -4.07959,9.31412 -3.58098,9.82046 0.49825,0.50634 4.43633,-0.40761 8.77342,-2.00048 12.19148,-4.47755 27.01517,-26.35023 30.97553,-45.46482 1.1322,-5.46651 1.88472,-5.94156 4.83437,-3.45541 2.69763,2.2742 3.29808,6.70984 2.68568,20.00458 -0.80986,17.60886 -6.04098,31.34378 -15.7563,42.00954 -7.96495,8.74368 1.05864,6.25552 13.60773,-3.81909 11.43601,-9.18167 18.35035,-20.02629 21.12789,-33.09841 0.85286,-4.01406 2.46132,-7.27415 3.58098,-7.27438 3.15201,0 2.51542,17.85625 -1.25332,32.55281 -4.55585,17.76613 -10.4724,26.72834 -21.48602,32.91666 -9.15696,5.14515 -9.21487,5.28158 -11.81718,23.8235 -2.75479,19.63005 -6.42324,27.03976 -21.66506,44.19187 -9.35551,10.52904 -10.04862,15.46802 -2.68573,20.36821 11.82029,7.86616 10.86356,26.00589 -1.43236,27.46083 -4.30274,0.50865 -6.83288,-0.793 -9.48963,-4.91023 -1.99979,-3.09987 -6.99154,-7.61398 -11.28013,-10.18413 -7.77714,-4.66098 -8.24508,-6.18422 -4.11809,-16.36731 2.49342,-6.15148 -4.80053,-4.9813 -8.95258,1.45488 -2.68989,4.16959 -3.06038,6.57277 -1.25332,10.00226 7.04667,13.37349 -0.5456,15.20856 -10.56386,2.54602 -4.8074,-6.0762 -8.86482,-8.91095 -12.5335,-8.91118 -7.01445,6e-5 -7.15596,5.67753 -0.17898,7.45624 10.73337,2.73609 16.96539,28.07439 8.05721,32.91661 -9.0823,4.93719 -19.78813,-3.49479 -22.02307,-17.45846 -0.79253,-4.95381 -2.65872,-8.70252 -4.65527,-9.09304 -2.6993,-0.5277 -3.30131,1.80267 -3.22291,11.27533 l 0,11.82093 -7.87817,0.72741 c -13.77759,1.17549 -18.93042,-2.37761 -21.48597,-14.54882 -3.03238,-14.44016 2.22992,-24.21465 14.50304,-26.55155 10.33147,-1.96688 23.83394,-7.43535 22.20217,-9.09288 -2.21046,-2.24544 -46.84072,8.3586 -54.25205,12.91202 -8.77642,5.39249 -13.78682,14.58011 -13.78682,25.27849 0,6.96457 0.63324,8.00202 5.37147,8.00179 15.44591,0 22.56602,11.74183 10.0268,16.54923 -5.47949,2.10076 -6.5711,3.50847 -5.55051,7.63805 1.90943,7.72767 -3.98883,6.21938 -12.89158,-3.09161 -4.2081,-4.40072 -10.51489,-8.70686 -13.96592,-9.63848 -4.15296,-1.12157 -6.50332,-3.39328 -6.98287,-6.72889 -0.3978,-2.77124 -2.2093,-5.50906 -3.93906,-6.18318 -1.72929,-0.67418 -3.04387,-4.21613 -3.04387,-7.81992 0,-4.96369 1.44148,-7.07335 5.72955,-8.72931 6.65367,-2.56946 5.22685,-6.72861 -2.32766,-6.72878 -5.1078,0 -9.4834,-3.64421 -7.16191,-6.00137 0.62926,-0.63931 5.24111,-1.68801 10.20584,-2.3641 4.96409,-0.67637 8.9524,-2.10203 8.9524,-3.09173 0,-3.00323 -18.88931,-17.82201 -22.73922,-17.82219 -8.25929,0 -20.98107,-7.02577 -23.4555,-13.09382 -2.79237,-6.84737 -1.09899,-17.61567 3.58099,-22.36868 4.10187,-4.16694 3.58572,-6.13635 -2.14857,-10.00238 -8.90604,-6.00449 -17.00973,-14.8148 -17.00973,-18.36773 6e-5,-2.82326 3.0575,-3.45517 16.29352,-3.45541 l 16.11443,0 11.45922,-11.0934 c 13.8195,-13.60028 14.34051,-16.73081 2.68568,-14.73057 -11.54917,1.98177 -27.24889,-2.37651 -26.32021,-7.27444 0.38221,-2.01519 4.20505,-4.52963 8.41523,-5.63769 10.18737,-2.68118 18.58978,-9.01297 24.17176,-18.18586 7.34106,-12.06406 6.32163,-14.22862 -6.98299,-14.36689 -13.09821,-0.13626 -24.79022,-3.90419 -22.73922,-7.27438 0.74998,-1.23335 6.37618,-4.40198 12.53344,-7.09251 7.33292,-3.20426 13.55536,-7.97402 17.72588,-13.82135 7.94365,-11.13827 7.89631,-14.64991 0.17898,-16.36737 -3.34427,-0.74444 -7.25371,-1.70666 -8.77348,-2.18234 -4.93309,-1.54385 -2.92413,-5.57182 3.93912,-8.00179 7.42155,-2.628 14.77785,-14.63363 11.28012,-18.18592 -1.35811,-1.37953 -6.28566,-0.8076 -13.78682,1.45482 -14.19669,4.28195 -15.21924,4.40487 -15.21924,0.72747 -6e-5,-1.58629 2.81524,-4.732 6.44576,-6.91065 8.45155,-5.07044 16.53012,-19.03694 20.94879,-36.55376 5.59393,-22.17919 3.63,-26.69717 -6.6248,-15.45809 -5.81869,6.37665 -22.58882,11.23099 -30.97553,9.09298 -7.25897,-1.85036 -5.95957,-6.13716 2.50664,-8.36552 12.74834,-3.35535 33.54395,-32.0743 28.82697,-39.82724 -0.68746,-1.12885 -6.07856,0.6139 -11.99628,3.81902 -10.00774,5.42044 -11.46533,5.57754 -20.23264,2.90976 -10.38753,-3.16091 -9.78933,-4.9835 2.86484,-9.09299 9.97663,-3.24 19.15558,-15.10706 25.78309,-33.09841 9.44541,-25.64176 21.20884,-43.28231 28.82697,-43.28254 z m 67.5017,0 c 1.82392,0 3.22291,0.83786 3.22291,2.00042 0,2.83169 -3.42619,4.88569 -5.19249,3.09161 -2.48956,-2.52881 -1.4498,-5.0918 1.96958,-5.09203 z m 121.5746,2.18228 c 1.70313,-0.10219 4.70994,3.75673 6.08768,9.09299 4.64736,18.00238 -3.41909,43.78011 -22.20211,70.56151 -16.24272,23.15896 -21.79439,43.20332 -16.11449,58.3769 4.94885,13.22055 -14.15269,1.77854 -20.05354,-12.00274 -5.04793,-11.78906 -5.2313,-23.37455 -0.71621,-36.3719 3.72145,-10.71316 6.15725,-13.22413 13.60778,-13.27575 6.40824,-0.0462 6.29334,-2.66639 -0.53694,-10.9116 -7.95132,-9.59834 -6.96035,-11.63877 5.19238,-11.639 9.18421,0 11.58006,-1.00974 17.90498,-7.63806 4.02301,-4.21572 6.88663,-8.73445 6.4457,-10.00232 -0.44052,-1.26793 -4.25296,-4.60342 -8.41523,-7.45619 -11.00166,-7.54146 -10.99993,-10.72955 -0.35796,-10.72973 6.94656,0 9.83957,-1.36596 13.42875,-6.00137 2.52015,-3.25414 4.47629,-7.30394 4.47629,-9.09299 -6e-5,-1.88991 0.4792,-2.86321 1.25332,-2.90975 z m -195.522,38.19051 c -3.17608,0 -4.90538,3.65806 -3.402,7.63811 2.07172,5.48296 5.37147,4.28137 5.37147,-2.00048 -5e-5,-3.0878 -0.82486,-5.6374 -1.96947,-5.63763 z m -211.457499,15.6399 c -3.11835,0 -11.999738,12.32438 -14.502974,20.00458 -6.106679,18.74168 3.686409,79.45519 14.323936,88.38369 8.503279,7.13749 10.570958,4.66162 3.580927,-4.36462 -5.446821,-7.03374 -5.616044,-13.45577 -0.53694,-19.27706 2.849995,-3.26743 3.120948,-4.72888 1.074341,-5.45583 -1.527334,-0.54272 -2.235805,-1.88368 -1.611512,-2.90975 0.624351,-1.02602 -0.0058,-4.49425 -1.253321,-7.81992 -1.878366,-5.01762 -2.649365,-5.56784 -5.371476,-3.27349 -2.673672,2.25417 -3.401947,1.93662 -3.401947,-1.09114 -5.7e-5,-2.04268 1.577449,-4.19933 3.401947,-4.91023 1.824036,-0.71095 3.222908,-2.87569 3.222908,-4.72836 0,-2.07155 -1.183346,-2.79538 -3.222908,-2.00048 -4.033342,1.5722 -4.302678,-1.03785 -0.53694,-5.09203 2.213173,-2.38257 2.107633,-3.33371 -0.17898,-4.18276 -2.266463,-0.8419 -2.332859,-1.72855 -0.17898,-4.36463 2.168486,-2.65341 2.177839,-3.64409 -0.35796,-5.2739 -2.204455,-1.41654 -2.277375,-1.9764 -0.35796,-2.00048 1.520233,-0.0173 2.685738,-1.12884 2.685738,-2.36421 5.8e-5,-1.23502 -1.437555,-2.36398 -3.222908,-2.36415 -4.006668,0 -2.25457,-5.74687 3.760021,-12.54828 2.919683,-3.30137 3.493688,-5.29579 1.79055,-6.36511 -1.826172,-1.14662 -1.902903,-2.39942 0,-4.72836 1.42393,-1.7428 1.814626,-3.27325 0.895246,-3.27348 z m 208.055499,0 c -2.07865,0 -3.40195,1.91878 -3.40195,4.54649 6e-5,2.47021 0.93266,4.54678 2.14863,4.5465 1.21596,0 2.14862,-0.3926 2.14862,-0.90928 0,-0.51673 0.69427,-2.59284 1.43236,-4.54649 0.8807,-2.33096 0.004,-3.63699 -2.32766,-3.63722 z m 80.75135,3.45535 c -5.83342,-0.28637 -8.9953,2.42385 -3.04387,4.00089 2.14302,0.56754 6.79789,1.13 10.38488,1.27301 8.20934,0.32794 4.99377,-3.0807 -4.65527,-4.91017 -0.92643,-0.17551 -1.85233,-0.32274 -2.68574,-0.36373 z m -69.1131,14.54876 c -1.12191,0.19226 -1.79332,1.36971 -1.07434,3.27348 0.68532,1.81318 0.26789,3.99853 -0.89519,4.72836 -1.16273,0.72995 -1.96958,2.76663 -1.96958,4.54644 0,1.77975 0.78023,3.27372 1.79055,3.27348 2.89895,0 7.74671,-10.54959 6.08762,-13.27574 -1.11689,-1.83576 -2.81726,-2.73822 -3.93906,-2.54602 z m 56.5796,34.73515 c 0.0687,-0.11027 0.18648,-0.0618 0.35796,0 1.06747,0.38452 4.05638,4.14136 8.77342,11.63901 4.53246,7.20417 10.09718,14.57144 12.35435,16.1855 2.2578,1.61393 4.11821,4.21855 4.11821,6.00137 0,1.78235 -1.16556,3.1889 -2.68574,3.09162 -5.13129,-0.3291 -8.41534,-2.37865 -8.41534,-5.45577 0,-1.68351 -3.51061,-9.34362 -7.87824,-16.91297 -5.04273,-8.73953 -7.10625,-13.77574 -6.6248,-14.54876 z m -8.59433,1.63674 c 0.71575,-0.0289 2.04176,1.78328 3.04381,4.36463 1.14472,2.95051 4.55412,8.83959 7.69914,13.09388 3.14508,4.25366 5.7295,8.46131 5.7295,9.45672 0,0.99484 -0.83186,1.81879 -1.96948,1.81861 -2.48793,0 -16.31823,-26.88954 -14.68207,-28.55197 0.0791,-0.0803 0.0768,-0.1784 0.17898,-0.18187 z M 186.21152,347.8973 c 8.29358,0.17956 16.21281,2.13517 23.45543,5.8195 9.86226,5.01739 29.6807,26.91726 34.01941,37.46304 4.7828,11.62688 4.26538,32.26667 -1.25332,44.19187 -5.89381,12.73552 -21.25999,27.27672 -32.22898,30.37059 -25.8787,7.29839 -54.76179,-0.77366 -72.336,-20.18645 -13.50808,-14.92139 -16.83058,-22.97693 -16.83058,-39.46352 0,-19.81971 13.56235,-41.2618 31.87078,-50.19324 11.32054,-5.5228 22.64015,-8.23215 33.30326,-8.00179 z m 485.40312,3.63716 c 3.6561,-0.6553 7.78222,8.03539 8.77343,20.55013 1.54592,19.51707 5.13077,18.26536 9.84776,-3.4553 0.73757,-3.39651 2.39163,-6.183 3.76002,-6.18323 1.73634,0 2.14002,5.19099 1.25332,17.09477 -0.97705,13.12333 -2.61103,19.11402 -6.98299,25.82404 -3.12487,4.79643 -5.72955,9.48726 -5.72955,10.54786 6e-5,1.06054 3.9095,6.26424 8.77348,11.45714 4.86398,5.19348 8.95246,10.45606 8.95246,11.63906 -5e-5,1.18295 -2.97689,2.18252 -6.62485,2.18229 -7.53101,0 -8.24359,1.27584 -3.22291,6.91064 8.39058,9.41683 14.13635,43.95805 6.80389,41.10038 -1.71284,-0.66772 -4.4335,-4.20349 -5.90859,-7.82004 -1.47456,-3.61661 -3.63577,-6.54674 -4.83436,-6.54703 -1.23721,0 -1.48478,1.5883 -0.53694,3.81914 0.91771,2.16133 2.06422,17.10586 2.5067,33.09841 0.76632,27.68277 2.54885,34.62534 7.87824,31.2798 2.72534,-1.71081 2.02547,2.48933 -0.89531,5.45577 -1.99332,2.02519 -1.7409,3.55022 1.25338,6.91071 5.59607,6.28058 3.03048,11.13994 -12.17537,22.73241 -7.28997,5.55785 -16.9274,12.78921 -21.30686,16.1855 -9.02798,7.00181 -11.63826,7.75076 -11.63826,2.90975 -6e-5,-1.85267 -1.56059,-3.45512 -3.40189,-3.45535 -7.09678,0 18.20722,-31.78117 33.3032,-41.82766 2.98498,-1.98662 5.55045,-5.49169 5.55045,-7.81987 0,-4.52294 -3.29271,-5.71113 -5.55045,-2.00047 -2.59215,4.2596 -7.16324,2.21762 -9.84777,-4.36469 -1.48097,-3.63092 -2.26681,-7.47022 -1.61151,-8.54739 1.82294,-2.99589 7.99163,-43.89465 6.80395,-45.10115 -0.57389,-0.58336 -2.14181,-0.006 -3.58098,1.45482 -4.23368,4.30014 -10.29233,3.06252 -14.14496,-2.90969 -3.42105,-5.30352 -3.03919,-6.69945 5.55052,-30.91619 9.92287,-27.97306 9.863,-31.6366 -0.35796,-50.01132 -6.124,-11.00795 -16.79952,-16.7263 -30.97554,-16.7311 -13.08049,-0.004 -11.94795,3.36154 1.79044,5.27396 12.92252,1.79922 18.80016,5.03286 18.80016,10.366 -6e-5,5.52009 -10.05682,17.31082 -16.29352,19.27712 -2.68285,0.84542 -7.53471,3.57787 -10.92193,6.00131 -7.50498,5.36952 -12.71254,3.80881 -12.71254,-3.81902 -6e-5,-4.61318 -1.10131,-5.63741 -5.72961,-5.63764 -5.17033,0 -5.60184,-0.69623 -4.29719,-6.72878 1.25909,-5.82112 0.85523,-6.73426 -4.11816,-8.00185 -7.85982,-2.00376 -7.21687,-4.38587 2.5067,-8.36552 l 8.41535,-3.45535 -6.08769,-1.63674 c -8.55547,-2.22518 -7.56357,-4.7294 2.50665,-6.36505 7.54042,-1.22457 8.80973,-2.31421 10.02686,-8.72931 2.21738,-11.69374 4.4891,-14.43404 9.13149,-10.54781 3.52822,2.95283 3.83918,2.70803 2.5067,-2.72788 -1.41186,-5.76021 -1.39714,-5.85622 5.90865,-4.18282 4.14004,0.94831 12.25331,5.15306 17.90492,9.27486 10.85617,7.91922 14.34247,7.00296 14.50303,-3.63716 0.0346,-2.47016 0.99513,-5.9672 2.14863,-7.81998 0.76309,-1.22573 1.48397,-1.84927 2.3276,-2.00048 z m -569.19829,4.18276 c -3.251255,0 -6.365621,5.53781 -4.297249,7.63811 1.242698,1.26227 7.341009,-4.042 7.341009,-6.36504 0,-0.70599 -1.35055,-1.27278 -3.04376,-1.27307 z m 81.64654,9.27486 c -6.76798,0.0583 -13.53284,0.97723 -18.80016,2.90975 -15.11116,5.54445 -27.30928,32.46055 -23.27646,51.46625 3.43405,16.18313 14.18249,28.96559 27.57359,33.09835 14.31695,4.41786 33.02462,0.56754 46.37387,-9.45654 6.81798,-5.11981 15.60174,-24.25623 15.57726,-34.00781 -0.0404,-16.24115 -9.95042,-32.27256 -24.52983,-39.82724 -5.50624,-2.85329 -14.21748,-4.2577 -22.91827,-4.18276 z m 11.28007,6.54697 c 6.95908,-0.0231 8.54375,1.71289 15.39822,8.18365 19.98114,18.86171 17.24806,49.67576 -5.7295,62.37785 -16.50564,9.12434 -38.88252,6.88848 -49.05961,-4.72836 -9.43501,-10.76922 -11.64362,-32.43844 -4.65532,-47.28349 5.28308,-11.22222 16.0941,-16.75824 34.91477,-18.00411 3.85903,-0.25519 6.8122,-0.53867 9.13144,-0.5456 z m -11.99628,12.00268 c -2.82505,-0.052 -5.48209,0.34757 -7.87817,1.27307 -6.8573,2.64797 -14.68207,14.62265 -14.68207,22.55054 0,7.48257 7.6149,19.84847 13.78682,22.36874 10.56455,4.31399 11.59241,0.45033 1.79049,-6.91065 -6.84419,-5.13903 -12.07675,-16.37262 -9.66867,-20.73199 7.20776,-13.05018 19.77261,-16.38001 30.25933,-8.00185 10.68048,8.5329 6.15304,29.09215 -7.52004,34.00775 -1.75487,0.63076 -2.48459,1.95711 -1.61146,2.90975 2.49949,2.72823 14.83819,-3.4109 18.62113,-9.27486 5.37506,-8.33232 2.87638,-25.21613 -4.8343,-31.46167 -5.19435,-4.20637 -12.0487,-6.61296 -18.26306,-6.72883 z m -108.862108,10.366 c 1.100553,0.16858 3.114193,1.53818 5.908647,4.18276 6.457769,6.11054 14.135892,9.98338 22.918261,11.45719 9.32953,1.56585 11.33607,8.35767 5.19256,17.64038 -8.4314,12.73846 -10.181941,17.67964 -10.026805,28.55186 0.123553,8.69975 1.283112,12.2081 5.013405,15.27628 7.55231,6.21141 14.85862,7.07375 23.45543,2.90969 9.46555,-4.58471 10.85738,-3.76689 6.62485,4.54656 -6.97865,13.70651 -15.12888,16.78 -28.64793,10.91154 -2.90882,-1.26297 -3.6274,-0.67447 -2.68573,1.81861 1.59967,4.23478 17.57629,11.64322 20.76969,9.63858 1.32157,-0.82994 3.51274,-0.82954 4.83437,0 3.18093,1.99655 -10.85323,16.54947 -15.9354,16.54924 -2.0951,0 -6.89586,-1.68085 -10.56391,-3.81914 -3.668164,-2.1383 -7.216355,-3.40016 -7.878119,-2.72789 -0.661417,0.67239 -1.735989,9.7663 -2.506758,20.18645 -1.279648,17.29154 -1.010197,19.4606 3.401947,25.09662 5.620547,7.18074 14.29836,8.19573 24.70881,2.72789 8.27413,-4.34644 10.35139,-2.79954 5.72961,4.36463 -2.05636,3.18809 -7.06867,6.27261 -11.99633,7.45624 -4.62068,1.11008 -8.41535,2.99439 -8.41535,4.18276 -5e-5,1.18889 4.79372,3.60339 10.56392,5.45572 11.4218,3.6677 12.15833,5.32973 6.80389,13.09388 -2.70467,3.92191 -5.28684,5.03938 -10.92199,4.54649 -10.68643,-0.93525 -11.508523,1.77265 -2.3276,7.27438 6.54535,3.92266 8.09687,6.04294 8.05715,11.82082 -0.0629,9.15517 -6.65459,23.85386 -14.14484,31.46178 -4.824258,4.89989 -7.975286,5.82574 -16.472617,5.63758 -10.765931,-0.23787 -23.929731,-2.66415 -26.14123,-4.91011 -2.718243,-2.76109 1.730909,-8.33879 10.205897,-12.73027 7.548969,-3.91169 13.428632,-10.20549 13.428632,-14.36689 0,-0.60945 -5.487351,-0.51904 -12.175311,0.18187 -8.532608,0.89432 -12.175369,0.57273 -12.175369,-1.27301 0,-1.44645 1.372776,-3.16789 3.043814,-3.81909 1.671037,-0.65131 4.855263,-4.53414 6.98293,-8.54739 3.753036,-7.07819 3.545419,-7.9896 -1.96953,-30.73431 -3.127125,-12.89643 -6.140916,-30.4539 -6.803892,-39.09972 -1.47722,-19.24658 2.379278,-62.64719 6.445759,-71.83452 3.759676,-8.49335 14.404247,-38.82478 15.935449,-45.46488 0.651025,-2.82407 -0.647792,-8.21657 -3.043871,-12.36642 -5.870426,-10.1675 -7.614615,-15.64596 -5.192439,-15.27622 z M 434.3741,401.7277 c 0.1455,0.0173 0.38048,-0.0982 0.53694,0 1.21597,0.76333 2.14863,3.4221 2.14863,5.81951 0,2.39723 -0.93266,4.36486 -2.14863,4.36463 -1.21602,0 -2.14862,-2.6593 -2.14862,-5.81951 6e-5,-2.85196 0.58815,-4.48639 1.61151,-4.36463 z m -15.39827,4.0009 c -2.54798,0.86257 -4.28501,14.03653 -2.32767,18.00411 2.05464,4.16561 5.0134,-1.5577 5.0134,-9.8204 0,-5.45282 -0.70783,-8.04936 -2.14862,-8.18371 -0.20554,-0.0173 -0.29907,-0.0808 -0.53694,0 z m -8.41535,4.36463 c -0.19053,0.004 -0.32332,0.10969 -0.53694,0.18186 -2.76628,0.93641 -4.11908,12.05626 -1.96959,16.00364 1.45164,2.66576 4.2722,-4.93985 4.47623,-11.82088 0.0837,-2.83498 -0.63543,-4.39338 -1.96953,-4.36462 z m -116.38216,38.19044 c -1.89857,0.16628 -3.95857,1.33109 -4.65532,3.45535 -0.53925,1.64656 1.05812,2.91004 3.76002,2.90981 2.71559,0 4.65533,-1.55435 4.65533,-3.63721 0,-2.0637 -1.86093,-2.89428 -3.76003,-2.72795 z m 12.17537,9.82046 c -4.30441,0.0854 -10.74301,2.7937 -10.74301,5.45583 -5e-5,2.91344 2.60728,2.93411 10.20584,0 4.02139,-1.55263 5.23343,-3.04953 3.75997,-4.5465 -0.66021,-0.67037 -1.78801,-0.9378 -3.2228,-0.90933 z m 8.23631,10.00232 c -5.89277,0 -14.80758,4.46289 -13.42875,6.72872 1.67913,2.76039 1.23462,2.80467 9.66867,-0.18187 7.14078,-2.52829 9.43017,-6.54674 3.76008,-6.54691 z m 9.66861,8.91106 c -3.93484,0 -15.39827,6.7782 -15.39827,9.09299 0,3.11598 3.5804,2.67725 11.10108,-1.27301 6.39507,-3.35905 8.88301,-7.81975 4.29719,-7.81998 z m 11.99633,9.82046 c -4.55261,-0.11316 -18.39261,7.85595 -18.44214,10.91154 -0.0577,3.54553 8.12528,1.49708 15.21924,-3.81903 5.78671,-4.33599 6.81572,-5.85928 4.11821,-6.91065 -0.21362,-0.0831 -0.59156,-0.17436 -0.89531,-0.18186 z m 6.98299,7.27432 c -1.09518,0.18995 -2.92332,1.03456 -5.01346,2.36421 -6.5323,4.15545 -13.78682,11.11171 -13.78682,13.09394 0,0.6691 0.93266,1.09126 2.14857,1.09103 1.21602,0 2.14862,-0.94687 2.14862,-2.18217 6e-5,-1.2352 1.24391,-2.18212 2.68574,-2.18235 3.06616,0 12.89158,-8.85523 12.89158,-11.639 6e-5,-0.39318 -0.41743,-0.65917 -1.07423,-0.5456 z m 80.03509,3.27354 c -0.22806,0.0289 -0.37586,0.19977 -0.53694,0.36374 -0.84692,0.86031 0.47285,4.31895 3.04387,7.63811 2.57073,3.31921 4.65527,7.10798 4.65527,8.54744 0,1.43877 1.22641,3.79155 2.68579,5.27385 3.65703,3.71435 3.93906,3.63664 3.93906,-2.72789 0,-5.58452 -10.35826,-19.5468 -13.78682,-19.09519 z m -69.11315,5.45577 c -5.73158,0.29503 -17.8361,6.37544 -26.32027,13.45756 -6.04242,5.04412 -6.50783,6.51591 -6.6248,21.09573 -0.11489,14.39593 0.31293,16.23752 6.26672,22.5506 6.22631,6.60234 14.50298,9.31585 14.50298,4.72831 0,-1.42295 2.04406,-1.42272 5.72961,0 7.79509,3.01009 9.8477,2.71812 9.8477,-1.27296 0,-1.88344 -2.31196,-4.34355 -5.19244,-5.45577 -2.87996,-1.1125 -7.54521,-4.74862 -10.20578,-8.18377 -7.67321,-9.90786 -2.74076,-22.1076 11.28007,-28.00631 5.53891,-2.33067 7.90387,-2.11376 14.14495,0.90933 10.23627,4.95803 15.47992,13.73238 15.04015,25.27843 -0.99224,26.03477 -22.12544,40.71961 -55.86345,38.73605 -20.47045,-1.20361 -23.99543,-3.46713 -51.02913,-31.2798 -16.86384,-17.34939 -34.59036,-30.6062 -37.24226,-27.82445 -0.79739,0.83589 2.01081,4.21665 6.26672,7.45619 4.25597,3.23948 16.80881,14.71376 27.75263,25.46029 11.35477,11.14988 25.38362,22.43375 32.76614,26.36958 11.2068,5.97406 15.25325,6.95354 29.90119,6.9107 20.64141,-0.06 31.09615,-4.44471 42.97193,-17.82224 10.19158,-11.48064 14.74534,-21.70357 13.60778,-30.55234 -0.4613,-3.58872 -0.81147,-8.29941 -0.8953,-10.36599 -0.28521,-7.03992 -10.90288,-16.8639 -21.30687,-19.82266 -12.49961,-3.55466 -25.38784,-0.30947 -33.3032,8.36552 -6.89263,7.55364 -7.25174,22.29633 -0.71615,30.73426 2.52016,3.25449 3.56315,5.81961 2.32755,5.81944 -3.85043,0 -9.09616,-9.61532 -9.1315,-16.73104 -0.0173,-3.73912 -0.88681,-8.26547 -1.96953,-10.00227 -2.73568,-4.38928 10.86905,-16.95569 22.56031,-20.9138 9.96138,-3.3725 12.75416,-7.20735 6.98281,-9.45672 -0.5277,-0.20554 -1.3293,-0.22401 -2.14856,-0.18187 z m 62.66733,1.09114 c -0.20092,0.0231 -0.3874,0.0289 -0.53694,0.18187 -0.70379,0.7068 0.25,5.33337 1.96953,10.18413 1.72006,4.85042 3.60645,10.672 4.29714,12.91196 1.7745,5.75322 5.74265,2.31652 5.72966,-4.91023 -0.0115,-5.6941 -8.4426,-18.72522 -11.45922,-18.36778 z m -8.41529,6.91065 c -1.20026,0.42262 -0.8994,3.20386 1.07429,8.00179 1.8402,4.47398 3.40194,8.44444 3.40194,8.91118 0,0.46708 0.93255,0.90945 2.14857,0.90927 3.49507,0 2.58245,-10.47101 -1.25332,-14.36683 -2.57575,-2.61599 -4.43801,-3.78456 -5.37148,-3.45541 z m -333.7483,3.09168 c -1.541479,0.45206 -2.498098,4.01781 -1.253379,8.00173 0.76869,2.45918 2.44781,4.54666 3.581041,4.54649 2.575117,0 2.540245,-6.83957 0,-10.91154 -0.83012,-1.33138 -1.627042,-1.8424 -2.327662,-1.63668 z m 326.40724,1.27301 c -0.17321,0.0289 -0.22459,0.22863 -0.35796,0.36373 -0.5202,0.52886 0.80345,5.63521 2.86477,11.45714 4.19772,11.85684 7.09396,13.83792 6.98293,4.54655 -0.0641,-5.37402 -6.8965,-16.76805 -9.48963,-16.36737 z m -9.66867,5.27384 c -2.17836,0.19688 -1.61844,4.11665 1.61145,10.54792 4.09916,8.16074 8.77343,11.73375 8.77343,6.72878 0,-4.04593 -4.84539,-14.61896 -7.34107,-16.18556 -1.29598,-0.81355 -2.31767,-1.15667 -3.04381,-1.09114 z m -110.29453,5.81956 c -0.6046,0.17436 -0.89519,0.8908 -0.89519,2.18229 6e-5,5.32124 4.69141,13.93786 7.16197,13.09388 1.51273,-0.51616 3.92578,1.80723 5.37148,5.27402 2.01387,4.82893 5.03938,6.94869 12.71248,8.91112 5.509,1.4088 11.13192,4.10435 12.5335,5.81944 2.86368,3.50443 6.44576,4.08415 6.44576,1.09115 0,-1.08381 -1.41631,-3.17465 -3.04381,-4.5465 -1.62751,-1.37179 -4.22947,-7.92309 -5.72961,-14.73062 -1.50014,-6.80765 -3.70604,-12.54805 -4.83431,-12.54828 -1.12953,0 -1.96958,1.24581 -1.96958,2.72788 0,2.09586 -0.62228,2.09586 -2.68574,0 -4.76878,-4.84377 -6.13249,-2.79399 -5.01335,6.91065 l 1.07429,9.45672 -3.22291,-9.82046 c -4.33051,-13.2172 -7.18443,-15.91403 -9.66867,-9.09293 l -1.96953,5.45577 -1.61145,-4.91017 c -1.05708,-3.38214 -3.32499,-5.65755 -4.65533,-5.27396 z m -206.981211,7.09251 c -1.339982,0.16744 -2.19285,2.3119 -1.074284,5.27396 0.720077,1.90574 2.32749,3.45559 3.581042,3.45536 2.808715,0 2.88533,-2.20019 0.17898,-6.54703 -0.955233,-1.53415 -1.881656,-2.28246 -2.685738,-2.18229 z M 433.6579,546.48782 c -5.5433,0.0889 -12.05124,1.55106 -15.93545,4.00095 -5.70767,3.59923 -13.52009,11.77907 -13.60773,14.18503 -0.0231,0.61753 1.88801,4.35175 4.29719,8.36557 3.38347,5.63597 5.77499,7.27456 10.92199,7.27433 3.66591,0 6.80389,-0.41397 6.80389,-0.90934 0,-0.49537 -3.44322,-2.90502 -7.69913,-5.45571 -4.25603,-2.55046 -7.88632,-6.05241 -7.87818,-7.63805 0.0289,-5.33089 14.21464,-12.91179 23.99266,-12.91202 6.75649,0 9.31054,-0.99715 9.31054,-3.45535 0,-2.38759 -4.66306,-3.54409 -10.20578,-3.45541 z m -360.068632,0.5456 c -0.184753,0.052 -0.21593,0.0404 -0.357959,0.18187 -0.785434,0.79778 0.173206,4.03085 2.148625,7.09251 2.332281,3.61528 2.742549,6.1572 1.253321,7.09245 -1.5491,0.97238 -1.390212,2.40665 0.35796,4.54655 3.258762,3.9882 9.599386,4.31105 7.162026,0.36374 -0.953155,-1.54362 -1.599099,-4.59413 -1.253437,-6.7289 0.649928,-4.01509 -6.52965,-13.30051 -9.310593,-12.54828 z m 617.004642,4.91023 c -0.58354,-0.001 -1.24946,0.35969 -1.96959,1.0912 -1.21597,1.23502 -1.43467,3.43578 -0.53694,4.91022 1.23952,2.03697 2.04331,1.86971 3.40194,-0.36373 1.74829,-2.87303 0.85518,-5.63406 -0.89524,-5.63764 z m -260.15892,3.81914 c -5.25635,0.45034 -11.48289,5.20017 -9.66867,10.00215 0.6863,1.81693 2.73764,3.27377 4.29719,3.27354 4.6663,0 12.82484,-7.89671 11.10103,-10.72973 -1.21222,-1.99205 -3.34,-2.75104 -5.72955,-2.54596 z m 251.74351,2.72788 c -1.36071,0.19746 -2.8978,1.37336 -3.58093,3.45524 -0.48151,1.46642 0.7605,2.72817 2.68574,2.72789 1.92513,0 3.40195,-1.68167 3.40195,-3.63717 0,-1.98286 -1.14599,-2.74347 -2.50676,-2.54596 z m -8.59433,6.54686 c -1.31498,-0.0289 -2.14862,1.46844 -2.14862,4.00095 0,2.89434 1.22105,4.55781 2.86483,4.00089 1.52012,-0.515 2.68574,-2.35404 2.68574,-4.00089 0,-1.64679 -1.16556,-3.30414 -2.68574,-3.81908 -0.20554,-0.0693 -0.5277,-0.17783 -0.71621,-0.18187 z m -6.44576,8.54739 c -1.21596,0 -2.32766,0.94749 -2.32766,2.1824 6e-5,1.23513 1.11164,2.36432 2.32766,2.36409 1.21609,0 2.14863,-1.12873 2.14863,-2.36409 0,-1.23514 -0.9326,-2.18217 -2.14863,-2.1824 z m -5.37147,5.09198 c -0.37932,-0.0347 -0.93382,0.40299 -1.61151,1.09125 -1.35315,1.3744 -1.71221,3.5673 -0.89519,4.91017 2.28661,3.75841 3.40189,2.87575 3.40189,-2.54607 -6e-5,-2.26739 -0.2627,-3.39444 -0.89519,-3.45535 z m -6.98293,7.82003 c -1.15841,0.11374 -2.30856,1.03266 -2.86484,2.72789 -0.4053,1.23502 1.01684,2.36444 3.04387,2.36421 2.0264,0 3.19243,-1.36574 2.68574,-2.90976 -0.52193,-1.58951 -1.70648,-2.29625 -2.86477,-2.18234 z m 35.27278,5.0921 c 1.87236,0 6.3733,2.78694 10.02675,6.18318 6.0102,5.58792 6.95227,7.93083 8.23625,24.36915 2.12282,27.17608 -4.53616,41.76658 -14.32394,31.82552 -2.06346,-2.09615 -3.30795,-2.09615 -5.37153,0 -3.46286,3.51718 -9.8219,3.38428 -11.28007,-0.18187 -0.79519,-1.9447 -2.52696,-1.13612 -5.55057,2.36421 -5.37344,6.21926 -6.20852,6.25061 -9.31053,0.36373 -1.85071,-3.51297 -3.69363,-4.29448 -7.69914,-3.27342 -5.02836,1.28155 -5.37148,0.65218 -5.37148,-8.36558 4.6e-4,-8.12696 1.07059,-10.35203 7.16191,-15.27617 3.95228,-3.19439 9.6954,-7.27767 12.7126,-8.91112 3.0165,-1.63322 7.33794,-5.35572 9.66861,-8.36558 3.34,-4.3122 5.52742,-5.20595 10.56397,-4.1827 9.24662,1.87819 11.08163,-4.40984 3.22285,-11.27528 -4.1047,-3.586 -5.00728,-5.27367 -2.68568,-5.2739 z m -296.14791,65.83314 c 2.66819,6e-5 5.44347,0.87013 8.23619,2.54602 3.49895,2.0992 9.03578,3.47175 12.35447,3.09162 4.47646,-0.51269 5.70091,0.0658 5.0134,2.54602 -0.5098,1.83916 -1.27451,7.1529 -1.79049,11.639 -0.68584,5.95882 -2.30417,8.71407 -6.26672,10.54787 -2.98273,1.38045 -5.78013,2.54607 -6.08769,2.54607 -1.75054,0 -5.72961,-5.7042 -5.72961,-8.18371 -6e-5,-3.74784 -1.0397,-3.79859 -9.31053,0.5456 -5.27391,2.76997 -8.14371,3.1389 -12.17537,1.27295 -6.3326,-2.93036 -6.30102,-3.58739 0,-14.73051 4.39407,-7.77125 9.88587,-11.82145 15.75635,-11.82087 z m 219.87279,21.82308 c -2.55399,0.14318 0.0768,3.19572 7.34106,8.36558 10.27928,7.31554 12.71249,8.33671 12.71249,5.09204 0,-2.69862 -10.08142,-10.71877 -15.75641,-12.54829 -1.9943,-0.64288 -3.44589,-0.95713 -4.29714,-0.90933 z m 74.66361,4.36463 c 4.72293,-6e-5 19.3393,14.69477 17.54679,17.64043 -0.8725,1.43352 -4.48102,2.54602 -8.05716,2.54602 -7.21803,0 -8.67689,4.34442 -3.04387,9.09293 4.8313,4.0726 10.18973,15.38263 8.59438,18.00411 -0.72943,1.1987 -3.03532,2.18229 -5.19238,2.18234 -6.63086,0 -6.95285,2.5776 -1.25343,9.45667 5.97273,7.20948 7.41594,19.64073 2.32766,19.64079 -5.59601,0 -18.37494,-6.50719 -19.69541,-10.0022 -2.0962,-5.54763 -8.23631,-4.03687 -8.23631,2.00041 0,11.21604 -11.16662,12.04714 -16.65154,1.27301 -4.42375,-8.68751 -4.01995,-16.76886 1.25332,-32.00727 2.43199,-7.02807 4.47623,-14.66163 4.47623,-17.09471 -6e-5,-4.59858 22.23773,-22.73253 27.93172,-22.73253 z"
     id="path9001" />
</svg>
