<?xml version="1.0" encoding="UTF-8" standalone="no"?>
<!-- Created with Inkscape (http://www.inkscape.org/) -->

<svg
   xmlns:dc="http://purl.org/dc/elements/1.1/"
   xmlns:cc="http://creativecommons.org/ns#"
   xmlns:rdf="http://www.w3.org/1999/02/22-rdf-syntax-ns#"
   xmlns:svg="http://www.w3.org/2000/svg"
   xmlns="http://www.w3.org/2000/svg"
   xmlns:sodipodi="http://sodipodi.sourceforge.net/DTD/sodipodi-0.dtd"
   xmlns:inkscape="http://www.inkscape.org/namespaces/inkscape"
   width="1000"
   height="1000"
   id="svg2"
   version="1.1"
   inkscape:version="0.47 r22583"
   sodipodi:docname="C.svg">
  <defs
     id="defs4">
    <inkscape:perspective
       sodipodi:type="inkscape:persp3d"
       inkscape:vp_x="0 : 526.18109 : 1"
       inkscape:vp_y="0 : 1000 : 0"
       inkscape:vp_z="744.09448 : 526.18109 : 1"
       inkscape:persp3d-origin="372.04724 : 350.78739 : 1"
       id="perspective10" />
    <inkscape:perspective
       id="perspective2940"
       inkscape:persp3d-origin="0.5 : 0.33333333 : 1"
       inkscape:vp_z="1 : 0.5 : 1"
       inkscape:vp_y="0 : 1000 : 0"
       inkscape:vp_x="0 : 0.5 : 1"
       sodipodi:type="inkscape:persp3d" />
  </defs>
  <sodipodi:namedview
     id="base"
     pagecolor="#ffffff"
     bordercolor="#666666"
     borderopacity="1.0"
     inkscape:pageopacity="0.0"
     inkscape:pageshadow="2"
     inkscape:zoom="0.532"
     inkscape:cx="500"
     inkscape:cy="500"
     inkscape:document-units="px"
     inkscape:current-layer="svg2"
     showgrid="false"
     showborder="true"
     inkscape:showpageshadow="false"
     showguides="true"
     inkscape:guide-bbox="true"
     inkscape:window-width="1280"
     inkscape:window-height="750"
     inkscape:window-x="0"
     inkscape:window-y="26"
     inkscape:window-maximized="1">
    <sodipodi:guide
       orientation="0,1"
       position="0,200"
       id="guide2818" />
  </sodipodi:namedview>
  <metadata
     id="metadata7">
    <rdf:RDF>
      <cc:Work
         rdf:about="">
        <dc:format>image/svg+xml</dc:format>
        <dc:type
           rdf:resource="http://purl.org/dc/dcmitype/StillImage" />
        <dc:title />
      </cc:Work>
    </rdf:RDF>
  </metadata>
  <g
     inkscape:label="Layer 1"
     inkscape:groupmode="layer"
     id="layer1" />
  <path
     style="fill:#800000"
     d="M 0,0 0,6.0301808 0,793.78709 0,800 l 6.2211697,0 723.8480203,0 6.22111,0 0,-6.21291 0,-3.65466 0.54906,-77.29555 c 0.46131,-77.20207 0.49711,-98.18834 -0.54906,-170.12332 l 0,-536.6833792 L 736.2903,0 730.06919,0 6.2211697,0 0,0 z m 346.18826,12.973968 c 167.4742,-0.05774 338.44791,0.627584 353.50711,2.01006 9.02844,0.828735 17.87622,2.868529 19.57827,4.568261 2.2578,2.254628 3.04826,10.914832 3.29357,31.978116 0.16397,14.116956 0.82724,80.134865 1.46383,145.089055 l 0,588.21378 c -13.90755,0.83907 -210.56991,2.01647 -405.65499,2.37547 -70.21014,0.12932 -161.65567,0.20554 -203.2849,0.36546 l -96.061714,0 c -2.005787,-0.71037 -3.835482,-1.54731 -5.306293,-2.74099 -0.527702,-0.4284 -0.938432,-4.41572 -1.280804,-11.87757 l 0,-754.316985 C 12.703881,16.778446 12.9966,15.526683 13.357158,15.166703 14.747312,13.778569 178.71454,13.031934 346.18826,12.97391 z M 192.85539,24.851539 C 102.16152,24.828444 34.46969,25.21354 29.093017,26.313401 l -5.672163,1.279129 0.549064,95.20324 c 0.333711,52.39592 0.968224,199.81443 1.463825,327.63821 0.495948,127.8239 1.793957,252.99831 2.744571,278.1178 l 1.646789,45.68302 120.031457,0.54791 c 140.95929,0.7647 562.2099,-0.29388 563.37916,-1.46186 2.14545,-2.14228 1.25113,-350.53956 -1.28092,-511.28364 C 709.21987,88.344501 707.61055,32.159636 705.36776,29.785034 703.0166,27.296001 392.38218,24.905695 192.85557,24.851308 z m 28.36111,18.273159 c 3.03267,0 11.34444,24.113564 11.34444,32.891722 -6e-5,4.297078 0.79063,7.857739 1.82975,7.857509 1.03855,0 5.59359,-4.16394 10.06358,-9.13658 9.38005,-10.434242 27.03839,-18.83966 35.13117,-16.811356 4.78535,1.199455 5.31975,2.297699 4.2084,9.13658 -1.49512,9.202225 0.72515,9.794591 11.71036,3.106457 8.29873,-5.052719 44.26198,-13.606979 55.44135,-13.1567 8.41085,0.339484 39.47443,5.686597 44.64586,7.674717 2.37292,0.912683 7.42131,-1.495117 14.08901,-6.578321 12.10718,-9.229303 23.88395,-13.352308 35.13116,-12.243036 6.96868,0.687283 6.22204,1.111927 -6.22111,3.471922 -23.28662,4.416878 -23.9138,6.861514 -1.46382,5.664657 25.98217,-1.384958 54.04559,2.279108 60.01567,7.674776 9.40944,8.504203 -0.5202,27.609389 -14.45494,27.775205 -5.52863,0.06582 -6.08024,-0.368352 -4.02549,-4.202796 3.20062,-5.971983 2.99895,-7.712707 -0.91488,-6.212913 -1.82392,0.699234 -4.02249,0.273089 -4.75734,-0.913664 -2.85179,-4.608387 -5.4892,-1.690494 -5.4892,5.847448 0,7.926387 -1.19259,8.996456 -7.50198,6.578321 -2.48643,-0.952635 -3.1124,-3.31338 -2.19573,-8.953847 1.56648,-9.640841 -2.58776,-10.456528 -5.85513,-1.096396 -1.29945,3.723014 -3.29895,6.761285 -4.39142,6.761054 -1.09189,5.8e-5 -1.46273,-3.037752 -0.91487,-6.761054 1.31001,-8.915626 -3.1586,-8.74802 -5.12328,0.183021 -1.82732,8.310212 -7.1417,7.533786 -6.22111,-0.913664 0.75969,-6.971095 -3.02747,-8.05658 -5.12338,-1.461862 -0.78867,2.48199 -3.00791,4.56855 -4.94031,4.568319 -3.02153,0 -3.03256,-0.624467 -0.36605,-4.02012 2.79134,-3.554369 2.72956,-3.620187 -0.73191,-0.913664 -4.91831,3.845817 -12.20464,1.477335 -16.65062,-5.299192 l -3.4766,-5.29925 -5.30623,5.481983 c -4.61457,4.608387 -6.47094,4.973795 -12.99123,3.106399 -12.68893,-3.63439 -29.82436,-2.511955 -50.50093,3.471922 -23.25988,6.731493 -37.05012,14.424167 -46.10973,25.399735 -7.13374,8.64346 -5.9437,8.64739 -29.45889,1.82733 -32.20929,-9.341657 -70.57462,12.08755 -89.47467,50.06848 -7.44037,14.95176 -8.74826,19.63451 -8.78278,32.34359 l 0,14.98397 -19.02932,19.91775 c -29.51593,31.09407 -51.794431,66.88925 -66.785849,107.62907 -2.169295,5.89479 -4.89845,10.78135 -6.038091,10.78118 -2.077611,0 -2.305146,-1.63582 -3.476541,-20.46596 -0.728679,-11.72486 6.312854,-37.43544 13.906107,-51.16494 2.874649,-5.19775 4.760809,-9.86422 4.208396,-10.41571 -0.551951,-0.55195 -5.124774,-0.052 -10.246602,1.0964 -7.347358,1.64875 -10.123164,1.4028 -12.808267,-1.27913 -3.032671,-3.02805 -2.96385,-4.34777 0.914934,-11.87757 7.325707,-14.21967 32.053807,-37.35577 49.952093,-46.59656 8.94495,-4.61838 16.81355,-8.22274 17.38253,-8.22298 0.56985,0 0.46766,1.90383 -0.18302,4.38559 -1.57739,6.02273 2.01231,5.68775 8.05086,-0.73093 6.39178,-6.79489 6.09664,-9.15182 -1.09784,-12.42577 -4.85543,-2.20925 -6.31366,-2.05885 -8.41685,0.73093 -6.60251,8.75789 -33.622303,12.79522 -47.207459,7.12652 -8.127883,-3.39161 -21.956913,-17.71295 -21.956913,-22.84148 0,-4.4581 4.475365,-4.27219 18.114445,1.0964 17.394195,6.84725 32.493347,6.06904 49.769187,-2.74099 7.90912,-4.03329 14.78241,-8.49693 15.18685,-9.86751 1.16476,-3.94951 -22.09773,-18.39643 -35.86308,-22.29328 -12.879279,-3.64629 -30.158581,-2.20463 -40.437399,3.28919 -6.524165,3.48681 -7.519987,2.78591 -5.855184,-3.83739 4.187957,-16.66454 23.385808,-29.02535 44.096903,-28.50614 9.01008,0.22575 13.1395,1.22353 14.82093,4.02006 3.96891,6.60107 26.3302,35.8882 32.38653,42.39383 3.17724,3.4128 7.0502,6.21309 8.78284,6.21286 4.1084,0 -3.00969,-11.99126 -18.48055,-30.88167 -6.27884,-7.66657 -13.31997,-16.54248 -15.55278,-19.73502 -2.23268,-3.19254 -5.96268,-5.66448 -8.41685,-5.66471 -2.76737,0 -5.434,-2.36415 -6.95302,-6.212859 -7.06215,-17.889103 -9.01534,-21.203696 -11.893391,-20.100545 -1.759315,0.674177 -4.013539,-1.334266 -5.4892,-4.568261 -1.402394,-3.074125 -3.496921,-5.050698 -4.574381,-4.385586 -1.879,1.159329 4.319133,27.542647 7.867959,33.439921 1.197491,1.98939 0.656625,1.97958 -2.012832,-0.18244 -2.102552,-1.70303 -3.842411,-4.835003 -3.842411,-6.943791 5.8e-5,-5.99629 -6.99136,-25.755734 -10.429507,-29.4198 -2.693302,-2.869684 -3.110614,-2.694687 -3.110614,1.461804 -5.8e-5,3.673823 -1.10448,4.56064 -4.574381,3.654655 -7.396317,-1.931886 -4.980896,-7.238122 5.672221,-12.425769 12.862076,-6.263721 27.081977,0.714072 40.803387,19.917754 5.66702,7.931179 10.50681,14.436061 10.97846,14.43583 0.47169,0 3.21909,-4.596551 6.03814,-10.232976 4.88616,-9.771266 21.53297,-25.947705 26.71432,-25.947936 3.37643,0 2.92442,6.566832 -1.46371,27.957996 -4.17035,20.327733 -2.95721,31.928233 3.84241,40.200973 3.41361,4.15309 5.1261,4.81976 8.23383,2.92373 7.96593,-4.86029 39.33956,-61.415703 39.33956,-70.899966 6e-5,-4.336337 6.12059,-13.704667 8.9658,-13.704898 z m 295.5042,2.740992 c 0.54734,0.0058 -0.13798,0.924113 -1.64684,2.740991 -4.34379,5.229794 -11.52735,8.988719 -11.52735,6.030123 0,-1.252917 3.46367,-3.944834 7.50191,-6.030123 3.45998,-1.786162 5.12495,-2.749767 5.67228,-2.740991 z m -43.54801,2.01006 c 3.72786,-0.06813 8.19965,0.807257 10.06358,2.01006 2.67125,1.723866 2.25601,2.107749 -2.19562,2.01006 -3.10675,-0.06813 -7.76132,-0.943224 -10.24666,-2.01006 -3.87919,-1.664975 -3.44075,-1.903769 2.3787,-2.01006 z m 24.51858,0.548487 c 0.81055,-0.136256 1.46376,0.47574 1.46376,1.461862 6e-5,1.314059 -1.13594,2.375756 -2.37858,2.375526 -1.2427,0 -2.19574,-0.549065 -2.19574,-1.096397 -6e-5,-0.547332 0.9531,-1.608337 2.19574,-2.375526 0.31004,-0.191682 0.64508,-0.319854 0.91482,-0.365465 z m 20.12722,5.116459 c 0.7076,-0.06524 0.72481,0.600276 0.18302,2.01006 -0.95957,2.49602 0.37355,3.611296 5.12338,3.837388 5.32887,0.253459 5.66062,0.472276 1.46377,1.279129 -2.79572,0.538095 -5.12333,1.979345 -5.12333,3.28919 -6e-5,1.445869 2.86074,1.876172 7.31895,1.096339 6.77122,-1.184386 6.85546,-1.09605 1.64685,1.096396 -3.10657,1.307593 -8.08158,3.360724 -11.16154,4.568319 -5.33931,2.093661 -5.44653,2.239963 -1.28074,4.568319 4.31203,2.40982 4.35978,2.499714 0,4.202795 -4.01446,1.567922 -4.09616,1.683335 -0.36604,1.827328 3.19496,0.122976 3.77693,1.34922 2.5616,5.299249 -2.12374,6.898869 -2.93157,7.487886 -6.03815,4.385529 -4.8783,-4.871892 -6.3614,-2.781175 -2.3787,3.289189 3.89432,5.936244 3.86776,5.942884 -1.09778,3.28919 -4.26648,-2.28032 -5.12333,-2.062427 -5.12333,1.279129 0,3.045195 -0.6359,3.384975 -2.74463,1.279125 -3.95944,-3.954355 -6.28098,-3.451999 -4.57432,1.09634 1.24772,3.32378 0.91967,3.47389 -2.01283,1.0964 -2.63055,-2.13275 -6.35812,-2.25469 -15.36982,-0.54849 -17.86272,3.38295 -29.09492,2.66426 -44.64585,-3.106396 -25.78293,-9.567575 -34.68568,-19.929129 -10.06364,-11.694839 26.906,8.99813 33.15396,10.415883 47.75647,10.415709 20.24944,0 25.78102,-2.28032 33.11839,-13.887631 5.2933,-8.373606 5.69814,-10.567322 3.47654,-16.44589 -1.39783,-3.69709 -2.30197,-6.796619 -2.01272,-6.943787 0.28868,-0.147225 3.39029,-2.092506 6.77006,-4.202795 2.55422,-1.595116 3.86678,-2.310516 4.57433,-2.375526 z m 65.68795,17.907752 c 30.11614,-0.314081 49.60261,39.897232 36.59493,87.345792 -3.88698,14.18 -4.0166,15.54302 -0.54907,19.36961 4.49725,4.96295 4.83477,13.7661 0.73192,19.36956 -2.4529,3.34981 -3.80009,3.72111 -7.68494,1.6446 -2.61594,-1.39784 -8.35877,-2.55803 -12.80821,-2.55826 -6.70159,0 -8.91568,1.23398 -12.62525,7.30925 -5.60969,9.18843 -5.62811,14.74235 0,21.92781 5.42108,6.92168 5.77136,11.11241 0.91488,12.97397 -2.03084,0.77845 -6.7278,7.60723 -10.2466,15.16676 -8.16068,17.53091 -12.05494,22.28768 -23.78672,28.14067 -12.73345,6.35292 -21.5213,6.03538 -30.0079,-1.09634 -14.26753,-11.98975 -5.57032,-36.57022 11.71043,-33.25718 4.11169,0.78814 10.23378,3.41436 13.72314,5.84739 3.48878,2.43326 6.76446,4.02583 7.31901,3.47192 0.55426,-0.55368 2.14089,-7.03894 3.47648,-14.2531 3.08724,-16.68006 -1.28259,-29.45727 -14.63801,-42.75923 -11.46413,-11.41886 -40.1586,-26.57529 -61.66252,-32.52626 -22.80522,-6.31135 -56.80402,-10.16831 -77.21524,-8.77117 -30.47318,2.08575 -82.74803,21.02096 -116.9209,42.21109 -14.29813,8.86638 -65.77531,58.21924 -75.56851,72.5445 -19.62053,28.70151 -26.46144,47.023 -36.04604,95.2033 -7.49026,37.6545 -7.49101,46.1908 0.54906,87.34591 8.06669,41.28634 21.62505,72.99178 45.19469,105.43622 16.98323,23.3783 30.18358,34.96471 62.0285,54.81954 50.70323,31.61207 88.5598,43.06217 144.184,43.12464 29.58659,0.0346 33.36301,-0.59277 58.91794,-8.04013 32.96511,-9.6066 44.99637,-14.80914 54.16055,-23.38973 11.18942,-10.47749 14.6379,-16.56656 14.6379,-26.86154 0,-11.29629 -2.37645,-12.10921 -16.10173,-5.11652 -13.51841,6.88761 -25.80666,1.01482 -32.93548,-15.71496 -3.13452,-7.35509 -3.19255,-7.96576 1.82975,-11.87745 8.6908,-6.77012 13.99455,-6.85442 27.44617,-0.91373 10.91235,4.81988 13.70161,5.1391 19.57833,2.92373 5.72158,-2.15688 8.13827,-1.83997 14.27203,1.64465 14.71925,8.36183 16.80466,18.11756 7.13605,32.70893 -4.25528,6.4214 -5.46432,10.99734 -4.94037,17.3595 0.90437,10.96673 5.27829,12.24482 20.12728,5.29919 9.5491,-4.46653 11.64616,-4.7693 16.46771,-2.19274 3.0426,1.62636 6.23543,4.34639 6.95302,6.21286 1.46741,3.81805 -4.88343,11.87786 -9.33172,11.87763 -6.35275,0 -5.51212,5.30895 2.01271,13.15664 9.69246,10.10787 15.20366,20.66895 15.18686,29.05428 -0.0404,18.69463 -11.60281,36.41064 -26.71426,40.93196 -10.82453,3.23885 -15.55365,3.32019 -17.38259,0.36547 -0.76754,-1.24103 -3.60396,-2.37559 -6.40413,-2.37553 -6.4807,0 -15.40146,-11.5315 -16.10179,-21.01415 -0.67816,-9.17619 4.67236,-17.3595 11.34444,-17.3595 5.94953,0 14.63796,9.80401 14.63796,16.44584 -6e-5,5.75507 4.8436,4.07081 8.41685,-2.92373 4.08173,-7.9903 3.52464,-22.42538 -1.2808,-31.42986 -8.50986,-15.94659 -31.15614,-17.3633 -56.35623,-3.28919 -61.97538,34.61259 -95.53626,43.36355 -157.54126,40.93191 -45.1836,-1.7719 -81.79499,-11.69063 -138.51177,-37.82545 C 222.86496,660.31146 218.15554,656.35647 189.9278,628.23231 167.33828,605.72529 154.39353,590.72441 143.63522,574.3265 117.983,535.22746 108.9194,512.78499 102.28294,471.81383 l -1.28086,-8.04013 15.73586,0.91366 c 27.05559,1.52665 39.27923,-8.02182 40.80338,-32.1609 0.78157,-12.37762 0.11547,-14.76544 -6.77011,-25.03427 -6.42296,-9.57814 -9.52722,-11.93248 -21.0421,-16.08037 -9.48565,-3.41702 -16.51887,-4.5197 -23.23777,-3.65465 -5.28101,0.67989 -9.514694,0.70812 -9.514694,0 0,-0.70801 1.464056,-8.82937 3.293574,-17.9077 7.86473,-39.02386 21.78954,-77.949 35.86302,-100.68522 42.55607,-68.75001 113.86866,-123.56343 180.04713,-138.328 20.51538,-4.5771 29.60132,-5.34481 67.70061,-5.29925 44.95786,0.052 55.65156,1.47271 86.91301,10.78117 20.32739,6.05276 59.99113,22.40379 68.24961,28.14073 3.51661,2.4429 11.19606,6.73813 17.19963,9.68478 6.00356,2.94658 11.98935,7.2906 13.17419,9.50204 3.54652,6.61799 10.21416,4.50418 18.48043,-5.66466 7.83413,-9.63587 12.85434,-25.6439 12.80821,-40.74923 -0.0231,-7.17351 -9.72779,-30.88143 -12.62524,-30.88166 -0.83278,0 -5.61305,4.56041 -10.61253,10.23298 -4.99943,5.67205 -9.68086,9.37866 -10.42957,8.22291 -0.74923,-1.15569 -4.49199,-3.65696 -8.41691,-5.66465 -15.41242,-7.88424 -11.07146,-34.265713 7.13605,-43.307434 6.16199,-3.059922 12.1711,-4.327331 17.74858,-4.385586 z M 72.823995,75.651301 c 0.285214,-0.02887 0.701255,-0.02887 1.09784,0 2.129804,0.161659 5.000123,3.545073 6.587097,7.857451 3.936462,10.699305 2.296948,10.917603 -4.574381,0.548487 -4.253429,-6.419665 -5.104623,-8.195954 -3.110556,-8.405649 z m 24.701542,6.212856 c 0.363156,0.08025 1.028211,1.050093 2.012774,2.740991 1.318909,2.264905 1.808679,4.589219 1.280799,5.11646 -1.601404,1.599099 -3.915326,-1.864798 -3.842464,-5.664658 0.02887,-1.466885 0.185331,-2.273103 0.549065,-2.192793 z m 173.460033,7.491985 c -16.15444,0.129327 -19.855,2.028074 -10.79544,5.664715 7.12889,2.861774 13.96061,2.690589 20.67611,-0.365465 9.25812,-4.212726 6.96683,-5.434409 -9.88067,-5.29925 z m -44.09685,4.202853 c -11.9599,0.418005 -14.21534,1.336519 -10.97851,4.568319 1.86179,1.859948 11.49415,1.820861 18.29752,0 9.32757,-2.496424 5.25375,-5.007859 -7.31901,-4.568319 z m 477.19806,63.773385 c 2.4686,0.28868 2.68863,6.23381 1.46377,19.73508 l -1.46377,16.62856 -14.45499,9.68478 c -14.8524,10.05833 -36.96092,31.58534 -36.96092,35.99818 -6e-5,3.84686 7.81686,-1.07324 13.90605,-8.77111 5.57973,-7.05459 35.64097,-30.55535 37.14388,-29.05434 3.97428,3.96914 0.0346,28.87183 -4.57438,28.8716 -5.05238,0 -16.69462,11.17724 -23.23772,22.29328 l -6.22111,10.41571 -1.0979,-11.32937 c -1.21308,-12.114 -3.97416,-13.24296 -12.25932,-5.84739 -5.00728,4.46982 -19.3953,26.42893 -19.3953,29.60253 -6e-5,1.21689 -0.9531,2.19303 -2.19574,2.19279 -5.69474,0 0.20727,-25.88436 9.33178,-40.74923 3.51211,-5.72164 6.40408,-11.74662 6.40408,-13.33937 -6e-5,-1.59263 -3.75668,-6.30235 -8.41679,-10.41577 l -8.59987,-7.49198 13.72308,0 c 14.11707,-0.14954 29.02922,-5.54157 34.58222,-12.24304 2.79907,-3.37804 2.32662,-3.65442 -5.85513,-3.6546 -10.42177,0 -20.21602,-6.40927 -18.1145,-11.87757 0.77267,-2.01064 5.5717,-4.19685 11.16148,-5.11651 12.65122,-2.08108 24.25905,-6.87185 30.37376,-12.60851 2.11543,-1.98465 3.63537,-3.05495 4.75734,-2.92372 z m -266.04526,25.03427 5.48926,5.11652 5.67228,5.11646 6.03815,-4.751 c 8.66782,-6.80886 22.23924,-6.55084 26.89728,0.54849 1.93685,2.95271 9.16983,9.78841 15.91876,15.16676 18.18587,14.49218 19.13671,19.26812 12.44223,54.45407 -2.27057,11.93288 -2.01624,13.37344 2.92765,20.64869 4.13738,6.08861 5.58584,12.08946 6.58709,26.67886 0.70859,10.32946 1.06343,19.03833 0.73186,19.36956 -0.33198,0.3314 -6.15778,-14.04664 -12.80815,-31.97806 -6.64986,-17.93148 -12.59575,-32.26512 -13.35722,-31.79532 -0.76159,0.46996 -0.71765,6.67849 0.18302,13.88757 2.36618,18.93579 2.39851,24.60339 0,22.11055 -1.88131,-1.95602 -11.22931,-25.41885 -18.66339,-46.96203 -1.64425,-4.76514 -4.75925,-9.69384 -7.13605,-10.96391 -6.26453,-3.34848 -24.80067,-0.99876 -31.47166,4.02006 -7.24892,5.45329 -19.89627,25.19674 -27.62919,42.75924 -11.54138,26.21305 -16.48457,33.68304 -25.98246,40.20103 -12.10551,8.30819 -31.8765,12.11123 -70.26222,13.52216 -28.73609,1.05639 -29.8979,1.33254 -36.41202,7.49199 -3.69634,3.49496 -7.8093,8.958 -9.14865,12.0603 l -2.56172,5.66472 -0.73191,-5.29925 c -0.49422,-2.85658 0.60645,-9.80169 2.56172,-15.53223 1.95521,-5.73076 2.91541,-10.97591 2.19562,-11.69484 -0.72025,-0.71915 -5.26709,3.18793 -10.2466,8.77118 -4.9794,5.58313 -8.58653,8.26621 -7.86784,6.03012 0.76984,-2.39822 0.41223,-3.37712 -0.91494,-2.55826 -4.14344,2.55739 -8.31235,13.48429 -11.16142,28.87166 -1.55412,8.3922 -3.61482,15.67079 -4.57432,16.2631 -3.84045,2.3705 -4.64672,-19.15507 -1.28086,-35.26719 4.14725,-19.85344 4.16607,-18.52252 1.09784,-16.62862 -3.5889,2.21531 -13.33101,23.95005 -13.35716,29.78526 -0.0462,10.03304 -4.25955,7.14292 -8.05087,-5.48192 -6.51423,-21.6922 -4.09332,-40.53099 9.51464,-70.35177 12.07497,-26.46126 33.12601,-50.60871 55.62437,-64.13884 22.12954,-13.30791 57.89239,-16.0425 95.3298,-7.30931 7.42362,1.73125 14.22238,2.60577 15.18691,2.01006 0.96452,-0.59497 1.82969,-6.11153 1.82969,-12.24304 l 0,-11.14664 7.68494,0 c 5.72043,0 8.49924,-1.32797 11.34444,-5.66466 3.67509,-5.60126 3.98681,-5.8098 9.51469,-2.19279 5.52014,3.61193 5.95709,3.65419 12.25932,-2.37553 l 6.58709,-6.21291 z m -105.5764,46.04842 c -12.11827,0.0289 -25.48235,2.96385 -39.70549,8.95391 -12.7608,5.37425 -18.33638,9.79049 -36.22906,27.95794 -14.14629,14.36342 -19.57827,23.97701 -19.57827,35.08451 6e-5,3.76297 0.53579,6.76134 1.09784,6.76105 0.56234,0 8.98647,-4.22952 18.66345,-9.31931 19.29317,-10.14787 13.94589,-9.74274 60.74759,-5.29919 10.38614,0.98577 18.88007,0.64127 24.1527,-1.0964 10.54296,-3.47504 28.07826,-22.62202 30.00784,-32.89172 2.53487,-13.49474 -0.20554,-18.82159 -13.17419,-24.85154 -7.75515,-3.60598 -16.55744,-5.32182 -25.98241,-5.29925 z m -2.92759,6.21292 c 15.75941,-0.25635 33.83062,2.73383 24.88456,5.66465 -1.86393,0.61079 -11.46684,1.66919 -21.40802,2.37553 -13.91494,0.98808 -18.77211,0.60126 -20.85913,-1.82733 -2.20555,-2.56634 -1.48744,-3.50391 3.47648,-4.75099 3.6173,-0.90887 8.65241,-1.37636 13.90611,-1.46186 z m 165.95811,0.36546 c -6.52474,0 -9.47196,5.44065 -5.48925,10.23298 3.18838,3.83669 10.35185,4.47415 12.44228,1.09639 2.82788,-4.56941 -1.27942,-11.32914 -6.95303,-11.32937 z m -190.65971,4.56826 c 1.59927,0.15242 1.59079,1.57531 0.18302,4.20286 -1.37612,2.56819 -5.44451,4.55665 -10.24654,5.11651 -10.17426,1.18589 -10.29377,-1.81116 -0.18302,-6.03018 5.38723,-2.24799 8.64733,-3.4419 10.24654,-3.28919 z m 54.70943,5.84745 c 3.52828,0.13164 4.02544,1.7357 4.02544,5.29919 -6e-5,2.93903 -2.78949,3.73785 -14.08907,4.20286 -22.6513,0.93162 -39.10614,3.57272 -37.87574,6.03018 0.62129,1.24096 1.57439,2.1757 2.19568,2.01 5.56085,-1.48195 47.57351,-3.10057 47.57351,-1.82727 0,0.91286 -2.59065,4.91871 -5.67223,8.95385 -5.49682,7.19666 -5.86413,7.38869 -19.76134,6.21285 -9.67306,-0.81817 -13.43632,-0.48613 -11.89334,1.0964 1.24276,1.27457 4.28478,2.69215 6.77006,3.28919 2.68164,0.64415 1.30003,1.3069 -3.47648,1.46186 -10.97638,0.35738 -20.31024,-9.09362 -20.31024,-20.64868 0,-9.9868 1.47173,-10.89486 17.74857,-12.06031 7.06024,-0.50518 18.01341,-1.69875 24.51858,-2.74099 4.7514,-0.7613 8.12962,-1.35805 10.2466,-1.27913 z m -72.82387,9.86751 c 12.16676,0 13.06721,0.32794 14.08901,5.66466 1.36342,7.12167 -1.9398,9.00864 -19.57827,11.14664 -14.30096,1.73333 -23.78673,5.23522 -23.78673,8.58844 -1.1e-4,1.16631 3.18885,1.27341 7.31896,0.36546 4.03888,-0.88762 14.35627,-2.72644 23.05486,-4.20285 13.81703,-2.34475 16.25929,-2.19204 18.6634,0.91366 1.514,1.95516 2.70456,3.94801 2.74457,4.56832 0.0404,0.62043 -9.36435,1.09663 -20.85907,1.0964 -17.30251,-6e-5 -22.54963,0.91366 -30.55685,5.11646 -5.31876,2.79226 -10.02951,5.11675 -10.61247,5.11652 -2.88025,0 -0.6042,-8.82481 4.20846,-15.8977 5.18862,-7.62593 6.26741,-8.17701 25.98234,-10.9639 11.31292,-1.5991 20.67617,-3.89443 20.67617,-5.11652 -6e-5,-1.22226 -1.8506,-1.72675 -4.02543,-1.09634 -2.17444,0.63047 -10.10971,1.79332 -17.56561,2.5582 l -13.54013,1.46186 5.3063,-4.75099 c 4.06053,-3.53381 8.55206,-4.56809 18.48049,-4.56832 z m 48.48832,12.97397 c -8.66581,0.14203 -19.02944,1.38559 -19.02944,2.92367 6e-5,1.07844 3.75725,1.67831 8.41685,1.27912 4.66012,-0.39895 11.93548,-0.90817 16.28475,-1.09639 4.34916,-0.18822 6.73415,-1.09819 5.30629,-2.01 -1.3189,-0.84254 -5.7788,-1.1815 -10.97845,-1.0964 z m 313.98452,29.968 c 2.4541,0 -1.44939,34.54261 -4.57433,40.56649 -1.6092,3.10254 -7.49556,10.70168 -13.17419,16.8113 -5.67805,6.10963 -10.24654,12.42381 -10.24654,14.07037 0,3.5296 -2.74025,3.84241 -5.85525,0.73093 -3.22562,-3.22124 -28.07785,1.24604 -42.63308,7.67472 -6.65771,2.94029 -15.34805,6.09611 -19.21234,6.94378 -5.98902,1.31366 -6.94413,2.48984 -7.13605,8.58844 -0.20496,6.50223 -0.43705,6.80239 -1.82975,1.82727 -1.65643,-5.92071 -6.97358,-9.30673 -6.95302,-4.38553 0.006,1.65453 1.05702,6.94136 2.37864,11.69484 1.64869,5.92978 3.321,8.1403 5.48926,7.30925 1.73766,-0.66603 3.84685,-0.26154 4.57444,0.91367 0.72752,1.17532 5.34157,2.0193 10.24654,1.82732 7.73846,-0.30253 8.96574,-0.90754 8.96574,-5.48198 0,-2.89913 -1.13594,-5.29896 -2.3787,-5.29919 -1.24258,0 -2.19568,1.53703 -2.19568,3.47192 6e-5,1.93466 -0.95304,2.77719 -2.19562,2.01 -2.31023,-1.4256 -3.28786,-12.24274 -1.0979,-12.24297 0.66465,-6e-5 3.62567,1.53357 6.5871,3.47186 9.28698,6.0766 32.40657,3.65385 49.40314,-5.11646 6.542,-3.37579 17.38259,-2.30745 17.38259,1.6446 0,2.89716 -21.45825,16.21321 -34.03327,21.19688 -13.62234,5.39902 -39.53471,9.46798 -50.68394,8.04018 -8.25975,-1.05806 -9.23369,-1.70314 -9.88068,-8.40565 -0.97336,-10.08338 -3.83052,-9.26556 -9.14876,2.74094 -3.61441,8.16131 -5.66812,10.23326 -10.2466,10.23303 -5.71645,-6e-5 -10.2466,-5.52915 -10.2466,-12.24303 5e-5,-1.89991 3.05986,-7.08351 6.95308,-11.51211 3.89379,-4.42837 6.53554,-8.63977 5.85518,-9.31931 -2.46571,-2.46265 -9.8443,3.64051 -14.08901,11.51204 -2.38863,4.42912 -5.73764,8.04048 -7.31901,8.04025 -3.64126,-6e-5 -3.49444,-2.07265 0.54906,-9.13658 4.73131,-8.26541 4.53362,-8.35998 -8.41684,-8.04024 -18.45676,0.45668 -31.24003,-8.18216 -40.25444,-27.04428 -3.86805,-8.09532 -6.68005,-15.80133 -6.22117,-17.17682 0.45957,-1.37595 6.31574,2.30174 12.99123,8.22292 12.91871,11.45841 23.65947,16.99432 32.75246,16.99408 8.22915,0 8.88237,-3.40922 1.82976,-8.95384 -5.94843,-4.67652 -4.52214,-4.89308 5.67222,-0.73093 6.81278,2.78169 1.98968,-3.5583 -7.13605,-9.31932 -10.59861,-6.69061 -17.85048,-18.25416 -16.65074,-26.67886 1.06863,-7.50469 4.47901,-4.72028 9.88068,8.04018 6.56429,15.50798 21.34457,27.28792 18.1145,14.43583 -2.33066,-9.27462 0.56812,-14.50344 7.31895,-13.52217 3.3926,0.49307 13.53862,-1.96421 23.23789,-5.84739 20.9626,-8.39312 32.55132,-9.15886 34.76513,-2.19279 1.94014,6.10472 -8.24809,15.53246 -16.83364,15.53217 -9.77762,6e-5 -22.54651,10.59405 -22.68889,18.82142 -0.11489,6.59044 5.09013,2.9534 7.13599,-4.93379 2.57535,-9.92415 10.79555,-10.19129 10.79555,-0.36546 -6e-5,6.96745 1.6842,7.7377 10.79549,5.29925 3.81083,-1.01967 5.54243,-3.5273 6.58704,-10.05025 1.22983,-7.68003 2.31196,-8.96562 9.51475,-10.96396 4.50331,-1.24911 10.69827,-2.36854 13.72314,-2.37547 11.02684,-0.0231 24.90656,-8.94796 32.75241,-21.19694 6.60095,-10.30526 22.96243,-26.13038 27.08024,-26.13061 z m -183.34059,3.10645 c 1.01839,-0.0589 1.84447,0.82897 3.11055,2.55826 1.96953,2.68955 3.11056,10.72587 3.11056,22.47602 6e-5,15.70866 0.68653,19.29923 5.67216,27.04427 l 5.85519,8.95385 -7.13593,-7.85745 c -8.16062,-9.19293 -13.54013,-19.11928 -13.54013,-25.03428 6e-5,-2.29129 -1.17393,-4.20256 -2.56172,-4.20279 -1.51359,0 -1.91491,2.07062 -1.09784,5.11646 0.74987,2.79226 1.26366,6.73859 1.28086,8.77111 0.0173,2.03258 3.68099,8.82256 8.05093,15.16676 9.68137,14.05616 8.71938,14.90684 -2.01278,1.82733 -9.55187,-11.64155 -12.14569,-17.88431 -12.99123,-31.61259 -0.53983,-8.77418 0.44283,-11.6587 5.85524,-17.72502 3.42868,-3.84282 5.09527,-5.40572 6.40414,-5.48193 z m 30.37382,31.24713 c 0.23844,-0.0791 0.52366,-0.0115 0.73185,0 1.45395,0.0924 2.19562,2.34458 2.19562,7.12652 6e-5,4.4469 -1.09703,8.04047 -2.37858,8.04024 -5.36553,0 -5.85726,-13.40121 -0.54907,-15.16676 z m -107.58918,4.20285 c 0.52366,0.0404 0.92764,0.19573 1.09784,0.36547 0.68076,0.68024 2.61588,7.64978 4.39136,15.53217 1.77618,7.88251 4.44344,18.66385 5.85524,23.93787 l 2.56161,9.50205 13.1742,0 c 9.82986,6e-5 13.35721,0.95945 13.35721,3.28919 -6e-5,4.57657 -5.38724,5.72903 -13.90611,3.28919 -10.66489,-3.05496 -10.79514,-2.84607 -10.2466,6.21285 0.63902,10.56103 -3.50945,11.96787 -9.69765,3.28919 -5.54422,-7.77621 -20.71225,-48.14404 -21.22512,-56.46413 -0.27193,-4.41849 1.23208,-5.95813 7.13605,-7.67472 3.04479,-0.88543 5.93393,-1.3954 7.50197,-1.27913 z m -79.95992,11.14664 c 0.97342,-0.0346 2.10087,0.19631 3.29346,0.36547 4.94498,0.69993 5.24284,1.74009 5.85524,21.19688 l 0.73191,20.46596 8.05087,3.83738 c 5.6053,2.66952 7.45607,4.6137 5.85518,6.21286 -1.60089,1.5991 -4.53518,1.10956 -9.51475,-1.46186 -8.67902,-4.48224 -9.93991,-3.55085 -11.16142,8.40565 -0.21419,2.09695 -5.64075,2.40733 -7.68487,0.36546 -0.82886,-0.82712 -1.64685,-3.53237 -1.64685,-5.84739 6e-5,-2.31531 -2.07236,-5.03823 -4.75729,-6.03018 -4.17739,-1.54333 -4.30851,-1.876 -1.0979,-3.1064 3.08435,-1.18219 3.65957,-4.86698 3.65957,-20.46595 -6e-5,-17.99897 1.60556,-23.71357 8.41685,-23.93788 z m 298.6147,27.04428 c 4.52894,0.0462 16.95708,1.93679 27.81215,4.20285 18.76882,3.91816 26.71432,7.30036 26.71432,11.69484 -6e-5,2.91599 -8.90679,2.17865 -19.21234,-1.64459 -15.46751,-5.73793 -27.80096,-7.07883 -45.92666,-5.11646 -9.6163,1.04131 -19.70973,2.48158 -22.50592,3.28913 -3.03371,0.87613 -4.94031,0.53578 -4.94031,-0.91367 0,-3.25056 27.70644,-11.6237 38.05876,-11.5121 z m -64.40709,5.11652 c -0.26962,0.0462 -0.60455,0.17378 -0.91493,0.36546 -1.24264,0.76702 -2.19563,1.82814 -2.19563,2.37553 0,0.54733 0.95299,1.09662 2.19563,1.09639 1.24269,0 2.3787,-1.06164 2.3787,-2.37552 -6e-5,-0.98578 -0.65339,-1.59795 -1.46377,-1.46186 z m -170.16651,2.55825 c 1.31261,0.0346 2.388,0.15878 2.92759,0.36547 4.22566,1.61936 4.84863,4.48957 1.46377,6.57832 -3.47429,2.1447 -2.68008,16.05589 1.09784,19.18682 1.8484,1.53184 5.00514,2.02577 6.95308,1.27913 1.95515,-0.74906 6.52036,0.90368 10.2466,3.65466 8.04284,5.9385 14.05599,3.60864 15.18686,-5.84745 0.71366,-5.96973 2.22223,-6.88438 10.24665,-6.03012 2.34279,0.24941 7.77212,-0.10739 12.0763,-0.91367 7.99937,-1.49869 8.3441,-2.67875 4.02538,-13.1567 -1.34946,-3.27267 -0.45496,-3.83715 5.48931,-3.83738 5.26715,5e-5 9.17122,2.06918 14.6379,7.8575 7.67848,8.1317 20.36567,14.61868 28.36111,14.61851 3.05594,0 5.70472,2.68678 7.86796,7.85751 1.77559,4.24332 5.27754,8.84842 7.8679,10.23297 2.59042,1.38444 4.75734,3.9431 4.75734,5.66466 -5e-5,4.90116 13.81419,8.54814 21.40808,5.66477 4.84424,-1.83945 6.82485,-1.66982 8.23389,0.54849 2.61593,4.11833 2.41317,7.27178 -1.46383,20.46595 -5.6904,19.36921 -16.82584,36.223 -34.94826,52.44401 l -17.01654,14.98403 -0.73192,-7.12646 c -0.77325,-7.73667 -5.4284,-8.49831 -6.77006,-1.0964 -1.20765,6.66331 -4.9403,9.41175 -4.9403,3.6546 5e-5,-2.73031 -0.95316,-4.93349 -2.19574,-4.93373 -1.2427,0 -2.19574,1.70713 -2.19574,3.83728 0,5.49075 -7.15233,23.20723 -9.33161,23.207 -3.48942,0 -4.15268,-3.87723 -2.01277,-11.32937 1.18525,-4.12786 1.66855,-8.01911 1.09784,-8.58839 -1.87727,-1.87478 -7.8679,4.70446 -7.8679,8.58839 5e-5,2.09279 -1.49737,5.63105 -3.29358,8.04024 -2.73609,3.66937 -2.74896,2.43297 0.18302,-7.67478 2.47806,-8.54289 2.80392,-12.73182 1.09784,-14.43577 -1.7066,-1.70383 -3.21206,-0.45149 -5.12327,4.20274 -2.0876,5.08326 -2.93239,5.61252 -3.65945,2.55831 -1.49471,-6.28104 -3.64859,-4.42109 -9.33173,7.67472 -3.45483,7.35377 -8.25969,13.18465 -13.72314,16.62862 -15.28327,9.63519 -21.51899,25.99979 -16.10178,42.39371 2.03032,6.14311 4.32502,8.3635 9.51474,9.50199 7.2245,1.58472 25.17896,18.57275 23.78667,22.47607 -0.46477,1.30234 -6.02539,2.11254 -12.62525,1.82733 -11.74616,-0.5075 -11.79148,-0.41396 -8.59981,4.56832 1.77046,2.76356 3.77394,6.78236 4.57438,8.95379 1.61307,4.37992 0.5456,4.65301 -6.95302,1.64459 -2.81409,-1.12913 -6.12528,-4.72155 -7.31901,-7.85739 -2.85237,-7.4917 -6.24098,-7.19534 -7.13599,0.54791 -1.10246,9.53853 -8.04076,9.27936 -12.07636,-0.36547 -1.82888,-4.37155 -8.88958,-13.64583 -15.7358,-20.64868 -6.84621,-7.00291 -12.44228,-14.66077 -12.44228,-16.99403 6e-5,-2.33413 2.32761,-8.57551 5.12322,-13.88769 4.26139,-8.09694 4.91935,-12.46064 4.39147,-27.59242 -0.45438,-13.03938 0.91534,-23.47899 4.57438,-37.64271 4.78523,-18.52535 4.6861,-20.32167 1.46377,-32.70905 -2.64486,-10.17016 -4.417,-13.35802 -8.05092,-13.88763 -6.47134,-0.94299 -8.86534,6.60471 -10.61253,33.07445 -0.51674,7.82564 -1.61937,14.77439 -2.37865,15.53229 -1.58241,1.58039 -1.91445,-9.44495 -1.2808,-32.16085 0.59063,-21.1746 -3.42914,-17.09293 -7.86796,8.04018 l -3.29352,19.00409 0.73191,-21.92775 c 0.4157,-12.09986 0.0231,-21.92765 -0.91487,-21.92782 -2.53863,0 -4.25153,5.74376 -5.85519,19.3695 -1.84234,15.65284 -5.77406,15.92217 -5.30635,0.36547 0.57505,-19.11628 0.18071,-21.49682 -2.37858,-17.54229 -1.20483,1.86156 -2.23292,8.88976 -2.3787,15.71502 -0.25173,11.74963 -0.3597,12.04546 -2.19574,4.5682 -1.06632,-4.3435 -2.24568,-13.21958 -2.56161,-19.73502 -0.36142,-7.45821 -1.56977,-11.87728 -3.29352,-11.87752 -1.50586,0 -5.94132,5.73256 -9.88062,12.60839 -4.4678,7.79902 -11.87768,15.93938 -19.57832,21.74514 -6.78894,5.11888 -13.72228,11.95927 -15.36988,15.16676 -5.1119,9.94996 -7.68465,29.87279 -6.0382,45.13482 l 1.46382,14.61844 11.34444,6.21292 c 6.21326,3.40922 12.77403,6.72191 14.63802,7.49198 12.16169,5.02674 14.69258,7.30106 14.08902,12.6085 -0.34411,3.02777 -0.74139,7.74683 -0.73192,10.41571 0.0346,10.07785 -10.63221,7.52732 -16.28475,-3.83744 -1.63027,-3.2773 -5.1455,-5.82158 -8.41685,-6.2128 -10.72881,-1.28363 -17.06851,-5.38083 -26.71431,-17.54229 -13.80588,-17.40741 -19.98866,-31.10169 -24.1526,-52.07848 l -3.6595,-18.27322 6.77006,-12.0603 c 9.90279,-17.62462 12.96121,-31.77749 9.33167,-42.7593 -2.50249,-7.57356 -2.29689,-9.5394 0.91487,-14.43577 5.91287,-9.01158 4.6659,-12.60833 -4.02543,-12.60856 -9.17399,0 -18.23089,8.11178 -24.33567,21.7452 -4.79868,10.7179 -9.59119,41.66809 -7.50197,48.24116 2.34954,7.39302 -2.53217,4.94135 -5.85513,-2.92373 -3.79634,-8.98571 -3.8203,-37.5236 0,-50.98214 3.0844,-10.86594 17.54327,-28.00973 28.3611,-33.62277 9.36937,-4.8611 43.50645,-13.80346 52.69667,-13.88758 l 7.50197,-0.18302 -0.73186,10.78118 -0.54906,10.78117 15.004,1.82727 c 18.59071,2.38505 23.0562,1.074 21.22506,-6.21286 -1.29004,-5.13187 -0.9248,-5.29532 8.78278,-4.20285 8.25796,0.92972 10.4455,0.3672 11.71037,-2.92366 1.05864,-2.75601 -0.18649,-5.26623 -3.84247,-8.22298 -4.19898,-3.39559 -4.60752,-4.72386 -2.19568,-6.21285 4.02341,-2.48332 29.41512,-6.08659 38.60765,-5.84745 z m 182.79176,8.04019 c 1.24264,0 2.37864,0.36604 2.37864,0.91366 0,0.54733 -1.136,1.6088 -2.37864,2.37553 -1.24264,0.7669 -2.19574,0.40068 -2.19574,-0.91367 6e-5,-1.31434 0.9531,-2.37529 2.19574,-2.37552 z m 28.3611,2.19279 c 3.36811,0 5.36923,1.09097 4.57432,2.37553 -0.76811,1.24096 -2.85669,2.19296 -4.57432,2.19273 -1.71705,0 -3.80621,-0.95154 -4.57444,-2.19273 -0.79484,-1.28479 1.20638,-2.37524 4.57444,-2.37553 z m -9.14876,11.32937 c -3.49381,0 -4.37456,2.57529 -1.82975,5.11646 1.80486,1.80285 5.30623,-0.0785 5.30623,-2.92366 6e-5,-1.16788 -1.61255,-2.19262 -3.47648,-2.1928 z m 20.12722,0.36547 c -0.46246,0.16974 -0.80536,1.50522 -0.73192,3.28913 0.10855,2.62875 0.74289,3.07909 1.46383,1.27913 0.65293,-1.62906 0.56812,-3.63572 -0.18302,-4.38553 -0.18764,-0.18764 -0.39491,-0.2396 -0.54907,-0.18302 z m -104.84449,22.11055 c -5.63366,0 1.35516,9.19853 9.14864,12.06036 5.05907,1.85769 8.99744,1.72646 8.9658,-0.18302 -0.0346,-2.09147 -14.96832,-11.8774 -18.11444,-11.87763 z m 152.96682,8.9539 c 1.54853,-0.0837 3.25548,4.58714 5.12333,14.07036 1.50465,7.63668 5.09499,19.27378 8.05087,25.948 5.13973,11.6065 20.30187,32.34375 23.6037,32.34352 0.86494,0 2.92956,-6.78975 4.57438,-15.16676 3.62221,-18.45156 6.09831,-25.39956 8.96574,-25.39974 3.14,0 4.3573,5.96489 5.48926,23.75509 0.55137,8.66754 2.69983,21.38822 4.57438,28.32346 4.41827,16.34699 6.73496,44.95231 3.65951,44.95208 -1.26147,0 -2.37865,-1.11516 -2.37865,-2.37558 -6e-5,-1.2599 -9.84089,-12.13738 -21.95697,-24.12061 -21.03938,-20.80965 -47.31496,-40.45888 -50.13511,-37.64271 -1.32607,1.32445 2.09401,4.33408 25.79944,23.38967 16.23446,13.05041 15.78615,12.64026 31.47172,30.15073 7.34245,8.1963 14.14103,14.35044 15.18691,13.70484 1.04564,-0.64519 2.01266,7.94423 2.01266,19.18683 5e-5,11.24225 -0.4769,20.46624 -1.0979,20.46595 -0.62124,6e-5 -1.28075,-0.81257 -1.28075,-1.82727 -6e-5,-1.01522 -5.18678,-7.35238 -11.71042,-14.25315 -11.58376,-12.25234 -19.13989,-16.23239 -40.80339,-21.01404 -8.08274,-1.78408 -7.80578,-7.01925 0.73191,-16.99409 3.67735,-4.29667 6.5871,-8.52441 6.5871,-9.50204 0,-3.58272 -12.84863,-1.44131 -31.47166,5.11651 -10.50243,3.69865 -21.00341,6.5785 -23.23778,6.57833 -7.91588,0 -4.30054,-9.40985 8.4168,-22.11055 6.8346,-6.82584 12.44228,-13.5896 12.44228,-15.16676 -6e-5,-5.55127 -11.58745,-16.53763 -21.40797,-20.28322 -9.72981,-3.71083 -22.9473,-3.75217 -34.39925,0 -6.32457,2.07224 -6.72145,-1.94557 -1.2808,-13.33938 7.82344,-16.38451 33.58974,-22.02758 52.33073,-11.32943 5.49682,3.13798 11.34092,5.31351 12.80821,4.751 1.52069,-0.58284 3.31904,-8.46939 4.20851,-18.27316 1.44281,-15.90341 3.13244,-23.83026 5.12321,-23.93788 z m -158.45608,5.29925 c -2.43072,0.30138 -0.68497,3.27799 4.94031,6.76105 6.97375,4.31821 14.08907,5.14539 14.08907,1.6446 0,-2.1988 -3.81123,-4.3185 -15.18691,-7.85751 -1.76059,-0.54791 -3.03261,-0.64848 -3.84247,-0.54791 z m -6.95302,10.96391 c -0.60744,0.052 -1.09784,0.65847 -1.09784,1.64459 0,1.31481 3.93958,4.48703 8.59975,6.94379 9.70695,5.11773 11.71043,5.49636 11.71043,2.37547 -6e-5,-1.22434 -3.75725,-3.90748 -8.41685,-6.03013 -4.66023,-2.1231 -9.13138,-4.2719 -10.06364,-4.75099 -0.23267,-0.12009 -0.52943,-0.20034 -0.73185,-0.18302 z m -8.05093,10.96385 c -4.94602,0 -1.28201,4.30833 6.40414,7.49204 9.92005,4.10967 14.98587,4.68396 12.99117,1.4618 -1.44339,-2.33326 -15.78973,-8.95361 -19.39531,-8.95384 z m -161.20071,9.68478 c 0.8076,-0.18129 0.87313,1.87161 0.91482,6.76111 0.0803,9.43876 -0.88208,10.40999 -4.2084,4.20285 -1.61976,-3.02234 -1.40845,-5.34065 0.91488,-8.40565 1.11972,-1.47733 1.89367,-2.44948 2.3787,-2.55831 z m 157.90719,0 c -4.23916,0.0993 -2.84814,3.18688 4.2084,6.03018 6.55038,2.63926 10.61259,2.74838 10.61259,0.18244 -6e-5,-2.80583 -1.85845,-3.70945 -10.97857,-5.66466 -1.59974,-0.34295 -2.86461,-0.571 -3.84242,-0.54848 z M 358.99647,478.575 c 1.24264,0 2.37871,1.13479 2.37871,2.37558 0,1.24097 -1.13607,2.19302 -2.37871,2.19279 -1.24264,0 -2.19573,-0.95165 -2.19573,-2.19279 0,-1.24102 0.95309,-2.37535 2.19573,-2.37558 z m -60.56462,8.95384 c 3.02194,-0.15011 3.98929,3.14739 4.02538,10.78124 0.0289,5.55992 -0.84484,7.44383 -3.84247,7.30925 -5.74531,-0.25923 -16.46771,-4.40326 -16.46771,-6.39565 -6e-5,-0.9393 3.81227,-4.40302 8.41685,-7.67472 3.53883,-2.51484 6.0546,-3.92999 7.86795,-4.02012 z m 324.59711,2.37553 c -3.03267,0 -2.31692,3.99691 0.91493,5.29925 1.55361,0.62602 3.02205,1.18075 3.29352,1.27913 0.27194,0.0981 -0.0173,-1.24478 -0.73191,-3.1064 -0.71523,-1.86151 -2.36686,-3.47175 -3.47654,-3.47198 z m -266.41119,0.36546 c 0.78769,-0.0289 1.91018,1.03832 3.47654,3.10658 4.28357,5.65426 4.25528,8.75714 0,7.12652 -2.19654,-0.84184 -3.45431,0.0462 -3.47654,2.55825 -0.0173,2.13264 -0.98035,5.26525 -2.19568,7.12652 -1.50851,2.31046 -1.70978,-0.1553 -0.73185,-7.8575 1.08854,-8.57193 1.61486,-12.00771 2.92753,-12.06037 z m -291.661675,3.10658 4.574381,6.76099 c 2.565417,3.72307 4.74903,8.39809 4.757287,10.41571 0.01155,3.49311 22.202924,48.31881 32.203577,65.05257 14.16025,23.69423 54.71214,66.58533 82.52159,87.16306 36.77668,27.21235 69.92527,42.50878 108.32103,50.25128 29.51702,5.95177 73.22058,11.65529 90.02356,11.69484 9.58524,0.0231 12.45995,0.64617 10.06364,2.19273 -8.7296,5.634 -91.5632,-4.8492 -128.63127,-16.26315 C 223.32096,696.64312 160.64807,651.42505 121.67819,604.66002 102.33652,581.44967 70.198995,521.32909 66.419862,501.2338 l -1.463767,-7.85739 z m 215.910145,11.87751 c 1.4039,-9.2e-4 3.45051,0.72083 6.03815,2.01006 3.78751,1.88714 8.92983,2.82344 11.34444,2.19279 3.73191,-0.97486 4.2084,0.20208 4.2084,6.94385 6e-5,7.25111 -0.33313,7.82437 -5.30624,6.57832 -2.99093,-0.74981 -7.36595,-2.10007 -9.51469,-2.92372 -2.74503,-1.05189 -3.46597,-0.58971 -2.74463,1.64459 0.56466,1.74887 5.17253,4.15586 10.24661,5.29919 8.68959,1.9581 9.37075,2.73268 12.25931,13.52217 2.78672,10.41005 3.9352,11.7722 12.0763,14.43583 10.83123,3.54386 17.01666,8.6471 17.01666,14.25304 0,5.8057 -11.65557,5.55103 -17.01666,-0.36547 -6.1938,-6.83507 -7.40809,-5.57655 -6.22111,6.76106 0.96892,10.07068 0.66072,11.32948 -3.29358,11.32931 -6.77999,0 -7.50197,-1.73714 -7.50197,-19.55223 6e-5,-18.12559 -2.51294,-20.95047 -7.68488,-8.58844 -1.81728,4.34361 -4.51024,7.85774 -5.85524,7.85751 -3.93479,0 -5.45745,-7.06295 -2.56161,-11.69484 1.71324,-2.73909 2.04742,-5.5381 0.73191,-8.04024 -1.12699,-2.14331 -2.80738,-8.48556 -3.65956,-14.07025 -0.85275,-5.58464 -2.5981,-13.53342 -3.84241,-17.54234 -2.11866,-6.82826 -1.80804,-10.04863 1.2808,-10.05025 z m 401.08061,7.30931 c -1.31614,0 -1.68305,0.95206 -0.91488,2.19279 0.76812,1.24103 1.83085,2.19297 2.3787,2.19274 0.54791,0 0.91482,-0.95148 0.91482,-2.19274 6e-5,-1.24096 -1.06262,-2.19262 -2.37864,-2.19279 z M 434.748,531.38459 c 0.22921,-0.052 0.55773,0.0115 0.73186,0.18244 0.69588,0.69468 -0.10335,2.67206 -1.64673,4.20286 -2.23171,2.21167 -2.50734,1.93667 -1.28081,-1.27913 0.63625,-1.66885 1.50707,-2.94301 2.19568,-3.10646 z m -364.851655,2.92372 c 1.727676,-0.18071 4.535987,4.06949 8.965799,13.33938 9.455568,19.78692 21.392666,40.15779 30.922766,52.62674 4.16845,5.45381 7.32404,10.22767 6.95303,10.59844 -0.37182,0.37009 -7.1331,-0.87971 -15.18691,-2.55826 -8.05335,-1.67831 -15.321956,-2.42356 -15.918768,-1.82732 -2.024667,2.02218 5.640178,5.26039 18.114448,7.67471 6.83461,1.32267 14.32942,2.76732 16.8337,3.28919 5.60022,1.1677 20.70653,16.23291 18.48043,18.45595 -0.88671,0.88578 -9.82173,0.37702 -19.94426,-1.09639 -10.1231,-1.47341 -18.90357,-2.31872 -19.395305,-1.82727 -2.022069,2.01889 24.753795,8.04041 35.680055,8.04018 11.16269,0 12.51976,0.85154 25.43357,12.79124 7.49256,6.92796 17.53363,15.10821 22.32284,18.27316 6.02805,3.98403 8.59981,7.26612 8.59981,10.9639 -5e-5,5.48568 3.57585,7.56098 5.12333,2.92373 0.62574,-1.87311 2.45249,-1.73184 6.58704,0.54791 3.15178,1.73789 10.30573,5.54884 16.10185,8.58844 6.05293,3.17458 10.61247,7.17957 10.61247,9.31931 -6e-5,4.21272 11.24179,20.60198 20.12722,29.41986 7.63551,7.57824 24.89137,18.33153 27.81215,17.35949 1.24657,-0.41512 -2.66137,-4.14639 -8.59981,-8.40565 -13.09007,-9.38801 -27.31534,-23.76917 -31.47166,-31.79538 l -2.92759,-5.84739 28.72703,9.68478 c 21.66801,7.34441 36.52963,10.69734 59.28382,13.52211 33.18934,4.12029 68.69256,5.23164 81.05782,2.37558 l 7.8679,-1.82739 -7.13599,4.75106 c -10.74665,7.12865 -37.64722,11.13284 -58.73487,8.77117 -9.54344,-1.06892 -17.88748,-1.50586 -18.48048,-0.91372 -0.59295,0.59207 1.32491,3.69587 4.20839,6.76111 4.94106,5.25242 4.85867,5.61529 0.91488,7.12646 -3.54334,1.35823 -30.1759,-6.45136 -46.65857,-13.70484 -5.02345,-2.2104 -5.43776,3.62244 -0.54907,7.67477 4.06285,3.36714 4.33582,13.94266 0.54907,17.72491 -3.85471,3.84974 -5.66425,3.47602 -20.85907,-3.83727 -8.01715,-3.85829 -19.84322,-12.56278 -28.91006,-21.37962 -8.43255,-8.20023 -16.36737,-14.98409 -17.56549,-14.98403 -1.19761,0 -2.19574,2.46017 -2.19574,5.48198 0,3.02176 -0.98422,8.14602 -2.19568,11.32932 -1.91347,5.0257 -3.46009,5.66466 -12.25932,5.66471 -5.57355,-5e-5 -11.23803,-1.18981 -12.6253,-2.74099 -1.38681,-1.55112 -8.03199,-13.51021 -14.63796,-26.49607 -6.60598,-12.98615 -13.04429,-23.89452 -14.27198,-24.30334 -1.22821,-0.40877 -2.96916,3.02458 -3.84247,7.67471 -5.39723,28.72923 -34.61894,52.36498 -69.530475,56.09867 l -14.637903,1.6446 -4.940309,-8.04019 c -4.312493,-6.96902 -4.690949,-9.49916 -2.927592,-19.18694 2.474715,-13.59872 11.851821,-30.26135 20.859131,-36.91178 3.673997,-2.71305 6.770061,-5.47731 6.770061,-6.21286 5.8e-5,-0.7356 -3.042197,-2.61507 -6.770061,-4.02012 -3.728037,-1.40528 -6.783455,-3.82307 -6.770118,-5.48186 0.02887,-3.84161 17.079421,-21.67852 27.812216,-29.0544 4.51497,-3.10247 8.1993,-6.19726 8.23377,-6.94384 0.0346,-0.74641 -6.32267,-3.1777 -14.08902,-5.29931 -12.652319,-3.45599 -24.152646,-9.92859 -24.152646,-13.52205 -5.8e-5,-0.73191 5.846351,-1.37012 12.99123,-1.46192 7.145457,-0.0918 17.462896,-0.93526 23.054756,-1.82721 l 10.24666,-1.64465 -11.89339,-1.64466 C 85.758356,616.4403 60.747641,605.52819 60.747641,597.89873 c 0,-1.02474 4.696376,-1.82715 10.429623,-1.82738 12.151007,0 11.968332,2.56813 1.829753,-35.81539 -4.254815,-16.10779 -5.286548,-23.95791 -3.659563,-25.58247 0.202652,-0.20323 0.301957,-0.34006 0.549065,-0.36547 z m 222.680265,4.38547 c -0.83659,0.0895 -1.2808,0.33314 -1.2808,0.91372 0,1.03393 1.66815,2.35607 3.84247,2.92379 6.57705,1.71618 7.68678,1.70671 6.40413,-0.36547 -1.26614,-2.04586 -6.45436,-3.73953 -8.9658,-3.47198 z m 141.07355,12.7913 c 1.06805,-0.052 2.36271,0.56003 4.39136,1.64459 5.33372,2.85092 5.40208,2.7806 0.91488,26.86148 -1.0998,5.9023 -0.77181,7.38258 1.64679,6.57838 1.71774,-0.57158 3.3363,-3.10253 3.6595,-5.48198 0.32274,-2.37911 1.79061,-9.56475 3.11056,-16.08031 2.91864,-14.41216 7.78101,-16.5363 5.4892,-2.37547 -3.76349,23.26064 -4.06031,31.75353 -1.46383,30.15068 1.41856,-0.87522 2.56173,-4.11389 2.56173,-7.30926 -6e-5,-3.1956 0.99414,-10.05873 2.37864,-15.16676 4.60902,-17.00338 4.30655,-16.44202 6.77006,-12.0603 1.22099,2.17178 3.52914,3.83762 4.94031,3.83739 1.41186,0 4.77582,2.19296 7.50197,4.75111 2.72621,2.55727 7.97085,6.30921 11.71043,8.40559 7.52934,4.21982 37.87574,37.74629 37.87574,41.84551 -6e-5,5.63879 -8.13049,3.64334 -14.63802,-3.47187 -3.73895,-4.08836 -6.95297,-5.98485 -6.95297,-4.38558 0,4.57652 4.64251,12.43085 9.69765,16.44583 4.51064,3.58289 4.58339,3.63762 0.36605,5.66477 -4.42052,2.12438 -23.82454,0.48325 -30.73969,-2.55831 -2.11434,-0.93001 -5.0186,-5.12622 -6.40414,-9.31937 -2.72736,-8.25265 -13.85062,-18.92101 -19.94425,-19.18677 -5.6597,-0.24711 -16.51316,-7.05002 -21.04216,-13.33943 -4.57513,-6.35373 -7.63638,-28.87074 -4.57438,-33.43981 0.81875,-1.22122 1.67606,-1.95885 2.74469,-2.01011 z m 31.47166,15.16676 c -3.17406,0 -3.99183,2.71148 -5.67222,17.54217 -1.11585,9.85117 -0.87734,14.07059 0.91482,14.07036 1.44298,0 2.56172,-3.61239 2.56172,-8.40565 6e-5,-4.66196 0.8568,-11.8722 2.01266,-15.89763 1.1647,-4.05534 1.27382,-7.30902 0.18302,-7.30925 z m -312.3379,85.70119 c -1.64708,6e-5 -3.94131,1.01199 -5.12327,2.19268 -1.1826,1.18063 -7.80509,5.25589 -14.63796,9.1367 -11.02419,6.26158 -11.50345,6.96549 -4.94037,5.84733 l 7.31901,-1.27907 -9.1487,13.52216 c -10.60358,15.59453 -15.01203,18.71536 -30.556787,22.29328 -11.998065,2.76178 -18.610335,5.90005 -16.650678,7.85745 0.652469,0.65172 6.374111,-0.50345 12.808209,-2.55825 19.525216,-6.23555 18.325646,-0.44745 -4.940308,22.1106 -8.148957,7.90087 -14.820983,15.07923 -14.820983,16.08037 0,1.00142 0.715111,1.8428 1.646846,1.82733 2.196546,-0.0346 17.628428,-14.78398 27.629131,-26.49614 4.30424,-5.04048 8.52799,-8.71904 9.33167,-8.22297 0.80443,0.49595 0.0173,6.02377 -1.64673,12.42577 -2.98596,11.49472 -2.22195,17.93402 1.64673,14.07042 1.08577,-1.08404 3.83606,-9.55897 6.22117,-18.82142 4.65746,-18.08396 17.69887,-45.53988 22.32296,-46.96208 2.06641,-0.63555 2.90253,3.3367 2.92753,14.61862 0.0577,24.73277 3.74218,23.92569 5.12333,-1.09646 0.77637,-14.08023 2.44285,-24.95021 4.75735,-29.41985 2.87747,-5.5567 3.07476,-7.12623 0.73185,-7.12647 z m 42.45012,39.10458 c -2.19424,-0.12471 0.87573,11.71464 6.22117,23.75514 2.55982,5.76524 5.12604,9.11124 5.67228,7.49205 1.18421,-3.51153 -8.18499,-29.297 -11.3445,-31.24719 -0.19342,-0.11951 -0.40242,0.006 -0.54907,0 z"
     id="path9008" />
</svg>
