<?xml version="1.0" encoding="UTF-8" standalone="no"?>
<!-- Created with Inkscape (http://www.inkscape.org/) -->

<svg
   xmlns:dc="http://purl.org/dc/elements/1.1/"
   xmlns:cc="http://creativecommons.org/ns#"
   xmlns:rdf="http://www.w3.org/1999/02/22-rdf-syntax-ns#"
   xmlns:svg="http://www.w3.org/2000/svg"
   xmlns="http://www.w3.org/2000/svg"
   xmlns:sodipodi="http://sodipodi.sourceforge.net/DTD/sodipodi-0.dtd"
   xmlns:inkscape="http://www.inkscape.org/namespaces/inkscape"
   width="1000"
   height="1000"
   id="svg2"
   version="1.1"
   inkscape:version="0.47 r22583"
   sodipodi:docname="G.svg">
  <defs
     id="defs4">
    <inkscape:perspective
       sodipodi:type="inkscape:persp3d"
       inkscape:vp_x="0 : 526.18109 : 1"
       inkscape:vp_y="0 : 1000 : 0"
       inkscape:vp_z="744.09448 : 526.18109 : 1"
       inkscape:persp3d-origin="372.04724 : 350.78739 : 1"
       id="perspective10" />
    <inkscape:perspective
       id="perspective2940"
       inkscape:persp3d-origin="0.5 : 0.33333333 : 1"
       inkscape:vp_z="1 : 0.5 : 1"
       inkscape:vp_y="0 : 1000 : 0"
       inkscape:vp_x="0 : 0.5 : 1"
       sodipodi:type="inkscape:persp3d" />
    <inkscape:perspective
       id="perspective2953"
       inkscape:persp3d-origin="0.5 : 0.33333333 : 1"
       inkscape:vp_z="1 : 0.5 : 1"
       inkscape:vp_y="0 : 1000 : 0"
       inkscape:vp_x="0 : 0.5 : 1"
       sodipodi:type="inkscape:persp3d" />
    <inkscape:perspective
       id="perspective2966"
       inkscape:persp3d-origin="0.5 : 0.33333333 : 1"
       inkscape:vp_z="1 : 0.5 : 1"
       inkscape:vp_y="0 : 1000 : 0"
       inkscape:vp_x="0 : 0.5 : 1"
       sodipodi:type="inkscape:persp3d" />
    <inkscape:perspective
       id="perspective2979"
       inkscape:persp3d-origin="0.5 : 0.33333333 : 1"
       inkscape:vp_z="1 : 0.5 : 1"
       inkscape:vp_y="0 : 1000 : 0"
       inkscape:vp_x="0 : 0.5 : 1"
       sodipodi:type="inkscape:persp3d" />
    <inkscape:perspective
       id="perspective2992"
       inkscape:persp3d-origin="0.5 : 0.33333333 : 1"
       inkscape:vp_z="1 : 0.5 : 1"
       inkscape:vp_y="0 : 1000 : 0"
       inkscape:vp_x="0 : 0.5 : 1"
       sodipodi:type="inkscape:persp3d" />
    <inkscape:perspective
       id="perspective3005"
       inkscape:persp3d-origin="0.5 : 0.33333333 : 1"
       inkscape:vp_z="1 : 0.5 : 1"
       inkscape:vp_y="0 : 1000 : 0"
       inkscape:vp_x="0 : 0.5 : 1"
       sodipodi:type="inkscape:persp3d" />
    <inkscape:perspective
       id="perspective3018"
       inkscape:persp3d-origin="0.5 : 0.33333333 : 1"
       inkscape:vp_z="1 : 0.5 : 1"
       inkscape:vp_y="0 : 1000 : 0"
       inkscape:vp_x="0 : 0.5 : 1"
       sodipodi:type="inkscape:persp3d" />
  </defs>
  <sodipodi:namedview
     id="base"
     pagecolor="#ffffff"
     bordercolor="#666666"
     borderopacity="1.0"
     inkscape:pageopacity="0.0"
     inkscape:pageshadow="2"
     inkscape:zoom="0.532"
     inkscape:cx="500"
     inkscape:cy="500"
     inkscape:document-units="px"
     inkscape:current-layer="svg2"
     showgrid="false"
     showborder="true"
     inkscape:showpageshadow="false"
     showguides="true"
     inkscape:guide-bbox="true"
     inkscape:window-width="1280"
     inkscape:window-height="750"
     inkscape:window-x="0"
     inkscape:window-y="26"
     inkscape:window-maximized="1">
    <sodipodi:guide
       orientation="0,1"
       position="0,200"
       id="guide2818" />
  </sodipodi:namedview>
  <metadata
     id="metadata7">
    <rdf:RDF>
      <cc:Work
         rdf:about="">
        <dc:format>image/svg+xml</dc:format>
        <dc:type
           rdf:resource="http://purl.org/dc/dcmitype/StillImage" />
        <dc:title></dc:title>
      </cc:Work>
    </rdf:RDF>
  </metadata>
  <g
     inkscape:label="Layer 1"
     inkscape:groupmode="layer"
     id="layer1" />
  <path
     style="fill:#800000"
     d="M 0,0 0,6.076831 0,793.92317 0,800 l 6.3861777,0 724.5569523,0 6.20373,0 0,-6.07683 0,-787.846339 0,-6.076831 -6.20373,0 L 6.3861777,0 0,0 z m 17.151417,12.332353 9.305572,0 c 2.506123,1.517173 235.767451,1.101247 428.785931,0 l 268.5842,0 0,383.378157 c 0,215.50393 -0.91269,388.50698 -2.00712,390.70589 -0.28348,0.57043 -0.97602,1.01072 -2.00706,1.42994 l -707.223086,0 0,-769.794538 c 0.652814,-1.32526 1.426643,-2.574713 2.554505,-3.574634 0.794556,-0.704315 1.428953,-1.458686 2.007058,-2.144815 z m 688.611943,10.90265 -126.08132,0.17898 C 112.3158,24.270835 30.868498,24.980808 29.376383,27.346057 28.525535,28.694123 27.522439,42.800802 27.186823,58.624073 26.851957,74.447286 26.06,107.73502 25.362209,132.61871 c -0.697791,24.8837 -1.007773,56.17401 -0.729834,69.52632 0.277707,13.35219 0.253459,81.87623 0,152.27885 -0.253459,70.40263 -0.656568,193.98926 -0.912278,274.70951 l -0.547332,146.73827 37.222228,-0.53637 c 20.399614,-0.3008 40.073437,0.40184 43.790907,1.60869 4.35377,1.41284 61.34474,1.80325 160.01927,1.07232 84.26382,-0.62407 219.75618,-1.07989 301.24488,-1.07232 l 148.15927,0 -0.91233,-191.42096 c -1.4838,-264.54853 -3.78924,-484.85448 -5.47384,-526.899005 l -1.45973,-35.388781 z m -535.16129,54.155521 8.75818,0 -0.18244,10.545095 c -0.15705,6.748987 1.26683,12.786791 3.83167,16.621981 3.59715,5.37714 5.32898,5.89803 16.96897,5.89814 13.84052,6e-5 16.65299,-1.65989 19.15853,-11.438838 1.19923,-4.681884 0.33429,-7.179636 -4.37912,-11.796222 -3.2915,-3.22441 -5.515,-6.394203 -4.92645,-6.97046 0.58798,-0.5762 5.86725,-1.224512 11.86002,-1.429877 10.03541,-0.344103 10.96039,0.101037 11.67758,5.183202 1.54817,10.960212 10.61484,14.595583 18.61114,7.506707 6.15645,-5.456867 21.14729,-6.606785 28.09916,-2.144815 7.06226,4.53287 14.34686,19.507083 14.41452,29.490703 0.0687,10.03286 -5.14336,21.42597 -11.86002,25.73725 -8.01016,5.14112 -22.41833,4.9533 -30.28871,-0.53636 -9.88004,-6.89142 -17.98252,-8.33556 -19.34098,-3.39588 -1.5409,5.6012 -0.48094,218.83202 1.09478,220.37535 2.30745,2.26023 111.08067,2.59602 114.03875,0.35738 1.54927,-1.17214 2.73694,-3.84951 2.73694,-6.07689 0,-6.68403 14.27244,-16.07269 25.17977,-16.62192 15.28939,-0.76985 25.5495,4.56422 33.57306,17.33686 l 6.93351,11.08134 13.68469,-1.42982 c 7.52534,-0.77053 26.26991,-1.42993 41.60133,-1.42987 l 27.91671,0 -0.36488,-94.36995 c -0.18187,-51.89166 -1.05414,-100.25718 -1.82456,-107.41736 -1.59304,-14.80487 -6.77104,-20.26099 -20.98309,-22.52006 -7.15544,-1.1375 -8.30265,-0.64144 -9.85302,3.93213 -0.97226,2.86951 -1.73916,7.00464 -1.82455,9.29397 -0.0855,2.28927 -2.74042,6.15939 -5.83885,8.40028 -5.24948,3.79789 -6.46984,3.82012 -17.15142,0.71494 -9.90385,-2.87893 -12.09891,-4.74805 -16.23912,-12.8686 -5.22956,-10.25677 -4.67247,-16.43931 2.18956,-26.0947 2.28979,-3.22193 4.19662,-6.91637 4.19662,-8.22165 0,-1.30528 4.1492,-4.39384 9.30555,-6.97052 8.10283,-4.04916 11.52002,-4.52126 25.7271,-3.21713 9.04028,0.82977 18.73499,0.81222 21.34809,0 6.00946,-1.86838 8.99929,-9.473354 6.38618,-16.264489 -2.89543,-7.526106 1.37942,-11.53953 11.31269,-10.723901 7.69665,0.632088 8.20732,0.882776 8.75818,9.293967 1.22474,18.706753 2.73141,23.208383 9.48801,26.630943 16.23285,8.22269 30.82399,-1.07353 33.39056,-21.090301 l 1.64217,-12.153662 11.13013,0.893629 c 12.8327,0.822384 15.19247,3.024761 13.31982,13.047407 -1.56094,8.354207 0.67735,8.927467 13.31974,3.753325 10.24441,-4.193096 31.46866,-4.300945 39.41179,-0.17898 7.80156,4.048932 18.42864,17.538882 18.42864,23.235122 0,2.42085 1.13283,4.969 2.37201,5.71927 3.31655,2.00793 2.7347,5.5407 -0.91228,5.54076 -1.7368,-6e-5 -5.11138,3.56938 -7.48102,8.04284 -5.49965,10.3802 -17.52687,16.83445 -27.73415,14.83467 -5.75386,-1.12712 -8.9714,-4.04212 -14.23214,-12.33236 -7.27398,-11.46234 -9.7678,-11.92451 -21.53042,-4.64701 -11.13644,6.89009 -13.82039,18.74786 -14.96199,65.05806 -2.57373,104.47151 -3.1243,182.84175 -1.27723,182.84181 1.09323,-6e-5 2.78614,-6.12187 3.64929,-13.40485 1.43438,-12.1073 1.95579,-13.22616 6.93359,-13.2261 3.0258,0 8.94489,3.34208 13.31968,7.32796 14.95551,13.62528 12.08981,34.82938 -6.20373,45.75519 -4.0386,2.41201 -7.97887,4.28501 -8.75812,4.28957 -2.40124,0.0115 -6.8482,-12.41342 -6.38626,-17.87317 0.66517,-7.85243 0.13395,-10.72396 -2.00706,-10.7239 -1.0711,0 -2.4817,59.84217 -3.10183,132.97592 -0.99952,117.83503 -0.74647,133.55697 2.37194,138.87406 5.11485,8.72146 8.99786,9.27728 19.34105,2.50214 6.9319,-4.54101 12.32098,-6.19068 22.07787,-6.61302 12.79776,-0.55368 13.12097,-0.35334 18.79365,8.04296 7.1682,10.61004 7.59291,19.73074 1.27722,28.4182 -6.13208,8.4359 -17.84695,12.30118 -31.01849,10.3664 -8.89386,-1.30649 -11.01633,-0.63503 -19.34104,5.3619 -5.1652,3.72105 -10.08022,6.57797 -10.76525,6.43432 -14.99644,-3.14277 -14.324,-2.54047 -18.61115,-16.80067 -4.66271,-15.50809 -11.03209,-21.615 -20.43581,-19.30304 -8.87158,2.18101 -13.74832,9.08548 -13.86702,19.48173 -0.11894,10.37957 -1.83888,12.4622 -10.58285,12.51116 -4.0841,0.0231 -6.51464,-1.48576 -7.48096,-4.4682 -1.75949,-5.42922 -10.35636,-5.73758 -28.0991,-1.0725 -17.22076,4.52773 -26.80952,4.16573 -38.49955,-1.60851 -8.71188,-4.30337 -10.30469,-6.36885 -12.04247,-14.47722 -1.75781,-8.20329 -1.2065,-10.41525 3.83167,-17.87317 3.16068,-4.67842 9.46572,-10.20157 14.04962,-12.33236 7.25527,-3.37238 9.6935,-3.46256 18.79359,-1.07237 5.7493,1.51018 13.57811,5.6751 17.51636,9.29402 5.65109,5.19342 8.4463,6.33647 13.13725,5.1832 12.32513,-3.03024 12.59869,-5.06311 13.13724,-145.48708 l 0.36489,-128.32885 -41.23646,-1.25113 c -41.62402,-1.11389 -48.56971,-0.50345 -49.08223,4.11077 -0.15473,1.395 -0.3926,3.60939 -0.54733,4.82581 -0.5635,4.42699 -16.70836,17.28577 -23.35515,18.58794 -18.48765,3.62192 -28.43524,-0.7941 -35.58012,-15.72824 -2.78227,-5.81592 -6.01049,-11.35922 -7.29851,-12.15378 -2.50942,-1.54881 -102.2539,-0.052 -107.28768,1.60863 -2.40451,0.7923 -2.79527,9.13698 -2.18956,41.2868 0.41685,22.15027 -0.18129,59.15334 -1.27723,82.21623 -1.85325,38.99731 -2.04279,94.19801 -0.54733,114.74549 0.35334,4.85515 0.66159,13.27465 0.91234,18.58793 l 0.54733,9.65152 10.76524,-1.42987 c 5.88572,-0.71506 15.35694,-1.87831 21.16565,-2.68095 5.80859,-0.8027 14.18918,-0.81263 18.61108,0 6.53086,1.20015 8.80934,3.01183 11.67758,9.65141 6.20639,14.36781 1.12642,27.62752 -13.13725,34.85259 -8.61153,4.3622 -14.1244,3.91579 -31.74838,-2.68095 -13.95034,-5.22159 -16.38989,-5.52621 -24.08505,-3.0385 -4.69816,1.51896 -9.55319,2.09568 -10.94768,1.25119 -1.39506,-0.84439 -5.11507,-6.52792 -8.21079,-12.51122 -5.55352,-10.73574 -5.89756,-10.7571 -16.42164,-10.72385 -5.86523,0.0173 -11.8714,0.77464 -13.50219,1.78732 -3.8367,2.38326 -8.66136,11.44739 -10.5828,20.01787 -1.64349,7.33113 -5.76373,8.83197 -10.21785,3.57463 -1.54257,-1.82074 -4.70815,-3.396 -7.11601,-3.39594 -2.40843,6e-5 -6.21718,-0.90829 -8.57574,-2.1447 -3.23434,-1.69552 -6.55488,-1.21527 -12.95479,2.1447 -10.21064,5.36085 -12.55949,5.34948 -25.9096,0.89363 -11.426545,-3.81372 -12.093217,-4.7585 -14.232085,-20.554 -1.43998,-10.63418 -1.296161,-11.01212 6.02129,-15.37085 10.272175,-6.1191 23.954155,-7.89187 40.689015,-5.00446 8.32522,1.43658 14.8536,1.714 16.05669,0.53637 1.11551,-1.09276 3.05115,-6.81845 4.19662,-12.68986 2.73014,-13.99646 4.65833,-315.86363 2.73689,-423.94997 l -1.45967,-84.3611 -5.47384,0 c -2.97089,-5e-5 -9.05367,1.39628 -13.50225,3.2172 -4.44851,1.82074 -12.85901,3.39577 -18.79358,3.39582 -9.37526,6e-5 -11.69005,-1.00367 -16.96898,-7.14921 -5.22621,-6.08416 -5.821174,-8.57054 -4.926447,-17.69442 1.882003,-19.18335 16.126727,-28.31035 42.878567,-27.524571 18.15816,0.533476 20.11949,-0.240179 20.98315,-7.864147 0.30889,-2.730484 0.62608,-5.702706 0.72984,-6.612963 0.10334,-0.910373 4.23686,-1.608626 9.12312,-1.608626 z M 73.532236,139.23144 c 2.311382,-0.42031 4.9074,1.31089 6.021232,4.82571 0.865282,2.73117 3.338842,7.51052 5.473842,10.54521 2.135,3.03452 4.623514,8.35351 5.4739,11.79622 0.850847,3.44265 3.911115,8.45461 6.751065,11.08128 18.145395,16.78237 21.713445,19.29976 25.727155,18.0518 6.59189,-2.04943 10.4459,3.95558 6.75112,10.5451 -1.64742,2.93856 -5.21998,9.23023 -7.8459,13.94109 -5.49861,9.86728 -8.78035,28.38253 -5.47384,30.38433 1.21308,0.73422 2.68857,0.34006 3.46678,-0.89374 2.12444,-3.36748 8.00427,-2.71559 9.48802,1.07243 0.71834,1.83293 -2.4589,9.44304 -6.93357,16.80073 -7.88759,12.96976 -10.1003,19.66037 -6.38618,19.66037 0.99126,0 3.07447,-1.22433 4.56157,-2.68094 1.8671,-1.82883 3.49484,-1.93818 5.10895,-0.35738 3.66649,3.59172 -0.72285,11.57243 -13.50219,25.02232 -12.17087,12.80953 -20.435756,32.18024 -20.435756,47.72113 0,5.05185 -0.912567,7.50665 -3.101838,7.50671 -6.311237,0 -6.069499,4.60001 0.729834,11.26009 3.785137,3.708 7.839552,6.13866 9.123127,5.36195 3.715273,-2.24914 15.874193,1.16239 15.874193,4.46826 -6e-5,4.18721 -2.5642,5.11964 -7.8459,3.03839 -2.47836,-0.97665 -7.224211,-1.88068 -10.400355,-1.96601 -6.706147,-0.18013 -15.892322,-8.91742 -20.070811,-19.30299 -3.611526,-8.97619 -2.165426,-29.69641 2.919394,-41.2868 5.438104,-12.39459 6.888188,-8.36552 2.73695,7.50665 -4.085246,15.61923 -4.339686,24.30732 -1.09478,24.30744 1.239176,6e-5 2.18956,-2.88949 2.18956,-6.43427 0,-3.54485 3.033594,-14.8838 6.751066,-25.20113 7.716807,-21.41512 7.876503,-23.59256 3.284339,-23.5925 -4.47854,-6e-5 -9.397313,-7.96727 -11.312687,-18.2305 -1.377799,-7.38425 -0.914068,-8.57596 3.28434,-9.65152 6.530863,-1.67294 6.020308,-7.30053 -2.007058,-22.87756 -10.807502,-20.97097 -8.561131,-28.88523 4.014174,-13.94104 6.831491,8.1183 11.677575,8.39347 11.677575,0.71494 0,-2.33857 1.269199,-8.74519 2.736893,-14.11978 2.07455,-7.59793 1.96306,-11.7542 -0.18244,-18.76674 -2.420622,-7.91398 -3.636127,-8.93653 -9.488021,-8.93653 -6.051023,0 -6.568621,-0.67551 -6.568621,-7.32802 -5.8e-5,-8.5781 -5.67811,-26.0182 -11.860078,-36.28235 -2.388458,-3.96516 -3.811233,-8.73451 -3.101837,-10.54509 0.728852,-1.86157 2.08067,-2.96489 3.466783,-3.2172 z m 614.167314,4.28952 c 2.06353,0.0173 3.46679,2.22241 3.46679,6.79177 0,10.3093 -8.27552,23.94613 -22.80771,37.53354 -11.67503,10.91604 -13.31564,13.60836 -14.59697,23.235 l -1.64217,10.90259 8.94069,-9.47266 c 4.93661,-5.15878 10.24816,-9.29414 11.67757,-9.29408 5.00538,0 1.53877,21.88272 -7.48095,46.82756 -3.44797,9.53738 -14.23792,21.44769 -19.34104,21.44775 -1.14426,6e-5 -2.00706,-5.37067 -2.00706,-11.97509 0,-6.60442 -1.13288,-12.65475 -2.372,-13.40479 -2.56149,-1.55066 -2.66305,33.88177 -0.18245,55.2279 l 1.45956,13.22616 2.73695,-8.75784 c 1.49055,-4.85543 2.73031,-11.15472 2.73695,-13.94109 0.0173,-5.80247 10.11358,-16.69514 14.23208,-15.3708 4.66266,1.49933 4.23126,11.92243 -0.72984,21.44769 -2.59821,4.98875 -6.62318,20.16555 -9.12312,33.78015 -4.80186,26.15734 -10.86004,39.67789 -21.53054,47.89989 -5.64561,4.35002 -19.08596,6.37405 -18.79359,2.85969 0.0756,-0.91026 4.39223,-4.58015 9.48808,-8.22159 9.5394,-6.81625 18.48043,-19.7054 16.78652,-24.12869 -0.5277,-1.37612 -2.18609,0.004 -3.46678,3.03845 -3.34207,7.91969 -18.17166,22.16262 -23.17276,22.16268 -5.99167,0 -5.33008,-7.43748 0.91233,-10.72384 12.36394,-6.5091 21.45283,-32.99317 18.61115,-53.97678 -1.42942,-10.55589 -11.25213,-28.41907 -22.26043,-40.57198 -4.32485,-4.77513 -3.85015,-11.79634 0.72989,-11.79622 1.28634,0 4.60492,2.50601 7.29845,5.54064 7.50267,8.4523 10.25607,6.95268 11.31269,-6.07683 1.03554,-12.76699 -0.28348,-16.40952 -10.0354,-28.59701 -8.53885,-10.67119 -7.64897,-15.75636 2.73695,-15.90699 6.04767,-0.0878 8.02707,-1.06164 8.57568,-4.46838 1.75284,-10.88463 7.93574,-20.7608 14.77941,-23.41369 11.32556,-4.39021 26.49977,-17.5338 30.10627,-26.09476 4.16337,-9.88148 9.51521,-15.76057 12.95474,-15.72835 z m -308.54335,6.79177 c 21.3504,-0.0756 35.09837,4.9496 50.90697,18.7668 14.69794,12.84654 17.11613,13.97077 19.15846,8.75777 2.06122,-5.26178 5.05907,-3.9905 8.39324,3.75344 2.81616,6.54184 2.61946,7.73546 -1.64217,12.33236 -2.56981,2.77222 -11.33347,7.03593 -19.52336,9.47277 -9.90064,2.94572 -19.39229,7.747 -28.28165,14.65598 -7.354,5.71552 -18.166,12.63967 -24.08498,15.37085 -11.33446,5.22979 -19.70593,6.46585 -19.70593,2.8597 0,-1.18272 2.79296,-3.45564 6.20368,-5.18326 3.41078,-1.72756 8.29029,-5.50843 10.7653,-8.22153 l 4.56156,-4.82576 -5.4739,1.60851 c -4.89389,1.4939 -5.16022,1.15424 -3.64923,-3.57458 4.17347,-13.06184 3.6897,-16.84831 -3.10183,-30.02677 -3.97486,-7.71294 -8.85483,-14.01396 -11.49508,-14.83473 -2.52558,-0.78514 -3.89016,-2.5045 -3.10189,-3.75332 1.36787,-2.16837 7.97575,-1.50476 17.6988,1.60857 3.80235,1.21729 3.62839,0.67111 -1.09478,-3.39589 -5.58509,-4.80884 -14.86699,-5.21703 -25.36221,-1.07238 -2.80784,1.10881 -3.83172,0.45784 -3.83172,-2.14481 0,-5.78388 16.9737,-12.09801 32.66072,-12.15372 z m -38.8644,18.0518 c 3.53664,0.0739 8.39324,1.83443 8.39324,3.57469 0,0.87383 -3.0336,1.86728 -6.75107,2.14476 -6.5808,0.49133 -9.136,-2.41352 -4.56156,-5.1832 0.66511,-0.40242 1.74014,-0.56061 2.91939,-0.53637 z m -12.40747,8.40039 c 1.07775,-5e-5 7.28922,1.4823 13.86714,3.39595 6.57855,1.91352 14.32861,3.01743 17.15147,2.32345 4.27884,-1.052 4.99262,-0.62591 4.01418,3.0385 -0.64572,2.4175 0.16454,7.66802 2.00705,11.61747 7.0118,15.02825 0.80241,29.84335 -19.70592,47.00625 -11.93455,9.98749 -28.09916,15.73009 -28.09916,10.00891 0,-1.41077 1.84534,-3.32048 4.01418,-4.11077 6.71111,-2.44584 16.23914,-9.94343 16.23914,-12.86865 0,-1.53069 -3.58976,-5.62026 -8.02835,-8.93647 -6.23861,-4.66105 -7.91195,-7.18102 -7.11601,-11.26015 0.79877,-4.0935 -0.14377,-5.68256 -4.56157,-7.32796 l -5.65634,-2.14476 4.92651,-4.64701 c 2.75179,-2.51126 4.34096,-5.92089 3.64928,-7.6854 -1.45556,-3.7162 4.3924,-18.40941 7.2984,-18.40936 z m 89.22399,6.97058 c -2.282,1.11759 -12.04252,18.41848 -12.04252,21.62638 0,5.48747 8.84109,-4.74591 11.13024,-12.8686 1.2125,-4.3017 1.75423,-8.29087 1.27722,-8.75778 -0.0791,-0.0779 -0.21304,-0.0745 -0.36488,0 z m -145.42231,6.25552 c 1.43225,6e-5 2.55451,2.39366 2.55451,5.3619 0,3.71117 -1.7607,6.22151 -6.02123,8.2217 -6.2796,2.9482 -9.95729,10.56166 -13.1373,27.16708 l -1.64217,8.2217 7.11601,-1.60863 c 10.76478,-2.31594 11.86493,4.04853 2.18956,12.15367 -4.19119,3.51141 -8.34485,6.56365 -9.30557,6.61307 -6.19196,0.31813 -8.50779,-34.51114 -3.10184,-47.185 3.10068,-7.26941 16.29324,-18.9456 21.34803,-18.94549 z m 79.18858,8.93659 c -0.90916,-0.0577 -2.18921,0.72106 -4.19661,1.96595 -3.23163,2.00411 -4.02792,11.91342 -1.45973,19.83923 0.78601,2.42558 2.4007,4.46821 3.46679,4.46826 3.49293,6e-5 11.21511,-11.49143 10.94774,-16.26454 -0.20843,-3.7285 -0.4538,-3.97866 -1.27723,-0.89357 -0.56638,2.12415 -2.63909,3.93202 -4.56156,3.93202 -2.68303,0 -3.04387,-1.53219 -2.00706,-6.61308 0.87908,-4.30378 0.60305,-6.33947 -0.91234,-6.43427 z m -38.49951,25.916 6.93357,3.93208 c 7.18374,4.15695 9.12567,9.65135 3.46679,9.65146 -1.82329,0 -9.05212,2.5059 -16.0567,5.54064 -7.0051,3.03464 -12.92749,5.54065 -13.31969,5.54065 -2.07282,0 -3.49363,-4.97143 -1.82467,-6.43427 1.06949,-0.93711 6.09583,-5.49232 11.31269,-10.00903 l 9.48801,-8.22153 z m 98.34706,9.65147 c 1.53143,-0.003 2.84763,0.0289 4.19662,0.1784 18.59311,2.0529 32.8432,18.80433 32.8432,38.78473 0,10.45312 0.48267,11.45494 7.29846,14.8346 7.55596,3.74611 17.31562,13.62702 17.33392,17.51567 0.006,1.21383 -2.43534,3.91112 -5.47384,6.07683 -5.20572,3.71037 -6.01968,3.84045 -12.95486,0.35739 -12.2219,-6.13861 -27.10546,-16.60334 -36.67488,-25.55857 -4.97553,-4.65677 -12.23091,-9.04495 -16.23908,-9.8301 -10.01375,-1.96179 -9.24963,1.96335 1.27717,6.61302 12.79776,5.65305 14.89517,10.52939 9.48807,20.91156 -2.672,5.13049 -7.15585,9.57335 -11.31263,11.26003 -10.01762,4.06458 -9.06383,9.58565 1.27722,7.6854 6.73554,-1.23779 9.24455,-0.41916 16.23914,5.00439 12.46151,9.66169 22.81571,15.35833 35.2151,19.4818 11.49594,3.82295 21.53059,9.33421 21.53059,11.79622 0,1.51377 -14.00033,1.80983 -33.7555,0.71488 -13.77001,-0.76303 -16.90314,-2.9172 -26.09208,-17.15817 -7.20088,-11.15871 -13.9661,-13.47119 -33.02561,-11.26004 l -11.49513,1.25113 8.75818,-8.57914 c 8.22707,-8.25311 8.32505,-8.9927 4.74401,-12.8686 -4.94614,-5.35329 -4.58409,-6.97058 0.91233,-6.97052 6.68392,0 5.42136,-3.82411 -2.5545,-7.86415 -9.51943,-4.82195 -5.52246,-7.88447 6.75112,-5.1832 5.43037,1.19518 10.21283,1.61359 10.7653,1.07238 0.55252,-0.54098 -2.92026,-3.44571 -7.66341,-6.61308 -6.97733,-4.65925 -8.71655,-5.21709 -9.30562,-2.50214 -0.45092,2.07582 -3.21933,3.39583 -7.29846,3.39583 -7.45382,0 -8.76961,4.94631 -3.1019,11.08134 5.19464,5.62263 4.90186,21.42113 -0.36488,25.20107 -15.07906,10.82263 -35.7699,19.46632 -48.89981,20.37536 l -13.86713,1.07233 -4.92651,-10.72385 c -4.57837,-9.85804 -9.67046,-33.24252 -9.67046,-44.32525 0,-6.98478 3.79166,-5.91355 8.02829,2.32345 4.4342,8.6195 16.58855,21.44763 20.25337,21.44774 1.44656,6e-5 5.40392,-6.1759 8.75812,-13.76222 9.81018,-22.19132 10.99595,-24.53007 14.59697,-28.77582 4.09858,-4.83235 20.52467,-12.68991 26.82194,-12.6898 5.76598,0 8.10011,-3.44161 3.46678,-5.1832 -8.01016,-3.01085 -18.09776,-0.89952 -27.55177,5.89803 -7.78828,5.60039 -11.50235,10.68799 -18.06381,25.20118 -4.52785,10.0141 -9.03525,18.23044 -10.03535,18.23049 -2.28528,-5e-5 -12.77235,-11.0165 -12.77235,-13.40479 0,-0.97411 -2.666,-4.51069 -5.83879,-7.8642 -4.33212,-4.57883 -6.30945,-5.36345 -7.6634,-3.21708 -3.26881,5.18118 -4.40608,-2.74463 -2.00712,-13.7624 2.60924,-11.98398 7.38633,-13.95513 6.02129,-2.50214 -0.50634,4.2484 -0.0779,7.68534 0.91228,7.6854 0.99068,5e-5 1.82461,-1.14692 1.82461,-2.50226 6e-5,-1.42826 1.96174,-1.78512 4.74401,-1.07238 2.71905,0.69664 6.19011,-0.3441 8.02835,-2.14475 1.78558,-1.74858 6.24692,-3.03845 10.03546,-3.03839 4.36475,-6e-5 12.01614,-3.36373 20.6182,-9.11528 12.32058,-8.23781 14.54045,-8.97567 24.44988,-8.04295 7.05169,0.66378 11.65407,-0.0346 13.1373,-1.78732 3.24987,-3.83554 17.55955,-7.13073 28.2816,-7.14921 z m -104.55079,15.01336 c 1.19201,-0.21362 2.13535,0.6949 1.45973,2.68094 -0.49075,1.44148 -2.17709,2.91507 -3.64923,3.39595 -1.64633,0.53751 -2.11866,-0.35277 -1.27728,-2.5022 0.78607,-2.00585 2.27477,-3.36107 3.46678,-3.57469 z m -205.08734,13.22615 c -1.379478,-6e-5 -2.63713,0.69808 -2.736955,1.60857 -0.247108,2.23119 -1.387268,10.57864 -3.284339,23.23506 -1.787779,11.92549 2.315711,15.10851 4.379119,3.39589 3.714755,-21.08736 4.048355,-28.23958 1.642175,-28.23952 z m 152.9032,2.1447 c 4.03478,0 3.61002,8.08966 -0.72984,12.86866 l -4.56156,5.00451 6.93357,-1.42988 c 6.89696,-1.35106 6.95758,-1.21827 9.48801,10.72385 1.9536,9.21729 2.06953,13.42349 0,17.87317 -3.22712,6.93749 -12.88401,7.97979 -18.24619,1.966 -6.32169,-7.08899 -9.21562,-19.66262 -6.38618,-28.06082 2.75952,-8.18949 10.38326,-18.94555 13.50219,-18.94549 z m 120.42498,2.32357 c -2.06785,0 -0.80789,7.96674 1.64217,10.3664 3.32753,3.25957 6.38618,1.65025 6.38618,-3.57463 0,-3.35397 -4.00465,-6.79183 -8.02835,-6.79177 z m -67.3285,5.5407 c -1.65245,0.24191 -1.8704,1.92143 0.18244,3.93207 2.1533,2.10919 5.2914,1.95642 5.2914,-0.35738 0,-1.08387 -1.42561,-2.51842 -3.28428,-3.21714 -0.8587,-0.32274 -1.63882,-0.43821 -2.18956,-0.35738 z m 116.9582,30.20546 c 1.62473,-0.2321 5.77989,1.72 16.78651,7.14927 8.6404,4.2622 17.7372,10.58568 20.43575,14.29842 4.71041,6.47982 4.69032,6.8245 0.72984,12.15377 -2.24037,3.0142 -5.08985,5.50248 -6.38618,5.5407 -1.29628,0.0404 -9.83039,-4.30666 -18.97603,-9.83021 -21.84795,-13.19486 -27.35031,-20.14136 -18.06374,-22.52012 2.4783,-0.63492 4.37907,-2.6104 4.37907,-4.28958 0,-1.55914 0.11951,-2.36311 1.09478,-2.50225 z m 56.74569,7.14927 c 0.3695,-0.0115 0.81967,0.0115 1.09483,0.17898 2.24256,1.35776 2.64469,28.08149 0.54734,35.74616 -1.94858,7.12323 -9.3979,6.40021 -11.31263,-1.07238 -1.74506,-6.81024 2.33089,-28.13657 6.20373,-32.70778 1.06216,-1.25326 2.35792,-2.11554 3.46673,-2.14475 z m -211.10862,10.18765 c 0.50287,-0.0826 1.12197,-0.0115 1.82461,0 7.50382,0.12298 27.52677,22.06575 27.55177,30.20558 0.0173,4.87414 -10.79636,3.18925 -13.68463,-2.14476 -1.47878,-2.73117 -6.07603,-9.32272 -10.21791,-14.65597 -7.46855,-9.61994 -8.99345,-12.82888 -5.47384,-13.40485 z m 420.57516,17.51561 c 0.50229,0 0.91222,3.60027 0.91222,8.0429 0,6.92993 -1.90418,9.90862 -13.50214,21.269 -7.435,7.28298 -13.50224,14.17267 -13.50224,15.1921 -6e-5,2.28627 -1.23069,2.44389 13.50224,-1.42976 18.97413,-4.98852 24.81488,-4.53345 24.81488,2.1447 0,5.46888 -0.34468,5.54058 -20.07087,5.54064 -10.94606,0 -20.40348,0.68319 -21.16559,1.42994 -0.76216,0.74657 3.53849,6.12434 9.67052,11.97497 6.13208,5.85062 11.13013,12.22017 11.13013,14.11972 -6e-5,6.40431 -5.42587,3.44277 -17.88131,-9.47277 -6.81544,-7.06705 -15.5048,-15.02196 -19.15854,-17.51567 l -6.56856,-4.4682 11.49507,-5.7194 c 13.79561,-6.84777 25.183,-17.38016 33.39056,-31.09915 3.28376,-5.48821 6.43219,-10.00913 6.93363,-10.00902 z m -346.49554,7.14927 c 0.74058,0.18014 0.0289,2.19216 -1.82461,6.97052 -1.86209,4.79689 -3.37637,5.64208 -10.58285,5.36201 -23.85364,-0.92758 -28.20286,-4.935 -7.2984,-6.79183 7.48153,-0.66448 14.97375,-2.45878 16.78647,-3.93207 1.45268,-1.18127 2.47454,-1.71677 2.91939,-1.60863 z M 45.797966,348.5254 c 2.643649,0.1605 6.155698,3.27908 8.393293,8.75795 4.600016,11.26136 13.35889,21.27523 21.712981,24.66482 3.742471,1.5185 6.933568,4.04599 6.933568,5.71939 0,4.56942 -4.894467,3.8543 -18.063753,-3.03844 -12.453829,-6.51811 -22.442873,-20.28496 -22.442873,-30.74172 0,-3.75788 1.410535,-5.48689 3.466784,-5.362 z m 103.456004,7.68545 c 0.14838,-0.0346 0.30831,-0.0577 0.36489,0 0.45438,0.44514 1.30379,11.31177 2.00712,24.12869 0.70385,12.81705 0.4971,23.67484 -0.54733,24.30744 -2.39735,1.4513 -9.98772,-2.25237 -13.68469,-6.79177 -1.54922,-1.90186 -2.7369,-9.451 -2.7369,-16.62198 -5e-5,-11.76787 0.55369,-13.64393 6.93351,-19.48168 3.40137,-3.11257 6.62561,-5.303 7.66346,-5.5407 z m -94.515321,35.92497 c 5.286144,0.12875 13.655881,0.84756 26.639433,1.96601 11.287226,0.97238 20.242168,2.86455 20.800698,4.28957 0.54214,1.38317 -0.48266,6.72786 -2.371999,11.97497 -4.347076,12.0692 -7.195918,55.40659 -3.649286,55.40665 2.381819,6e-5 2.663107,-2.59336 3.28434,-26.27345 0.36662,-13.98618 13.870885,-40.59068 21.165595,-41.64436 6.1897,-0.89415 6.20985,0.0173 -0.72984,11.61748 -7.12271,11.90545 -8.1385,29.40109 -2.372,41.28692 5.52465,11.3889 9.52208,14.40933 14.96186,11.08134 7.12161,-4.35632 10.69613,-3.32914 9.48807,2.85964 -0.73665,3.77393 -3.07794,5.93076 -7.11601,6.79177 -3.26108,0.6953 -7.02491,1.56653 -8.3933,1.96606 -1.36786,0.39953 -3.14554,8.53856 -4.01417,18.05192 -0.86915,9.51313 -2.96841,21.47199 -4.74401,26.63083 -2.85328,8.28995 -2.81177,10.67355 0.36489,19.83918 1.97692,5.70374 6.62457,13.1668 10.40035,16.62198 4.81075,4.40215 6.22562,6.94933 4.56157,8.57908 -3.14457,3.08002 -9.2427,0.94167 -17.51637,-6.07683 l -6.75112,-5.71944 -0.72984,7.5067 c -1.97131,18.51432 8.93128,53.0854 19.15854,60.41105 3.92497,2.81108 1.98448,12.4503 -2.37201,11.79633 -1.45493,-0.21824 -6.3405,1.21014 -10.94774,3.21708 -14.665268,6.38907 -19.70592,4.30199 -19.70592,-8.22159 0,-2.71905 -1.52924,-9.45961 -3.284282,-14.83466 -1.75562,-5.37506 -3.814929,-12.39038 -4.561564,-15.7283 -1.584781,-7.08709 -5.603343,-8.13851 -7.298456,-1.78732 -0.682837,2.55792 -3.227874,4.46815 -5.838788,4.46821 -5.42263,0 -5.399709,-0.0231 6.203676,-37.17604 6.279598,-20.10759 7.894402,-27.8349 6.021232,-29.66927 -1.872592,-1.83461 -3.962443,-1.06107 -8.02829,2.68088 -5.10087,4.69401 -10.400351,4.80019 -10.400351,0.17898 0,-1.08958 4.24627,-6.22729 9.305571,-11.43889 11.067601,-11.40143 24.632372,-31.19436 24.632372,-35.9248 0,-3.83462 -3.525786,-4.62808 -5.65634,-1.25124 -0.766035,1.21389 -3.433067,2.3235 -5.838788,2.32356 -3.816199,0 -4.379062,-1.7312 -4.379062,-12.68991 0,-6.90637 -1.225955,-18.39325 -2.73695,-25.55851 -2.52379,-11.9711 -2.232457,-14.14473 2.554506,-26.63094 9.158346,-23.88834 10.345156,-21.73146 -12.407467,-21.26894 -28.952893,0.58832 -28.376001,0.68261 -27.551769,-5.00451 0.506917,-3.49877 1.043453,-4.86214 9.852961,-4.64701 z m 561.800791,0.89363 c 5.56512,6e-5 12.43893,10.86443 19.34092,30.74177 5.30392,15.27444 19.04831,39.51895 25.17982,44.504 4.55891,3.70581 3.7688,8.09116 -1.82462,9.83021 -3.74755,1.16505 -6.26972,0.11259 -9.85302,-4.28957 -2.59705,-3.19023 -5.32061,-5.89814 -6.20367,-5.89808 -4.61214,-6e-5 1.52133,27.99772 11.13018,50.40214 3.95662,9.22607 5.14464,14.62122 3.64923,16.08579 -3.96816,3.88704 -9.03543,-0.13337 -12.95486,-10.18765 -4.68581,-12.01799 -8.02823,-12.64078 -8.02823,-1.42994 0,5.83925 3.81418,15.78338 12.40735,32.35034 12.89372,24.85633 14.18728,29.35566 9.67052,33.78021 -4.98667,4.88483 -8.61101,2.69001 -13.31974,-7.86414 -3.93491,-8.81858 -5.00278,-9.73986 -6.38618,-6.07689 -2.22091,5.88139 3.34883,32.64028 9.12307,44.32525 2.57263,5.20508 8.83837,12.7966 14.04964,16.97953 9.75521,7.83009 18.48758,22.27354 20.98308,34.49504 1.22475,5.99791 0.71448,6.97046 -3.28422,6.97052 -2.54994,6e-5 -5.2392,-1.80787 -6.02129,-3.93207 -0.78208,-2.12415 -8.846,-10.34718 -18.06375,-18.23056 -9.21724,-7.8832 -18.18159,-17.26336 -19.88837,-20.91155 -1.7066,-3.64819 -3.90361,-14.51146 -4.74401,-24.12869 -0.83976,-9.61717 -2.35739,-19.05975 -3.46678,-21.09019 -1.10996,-2.03073 -1.47918,-14.38393 -0.72983,-27.34588 0.94622,-16.36431 0.51961,-26.11716 -1.45973,-31.99284 -2.40566,-7.13842 -2.17513,-12.11036 1.27722,-31.45671 7.73067,-43.3195 4.84124,-72.7554 -9.48801,-95.08489 -6.39051,-9.95971 -6.57728,-10.5452 -1.09472,-10.54515 z m -9.12313,6.43433 c 1.92859,0.0895 5.04689,2.95519 8.39323,9.29397 11.00548,20.84701 12.82091,42.63135 7.11602,87.39949 -2.58598,20.29915 -4.15938,25.79043 -8.3933,30.20558 -2.85213,2.9736 -6.28722,7.68562 -7.66334,10.3664 -1.37676,2.68071 -3.74334,5.21917 -5.2914,5.71933 -5.94514,1.92098 -5.52321,-7.17144 1.27722,-24.48607 7.88603,-20.07693 8.57055,-17.4987 -7.48095,-28.59701 -7.96525,-5.50733 -4.99389,-8.53279 7.48095,-7.6854 l 10.5828,0.71494 -0.18244,-29.84814 c -0.071,-25.65845 -0.75847,-31.22271 -4.92651,-40.21443 -3.87163,-8.35051 -3.39173,-12.98384 -0.91222,-12.86866 z m -306.17141,1.42988 c 3.66314,-0.0895 9.08981,0.28232 16.05669,1.07238 9.19605,1.04276 17.99915,1.91277 19.52343,1.96601 1.52375,0.052 4.6671,3.8763 7.11601,8.57914 6.80216,13.06017 16.69317,20.19656 28.09916,20.19662 16.50628,5e-5 29.87614,-5.94739 40.14168,-17.87317 5.09088,-5.9135 9.99868,-10.22611 10.94768,-9.65147 0.94848,0.57447 2.70398,4.00367 4.01417,7.68546 2.29366,6.44426 2.22657,6.67474 -3.64922,6.07683 -4.4946,-0.45726 -5.93261,0.24307 -5.2914,2.681 2.64861,10.06266 2.92366,13.22605 0.72983,13.2261 -1.3401,6e-5 -3.55691,-1.96219 -4.92645,-4.46832 -2.99474,-5.48169 -7.85993,-2.7709 -10.03546,5.71939 -1.56365,6.10241 -4.6178,7.1245 -6.56857,2.14482 -2.07455,-5.29596 -6.5711,-4.0472 -5.10895,1.42982 1.29853,4.86398 -8.81973,26.09469 -12.40747,26.09475 -4.85457,6e-5 -15.7996,-12.67778 -31.20099,-35.74622 -4.45522,-6.67381 -8.15497,-9.89049 -10.21785,-9.11533 -2.02352,0.76066 -5.04083,-1.65297 -8.02835,-6.61302 -4.04426,-6.71446 -5.26478,-7.49897 -8.75818,-5.36195 -3.38076,2.06808 -3.9483,4.64967 -3.10184,14.83472 0.5762,6.93253 -0.32794,16.36362 -2.00712,21.80519 -3.57942,11.60252 -16.36073,23.36883 -18.79358,17.15817 -0.7915,-2.01988 0.0606,-5.40035 2.00711,-7.50671 1.93529,-2.09482 4.82143,-8.56754 6.38612,-14.29848 2.49891,-9.15089 2.26502,-11.77792 -1.45967,-21.98393 -2.33245,-6.39172 -5.67043,-12.79776 -7.48095,-14.11979 -3.4695,-2.53337 -2.09066,-3.78248 4.01417,-3.93201 z m 139.5835,4.64701 c 4.1446,-0.10681 5.92533,2.38292 12.77229,14.83467 8.13782,14.79939 17.74731,29.26143 34.12045,51.11702 8.63538,11.52654 9.25788,15.35064 2.37201,17.15823 -8.87383,2.32956 -10.61236,1.68668 -16.42159,-7.32796 -3.94604,-6.12308 -7.35498,-8.93664 -10.94768,-8.93653 -7.28575,-1.1e-4 -14.09531,-6.97739 -15.87419,-16.2646 -0.92527,-4.83223 -2.88689,-8.04295 -4.92651,-8.0429 -4.61001,0 -6.89899,-7.22536 -8.21079,-25.73726 l -1.09478,-15.72835 6.20367,-0.89357 c 0.70726,-0.10161 1.41469,-0.16339 2.00712,-0.17898 z M 83.750086,406.7918 c 0.261542,0.0231 0.45611,0.0889 0.547332,0.17898 2.320793,2.27316 -1.239523,8.04272 -4.926452,8.04278 -10.865757,0 -23.537595,17.51625 -23.537595,32.35034 -5.7e-5,4.1002 -0.895015,7.28996 -1.824671,7.14932 -0.929657,-0.14087 -3.305009,-0.69612 -5.473842,-1.25124 -6.064938,-1.55245 -5.020792,-14.78172 2.18956,-27.34577 5.342724,-9.30938 7.824599,-11.39773 19.158533,-15.5496 6.287277,-2.30336 12.038249,-3.71927 13.867077,-3.57458 z m 238.842904,6.61296 c 1.30407,-1.27774 14.77942,27.7401 14.77942,31.81421 0,3.71729 11.30679,20.38899 16.78652,24.84357 5.78533,4.70336 4.03756,7.19436 -3.64928,5.5407 -6.73888,-1.44986 -6.88109,-1.20304 -5.47384,4.28945 1.0994,4.28998 0.51096,5.71934 -2.00712,5.71939 -4.58391,0 -7.27138,-10.81223 -3.28428,-13.22598 2.46502,-1.49235 2.19406,-4.04691 -1.82461,-13.5836 -7.26417,-17.23761 -16.4101,-44.33662 -15.32681,-45.39774 z m 16.23908,15.9071 c 1.93859,-0.13798 5.4429,3.09682 8.02835,8.4004 1.89759,3.8916 7.17577,11.34831 11.67758,16.62204 4.5018,5.27361 8.21079,10.05284 8.21079,10.54509 0,0.49191 -2.01278,0.89357 -4.37906,0.89363 -4.55839,6e-5 -24.99732,-27.92277 -24.99732,-34.13771 0,-1.66266 0.57827,-2.26069 1.45966,-2.32345 z m 27.36933,10.00897 c -2.79861,0.38336 -1.72271,2.40716 4.19662,10.0089 5.3743,6.90193 9.85296,9.79165 9.85296,6.25558 0,-3.65061 -9.76711,-16.26454 -12.58991,-16.26448 -0.55426,0 -1.05985,-0.052 -1.45967,0 z m 17.33392,0 c -3.48393,5e-5 -4.3618,2.51894 -1.82462,5.00445 1.79996,1.76318 5.2914,-0.0768 5.2914,-2.8597 0,-1.14218 -1.60805,-2.14481 -3.46678,-2.14475 z m 28.2816,2.14475 c 1.23918,-5e-5 2.18956,1.57508 2.18956,3.39589 -6e-5,1.82086 -0.95038,3.21708 -2.18956,3.21713 -1.23912,0 -2.372,-1.39633 -2.372,-3.21713 -6e-5,-1.82075 1.13288,-3.396 2.372,-3.39589 z m 11.86002,7.86415 c 1.80498,0.067 3.17204,2.40514 4.56156,7.14927 1.50655,5.14608 3.61247,7.00504 8.02833,7.50659 4.99614,0.56754 5.72471,1.63189 5.10896,6.79183 -0.41108,3.43693 1.38109,9.41134 4.01417,13.58354 5.36097,8.49739 5.72355,13.98018 1.45973,19.48173 -4.00378,5.16634 -9.31885,4.88055 -13.31981,-0.71488 -3.22653,-4.51295 -3.33767,-4.37843 -9.67044,3.39583 -3.5356,4.34026 -7.5839,7.86415 -8.94068,7.8642 -1.35725,6e-5 -4.44754,1.97508 -6.75107,4.46827 -2.40179,2.6 -6.56313,4.31324 -9.85296,4.11082 -10.28829,-0.63301 -13.6497,0.23325 -13.68463,3.03844 -0.0173,1.51735 -0.93768,4.06602 -2.00712,5.71934 -1.06943,1.65314 -6.27498,3.85823 -11.67757,4.82582 -9.44963,1.69269 -10.26046,1.30909 -18.06376,-6.97058 -9.83518,-10.43557 -17.09079,-23.18067 -14.59697,-25.55851 1.00564,-0.95818 6.26442,3.11546 11.67764,9.11533 11.69333,12.95879 15.50693,12.24806 5.65628,-1.07249 -3.80904,-5.15023 -6.93356,-11.33786 -6.93356,-13.58354 0,-7.59926 5.56032,-4.067 12.95485,8.0429 4.04807,6.62913 8.5721,12.62946 9.85291,13.4049 5.33827,3.23192 4.15071,-1.67121 -3.46679,-15.01341 -8.32407,-14.57982 -10.25307,-23.59262 -5.10889,-23.5925 1.61018,5e-5 4.24511,3.54894 5.83873,7.86415 3.17839,8.61026 8.61476,9.13727 7.29851,0.71488 -1.96849,-12.5969 -1.47041,-14.12735 6.93357,-18.588 4.6145,-2.44913 10.0522,-7.66519 12.22496,-11.61747 4.54892,-8.27361 9.17394,-9.27099 10.21785,-2.32356 1.15269,7.67356 5.71928,7.20279 11.31263,-1.25113 3.03083,-4.58067 5.12864,-6.85857 6.93357,-6.79177 z m -314.01726,23.41381 c -4.98713,-0.0231 -7.29077,5.14313 -3.28428,8.40034 3.49179,2.83862 2.21202,9.81301 -6.568619,36.10366 -6.424399,19.23353 -10.156246,51.82913 -7.298513,63.44949 5.567373,22.64373 12.288702,37.72839 19.523482,43.43162 6.07267,4.78679 7.23321,2.93417 2.372,-3.75327 -11.07378,-15.23356 -14.37948,-26.53262 -15.144359,-52.36826 -0.560034,-18.93042 0.150112,-27.00017 2.919389,-33.7801 1.9935,-4.87945 4.33842,-8.26235 5.2914,-7.68551 0.95293,0.57677 1.78576,-1.22307 1.82462,-3.93208 0.0404,-2.70889 1.19327,-12.80942 2.55444,-22.52012 1.36123,-9.71053 2.79792,-19.73548 3.10184,-22.16257 0.38048,-3.03631 -0.90621,-4.72253 -4.19662,-5.1832 -0.35507,-0.052 -0.76245,0.002 -1.09478,0 z m 266.02973,30.56302 c -1.23911,0 -2.18956,0.93081 -2.18956,2.1447 0,1.21377 0.95045,2.32351 2.18956,2.32356 1.23918,-5e-5 2.18956,-1.10979 2.18956,-2.32356 0,-1.21389 -0.95038,-2.14476 -2.18956,-2.1447 z m -49.81214,6.07683 c 1.32405,-0.31177 3.20351,2.10815 5.47385,7.14921 5.78648,12.84759 25.27526,27.93236 38.31706,29.84808 5.83411,0.85703 13.34192,3.74253 16.60409,6.25558 5.80472,4.47283 5.92192,4.30903 12.77235,0.35739 5.70098,-3.28879 18.11531,-9.90233 21.34804,-11.43873 0.40126,-0.19053 -0.97804,-3.29317 -2.9194,-6.97052 -4.00978,-7.59619 -2.86991,-12.74279 3.28429,-14.65591 4.36318,-1.35656 13.34594,2.19002 16.23918,6.43427 3.21269,4.71242 1.87963,10.00884 -2.55451,10.0089 -3.02752,0 -4.61362,1.84471 -5.10894,5.89814 -0.57562,4.71029 -3.68381,7.33876 -16.42158,13.9411 -17.67779,9.16296 -33.16983,12.75186 -36.85734,8.40028 -1.28358,-1.51573 -2.95923,-5.53291 -3.83173,-8.93653 -1.05777,-4.12936 -2.59625,-5.81188 -4.74401,-5.00445 -6.31343,2.37304 -21.86598,-4.41371 -32.66072,-14.29854 -9.23612,-8.45732 -10.94768,-11.46615 -10.94768,-18.23055 0,-5.57528 0.68306,-8.44624 2.00705,-8.75778 z m 76.81652,21.44769 c 1.40621,-0.12587 2.4578,0.46073 3.64923,1.42982 2.85779,2.32281 2.55428,3.52677 -2.73689,8.93658 -3.37741,3.45385 -7.06486,6.25552 -8.02829,6.25558 -1.82716,0 -7.32646,-8.81349 -6.02129,-9.65152 7.34574,-4.71745 10.79428,-6.76036 13.13724,-6.97046 z m -81.92541,6.07683 c 0.3366,-0.10508 0.75143,-0.052 1.09478,0 1.37387,0.20842 3.02534,1.7185 6.02117,4.46832 3.38694,3.10807 10.43673,7.78597 15.69175,10.36646 7.57259,3.71788 9.35678,5.74428 8.75818,9.65147 -1.34951,8.81597 -10.17986,7.21277 -22.44281,-3.93214 -6.03278,-5.48244 -12.51976,-10.00902 -14.23203,-10.00896 -4.42253,0 -3.82757,-2.99849 1.45967,-7.6854 1.65868,-1.47052 2.64019,-2.54423 3.64929,-2.85975 z m 297.77811,0 c 0.24307,-0.0785 0.33545,-0.0231 0.54734,0 1.48374,0.18071 2.24822,2.98088 2.37194,8.75789 0.11259,5.25999 0.50403,20.19512 0.91234,33.24391 0.57857,18.48955 0.11662,23.77114 -2.18956,23.77119 -1.62745,-5e-5 -3.48324,1.39634 -4.19662,3.21725 -1.4211,3.62752 -7.14667,4.56191 -9.12307,1.42982 -0.68457,-1.0845 0.24076,-6.32948 2.1895,-11.61753 1.94869,-5.28805 4.27745,-20.52559 5.10896,-33.78015 1.0162,-16.20779 2.48482,-24.40831 4.37912,-25.02238 z m -171.14941,8.40039 c 4.89897,-5e-5 12.78194,7.79239 14.9618,14.83467 1.13877,3.67804 0.60882,5.0044 -2.00706,5.00451 -1.94199,6e-5 -3.46679,0.93087 -3.46679,2.1447 0,1.21395 1.42555,2.1447 3.28429,2.14476 4.23778,0 4.29274,3.09323 0.18244,6.43438 -4.14454,3.36927 0.48036,13.9243 5.47384,12.51116 2.1167,-0.59894 5.98521,2.82846 10.21791,9.11522 3.71753,5.52159 7.4641,11.17482 8.57574,12.68997 1.11216,1.51515 1.55574,5.35658 0.72989,8.57908 -1.43334,5.59215 -2.20232,5.89803 -16.2392,5.89814 -14.29033,0 -14.88201,-0.20207 -18.61114,-7.14926 -2.1111,-3.93231 -8.33025,-11.03897 -13.86708,-15.90705 -35.50648,-31.21982 -39.26807,-36.46121 -25.90964,-36.4611 3.02528,6e-5 7.59926,-2.082 10.03541,-4.46832 6.79714,-6.65852 21.99506,-15.37091 26.63953,-15.37086 z m -137.75894,7.86415 c 2.43562,-0.18475 4.38281,1.46365 9.12312,5.54064 4.31937,3.71499 11.31644,8.22933 15.50925,10.18772 7.15764,3.3434 10.20255,7.3279 5.65634,7.3279 -1.11827,0 -3.15928,2.56004 -4.37912,5.89819 -1.21966,3.3381 -7.85745,12.38374 -14.9618,20.01787 -12.08663,12.9884 -12.71975,14.17752 -9.30563,17.873 2.00683,2.17229 3.64923,6.31175 3.64923,9.29414 0,6.19253 -4.63806,7.26728 -18.61108,3.93207 -12.29183,-2.93406 -24.15756,0.81396 -31.74845,10.18765 -6.28837,7.76456 -11.37873,9.77358 -14.04958,5.5407 -1.45545,-2.30705 8.08736,-15.38523 16.96898,-23.23506 7.17207,-6.33889 12.36353,-17.49125 16.42158,-35.38878 4.31105,-19.01004 10.91916,-30.55915 20.07087,-35.03128 2.49053,-1.21706 4.19471,-2.03373 5.65629,-2.14476 z m 179.36023,74.88827 c 1.14431,-0.0115 1.85735,0.16686 2.1895,0.35738 3.08856,1.77191 1.77144,15.78067 -1.82461,19.30288 -4.28438,4.19667 -4.42439,4.15493 -15.6917,0.17898 -14.05899,-4.96121 -24.671,-4.12405 -39.77667,3.21713 -15.28112,7.42686 -14.72155,7.40954 -16.23918,5.00445 -2.67079,-4.23253 10.90357,-14.02435 27.00442,-19.48162 10.67765,-3.61914 36.32975,-8.4792 44.33824,-8.57914 z"
     id="path9038" />
</svg>
