<?xml version="1.0" encoding="UTF-8" standalone="no"?>
<!-- Created with Inkscape (http://www.inkscape.org/) -->

<svg
   xmlns:dc="http://purl.org/dc/elements/1.1/"
   xmlns:cc="http://creativecommons.org/ns#"
   xmlns:rdf="http://www.w3.org/1999/02/22-rdf-syntax-ns#"
   xmlns:svg="http://www.w3.org/2000/svg"
   xmlns="http://www.w3.org/2000/svg"
   xmlns:sodipodi="http://sodipodi.sourceforge.net/DTD/sodipodi-0.dtd"
   xmlns:inkscape="http://www.inkscape.org/namespaces/inkscape"
   width="1000"
   height="1000"
   id="svg2"
   version="1.1"
   inkscape:version="0.47 r22583"
   sodipodi:docname="H.svg">
  <defs
     id="defs4">
    <inkscape:perspective
       sodipodi:type="inkscape:persp3d"
       inkscape:vp_x="0 : 526.18109 : 1"
       inkscape:vp_y="0 : 1000 : 0"
       inkscape:vp_z="744.09448 : 526.18109 : 1"
       inkscape:persp3d-origin="372.04724 : 350.78739 : 1"
       id="perspective10" />
    <inkscape:perspective
       id="perspective2940"
       inkscape:persp3d-origin="0.5 : 0.33333333 : 1"
       inkscape:vp_z="1 : 0.5 : 1"
       inkscape:vp_y="0 : 1000 : 0"
       inkscape:vp_x="0 : 0.5 : 1"
       sodipodi:type="inkscape:persp3d" />
    <inkscape:perspective
       id="perspective2953"
       inkscape:persp3d-origin="0.5 : 0.33333333 : 1"
       inkscape:vp_z="1 : 0.5 : 1"
       inkscape:vp_y="0 : 1000 : 0"
       inkscape:vp_x="0 : 0.5 : 1"
       sodipodi:type="inkscape:persp3d" />
    <inkscape:perspective
       id="perspective2966"
       inkscape:persp3d-origin="0.5 : 0.33333333 : 1"
       inkscape:vp_z="1 : 0.5 : 1"
       inkscape:vp_y="0 : 1000 : 0"
       inkscape:vp_x="0 : 0.5 : 1"
       sodipodi:type="inkscape:persp3d" />
    <inkscape:perspective
       id="perspective2979"
       inkscape:persp3d-origin="0.5 : 0.33333333 : 1"
       inkscape:vp_z="1 : 0.5 : 1"
       inkscape:vp_y="0 : 1000 : 0"
       inkscape:vp_x="0 : 0.5 : 1"
       sodipodi:type="inkscape:persp3d" />
    <inkscape:perspective
       id="perspective2992"
       inkscape:persp3d-origin="0.5 : 0.33333333 : 1"
       inkscape:vp_z="1 : 0.5 : 1"
       inkscape:vp_y="0 : 1000 : 0"
       inkscape:vp_x="0 : 0.5 : 1"
       sodipodi:type="inkscape:persp3d" />
    <inkscape:perspective
       id="perspective3005"
       inkscape:persp3d-origin="0.5 : 0.33333333 : 1"
       inkscape:vp_z="1 : 0.5 : 1"
       inkscape:vp_y="0 : 1000 : 0"
       inkscape:vp_x="0 : 0.5 : 1"
       sodipodi:type="inkscape:persp3d" />
    <inkscape:perspective
       id="perspective3018"
       inkscape:persp3d-origin="0.5 : 0.33333333 : 1"
       inkscape:vp_z="1 : 0.5 : 1"
       inkscape:vp_y="0 : 1000 : 0"
       inkscape:vp_x="0 : 0.5 : 1"
       sodipodi:type="inkscape:persp3d" />
    <inkscape:perspective
       id="perspective3031"
       inkscape:persp3d-origin="0.5 : 0.33333333 : 1"
       inkscape:vp_z="1 : 0.5 : 1"
       inkscape:vp_y="0 : 1000 : 0"
       inkscape:vp_x="0 : 0.5 : 1"
       sodipodi:type="inkscape:persp3d" />
  </defs>
  <sodipodi:namedview
     id="base"
     pagecolor="#ffffff"
     bordercolor="#666666"
     borderopacity="1.0"
     inkscape:pageopacity="0.0"
     inkscape:pageshadow="2"
     inkscape:zoom="0.532"
     inkscape:cx="500"
     inkscape:cy="500"
     inkscape:document-units="px"
     inkscape:current-layer="svg2"
     showgrid="false"
     showborder="true"
     inkscape:showpageshadow="false"
     showguides="true"
     inkscape:guide-bbox="true"
     inkscape:window-width="1280"
     inkscape:window-height="750"
     inkscape:window-x="0"
     inkscape:window-y="26"
     inkscape:window-maximized="1">
    <sodipodi:guide
       orientation="0,1"
       position="0,200"
       id="guide2818" />
  </sodipodi:namedview>
  <metadata
     id="metadata7">
    <rdf:RDF>
      <cc:Work
         rdf:about="">
        <dc:format>image/svg+xml</dc:format>
        <dc:type
           rdf:resource="http://purl.org/dc/dcmitype/StillImage" />
        <dc:title></dc:title>
      </cc:Work>
    </rdf:RDF>
  </metadata>
  <g
     inkscape:label="Layer 1"
     inkscape:groupmode="layer"
     id="layer1" />
  <path
     style="fill:#800000"
     d="M 0,0 0,6.1054678 0,793.89453 0,800 l 6.2652219,0 724.6164181,0 6.26522,0 0,-6.10547 0,-787.7890622 L 737.14686,0 730.88164,0 6.2652219,0 0,0 z m 21.301674,12.390551 702.956726,0 c 0.16917,3.212401 0.35623,24.398142 0.53694,55.488228 l 0,719.730671 -711.907052,0 c -0.18995,-0.52539 -0.346413,-1.10725 -0.53694,-1.79575 l 0,-431.33555 C 14.058413,44.096098 14.369953,16.1142 17.721497,13.46801 c 0.537517,-0.424356 1.808679,-0.774637 3.580119,-1.077459 z M 465.9527,21.548781 C 335.58601,21.742195 189.09531,22.4024 123.15616,23.524085 L 28.103893,25.140331 26.4929,141.68353 c -0.826079,64.02678 -1.757872,233.15879 -2.148106,375.84738 l -0.716035,259.30406 345.481701,0.53867 345.3026,0.35912 -0.71604,-376.74517 C 713.38006,193.84163 712.46703,23.547294 711.54903,22.626125 710.52983,21.603745 596.31932,21.355367 465.9527,21.548666 z m -121.72409,54.23127 c 1.99279,-0.0918 3.36615,1.653313 4.29615,5.387181 4.60204,18.477947 15.04794,38.393858 25.41885,48.125628 5.95432,5.58689 12.5753,10.05613 14.49945,10.05613 13.36825,0 33.74107,-19.91862 45.28857,-44.175134 4.06227,-8.533186 8.5643,-15.958718 10.02432,-16.520657 1.45949,-0.561766 6.04207,3.110094 10.02432,8.080829 6.7435,8.417773 6.96203,9.597078 4.83321,17.598172 -1.43167,5.3806 -1.49379,9.06141 -0.17898,9.87646 2.60393,1.61463 31.3533,-11.2852 40.81337,-18.316459 4.28755,-3.187171 11.54063,-5.648376 18.79567,-6.464582 10.83071,-1.218623 12.41607,-0.832661 19.51164,5.207623 7.36058,6.265568 7.69724,7.249728 7.69724,20.830498 -6e-5,12.31393 -0.94912,15.39903 -6.44421,22.62629 -7.28708,9.58398 -18.66651,15.30412 -26.67188,13.2884 -3.01587,-0.75939 -8.37031,-4.65948 -11.99344,-8.79912 -3.93664,-4.49799 -8.74739,-7.54204 -11.81435,-7.54198 -2.82217,-6e-5 -13.31998,4.62219 -23.27086,10.41525 -37.25219,21.68602 -43.71978,30.81792 -47.61554,66.08297 l -2.6851,23.34459 -17.54257,10.59486 c -9.71636,5.78584 -22.95037,12.87114 -29.35699,15.80243 -13.51853,6.18549 -16.23775,4.89649 -17.18461,-8.08083 -0.34064,-4.66306 -1.31331,-18.51149 -2.14805,-30.70696 -1.83339,-26.78359 -4.64869,-42.71391 -8.23429,-47.04828 -2.28338,-2.75999 -3.30207,-2.35913 -7.1603,2.33442 -2.85045,3.46759 -7.6571,5.80039 -13.24642,6.64425 -13.06028,1.97184 -36.56052,7.40608 -37.94929,8.79906 -2.39873,2.40682 1.88345,6.10553 7.16024,6.10553 4.33443,0 5.37015,1.12214 5.37015,5.74629 0,3.16558 -1.69552,8.52695 -3.7591,12.0315 -4.54274,7.71519 -2.76732,10.29787 4.83321,6.82375 3.10184,-1.41764 10.16006,-2.51403 15.57351,-2.51397 9.09218,-6e-5 9.84528,0.49075 9.84528,5.74635 0,9.06401 -3.6979,13.63504 -12.35135,15.2637 -8.0157,1.50845 -8.05387,1.62023 -6.62324,10.59486 1.09005,6.83761 0.50288,9.97247 -2.32703,13.10884 -2.21,2.45 -6.76561,4.1301 -11.09843,4.13016 -9.26954,0 -12.76958,-5.90853 -10.74035,-17.95735 1.69141,-10.04244 1.07567,-10.2776 -9.12931,-3.95054 -8.83041,5.47488 -15.15388,3.80696 -26.49284,-6.82382 l -6.80228,-6.46469 3.7591,-17.41862 c 4.87963,-22.5576 9.71584,-32.27534 20.22768,-41.30188 12.03571,-10.33453 35.36055,-19.10599 52.26982,-19.57347 8.38088,-0.2321 13.53325,-1.2923 13.06738,-2.69359 -1.37566,-4.14033 -20.05504,-15.78459 -34.72713,-21.72846 -24.3639,-9.87017 -39.73938,-9.69095 -39.73938,0.53867 0,2.39279 -3.65887,8.22719 -8.05519,13.10884 -6.09652,6.76937 -9.5752,8.98508 -14.85753,8.97873 -10.01826,-0.0115 -19.69213,-6.88894 -24.34485,-17.23906 -3.86915,-8.6068 -4.00673,-9.45002 -0.35796,-19.03475 7.12005,-18.702014 25.67531,-30.348066 48.51066,-30.347951 9.11118,0 14.76285,1.87571 27.92492,8.978616 34.99502,18.886485 35.2535,19.021415 37.59133,15.443375 1.1748,-1.79835 1.47075,-8.14221 0.71598,-14.006744 -1.65978,-12.900066 2.25878,-18.438687 14.32047,-20.471379 4.39217,-0.740054 9.64915,-1.793841 11.63543,-2.334418 0.31235,-0.08487 0.61038,-0.166279 0.89501,-0.179558 z M 92.367104,77.755355 c 4.892215,-1.220759 31.571776,31.225305 36.338236,44.534135 1.63796,4.5734 4.14576,8.26033 5.54913,8.26039 1.40355,0 4.02226,-5.26969 5.72829,-11.67232 1.98459,-7.44724 4.33547,-11.67227 6.44414,-11.67221 3.60033,0 3.4669,0.10623 3.93819,32.68237 0.25462,17.59956 1.06003,21.72834 3.7591,21.7284 1.82352,0 3.20305,-0.88104 3.2221,-1.79569 0.0173,-0.91464 3.01316,-4.86975 6.62318,-8.97879 5.4097,-6.15662 6.91088,-6.94199 8.05531,-3.95055 0.7635,1.99661 0.11374,7.01232 -1.43201,10.95398 -3.77278,9.61746 -11.05934,26.00896 -13.60444,30.88668 -1.78928,3.42822 -1.31371,3.92579 3.58006,2.6936 9.27509,-2.33523 6.80303,3.76423 -4.83309,11.85182 l -10.56143,7.18298 -1.43207,-9.5174 c -0.80374,-5.2246 -2.15394,-19.17557 -3.04307,-31.06624 -1.19177,-15.9298 -2.44429,-21.54884 -4.65417,-21.54879 -3.91331,6e-5 -3.73589,10.34505 0.53694,38.7879 1.83166,12.19547 3.50714,24.60536 3.7591,27.65425 0.63555,7.69914 -7.91472,8.94311 -12.35141,1.79569 -15.17871,-24.45126 -19.66221,-34.01854 -17.36359,-37.71038 3.14323,-5.04937 1.87502,-8.18498 -12.172427,-29.80911 -6.494085,-9.99742 -11.814351,-18.89976 -11.814351,-19.57354 5.8e-5,-4.15112 9.503085,0.37528 19.511648,9.15818 6.41954,5.63336 12.28708,9.58212 13.06744,8.79911 3.41799,-3.42896 -11.08822,-40.20807 -23.986838,-60.695792 -2.531527,-4.021044 -4.167288,-8.03083 -3.401138,-8.799116 0.110274,-0.111429 0.378744,-0.140297 0.536939,-0.179557 z m 536.660106,3.770992 c 1.38052,-0.148958 4.79205,3.732367 9.66631,11.851879 7.99878,13.324484 16.62377,42.900564 15.5735,53.153754 -0.98872,9.65672 3.25623,10.06138 7.6973,0.71834 4.57322,-9.62086 12.70936,-10.98394 12.70936,-2.15492 -6e-5,8.84698 -10.33546,27.05508 -17.18456,30.34796 -9.05505,4.35372 -5.48885,7.1592 8.77129,7.18287 18.07646,0.0289 23.73528,7.62853 8.05531,10.77448 -11.09191,2.22541 -30.61002,14.5349 -30.61002,19.2143 6e-5,7.04188 -2.60716,10.95392 -6.98131,10.95398 -2.3175,0 -5.94439,0.89813 -8.05519,1.9753 -2.11099,1.07729 -6.46932,3.26298 -9.84535,4.84851 -3.37596,1.58547 -6.81457,5.26877 -7.51825,8.08083 -2.52235,10.08165 -22.46227,22.74985 -35.80119,22.8058 -4.24563,0.0173 -36.39984,13.19561 -39.02334,15.98204 -3.26015,3.46234 10.42743,0.59421 34.5481,-7.18287 24.1594,-7.78967 33.97749,-8.25767 37.23331,-2.15492 1.25754,2.35648 4.25551,4.81295 6.62324,5.5668 3.15184,1.00367 4.70405,4.22052 5.72817,11.85188 1.92588,14.3453 11.45361,43.54876 18.7956,57.46347 3.3516,6.35275 6.42186,12.79141 6.98126,14.36586 0.55946,1.5745 1.84274,2.21606 2.6851,1.43657 0.8419,-0.77954 -2.49821,-13.25531 -7.33927,-27.83381 -11.89576,-35.82508 -15.19684,-56.20663 -9.12931,-56.20657 1.04484,6e-5 2.42281,1.81642 3.04312,3.95061 0.62089,2.13419 2.68586,9.54511 4.65418,16.52083 3.30472,11.71412 4.57905,13.16138 15.03656,18.85519 13.13586,7.15163 15.7697,11.67221 6.98114,11.67226 -5.4053,0 -5.85235,0.58227 -4.47507,6.10553 0.83584,3.35368 2.19522,9.55943 2.86408,13.64757 1.03814,6.34738 2.85,8.22811 12.53039,12.74972 6.23526,2.91229 12.98066,5.19579 15.03651,5.20756 2.05578,0.0115 4.28299,0.97123 5.01219,2.15498 1.91832,3.11414 -8.53538,5.28655 -17.54258,3.59149 -9.49702,-1.78743 -10.23679,1.66446 -2.14805,10.41525 3.95829,4.28282 7.68817,6.1053 12.88841,6.10541 4.05684,0 8.60073,1.33196 10.02432,3.05276 2.85692,3.45287 1.85943,4.61647 -6.62318,6.6442 -4.49229,1.07394 -6.97301,4.17797 -11.45645,15.08426 -3.14381,7.64758 -6.38208,16.29064 -7.16024,19.0348 -1.7409,6.13642 -4.79585,6.4942 -6.62324,0.71835 -0.752,-2.37691 -7.68834,-9.36833 -15.39447,-15.44343 l -13.96251,-10.95398 -1.611,-17.95734 c -0.86857,-9.84148 -2.32749,-17.95735 -3.40113,-17.95729 -1.07423,0 -4.44858,3.92075 -7.51826,8.79905 -3.06968,4.87825 -7.14205,8.97851 -8.95038,8.97862 -4.66358,0 -4.36024,-1.30771 5.72828,-21.54878 6.35379,-12.74718 8.59075,-19.41592 7.51825,-22.80586 -1.46601,-4.63396 -1.81485,-4.6294 -10.02437,3.41194 -6.87295,6.73305 -8.94519,7.66894 -10.02432,4.84857 -0.74335,-1.9435 1.0942,-7.3133 4.11711,-12.0315 8.24162,-12.86346 9.39304,-23.38379 3.58012,-33.75983 -3.41528,-6.09565 -6.75851,-8.93404 -11.45633,-9.87646 -21.38412,-4.2905 -30.17163,3.08509 -36.15926,29.80911 -2.1794,9.72883 -5.03915,17.30857 -6.26517,16.87994 -1.2782,-0.44687 -2.10082,-8.52845 -1.96912,-18.85524 l 0.17898,-17.95735 -7.51832,-2.51403 c -5.58307,-1.8484 -11.25708,-1.87987 -22.0177,0 l -14.49952,2.51403 -14.85747,-8.97873 c -8.14584,-4.93719 -16.79519,-8.96003 -19.15362,-8.97868 -2.3585,-0.0173 -5.70502,-1.00482 -7.51826,-2.1548 -6.10622,-3.87249 0.65726,-6.15928 20.94372,-7.18298 19.90158,-1.00425 32.04203,-4.50418 32.04203,-9.33785 0,-1.414 -3.44231,-6.68548 -7.69724,-11.67226 -12.62981,-14.80164 -10.20619,-17.54125 7.69724,-8.43995 5.99796,3.0489 12.45671,5.56674 14.32053,5.5668 1.97322,0 3.40108,1.94932 3.40108,4.66895 0,3.57977 0.97457,4.27676 3.93813,3.05265 2.12779,-0.87856 5.56957,-2.08004 7.6973,-2.69359 5.42817,-1.56579 4.91756,-3.51961 -2.68511,-9.15817 -10.19348,-7.56035 -14.43692,-14.96209 -10.91933,-19.21437 2.52275,-3.04953 3.37308,-2.63955 8.23423,3.59149 7.05966,9.04906 17.16481,13.10873 32.04214,13.10873 9.52087,0 12.78327,-1.08156 16.64751,-5.20757 6.39131,-6.82497 6.10414,-19.2747 -0.53694,-33.58027 -2.83799,-6.11396 -6.28024,-14.72803 -7.69724,-19.03481 -1.93835,-5.8919 -5.54722,-9.53253 -14.67849,-15.08414 -12.98095,-7.89232 -15.15481,-11.39144 -7.16029,-11.31315 7.49822,0.0733 22.92098,7.7664 33.11608,16.52077 4.99515,4.28934 9.92253,7.90122 10.91939,7.90127 2.88371,0 2.17749,-20.22409 -1.43201,-39.14707 -5.60386,-29.37834 -4.07422,-34.17027 6.26522,-18.49602 3.22585,4.88974 6.58438,13.33424 7.33922,18.85525 0.80269,5.87309 2.32472,9.81295 3.75915,9.33779 3.79726,-1.25817 5.40064,-51.72255 1.96907,-62.31204 -2.70733,-8.353283 -3.35021,-12.600708 -1.96907,-12.749723 z M 444.47204,164.30971 c 1.38866,-0.15646 3.0463,0.86003 6.44415,2.87321 13.99952,8.29612 26.13788,44.38217 24.34485,72.36817 -1.68917,26.36473 -18.51946,49.71763 -44.39355,61.5937 -24.20283,11.10917 -23.06982,11.31534 -34.72713,-5.20769 -6.14213,-8.70506 -9.33571,-9.5245 -18.61663,-4.66889 -3.4822,1.82184 -7.58546,3.41182 -9.30835,3.41188 -4.96288,0 -5.97261,5.72262 -1.96906,11.85188 2.17073,3.3236 3.02643,6.74471 1.96906,8.43994 -0.98439,1.5782 -1.75793,4.37034 -1.79008,6.10553 -0.0346,1.97328 -6.8901,5.44589 -18.25856,9.15823 -21.8471,7.13391 -33.9227,14.66706 -42.7825,26.93602 -5.99028,8.29618 -6.4442,10.65479 -6.4442,26.21773 l 0,17.23906 -8.95027,4.66889 c -4.90029,2.56236 -11.73063,4.61405 -15.03656,4.66896 -3.3053,0.0577 -8.8833,1.64361 -12.53039,3.41193 -6.27867,3.04399 -5.96719,3.04866 8.59231,1.79569 13.94075,-1.19963 15.1969,-0.88895 12.53038,2.33442 -1.6178,1.95561 -9.07416,5.44451 -16.46852,7.72171 -15.80785,4.86802 -19.27008,9.34016 -5.9072,7.5421 5.65184,-0.76049 8.95027,-0.42262 8.95027,1.0774 0,3.42331 -3.82735,5.4448 -16.28949,8.26045 -15.19182,3.4322 -15.80173,7.36283 -0.89507,5.92591 10.55543,-1.01748 11.44484,-0.71731 8.77134,2.51391 -1.62658,1.96642 -4.92962,4.261 -7.33921,5.02813 -2.70682,0.86182 -3.99541,2.46831 -3.22216,4.48934 0.68786,1.79921 -2.96397,12.97044 -8.05531,24.78115 -8.7792,20.36694 -9.19074,22.69287 -9.30829,43.81591 -0.0976,17.59569 0.7139,23.53113 3.75916,28.19304 5.5545,8.50489 12.95682,14.90464 17.18456,14.9047 4.96946,6e-5 10.91933,-7.10141 10.91933,-12.92934 6e-5,-6.04254 9.3405,-12.34286 15.39447,-10.41531 3.3587,1.06938 4.47525,3.37932 4.47525,8.79912 0,8.95477 -7.87188,17.65683 -22.01777,24.24249 -9.5596,4.45048 -9.72115,4.66987 -3.75909,5.38718 3.80984,0.45842 11.14167,-1.92236 19.15362,-6.10547 7.17594,-3.7464 14.82826,-6.6849 17.00558,-6.64425 7.60982,0.14202 13.76483,7.66213 14.49951,17.95734 0.97348,13.64116 4.7473,12.04726 6.9812,-2.8732 1.48178,-9.89886 3.34791,-13.95195 9.1293,-19.57348 4.02417,-3.91256 10.61623,-7.75682 14.6785,-8.6195 5.6083,-1.19097 7.23644,-2.66813 6.80216,-5.92597 -0.31408,-2.35982 -0.84975,-34.81252 -1.25303,-72.00894 l -0.71598,-67.51973 -10.9194,-1.25696 c -5.96857,-0.63151 -12.03178,-1.80688 -13.4254,-2.69359 -3.51932,-2.23927 -10.8717,-17.10753 -12.70948,-25.49938 -3.87728,-17.7099 10.63863,-36.70261 34.90617,-45.79133 20.38455,-7.63419 24.62435,-7.49279 29.17801,1.43663 2.0216,3.96354 6.73363,10.96599 10.38233,15.62287 6.26678,7.99833 6.63543,9.39362 5.37021,22.98541 -1.30603,14.0314 -1.29616,14.24536 3.40114,12.74973 2.64902,-0.84346 7.69781,-4.4894 11.27735,-8.08083 3.58012,-3.59144 8.96511,-8.00375 11.81447,-9.87652 6.14201,-4.03738 6.68877,-7.36254 1.25303,-7.36248 -5.67418,0 -25.80706,-14.23999 -31.50509,-22.26713 -2.69145,-3.79224 -6.37272,-11.45218 -8.05531,-17.05956 -2.69093,-8.97128 -2.53216,-10.92418 0.53694,-15.62281 4.01233,-6.14306 5.60571,-5.74185 19.33261,4.30972 8.7841,6.43173 10.08419,8.55484 10.20336,15.80243 0.13683,8.28325 0.12932,8.2631 9.48738,8.26038 5.16703,-0.001 16.69115,-1.34881 25.59782,-3.0527 18.79965,-3.59675 27.51188,-1.9581 38.12827,7.00337 8.56425,7.22888 14.48323,19.94835 10.9194,23.52408 -1.77179,1.77745 -2.81928,1.08988 -3.75916,-2.51391 -0.70957,-2.72298 -2.15769,-5.02824 -3.2221,-5.02813 -1.47635,6e-5 3.38059,15.89053 5.9072,19.39392 0.25173,0.34988 5.81091,-1.32907 12.35141,-3.95061 16.98427,-6.80776 35.12741,-6.32001 46.54154,1.25708 14.32763,9.5118 14.82283,18.73371 0.53694,9.87646 -7.69094,-4.76826 -8.75431,-4.86872 -23.09182,-2.15492 -13.54566,2.56409 -16.2616,3.91406 -27.56689,14.72508 -12.46549,11.92024 -19.68566,16.34116 -27.5669,16.34122 -6.48069,0 -17.22029,-10.45907 -18.79566,-18.31646 -0.78798,-3.93069 -2.05764,-9.08803 -2.68505,-11.31321 -1.22232,-4.33068 -19.56176,-13.39076 -22.91278,-11.31309 -3.62648,2.24828 -2.1936,5.2806 3.2221,6.6442 2.9239,0.73613 7.4895,3.74668 10.2033,6.6442 3.98883,4.25937 4.66139,6.85435 3.58012,13.64756 -1.67606,10.519 -9.76215,17.44264 -22.7338,19.39398 l -9.66625,1.43658 0,16.52077 c 0,14.65759 -0.42955,16.52077 -4.11717,16.52083 -5.7911,0 -9.7077,5.69791 -9.48738,13.46795 0.10277,3.61649 -0.78757,6.46458 -1.78998,6.46464 -1.00292,-6e-5 -2.42165,2.72604 -3.22215,5.92597 -1.08283,4.32831 0.14664,8.02067 4.65417,14.54541 5.13268,7.42957 5.50825,9.43686 3.22216,13.1089 -3.88987,6.2483 1.00869,21.6419 7.87627,24.7811 5.51195,2.5194 6.31112,4.7152 8.23423,23.7037 1.22001,12.05297 11.61216,51.2434 17.72156,66.80138 7.84001,19.96417 28.53563,43.33468 47.97366,54.41076 18.15157,10.3432 50.47974,16.58203 50.47974,9.69696 0,-0.93843 -1.3774,-5.26859 -3.22216,-9.69696 -3.03706,-7.29152 -3.10403,-8.62181 0.17898,-13.64751 4.09154,-6.26458 11.63029,-8.85332 19.69068,-6.82387 7.27011,1.83033 12.7589,19.47216 9.6663,30.70707 -3.11171,11.30501 -8.29733,15.93413 -22.19668,19.21437 -20.12653,4.74989 -36.04391,2.13771 -70.3494,-11.31309 -4.25493,-1.66827 -12.20101,-6.26355 -17.54269,-10.23569 -11.83254,-8.799 -14.39033,-8.90714 -19.33261,-1.07752 -2.11687,3.35385 -7.71611,11.3751 -12.35146,17.77779 -4.63587,6.4028 -9.15032,11.69097 -10.02432,11.67232 -5.18326,-0.11085 -7.62582,-5.1526 -8.59225,-17.95729 -1.20096,-15.90514 -7.49643,-31.61623 -14.67849,-36.27392 -13.82043,-8.96291 -30.19467,-5.01802 -38.12827,9.33784 -4.607,8.33752 -4.54719,12.58206 0.17898,33.22105 1.49275,6.51891 1.19068,7.18298 -3.40108,7.18304 -3.14711,6e-5 -8.81436,-3.90875 -14.85753,-10.23575 l -9.66636,-10.05613 -17.00558,0.71829 c -13.73446,0.69502 -20.34113,2.478 -34.90611,9.15829 -22.80765,10.46132 -34.39516,12.12468 -49.22665,7.18287 -17.14876,-5.71391 -31.14707,-25.06938 -31.14707,-42.91801 0,-6.64962 12.16059,-17.67369 21.30167,-19.39404 16.30964,-3.06939 22.91279,6.10247 22.91279,32.14371 5e-5,17.35095 0.36835,17.80423 15.93158,13.46801 7.38881,-2.05868 48.28619,-29.58729 49.94268,-33.58022 0.37874,-0.91326 3.60725,-4.93604 7.16023,-8.97868 4.11614,-4.68436 6.42192,-9.83985 6.44421,-14.18629 0.0404,-8.19596 7.82119,-16.52083 15.57356,-16.52077 2.96472,0 12.20915,2.08627 20.58564,4.48939 8.37655,2.40289 16.13868,3.70107 17.18461,3.0527 2.45699,-1.52346 0.69855,-9.65637 -6.08618,-27.29519 -3.82347,-9.94054 -4.85578,-14.70268 -3.22216,-16.34127 2.96408,-2.97349 3.12459,-19.21431 0.17898,-19.21425 -1.21625,0 -2.14805,1.51914 -2.14805,3.41194 6e-5,1.89274 -3.08931,4.44805 -6.80222,5.74629 -6.11545,2.13875 -6.52168,3.04307 -5.19116,9.33785 0.80812,3.82128 4.87766,12.84868 9.1293,19.93265 4.25222,7.08397 7.1152,13.33389 6.4442,14.00674 -0.67042,0.67273 -7.4425,-0.97452 -15.21549,-3.77105 l -14.14149,-5.20763 -13.06744,8.79912 c -12.07203,8.10248 -13.13447,9.39957 -12.70943,16.52072 0.57101,9.56232 -3.15247,22.08982 -6.62318,22.08762 -1.42583,-9.2e-4 -8.84461,-3.02609 -16.46864,-6.64425 -20.32063,-9.64396 -34.60444,-13.32015 -56.92387,-14.72509 -62.40968,-3.92849 -85.18026,-16.43382 -105.07659,-58.18182 -6.16014,-12.92651 -6.66596,-15.19643 -4.65411,-24.42198 1.21793,-5.58695 2.81552,-15.2715 3.58011,-21.36923 0.76517,-6.09784 2.03264,-13.23811 2.68511,-15.9821 0.65247,-2.74393 0.32794,-5.03263 -0.71604,-5.02795 -2.78989,0.0115 -20.876911,23.43956 -30.252054,39.14696 -8.351435,13.99196 -13.793118,18.1268 -17.900593,14.00668 -1.643959,-1.64898 -1.431839,-3.48226 0.53694,-6.6442 2.653984,-4.26382 2.34891,-4.58402 -4.833151,-3.23226 -9.685933,1.82282 -12.033226,-1.68114 -4.833209,-7.36254 5.626841,-4.44038 7.431882,-9.33791 3.401138,-9.33785 -6.785822,0 6.560308,-15.35913 22.375727,-25.85862 9.592748,-6.36839 10.404508,-8.45016 4.833209,-10.5948 -2.909752,-1.12001 -1.376818,-2.89803 7.160237,-8.6195 16.473316,-11.03966 38.524106,-22.22897 40.276316,-20.47144 0.85553,0.85824 -0.65899,7.7082 -3.22204,15.26381 -4.01874,11.84744 -5.79924,19.49617 -10.74041,44.71381 -0.515,2.6276 0.93052,5.88013 3.58017,7.90127 2.45965,1.876 5.87753,7.24257 7.51826,12.03132 1.64119,4.78899 4.02653,9.24778 5.37015,9.69708 2.91079,0.9733 3.34761,-6.68571 0.53694,-9.69708 -1.08133,-1.1584 -4.23161,-8.3008 -6.98132,-15.98198 -7.02156,-19.61199 -3.2303,-22.80043 7.69729,-6.28503 4.51122,6.81718 9.20471,12.91785 10.38234,13.64757 4.42364,2.7429 4.42312,-1.20442 0,-8.2605 -6.7021,-10.69013 -15.46017,-28.92229 -16.28954,-33.93933 -0.41627,-2.52206 0.76141,-4.62744 2.68516,-5.02801 2.21468,-0.46131 5.20295,3.65823 9.12925,12.57011 3.62584,8.22949 7.33021,13.46795 9.48732,13.46801 4.27387,0 4.29621,-0.25231 0.35796,-9.33779 -5.6284,-12.98731 -10.16854,-30.13757 -10.20336,-38.78784 -0.0624,-15.63494 -6.89696,-19.45148 -30.43098,-17.23912 -13.59693,1.27809 -20.038648,3.23798 -35.085204,11.13353 -17.751577,9.31493 -25.06083,10.51525 -25.06083,4.13017 0,-1.65591 2.04372,-4.0819 4.475076,-5.38712 5.583886,-2.99803 5.652995,-6.64426 0.17898,-6.6442 -2.296486,0 -6.438312,-1.89546 -9.308342,-4.30978 -4.276755,-3.59836 -4.714332,-4.77022 -2.147991,-6.4647 1.937314,-1.27896 5.220037,-1.28611 8.59225,0 5.659519,2.15879 13.783477,0.79346 13.783477,-2.33442 0,-0.98808 -1.577506,-3.15074 -3.401081,-4.66889 -1.823517,-1.51816 -3.222159,-3.59871 -3.222159,-4.66895 0,-2.74509 7.34424,-2.32911 10.2033,0.53867 3.769029,3.78104 18.825111,6.31204 28.104004,4.84851 7.58904,-1.19697 8.27413,-1.91849 7.33922,-6.82381 l -1.07405,-5.38724 13.6045,1.61624 c 7.45636,0.91736 15.42241,1.53975 17.72155,1.43658 2.29868,-0.10335 8.07962,1.84851 12.88846,4.30972 4.80942,2.46144 10.1992,3.92289 11.99339,3.23238 1.79367,-0.69069 4.94169,-0.35508 6.98126,0.71828 2.03962,1.07354 8.31281,2.62483 13.78347,3.41188 l 9.84534,1.43663 -7.51825,-4.13028 c -9.75822,-5.41853 -4.99383,-7.18015 9.48726,-3.41182 12.18253,3.17014 15.91842,2.15527 9.30835,-2.69359 -2.52379,-1.85152 -9.52254,-3.23243 -17.00552,-3.23237 -6.98946,-6e-5 -13.24908,-0.99681 -13.96252,-2.15487 -1.83113,-2.97256 12.66861,-5.26784 22.55477,-3.59149 7.8933,1.33848 7.96888,1.24432 3.7591,-2.15486 -3.42995,-2.76968 -7.24892,-3.34496 -17.36354,-2.33447 -18.97442,1.89562 -20.79331,-0.47459 -12.17243,-16.70028 5.97782,-11.25102 7.79158,-12.92939 13.24642,-12.92934 3.47782,-5e-5 6.44426,-1.11492 6.44426,-2.33447 0,-1.2196 -2.50999,-2.15503 -5.54924,-2.15492 -5.94138,0 -6.70638,-1.41677 -3.40108,-6.6442 2.24522,-3.55125 3.18896,-3.73456 16.28954,-4.13016 9.41094,-0.28406 10.6015,-5.92603 1.25303,-5.92597 -6.36527,6e-5 -7.15238,-0.97931 -5.19117,-6.10541 1.15968,-3.03192 4.11129,-3.77116 13.42546,-3.77111 8.89086,6e-5 11.81441,-0.85564 11.81441,-3.23232 0,-2.40352 -1.86208,-2.92522 -7.69729,-1.9753 -5.97724,0.97302 -7.69724,0.60888 -7.69724,-1.9753 0,-5.1492 6.32175,-9.34201 13.42541,-8.79912 6.82837,0.52193 8.11529,-1.37595 3.75915,-5.7463 -2.0962,-2.10243 -1.55562,-3.83525 2.32709,-7.72171 3.83912,-3.8423 5.41293,-4.21942 6.80216,-1.9753 2.33355,3.77133 24.83982,2.68539 26.135,-1.25702 0.65085,-1.98096 -2.46623,-2.87321 -10.74042,-2.87315 -11.40333,0 -11.42221,0.0173 -7.51819,-4.30978 5.8232,-6.45511 48.51586,-26.5381 66.41114,-31.24585 13.39169,-3.52302 27.5382,-8.60421 44.21457,-15.62288 26.06231,-10.96933 27.9834,-11.49899 29.53597,-8.97861 1.93794,3.14537 15.75254,7.39077 15.75254,4.84845 0,-0.98208 -3.05611,-3.20772 -6.80228,-5.02801 l -6.9812,-3.23238 7.69724,-4.84845 c 4.1939,-2.60034 8.44854,-4.66901 9.30834,-4.66895 0.85916,0 8.29503,-4.45585 16.64756,-9.87652 16.67475,-10.82078 21.61662,-17.86243 22.55476,-32.50281 0.55369,-8.62805 0.0854,-9.76682 -4.47513,-10.41531 -2.8097,-0.39953 -5.64699,-2.1544 -6.26522,-3.77099 -1.2065,-3.15409 5.15797,-16.66638 11.99345,-25.31989 2.07766,-2.62996 3.26534,-3.9737 4.65417,-4.13022 z m -124.76732,1.07752 c -1.36343,0.46881 -1.32099,3.17389 1.25303,6.28508 1.46827,1.77479 3.67573,2.51305 4.83321,1.79569 1.17867,-0.73082 0.42551,-3.11033 -1.79003,-5.5668 -1.3931,-1.54425 -2.68395,-2.4168 -3.58012,-2.51397 -0.24653,-0.0289 -0.52135,-0.067 -0.71609,0 z m -14.85747,2.87314 c -1.01488,0 -0.58561,1.87058 0.71603,4.30978 2.33627,4.37912 6.62324,6.31499 6.62324,2.87321 -6e-5,-2.33188 -4.98892,-7.18304 -7.33927,-7.18299 z m -11.27736,4.6689 c -0.26962,0.0814 -0.51846,0.34006 -0.71603,0.53867 -0.6486,0.65079 -0.44341,2.1111 0.35796,3.41188 1.80077,2.92303 5.72822,3.19283 5.72822,0.35911 0,-1.96214 -2.59498,-4.07017 -4.47519,-4.30978 -0.3135,-0.0404 -0.62551,-0.0814 -0.89496,0 z m 343.69161,15.2637 c -2.58164,5e-5 -5.01144,13.14648 -3.04318,16.34127 0.95016,1.54171 2.1066,0.32274 3.04318,-3.05276 2.23223,-8.04521 2.20885,-13.28857 0,-13.28851 z m -591.077919,9.15834 c 2.508086,-0.40992 6.842634,4.36937 9.487323,10.77437 2.458607,5.95448 20.556713,22.26712 24.702812,22.26712 0.993108,6e-5 1.108405,-4.56814 0.35796,-10.05613 -1.669017,-12.21948 1.175898,-13.00734 10.203242,-2.69359 3.529716,4.03322 10.219002,9.3028 14.857592,11.67232 10.9221,5.57869 16.28954,10.81634 16.28954,16.1616 0,6.00553 -4.95145,7.47207 -27.745993,8.26039 -10.941217,0.37816 -24.310153,1.95654 -29.714943,3.59143 -9.334382,2.82355 -8.1336,3.13815 22.196746,3.41188 23.76963,0.21477 33.97963,1.14362 40.09734,3.77105 10.42269,4.47634 24.66309,4.55481 28.28293,0.17956 3.07026,-3.71159 8.77129,-4.5536 8.77129,-1.25702 0,1.17209 2.11664,4.09339 4.65423,6.46464 4.13195,3.86175 4.57259,6.79142 4.47513,27.83392 -0.06,12.92068 0.34988,23.52403 0.89507,23.52409 2.63753,0 7.66727,-17.29611 7.69718,-26.39729 0.0173,-5.64405 1.01453,-11.67071 2.14811,-13.46801 1.74788,-2.77246 2.93082,-2.53834 7.33921,1.61613 2.85745,2.69318 8.2799,5.50409 12.17243,6.28508 8.58232,1.72196 9.72635,8.59652 1.79009,10.59486 -2.88256,0.72574 -8.14451,5.1074 -11.63537,9.6969 -5.36016,7.04737 -6.47573,10.84515 -7.1603,24.42205 -0.69386,13.76281 -1.21389,15.98204 -4.65417,15.98204 -4.83396,0 -15.07023,12.08421 -21.83867,25.67906 -3.52793,7.08657 -6.67919,10.24585 -10.91939,11.13348 -3.25923,0.68214 -10.1182,2.08321 -15.21549,3.23238 -12.15805,2.74099 -11.74813,2.87032 -11.63543,-2.87315 0.24999,-12.77305 5.78769,-25.436 14.67849,-33.93945 5.5217,-5.28095 10.02519,-12.19171 11.45639,-17.41856 1.30436,-4.76387 5.00134,-11.33994 8.23429,-14.72508 6.31303,-6.60979 9.68611,-19.56176 8.05531,-30.70701 -0.83861,-5.73475 -2.34337,-7.24459 -9.3084,-9.33791 -16.49237,-4.95688 -37.59127,3.92088 -37.59127,15.80249 -6e-5,4.23547 -1.09219,6.6442 -3.04307,6.64425 -3.73034,-5e-5 -5.72822,-4.69354 -5.72822,-13.46806 6e-5,-8.41091 -3.58474,-9.66965 -18.974589,-6.46459 -10.124491,2.10845 -13.157278,3.77082 -16.110562,8.97856 -2.551677,4.49927 -5.477306,6.455 -9.487265,6.4647 -10.791741,0.0289 -13.408023,6.07943 -13.783535,31.78459 -0.186485,12.78396 -0.959159,24.12828 -1.79003,24.96066 -3.489878,3.49547 -6.247786,-2.3574 -6.265222,-13.10884 -0.01155,-6.33075 -1.382822,-21.85241 -3.043121,-34.65768 -1.6924,-13.0541 -2.274373,-28.26197 -1.432013,-34.47812 1.381033,-10.18869 10.007751,-27.54669 15.394527,-30.88668 1.390905,-0.86217 1.565498,-2.87777 0.35796,-5.20757 -3.255241,-6.28023 -9.999552,-37.91505 -8.41327,-39.5063 0.275399,-0.27598 0.53694,-0.48036 0.895073,-0.53867 z m 400.436389,15.80243 c -1.36042,0.19515 -2.89716,1.35609 -3.58006,3.41182 -0.48093,1.44818 0.7598,2.69359 2.68516,2.69365 1.92467,-6e-5 3.40103,-1.66036 3.40103,-3.59144 0,-1.95798 -1.14559,-2.70894 -2.50613,-2.51403 z m -3.75909,12.74972 c -2.40018,0.16744 -5.43355,1.5039 -7.16018,3.5915 -2.55393,3.08642 -2.16214,3.34594 3.40108,2.69353 3.48381,-0.40877 6.84026,-2.0671 7.33927,-3.59144 0.65894,-2.01312 -1.18028,-2.86079 -3.58017,-2.69359 z m -299.83512,6.6442 c 11.73907,6e-5 18.61241,13.41218 11.63543,22.80586 -4.09864,5.51847 -15.02029,6.94211 -20.94366,2.69359 -3.47088,-2.4899 -5.01219,-5.73556 -5.01219,-10.95398 0,-9.50522 4.84528,-14.54553 14.32042,-14.54547 z m 487.25449,7.18299 c 8.3568,-0.62002 11.45298,8.10854 5.72816,19.2143 -5.38955,10.45555 -8.66765,11.95101 -13.60438,6.28514 -6.46654,-7.42183 -4.20395,-21.92233 3.93808,-24.78116 1.39581,-0.49017 2.74417,-0.62972 3.93814,-0.71828 z m -227.51671,13.64762 c -0.82712,0.0629 -1.55164,0.1478 -2.14805,0.35912 -2.86518,1.01447 -2.86512,1.42964 0,3.23226 1.78922,1.12607 4.79961,1.63149 6.62324,1.07746 1.82352,-0.55426 4.79961,-0.0953 6.62318,1.07751 4.57548,2.94342 7.16203,2.69966 6.08624,-0.53867 -0.91695,-2.75941 -11.39294,-5.64843 -17.18461,-5.20751 z m -31.86311,14.90453 c -0.8292,0.0664 -1.79471,0.46073 -2.86403,0.89784 -3.69605,1.51134 -3.58623,1.66388 0.53694,3.23238 2.43142,0.92504 4.58172,0.77296 5.01214,-0.35911 0.9442,-2.48234 -0.1963,-3.96978 -2.68511,-3.77105 z m -18.61657,8.79911 c -0.87446,-0.001 -1.64252,0.21132 -2.14811,0.71835 -0.82382,0.82671 0.001,2.4567 1.79009,3.59143 4.27837,2.71449 6.62324,2.63672 6.62324,-0.17955 0,-2.14349 -3.64062,-4.12636 -6.26522,-4.13017 z m -16.82654,6.64426 c -0.8587,0.24826 -0.0837,1.71971 3.04306,4.13011 3.00554,2.31663 6.40864,3.56147 7.51826,2.8732 1.11014,-0.68815 -0.32217,-2.51773 -3.2221,-4.13016 -3.9214,-2.18067 -6.48104,-3.12118 -7.33922,-2.87315 z m -23.44978,6.46464 c -2.35965,0 -4.29621,0.93531 -4.29621,2.15486 0,1.2196 2.61721,2.33436 5.72822,2.33442 3.20796,0 4.89205,-1.07688 4.11712,-2.33442 -0.75143,-1.21949 -3.18965,-2.15486 -5.54913,-2.15486 z m -28.82004,8.97861 c -2.5201,0.15762 -4.2961,1.17076 -4.2961,2.87321 -6e-5,1.7566 4.65793,3.65789 11.63537,5.02812 16.28458,3.19739 16.77787,3.30126 18.25861,0.89785 0.7292,-1.18392 -1.44021,-2.68199 -4.83321,-3.41194 -3.39288,-0.72995 -8.48463,-2.27679 -11.27735,-3.41187 -3.62902,-1.47538 -6.96665,-2.13298 -9.48732,-1.97537 z m -24.16582,10.95404 c -1.21562,0 -2.14799,0.93531 -2.14799,2.15486 0,1.21966 0.93237,2.33442 2.14799,2.33448 1.21574,5e-5 2.32709,-1.11499 2.32709,-2.33448 -6e-5,-1.21943 -1.11135,-2.15492 -2.32709,-2.15486 z m 190.64147,35.55558 c -5.42424,1.34362 -1.09414,12.25175 6.80222,15.44331 5.95986,2.40896 12.53045,2.8067 12.53045,0.71823 0,-3.35853 -14.31932,-16.1616 -18.07963,-16.16154 -0.45034,0 -0.89138,-0.0895 -1.25304,0 z m 25.06083,5.38718 c -1.62052,0.24364 -1.83448,2.11017 0.17898,4.13016 2.11254,2.11924 5.19123,1.96555 5.19123,-0.35911 0,-1.08907 -1.39806,-2.70993 -3.2221,-3.41182 -0.84196,-0.32447 -1.60718,-0.44052 -2.14811,-0.35912 z m -75.00351,20.11221 c 0.8527,0.0404 1.85349,0.5225 3.22205,1.25707 3.57209,1.9178 3.88681,2.85317 1.79009,5.38724 -2.51583,3.04116 -10.74036,4.57484 -10.74036,1.9753 6e-5,-0.69005 0.88122,-3.19242 2.14811,-5.56685 1.1748,-2.20249 2.15924,-3.11818 3.58011,-3.05276 z m -218.02938,25.85856 c -1.34299,0.23614 -2.14811,1.14495 -2.14811,2.69365 0,2.05694 1.75978,3.59143 4.47525,3.59149 5.38684,0 4.65013,-5.20618 -0.89507,-6.28514 -0.54502,-0.10624 -0.98422,-0.0785 -1.43207,0 z m 342.61761,3.95072 c 6.12903,6e-5 6.70246,0.50288 4.2961,3.41188 -4.27237,5.16455 -1.47214,5.99825 7.69729,2.1548 6.37885,-2.67379 8.04665,-2.94364 7.33922,-0.71829 -0.50692,1.59292 -3.0672,4.00176 -5.72823,5.20768 -7.70168,3.48959 -4.08888,6.78819 6.44421,5.92591 8.6617,-0.7091 9.26636,-0.50114 6.62329,2.6936 -1.62104,1.95942 -4.23282,3.59143 -5.9072,3.59149 -6.25431,0 -2.83435,3.97797 4.65417,5.38718 4.2767,0.80495 12.03987,3.31956 17.18456,5.56679 7.12224,3.11114 8.52198,4.41706 5.72816,5.5668 -2.01779,0.83047 -6.80435,-0.0289 -10.56131,-1.9753 -3.75656,-1.94892 -6.80228,-2.75872 -6.80228,-1.79575 6e-5,0.96286 5.85114,4.34257 13.06744,7.5421 11.32481,5.02114 12.90059,6.42798 11.81441,10.5948 -1.56544,6.00623 -8.00029,10.34568 -18.61657,12.211 -6.41435,1.12711 -9.82052,3.62752 -15.75255,11.85188 -10.42217,14.44795 -14.01932,29.18839 -9.30834,39.14701 1.9525,4.12849 3.4964,9.92034 3.22216,12.74972 -0.27367,2.82933 1.04432,8.75437 3.04301,13.28846 1.99926,4.53425 3.75915,9.44373 3.75915,10.77447 -6e-5,1.33069 1.01516,1.71105 2.32709,0.89779 1.52375,-0.94496 1.84516,-5.45906 0.89507,-12.39055 -0.81852,-5.96633 -0.9643,-10.77448 -0.35796,-10.77442 0.60674,6e-5 3.68404,4.3596 6.80216,9.6969 6.54819,11.20969 15.3775,37.77054 20.22774,60.15724 4.32675,19.97162 7.48783,28.12762 10.56132,27.11558 1.35285,-0.44572 2.84878,-4.96779 3.2221,-10.05614 0.37412,-5.08851 1.49662,-9.3379 2.50606,-9.33784 1.97756,6e-5 15.59314,32.50651 15.57357,37.17171 -0.0346,7.55128 -25.59714,55.0891 -37.23332,69.13585 -5.56316,6.71614 -9.12688,8.88803 -13.4254,8.61956 -3.17909,-0.19861 -13.5452,3.8229 -23.27074,8.79906 -19.29825,9.87421 -36.19944,15.96085 -43.85649,15.98199 -2.69261,0.006 -7.79527,1.41059 -11.27742,3.23232 -10.79428,5.64745 -41.15539,3.2464 -59.07192,-4.84846 -12.398,-5.60195 -27.74022,-19.94154 -29.715,-27.8338 -2.19909,-8.78942 0.57781,-9.97975 6.9812,-3.05288 3.04571,3.29514 7.42264,5.92591 9.84534,5.92597 2.42269,6e-5 9.12295,2.32656 14.85747,5.20768 5.73411,2.88111 16.93468,6.4248 24.88191,7.90121 l 14.49939,2.69365 23.09176,-10.95403 c 20.68864,-9.86226 25.2285,-11.28515 42.42449,-12.39055 30.05119,-1.93189 38.66411,-7.95999 42.42442,-29.80929 2.20324,-12.80584 -11.24756,-35.91481 -20.94366,-35.91469 -2.09625,-6e-5 -6.51885,-3.07135 -9.66636,-6.82381 -9.50187,-11.32811 -6.47047,-14.8961 4.65418,-5.56668 6.80608,5.70784 16.28948,9.44067 16.28948,6.46464 0,-1.02452 -3.54138,-3.76361 -7.87621,-6.10553 -10.40682,-5.62211 -21.88867,-18.80525 -18.97465,-21.72845 1.45182,-1.45655 4.78113,-0.0612 10.02432,3.9506 9.62976,7.36867 10.55254,3.15242 1.074,-4.84839 -3.7128,-3.13382 -10.47622,-11.49542 -15.21544,-18.49613 -4.73927,-7.00072 -10.23303,-13.32893 -11.99338,-14.0068 -1.76094,-0.67764 -3.81834,-5.27246 -4.65418,-10.23563 l -1.43207,-8.97862 -13.06744,0 -12.8884,0 -9.12931,-12.03149 c -7.98377,-10.60705 -22.92467,-23.52414 -27.20893,-23.52409 -0.8598,-5e-5 -5.76547,-1.81364 -10.9194,-4.13022 -13.42644,-6.03532 -18.73475,-6.94742 -21.65974,-3.41193 -1.40938,1.70365 -3.87475,3.05276 -5.54919,3.05282 -4.61514,-6e-5 -3.81216,-10.36196 1.25309,-15.44326 6.21505,-6.23491 5.56859,-8.63105 -3.40114,-12.39061 -6.93282,-2.90605 -11.80719,-8.47164 -9.48732,-10.77448 0.45438,-0.45091 8.48036,0.89617 17.90065,2.87315 12.55313,2.63459 17.51082,4.61243 18.43759,7.5421 0.69548,2.19845 4.01966,5.36825 7.51825,7.18299 3.49796,1.81474 10.76074,6.25436 16.11057,9.87651 10.00636,6.7744 36.65838,22.26707 38.30725,22.26713 1.96277,0 9.65816,-14.58785 9.6663,-18.31646 0.006,-4.13986 -10.78602,-22.0867 -14.14144,-23.52414 -1.08017,-0.46304 -12.27923,-10.14909 -24.8819,-21.54878 -23.66519,-21.40705 -33.63409,-28.18126 -40.09729,-27.11564 -5.42828,0.89496 -9.30828,-2.12772 -9.30828,-7.36254 -6e-5,-3.7587 1.07105,-4.32127 6.08618,-3.41188 19.05496,3.45535 51.21685,22.85412 68.73829,41.66105 3.76297,4.03911 7.55954,6.60326 8.41327,5.74635 0.85489,-0.85697 -3.57746,-11.50235 -9.84534,-23.70364 -6.26788,-12.20153 -11.45633,-23.19193 -11.45633,-24.60166 0,-3.90679 20.56468,-22.93016 29.35698,-27.11552 4.27883,-2.03714 10.94156,-3.77117 14.85753,-3.77105 z m -330.08717,4.84839 c -0.26905,0.0814 -0.51789,0.16051 -0.71598,0.35912 -0.64819,0.65079 -0.62262,2.29077 0.17898,3.59155 1.80083,2.92286 5.72823,3.01315 5.72823,0.17956 0,-1.96214 -2.416,-3.89045 -4.29616,-4.13023 -0.3135,-0.0404 -0.62567,-0.0814 -0.89501,0 z m 304.13127,13.46807 c -3.01587,0.13568 -9.48732,6.54605 -9.48732,10.23563 -6e-5,2.55382 1.71919,1.86653 6.08618,-2.51403 3.27874,-3.28919 5.13586,-6.52001 4.29616,-7.36248 -0.26847,-0.26905 -0.4642,-0.37875 -0.89502,-0.35912 z m 7.87621,6.10553 c -3.64437,0 -12.8884,9.00211 -12.8884,12.5701 0,4.55885 3.00294,3.55732 9.48727,-3.23232 6.47041,-6.77479 7.45422,-9.3379 3.40113,-9.33778 z m 7.51826,6.64419 c -2.73227,0 -13.78342,12.06955 -13.78342,15.08426 0,4.27433 3.13296,3.06148 9.48732,-3.59155 5.79226,-6.06505 7.90734,-11.49276 4.2961,-11.49271 z m 117.60697,5.74636 c 4.2103,0.082 6.91752,1.53553 7.33928,4.48933 0.6699,4.69667 -2.89428,6.6565 -35.44317,20.11221 -14.92687,6.17059 -19.33272,6.54131 -19.33272,1.61619 0,-11.14779 32.39883,-26.51074 47.43661,-26.21773 z m -112.23676,3.9506 c -0.24711,0.0115 -0.44284,0.12356 -0.71604,0.17956 -3.8218,0.78647 -11.81441,8.70587 -11.81441,12.39055 0,3.1142 6.45644,-0.34583 11.81441,-6.28502 2.87159,-3.18307 3.29704,-4.94915 1.43201,-6.10553 -0.16974,-0.10565 -0.46881,-0.19168 -0.71597,-0.17956 z m 5.54918,6.46464 c -3.43589,0.5687 -11.45639,8.85495 -11.45639,12.57011 0,2.36456 2.31646,1.26782 7.16024,-3.59143 3.88871,-3.90096 6.40309,-7.94209 5.54919,-8.79906 -0.26847,-0.26905 -0.76217,-0.26097 -1.25304,-0.17956 z m 32.57909,0.53868 c -2.96957,-0.26963 -4.97218,2.54578 -3.2221,5.38718 1.44979,2.35335 7.87627,0.59282 7.87627,-2.15486 -6e-5,-0.95864 -1.43721,-2.18616 -3.2221,-2.87315 -0.45554,-0.17552 -1.0076,-0.32043 -1.43207,-0.35912 z m 91.47214,0.89784 c 1.60915,-0.22459 2.69255,0.006 3.40108,0.71834 1.38756,1.39189 2.68511,3.43706 2.68511,4.48928 -6e-5,2.19182 -24.2071,13.44532 -41.88737,19.57354 -12.8917,4.46849 -16.32736,4.99077 -18.61674,2.69365 -3.112,-3.12193 -1.02117,-4.65827 12.35152,-9.51752 7.59827,-2.76091 20.42761,-8.35196 28.46191,-12.39049 6.84032,-3.43832 10.92222,-5.19262 13.60449,-5.5668 z m -116.71201,4.13028 c -1.39801,-0.25981 -4.61156,1.57323 -8.95027,5.92585 -2.98429,2.99347 -5.37015,6.44669 -5.37015,7.72166 0,3.94899 3.29618,2.53158 9.48727,-3.95061 5.4549,-5.71211 6.63057,-9.36273 4.83315,-9.6969 z M 242.1952,458.9898 c -0.76407,-0.0231 -1.76272,0.0756 -2.86414,0.17956 -4.16128,0.39202 -8.0754,2.01392 -8.59231,3.59149 -0.69115,2.11161 0.91499,2.3552 5.54919,1.25707 8.5359,-2.02276 11.25593,-4.88707 5.90726,-5.02812 z m 415.29392,2.69365 4.65417,4.84845 c 2.58378,2.62765 8.37067,12.13391 12.88847,21.18972 8.81736,17.67317 15.64885,46.54229 24.16581,101.63861 6.70309,43.36858 7.11815,46.68906 4.47508,46.68912 -2.5156,-6e-5 -9.81191,-15.01521 -13.9624,-28.91127 -1.40401,-4.70082 -3.23452,-8.08932 -4.11718,-7.54216 -3.37717,2.09378 4.2416,29.6952 15.21555,54.94945 2.56149,5.89392 4.83315,13.95893 4.83315,17.77784 6e-5,6.05645 -0.46535,6.42359 -3.22216,3.59144 -4.81109,-4.9417 -19.84171,-41.24125 -24.34479,-58.72049 -5.81286,-22.56499 -8.52661,-23.32005 -7.33922,-2.15492 1.12544,20.05949 6.81839,36.43754 21.1227,60.33674 9.53068,15.92344 13.55992,27.29513 9.66636,27.29519 -3.48018,0 -25.61931,-34.87811 -31.32606,-49.38276 -5.06478,-12.87224 -10.01675,-15.82068 -6.62323,-3.95067 3.75644,13.13996 18.61576,43.79426 27.38791,56.38613 15.74804,22.60511 16.83999,24.40819 14.67849,26.57685 -2.72846,2.73666 -7.08275,-0.94559 -18.61663,-16.16154 -8.48549,-11.19543 -23.44983,-39.32201 -26.67188,-49.92149 -0.70258,-2.30873 -1.83021,-3.55166 -2.50606,-2.87315 -1.91168,1.91774 3.40778,33.82738 9.30823,56.0269 5.7945,21.80074 6.64188,32.92792 2.6851,31.60497 -1.37024,-0.45842 -4.41486,-6.27342 -6.80222,-12.92928 -2.38719,-6.65592 -8.55611,-23.21803 -13.78342,-36.63298 -5.22731,-13.4153 -10.14181,-27.37256 -10.91933,-31.0663 -0.77822,-3.69363 -3.50253,-7.89861 -6.08625,-9.51734 l -4.65417,-3.05277 1.25304,29.62961 c 0.78306,16.28851 3.0135,38.02262 4.8332,48.30531 1.82029,10.28274 2.9011,19.17718 2.32703,19.75309 -0.57389,0.57562 -3.63023,-4.52456 -6.62324,-11.31309 -5.54739,-12.58403 -10.47379,-42.33038 -13.42546,-80.26945 -1.56174,-20.07953 -4.4928,-29.58787 -16.6475,-55.66779 -3.63237,-7.79469 -6.44426,-16.30559 -6.44426,-19.0348 6e-5,-4.64332 0.40761,-4.45677 7.87633,2.69365 9.06378,8.67741 14.8073,20.28795 18.43759,37.71044 2.67737,12.85278 5.63204,19.4901 7.87627,17.23906 0.7635,-0.76604 -0.12124,-4.31608 -1.96906,-7.90122 -1.84858,-3.58514 -2.77656,-8.5441 -2.14805,-10.95403 0.62781,-2.40994 -0.88439,-10.46236 -3.40114,-17.95735 -2.51686,-7.49487 -4.65417,-17.56757 -4.65417,-22.26712 -6e-5,-9.04935 -5.79999,-28.77686 -9.48727,-32.50282 -1.45245,-1.46792 -1.66133,2.76703 -0.71609,12.57022 0.86586,8.97319 0.60744,15.34089 -0.71603,16.16155 -1.2016,0.74478 -5.78244,-6.01512 -10.2033,-14.90459 -7.68887,-15.45919 -17.3804,-28.37265 -21.30174,-28.37259 -1.0132,0 0.14319,3.79351 2.50613,8.43994 9.09201,17.87779 14.91111,55.67454 9.12924,59.25928 -2.22454,1.37913 -2.62015,-0.10219 -6.80221,-22.26707 -3.00664,-15.93753 -13.76402,-43.75061 -19.86967,-51.53762 -5.92833,-7.56063 -5.74179,-8.14665 4.11718,-12.03149 5.72095,-2.25446 11.48913,-7.4656 17.36354,-15.44332 10.24475,-13.91205 15.16554,-18.32743 18.07963,-16.52077 3.92895,2.43615 15.8198,25.66018 20.58569,40.22453 6.68525,20.42814 2.97211,23.14095 -9.30834,6.82375 -5.13597,-6.82404 -10.43384,-12.39066 -11.63537,-12.3906 -5.42217,5e-5 1.93287,11.30737 17.54263,27.4748 16.43094,17.01742 16.89536,17.42919 15.39447,10.05614 -0.85321,-4.19558 -3.06945,-17.14617 -5.01219,-28.73183 -2.32039,-13.83861 -5.87268,-25.55845 -10.38228,-34.2985 -3.77492,-7.31745 -7.32345,-13.93018 -7.69735,-14.72503 -0.37412,-0.79473 5.58602,-3.66626 13.24642,-6.28508 7.65936,-2.61894 19.42198,-7.56254 25.95596,-10.95398 l 11.81435,-6.10552 z m -251.86144,3.9506 c 3.03215,-0.16339 8.31471,0.62759 15.75254,2.87315 10.422,3.14653 18.97459,10.33153 18.97459,15.98204 -6e-5,4.25903 -3.55818,3.46552 -21.65969,-5.38712 -15.70122,-7.67876 -19.73849,-13.10866 -13.06744,-13.46807 z m 165.22256,3.05282 c 1.64235,0.052 2.80445,0.83503 4.65417,2.51392 2.24205,2.03552 4.11712,4.45499 4.11712,5.38724 6e-5,0.93225 -5.20104,7.31988 -11.45639,14.18635 -6.25529,6.86637 -14.25194,14.0023 -17.72161,15.80243 l -6.26522,3.23232 0,-10.4153 c 0,-12.63633 7.46964,-23.57963 19.33266,-28.55215 3.60639,-1.51129 5.69687,-2.20532 7.33927,-2.15481 z m -336.71035,4.13017 c -4.41543,0.16685 -10.3824,2.66016 -10.3824,5.02795 6e-5,2.26283 1.66365,2.84157 6.08619,1.7958 7.07542,-1.673 10.53568,-4.45689 7.87633,-6.10546 -0.85218,-0.52828 -2.10815,-0.77401 -3.58012,-0.71829 z m 349.77774,8.08077 c 0.66944,-0.13106 1.28132,0.12644 1.79009,0.53867 1.51936,1.23185 2.68516,3.15351 2.68516,4.30984 -6e-5,3.64005 -18.24389,23.81311 -25.59789,28.37259 -7.47807,4.63633 -14.14149,5.76893 -14.14149,2.33436 -6e-5,-1.14039 3.78231,-4.74175 8.41327,-8.08077 4.6305,-3.33913 12.39303,-11.23878 17.18461,-17.59817 4.81318,-6.38878 7.65665,-9.48294 9.66625,-9.87658 z m 60.14603,17.95735 c -1.75111,0.0958 -2.59861,0.77406 -2.14799,2.15491 0.55831,1.70961 3.78358,4.16747 7.33922,5.38719 9.52479,3.26673 12.12312,5.36362 10.7403,8.97867 -0.84017,2.19643 -3.13117,2.72003 -6.80216,1.79569 l -5.37021,-1.43652 6.4442,12.03144 c 3.51592,6.5513 8.56581,19.19104 11.27741,28.19298 3.62585,12.04165 5.52546,15.82656 7.33922,14.00674 1.81422,-1.81977 1.52173,-7.86964 -1.43201,-22.98542 -2.20827,-11.30021 -3.8871,-24.39785 -3.7591,-28.91132 0.18937,-6.65823 -1.08358,-9.0483 -6.26522,-12.74967 -5.70236,-4.07329 -13.50981,-6.67508 -17.36366,-6.46469 z m -418.15806,1.97536 c -1.21568,0 -2.14811,0.9352 -2.14811,2.1548 6e-5,1.2196 0.93243,2.33442 2.14811,2.33453 1.21568,0 2.14811,-1.11504 2.14811,-2.33453 0,-1.21949 -0.93243,-2.15486 -2.14811,-2.1548 z m 308.42742,42.19977 c -1.18969,-0.12471 -2.36195,2.49187 -2.50612,7.72166 -0.10046,3.6587 0.2396,7.34563 0.71603,8.26039 2.56311,4.91802 5.24845,0.51673 4.65423,-7.72172 -0.38163,-5.28493 -1.67461,-8.13556 -2.86414,-8.26033 z m -410.8189,3.41188 c -0.41108,8.7e-4 -0.69358,2.61259 -1.074,8.08077 -0.84686,12.17976 7.38067,30.26216 20.58564,45.61171 7.62131,8.85847 12.17243,11.62325 12.17243,7.54205 0,-2.10342 -8.05901,-12.90336 -14.85747,-20.11227 -4.42254,-4.68956 -11.14999,-20.84926 -15.39453,-36.81248 -0.72539,-2.72869 -1.11204,-4.31047 -1.43207,-4.30978 z m 397.39344,8.43994 c -0.53058,0.0462 -1.18496,0.12587 -1.79008,0.35912 -4.52698,1.74269 -4.56671,2.82511 -0.35796,12.92928 4.3219,10.37656 7.7403,10.35491 7.69723,-0.17956 -0.0346,-8.97284 -1.83737,-13.41403 -5.54913,-13.10884 z m -358.72812,13.82713 c -2.70126,-0.14723 -13.60443,9.52294 -13.60443,12.39061 0,3.4516 3.55575,1.72138 9.48732,-4.48934 3.28347,-3.43832 5.31969,-6.87445 4.47513,-7.72171 -0.10161,-0.1022 -0.17782,-0.16975 -0.35796,-0.17956 z m 465.59474,11.85188 c -0.2396,0.0629 -0.34122,0.16223 -0.53694,0.35911 -1.04755,1.05067 12.82749,34.59966 17.18467,41.48149 3.74992,5.92256 3.38053,0.81124 -1.07405,-15.26364 -3.85933,-13.9262 -11.98634,-27.52446 -15.57351,-26.57696 z m 20.04864,0.17956 c -2.44227,0 -2.41513,1.44575 0.35796,6.64419 3.40062,6.37377 6.89737,5.25734 3.93814,-1.25696 -1.38444,-3.04895 -3.27522,-5.38723 -4.29616,-5.38723 z m -351.03083,4.84839 c -5.02281,-0.32332 -22.19674,6.17273 -22.19674,8.61956 0,0.98473 4.14125,4.25603 9.30834,7.36254 10.92049,6.56602 10.78747,6.49478 15.39447,2.87321 4.19506,-3.29757 2.89151,-16.87337 -1.79003,-18.6757 -0.21882,-0.0837 -0.38163,-0.15819 -0.71604,-0.17955 z m 32.93705,1.7958 c -1.21556,6e-5 -2.14799,2.44585 -2.14799,5.5668 0,3.21829 0.8942,5.0869 2.14799,4.30966 1.21579,-0.75368 2.32714,-3.37914 2.32714,-5.74629 0,-2.36716 -1.11141,-4.13022 -2.32714,-4.13017 z m 138.01374,5.5668 c 1.07273,-0.0866 2.19072,-0.0404 3.22205,0 1.10038,0.0404 2.19088,0.15704 3.22216,0.35911 17.65862,3.46298 24.2027,13.95611 24.70281,39.50619 0.1911,9.75648 1.17618,19.88213 2.1481,22.62624 1.4524,4.10228 0.95322,5.02807 -2.6851,5.02812 -2.43309,6e-5 -6.1893,-2.61449 -8.23429,-5.74641 -3.19433,-4.89008 -3.40091,-7.60503 -1.43207,-20.29182 1.45297,-9.36244 1.51382,-15.72033 0.17898,-17.05944 -1.15858,-1.16216 -2.36075,-1.60597 -2.6851,-1.07746 -0.32448,0.52828 -2.60416,4.99833 -5.19117,9.87651 -5.6851,10.72321 -14.86775,16.86967 -18.97465,12.74978 -2.16144,-2.16819 -1.27728,-4.33916 4.11712,-10.05613 14.71192,-15.59233 15.08824,-21.54895 1.25303,-21.54889 -7.54614,-6e-5 -12.90001,1.49072 -18.61663,5.38723 -4.39043,2.99278 -8.55408,4.8872 -9.30828,4.13017 -7.53922,-7.563 12.19211,-22.58132 28.28299,-23.8832 z m 191.35745,12.03143 c -1.21568,6e-5 -2.1481,1.68998 -2.1481,3.59144 5e-5,1.90146 0.93237,2.72892 2.1481,1.9753 1.21568,-0.75379 2.32709,-2.26438 2.32709,-3.41182 -6e-5,-1.14755 -1.11147,-2.15497 -2.32709,-2.15492 z m -561.541957,2.33437 c 5.026047,-6e-5 6.560307,3.38537 5.191167,12.3906 -1.28097,8.42938 4.54095,12.12942 8.23429,5.20763 1.88062,-3.52562 3.14208,-3.84449 6.62318,-1.97531 4.05788,2.17865 4.18248,2.77315 1.07406,10.23569 -4.32462,10.38321 -4.22133,11.85182 1.07405,11.85188 6.56446,-6e-5 5.62066,7.28558 -2.14811,16.16155 -3.64709,4.16705 -6.62318,9.63743 -6.62318,12.03143 -6e-5,2.39389 -1.89413,5.88296 -4.11711,7.90139 -5.15168,4.67617 -6.42105,4.66052 -15.215551,-0.71835 -3.980052,-2.43464 -10.282744,-4.48945 -13.962456,-4.48939 -5.545203,0 -7.369298,-1.16891 -10.024379,-7.5421 -1.761451,-4.22935 -3.043063,-11.93323 -3.043063,-17.05944 0,-5.53649 -1.600369,-10.89532 -3.759098,-13.28846 -3.395712,-3.76366 -3.133246,-4.66629 2.327028,-12.57011 3.214537,-4.65342 5.728166,-10.70473 5.728166,-13.46806 -5.7e-5,-3.94189 1.110427,-4.86572 5.012247,-4.30978 3.808058,0.54271 5.240533,2.49775 6.086184,8.43994 0.92625,6.50436 1.99222,7.72166 6.62324,7.72172 4.789907,-6e-5 5.670431,-1.05275 6.265222,-8.26045 0.525392,-6.37509 1.508223,-8.26044 4.654113,-8.26038 z m -3.759098,24.42204 c -2.902708,0.0935 -2.370734,0.67574 1.61105,6.28508 4.638065,6.53473 6.246225,22.44669 2.327028,22.44674 -1.158404,6e-5 -4.649841,-1.21879 -7.876214,-2.69364 -5.407562,-2.47172 -5.771353,-3.49693 -4.833152,-13.2884 1.059562,-11.0639 -1.089814,-13.63804 -5.012189,-6.28514 -2.632102,4.93326 -2.9325,17.81901 -0.53694,21.36922 0.893053,1.32388 3.654829,3.46552 6.086185,4.84857 7.849829,4.46543 15.622117,3.32683 18.437647,-2.87326 5.77488,-12.71462 0.73832,-29.80923 -8.771287,-29.80917 -0.553683,0 -1.017357,-0.0115 -1.432013,0 z m 501.395865,8.97873 c -1.10032,-0.20438 -2.41011,1.76087 -3.40114,5.92585 -0.79819,3.35386 -4.21561,8.62337 -7.69724,11.67227 -5.22788,4.57738 -6.15055,6.7991 -5.19116,12.74978 0.63942,3.96354 1.86387,7.18287 2.6851,7.18293 3.40443,-6e-5 15.75254,-23.88777 15.75254,-30.52752 0,-4.34892 -1.04726,-6.79904 -2.1481,-7.00331 z m -63.36814,2.87315 c 0.79288,-0.13395 1.25309,0.2881 1.25309,1.25696 0,1.29137 -0.93243,2.33447 -2.14811,2.33453 -1.21562,0 -2.14804,-0.36027 -2.14804,-0.8979 0,-0.53752 0.93237,-1.7603 2.14804,-2.51398 0.30369,-0.18821 0.63111,-0.1351 0.89502,-0.17955 z M 119.397,680.40398 c 0.94958,-5e-5 2.84105,5.73712 4.29616,12.74967 3.58993,17.30263 9.0778,25.36856 25.06083,37.17171 18.1511,13.40438 25.20459,13.87389 14.32053,0.8979 -7.79983,-9.29864 -13.31917,-30.88668 -7.87633,-30.88668 1.23149,0 4.81479,5.36628 7.87633,11.85187 3.0609,6.48566 10.38239,16.61044 16.28954,22.44675 9.68795,9.57259 11.32308,10.38834 17.72155,8.97855 6.97474,-1.53668 7.16157,-1.72074 5.72817,-11.31309 -1.75758,-11.75488 0.53983,-12.45446 8.23435,-2.33436 8.24641,10.84572 18.13425,14.77659 37.23325,14.72497 23.58413,-0.0635 44.08698,-3.46649 58.53493,-9.87652 6.96937,-3.09173 13.42962,-4.89365 14.32048,-3.95066 0.89022,0.94288 1.91295,6.67503 2.32708,12.74966 0.64,9.38508 0.1328,11.1594 -3.40108,11.85194 -2.28725,0.44803 -6.43617,-0.43359 -9.30834,-1.97525 -4.31428,-2.3164 -7.67535,-2.15376 -18.61657,0.89785 -14.93611,4.16573 -32.10658,4.75729 -40.81343,1.43651 -3.8647,-1.47398 -7.22461,-1.45066 -9.6663,0 -3.27378,1.94459 -2.97581,2.34799 1.43201,3.5915 5.61656,1.58409 5.98618,3.15293 2.14805,7.00337 -3.88595,3.8987 -8.23637,3.26049 -18.61657,-2.69354 -7.77951,-4.46277 -12.98823,-5.46691 -32.22113,-6.10558 -21.59895,-0.71725 -23.48211,-1.11643 -35.6222,-8.44 -7.07543,-4.26833 -18.74873,-13.22506 -25.77687,-19.93259 -11.04035,-10.53678 -13.0257,-13.97002 -15.39453,-24.78116 -2.64197,-12.05794 -1.79216,-24.06287 1.79009,-24.06282 z m -64.442131,16.16155 c 1.299452,-0.0173 3.582889,1.40822 6.265164,4.30978 5.043481,5.45657 13.809919,8.89108 39.381307,15.26381 12.632,3.14814 25.69101,14.09305 21.65975,18.13685 -2.00966,2.01635 -3.51488,1.94874 -6.44415,-0.17956 -11.12747,-8.08551 -33.653251,-14.44455 -33.653251,-9.51735 0,3.08129 2.325988,3.89507 16.11062,5.7463 6.565391,0.88173 10.561321,2.46311 10.561321,4.30984 5e-5,2.79716 -5.2888,6.18664 -6.98126,4.48927 -0.43533,-0.43648 -5.241399,-1.18265 -10.561261,-1.79574 -7.375301,-0.8501 -11.825378,-3.23694 -18.437648,-9.69696 -8.027193,-7.84169 -9.991065,-10.65959 -17.363595,-24.42205 -2.251337,-4.20296 -2.207689,-6.6211 -0.53694,-6.64419 z m 73.392401,43.27723 c 5.16975,-0.14491 19.12528,5.99854 19.86972,9.87658 0.40299,2.09989 -0.71846,3.79911 -2.32709,3.7711 -4.87264,-0.0849 -19.51164,-9.52202 -19.51164,-12.57028 -6e-5,-0.82538 0.77573,-1.04408 1.96901,-1.0774 z"
     id="path9053" />
</svg>
