<?xml version="1.0" encoding="UTF-8" standalone="no"?>
<!-- Created with Inkscape (http://www.inkscape.org/) -->

<svg
   xmlns:dc="http://purl.org/dc/elements/1.1/"
   xmlns:cc="http://creativecommons.org/ns#"
   xmlns:rdf="http://www.w3.org/1999/02/22-rdf-syntax-ns#"
   xmlns:svg="http://www.w3.org/2000/svg"
   xmlns="http://www.w3.org/2000/svg"
   xmlns:sodipodi="http://sodipodi.sourceforge.net/DTD/sodipodi-0.dtd"
   xmlns:inkscape="http://www.inkscape.org/namespaces/inkscape"
   width="1000"
   height="1000"
   id="svg2"
   version="1.1"
   inkscape:version="0.47 r22583"
   sodipodi:docname="J.svg">
  <title
     id="title2815">Glyph tempate</title>
  <defs
     id="defs4">
    <inkscape:perspective
       sodipodi:type="inkscape:persp3d"
       inkscape:vp_x="0 : 526.18109 : 1"
       inkscape:vp_y="0 : 1000 : 0"
       inkscape:vp_z="744.09448 : 526.18109 : 1"
       inkscape:persp3d-origin="372.04724 : 350.78739 : 1"
       id="perspective10" />
    <inkscape:perspective
       id="perspective2830"
       inkscape:persp3d-origin="0.5 : 0.33333333 : 1"
       inkscape:vp_z="1 : 0.5 : 1"
       inkscape:vp_y="0 : 1000 : 0"
       inkscape:vp_x="0 : 0.5 : 1"
       sodipodi:type="inkscape:persp3d" />
  </defs>
  <sodipodi:namedview
     id="base"
     pagecolor="#ffffff"
     bordercolor="#666666"
     borderopacity="1.0"
     inkscape:pageopacity="0.0"
     inkscape:pageshadow="2"
     inkscape:zoom="8.5135656"
     inkscape:cx="99.106571"
     inkscape:cy="741.33649"
     inkscape:document-units="px"
     inkscape:current-layer="svg2"
     showgrid="true"
     showborder="true"
     inkscape:showpageshadow="false"
     showguides="true"
     inkscape:guide-bbox="true"
     inkscape:window-width="1280"
     inkscape:window-height="750"
     inkscape:window-x="0"
     inkscape:window-y="26"
     inkscape:window-maximized="1"
     borderlayer="true">
    <sodipodi:guide
       orientation="0,1"
       position="0,200"
       id="guide2818" />
    <inkscape:grid
       type="xygrid"
       id="grid2817"
       empspacing="5"
       visible="true"
       enabled="true"
       snapvisiblegridlinesonly="false"
       dotted="true" />
  </sodipodi:namedview>
  <metadata
     id="metadata7">
    <rdf:RDF>
      <cc:Work
         rdf:about="">
        <dc:format>image/svg+xml</dc:format>
        <dc:type
           rdf:resource="http://purl.org/dc/dcmitype/StillImage" />
        <dc:title>Glyph tempate</dc:title>
        <dc:date>2010-05-21</dc:date>
        <dc:creator>
          <cc:Agent>
            <dc:title>Glyphbanger</dc:title>
          </cc:Agent>
        </dc:creator>
        <cc:license
           rdf:resource="http://creativecommons.org/licenses/by-sa/3.0/" />
        <dc:rights>
          <cc:Agent>
            <dc:title>Copyright © 2010 Glyphbanger</dc:title>
          </cc:Agent>
        </dc:rights>
      </cc:Work>
      <cc:License
         rdf:about="http://creativecommons.org/licenses/by-sa/3.0/">
        <cc:permits
           rdf:resource="http://creativecommons.org/ns#Reproduction" />
        <cc:permits
           rdf:resource="http://creativecommons.org/ns#Distribution" />
        <cc:requires
           rdf:resource="http://creativecommons.org/ns#Notice" />
        <cc:requires
           rdf:resource="http://creativecommons.org/ns#Attribution" />
        <cc:permits
           rdf:resource="http://creativecommons.org/ns#DerivativeWorks" />
        <cc:requires
           rdf:resource="http://creativecommons.org/ns#ShareAlike" />
      </cc:License>
    </rdf:RDF>
  </metadata>
  <g
     inkscape:label="Layer 1"
     inkscape:groupmode="layer"
     id="layer1" />
  <g
     id="g14"
     transform="matrix(0.10613481,0,0,-0.10778188,12.471997,795.53025)"
     style="fill:#800000">
    <path
       d="m 965.52088,6033.5659 c -74.144,31.6 -169.367,164.11 -227.492,141.47 -94.422,-28.22 -38.148,-102.56 35.867,-174.06 194.907,-188.26 61.68,-376.6 252.70602,-575.7 19.78,-47.91 59.33,-128.8 124.57,-108.4 102.85,156.22 -36.42,383.96 -30.43,577.21 1.56,23.49 -4.59,64.45 21.17,63.49 69.52,-7.73 95.3,-367.5 78.88,-516.82 87.3,-34.63 201.31,87.02 206.43,151.04 0,25.46 -18.9,44.19 -67.29,45.95 49.8,129.6 154.59,256.66 127.78,399.44 -71.85,-63.75 -131.05,-120.03 -165.52,-120.03 -20.93,0 -32.75,20.75 -32.75,73.18 l 17.59,186.08 c -3.37,196.51 -105.44,302.84 -140.68,57.09 -11.27,-39.33 -22.7,-55.28 -34.66,-55.28 -47.5,0 -103.3,251.55 -189.85402,288.89 -44.285,104.6 -132.059,162.31 -177.906,162.31 -17.922,0 -29.438,-8.83 -29.438,-27.11 45.426,-103.42 240.313,-385.31 248.352,-542.34 0,-16.64 -5.176,-26.41 -17.325,-26.41 z m 232.99102,-1083.61 c 90.7,1.31 168.15,61.35 159.04,124.73 0.5,199.08 -299.3,218.15 -299.51,10.09 0,-74.77 60.4,-134.82 140.47,-134.82 z m 2059.35,827.94 c -151.35,192.87 133.23,-43.95 0,0 z m -114.42,-47.68 c -191.82,168.05 75.63,47.86 0,0 z m -135.23,-18.28 c -103.04,135.04 79.61,11.45 0,0 z m -346.97,-669.3 c 89.27,-8.08 151.94,125.9 175.78,42.21 -16.97,-93.73 -54.12,-257.82 118.68,-221.73 228.57,0.44 -15.5,337.63 264.15,291.45 57.16,83.24 74.87,159.51 -42.45,161.19 -77.46,7.24 -234.43,-55.69 -226.77,31.32 136.1,83.39 -26.43,194.37 -59.13,231.05 0,13.03 26.65,23.11 105.76,32.56 187.23,-52.72 362.52,242.66 462.32,53.16 61.87,-245.94 11.44,-513.77 87.47,-751.47 175.73,8.83 321.42,136.23 476.43,207.88 247.79,114.54 58.31,472.84 247.44,655.54 154.53,149.28 351.3,283.56 562.08,345.13 155.71,-258.01 543.37,-161.49 546.82,162.77 0,145.08 -104.65,285.06 -247.24,285.06 -219.46,0 -354.93,-181.4 -544.38,-254.42 -94.88,21.22 39.48,281.3 -171.63,340.26 -171.94,-151.42 -210,-556.93 -508.19,-556.93 -159.34,0 -298.85,211.15 -341.53,361.58 -0.66,257.96 -254.25,266.45 -370.08,102.36 30.93,-94.21 42.73,-217.48 -51.05,-220.21 -162.33,4.87 -353.32,223.95 -571.35,223.95 -211.67,0 -479.22,-136.05 -479.22,-364.04 0,-159.93 162.73,-325.91 336.62,-254.73 105.74,112.03 174.42,272.43 312.96,272.43 143.86,0 454.28,-173.39 508.8,-269.04 2.52,-13.95 -26.14,-18.93 -54.03,-17.27 -358.61,3.56 -759.84,-223.02 -759.84,-627.56 0,-135.77 78.95,-262.5 221.58,-262.5 z m 3206.3,-726.03 c 137.97,48.27 120.59,249.98 7.02,273.22 -31.98,0 -65.14,-27.91 -86.46,-100.5 -33.43,-82.3 19.12,-144.39 79.44,-172.72 z m -5505.58302,908.35 c -6.266,-152.66 -149.813,-284.55 -149.813,-507.63 0,-211.8 61.457,-423.8 61.661,-636.78 206.679,49.13 -81.262,566.15 252.41,521.65 67.105,205.57 392.269,216.59 398.679,-39.52 14.481,117.37 189.10602,211.91 327.15602,211.91 129.92,0 204.53,-108.13 153.97,-242.24 -113.74,-154.82 -154.72,-382.18 -341.27,-482.43 20.83,-57.02 -62.69,-184.25 -62.69,-254 -5.82002,-48.13 52.61,-51.02 106.28,-46.17 199.5,0 266.28,126.88 360.81,288.03 250.67,95.92 81.62,405.51 309.28,547.68 52.89,8.74 73.76,27.34 73.76,49.52 0,56.36 -134.69,135.88 -221.41,135.88 -41.17,0 -71.52,-17.92 -71.52,-64.75 40.22,-77.47 -28.72,-365.83 -66.59,-236.76 l 25.4,193.81 c 3.26,162.52 -84.12,367.75 -222.72,240.65 -181.49,6.76 -361.79202,57.06 -547.03002,68.84 122.5,9.07 227.922,22.95 183.828,41.64 56.59,32.1 79.37202,63.88 79.37202,95.2 0,116.53 -315.34802,226.71 -378.85202,323.42 1.078,-60.28 13.39,-172.01 -26.856,-173.38 -75.851,-1.34 -250.125,269.38 -304.199,269.23 -66.238,-72.7 77.129,-235.31 60.344,-303.8 z m 5561.02302,-352.99 c -0.11,135.84 20.49,205.86 33.77,110.53 0,-31.75 -8.44,-75.36 -33.77,-110.53 z m -1387.71,-626.08 c 159.74,-169.12 436.74,-217.98 705.75,-195.11 5.82,-140.4 107.6,-502.34 107.6,-172.36 0,243.53 348.18,366.74 429.51,112.26 28.8,-103.74 -110.9,-286.2 -77.75,-338.73 14.73,0 49.9,24.41 118.12,85.38 27.06,-2.62 37.72,-16.77 37.72,-38.5 0,-80.41 -146.01,-264.63 -147.11,-352.41 136.69,5.51 235.89,307.67 206.9,-5.51 -18.95,-204.66 250.63,-284.13 310.66,-408.9 -13.24,246.84 306.57,337.29 216.51,419.51 -115.12,-26.1 -295.17,114.28 -158.47,151.91 24.45,0 58.78,-6.98 104.76,-23.92 79.27,122.45 -350.99,99.73 -268.44,336.08 56.19,21.04 77.92,40.43 77.92,60.12 -0.91,73.31 -318.14,160.89 -241.48,345.69 -29.97,46.09 -49.85,65.5 -62.03,65.5 -59.52,-115.43 101.2,-544.77 99.64,-551.92 2.2,0 -1.93,24.31 -15.74,83.16 37.67,-100.67 70.74,-163.55 56.08,-203.48 -9.97,0 -25.85,44.93 -81.84,135.55 -105.15,170.19 -91.53,409.51 -207.15,555.48 -160.33,202.42 -450.21,-69.91 -652.79,-44.85 0,23.88 277.74,135.93 372.9,139.85 228.74,0.11 265.37,306.16 469.28,314.11 68.77,136.38 281.12,231.42 423.49,313.46 -206.68,73.35 -375.3,1.7 -149.9,169.85 75.65,56.43 88.17,193.61 4.44,220.92 -31.02,0 -69.69,-33.96 -101.03,-122.58 -2.3,199.04 -71.71,438.95 -204.37,613.34 -78.72,-136.72 66.26,-453.24 -25.29,-603.66 -50.25,-0.28 -47.52,323.83 -189.06,280.79 -1.92,-89.78 56.55,-316.84 56.55,-440.23 0,-49.94 -9.58,-82.91 -36.62,-82.91 -51.72,9.06 -229.99,203.12 -324.98,169.27 -36.6,0 -61.08,-10.25 -61.08,-27.93 0,-23 41.45,-58.58 151.6,-100.5 72.82,-81.12 170.89,-269.24 170.89,-409.12 3.9,-103.27 -60.09,-170.32 -199.59,-170.32 -120.58,0 -275.82,181.49 -321.88,130.26 0,-18.28 14.59,-56.43 49.13,-123.97 205.42,-75.93 -42.85,-173.1 -57.57,-56.2 -83.7,39.95 -201.29,114.07 -260.75,58.24 -18.52,-21.59 129.9,-131.86 122.24,-182.35 0,-119.29 -446.77,-35.13 -446.77,-105.27 z m -208.39,-1513.04 c 36.67,145.49 -196.55,214.85 -287.79,143.38 0,-20.2 40.08,-50.03 149.95,-86.13 58.65,9.31 84.01,-90.09 137.84,-57.25 z m 8.75,-923.61 c 46.67,-75.39 212.72,63.72 234.46,40.09 99.94,-39.19 -26.78,-187.63 -37.76,-266.06 111.33,-32.2 187.71,177.11 210.24,176.56 l -8.83,-146.18 c -33.14,-66.33 9.42,-220.44 104.62,-191.69 14.31,249.69 9.7,558.53 -235.09,558.53 -117.97,0 -267.64,-118.91 -267.64,-171.25 z m -3606.70002,-596.86 c -176.891,-5.03 -124.293,244.89 -62.364,282.14 23.012,-36.54 1.176,-71.6 -17.601,-152.01 65.898,-66.93 106.355,-92.63 129.957,-92.63 76.429,32.77 -19.41,242.6 -11.2,274.9 0,6.18 1.907,7.88 6.543,3.62 141.707,-23.88 119.598,-371.84 -45.335,-316.02 z m 123.613,-174.322 c 34.832,123.762 328.73702,320.142 102.461,407.902 64.05602,69.66 75.28602,160.3 -24.766,170.36 -27.226,0 -58.281,-9.55 -86.57,-29.55 22.418,77.07 -26.481,178.08 -71.531,172.73 -40.172,6.61 -51.317,-89.04 -36.645,-143.83 -131.566,-83.22 -154.371,328.47 -231.559,60.56 -139.996,-121.16 -37.804,-250.53 -25.5,-433.53 10.84,-161.169 251.352,-150.599 374.11,-204.642 z m 3473.93702,-14.043 c -73.35,51.016 -7.2,247.545 37.26,201.565 0,-15.17 -9.85,-45.07 -36.86,-94.25 23.73,-67.295 46.63,-92.08 66.66,-92.08 49.69,0 81.68,152.65 64.77,186.93 67.89,-102.8 -5.48,-230.58999 -131.83,-202.165 z m -139.92,104.545 c -6.74,-45.939 46.95,-239.54099 163.06,-229.54499 256.34,5.399 327.6,371.70499 170.53,517.60499 -38.66,0 -83.34,-99.11 -114.07,-99.11 -16.35,0 -28.75,28.03 -34.21,113.92 -106.4,-67.05 -33.27,-177.95 -179.57,-118.54 7.52,-77.37 -5.74,-130.57 -5.74,-184.33 z m 207.35,4347.35 c -11.12,53.11 51.28,-26.47 0,0 z m -0.66,-126.12 c -18.35,104.22 155.87,11.68 0,0 z m -69.3,-126.59 c 10.79,126.96 222.71,7.22 0,0 z m -300.47,-239.12 c -120.38,86.19 169.15,7.79 0,0 z m 116.02,-16.4 c -135.55,67.12 138.5,14.91 0,0 z m -193,-89.14 c -257.75,60.51 -53.37,112.93 0,0 z m -215.86,-35.29 c -170.45,21.82 85.11,71.78 0,0 z m -177.88,-80.48 c -152.26,99.09 155.72,15.25 0,0 z m -130.23,-57.04 c -163.75,90.88 76.84,-4.57 0,0 z m -251.59,-57.31 c -179.31,45.98 154.92,23.49 0,0 z m -108.19,-130.53 c -132.82,11.85 -243.89,52.17 -155.07,76.79 22.97,0 57.94,-6.43 105.53,-23.01 64.15,14.45 175.17,-64.98 49.54,-53.78 z m -413.24,-46.06 c -36.54,72.61 93.6,-10.58 0,0 z m -189.93,-140.72 c 238.66,-8.25 92.19,75.08 0,43.18 l 0,-44.46 0,1.28 z m -514,-676.22 c -136.53,50.25 147.86,42.51 0,0 z m 102.99,-76.17 c -47.44,110.66 107.29,-16.05 0,0 z m -196.42,-29.77 c 5.08,53.69 71.69,-11.11 0,0 z m 335.9,-215.78 c -124.67,8.51 -229.29,42.85 -146.33,64.4 26.09,0 68.82,-8.38 129.3,-31.2 12.52,-6.42 80.01,-37.49 17.03,-33.2 z m 246.68,-246.08 0,-1.62 c 26.61,89.18 188.81,29.83 0,1.62 z m -109.61,-141.46 c 15.94,67.98 114.12,71.27 136.37,27.44 0,-14.3 -25.88,-28.46 -99.54,-28.46 -11.15,0 -23.41,0.32 -36.83,1.02 z m 25.97,-100.55 c 7.02,36.32 90.69,-8.37 0,0 z m -15.96,-135.99 c -8.61,112.45 80.85,-12.73 0,0 z m -708.92,-722.11 c 31.61,89.36 90.57,152.82 122.32,125.85 0,-16.68 -30.89,-58.25 -122.32,-125.85 z m 1681.08,-128.84 c -18.18,216.78 76.45,0.85 0,0 z m -248.36,-47.46 c -31.24,-92.36 -252.26,4.57 -224.75,48.71 1.99,86.99 234.91,161.73 231.7,4.71 0,-15.48 -2.17,-33.22 -6.95,-53.42 z m -1411.86,-54.56 c -163.84,145.34 -310.23,339.17 -268.28,596.2 26.84,-214.8 116.12,-408.19 275.33,-555.95 18.15,-0.86 48.33,-78.43 -7.05,-40.25 z m 758.51,-964.89399 c 265.22,5.582 435.84,197.387 684.62,197.387 141.65,0 272.28,-134.422 342.29,-136.137 50.78,28.336 13.27,81.286 -8.92,161.64499 8.36,303.529 404.72,247.489 496.37,487.119 114.71,299.91 283.85,193.91 265.5,283.77 -105.38,136.73 -75.98,339.68 -43.63,520.9 -194.11,150.83 -81.91,298.57 -180.94,479.11 73.32,163.23 213.02,299.39 152.39,532.91 5.74,169.17 -24.81,349.43 -1.61,515.49 -50.7,171.31 74.07,551.3 -145.62,561.67 -262.58,-77.83 -620.66,-115.45 -490.8,-442.33 l 3.32,-1253.61 c 0,-106.93 -1.11,-213.98 -4.1,-321.18 138.7,-246.99 -266.87,-142.51 -266.87,-416.26 0,-94.54 -20.85,-128.05 -29.54,-128.05 -23.87,0 -50.43,259.23 -173.95,259.23 -98.23,0 -251.86,-196.15 -367.99,-126.4 0,13.51 40.64,37.21 151.2,67.75 86.98,22.15 132.64,114.45 132.64,188.08 3.41,88.9 -73.81,123.38 -144.57,74.19 -41.15,-93.05 -112.08,-183.65 -185.81,-183.65 -100.71,-10.92 -176.74,227.1 -176.74,359.79 0,201.83 84.55,402.14 179.49,578.94 -64.87,79.33 100.54,156.56 102.59,181.75 0,7.82 -14.28,12.03 -52.84,12.03 l -125.64,-13.05 c -5.87,0 -8.54,0.88 -8.54,2.52 0,16 255.79,103.93 255.79,137.08 -9.28,24.78 -111.26,1.88 -141.02,11.78 0,20.08 271.87,121.85 271.87,154.45 -19.34,27.51 -191.85,-13.11 -215.93,10.12 0,14.87 384.85,44.8 384.85,192.57 -143.26,332.31 274.03,563.37 553.32,620.65 315.22,159.89 735.05,152.36 964.71,449.95 221.89,287.51 143.82,716.9 -61.76,981.61 -136.29,174.51 -221.38,-60.34 -281.44,-184.35 200.24,-104.82 88.84,-336.63 -76.83,-442.81 -452,-289.72 -996.66,-375.27 -1492.34,-621.57 -85.16,-31.82 -154.35,-101.52 -209.52,-170.03 -21.72,-7.52 -36.77,-21.44 -37.67,-44.46 -86.27,-109.47 -82.24,-157.83 -163.38,-108.26 -65.56,2.63 -161.92,-128.38 -54.29,-141.98 22.44,0 53.77,7.05 95.97,24.31 -58.07,-37.87 -465.86,-127.01 -139.31,-141.6 -4.47,-93.2 -317,21.14 -212.06,-157.36 l 42.02,-0.87 c 0,-21.93 -207.18,-125.06 -207.18,-250.53 -0.19,-115.12 207.34,-66.06 334.76,-80.41 -15.63,-1.56 -45.91,-10.71 -95.94,-10.71 -270.75,0 -94.65,-102.32 -94.65,-102.32 71.59,-52.72 202.36,-105.71 -27.78,-54.27 -208.23,46.54 -396.15,115.43 -615.93,130.45 3.04,-213.13 -338.32002,-62.71 -466.85502,-69.91 44.973,-36.79 62.523,-60.56 62.523,-75.96 -31.543,-60.13 -361.632,6.74 -158.898,-128.91 33.199,5.99 85.238,10.7 86.926,-14.19 -0.332,-45.08 -149.192,-154.31 -0.891,-154.02 236.84502,96.83 492.68502,308.29 764.43502,137.89 -35.79,-152.11 116.33,-385.67 113.47,-487.48 1.05,-26.66 -14.26,-38.47 -39.08,-32.28 -0.74,82.79 -101.04,214.86 -144.95,214.86 -79.45,-121.56 181.21,-357.22 140.31,-419.55 -10.51,0 -42.98,32.87 -109.19,118.35 -41.88,54.06 -68.4,75.82 -83.41,75.82 -53.59,-79.42 60.79,-286.25 108.29,-354.32 -7.75,-8.77 -15.21,-12.68 -22.4,-12.68 -69.1,-9.35 -99.29,340.88 -150.49,246.19 10.84,196.44 88.35,379.27 141.68,566.19 -123.77,5.72 -406.11,-304.23 -460.39,-295.7 12.82,-92.25 -370.14202,-183.37 -247.33702,-330.25 -225.133,-168.14 26.925,-155.68 38.316,-153.46 -4.984,-69.92 8.273,-96.94 31,-96.94 61.004,0 190.25102,194.62 218.20102,276.5 59.18,78.24 155.78,202.7 192.4,202.7 45.25,-82.12 -48.73,-272.18 -48.73,-396.86 0,-113.08 29.03,-221.34 113.71,-310.55 124.95,-257.28 409.62,-374.4 679.68,-400.54 273.17,-26.45 564.36,-13.89 805.35,-168.89 272.39,-181.7 119.76,253.31 320.06,309.86 58.27,148.98 279.53,3.75 362.35,-0.25 18.37,0 29.36,8.22 29.36,30.36 -19.61,97.72 -142.26,169.77 -119.59,268.69 1.65,95.4 49.29,176.87 136.65,153.24 -123.61,-178.04 84.57,-341.8 49.33,-542.83 -160.35,18.74 -472.81,179.96 -503.84,-72.59 -30.43,-247.73 -328.41,-372.9 -512.69,-506.274 -55.92,-40.47699 -102.59,-50.36699 -134.16,-50.36699 -118.24,0 -73.7,210.81099 -108.91,355.61099 -111.3,210.83 -410.41,53.58 -410.41,-148.41 0,-217.57599 237.47,-385.87699 449.62,-378.10399 z m 2320.76,2398.58399 c 35.68,126.39 175.67,89.52 0,0 z m 40.36,-72.78 c 32.41,88.36 74.07,137.61 108.53,90.99 0,-21.46 -27.7,-58.11 -108.53,-90.99 z m 52.69,-68.79 c 19.26,79.8 81.21,133.32 116.6,102.9 0,-16.11 -29.23,-50.7 -116.6,-102.9 z m 443.54,-51.77 c -56.53,110.47 121.84,-6.75 0,0 z m -393.49,0 c 97.8,195.35 174.27,61.08 0,0 z m 50.99,-50.84 c 58.12,146.51 206.13,126.36 0,0 z m 35.43,-64.47 c 44.61,84.57 81.53,131.43 114.46,97.42 0,-19.39 -29.94,-58.2 -114.46,-97.42 z m 386.11,-192.62 c -202.6,263.17 64.43,46.74 0,0 z m -99.65,-94.98 c -47.59,81.06 -74.63,164.58 -21.87,209.08 41.54,-6.94 42.03,-140.23 21.87,-209.08 z m -101.38,-29.92 c -46.34,42.32 -0.8,228.38 19.15,119.35 0,-24.87 -5.15,-63.47 -19.15,-119.35 z m -90.23,-111.14 c -53.99,55.21 -70.42,133.45 -12.41,159.71 45.42,-12.06 35.72,-100.43 12.41,-159.71 z m 631.05,-384.07 c 40.77,77.42 -9.05,316.95 -12.33,342.72 0,0 14.02,-25.51 61.73,-149.78 8.02,-63.24 2.81,-161.37 -49.4,-192.94 z M 3925.5319,915.72591 c 76.53,-234.652 409.58,-335.695 685.95,-304.703 187.5,78.317 409.05,102.274 581.11,230.707 312.62,83.598 167.65,459.77599 355.01,597.77599 113.36,177.09 270.15,390.53 270.15,634.79 0,263.31 -102.49,589.81 -345.63,752.33 -132.34,97.48 116.21,284.09 -165.72,293.97 -202.51,90.06 -353.94,461.61 -555.81,178.99 -231.91,-124.17 46.71,-317.81 71.96,-490.32 -140.25,89.85 -377.48,336.45 -600.94,376.48 -40.04,0 -61.94,-22.27 -61.94,-47.73 -3.06,-35.87 49.58,-77.56 136.26,-73.58 189.54,-111.78 354.76,-278.24 508.13,-427.1 93.13,-90.38 74.71,-219.02 -65.36,-222.72 -67.28,0 -148.14,32.88 -203.34,103.72 -164.87,78.65 -352.39,340.76 -545.69,209.87 194.77,-64.95 101.89,-109.96 79.73,-272.31 206.06,88.45 435.34,-62.31 540.34,-219.15 106.85,-159.63 333.11,-32.69 354.37,-264.56 154.82,-186.31 331.7,-326.03 269.76,-601.48 27.42,-258.72 -149.97,-474.05799 -381.32,-519.66299 -104.88,-62.793 -223.39,-94 -341.77,-94 -190.81,0 -413.9,152.023 -562.55,178.746 -14.34,0 -22.7,-5.793 -22.7,-20.063 z M 764.21288,539.22191 c 60.058,-12.882 110.277,-24.937 118.336,29.793 -1.098,94.453 -432.91,116.563 -114.469,97.188 83.355,-56.895 191.656,-111.797 248.00202,-46.235 0,23.934 -34.27502,62.356 -123.61902,113.551 -191.063,51.942 -389.262,87.965 -536.336,223.438 38.422,-190.113 197.992,-417.735 408.086,-417.735 z m 484.20902,-148.054 c 50.15,103.105 -131.7,175.734 -204.5,117.91 -8.09,-19.211 157.58,-127.434 204.5,-117.91 z m 79.53,488.566 c -81.12,-111.383 137.65,-292.508 80,-334.203 -17.5,0 -56.18,20.488 -125.88,70.32 -158.8,18.641 -294.75402,202.176 -336.36702,328.637 -0.981,-223.144 218.72702,-392.262 401.87702,-499.48 182.72,-175.754 500.06,0.21 697.35,-164.329 37.45,-16.445 76.29,-44.418 119.42,-29.058 122.54,103.433 -146.3,141.211 106.31,115.535 228.64,-23.238 494.82,14.098 665.63,52.234 11.98,143.364 -27.49,186.664 -92.8,186.664 -161.21,0 -389.29,-120.058 -621.62,-120.058 -171.7,0 -334.7,42.562 -422.94,216 -78.3,-27.871 -4.62,-214.977 -91.05,-214.977 -165.04,-3.797 -305.35,370.207 -379.93,392.715 z m 3378.2,6290.20199 1373.25,-21.22 c 294.831,9.5397 473.8487,-9.0163 473.8487,-9.0163 l 29.0913,-3037.4837 0,-123.51 6.07,-3057.04199 c 0,-240.238 0.34,-480.457 1.32,-720.6369 -249.69,-39.7344 -533.08,-17.1367 -805.12,-17.1367 -521.98,0 -1043.58,14.5547 -1565.26,14.5547 -900.3,0 -1800.52,-10.6524 -2701.34,-12.3047 -334.2,0.7383 -669.29902,19.457 -1003.56502,19.457 -144.699,0 -271.00625,-5.1255 -415.252252,-15.1177 18.843962,491.73386 0.600249,1016.76629 1.826252,1531.12629 l 6.926,2907.82 c 8.231,829.85 10.164,1664.25 18.035,2491.88 863.782,40.61 1735.66002,44.93 2603.63002,46.06 l 1976.54,2.57 z M 720.46288,66.284814 3844.4719,86.050414 c 674.37,0 1348.72,-5.6289 2023.07,-23.8359 l 535.96,-4.9297 c 107.3,0 213.09,6.6992 315.01,31.1211 13.7563,269.077646 11.92,528.323996 10.96,799.108996 l -11.19,3155.81099 -1.04,666.58 -13.2397,2550.4077 c 0,0 -383.8875,1.8401 -588.4103,11.3623 -353.7876,16.4717 -725.602,10.4037 -1088.702,7.1937 L 967.93488,7255.3259 c 0,0 -962.9600466,-4.2903 -962.9600466,-4.2903 0,0 -9.3086994,-503.4598 -9.4219794,-603.0698 l -9.42198,-3525.639 c 0,-287.01 0,-566.2658 0,-853.5758 0,-431.5 9.42198,-878.2636 9.42198,-1308.19761 0,-303.632 9.4219794,-890.68775 9.4219794,-890.68775 0,0 513.8191566,0.368124 715.4880466,-3.580826 z M -117.5109,-41.470329 c 0,0 0,7422.397929 0,7422.397929 0,0 6945.3839,0 6945.3839,0 0,0 0,-7422.397929 0,-7422.397929 0,0 -6945.3839,0 -6945.3839,0 z M 748.32188,4972.6459 c 76.36517,-3.9976 0,0 0,0"
       style="fill:#800000;fill-opacity:1;fill-rule:nonzero;stroke:none"
       id="path16"
       sodipodi:nodetypes="cccccccccccscccscscccccccccccccccccccccccssccsccscccsscsccsccccccscccsccccccssccccccscccccccccscccscccccccccccccssccccccccccsccsccsccccccccccccccccscccccccccccccccsccccscccccsccccccccccccccccccccccccccccccccccccccccccccccccscccccccccccccccccccsccccccccccccssscccccsccccscccccccccccccccccccccscscccccccccccsccccccccsccsccccccccccsscscccccccccccccccccccccccccccccccccccccsccccccccccccccccscccccccccccccccccccscssccccccccccsscscccccccccccccccscccccssccccccccc" />
  </g>
</svg>
