<?xml version="1.0" encoding="UTF-8" standalone="no"?>
<!-- Created with Inkscape (http://www.inkscape.org/) -->

<svg
   xmlns:dc="http://purl.org/dc/elements/1.1/"
   xmlns:cc="http://creativecommons.org/ns#"
   xmlns:rdf="http://www.w3.org/1999/02/22-rdf-syntax-ns#"
   xmlns:svg="http://www.w3.org/2000/svg"
   xmlns="http://www.w3.org/2000/svg"
   xmlns:sodipodi="http://sodipodi.sourceforge.net/DTD/sodipodi-0.dtd"
   xmlns:inkscape="http://www.inkscape.org/namespaces/inkscape"
   width="1000"
   height="1000"
   id="svg2"
   version="1.1"
   inkscape:version="0.47 r22583"
   sodipodi:docname="K.svg">
  <defs
     id="defs4">
    <inkscape:perspective
       sodipodi:type="inkscape:persp3d"
       inkscape:vp_x="0 : 526.18109 : 1"
       inkscape:vp_y="0 : 1000 : 0"
       inkscape:vp_z="744.09448 : 526.18109 : 1"
       inkscape:persp3d-origin="372.04724 : 350.78739 : 1"
       id="perspective10" />
    <inkscape:perspective
       id="perspective2940"
       inkscape:persp3d-origin="0.5 : 0.33333333 : 1"
       inkscape:vp_z="1 : 0.5 : 1"
       inkscape:vp_y="0 : 1000 : 0"
       inkscape:vp_x="0 : 0.5 : 1"
       sodipodi:type="inkscape:persp3d" />
    <inkscape:perspective
       id="perspective2953"
       inkscape:persp3d-origin="0.5 : 0.33333333 : 1"
       inkscape:vp_z="1 : 0.5 : 1"
       inkscape:vp_y="0 : 1000 : 0"
       inkscape:vp_x="0 : 0.5 : 1"
       sodipodi:type="inkscape:persp3d" />
    <inkscape:perspective
       id="perspective2966"
       inkscape:persp3d-origin="0.5 : 0.33333333 : 1"
       inkscape:vp_z="1 : 0.5 : 1"
       inkscape:vp_y="0 : 1000 : 0"
       inkscape:vp_x="0 : 0.5 : 1"
       sodipodi:type="inkscape:persp3d" />
    <inkscape:perspective
       id="perspective2979"
       inkscape:persp3d-origin="0.5 : 0.33333333 : 1"
       inkscape:vp_z="1 : 0.5 : 1"
       inkscape:vp_y="0 : 1000 : 0"
       inkscape:vp_x="0 : 0.5 : 1"
       sodipodi:type="inkscape:persp3d" />
    <inkscape:perspective
       id="perspective2992"
       inkscape:persp3d-origin="0.5 : 0.33333333 : 1"
       inkscape:vp_z="1 : 0.5 : 1"
       inkscape:vp_y="0 : 1000 : 0"
       inkscape:vp_x="0 : 0.5 : 1"
       sodipodi:type="inkscape:persp3d" />
    <inkscape:perspective
       id="perspective3005"
       inkscape:persp3d-origin="0.5 : 0.33333333 : 1"
       inkscape:vp_z="1 : 0.5 : 1"
       inkscape:vp_y="0 : 1000 : 0"
       inkscape:vp_x="0 : 0.5 : 1"
       sodipodi:type="inkscape:persp3d" />
    <inkscape:perspective
       id="perspective3018"
       inkscape:persp3d-origin="0.5 : 0.33333333 : 1"
       inkscape:vp_z="1 : 0.5 : 1"
       inkscape:vp_y="0 : 1000 : 0"
       inkscape:vp_x="0 : 0.5 : 1"
       sodipodi:type="inkscape:persp3d" />
    <inkscape:perspective
       id="perspective3031"
       inkscape:persp3d-origin="0.5 : 0.33333333 : 1"
       inkscape:vp_z="1 : 0.5 : 1"
       inkscape:vp_y="0 : 1000 : 0"
       inkscape:vp_x="0 : 0.5 : 1"
       sodipodi:type="inkscape:persp3d" />
    <inkscape:perspective
       id="perspective3044"
       inkscape:persp3d-origin="0.5 : 0.33333333 : 1"
       inkscape:vp_z="1 : 0.5 : 1"
       inkscape:vp_y="0 : 1000 : 0"
       inkscape:vp_x="0 : 0.5 : 1"
       sodipodi:type="inkscape:persp3d" />
  </defs>
  <sodipodi:namedview
     id="base"
     pagecolor="#ffffff"
     bordercolor="#666666"
     borderopacity="1.0"
     inkscape:pageopacity="0.0"
     inkscape:pageshadow="2"
     inkscape:zoom="1.5047232"
     inkscape:cx="97.932704"
     inkscape:cy="292.6529"
     inkscape:document-units="px"
     inkscape:current-layer="svg2"
     showgrid="false"
     showborder="true"
     inkscape:showpageshadow="false"
     showguides="true"
     inkscape:guide-bbox="true"
     inkscape:window-width="1280"
     inkscape:window-height="750"
     inkscape:window-x="0"
     inkscape:window-y="26"
     inkscape:window-maximized="1">
    <sodipodi:guide
       orientation="0,1"
       position="0,200"
       id="guide2818" />
  </sodipodi:namedview>
  <metadata
     id="metadata7">
    <rdf:RDF>
      <cc:Work
         rdf:about="">
        <dc:format>image/svg+xml</dc:format>
        <dc:type
           rdf:resource="http://purl.org/dc/dcmitype/StillImage" />
        <dc:title />
      </cc:Work>
    </rdf:RDF>
  </metadata>
  <g
     inkscape:label="Layer 1"
     inkscape:groupmode="layer"
     id="layer1" />
  <path
     style="fill:#800000"
     d="M 0,0 0,6.1041399 0,793.7163 0,800 l 6.1961125,0 724.5724775,0 6.37827,0 0,-6.2837 0,-787.6121601 L 737.14686,0 730.76859,0 6.1961125,0 0,0 z m 12.39211,12.208222 36.082876,0 c 33.076245,0.298492 89.500364,0.217085 154.901024,0 l 521.01426,0 c 0.06,0.193414 0.12528,0.301379 0.18244,0.538672 l 0,760.682206 c -0.3747,6.6121 -0.86083,11.07435 -1.45788,14.18312 l -699.788374,0 c -5.180719,-0.49017 -7.020632,-1.1722 -7.653875,-1.9749 -2.207747,-2.79826 -2.809466,-60.53743 -2.733543,-270.37698 0.03464,-91.70124 -0.202074,-169.44193 -0.546755,-218.13285 l 0,-150.98748 c 0.206115,-30.34951 0.290986,-62.380917 0,-86.355454 l 0,-47.576334 z m 594.8201,10.41288 c -99.58802,0.0025 -241.41461,0.772327 -293.94759,1.974899 -38.36667,0.87833 -118.21816,1.785816 -177.4984,1.974958 -59.279429,0.189372 -108.413465,0.880639 -109.159639,1.615727 -1.412671,1.393041 -1.231555,745.485594 0.182444,746.858194 0.442831,0.43013 35.188266,1.46648 77.268295,2.33402 42.08009,0.86742 76.69718,1.81999 76.90382,1.97478 0.20554,0.15473 44.229,-0.14722 97.86098,-0.53867 53.63105,-0.39087 173.18694,-0.66419 265.70092,-0.71811 l 168.20438,-0.17956 0,-45.42188 c 0,-25.45909 0.27308,-37.01005 1.27566,-42.72886 l 0,-15.79897 c -1.16851,-10.99318 -1.35909,-39.46825 -1.45794,-114.3627 -0.0883,-66.75588 -0.3135,-153.26289 -0.54675,-192.28006 -0.23325,-39.01705 0.29676,-132.13321 1.09345,-206.82224 0.82164,-76.977481 0.5687,-136.304253 -0.54675,-136.983857 -1.04155,-0.633993 -45.5795,-0.89923 -105.3327,-0.897729 z M 230.34707,42.549364 c 2.08633,-0.06524 5.22541,0.08025 10.20521,0.538672 7.90277,0.727121 17.46642,2.488745 21.13944,3.949741 l 6.56054,2.693013 -5.46709,1.615843 c -12.62502,3.781096 -34.58326,0.487287 -35.71834,-5.386084 -0.47169,-2.438169 -0.1963,-3.301949 3.28024,-3.411069 z m -88.93149,0.897729 c 4.23859,-0.0791 10.30433,1.247548 17.67698,3.949683 4.50117,1.649734 5.04544,2.282283 2.36906,3.949741 -5.45404,3.398483 -24.80552,2.79024 -26.2421,-0.897728 -1.73229,-4.447941 0.74635,-6.900139 6.19606,-7.001696 z m 521.3788,0.179557 c 4.30181,-0.143184 4.55654,0.759915 3.64466,3.590685 -0.73895,2.292964 -0.46477,4.110649 0.54676,4.129298 4.29234,0.0791 7.53402,3.925261 6.19605,7.36081 -2.1727,5.577939 -22.9327,4.116539 -28.0644,-1.974842 -1.47906,-1.755678 -4.96704,-3.231627 -7.83614,-3.231569 -2.86969,0 -5.83094,-0.812511 -6.56054,-1.9749 -1.52024,-2.423215 10.71177,-5.999176 26.42431,-7.540425 2.4343,-0.238447 4.21555,-0.311194 5.64936,-0.359114 z M 182.9656,44.703879 c 2.08084,-5.8e-5 14.39663,6.778836 14.39663,7.899482 5e-5,0.578278 -3.50443,0.897613 -7.83615,0.897671 -6.37538,0 -7.8362,-0.719673 -7.8362,-4.308856 -6e-5,-2.438573 0.59531,-4.488355 1.27572,-4.488297 z m 342.05793,0.897671 c 3.04595,-0.107388 3.28024,1.342523 3.28024,6.642696 0,5.670778 1.15979,7.761321 5.46714,9.694824 3.64253,1.635069 5.2362,3.710428 4.37369,5.924583 -1.23427,3.169446 -12.13917,4.916637 -14.76122,2.333898 -0.64041,-0.631106 -15.39153,-1.39893 -32.62037,-1.795226 -18.78724,-0.431862 -33.398,-1.803425 -36.4473,-3.411185 l -4.92033,-2.692955 4.37363,-6.283697 c 4.48356,-6.202926 12.46047,-9.156268 25.1487,-9.15621 3.48526,0 6.8894,1.114525 7.65394,2.333898 1.73737,2.769397 11.80517,2.853056 20.41047,0.179557 3.58826,-1.114814 10.00965,-2.547981 14.0322,-3.231569 1.75781,-0.29907 2.99375,-0.502876 4.00921,-0.538672 z m 79.45514,0 c 10.6351,-0.04619 18.22362,0.590056 18.22362,2.333956 -6e-5,4.912076 -6.20517,7.093206 -25.14864,8.797095 l -17.49466,1.615843 1.45788,6.463139 c 0.72175,3.558641 0.35392,6.391374 -0.72897,6.283639 -18.9911,-1.887257 -43.28468,-12.505502 -40.09202,-17.59419 2.51016,-4.001645 40.38515,-7.797521 63.78279,-7.899482 z m -164.01289,1.615785 c 2.06635,-0.234406 2.31987,0.883294 1.82236,4.308797 -0.57043,3.930054 -2.90144,5.900276 -9.65851,7.899425 l -9.11187,2.69307 8.3829,0.179558 c 11.28994,0.232674 15.30787,2.051283 15.30787,7.001811 0,2.924012 -1.57537,4.24679 -5.10266,4.129125 -8.58861,-0.285791 -20.75988,-5.569394 -21.50392,-9.33571 -0.38914,-1.96849 -2.76409,-4.418379 -5.28482,-5.206411 -5.84571,-1.827962 -3.18186,-4.010017 8.20063,-7.001811 4.95059,-1.301242 11.50374,-3.08342 14.39669,-3.949683 1.14784,-0.343526 1.86266,-0.640055 2.55133,-0.718171 z m -143.42015,5.026911 c 0.22978,-0.08718 0.54271,0.01155 0.91118,0 5.52505,-0.17898 25.51307,7.600412 25.51307,10.233381 -6e-5,0.936758 -4.13634,3.245079 -9.11181,5.206526 -11.90055,4.691007 -18.00261,4.719413 -18.04141,-0.179557 -0.0173,-2.133787 -0.53348,-6.068517 -1.27561,-8.797153 -0.90148,-3.312572 -0.27367,-5.601957 2.00458,-6.463197 z m -195.90435,1.615785 c 1.39108,-0.0612 3.10703,0.259232 5.64936,0.718171 4.6193,0.834336 45.34924,1.937429 90.38937,2.513456 45.04007,0.5762 82.79001,1.590555 84.01099,2.333899 4.68408,2.851843 -5.73497,5.395264 -31.34464,7.540425 -14.59396,1.222433 -33.37837,2.852478 -41.73223,3.590684 -13.11207,1.158635 -15.1256,0.793805 -15.1256,-2.333956 -5e-5,-4.827378 -4.68771,-4.521207 -22.05062,1.256728 -13.50034,4.492569 -14.74304,4.539162 -17.31244,1.077228 -3.65702,-4.926972 -13.22967,-4.696492 -30.43352,0.718171 -16.59455,5.222577 -15.1637,5.094462 -16.21904,1.974842 -0.52309,-1.546329 -9.471333,-2.839026 -23.326286,-3.411127 -25.57098,-1.055808 -36.566815,-3.497788 -44.101236,-9.515267 -7.038704,-5.621933 -3.87405,-7.976963 6.560481,-5.026969 4.649206,1.314521 17.7051,3.124239 28.975641,3.949683 18.168427,1.33063 20.548745,0.872614 21.868405,-2.513398 0.750041,-1.926805 1.872361,-2.770436 4.191365,-2.87257 z m 279.55085,2.513513 c 3.66915,0.08891 7.00724,0.916724 8.9296,2.333899 5.70681,4.208223 5.83688,16.573254 0.18245,20.646318 -5.28955,3.81083 -4.85919,3.934037 -16.21899,-1.795342 -9.59575,-4.839733 -12.01949,-10.092159 -7.65394,-16.876077 1.78767,-2.777999 8.64606,-4.456485 14.76112,-4.308798 z m 103.14597,0.718114 c -3.01096,0.02887 -5.27702,0.398375 -6.19605,0.897613 -1.23762,0.672099 3.21598,1.797825 10.02299,2.513572 6.80696,0.715746 13.65138,1.417059 15.12565,1.615784 1.47353,0.19861 3.31223,-0.505185 4.00916,-1.615784 1.03323,-1.647309 -13.92938,-3.495825 -22.96175,-3.411185 z m 131.57474,1.256786 c 1.30967,-0.02887 2.72333,-0.104501 4.3737,0 8.03902,0.509227 10.91748,1.744535 11.48087,4.667855 0.57389,2.976436 -0.77528,3.877975 -5.6493,3.770183 -8.19093,-0.181289 -16.40132,-3.563433 -16.40132,-6.642754 -6e-5,-1.118451 2.26704,-1.715956 6.19605,-1.795284 z m -76.53933,24.595944 c 3.52452,0.0612 4.60695,4.723049 4.37364,14.721793 -0.27136,11.606619 0.61494,14.426999 6.74275,22.800719 3.85806,5.2724 10.15371,11.38532 14.0322,13.64451 6.61978,3.85626 7.40053,3.99581 12.75665,0.53867 3.13787,-2.02531 6.18422,-5.47766 6.92491,-7.54037 0.74017,-2.06266 2.78597,-5.16403 4.37369,-7.00175 1.58877,-1.83784 3.2553,-8.27517 3.64473,-14.36268 0.61049,-9.536977 1.28657,-11.23873 5.64935,-11.849225 4.41428,-0.617596 5.10261,0.309462 5.10261,7.001815 0,8.84397 3.67342,10.99219 14.57895,8.97671 8.97371,-1.65851 25.91965,2.63908 29.70455,7.54036 3.06749,3.97243 3.71759,13.82453 1.64015,24.05745 -1.45753,7.1794 -11.31442,14.00351 -20.22831,14.00362 -3.03313,6e-5 -9.22411,-1.40274 -13.66772,-3.23163 -4.44309,-1.82888 -9.34639,-3.41124 -10.93411,-3.41118 -3.78826,0 -12.54049,15.11174 -20.0461,34.47038 -16.90362,43.59761 -41.38929,80.20744 -83.28209,124.7757 -3.79656,4.03911 -16.40333,15.27726 -28.06446,24.95506 -11.66065,9.67779 -22.83131,17.62398 -24.78416,17.59424 -5.6497,-0.086 -24.96637,-11.46972 -24.96637,-14.72167 0,-1.62393 1.30309,-3.05213 2.91576,-3.05207 4.24142,0 20.37103,-16.18066 35.17158,-35.36806 13.64514,-17.68974 36.26514,-52.81196 36.26514,-56.37348 6e-5,-1.17417 1.43438,-3.73526 3.2803,-5.74503 4.01752,-4.37369 11.47077,-24.883 15.85456,-43.26748 5.77713,-24.22568 -4.55671,-46.18826 -30.61579,-64.63202 -6.64523,-4.70371 -11.11638,-9.50401 -11.11638,-12.02867 0,-2.3242 -1.42382,-4.30885 -3.2803,-4.3088 -2.21485,6e-5 -3.46245,2.2951 -3.46245,6.4632 5e-5,3.4934 -2.10059,9.08404 -4.73818,12.38778 -10.95929,13.72563 -27.11269,11.89345 -31.34464,-3.59068 -3.45986,-12.65735 -1.95724,-17.63565 6.92496,-23.51883 8.19803,-5.429968 12.21509,-5.632561 45.01242,-1.43629 12.14644,1.55401 34.79203,-5.185453 46.28808,-13.824065 4.09512,-3.077127 7.17941,-4.704459 9.29408,-4.667912 z m -289.02715,3.949798 8.74739,0 c 10.81298,-5.7e-5 23.39354,4.962248 28.6111,11.310614 4.273,5.19803 6.45777,5.2866 35.35391,2.87251 17.03819,-1.42353 18.29475,-1.16141 23.6907,3.77018 12.14581,11.10068 12.66099,35.61493 0.91119,45.60144 -12.60019,10.70969 -29.58631,8.34416 -38.26967,-5.38597 -2.49677,-3.94749 -6.84974,-7.86103 -9.65851,-8.6176 -6.68686,-1.80134 -17.99701,2.96708 -22.23289,9.33571 -5.95056,8.94744 -9.9902,38.53531 -10.93417,80.61043 -1.2614,56.24514 2.02507,87.82136 5.46709,52.9623 0.87319,-8.84166 2.55317,-14.15113 4.73812,-15.2604 23.88302,-12.12393 28.01232,-13.69728 31.89145,-11.3105 2.20925,1.35939 7.49707,2.5134 11.84541,2.51346 6.40633,0 8.01836,0.89577 8.01836,4.48835 6e-5,2.43852 -0.89386,4.41475 -1.82236,4.48824 -15.27536,1.20881 -24.42089,2.57986 -27.69998,4.30886 -2.21715,1.1688 -5.88047,2.15434 -8.20063,2.1544 -2.32021,0 -6.16297,1.48467 -8.56517,3.23163 -3.39271,2.46657 -3.90811,3.83969 -1.82236,5.92452 2.5877,2.5862 9.28277,1.65418 31.52697,-3.94968 11.16517,-2.81276 24.72648,22.77214 14.76117,27.82768 -8.65893,4.39292 -27.17695,4.94868 -42.09666,1.25667 -8.1642,-2.02033 -15.31116,-3.22804 -15.85456,-2.69301 -0.54272,0.53521 -1.11447,5.82366 -1.27567,11.84922 -0.39722,14.81002 4.89401,26.1477 13.84993,29.80247 8.8979,3.63064 20.04604,18.53719 20.04604,26.75046 6e-5,3.40703 -2.19527,9.05783 -5.1026,12.38784 -4.43651,5.08089 -7.5197,6.17394 -19.1348,7.00181 -7.61312,0.54271 -13.84999,1.79973 -13.84999,2.87251 6e-5,4.24027 44.81658,2.88753 53.57747,-1.61578 3.27476,-1.68316 8.19526,-3.04451 10.93423,-3.05207 8.53833,-0.0231 63.5518,-23.32363 63.60059,-26.93002 0.0289,-2.19983 -19.7367,-9.85567 -38.81642,-15.08079 -10.49048,-2.87297 -27.05288,-5.25173 -41.54997,-5.92458 -31.7724,-1.47451 -32.89172,-1.66301 -35.9006,-9.51527 -4.22364,-11.0247 -1.69743,-15.28795 10.20532,-17.05563 20.85468,-3.09705 87.48614,6.30315 105.51485,14.90123 21.52788,10.26681 55.28535,29.04908 65.42295,36.44523 26.75051,19.51753 57.0782,55.1421 78.17959,91.92104 10.18073,17.74401 30.08878,65.80278 38.08734,91.92098 11.59311,37.85761 15.7384,53.6404 21.68619,81.68766 4.71231,22.2229 5.66968,24.47886 13.66777,31.59787 4.73616,4.21532 9.54974,7.54031 10.75191,7.54037 1.20211,5e-5 3.80673,-2.77362 5.6493,-6.2837 3.8233,-7.28443 7.38026,-9.15621 18.04146,-9.15615 5.51334,-6e-5 9.7562,2.05365 15.85457,7.71992 7.76051,7.21035 8.36419,8.38007 7.28945,17.77375 -1.84038,16.08735 -6.89108,19.53352 -42.27888,28.90486 -8.0452,2.13055 -18.41732,6.21424 -23.14407,9.15621 -12.94643,8.05785 -15.97846,6.35344 -17.31238,-9.51521 -0.61893,-7.36231 -2.79694,-15.84181 -4.92039,-19.03059 -6.38439,-9.58496 -26.25301,-10.83695 -33.89603,-2.1544 -4.20822,4.78038 -6.72052,20.2637 -3.82694,23.69839 1.4991,1.77952 1.01903,3.71983 -1.45788,5.74502 -3.09918,2.53395 -4.85613,2.19481 -12.20995,-1.97484 -7.3193,-4.15003 -12.19183,-5.02697 -30.98022,-5.02691 -23.22905,-6e-5 -25.98771,-0.86852 -32.80252,-10.95155 -5.83371,-8.6314 -4.75775,-16.6758 3.28024,-23.33928 9.29062,-7.70116 18.47131,-5.84843 28.42889,5.56553 3.98779,4.57034 9.24945,8.8934 11.6632,9.51526 6.44241,1.65973 20.06498,-8.85026 22.41504,-17.23519 2.10914,-7.52414 -0.57828,-59.15379 -4.00921,-77.73786 -1.1263,-6.09646 -3.52694,-19.43306 -5.46708,-29.80253 -3.25351,-17.39304 -12.03629,-47.87147 -20.2282,-70.19755 -10.01462,-27.29427 -45.17437,-82.80755 -65.24073,-103.05203 -13.13205,-13.24873 -28.27548,-24.58307 -31.34464,-23.51883 -1.66919,0.57874 0.71257,3.19716 5.6493,6.10414 4.69297,2.76345 8.28105,6.04715 7.83614,7.36081 -0.8565,2.53129 -38.52064,19.43064 -55.5821,24.95511 -5.5694,1.80343 -22.32469,4.67929 -37.17628,6.2837 -24.95707,2.69613 -28.42773,2.53049 -46.10586,-1.43628 -29.0522,-6.51886 -46.12094,-14.1266 -55.21763,-24.59606 -4.29575,-4.94447 -7.8362,-10.56063 -7.8362,-12.56728 6e-5,-4.16365 8.99703,-13.28557 13.12108,-13.28551 6.76042,6e-5 13.93613,7.35042 15.3078,15.79896 1.08358,6.6759 2.91056,9.60603 8.01848,12.20828 8.2351,4.19541 10.94122,2.10279 4.73812,-3.59068 -3.18111,-2.91963 -4.41203,-5.92031 -3.64473,-9.87438 1.25644,-6.4763 -6.98212,-20.42669 -13.30329,-22.4416 -6.50176,-2.07236 -21.56466,3.24941 -26.42431,9.33571 -5.8829,7.3682 -5.81263,13.19878 0.18245,21.72348 5.9576,8.47263 30.70903,27.82763 35.53606,27.82769 4.46145,0 27.14606,11.55431 27.15328,13.82407 0.003,0.91447 -2.54475,1.61566 -5.6493,1.61578 l -5.64936,0 1.45794,92.63915 c 1.43761,90.86795 1.52571,92.77247 6.74269,104.48838 5.77003,12.95717 16.31339,25.39217 32.25588,38.42007 11.11154,9.08 24.03828,11.32048 29.34013,5.02691 1.59217,-1.89003 6.43011,-3.41113 11.2986,-3.41107 11.47954,-6e-5 24.78422,11.74588 24.78422,21.90299 5e-5,9.10725 -10.6089,20.81675 -22.23289,24.596 -10.83071,3.52152 -30.00316,0.5023 -50.29729,-7.89943 -11.89709,-4.92535 -19.68156,-5.16611 -19.68156,-0.71811 6e-5,1.02602 -2.46941,4.36856 -5.28482,7.36087 -4.46959,4.75134 -6.40067,5.35854 -15.85456,4.3088 -5.95391,-0.66119 -11.29698,-2.54152 -11.84541,-3.94974 -0.54849,-1.40817 0.65991,-6.74766 2.55127,-12.02873 4.98829,-13.92839 4.42057,-29.49087 -1.27567,-36.62472 -8.29947,-10.39469 -25.10517,-6.44703 -36.62951,8.43804 -7.15331,9.23935 -7.49482,15.55901 -1.45794,25.31417 5.66576,9.15471 5.61818,12.62178 -0.18186,20.64626 -2.55948,3.54126 -5.47639,6.28364 -6.37827,6.2837 -0.90143,-6e-5 -8.04989,-5.33949 -16.03684,-12.02872 -7.98758,-6.68918 -16.65957,-12.19229 -19.13486,-12.20828 -2.47523,-0.0173 -10.92413,2.9859 -18.77032,6.64281 -17.42722,8.12188 -28.89671,8.39826 -44.46578,1.25673 -14.429474,-6.61909 -18.770315,-12.65412 -18.770315,-25.85285 0,-14.75066 6.237682,-22.0826 18.952585,-22.08254 12.25228,5e-5 16.94802,4.95231 16.94802,17.41474 0,9.23081 0.0231,9.3356 8.56511,9.33566 12.61018,5e-5 29.82672,-9.4834 45.19463,-24.95506 12.94031,-13.02807 22.84437,-29.02085 19.86383,-31.95693 -0.76563,-0.75397 -6.35852,1.75077 -12.39211,5.56558 -8.38041,5.29746 -13.46252,7.00164 -21.68613,7.0017 -9.14709,6e-5 -10.49914,-0.50345 -8.20069,-3.23157 1.48802,-1.76653 6.57423,-4.50712 11.11645,-5.92464 9.91664,-3.09503 18.40595,-8.02119 18.40595,-10.77194 -6e-5,-1.10055 -6.39201,0.46131 -14.03226,3.41113 -14.05166,5.42511 -17.02099,5.66119 -14.0322,0.89761 1.99441,-3.17897 33.66642,-17.7738 38.63415,-17.77375 2.86743,6e-5 3.17083,1.78957 2.00457,8.97666 -0.84536,5.20699 -0.54848,8.79703 0.72897,8.79709 2.50624,-6e-5 3.37828,-4.8149 7.10724,-39.67679 3.38664,-31.65416 1.2558,-160.97416 -2.73355,-165.70922 -1.40274,-1.66549 -5.32528,-3.05207 -8.74732,-3.05201 -7.30793,6e-5 -25.87052,-11.64831 -32.43816,-20.46682 -3.26921,-4.38963 -4.84389,-10.49048 -5.46708,-21.36437 -1.55632,-27.13209 12.03669,-46.83767 34.62494,-50.44885 4.59147,-0.73416 8.9106,-3.18244 10.20526,-5.56553 1.35286,-2.49024 2.46155,-31.35411 2.73355,-71.27472 0.42897,-62.97963 0.21246,-67.93928 -4.3737,-83.30344 -5.50952,-18.46086 -15.24614,-30.23693 -30.43352,-36.98384 -10.44954,-4.64216 -14.84413,-2.96333 -19.49928,7.18131 -4.32404,9.42335 -17.05985,17.23525 -27.88219,17.23525 -16.538096,-6e-5 -25.683625,-18.04332 -19.317135,-38.24063 7.036855,-22.324396 34.966795,-30.774097 58.862465,-17.594244 6.03405,3.328454 12.07554,6.104084 13.30323,6.104144 1.22821,0 5.61154,-2.98499 9.84084,-6.642701 8.60853,-7.446893 11.47873,-8.055656 17.67687,-3.590684 2.93065,2.111097 4.63898,6.787095 5.46708,14.901235 1.06216,10.40283 2.22201,12.35118 8.01842,15.08079 3.63427,1.71122 10.94774,3.52383 16.40132,4.1293 8.65564,0.96112 10.70242,0.43359 15.67229,-4.84741 4.47023,-4.74915 5.83365,-9.12734 6.74275,-20.28726 l 1.27572,-14.183124 z M 69.432094,104.48843 c 4.950066,0 5.577016,32.34728 0.911239,45.24238 -1.706891,4.71716 -2.63112,9.88189 -2.004633,11.49005 1.075958,2.76345 11.347386,10.61294 50.11508,38.24068 l 16.58353,11.84917 -1.27567,-13.64451 c -1.17445,-12.76548 -0.72105,-14.03705 5.64936,-21.18493 3.72787,-4.18265 7.6343,-7.1409 8.74739,-6.46325 1.11291,0.67769 2.00457,6.1837 2.00457,12.20833 -6e-5,9.7114 -0.47227,10.95144 -4.73812,10.9515 -4.59101,6e-5 -4.75838,0.69282 -3.2803,14.90129 0.85149,8.18955 1.89592,15.33252 2.36906,15.79891 1.33635,1.31619 23.07802,-10.8433 26.97101,-15.0808 1.90914,-2.07882 5.33216,-9.21706 7.47172,-15.7989 4.30407,-13.23938 7.95728,-15.37409 9.11181,-5.38603 1.2953,11.20761 -1.76029,25.49362 -5.46708,25.49367 -1.84748,0 -6.6147,3.24664 -10.56975,7.00182 -3.955,3.75511 -11.03094,9.27485 -15.67229,12.38783 -8.05843,5.40491 -8.53417,6.24144 -8.56512,18.13281 -0.0577,21.44878 -8.37597,39.43465 -27.5177,59.246 -21.759518,22.52064 -33.030809,43.77739 -33.167065,62.65706 l 0,7.36093 14.214415,-14.36274 c 13.1664,-13.39792 22.6655,-19.32232 25.87761,-16.1579 0.76003,0.749 -0.89189,2.9478 -3.64472,4.84729 -5.75161,3.96897 -19.61101,18.26797 -24.784221,25.67335 -1.934484,2.76922 -4.957225,6.20651 -6.742694,7.54037 -5.343475,3.99171 -1.224858,26.75409 10.205205,56.91198 5.63302,14.86313 11.20484,28.04454 12.39211,29.26392 1.41666,1.45516 3.76447,0.23152 6.74275,-3.77013 2.49521,-3.3531 5.82182,-6.10425 7.47166,-6.10414 5.46022,0 5.06427,5.3765 -1.09339,14.36262 -8.31281,12.13109 -9.68126,19.29086 -6.01378,31.59787 2.33072,7.82119 2.57257,16.08372 1.27566,32.67499 -2.7429,35.07516 -7.54862,53.59999 -18.22374,68.40215 -2.46859,3.42331 -4.07964,6.57364 -3.46245,7.18137 0.61656,0.60772 6.96093,-0.36663 14.21453,-2.15435 10.57142,-2.606 21.87331,-3.02886 32.07361,-1.43628 0.46131,0.0722 -0.46419,1.58212 -2.00463,3.41107 -1.80274,2.14031 -6.64691,3.23151 -13.84999,3.23157 -17.60222,0 -35.567416,6.19813 -44.101237,15.08091 -22.207601,23.11653 -31.977308,73.09338 -17.859197,91.92098 7.927137,10.5705 47.467504,23.87777 70.889974,23.87783 6.99153,0 7.66415,-0.51269 6.19611,-5.0268 -4.50966,-13.86638 -3.98831,-18.27039 3.64473,-27.64819 4.12722,-5.07102 8.32672,-9.27277 9.29402,-9.3357 4.79112,-0.31178 3.53382,7.44989 -2.369,14.90123 -5.61154,7.08374 -6.33705,9.38929 -4.73818,15.26035 2.79711,10.27149 7.01677,12.72882 18.22362,10.77199 5.24804,-0.91643 13.48089,-1.56364 18.22369,-1.43622 22.47803,0.60339 32.22222,-15.88049 34.62494,-58.52789 1.10182,-19.56562 3.65627,-25.03306 7.28944,-15.6194 4.61041,11.94679 1.00668,44.58875 -6.92496,62.83662 -4.90855,11.29329 -19.44461,21.26016 -36.08288,24.77556 -12.90532,2.72661 -14.85978,2.75063 -21.3217,0.17956 -2.62812,-1.04571 -12.76214,-1.97473 -22.59726,-1.97484 -9.8357,5e-5 -21.92585,-0.63665 -26.7888,-1.43629 -16.25553,-2.67269 -52.666404,-18.64832 -52.666404,-23.15977 5.7e-5,-1.02169 -2.588974,-4.85446 -5.6493,-8.43804 -4.834768,-5.66045 -5.642661,-8.86702 -5.831571,-24.05751 -0.118935,-9.61711 0.830178,-22.44939 2.004633,-28.54574 1.17457,-6.0964 2.300354,-12.53373 2.36906,-14.36268 0.06928,-1.82894 0.763724,-10.57985 1.640091,-19.38953 1.324105,-13.31276 0.780064,-18.08563 -3.09797,-28.7253 -6.936165,-19.03278 -8.398489,-32.49739 -4.009208,-36.08622 4.91502,-4.01891 8.496466,-0.52309 14.761111,13.82406 4.447074,10.1835 4.96167,13.69329 3.644724,30.8797 -0.819324,10.69463 -0.998246,19.56903 -0.36431,19.56909 2.159595,6e-5 25.542805,-32.23712 30.615794,-42.19025 9.87721,-19.3796 16.98207,-74.99375 11.29871,-88.50997 -3.36344,-8.00064 -11.9218,-13.90634 -22.597372,-15.61935 -5.950968,-0.95495 -8.203921,-2.35792 -8.747327,-6.10414 -0.612227,-4.22456 0.397797,-5.02691 6.378268,-5.02685 3.860308,5e-5 10.016352,1.55089 13.667721,3.41106 6.00864,3.06131 6.74275,3.01368 6.74275,-0.17955 6e-5,-1.94049 -1.20067,-5.59301 -2.55133,-8.07898 -1.35061,-2.48621 -4.83027,-10.82263 -7.653936,-18.49198 C 94.2442,451.98418 85.808529,437.74898 76.175135,424.95514 67.315455,413.189 60.683151,402.7804 61.413908,401.61587 c 2.384937,-3.80228 6.20333,-2.30486 12.574381,5.02697 7.146554,8.22471 7.290488,7.74608 4.373692,-17.23525 -2.343482,-20.07572 0.434171,-38.3285 8.20063,-53.14186 2.557682,-4.87714 11.809559,-16.55963 20.592739,-26.03234 8.78307,-9.47272 18.44631,-21.26028 21.50386,-26.03223 9.73034,-15.18535 13.06092,-55.47587 4.55591,-55.47582 -1.68697,0 -8.14422,1.01297 -14.39663,2.33396 -9.43415,1.99332 -12.86687,4.28605 -19.863827,12.74684 -15.316988,18.52055 -28.60111,30.3845 -39.363117,35.36805 -14.53473,6.73092 -17.494654,6.38352 -17.494654,-1.97484 5.7e-5,-9.60793 17.393502,-42.99624 26.424252,-50.80791 15.816169,-13.68059 27.973642,-4.12531 13.667775,10.772 -11.118119,11.57694 -20.730958,24.63913 -19.134861,26.21179 1.548465,1.52554 12.883438,-5.06023 12.938806,-7.54031 0.01732,-0.88647 3.049761,-5.0283 6.742752,-9.15627 3.693569,-4.12786 6.742752,-8.28931 6.742752,-9.33571 5.8e-5,-4.12566 18.455312,-14.91804 28.064462,-16.33752 5.5799,-0.82429 10.2052,-2.15919 10.2052,-3.05207 -5e-5,-0.89288 -9.39691,-7.90358 -20.77495,-15.61941 L 86.198127,188.15082 74.17056,191.92106 c -6.69079,2.07784 -12.549324,5.4754 -13.303349,7.54043 -2.555025,6.99592 -9.893434,15.97829 -13.12102,15.9784 -10.525522,0 8.294797,-24.13423 22.415045,-28.7253 4.396613,-1.42947 8.018474,-3.60523 8.018474,-4.66785 5.8e-5,-1.06268 -3.339996,-4.43576 -7.471719,-7.54037 -4.686157,-3.52123 -8.68659,-9.19743 -10.569748,-15.08079 -1.66076,-5.18759 -3.947489,-10.69746 -5.102603,-12.20834 -1.155113,-1.51065 -1.388191,-6.3524 -0.546754,-10.77194 1.672596,-8.7826 12.505213,-31.95698 14.943324,-31.95692 z M 485.4782,142.729 c 1.4726,-0.12875 2.71402,0.0289 3.82699,0.71811 6.78981,4.21943 5.29913,6.5662 -7.8362,12.02879 -7.09286,2.94987 -14.44726,6.63623 -16.40126,8.25848 -4.48749,3.72601 -7.10066,3.54057 -10.75202,-0.53868 -1.82716,-2.04066 -7.19632,-3.18503 -14.57884,-3.23162 l -11.66314,-0.17956 5.6493,-4.4883 c 4.73615,-3.88121 7.38419,-4.40233 17.49471,-3.23157 10.4257,1.20719 13.51166,0.48671 23.14401,-4.84747 5.37766,-2.97822 8.66275,-4.27415 11.11645,-4.48829 z m -194.08193,1.61579 c 3.867,0.0115 7.96293,2.71951 11.84541,8.43803 3.09404,4.55718 5.89237,9.37313 6.37827,10.59256 0.48613,1.21931 2.72159,4.62166 4.92033,7.71986 2.19891,3.0982 6.25933,12.32468 8.9296,20.46676 5.26074,16.04302 8.18989,19.59034 26.97101,32.31605 12.59753,8.53567 17.00933,16.85281 10.93423,20.64626 -4.70013,2.93533 -10.93423,2.18292 -10.93423,-1.25667 5e-5,-2.45336 -2.78834,-2.89798 -13.12102,-1.9749 -12.29258,1.09818 -13.47979,0.86649 -18.04141,-4.84741 -4.04091,-5.06075 -5.38851,-5.53072 -8.20069,-3.23157 -1.86359,1.52387 -3.28024,3.96896 -3.28024,5.56558 0,1.59667 -7.1894,6.42157 -15.85456,10.77199 -8.66506,4.35049 -16.29157,7.89937 -16.94796,7.89943 -2.80335,0 -4.34044,-8.68186 -4.19148,-23.15983 0.32909,-31.88851 1.23323,-49.19212 3.46251,-62.11852 3.09572,-17.95394 9.74875,-27.84737 17.13023,-27.82762 z m 202.64704,15.97852 c 21.47465,-0.0404 22.19628,23.61992 1.64009,68.04309 -18.56334,40.11651 -45.9994,81.25026 -63.78274,95.69117 -14.48813,11.76556 -18.78209,6.80995 -11.29871,-12.9264 3.66978,-9.67802 8.32343,-15.94601 19.86383,-26.92995 13.24723,-12.60897 20.2282,-21.28395 20.2282,-25.31418 5e-5,-0.65847 -2.79278,-2.62078 -6.196,-4.30885 -5.15878,-2.55832 -7.31127,-2.60716 -12.93881,-0.17956 -16.86147,7.27351 -20.638,-0.66067 -4.00915,-8.43815 5.86402,-2.74284 11.06593,-6.85413 11.48087,-8.97666 1.12342,-5.74779 -6.97029,-4.84256 -14.76111,1.61585 -5.41986,4.49239 -8.44745,5.2 -17.3125,4.48829 -5.8997,-0.47343 -11.18111,-1.32018 -11.84541,-1.9749 -0.66477,-0.65454 2.54671,-5.26027 7.10724,-10.23338 10.76483,-11.73854 12.19806,-16.34739 13.48544,-39.13823 0.5889,-10.42818 2.22657,-20.39921 3.64484,-22.08249 5.33337,-6.33127 27.08648,-1.69361 28.61104,6.10408 0.4232,2.16629 -1.8316,4.57704 -6.01378,6.28364 -7.46329,3.04566 -12.90705,8.29029 -10.75196,10.41294 0.75899,0.74813 6.76942,-1.14998 13.30329,-4.30886 6.53334,-3.15882 13.68844,-6.19357 15.85456,-6.82225 2.58159,-0.74952 3.827,-3.49161 3.827,-7.71987 0,-8.03493 4.05834,-11.43982 15.30781,-12.92639 1.61769,-0.21362 3.12447,-0.35681 4.55596,-0.35912 z M 297.2279,173.24959 c -9.28947,0 -16.58359,3.49865 -16.58359,7.89953 -6e-5,2.5231 2.23321,2.87177 10.20526,1.79535 8.23787,-1.11245 10.02299,-0.81713 10.02299,1.97484 6e-5,2.27691 -2.94912,4.03149 -8.92959,5.02697 -14.51424,2.41559 -19.98254,16.31552 -8.20069,21.00537 10.3332,4.11325 16.17921,2.56577 23.69082,-6.64269 6.89391,-8.45144 7.10984,-9.42128 4.55591,-17.23531 -3.81372,-11.66586 -5.96587,-13.82406 -14.76111,-13.82406 z m 343.51586,6.64286 c 4.47409,0 4.70001,6.2195 0.36431,17.05558 -4.96011,12.39633 -7.08899,28.74372 -3.64484,27.82763 1.23323,-0.32794 2.71686,-2.84526 3.46257,-5.56541 1.65487,-6.0344 14.2908,-30.02112 18.58811,-35.36805 3.97116,-4.94216 10.56969,-5.06762 10.56969,-0.17956 0,2.05503 -2.06959,5.74127 -4.3737,8.25848 -7.14384,7.80578 -23.23587,41.29264 -19.86371,41.29264 0.53925,5e-5 4.81271,-6.50581 9.47624,-14.36263 9.5409,-16.07193 19.86492,-26.81494 23.50855,-24.59611 4.69355,2.85756 2.27282,8.06703 -8.74738,19.38965 -10.71386,11.00738 -13.70635,19.71129 -3.82694,11.13099 8.04965,-6.9913 17.18571,-11.82163 19.49929,-10.41282 4.53402,2.76039 1.95336,7.73234 -6.196,11.84911 -4.64084,2.34463 -10.83677,6.87323 -13.85005,10.05382 -3.01373,3.18065 -9.73021,6.86336 -14.76111,8.25854 l -9.11181,2.51351 8.01836,3.23157 c 6.72618,2.61992 8.20063,4.2017 8.20063,9.69482 0,6.15051 -0.62758,6.55927 -7.10718,5.38609 -6.92277,-1.25361 -6.87433,-1.30667 -1.82236,2.33384 2.78499,2.00665 5.1026,5.14209 5.1026,6.82225 0,3.51909 -5.76638,4.01689 -7.83614,0.71812 -1.61371,-2.57212 -7.8772,-2.99988 -7.83615,-0.53868 0.0173,0.91442 3.47285,3.85771 7.83615,6.6427 8.64727,5.51911 8.48953,10.62719 -0.36431,8.43815 -4.77432,-1.18074 -5.35878,-0.82602 -3.46246,2.5134 1.83934,3.23711 0.86401,4.28224 -6.01384,6.64276 -10.8739,3.73202 -10.95317,3.75211 -17.13023,-2.33402 -4.99209,-4.91785 -10.17645,-18.01981 -10.20526,-25.85273 -0.0115,-3.70286 -9.39991,-13.10329 -22.9618,-22.98027 -8.24572,-6.00553 -9.44697,-10.23338 -2.73354,-10.23332 1.85538,5e-5 7.51467,3.14023 12.39211,7.00169 12.74371,10.08933 13.44087,6.14848 1.2756,-7.18131 -5.72724,-6.27579 -10.38747,-12.6656 -10.38747,-14.36262 -6e-5,-4.13565 7.5548,-4.04876 11.11644,0.17956 4.92345,5.8441 4.98269,2.05677 0,-7.36081 -4.83529,-9.13901 -4.51243,-13.64451 1.0934,-13.64451 2.52685,0 7.62622,10.45353 11.48098,23.69833 0.44341,1.52416 1.90192,2.87246 3.09797,2.87251 1.33577,0 1.53444,-7.675 0.72897,-19.92814 -1.12128,-17.05252 -0.77648,-19.92832 2.18685,-19.92827 4.79314,0 6.19599,4.6887 6.19599,20.826 -6e-5,19.11297 2.82107,20.02479 6.01379,1.97478 2.96997,-16.79017 8.53082,-31.77743 12.02768,-31.77731 z m -166.56422,11.31056 c -3.98773,0.13567 -9.16303,1.54378 -14.94344,4.12924 -10.16808,4.5484 -14.21442,9.9533 -14.21442,18.85097 6e-5,6.45494 1.49899,6.85632 7.83621,2.51346 6.2031,-4.25164 19.1348,-6.61089 19.1348,-3.59069 0,1.3162 2.08067,2.33384 4.55591,2.33396 5.70114,0 6.08445,-7.77414 0.54675,-10.95155 -3.61274,-2.07276 -3.67296,-2.27218 -0.18244,-2.33384 4.7921,-0.0849 6.69431,-2.98614 4.92033,-7.54043 -0.91851,-2.35809 -3.6662,-3.54646 -7.65388,-3.41112 z m -179.86746,8.61753 c 1.16499,0 2.18685,1.5823 2.18685,3.41119 -6e-5,3.42816 -2.75087,4.47144 -5.28488,1.97484 -1.7977,-1.77115 0.26039,-5.38614 3.09803,-5.38603 z m 40.45651,24.41651 c -2.47523,-6e-5 -4.5559,0.56754 -4.5559,1.07728 0,0.50981 -0.70668,2.3802 -1.45788,4.30874 -1.03041,2.64509 0.13106,3.59069 4.55585,3.59069 4.36665,5e-5 5.83163,-1.18849 5.83163,-4.48836 -6e-5,-2.95577 -1.3733,-4.48841 -4.3737,-4.48835 z m 320.91855,9.33571 c -0.33371,0.12528 -0.79588,0.78693 -1.45793,1.79539 -1.19934,1.82895 -2.16797,4.11244 -2.18685,5.02697 -0.0173,0.91436 0.94923,1.61567 2.18685,1.61573 1.23767,0 2.20566,-2.28349 2.18684,-5.02691 -0.0173,-2.5209 -0.17147,-3.6199 -0.72891,-3.41118 z M 555.27477,250.808 c 3.71788,-5e-5 8.16669,13.7422 9.65857,29.62298 0.88537,9.43033 3.36563,18.57996 6.56048,24.23706 4.76,8.42828 22.96243,24.96625 50.11502,45.60131 6.18826,4.70302 15.18195,14.38104 20.0461,21.36449 8.58688,12.3286 8.80656,12.75487 5.28487,18.49198 -4.78113,7.78909 -10.78383,9.24108 -8.92965,2.15434 1.2315,-4.70625 0.99824,-4.81358 -2.73354,-1.79534 -3.79981,3.0728 -4.04599,2.9351 -2.55133,-3.77013 0.96556,-4.33044 0.80841,-7.36104 -0.54676,-7.36098 -1.23329,0 -2.66143,1.22451 -3.09797,2.51357 -1.68085,4.96814 -8.56517,-0.65997 -8.56517,-7.00187 0,-3.5274 -0.94917,-6.46319 -2.18685,-6.46308 -1.23762,0 -2.369,1.47445 -2.369,3.23151 6e-5,1.75701 -1.18132,3.83387 -2.55139,4.66786 -1.72398,1.05003 -1.94765,-0.55657 -0.91112,-5.20641 1.83368,-8.22534 -2.50318,-11.76863 -5.46709,-4.4883 -2.06479,5.07085 -2.0462,4.99845 -2.18684,-0.89767 -0.1657,-6.92935 -4.0416,-10.26958 -6.01385,-5.20653 -2.34232,6.01407 -4.54389,3.66638 -3.46245,-3.59062 0.7184,-4.8253 0.12817,-6.46262 -1.64015,-5.38603 -1.40384,0.85477 -2.55133,2.98273 -2.55133,4.66785 6e-5,1.68496 -1.03439,3.67579 -2.36906,4.48836 -1.59494,0.97094 -2.12547,-0.9983 -1.64015,-5.74514 0.83428,-8.15993 -3.73294,-11.5684 -6.01378,-4.4883 -0.80714,2.50572 -2.447,4.6678 -3.64478,4.66786 -1.35124,0 -1.26308,-1.64812 0.18244,-4.30869 5.44861,-10.02974 0.97359,-12.40527 -4.73812,-2.51351 -2.8571,4.94741 -5.05052,6.15882 -8.74738,5.20641 -7.61138,-1.96081 -11.95863,-10.3619 -10.20521,-19.56915 1.43311,-7.52495 1.22093,-7.93851 -3.2803,-5.56546 -4.15608,2.19135 -4.59418,4.28974 -4.00921,16.33752 0.66033,13.59104 0.67747,13.69433 7.65394,14.36262 6.21314,0.59525 7.0331,1.48784 6.74275,7.18137 -0.59941,11.74593 -4.14079,12.3488 -19.1348,3.23162 -13.50935,-8.21523 -13.72725,-8.47014 -12.39211,-16.69657 0.7434,-4.57895 0.47689,-10.08552 -0.72897,-12.20823 -1.80718,-3.18139 -2.54833,-2.24695 -3.82694,4.8473 -2.53118,14.04086 -3.5654,16.33746 -7.8362,16.33752 -5.74064,6e-5 -24.96644,8.54063 -24.96644,11.13111 -5e-5,1.18554 2.31831,1.8126 5.10272,1.25673 16.63215,-3.31956 30.68715,-3.36846 37.5407,0 8.66171,4.25666 11.15213,9.55447 6.01384,12.38778 -5.12339,2.82418 -4.69089,14.4543 0.91113,26.92995 4.19771,9.34905 4.33373,10.74284 1.27572,17.95337 -1.83045,4.3148 -3.63699,7.81934 -4.00927,7.71992 -9.4446,-2.52142 -16.11478,-8.27568 -23.50855,-20.28726 -9.7215,-15.79215 -30.41326,-38.76007 -46.28803,-51.16696 -5.88682,-4.60071 -10.7758,-10.1029 -10.75201,-12.20822 0.0231,-2.10544 6.98183,-9.59639 15.49019,-16.69664 22.97768,-19.17498 48.97925,-46.70008 64.87619,-68.58171 7.7511,-10.66876 15.19574,-19.38964 16.40126,-19.38959 z m -108.97742,11.49017 c 2.59648,-0.10277 3.20334,1.31296 2.73354,4.4883 -0.52481,3.5464 -4.09414,6.21944 -13.12102,9.87432 -13.96419,5.65329 -31.89694,6.87046 -35.71839,2.3339 -3.62198,-4.29956 -0.87192,-5.92464 10.20526,-5.92453 5.80311,0 14.57174,-2.27114 21.50392,-5.56558 7.24696,-3.44409 11.79957,-5.10353 14.39669,-5.20641 z m 95.12749,24.7755 c -1.21106,0.1836 -2.68065,1.0677 -4.92039,2.51357 -3.31182,2.1376 -7.98533,7.19101 -10.5698,11.3105 -2.58424,4.11954 -7.85549,9.66486 -11.48087,12.20828 -3.6259,2.54336 -6.37827,5.48175 -6.37827,6.64269 6e-5,1.16095 4.04997,0.0289 9.11181,-2.5134 7.60694,-3.82318 10.34781,-4.10811 16.03689,-2.15445 21.52171,7.39118 30.12787,-4.98864 15.49002,-22.26205 -3.77815,-4.45868 -5.27119,-6.05177 -7.28939,-5.74514 z m -231.80489,1.9749 c -10.54313,0.17609 -28.97564,2.29689 -28.97564,3.94974 -6e-5,0.95489 3.92433,2.7086 8.56511,3.94974 4.64147,1.2412 10.46357,1.92998 12.93881,1.43629 2.47518,-0.49364 7.16601,-0.88093 10.56969,-0.89767 6.21262,-0.0289 8.77966,-4.99522 4.00921,-7.89943 -0.7822,-0.47631 -3.59323,-0.59739 -7.10718,-0.53867 z m 234.53844,8.6176 c 0.45322,-0.06 0.81303,0.0826 1.09339,0.35911 0.80166,0.78994 0.79109,3.89668 0,7.00181 -1.47468,5.79012 -6.56394,7.58321 -9.29402,3.23163 -1.51966,-2.42247 5.02899,-10.17345 8.20063,-10.5925 z m 134.67276,8.43803 c 0.97625,-0.11778 1.7181,0.44745 2.55139,1.43629 4.80209,5.7004 0.36374,18.43528 -9.65862,27.82763 -5.07241,4.75376 -9.46683,8.61748 -9.84078,8.61759 -0.37355,0 -1.83322,-1.98055 -3.09803,-4.30874 -3.08844,-5.68526 1.77756,-16.50125 12.02763,-27.10957 4.12445,-4.2689 6.39189,-6.26678 8.01841,-6.4632 z m -524.84119,0.17956 c 4.24967,0 3.72238,2.41196 -3.827,18.13281 -3.71233,7.73014 -6.74165,15.12346 -6.74275,16.51707 -4.6e-4,1.3938 -1.68691,3.20969 -3.64478,3.94975 -4.92894,1.86318 -5.44301,1.7204 -6.74275,-1.61579 -2.52853,-6.4912 14.77017,-36.98384 20.95728,-36.98384 z m 483.65571,0.89767 c 2.23593,0.17725 3.09809,2.64267 3.09809,7.54043 6e-5,2.97551 3.1023,11.85834 6.92496,19.7487 3.82198,7.89019 6.51736,14.76423 6.01379,15.26024 -0.50345,0.49595 -4.01135,-2.33927 -7.83615,-6.28364 -11.72324,-12.08744 -18.10186,-32.83797 -10.93423,-35.54761 1.05148,-0.39722 1.98841,-0.77712 2.73354,-0.71812 z m -113.89781,16.87614 c -1.23756,0 -2.18685,0.93508 -2.18685,2.1544 -1.1e-4,1.21925 0.94923,2.15434 2.18685,2.1544 1.23773,0 2.18679,-0.9352 2.18679,-2.1544 6e-5,-1.21926 -0.94911,-2.15446 -2.18679,-2.1544 z m -30.43352,13.82406 c -3.09687,-0.11605 -16.76574,10.08096 -16.76574,12.74684 -6e-5,1.04305 1.82253,1.32855 4.19142,0.71817 5.27893,-1.36025 15.11711,-11.13948 13.12102,-13.10595 -0.10393,-0.10277 -0.34006,-0.35161 -0.54676,-0.35912 z m 16.03684,1.25679 c -1.29796,0.0849 -4.19281,2.60514 -9.29403,8.07892 -5.56951,5.9762 -10.02305,11.27118 -10.02305,11.66967 0,0.39837 2.29158,0.53867 5.28487,0.53867 5.88458,6e-5 14.94339,-11.45818 14.94339,-19.03053 5e-5,-0.94427 -0.32159,-1.2953 -0.91118,-1.25667 z M 47.381592,355.65544 c 3.089078,-0.28522 5.133491,1.80308 9.294024,8.79704 7.011338,11.78652 7.290951,17.95197 1.275608,23.878 -2.475177,2.43851 -4.555848,5.89092 -4.555848,7.71992 5.8e-5,6.90159 -4.902954,2.96137 -10.205206,-8.25854 -5.173213,-10.94664 -7.608668,-30.4528 -3.826995,-30.52064 0.927809,-0.0173 3.894604,-0.55195 6.560539,-1.25673 0.493061,-0.13048 1.016317,-0.31812 1.457878,-0.35911 z m 77.814938,6.10408 c 4.95659,6e-5 11.48093,15.85462 11.48093,28.00724 0,12.21833 -5.64353,8.78844 -10.93418,-6.64275 -5.95391,-17.36406 -6.08335,-21.36455 -0.54675,-21.36449 z m -76.357118,8.79715 c -2.869048,0 -2.751152,8.06617 0.182445,13.46495 3.060383,5.63389 6.742694,5.40866 6.742694,-0.35911 1.15e-4,-5.6433 -3.994775,-13.10601 -6.924965,-13.10595 z m 517.005048,15.61941 c 5.94618,0.052 8.06871,1.95891 19.13492,17.9533 15.89585,22.97427 19.72896,37.18494 20.77496,77.55837 1.20107,46.37843 2.2832,59.55199 5.46708,67.14542 4.77155,11.37903 6.86839,3.33064 3.64473,-14.18324 -1.68299,-9.14454 -3.21489,-30.79996 -3.28024,-48.11477 -0.14319,-38.13024 -2.385,-49.94343 -14.03226,-72.17234 -4.93055,-9.40932 -8.62718,-18.00209 -8.20063,-19.21015 0.42551,-1.20794 6.07706,2.69186 12.57432,8.61766 9.12665,8.3232 11.84541,12.16717 11.84541,17.23513 6e-5,4.16117 4.09385,12.7529 11.2986,23.51883 10.97644,16.40109 12.30285,21.36443 5.46709,21.36449 -3.82809,0 -3.97861,1.49223 -1.0934,18.85104 2.05643,12.3693 1.87802,13.59035 -3.09797,18.85097 -4.8492,5.12697 -5.1694,6.72208 -3.64478,18.85092 0.91973,7.31578 3.49485,19.0303 5.83157,26.03235 l 4.3737,12.74683 11.29871,0 c 9.54477,0.0116 12.44199,-1.1438 18.95253,-7.00169 8.92504,-8.03078 11.7009,-5.038 4.55591,4.84735 -6.68173,9.2442 -16.84236,13.91177 -26.05977,12.20828 -4.22981,-0.7818 -7.93135,-0.40357 -8.74738,0.89761 -0.78827,1.25667 -0.49826,2.33396 0.72891,2.33396 1.22728,6e-5 3.01373,2.14516 3.82693,4.66791 1.88922,5.86517 13.84601,13.09516 21.6862,13.1059 6.70008,0.0115 10.10393,-3.25484 6.01378,-5.74509 -1.84817,-1.12526 -1.45834,-2.56721 1.45794,-4.66785 6.72999,-4.84828 11.63612,-3.51702 14.21447,3.77012 3.28474,9.28254 1.46434,12.60897 -8.20069,14.18318 -21.39492,3.48503 -29.74635,0.12356 -42.27887,-16.69652 -11.14693,-14.95978 -12.21816,-10.76477 -2.00458,7.54037 5.59382,10.02478 8.02662,17.63033 8.38284,25.13467 0.39953,8.41962 -0.25172,10.94457 -3.09802,11.49005 -2.85242,0.54676 -3.71828,-1.64384 -4.55585,-10.23338 -1.33796,-13.71038 -12.02988,-31.41254 -18.95265,-31.41837 -4.29073,-0.004 -4.83431,-1.69771 -6.01373,-17.05563 -1.21723,-15.85837 -2.71368,-19.031 -9.47635,-21.36443 -1.3069,-0.45092 -0.93699,-4.66382 0.91112,-10.59238 5.67188,-18.1936 6.61314,-26.33979 3.2803,-29.62303 -2.1701,-2.13789 -3.09803,-9.11533 -3.09803,-23.15983 -5e-5,-17.76336 -0.5658,-20.33755 -4.5559,-22.44161 -3.91227,-2.06271 -4.37369,-4.66277 -4.37369,-19.74864 -6e-5,-15.27848 -0.78186,-17.78432 -5.46709,-22.4416 -2.92736,-2.9097 -5.97042,-7.90341 -6.92496,-10.95161 -0.9557,-3.04821 -4.18265,-8.40265 -7.1073,-11.84917 -6.33,-7.45948 -6.79725,-10.2794 -1.45788,-10.23338 z M 45.741443,401.61593 c 2.230321,6e-5 3.28024,3.10328 3.28024,10.95149 -5.7e-5,10.79434 3.27695,16.54456 6.560539,11.31061 2.369406,-3.77711 4.555848,8.57799 4.555848,25.67329 0,8.43527 -0.951942,14.18301 -2.369059,14.18312 -4.067348,0 -13.443588,-24.42516 -15.307809,-39.67691 -2.009367,-16.44785 -1.242121,-22.44166 3.280241,-22.4416 z m 364.108607,2.1544 c 2.08852,6e-5 2.55196,3.36338 1.8223,12.02878 -0.98832,11.74911 -0.87521,11.87168 6.37833,14.36262 4.0364,1.38634 10.29665,2.5134 13.84998,2.51346 10.52991,-6e-5 23.82391,9.62126 25.51308,18.49197 1.88974,9.92161 0.7546,15.79879 -3.28025,15.79885 -1.90579,-6e-5 -3.98299,-3.2049 -4.92038,-7.71998 -0.87978,-4.23813 -3.84923,-9.32694 -6.56054,-11.49005 -4.74603,-3.78629 -18.06422,-5.54347 -20.95717,-2.69296 -2.3074,2.27345 16.92128,22.9801 21.32171,22.98022 2.23806,0 5.2713,2.31848 6.74269,5.02691 1.47151,2.7086 6.31996,7.97702 10.75191,11.66967 19.57665,16.31084 22.95533,20.95837 22.23294,30.7002 -0.77954,10.50808 -7.29718,13.49433 -7.47172,3.41106 -0.0577,-3.18463 -1.89794,-8.3154 -4.00915,-11.4901 -4.95896,-7.45544 -42.09666,-31.69025 -42.09666,-27.46858 -6e-5,0.61512 2.99214,6.86752 6.56048,14.00363 9.48386,18.96725 10.30469,25.5092 4.92039,35.90661 -9.05904,17.49361 -15.12404,11.9125 -8.01836,-7.36093 3.18163,-8.63087 3.00952,-9.37306 -4.73817,-24.95506 -11.22898,-22.58542 -17.5181,-29.44353 -27.15328,-29.44341 -11.35259,0 -24.63896,7.76559 -31.70913,18.31236 -5.42153,8.08805 -6.29796,11.34566 -6.19605,26.03235 0.0918,13.36137 1.35793,19.43266 6.19605,29.80252 3.33954,7.15834 6.196,13.82932 6.196,14.90124 -6e-5,3.17551 -3.58711,2.18581 -7.28939,-1.97496 -5.42587,-6.09606 -10.26878,-16.45449 -12.02763,-26.03229 -2.04822,-11.15195 -4.77744,-16.69663 -8.56511,-16.69651 -5.8851,-6e-5 -22.17394,-15.03536 -26.60658,-24.59606 -12.11972,-26.14095 -17.68599,-52.88304 -9.65857,-46.31961 1.85654,1.51798 3.46251,4.09674 3.46251,5.74503 6e-5,3.27643 11.12441,9.87432 16.7658,9.87438 2.70964,5e-5 3.14029,-1.42503 2.00458,-6.10414 -0.81321,-3.35305 -2.39545,-7.82068 -3.46246,-9.87433 -2.53337,-4.87957 -2.55115,-15.08079 0,-15.08073 1.09467,0 3.65824,2.3925 5.6493,5.38597 7.20302,10.8303 13.2119,14.54206 23.32629,14.54212 5.3362,6e-5 9.65856,-0.53059 9.65856,-1.25667 6e-5,-0.72631 -1.98096,-4.05003 -4.37369,-7.36087 -5.81973,-8.05156 -7.94861,-16.96522 -4.5559,-19.03053 1.47589,-0.89889 3.40079,-0.42378 4.37369,1.25672 7.77696,13.43176 12.59713,19.74859 15.12559,19.74865 2.13246,6e-5 2.6373,-1.72005 1.45794,-6.10414 -2.20561,-8.20051 -1.87161,-15.92973 1.09339,-18.85092 3.38376,-3.33358 4.79661,-1.5368 6.7427,9.69471 1.31019,7.5615 2.63614,9.69477 6.0139,9.69483 3.47302,0 4.7406,-2.54164 6.74275,-12.38778 2.853,-14.03307 4.67819,-17.59437 8.74733,-17.59425 z m -229.80027,26.03234 c 6.28295,-0.25461 7.08542,0.7251 8.3829,5.38591 2.00106,7.1928 1.95504,7.45134 -14.21452,20.28726 -8.77256,6.96429 -15.40186,10.41288 -19.68151,10.41294 -8.78641,0 -10.07351,-3.39357 -2.55127,-6.46325 8.19809,-3.34525 26.75306,-19.19398 24.78411,-21.18482 -2.01549,-2.03743 -26.39117,8.95697 -32.62031,14.72174 -3.27308,3.02972 -5.32402,3.65575 -6.37833,1.97484 -4.77593,-7.61323 20.42571,-23.67841 39.18085,-24.95506 1.13242,-0.0774 2.20116,-0.14318 3.09808,-0.17956 z m 201.91808,22.98022 c -0.2881,-0.0289 -0.46651,0.10161 -0.72897,0.17956 -0.30023,0.0889 -0.48267,0.2956 -0.72891,0.53867 -0.6893,0.67914 -0.73243,2.60687 0,4.4883 1.68183,4.31768 6.01378,4.61289 6.01378,0.35911 -1.1e-4,-2.70323 -2.54094,-5.37794 -4.5559,-5.56553 z m -32.07367,4.3088 c -1.74454,0.2754 -0.75616,4.12491 3.09803,10.77199 4.3827,7.56063 8.74738,11.6285 8.74738,8.25854 -6e-5,-2.78273 -7.08639,-16.89957 -9.11187,-18.13292 -1.20938,-0.73642 -2.15243,-0.98935 -2.73354,-0.89761 z m 16.7658,0.89761 c -0.17205,0.0231 -0.39318,0.086 -0.54675,0.17956 -1.19738,0.72885 -0.51962,3.75471 1.64009,7.00187 2.09585,3.15108 4.29217,4.72928 4.73812,3.41107 1.12468,-3.32349 -3.25877,-10.89838 -5.83152,-10.5925 z m -24.41973,7.89948 c -0.5329,0.11547 -0.72897,0.66841 -0.72897,1.79534 6e-5,1.23635 2.31767,5.93296 5.10266,10.23338 7.48223,11.55507 12.16503,10.23056 5.10254,-1.43628 -4.16665,-6.88293 -7.87679,-10.93816 -9.47623,-10.59244 z m -17.31245,4.3088 c -0.82815,-0.16224 -1.45793,0.0982 -1.45793,1.25679 -6e-5,2.87765 9.99077,20.41347 14.21447,24.95505 4.62969,4.97796 8.24214,6.37862 8.20063,3.23163 -0.0115,-0.91441 -3.38093,-6.01551 -7.65393,-11.31055 -4.273,-5.29515 -8.54451,-11.4986 -9.29403,-13.82406 -0.75448,-2.34285 -2.62812,-4.03866 -4.00921,-4.30886 z m 8.74739,0 c -0.718,0.0115 -1.27567,0.54733 -1.27567,1.79534 0,2.42472 6.56603,11.64698 13.30324,18.85098 3.13625,3.35299 6.54477,6.10408 7.65387,6.10414 1.10974,-6e-5 -0.26443,-2.75115 -2.91575,-6.10414 -2.65139,-3.35305 -6.76897,-9.32278 -9.29403,-13.28539 -2.93498,-4.60654 -5.89167,-7.38916 -7.47166,-7.36093 z m -25.33097,5.20653 c 2.54359,-0.13222 3.89385,3.19981 5.28487,10.05382 1.9152,9.4349 14.22157,23.07196 25.33092,28.00719 5.05531,2.24579 9.29402,5.53764 9.29402,7.18131 -6e-5,4.07173 -9.11302,3.73629 -15.30781,-0.53868 -2.78279,-1.9201 -6.35979,-3.17787 -7.8362,-2.69301 -3.94899,1.29691 5.44705,8.54445 16.7658,12.9264 7.78851,3.01523 9.65851,4.92027 9.65851,9.51526 0,3.37331 2.92615,8.66298 7.28945,13.10589 7.25353,7.38593 9.42987,12.74684 5.10266,12.7469 -4.93344,0 -1.76145,3.59392 5.28481,6.10408 10.50226,3.74143 13.62309,3.51569 26.05983,-2.69295 12.42017,-6.20033 14.53156,-9.56752 9.65857,-15.0808 -2.78164,-3.14658 -2.91114,-4.37519 -0.54676,-7.18131 2.58482,-3.06875 3.34283,-3.2109 6.7427,-0.17955 2.08632,1.85983 6.90002,3.41106 10.75201,3.41112 7.62033,0 11.88266,4.02561 7.28945,6.82226 -2.13794,1.30176 -1.59529,2.45289 2.00458,4.66785 5.44694,3.35131 6.59287,10.77188 1.64015,10.772 -2.79376,5e-5 -2.8769,0.80795 -0.18245,5.92458 4.63576,8.80362 1.79217,10.3205 -6.92508,3.77024 -9.67098,-7.26716 -12.68448,-6.62012 -36.994,8.43804 -14.43219,8.93987 -19.28416,13.2429 -20.59268,18.1328 -3.33284,12.45395 -14.02487,29.51472 -21.8684,34.82956 -4.36815,2.95986 -12.58397,8.14699 -18.22363,11.49005 -11.23901,6.66273 -14.74673,7.1585 -21.50392,3.41118 -14.57399,-8.08262 -28.59568,-30.11643 -31.52691,-49.37167 -2.16618,-14.23174 2.14643,-12.8219 5.46703,1.79528 1.48744,6.55026 5.79508,16.72366 9.47635,22.44172 7.6302,11.85361 7.52998,11.8203 30.79795,0.53867 7.73551,-3.75055 14.03226,-7.98545 14.03226,-9.33571 0,-1.59107 -6.14941,-2.40537 -17.31256,-2.33384 -20.58223,0.13164 -23.50642,-3.08359 -8.74727,-9.51532 8.49508,-3.702 11.13388,-6.48318 16.21905,-16.69664 3.36049,-6.7521 5.54583,-13.02853 4.73811,-13.82401 -0.8072,-0.7953 -4.78621,1.2046 -8.74732,4.4883 -5.28782,4.38357 -8.68746,5.67401 -12.75654,4.66786 -4.07133,-1.00674 -6.37463,-0.10624 -8.74738,3.23162 -4.85192,6.82399 -9.1143,5.53995 -14.21442,-4.30879 -5.06519,-9.78126 -8.92965,-11.48538 -8.92965,-3.94974 5e-5,3.15714 -0.77135,4.08755 -2.18685,2.69295 -1.20275,-1.18485 -2.98094,-20.35816 -3.82694,-42.54936 -1.4648,-38.44542 -1.35164,-40.38365 2.73355,-41.65164 8.25126,-2.56138 11.20322,-4.92616 22.77958,-18.31242 6.27192,-7.25232 10.0309,-10.81939 12.57427,-10.95149 z m -247.112766,5.20641 c 1.699732,0.15357 3.673823,0.97047 5.649358,2.33395 3.455294,2.38413 4.589681,5.47489 4.555963,12.38773 -0.08198,16.80171 -4.231028,38.01724 -9.476353,48.65356 -2.835735,5.75062 -5.810382,10.54509 -6.560481,10.59249 -1.39333,0.0878 -4.610119,-28.56191 -5.284816,-46.4991 -0.668692,-17.77283 3.751535,-28.1349 11.116329,-27.46863 z m 238.547706,20.82587 c -1.23762,-5e-5 -7.85607,5.50219 -14.5789,12.20823 -6.72225,6.70609 -11.26067,12.02872 -10.02305,12.02878 1.23773,-6e-5 7.85676,-5.32269 14.5789,-12.02878 6.72225,-6.70604 11.26067,-12.20828 10.02305,-12.20823 z m 157.63457,5.74503 c 0.96833,0.26616 2.26525,2.12455 4.00926,5.74508 5.6459,11.72099 6.92728,33.67935 3.09803,54.93715 -1.86538,10.35121 -3.06991,19.23786 -2.55133,19.74864 0.51846,0.51096 6.24871,3.44756 12.75653,6.64281 9.88178,4.85157 12.05026,7.06717 12.57433,12.56728 0.7561,7.94025 -5.78054,20.36244 -13.12102,25.13462 -4.57265,2.97291 -5.18823,3.0254 -3.46246,0.17956 1.1091,-1.82895 3.76066,-4.44904 5.83152,-5.92459 4.86086,-3.46326 9.83939,-15.18258 8.20063,-19.38959 -1.9208,-4.93112 -18.36127,-12.38783 -27.33549,-12.38778 -6.9931,0 -8.29769,1.00281 -11.29866,8.07899 -5.52176,13.01865 -4.32133,20.33881 4.55596,29.08435 4.33178,4.26746 7.83609,8.12996 7.83609,8.61766 6e-5,3.46961 -7.50451,-0.4948 -13.30318,-7.00182 -9.31267,-10.44936 -9.40193,-21.41483 -0.36431,-35.90666 4.06423,-6.51707 8.10006,-17.96047 10.56975,-29.80253 3.42879,-16.43942 3.60853,-21.99225 1.45788,-38.77918 -1.88795,-14.73704 -1.58282,-22.12908 0.54675,-21.54399 z m -71.25452,7.89942 c 1.79731,0.15473 3.07291,2.1428 4.73824,6.10414 2.34007,5.56553 2.09158,7.42888 -1.45794,12.20828 -6.8767,9.25898 -10.74763,9.50037 -9.84078,0.71817 0.22806,-2.2082 -1.09645,-3.94979 -3.09803,-3.94974 -5.08909,-5e-5 -4.32646,-3.81672 2.00464,-10.05382 3.56499,-3.51188 5.85674,-5.18147 7.65387,-5.02703 z m -84.37548,2.15452 c -2.33014,-0.19746 -11.36037,8.11599 -16.94795,15.7989 -2.43875,3.35305 -3.54357,6.10409 -2.36912,6.10414 2.87523,0 21.20445,-20.4029 19.68156,-21.90304 -0.093,-0.0918 -0.209,0.0115 -0.36431,0 z m 3.64479,12.92633 c -1.23768,-5e-5 -2.18685,1.11453 -2.18685,2.33396 6e-5,1.21937 0.94917,2.15423 2.18685,2.15428 1.23761,6e-5 2.369,-0.93502 2.369,-2.15428 0,-1.21932 -1.13139,-2.33401 -2.369,-2.33396 z m 91.66498,3.77019 c 0.61875,-0.0404 1.02515,0.21535 1.64009,0.71805 2.56888,2.10059 2.30549,3.77076 -1.64009,10.59261 -2.60046,4.49482 -6.18249,9.89488 -8.01847,12.02867 -1.8353,2.13379 -4.23894,3.94962 -5.28482,3.94968 -3.49132,6e-5 -1.82577,-5.33158 5.10254,-17.23513 4.11683,-7.07196 6.34427,-9.93639 8.20075,-10.05388 z m -204.83389,2.87257 c 7.33945,0 1.31447,9.80787 -16.2191,26.39134 -17.02048,16.09821 -23.50844,20.77161 -23.50844,16.69664 -6e-5,-4.0808 35.94818,-43.08804 39.72754,-43.08798 z m 115.72018,9.87432 c -0.23787,0.0745 -0.56639,0.33429 -0.91118,0.53867 -1.72623,1.02446 -6.96798,6.12862 -11.66314,11.31061 -9.05951,9.99892 -8.12413,12.37571 1.82242,4.66786 6.25898,-4.85042 14.3203,-17.63675 10.7519,-16.51702 z m 27.69997,4.4883 c -0.80044,-0.0918 -2.01444,1.29443 -3.28024,3.94968 -1.78004,3.73566 -4.32796,5.91275 -6.19605,5.20659 -1.83431,-0.69346 -2.35209,-0.16859 -1.45788,1.25667 0.82874,1.32116 -0.6587,5.125 -3.2803,8.61759 -2.62096,3.49259 -4.73817,7.02791 -4.73817,7.89943 0,2.74451 11.28907,-8.58977 16.03683,-16.15791 2.50023,-3.98582 4.20372,-8.53209 3.64478,-10.05394 -0.14491,-0.39606 -0.46188,-0.68734 -0.72897,-0.71811 z m -17.31249,4.48835 c -2.17998,0.42436 -21.86835,22.13982 -21.86835,24.23701 -6e-5,0.65281 1.27595,0.61973 2.91576,0 3.6237,-1.37001 20.56918,-22.8241 19.1348,-24.23701 -0.0346,-0.0346 -0.11259,-0.0115 -0.18245,0 z M 189.1616,567.86365 c 6.45522,-6e-5 4.15718,6.06332 -3.2803,8.61759 -8.50986,2.92251 -8.74739,2.91079 -8.74739,0.53867 0,-3.0952 7.9985,-9.15632 12.02769,-9.15621 z m 157.63462,3.94974 c -0.88751,-0.0958 -2.34816,2.28193 -4.92039,7.89948 l -4.92039,10.77199 5.10255,6.28364 c 6.73732,8.41778 9.95804,8.11039 14.57895,-1.43622 3.85586,-7.96594 3.90546,-8.01109 -2.00463,-12.7469 -3.26188,-2.61403 -6.42965,-6.71764 -6.92497,-9.15621 -0.21362,-1.05211 -0.50749,-1.57231 -0.91112,-1.61578 z m 53.39526,109.33573 c 1.09195,-0.1149 2.56045,0.32101 4.37369,1.43628 2.40209,1.47797 5.93209,2.87246 7.83615,2.87252 3.66308,5e-5 7.8362,8.4441 7.8362,15.79896 6e-5,2.4145 -2.61172,6.70205 -5.64936,9.69477 -11.77128,11.5964 -20.54216,3.31522 -18.5881,-17.4147 0.81655,-8.66586 1.7887,-12.13541 4.19142,-12.38783 z m 41.91439,38.24056 c 1.23433,-0.11893 2.21006,0.0231 2.73354,0.53868 1.62433,1.60037 1.59673,3.46239 -0.36431,6.10408 -3.67301,4.94862 -20.80572,7.96368 -19.31713,3.41118 1.29691,-3.96868 11.59865,-9.53772 16.94801,-10.05388 z m -30.06898,2.51352 c 1.15945,0.0115 1.45788,1.36839 1.45788,4.48835 -6e-5,6.27279 -2.53187,7.11619 -6.56054,2.33384 -2.13621,-2.53597 -1.89326,-3.60644 1.82242,-5.56552 1.54789,-0.8158 2.58441,-1.2636 3.28024,-1.25667 z m -34.26045,1.07717 c 3.78594,-6e-5 13.12102,6.31828 13.12102,8.79715 5e-5,0.95443 -2.49654,2.89376 -5.64936,4.30874 -8.73827,3.92238 -16.85108,3.16321 -16.76575,-1.43623 0.0947,-5.14382 5.30526,-11.66972 9.29409,-11.66966 z m 296.68108,1.25678 c 8.39907,6e-5 3.15651,20.21914 -5.83163,22.44166 -2.93781,0.7262 -5.28482,2.61196 -5.28482,4.30869 6e-5,4.1077 -12.42981,3.91036 -22.4151,-0.35912 -10.21842,-4.36919 -7.52045,-6.12146 9.29409,-6.2837 l 14.03214,-0.17955 3.46251,-10.05388 c 2.00163,-5.65548 4.88736,-9.87438 6.74281,-9.87427 z m -42.82563,5.56553 c 1.46411,0.006 2.36906,1.7917 2.36906,5.20641 -6e-5,3.98005 -1.81047,5.90114 -7.10718,7.71993 -9.04911,3.10784 -8.56517,3.22146 -8.56517,-1.97479 0,-2.43857 1.39281,-4.30897 3.09809,-4.30885 1.70458,-6e-5 4.2909,-1.5823 5.83151,-3.41113 1.79066,-2.12559 3.23463,-3.23706 4.37369,-3.23157 z m -126.47214,0.71811 c 4.60602,-0.0647 3.57712,5.74128 -2.91575,11.66967 -5.13627,4.6895 -7.90543,5.20635 -25.6954,5.20641 -16.23874,6e-5 -20.81144,-0.66471 -25.14865,-4.12924 -6.8424,-5.46501 -4.84216,-7.42617 4.92039,-4.66786 12.19575,3.44577 26.71946,2.62743 34.44267,-1.97484 3.85916,-2.29966 9.42491,-4.91427 12.2099,-5.74508 0.89253,-0.26674 1.52866,-0.34988 2.18684,-0.35911 z m 58.86235,6.10414 c 7.24419,0.0346 13.97579,1.64021 20.41053,4.66786 5.56928,2.62032 14.18433,4.75111 19.13492,4.84741 11.52244,0.22401 12.21544,5.80386 1.09339,8.61754 -4.33172,1.09587 -9.34529,3.30206 -11.29877,5.02691 -1.95383,1.72508 -4.50914,3.23752 -5.64924,3.23163 -2.99111,-0.0173 -18.95259,-14.82982 -18.95259,-17.59425 -6e-5,-3.60379 -9.39368,-2.75329 -23.87304,2.1544 -17.97017,6.09092 -37.86223,8.31171 -36.44731,4.12924 0.57332,-1.69379 4.97449,-3.66996 9.84078,-4.48836 4.86583,-0.8184 14.86192,-3.73156 22.23283,-6.28364 8.52609,-2.95218 16.26501,-4.34528 23.5085,-4.30874 z m -162.73723,0.35912 c 3.36887,0.0652 7.65394,5.42933 7.65394,10.59249 0,6.35847 -2.03957,7.5484 -8.38279,5.02691 -2.88856,-1.14835 -4.0013,-12.21636 -1.45793,-14.72173 0.60708,-0.59808 1.40897,-0.91268 2.18678,-0.89767 z"
     id="path9066" />
</svg>
