<?xml version="1.0" encoding="UTF-8" standalone="no"?>
<!-- Created with Inkscape (http://www.inkscape.org/) -->

<svg
   xmlns:dc="http://purl.org/dc/elements/1.1/"
   xmlns:cc="http://creativecommons.org/ns#"
   xmlns:rdf="http://www.w3.org/1999/02/22-rdf-syntax-ns#"
   xmlns:svg="http://www.w3.org/2000/svg"
   xmlns="http://www.w3.org/2000/svg"
   xmlns:sodipodi="http://sodipodi.sourceforge.net/DTD/sodipodi-0.dtd"
   xmlns:inkscape="http://www.inkscape.org/namespaces/inkscape"
   width="1000"
   height="1000"
   id="svg2"
   version="1.1"
   inkscape:version="0.47 r22583"
   sodipodi:docname="K.svg">
  <defs
     id="defs4">
    <inkscape:perspective
       sodipodi:type="inkscape:persp3d"
       inkscape:vp_x="0 : 526.18109 : 1"
       inkscape:vp_y="0 : 1000 : 0"
       inkscape:vp_z="744.09448 : 526.18109 : 1"
       inkscape:persp3d-origin="372.04724 : 350.78739 : 1"
       id="perspective10" />
    <inkscape:perspective
       id="perspective2940"
       inkscape:persp3d-origin="0.5 : 0.33333333 : 1"
       inkscape:vp_z="1 : 0.5 : 1"
       inkscape:vp_y="0 : 1000 : 0"
       inkscape:vp_x="0 : 0.5 : 1"
       sodipodi:type="inkscape:persp3d" />
    <inkscape:perspective
       id="perspective2953"
       inkscape:persp3d-origin="0.5 : 0.33333333 : 1"
       inkscape:vp_z="1 : 0.5 : 1"
       inkscape:vp_y="0 : 1000 : 0"
       inkscape:vp_x="0 : 0.5 : 1"
       sodipodi:type="inkscape:persp3d" />
    <inkscape:perspective
       id="perspective2966"
       inkscape:persp3d-origin="0.5 : 0.33333333 : 1"
       inkscape:vp_z="1 : 0.5 : 1"
       inkscape:vp_y="0 : 1000 : 0"
       inkscape:vp_x="0 : 0.5 : 1"
       sodipodi:type="inkscape:persp3d" />
    <inkscape:perspective
       id="perspective2979"
       inkscape:persp3d-origin="0.5 : 0.33333333 : 1"
       inkscape:vp_z="1 : 0.5 : 1"
       inkscape:vp_y="0 : 1000 : 0"
       inkscape:vp_x="0 : 0.5 : 1"
       sodipodi:type="inkscape:persp3d" />
    <inkscape:perspective
       id="perspective2992"
       inkscape:persp3d-origin="0.5 : 0.33333333 : 1"
       inkscape:vp_z="1 : 0.5 : 1"
       inkscape:vp_y="0 : 1000 : 0"
       inkscape:vp_x="0 : 0.5 : 1"
       sodipodi:type="inkscape:persp3d" />
    <inkscape:perspective
       id="perspective3005"
       inkscape:persp3d-origin="0.5 : 0.33333333 : 1"
       inkscape:vp_z="1 : 0.5 : 1"
       inkscape:vp_y="0 : 1000 : 0"
       inkscape:vp_x="0 : 0.5 : 1"
       sodipodi:type="inkscape:persp3d" />
    <inkscape:perspective
       id="perspective3018"
       inkscape:persp3d-origin="0.5 : 0.33333333 : 1"
       inkscape:vp_z="1 : 0.5 : 1"
       inkscape:vp_y="0 : 1000 : 0"
       inkscape:vp_x="0 : 0.5 : 1"
       sodipodi:type="inkscape:persp3d" />
    <inkscape:perspective
       id="perspective3031"
       inkscape:persp3d-origin="0.5 : 0.33333333 : 1"
       inkscape:vp_z="1 : 0.5 : 1"
       inkscape:vp_y="0 : 1000 : 0"
       inkscape:vp_x="0 : 0.5 : 1"
       sodipodi:type="inkscape:persp3d" />
    <inkscape:perspective
       id="perspective3044"
       inkscape:persp3d-origin="0.5 : 0.33333333 : 1"
       inkscape:vp_z="1 : 0.5 : 1"
       inkscape:vp_y="0 : 1000 : 0"
       inkscape:vp_x="0 : 0.5 : 1"
       sodipodi:type="inkscape:persp3d" />
    <inkscape:perspective
       id="perspective3057"
       inkscape:persp3d-origin="0.5 : 0.33333333 : 1"
       inkscape:vp_z="1 : 0.5 : 1"
       inkscape:vp_y="0 : 1000 : 0"
       inkscape:vp_x="0 : 0.5 : 1"
       sodipodi:type="inkscape:persp3d" />
  </defs>
  <sodipodi:namedview
     id="base"
     pagecolor="#ffffff"
     bordercolor="#666666"
     borderopacity="1.0"
     inkscape:pageopacity="0.0"
     inkscape:pageshadow="2"
     inkscape:zoom="0.532"
     inkscape:cx="500"
     inkscape:cy="500"
     inkscape:document-units="px"
     inkscape:current-layer="svg2"
     showgrid="false"
     showborder="true"
     inkscape:showpageshadow="false"
     showguides="true"
     inkscape:guide-bbox="true"
     inkscape:window-width="1280"
     inkscape:window-height="750"
     inkscape:window-x="0"
     inkscape:window-y="26"
     inkscape:window-maximized="1">
    <sodipodi:guide
       orientation="0,1"
       position="0,200"
       id="guide2818" />
  </sodipodi:namedview>
  <metadata
     id="metadata7">
    <rdf:RDF>
      <cc:Work
         rdf:about="">
        <dc:format>image/svg+xml</dc:format>
        <dc:type
           rdf:resource="http://purl.org/dc/dcmitype/StillImage" />
        <dc:title></dc:title>
      </cc:Work>
    </rdf:RDF>
  </metadata>
  <g
     inkscape:label="Layer 1"
     inkscape:groupmode="layer"
     id="layer1" />
  <path
     style="fill:#800000"
     d="M 0,0 0,6.0350306 0,793.78743 0,800 l 6.1504438,0 724.8459762,0 6.15044,0 0,-6.21257 0,-787.7523994 L 737.14686,0 730.99642,0 6.1504438,0 0,0 z m 239.14313,12.070177 425.46483,0 c 32.9815,0.286368 57.74078,0.715284 58.61005,1.242467 1.00685,0.610552 1.47791,174.786616 1.08531,387.131086 l -0.7236,386.06609 -59.15258,1.24252 -301.73282,0 C 306.62134,787.30663 259.77738,786.86126 200.06979,786.50982 98.258143,785.91064 14.436349,784.97856 12.481773,784.37984 l 0,-689.771445 C 12.853589,30.882297 13.256179,16.458188 15.014281,14.73259 16.230363,13.539429 115.39126,12.615892 239.14313,12.070177 z m 230.27924,8.520022 c -200.21673,-0.0057 -440.957804,2.732158 -442.8308,4.970043 -2.9228,3.491725 -7.1928,735.980488 -4.341534,744.796928 1.812548,5.60236 16.988719,6.11176 206.401174,7.45509 90.19238,0.63965 164.1234,1.29379 164.4335,1.59754 0.5531,0.54156 69.52828,0.49191 181.43757,-0.17725 46.01736,-0.2754 56.7311,-0.88069 57.70556,-3.3725 2.54336,-6.50425 -3.67469,-20.738 -13.02449,-29.64283 -13.94658,-13.28245 -26.31958,-18.15965 -45.76638,-18.28263 -8.92418,-0.0577 -16.28054,-1.00564 -16.28054,-2.13009 -1.2e-4,-1.1244 2.04932,-4.93459 4.52236,-8.34255 l 4.52231,-6.21256 -5.60768,-10.29504 c -3.08677,-5.69757 -5.52413,-11.9151 -5.42678,-13.8452 0.10392,-2.07236 1.07624,-1.2834 2.35156,1.9525 1.18773,3.01379 7.00447,9.11037 13.02443,13.66766 l 10.85369,8.3426 9.76832,-4.43755 c 15.1801,-6.93588 28.36318,-11.00259 31.65665,-9.7626 1.66514,0.62694 3.99154,3.39299 5.2459,6.03514 2.22593,4.6887 2.31906,4.63362 3.79882,0.35507 0.83439,-2.41091 2.49717,-6.10009 3.61793,-8.16512 1.56573,-2.88429 1.28265,-3.44478 -1.26631,-2.48493 -1.82525,0.68711 -3.25611,0.26962 -3.25611,-1.06499 -1.1e-4,-1.33456 1.77941,-2.48517 3.97971,-2.48511 2.19966,-6e-5 8.92111,-5.64976 15.01428,-12.42508 19.95644,-22.19264 22.76648,-24.57163 28.94314,-26.09273 3.88559,-0.95691 8.74167,-0.30542 13.5672,1.9525 6.99118,3.27135 7.59752,4.40775 7.59752,13.66766 6e-5,5.52343 -0.89819,11.86637 -2.17068,14.20009 -2.63268,4.82588 -15.77396,10.82754 -23.69723,10.82765 -6.30668,6e-5 -6.79015,1.80666 -1.4472,5.68002 5.63019,4.08172 1.56867,6.90764 -12.30083,8.69756 -8.13169,1.04957 -11.75812,0.82821 -11.75812,-0.88751 -1.1e-4,-1.36077 2.06526,-2.48505 4.52231,-2.48499 2.45693,5e-5 4.52236,-0.92458 4.52236,-2.12998 -1.2e-4,-2.89312 -3.62463,-2.85167 -12.66266,0.35507 -7.81496,2.77309 -9.7928,7.10932 -4.16053,9.23017 7.67466,2.88966 -0.24884,12.24754 -10.31104,12.2476 -8.46996,-6e-5 -8.14278,2.61778 0.54272,6.39004 14.30344,6.21275 19.52267,25.2759 10.85369,39.22785 -2.45249,3.94703 -4.34142,8.15017 -4.34142,9.40765 -1.7e-4,2.43158 72.04797,2.09002 74.52869,-0.35508 1.8297,-1.80354 2.38032,-38.82277 2.17074,-160.99402 -0.0993,-57.86352 -0.20381,-123.4274 -0.18071,-145.72888 0.0231,-22.30153 -0.16108,-132.38586 -0.362,-244.77476 l -0.18072,-204.481931 -244.2082,0 z M 288.52745,36.387835 c 2.26185,-0.290986 5.11432,2.499657 9.94921,9.230054 8.01403,11.156455 20.49782,17.445175 43.95747,22.010261 8.1784,1.591478 18.58522,4.549208 23.33546,6.567525 14.89789,6.329539 16.88619,2.638395 5.06502,-9.762606 -8.87844,-9.313423 -10.00238,-11.696859 -7.95941,-15.442563 1.35066,-2.476332 4.64395,-4.260127 7.59764,-4.260069 9.03907,-5.8e-5 28.03871,26.598614 28.03871,39.227901 -6e-5,2.405375 3.9696,7.288525 8.68295,11.005073 9.44212,7.445679 37.32269,22.109389 50.83152,26.625229 l 8.68289,2.83995 -6.69304,1.5976 c -12.58454,2.79936 -26.85074,1.1767 -32.38024,-3.55004 -1.84269,-1.57537 -8.18712,-5.10318 -14.1098,-7.81005 -5.92273,-2.70698 -12.34338,-7.20198 -14.29068,-10.11762 -3.02459,-4.52946 -22.10483,-15.975231 -26.59157,-15.975173 -0.81499,-5.8e-5 -0.9673,4.317285 -0.362,9.585069 1.2483,10.865064 -1.15321,16.685204 -6.87404,16.685264 -6.10201,0 -9.22561,-4.56601 -9.22561,-13.3127 l 0,-7.987591 -17.36596,-2.840008 c -14.59657,-2.302894 -18.24759,-3.654886 -23.33541,-9.230111 -3.69767,-4.051586 -7.3279,-6.107835 -9.40661,-5.325057 -4.33778,1.633336 -7.36774,12.855205 -3.7987,14.022616 3.83294,1.253668 3.0094,5.999581 -1.62814,10.117621 -2.24643,1.99511 -4.64269,3.55004 -5.24585,3.5501 -3.43433,0 -16.7542,-14.468454 -18.81316,-20.412782 -2.27824,-6.57809 -3.14739,-7.124961 -15.55693,-8.342486 -7.26561,-0.712918 -17.92912,-3.432951 -23.69724,-6.035146 -14.08301,-6.353211 -15.19516,-6.050273 -15.19516,3.727575 0,7.840187 -4.95925,15.797578 -9.94927,15.797636 -3.08607,-5.8e-5 -7.70422,-7.561499 -7.77847,-12.602555 -0.0606,-4.060478 -1.69257,-4.905783 -10.6728,-6.035089 -5.83567,-0.733818 -15.00568,-3.326255 -20.26024,-5.680073 -14.92422,-6.686055 -19.25813,-5.334179 -13.92886,4.437548 1.22405,2.244409 1.51435,5.788674 0.72354,7.810108 -1.16747,2.986136 -3.04485,3.373714 -10.49186,2.129977 -5.04111,-0.841726 -16.74652,-1.968376 -25.86797,-2.48505 -15.62443,-0.88497 -51.606501,-10.877997 -56.620191,-15.797636 -2.625809,-2.576792 1.744304,-10.511204 7.416756,-13.490123 3.409106,-1.790261 6.719831,-1.103787 15.014281,3.017486 13.735384,6.824852 31.271554,11.620418 39.073284,10.650173 4.67605,-0.581627 6.15039,-2.055844 6.15039,-5.857552 -6e-5,-2.74688 1.97513,-6.596046 4.34147,-8.697617 4.02925,-3.57804 5.42165,-3.586411 21.34567,-0.355073 9.35309,1.897938 18.70156,4.241536 20.80284,5.325058 2.10071,1.083463 9.1076,2.69538 15.55705,3.550038 11.32239,1.500256 11.75812,1.33802 11.75812,-3.727575 6e-5,-12.297423 9.35851,-13.573666 20.62201,-2.840007 9.16383,8.73272 23.25192,14.153907 36.54084,14.200095 5.03782,0.01732 12.34857,1.14016 16.28053,2.485166 9.36354,3.202875 10.64844,1.552968 4.88419,-6.390104 -5.23909,-7.219705 -5.78977,-11.801129 -2.35168,-18.105149 1.28675,-2.359245 2.44105,-3.553041 3.79882,-3.727575 z m 361.97072,56.62302 c 5.77418,0.08545 11.27302,1.36527 16.09965,3.904996 9.87218,5.195269 16.85223,22.630859 14.83339,37.275399 -2.28546,16.58319 -14.14224,36.80423 -27.49605,47.03795 -16.11882,12.35274 -24.17228,14.68098 -54.81117,16.15266 l -26.22968,1.41994 0,10.8276 c 0,9.22774 -0.54271,10.55254 -3.25616,8.34265 -1.76423,-1.43645 -3.89819,-5.63313 -4.70325,-9.23011 -1.54033,-6.88212 -4.79938,-7.28413 -8.68295,-1.24252 -1.6144,2.51091 -1.51129,6.20327 0.18071,12.42513 3.034,11.15299 -0.2627,10.97384 -7.95941,-0.53232 -4.29645,-6.42307 -6.0751,-7.51202 -9.22561,-5.85755 -8.30871,4.36318 -11.32418,23.95456 -5.42685,35.14531 3.87838,7.35971 3.02361,7.86877 -4.52242,3.01754 -5.6258,-3.61724 -10.13009,-13.54295 -10.13009,-22.18774 -1.1e-4,-6.18468 -1.58079,-6.40263 -8.32118,-0.88745 -7.18316,5.87776 -7.81576,24.83919 -1.08537,36.03282 6.0128,9.99932 2.33182,10.27541 -7.59752,0.53232 -5.37061,-5.26969 -7.59764,-9.57277 -7.59764,-14.37757 5e-5,-4.77178 -1.10362,-6.74518 -3.61788,-6.74512 -3.08129,0 -3.27499,2.54077 -2.35163,18.10515 0.58948,9.94534 1.66533,20.59395 2.53251,23.6078 1.49143,5.18089 1.26678,5.17027 -5.24596,-1.59754 -4.46266,-4.63731 -6.87398,-9.51382 -6.87398,-13.6676 -6e-5,-7.53015 -3.89414,-10.87303 -5.96956,-5.14758 -0.79178,2.18598 -3.12326,5.77516 -5.06502,7.98753 -2.42194,2.76056 -3.40951,8.51535 -3.43705,18.28274 -0.0346,11.61736 0.77914,14.83565 4.34154,17.39518 6.77999,4.87137 18.86321,7.44175 34.91269,7.45503 12.70244,0.0115 15.27808,-0.68768 19.71753,-5.32505 4.50504,-4.70521 5.0399,-7.06428 4.16065,-18.99266 l -0.90454,-13.6676 5.06507,6.39004 c 7.48823,9.18271 7.40088,27.99379 -0.18071,35.85534 -4.79101,4.96802 -6.83894,13.08251 -5.9695,23.60769 0.12471,1.50932 3.1329,2.83995 6.69304,2.84001 3.83202,-6e-5 6.9745,1.3166 7.77847,3.37256 1.9667,5.02881 1.84332,5.325 -3.07517,5.32505 -2.45722,0 -4.5223,-0.92463 -4.5223,-2.13003 -1.1e-4,-5.45265 -5.89918,-1.35823 -9.94932,6.9226 -2.45688,5.0235 -5.87741,9.57652 -7.59758,10.11756 -2.4115,0.75841 -2.2999,-0.10046 0.54271,-4.08253 4.65128,-6.51597 4.73252,-20.34148 0.18071,-27.15778 -4.58864,-6.87203 -18.75386,-12.31082 -28.21954,-10.8276 -9.52381,1.49223 -27.99702,-5.99496 -34.73192,-14.02256 -2.7101,-3.22995 -5.4877,-5.08794 -6.33127,-4.26007 -0.84427,0.82787 -0.4463,2.98175 1.08531,4.79257 2.25151,2.66206 2.01803,6.27492 -1.80891,18.63764 -2.60329,8.409 -6.62896,16.54237 -8.86384,18.10515 -17.05078,11.92387 -24.35403,22.58323 -8.86384,12.95763 11.27014,-7.00343 16.38319,-13.49723 20.62196,-26.09268 4.41924,-13.1317 8.46598,-14.48098 20.80295,-7.10008 5.49653,3.2885 7.4167,5.85016 7.4167,10.65006 1.2e-4,3.48659 1.54194,7.68725 3.43699,9.23011 4.31019,3.51038 3.68405,30.69887 -0.7236,32.12783 -1.93696,0.62793 -2.4414,-0.81298 -1.62802,-5.14758 1.51232,-8.06305 -3.5953,-27.64167 -7.59753,-28.9328 -2.37235,-0.76535 -2.89237,0.50634 -1.80902,5.325 0.78041,3.47255 2.10353,11.3677 2.89434,17.39523 0.79074,6.02741 2.4515,12.03496 3.61787,13.49006 1.3983,1.7446 0.89,4.35817 -1.44714,7.63258 -3.4964,4.89787 -3.63491,4.86098 -3.79887,-3.72746 -0.32967,-17.31868 -2.60208,-25.20535 -7.59747,-25.20529 -2.66715,0 -3.15963,1.35459 -1.98991,4.9701 2.90305,8.97596 4.80417,31.16624 2.89433,33.19276 -2.55283,2.709 -3.94327,-1.78455 -4.7033,-14.91013 -0.38798,-6.70372 -1.73166,-11.10524 -3.61788,-11.71505 -2.43615,-0.78774 -2.99503,2.57553 -2.35162,17.21759 l 0.90448,18.28268 -11.03457,4.08254 c -15.22236,5.59098 -19.98664,3.9939 -22.61187,-7.63258 -2.57869,-11.41834 -6.49414,-10.44353 -6.51227,1.59749 -0.0115,7.93123 -0.59346,8.78023 -6.15044,9.40759 -5.92147,0.66857 -6.15039,0.41742 -6.15039,-9.40759 6e-5,-7.17975 -0.92723,-10.05209 -2.89428,-9.40754 -1.62952,0.53406 -2.39019,3.62325 -1.98991,7.4551 0.99421,9.49835 -2.72096,11.06021 -20.8029,8.69761 -8.59964,-1.12364 -15.94676,-2.24261 -16.28053,-2.4851 -0.33313,-0.24249 0.26962,-2.79273 1.4472,-5.68002 1.66942,-4.09593 2.24158,-4.37762 2.35156,-1.24247 0.21536,6.10357 5.70663,3.13123 6.51227,-3.55015 0.71529,-5.92718 -2.80935,-8.24087 -4.88419,-3.19497 -0.74732,1.81665 -1.14916,1.54818 -1.26619,-0.70997 -0.26385,-5.09879 12.86721,-16.51667 25.50614,-22.18774 10.49077,-4.70769 10.79746,-4.9847 4.88413,-5.68001 -4.46202,-0.52482 -10.29181,1.81162 -20.0793,8.165 -16.96897,11.01518 -23.87817,16.57603 -23.87817,19.34774 6e-5,1.16591 -1.60638,3.47908 -3.43694,4.97004 -2.72165,2.21641 -4.3122,1.75204 -8.86395,-2.48505 -3.06183,-2.85017 -5.58631,-5.86541 -5.60767,-6.74506 -0.0231,-0.87966 3.94916,-3.75263 8.86389,-6.21257 4.91398,-2.45999 9.04467,-5.27056 9.04467,-6.39005 6e-5,-2.73758 -16.1392,3.76078 -19.3557,7.81011 -2.16843,2.72968 -3.23682,2.32616 -7.23587,-2.66253 -2.58903,-3.22978 -4.70325,-6.44841 -4.70325,-7.27755 -6e-5,-0.82926 4.42092,-3.85835 9.94927,-6.56764 5.52892,-2.70924 10.13009,-6.02591 10.13009,-7.2775 6e-5,-3.1157 -11.28394,-0.1582 -16.28054,4.26001 -2.43008,2.14903 -4.70255,2.84307 -5.96956,1.59754 -2.23701,-2.19943 -20.32854,-36.72016 -19.53664,-37.2754 2.17882,-1.52774 23.39262,-7.63263 26.59151,-7.63257 2.23829,0 3.97919,-0.9382 3.97971,-2.30752 0,-3.21367 -18.29262,-0.95558 -27.13423,3.37256 -5.14019,2.51617 -6.33133,2.50422 -6.33133,0.17725 -5e-5,-1.58507 2.5365,-3.50373 5.60773,-4.26001 3.07124,-0.75639 5.60779,-2.65774 5.60779,-4.26007 0,-3.56366 17.20777,-10.6463 18.99399,-7.81011 0.6956,1.10506 0.21593,1.95244 -1.08543,1.9525 -1.30107,6e-5 -2.35162,0.96251 -2.35162,2.13009 6e-5,1.16753 1.27035,1.67647 2.89434,1.06499 1.62381,-0.61159 4.16694,1.14622 5.60773,3.90511 1.44021,2.75889 8.2497,12.43645 15.01434,21.47765 6.76515,9.04121 12.83621,18.04251 13.56708,20.05771 1.42872,3.9349 14.52953,11.14277 16.46142,9.05252 0.64121,-0.69369 -0.0115,-1.74223 -1.62802,-2.30746 -1.61827,-0.56523 -5.74913,-3.3643 -9.04478,-6.21262 -5.83625,-5.04302 -5.89832,-5.08003 -1.08537,-5.14747 11.78981,-0.16512 29.27898,-9.11498 40.33959,-20.59025 16.19619,-16.8038 19.87815,-36.32052 12.6626,-67.45062 -3.24404,-13.99403 -3.24398,-15.73262 0,-20.59014 1.95216,-2.92372 3.61788,-8.71344 3.61788,-12.95774 0,-7.32623 0.50576,-7.91698 10.13015,-10.29504 5.57569,-1.37757 9.52601,-3.07806 8.86384,-3.72752 -0.66159,-0.64941 -12.86208,-1.38213 -27.13423,-1.77502 -14.27163,-0.39318 -30.0613,-1.86538 -35.09364,-3.19508 -12.89111,-3.40605 -25.07087,-15.88349 -27.13422,-27.86776 -1.8103,-10.51299 0.0964,-14.63588 3.9797,-8.34254 13.70837,22.21355 16.46339,23.50532 49.20338,24.31777 13.7288,0.34064 28.73298,1.74592 33.46561,3.19497 7.79781,2.38753 8.64739,3.24369 7.77853,9.05263 -0.5277,3.52568 -0.46362,6.38999 0.36142,6.39005 1.76255,-6e-5 9.04478,-7.39164 9.04478,-9.23006 6e-5,-1.80279 -28.57917,-15.95871 -38.71151,-19.17019 -4.68974,-1.48634 -8.07275,-3.08406 -7.59758,-3.55004 1.01233,-0.99357 30.46983,4.52352 41.78673,7.80999 12.29454,3.57083 12.35187,2.95438 -0.54271,-11.53762 -6.70361,-7.53431 -13.17212,-16.02171 -14.1098,-18.99255 -1.47208,-4.66335 -0.0577,-4.07046 9.58744,4.43744 8.38579,7.3981 15.42905,11.15177 28.21965,15.08766 9.37029,2.88365 17.54777,4.61404 18.27033,3.90505 1.65049,-1.6193 -2.68227,-10.06537 -8.32118,-16.15265 -4.27779,-4.61803 -4.26671,-4.60729 3.07522,-5.68007 4.04749,-0.59139 31.47709,-0.68965 60.96167,-0.17725 29.48515,0.51211 58.33193,1.00506 64.03677,1.06499 16.73619,0.17609 33.39904,-8.47649 43.05299,-22.5427 12.50192,-18.21652 9.82421,-32.66049 -5.9695,-32.66037 -6.28681,5e-5 -21.66142,9.02255 -23.69729,13.84525 -0.43763,1.03635 -5.21975,6.61654 -10.6728,12.42502 -9.64824,10.27812 -10.38494,10.45404 -26.04886,11.8927 -9.82427,0.90234 -20.49782,0.65882 -27.31511,-0.88757 -13.147,-2.98192 -29.2709,-5.37206 -70.36816,-9.94009 -16.58509,-1.84355 -35.47308,-4.13813 -42.14851,-5.325 -6.67555,-1.18686 -16.74271,-2.30768 -22.25009,-2.30757 -5.5075,0 -9.35719,-0.58099 -8.50201,-1.42 0.85506,-0.83895 25.95936,-1.68155 55.71559,-1.77502 30.85112,-0.097 54.53617,-0.96817 55.17293,-2.12998 0.61425,-1.12076 -4.92974,-3.94806 -12.30083,-6.21262 -7.37126,-2.26439 -15.16733,-5.06513 -17.3659,-6.21245 -2.19868,-1.1475 -12.81548,-5.25543 -23.51641,-9.05269 -16.73809,-5.93937 -33.82732,-13.91604 -33.82732,-15.797581 -6e-5,-1.147781 44.11815,10.023741 71.09176,17.927671 l 27.67688,7.98759 5.9695,-6.9226 c 6.85655,-8.16622 26.45404,-15.781184 40.88231,-15.797638 5.25219,-0.0058 14.17931,1.538592 19.89847,3.550038 10.28563,3.61707 10.58401,3.64415 22.61181,-2.130035 8.14399,-3.90973 16.09249,-5.78977 23.51634,-5.680072 z m -513.1989,1.242467 c 5.80547,0.08834 9.88466,5.281294 17.90862,20.057758 10.95334,20.17231 19.19998,26.8026 33.46555,26.80271 8.73601,-5e-5 10.68008,-1.08837 19.89847,-10.47257 5.89173,-5.99791 12.59551,-15.91479 15.55688,-23.07531 2.84913,-6.88779 6.10143,-12.425078 7.23581,-12.425021 1.13503,0 6.23763,1.945801 11.21552,4.437548 8.05849,4.034153 8.74034,5.236433 7.4167,10.472633 -0.81823,3.23423 -3.57469,8.11998 -6.15044,10.8276 -6.61556,6.95464 -3.98311,7.80497 10.31103,3.72751 9.96561,-2.84283 14.84997,-3.04427 24.7826,-1.24252 15.21128,2.75929 19.47822,4.8048 34.00827,16.86268 20.12376,16.69981 25.75568,38.14744 16.0996,60.173 -4.21458,9.61221 -5.80796,10.96391 -15.73788,14.20021 -16.83624,5.48718 -37.82031,0.0797 -40.70131,-10.47263 -3.71857,-13.62119 1.492,-24.27303 13.20531,-27.15779 7.32438,-1.80371 7.08091,-7.21849 -0.72354,-14.55511 -7.77541,-7.30954 -25.24847,-8.82088 -34.55098,-2.84 -7.44869,4.78886 -16.77845,16.71574 -18.27039,23.4302 -4.02982,18.13344 -4.92443,374.97765 -1.08531,421.7439 2.68406,32.70801 4.52501,41.26389 11.57723,51.65304 7.52131,11.08053 19.61239,16.08908 41.42496,17.04016 l 18.45122,0.71003 3.25611,7.45503 c 4.71618,11.0754 10.13015,9.85839 10.13015,-2.30751 -6e-5,-9.65603 0.0346,-9.81162 9.40655,-12.24766 26.90045,-6.99032 66.92851,-20.87933 79.77465,-27.69027 31.52374,-16.71298 58.28886,-39.40215 85.74421,-72.77567 12.77011,-15.52247 36.28028,-62.08682 42.32945,-83.60321 1.8637,-6.63028 6.1878,-21.84797 9.58744,-33.90284 6.08647,-21.58002 6.19923,-22.93207 6.51215,-88.75079 0.38452,-80.77677 1.99523,-91.22342 16.28054,-108.80855 10.30976,-12.69199 33.90492,-17.1879 51.0124,-9.76266 13.39319,5.81338 17.89118,9.95342 23.51635,20.76768 3.88404,7.46779 4.08721,9.74211 1.80891,18.63776 -2.86882,11.2012 -7.02594,16.696 -16.09959,21.30017 -12.87051,6.53057 -28.55065,0.95974 -31.65671,-11.18267 -2.37021,-9.26625 -5.29024,-6.16609 -6.69304,7.10014 -0.73347,6.9316 -1.55764,70.6999 -1.80896,141.82376 -0.48845,138.40317 1.25395,176.19952 9.40655,196.49441 2.40196,5.97966 4.5223,11.58895 4.5223,12.60261 0,1.01378 -5.54393,5.21178 -12.30083,9.23011 -6.75672,4.01822 -12.30083,8.10185 -12.30083,9.05252 0,2.20284 -8.41229,2.37125 -9.40655,0.17725 -0.40935,-0.90408 -4.39517,-4.95729 -9.04472,-8.87504 -6.73115,-5.67147 -10.54019,-7.10019 -18.27039,-7.10002 -8.43521,6e-5 -10.47518,0.91736 -15.55694,7.45503 -3.21765,4.13883 -5.79306,9.34761 -5.78867,11.53769 0.0173,7.3649 8.54121,17.85174 21.70744,26.62517 19.1624,12.76889 19.66464,13.82891 13.02442,23.43026 -3.06529,4.4323 -6.12394,9.92785 -6.87398,12.24754 -1.45615,4.50204 -9.7958,5.831 -13.5672,2.13004 -5.10104,-5.00532 -44.50313,-19.93196 -60.59978,-22.8976 -27.16673,-5.00543 -81.89695,-6.60338 -120.11425,-3.5501 -18.42783,1.47226 -37.59618,3.03493 -42.51028,3.37256 -17.4924,1.20188 -49.3017,5.45254 -56.98196,7.63252 -4.29159,1.21821 -11.16419,2.12997 -15.37599,2.13003 -4.21082,-6e-5 -9.69321,1.79534 -12.12,3.905 -4.34939,3.78075 -4.34881,3.63514 -3.07523,-8.87504 3.13683,-30.79933 -19.10882,-45.94075 -47.03269,-31.95029 -8.4665,4.24188 -11.96724,8.00531 -17.72768,18.46022 -3.95776,7.1842 -7.20117,14.6815 -7.23575,16.68509 -0.13741,7.95936 -25.57768,6.77433 -49.74615,-2.30757 -6.57861,-2.47212 -18.884694,-17.70943 -20.983782,-25.9152 -2.675346,-10.45999 1.302339,-25.2405 9.044722,-32.8378 6.365278,-6.2457 8.55657,-7.06006 15.01428,-5.85749 11.29144,2.10255 13.1895,4.44915 12.66266,16.33002 -0.73243,16.51147 3.26973,18.46189 14.1098,6.56764 13.93994,-15.2958 23.45312,-37.2817 26.77245,-61.59312 3.07343,-22.50777 4.61514,-334.78603 1.98986,-402.21875 -1.21089,-31.08939 -1.93853,-36.15701 -6.69322,-45.44041 -4.91796,-9.60193 -6.34149,-10.74982 -17.72767,-13.84514 -6.82942,-1.85665 -15.31336,-4.22254 -18.81305,-5.32505 -4.12173,-1.29848 -7.97869,-1.33214 -10.85363,0.17724 -5.97441,3.13769 -3.795184,4.61405 7.41664,5.14758 7.62518,0.36258 10.71518,1.98033 16.82319,8.52008 8.25051,8.83364 9.03514,13.29538 4.34153,24.31772 -3.72965,8.75853 -14.97583,13.30444 -28.40053,11.53762 -10.242276,-1.34806 -15.565024,-6.57653 -23.335409,-23.07519 -12.871487,-27.32879 3.492187,-51.91844 36.540719,-54.67058 10.87534,-0.90558 11.91019,-1.43882 10.67286,-5.68001 -4.27352,-14.65182 -4.21128,-15.516813 3.25605,-18.282688 2.5522,-0.945188 4.75804,-1.449334 6.69316,-1.420062 z m 447.71498,14.200158 c -12.5738,0.40588 -29.83468,6.0173 -31.83753,12.42519 -1.36815,4.37894 8.35975,3.22164 14.8334,-1.77508 4.34061,-3.34993 8.66956,-4.50007 17.00413,-4.25995 15.33841,0.44167 15.45573,0.35738 12.30083,-3.37256 -1.9529,-2.30919 -6.58553,-3.20207 -12.30083,-3.0176 z m -7.77852,8.87509 c -5.8381,0.19111 -5.79393,3.51032 0.362,9.94009 7.09274,7.40832 11.34104,6.51383 10.49192,-2.13004 -0.61523,-6.26349 -1.57647,-7.20608 -7.95935,-7.81005 -1.07833,-0.10219 -2.06006,-0.0289 -2.89434,0 z m -19.35576,67.80569 c -0.66754,0.071 -1.64979,0.29734 -2.89434,0.53232 -18.53764,3.4994 -54.42837,12.66433 -65.30308,16.68514 -14.70118,5.4358 -32.92377,20.70902 -40.70131,33.90285 -5.20445,8.82844 -10.6616,34.59365 -8.50207,40.11541 2.53355,6.47878 4.43091,1.70192 5.42685,-13.13522 0.8766,-13.05174 2.47217,-17.80164 8.32118,-26.80277 14.23352,-21.90541 33.75348,-32.91667 72.53884,-40.64785 14.49172,-2.88868 27.99437,-6.52936 30.02856,-8.16501 2.4731,-1.98881 3.08879,-2.69872 1.08537,-2.48505 z M 99.854009,208.03191 c 1.663991,-0.0115 2.610161,1.74044 2.170741,5.85761 -0.73694,6.91059 0.54329,7.39297 11.21546,3.01749 8.58705,-3.52036 17.3659,-2.36542 17.3659,2.30757 0,1.88708 -2.46478,3.01743 -6.51221,3.01749 -4.51878,-6e-5 -8.28198,2.05855 -12.30083,6.745 -6.79258,7.92171 -6.94795,8.29457 -2.35163,14.73271 2.91686,4.08651 4.90296,4.71213 11.21547,3.55003 17.15257,-3.15755 24.35894,4.92213 8.86383,9.94009 -7.80179,2.52667 -18.67205,12.38599 -16.28053,14.73259 0.79403,0.77925 2.77644,0.31581 4.34153,-0.88745 5.62499,-4.32358 24.2993,-7.5428 27.67688,-4.79257 4.56699,3.71921 4.04154,4.882 -4.52236,9.40759 -9.24356,4.88471 -17.67421,16.31091 -22.61186,30.53034 -3.07465,8.85455 -3.31032,13.38817 -1.26632,30.35275 1.32324,10.97713 1.76792,20.92691 1.08543,22.01015 -0.68237,1.08346 -0.0404,3.38745 1.44714,5.14752 1.91595,2.26496 2.56178,10.42315 1.80897,27.86781 -0.87723,20.30516 -2.34695,27.21806 -7.41676,39.40544 -3.38572,8.13706 -7.0316,14.73253 -8.14024,14.73264 -1.10811,-5e-5 -0.77602,-1.904 0.7236,-4.26001 1.49968,-2.35618 2.05972,-4.9018 1.26626,-5.68007 -2.34603,-2.30197 -6.15045,1.10269 -6.15045,5.50248 6e-5,4.2894 -11.293862,28.30556 -19.89841,42.24544 -5.609809,9.08907 -7.498855,9.73507 -16.46142,5.14753 -11.822838,-6.05155 -11.887329,-6.68756 -1.808968,-7.81005 l 9.768321,-1.06505 -5.60773,-6.56753 c -7.143552,-8.31246 -9.898284,-29.54924 -5.24596,-39.58291 l 2.894337,-6.56753 1.628024,6.56753 c 3.772436,15.95387 10.908828,31.71934 13.386257,29.28781 1.350028,-1.3245 14.652453,-48.98496 14.652453,-52.54054 0,-1.04345 -1.413249,-1.9525 -3.256107,-1.95244 -1.842801,0 -3.436992,1.52629 -3.436992,3.3725 -5.8e-5,1.84604 -1.830042,4.04449 -3.979648,4.79257 -2.1503,0.74813 -5.628342,2.80311 -7.778527,4.61502 -3.50691,2.95548 -3.798762,2.99705 -3.798762,-0.35507 -5.8e-5,-2.05492 1.505106,-6.80713 3.436992,-10.47258 2.918874,-5.53874 4.388011,-6.47191 9.044665,-5.325 4.572649,1.12619 5.545261,0.71552 4.884189,-2.48505 -0.668172,-3.23284 -2.791683,-3.84264 -11.939001,-3.3725 -13.714425,0.70495 -28.496552,-6.52105 -29.666792,-14.55517 -0.660436,-4.52946 -0.226323,-4.95544 4.341476,-3.54998 2.872282,0.8837 8.192432,2.00862 11.758174,2.66253 5.983069,1.09709 6.382194,0.74403 4.88419,-4.08253 -6.424168,-20.70429 -6.55286,-62.67844 -0.180712,-61.77066 6.057836,0.8632 10.832732,11.91648 11.034575,25.73778 0.246531,16.89039 1.635646,19.16303 5.426845,8.87509 1.544251,-4.18899 3.713892,-7.63263 4.703247,-7.63263 2.663799,0 4.329698,-19.81071 2.170796,-25.3827 C 91.412391,316.85813 83.8405,307.10332 75.614235,297.8478 63.123917,283.79516 60.446146,279.50646 59.514585,271.39999 c -1.347777,-11.73577 1.43028,-12.53096 7.235813,-1.95244 5.885322,10.72252 14.064936,19.7464 16.09965,17.75014 0.92446,-0.90703 0.403571,-3.51782 -1.085369,-5.85761 -3.450791,-5.42194 -3.414418,-26.54925 0,-33.90279 2.285978,-4.92293 1.88616,-6.29732 -3.075164,-11.53762 -5.603227,-5.91887 -10.226395,-20.23524 -6.512272,-20.23513 1.056328,0 3.595014,2.48869 5.607788,5.50254 5.137879,7.69411 8.593635,6.75031 13.747969,-3.90506 2.905191,-6.00697 6.181967,-9.21816 8.321182,-9.23011 z m 255.966321,7.98765 c 1.11637,-0.0728 2.39192,0.77175 4.88419,2.48493 2.91073,2.00054 7.45809,3.68029 9.94921,3.72758 3.33913,0.0629 2.63949,0.91222 -2.71346,3.19502 -8.12401,3.4647 -8.30848,3.92924 -4.70324,10.65011 3.70205,6.90136 5.80103,7.70088 17.90862,7.10008 17.40886,-0.86384 20.50065,-8.98468 5.78861,-15.26514 -7.08905,-3.02644 -6.73784,-3.14739 8.32118,-2.13004 8.58203,0.57967 15.7664,1.20142 15.91877,1.42001 0.15242,0.21824 0.84115,3.16714 1.62802,6.3901 1.07844,4.41607 -0.052,7.42449 -4.34147,12.42508 l -5.60773,6.74512 4.34147,9.58507 c 6.25091,13.46425 7.87697,29.156 3.97971,39.76033 -3.22545,8.77579 -8.1403,13.07154 -8.1403,7.10008 6e-5,-1.77981 -1.75036,-3.8438 -3.79876,-4.61503 -2.83822,-1.0688 -3.07234,-1.95532 -1.08543,-3.90511 1.43415,-1.40701 2.71345,-4.60498 2.71345,-6.92254 6e-5,-3.68058 -0.50634,-3.87001 -3.79876,-1.24247 -3.35726,2.67951 -3.47966,2.66219 -1.80897,-1.24258 3.11691,-7.285 3.93387,-18.6377 1.44709,-18.63764 -1.26868,0 -5.17818,2.95103 -8.86384,6.56758 -3.68549,3.61655 -8.24278,6.56753 -9.94915,6.56758 -1.70637,0 -7.42963,1.95666 -12.66272,4.43749 -5.26489,2.49614 -12.53333,4.27866 -16.4613,3.90506 -6.1169,-0.58163 -7.19898,-1.62872 -7.77853,-7.45509 -0.86228,-8.67049 2.75999,-11.55143 17.54679,-13.84509 11.70939,-1.81624 19.89841,-7.81986 19.89841,-14.55511 0,-4.14991 -17.01469,-6.24957 -36.72166,-4.4376 -16.06708,1.47739 -16.56829,1.45568 -15.37605,-3.01749 1.74869,-6.56181 11.37152,-13.3127 18.99399,-13.31264 6.12065,6e-5 6.51025,-0.39318 5.2459,-7.10008 -0.85726,-4.54967 -0.20092,-8.68693 1.80897,-11.36014 1.48259,-1.97115 2.32068,-2.94503 3.43699,-3.01743 z m 84.29707,13.1351 c -1.67565,0.0797 -5.53452,5.50722 -9.40655,13.66766 -7.05718,14.87231 -6.84494,27.4292 0.54271,42.24539 3.21535,6.44882 6.08544,11.71505 6.51216,11.7151 0.42667,0 1.80828,-1.93639 3.07522,-4.26007 2.73245,-5.00993 0.83809,-11.18272 -3.43699,-11.18266 -8.98179,0 -9.43421,-22.82168 -0.90443,-39.22779 2.52466,-4.85642 4.52237,-9.85787 4.52237,-11.18266 5e-5,-1.23323 -0.34584,-1.80164 -0.90449,-1.77497 z m -144.53508,25.91515 c 1.36002,0 2.53257,3.23826 2.53257,7.27767 5e-5,4.03929 1.01476,10.81235 2.35156,14.91007 1.33692,4.09771 2.8646,8.87573 3.43705,10.65017 0.90241,2.79913 1.3468,2.74411 3.07522,0 2.30301,-3.65685 2.08616,-3.85835 7.77841,7.63251 2.38887,4.82201 4.6917,9.41429 5.06514,10.11762 0.37297,0.70316 -3.17563,2.49874 -7.95941,3.90506 -18.19793,5.34988 -26.04551,2.36559 -29.66674,-11.36009 -1.00408,-3.80575 -2.75889,-10.87205 -3.97965,-15.62022 -2.29319,-8.92024 -1.05684,-20.12058 2.35151,-22.18762 1.07019,-0.64878 1.79032,2.97043 1.80903,8.16501 0.0173,5.19446 1.16048,10.97187 2.35162,12.78009 1.52612,2.31686 2.14655,-0.64173 2.17074,-10.29504 0.0462,-18.10544 3.56534,-17.6241 5.06507,0.71003 0.65051,7.94676 2.28315,15.46698 3.79877,16.86262 2.17501,2.00377 2.59763,-0.40934 1.44713,-12.07012 -0.80125,-8.12193 -2.18101,-16.28175 -2.89433,-18.10515 -0.71303,-1.82334 -0.0935,-3.37267 1.26631,-3.37261 z m 32.1993,7.63262 c 2.38118,-0.12009 4.44846,0.14203 5.96956,1.06505 2.92713,1.77571 2.98331,2.57431 -0.18071,5.68007 -1.98079,1.9443 -7.76057,4.12364 -12.84355,4.79251 -7.49215,0.98606 -9.22624,0.52886 -9.22566,-2.30757 6e-5,-4.40707 9.13704,-8.86932 16.28053,-9.23006 z m -58.24821,22.01021 c 2.73377,-0.0173 3.97976,1.75435 3.97976,5.325 6e-5,2.70444 -2.31242,4.3943 -7.05493,5.32511 -17.36538,3.40795 -20.53691,-0.3441 -6.33133,-7.45503 4.22607,-2.11572 7.27998,-3.18065 9.4065,-3.19508 z m 170.04134,14.91012 c -0.26732,0.0462 -0.41628,0.16859 -0.72366,0.35508 -1.22855,0.74502 -2.35157,1.77588 -2.35157,2.30751 -5e-5,0.53174 1.12307,1.06493 2.35157,1.06505 1.2285,0 2.1708,-1.03093 2.1708,-2.30752 5e-5,-0.95742 -0.64647,-1.55216 -1.44714,-1.42006 z m -165.15715,3.72758 c 0.54155,0 1.59222,0.92446 2.35168,2.13003 0.75893,1.20535 0.39664,2.12998 -0.90449,2.13004 -1.30118,-6e-5 -2.35162,-0.92469 -2.35162,-2.13004 6e-5,-1.20557 0.36258,-2.13015 0.90443,-2.13003 z m 107.45159,1.06504 c 0.83976,-0.12066 2.22489,0.19688 4.16065,0.88751 3.73069,1.33104 3.74374,1.83022 0.54271,4.43749 -2.97453,2.42212 -3.87284,2.16093 -5.06508,-0.88756 -1.12728,-2.8825 -1.03779,-4.23588 0.36201,-4.43744 z m 7.77852,9.76249 c 1.22856,6e-5 2.17074,1.10206 2.17074,2.30758 0,1.20557 -0.94276,2.12991 -2.17074,2.13003 -1.22895,6e-5 -2.17073,-0.92458 -2.17073,-2.13003 5e-5,-1.20541 0.94172,-2.30763 2.17073,-2.30758 z m 266.63913,2.84007 c 6.90031,0.15762 14.61781,2.83319 21.70738,8.34266 17.8577,13.87839 19.99206,38.26077 5.42685,61.41552 -4.32993,6.88357 -7.77847,14.04727 -7.77847,15.97512 -1.8e-4,4.84845 5.07962,4.39246 9.94926,-0.88745 5.14718,-5.5806 6.06736,-4.51111 9.04467,10.1175 l 2.35168,12.07018 -6.69316,4.08247 c -9.97657,6.05957 -18.46663,15.36087 -22.43092,24.67285 -1.90775,4.48177 -3.43699,8.76609 -3.43699,9.40759 0,0.64144 4.01296,1.06493 9.04466,1.06499 9.02931,0 22.2501,6.60332 22.2501,11.18249 -1.2e-4,1.18497 -3.60784,3.71875 -7.95942,5.50266 -5.49526,2.25301 -10.57725,7.29978 -16.64224,16.5076 -9.57208,14.53173 -11.92163,24.18014 -10.85369,45.79543 l 0.72359,14.20015 6.69305,-7.10002 c 3.652,-3.91792 8.48965,-7.10019 10.6728,-7.10013 5.97995,6e-5 5.44376,20.58483 -0.72354,29.4653 -15.51288,22.33698 -18.7586,37.45028 -12.11994,55.91304 4.45602,12.39367 4.19829,15.70959 -1.4472,21.65519 -6.90632,7.27455 -8.64225,3.05501 -8.68295,-22.18768 -0.0231,-14.53369 -0.79808,-21.30035 -2.53251,-21.30029 -1.84938,-6e-5 -2.14788,7.06024 -1.08537,25.73778 0.80576,14.16459 0.65882,28.71369 -0.362,32.30536 -1.15361,4.06157 -5.69913,9.14189 -12.12006,13.66754 -10.09701,7.11665 -10.44747,7.23299 -12.84349,2.84007 -1.74621,-3.20109 -4.61502,-4.43755 -10.13015,-4.43755 -4.8645,0 -9.55724,-1.74505 -12.48171,-4.61497 -5.47344,-5.37078 -4.25234,-7.63315 2.17074,-4.26013 2.48175,1.30321 9.00378,2.30757 14.47162,2.30757 12.82264,0 16.48579,-5.34214 18.45127,-26.09273 1.43762,-15.17808 1.40967,-15.39545 -5.06513,-19.34773 -13.93988,-8.50871 -22.97363,-17.11349 -22.97363,-21.83267 -1.8e-4,-8.5878 3.9177,-7.47322 13.74802,3.72746 5.3067,6.0464 10.94584,10.82696 12.48183,10.82765 1.53577,5.8e-4 2.71334,-0.13741 2.71334,-0.53232 0,-1.60995 -17.98165,-41.50943 -25.3252,-56.09052 -8.4012,-16.68019 -6.69801,-18.0391 6.15039,-4.79251 10.72228,11.0553 13.37222,9.208 11.57729,-7.98764 -1.61071,-15.42629 -8.23181,-42.14049 -13.56715,-54.67053 -3.61349,-8.48567 -0.0779,-10.30225 3.79877,-1.95244 5.11536,11.01605 6.83137,5.9262 5.24596,-15.2652 -1.82698,-24.42071 -6.19063,-40.38624 -12.48172,-45.9729 -7.11364,-6.31689 -5.1791,-8.55593 3.07522,-3.54998 4.13796,2.50936 9.05818,4.61491 10.85369,4.61497 1.795,-6e-5 5.52748,-5.11542 8.50207,-11.36015 6.57746,-13.81038 7.28454,-35.97474 1.26625,-40.29283 -4.91952,-3.52977 -4.61895,-5.32511 0.90443,-5.32506 5.77794,0 17.27064,5.57661 18.45133,9.05258 1.42341,4.1905 7.81946,0.39837 12.84355,-7.45504 6.78559,-10.60531 5.20109,-27.89529 -3.43705,-36.74285 -3.50524,-3.5897 -8.73578,-6.56758 -11.57724,-6.56752 -5.68561,0 -6.56677,2.25388 -2.53256,6.21251 2.01445,1.97669 1.68853,3.52232 -1.44708,6.92254 -2.25024,2.43944 -5.30953,4.43755 -6.87405,4.4376 -5.10329,0 -9.84153,-6.72831 -9.76832,-13.84508 0.1224,-12.02121 9.30124,-18.72326 20.8029,-18.46028 z m -364.68423,1.95256 c 0.77608,-0.0289 1.54547,0.0404 2.35169,0.35507 1.78165,0.69964 1.33599,1.31492 -1.26626,1.42006 -2.3548,0.0953 -3.81712,-0.51442 -3.07522,-1.24252 0.37124,-0.36432 1.21389,-0.50115 1.98979,-0.53233 z m 109.44145,2.48499 c 1.83835,-0.26616 2.54111,0.95096 0.90448,3.55004 -0.80997,1.28571 -3.03197,2.30745 -5.06501,2.30751 -3.41009,0 -3.48272,-0.13337 0,-3.54998 1.45828,-1.43149 3.0568,-2.14811 4.16053,-2.30757 z m -73.98604,9.23011 c -1.06239,0.0779 -2.33326,0.31062 -3.79876,0.53232 -10.16035,1.53715 -20.80296,6.349 -20.80296,9.58507 0,1.43432 1.614,1.72415 3.97971,0.70997 2.15018,-0.92163 8.63642,-3.10599 14.47163,-4.97004 11.09306,-3.54351 13.58648,-6.40471 6.15038,-5.85755 z m 5.24602,9.05257 c -1.28681,-0.006 -2.77038,0.0115 -4.52242,0.17725 -12.62888,1.17648 -20.8029,4.70048 -20.8029,8.8751 -5e-5,2.37246 0.94842,2.32674 4.70325,0.35507 2.6067,-1.36873 9.43045,-3.12129 15.01434,-3.905 12.38899,-1.73893 14.61481,-5.44924 5.60773,-5.50253 z m -1.98985,9.58513 c -10.8929,0 -18.81368,2.95606 -18.8131,6.92254 5e-5,1.43115 2.03003,1.77265 5.06507,0.88745 2.76385,-0.80616 8.74929,-1.95994 13.3862,-2.66253 12.23178,-1.85336 12.41549,-5.14752 0.362,-5.14746 z m 4.34147,7.10002 c -0.81776,0.0289 -2.05394,0.2321 -3.61799,0.70997 -10.46432,3.19872 -14.6797,5.20128 -16.09953,7.45509 -2.13714,3.393 2.7019,2.81386 12.48171,-1.42 7.46185,-3.2303 10.7795,-6.8648 7.23581,-6.74506 z m -234.62071,4.61508 c -0.16108,0.0173 -0.376434,0.0768 -0.542712,0.17725 -1.578834,0.95731 -1.155171,5.98157 2.170742,22.01021 0.24999,1.20545 0.93906,-1.0628 1.44719,-5.14753 1.02677,-8.25114 -0.6632,-17.27641 -3.07516,-17.04016 z m 242.94184,12.42508 c -4.214,0 -18.08951,6.83184 -18.08951,8.8751 0,3.08884 3.10132,2.6224 12.12001,-1.59749 7.338,-3.43364 10.50369,-7.27767 5.9695,-7.27761 z m -36.17895,11.00513 c 4.22785,-0.16512 8.86459,2.90993 14.29068,9.40753 5.62621,6.73721 7.57951,10.87361 6.6931,14.20016 -1.773,6.65176 -5.06507,5.99865 -5.06507,-1.06493 5e-5,-9.46435 -5.55202,-2.27992 -6.6931,8.6975 -0.0941,0.90402 -1.15067,1.59754 -2.53251,1.5976 -2.4164,0 -1.95244,-4.70308 1.62808,-17.04022 2.49446,-8.59664 -3.77671,-5.44469 -7.77853,3.90505 -2.05884,4.80971 -4.50567,8.68526 -5.42684,8.69756 -3.07338,0.0404 -1.62826,-7.51825 2.89434,-15.79764 2.4597,-4.50278 3.6125,-8.34266 2.5325,-8.3426 -3.09825,-6e-5 -6.19946,4.88569 -9.2256,14.37769 -3.42655,10.75017 -6.17597,13.79116 -7.95941,9.23006 -1.5304,-3.91285 4.08934,-18.19736 9.40655,-23.96271 2.26513,-2.456 4.69909,-3.80592 7.23581,-3.90505 z m 138.38458,0 c -1.28011,0.0589 -2.03668,2.68072 -1.44714,7.63251 0.97781,8.21726 -1.5013,10.4589 -3.43699,3.19503 -0.64283,-2.41098 -2.09297,-4.26007 -3.43699,-4.26001 -2.72991,-6e-5 -3.18937,6.89517 -1.08543,17.21769 1.7234,8.45559 4.24708,8.6639 6.51227,0.71003 1.28242,-4.50354 1.84292,-4.99596 2.53251,-2.13009 0.50807,2.10966 1.71809,3.905 2.71339,3.90506 3.02684,0 4.37981,-11.14249 2.1708,-18.99266 -1.383,-4.9152 -3.24162,-7.33656 -4.52242,-7.27756 z m -96.4169,4.97004 c -0.5583,0.0404 -1.83126,0.35103 -3.79888,1.06505 -2.93325,1.06464 -5.67753,3.04583 -6.15044,4.43749 -1.37544,4.04893 2.93325,3.08613 7.41669,-1.77496 2.53257,-2.74573 3.46304,-3.79426 2.53263,-3.72758 z m 27.67682,1.59749 c -2.25301,-6e-5 -4.07716,9.99758 -2.89433,15.79763 0.43359,2.12449 1.75879,3.35126 2.89433,2.66253 2.64175,-1.60199 2.6347,-18.46022 0,-18.46016 z m 10.13015,2.13009 c -1.89107,-0.11028 -3.61788,2.39908 -3.61788,7.2775 -5e-5,4.01838 0.62776,8.07141 1.44709,8.87509 4.37958,4.2976 8.27204,-2.53355 6.15044,-10.82753 -0.90945,-3.5542 -2.50809,-5.23938 -3.97965,-5.32506 z m 38.8924,2.66247 c -2.57079,0.13741 -3.24444,7.86247 -0.90448,13.84508 1.33409,3.41199 1.73275,3.48243 3.61793,0.17725 2.66161,-4.66792 1.39437,-12.87039 -2.17074,-14.02262 -0.18937,-0.0612 -0.37123,-0.0115 -0.54271,0 z m -70.18722,2.48505 c 0.59953,-0.15242 0.68729,1.54182 0.72355,5.32506 0.0716,7.51404 -1.37209,9.18444 -3.437,3.90499 -0.67798,-1.73501 -0.20842,-4.91721 1.08537,-7.10007 0.74952,-1.26464 1.26793,-2.03847 1.62808,-2.12998 z m 50.83152,1.42 c -2.61062,0 -3.15628,1.36227 -2.17079,4.97005 0.7408,2.71229 1.24928,6.5879 1.26625,8.6975 0.0346,4.69401 4.19881,5.06086 5.96956,0.53232 2.04499,-5.22951 -1.15408,-14.20016 -5.06502,-14.2001 z m 251.44396,5.50254 c -2.35301,-0.002 -2.22045,1.60008 -1.26631,7.45503 0.92931,5.70248 0.0791,10.60838 -2.89434,16.33013 -2.3272,4.47976 -4.95,13.01046 -5.78867,18.99278 -0.83843,5.98214 -2.32177,10.82748 -3.25605,10.82753 -0.93416,0 -1.15309,14.47065 -0.54271,32.12783 1.12399,32.47129 -0.0843,37.09036 -6.15045,22.72017 -2.64474,-6.26487 -6.69315,-8.90748 -6.69315,-4.43749 -1.2e-4,1.13347 3.00749,7.76219 6.69315,14.73259 5.15636,9.75181 6.6931,15.57103 6.6931,25.20529 -5e-5,6.8864 0.93278,15.08928 2.17074,18.28268 2.72818,7.04084 0.91286,10.9974 -3.43699,7.45498 -1.692,-1.37786 -4.26157,-2.03789 -5.60773,-1.59737 -1.34668,0.44053 1.31943,4.48957 5.9695,9.05252 7.85064,7.70336 8.81776,7.93545 11.3964,4.26001 1.52774,-2.17709 3.46044,-4.97576 4.52231,-6.21251 4.79885,-5.58937 10.05111,-14.45523 9.04483,-15.44268 -0.60934,-0.59796 -4.03253,2.56866 -7.41669,6.9226 -3.38417,4.35395 -6.9603,7.04125 -7.95947,6.03503 -2.63955,-2.65687 -3.28284,-50.7799 -1.08531,-76.32571 1.22578,-14.25205 3.79876,-26.35549 7.23575,-34.79035 6.18376,-15.17577 5.57592,-17.89528 -1.44714,-6.745 -2.73758,4.34603 -5.3597,7.52131 -5.78861,7.10002 -1.25102,-1.22717 7.32755,-39.18968 11.21546,-49.70048 1.95105,-5.27483 3.43647,-9.80701 3.43699,-10.11757 1.1e-4,-0.31061 -2.58314,-0.99616 -5.78862,-1.59754 -1.40135,-0.26269 -2.47136,-0.53174 -3.25605,-0.53232 z m -182.16128,1.06499 c 2.04897,0 -4.20274,8.3075 -8.68296,11.53768 -1.22907,0.88555 -3.76493,1.45043 -5.60773,1.42 -2.02651,-0.0346 -0.33544,-2.46732 4.34154,-6.3901 4.25308,-3.56753 8.79103,-6.5677 9.94915,-6.56758 z m 6.51227,4.79256 c 0.39029,0.006 0.67568,0.13048 0.90442,0.35507 0.91505,0.89796 0.17898,2.60613 -1.62802,3.72764 -5.43799,3.37458 -7.83574,2.36374 -3.79882,-1.59754 1.55805,-1.52849 3.3505,-2.50601 4.52242,-2.48505 z m -140.91715,4.79262 c 0.78642,-0.0346 1.34587,0.006 1.62803,0.17725 1.801,1.09241 1.98679,5.5974 0.54271,24.31772 -0.27251,3.52781 -1.89823,4.5798 -7.59758,4.61508 -11.44225,0.071 -24.05964,2.91056 -24.05906,5.50254 5e-5,2.23453 3.69478,1.91197 18.0895,-1.42001 9.26839,-2.14539 12.14852,1.5517 9.04472,11.71516 -2.91731,9.55528 -12.41832,17.9275 -20.44113,17.92756 -2.66218,0 -6.29755,1.38681 -8.14023,3.19508 -1.84275,1.80828 -6.11586,3.35611 -9.40661,3.3725 -3.29069,0.0173 -7.85393,0.34872 -10.31098,0.88751 -2.45693,0.53925 -6.65199,0.16282 -9.22555,-0.88751 -4.00014,-1.63212 -4.99614,-4.30141 -6.1505,-18.99271 -1.19501,-15.20383 -0.46246,-21.94635 4.16053,-41.89032 1.13116,-4.8794 1.63051,-5.08211 20.62207,-3.72752 15.14153,1.08 21.92874,0.67487 30.20945,-2.13009 4.39488,-1.48871 8.67539,-2.55901 11.03463,-2.66241 z m 115.23006,3.90494 c 0.77874,0.16166 -0.63289,1.51394 -3.9797,4.08253 -4.8585,3.72943 -5.10468,4.21769 -1.44714,4.26001 2.31178,0.0289 7.85583,-2.15757 12.30083,-4.79244 7.74735,-4.59274 7.97096,-4.47912 4.16053,-0.17783 -2.18638,2.4679 -7.96565,6.18428 -12.84349,8.3426 -4.87726,2.15827 -8.86383,4.83506 -8.86383,5.85755 0,2.53286 1.09322,2.25573 10.49186,-1.59748 8.11027,-3.32533 8.05352,-3.17504 3.97976,1.24241 -4.96536,5.3836 -0.3262,6.14017 6.51216,1.06511 8.00912,-5.94451 10.81685,-3.69213 4.16059,3.37255 -7.59885,8.06432 -17.66497,13.728 -20.98378,11.71505 -2.94041,-1.78322 -20.23138,3.60598 -18.8131,5.85755 0.55714,0.8848 6.73876,2.35786 13.56714,3.19508 11.57301,1.41874 12.60146,1.00604 16.82319,-4.26007 4.50221,-5.61621 11.03463,-7.56138 11.03463,-3.37256 -1.7e-4,1.20552 2.00262,2.12998 4.52236,2.13004 3.11645,0 5.57713,2.46213 7.77853,7.63257 5.45231,12.80469 4.6126,14.30073 -6.69316,12.78009 -5.4601,-0.73422 -11.74524,-0.46708 -13.92891,0.35507 -7.19961,2.71103 1.48871,5.42315 13.02443,4.0826 10.14054,-1.17862 10.64729,-0.96505 12.11994,4.79256 0.84814,3.31436 1.19542,16.19791 0.54272,28.75521 -1.35788,26.09897 -4.73853,32.97999 -21.3455,44.73037 -12.64043,8.94369 -21.5661,11.32967 -32.19936,8.52009 -7.80393,-2.06191 -11.8614,-6.39005 -5.96955,-6.38999 1.76081,0 1.72351,-0.94363 -0.18072,-3.19503 -1.49136,-1.76324 -4.47473,-8.70795 -6.51221,-15.44267 -2.03754,-6.73485 -4.74101,-12.30736 -5.9695,-12.24766 -1.22855,0.0595 -2.1708,1.02498 -2.1708,2.13009 -5e-5,5.38337 -3.19317,4.16388 -4.52236,-1.77507 -1.4793,-6.61072 -5.3108,-9.46406 -5.60773,-4.08254 -0.0831,1.50684 -1.3804,0.58227 -2.71339,-2.12997 -2.51704,-5.12154 -6.15045,-6.73167 -6.15045,-2.66253 -5e-5,4.1771 4.83471,11.8946 11.39635,17.92761 9.03635,8.30819 8.12915,11.82417 -1.26625,4.79262 -5.22587,-3.91152 -8.63538,-8.84022 -10.31104,-14.91018 -1.37578,-4.98575 -2.9717,-10.30936 -3.43699,-11.89253 -0.46593,-1.58339 -1.7857,-2.26981 -2.89434,-1.5976 -1.108,0.67216 -2.65387,-0.48209 -3.43699,-2.48499 -2.29383,-5.8643 -6.06049,0.0231 -4.34148,6.74501 1.07019,4.18437 2.09193,5.26501 3.97977,3.72757 1.88344,-1.53374 3.46967,-0.3568 5.2459,4.26001 1.37029,3.56193 1.79702,6.56753 0.90448,6.56758 -3.24565,0 -13.74802,-12.45232 -13.74802,-16.33018 0,-3.45489 -0.42032,-3.66927 -3.61788,-1.06499 -3.36771,2.74255 -3.55703,2.12004 -2.53251,-8.34255 0.97735,-9.97663 0.5404,-11.5979 -3.25611,-12.78015 -5.97989,-1.86248 -9.96855,2.08951 -6.33138,6.39005 1.63333,1.93119 2.0022,4.54523 0.90454,6.21263 -1.02735,1.55949 -1.80903,4.86646 -1.80903,7.27755 -6e-5,3.01887 -1.76214,4.64234 -5.60767,5.14746 -10.03668,1.31845 -10.45503,4.61503 -0.54271,4.61509 12.58275,-6e-5 13.00445,5.56662 0.54271,7.63257 -11.63312,1.92848 -11.51759,5.50248 0.18071,5.50254 10.89572,0 10.99566,4.41156 0.18071,7.45509 -9.40793,2.64763 -9.02318,5.68001 0.72366,5.68007 9.56313,-6e-5 10.30093,4.04899 1.08537,5.8575 -3.68618,0.72336 -6.69316,2.22166 -6.69316,3.19508 0,2.45208 8.28279,4.68633 11.03458,3.01754 1.23952,-0.75166 2.35168,0.1911 2.35168,1.95244 6e-5,1.76157 -3.17026,4.1737 -7.05493,5.50259 -8.01732,2.7425 -7.3428,4.54506 1.80891,5.5026 7.97604,0.83445 9.80146,5.68001 2.1708,5.68007 -3.10098,0 -6.11517,1.10194 -6.87399,2.30751 -1.41215,2.24176 0.30023,2.7134 9.76827,3.01749 8.18452,0.2627 8.45714,5.51143 0.362,7.10008 -10.41271,2.04343 -10.66507,5.14752 -0.362,5.14758 12.03068,0 11.60575,3.29906 -0.90443,6.39004 -5.5284,1.36591 -10.13015,3.46748 -10.13015,4.79251 0,2.37991 6.89327,1.82328 17.3659,-1.42001 3.63503,-1.12578 5.06508,-0.70777 5.06508,1.59749 0,1.90561 -4.95607,5.00543 -12.30083,7.45515 -15.32086,5.10999 -15.83753,8.13285 -1.08543,6.21256 l 11.21546,-1.42006 0,7.81005 c -5e-5,10.2559 -5.00635,13.00422 -20.80284,11.18267 -16.39086,-1.89049 -31.33684,4.18403 -36.72166,15.26508 -2.08685,4.29425 -4.45025,7.81 -5.24602,7.81005 -5.63007,0 -4.10504,-10.59082 2.89434,-20.4126 2.4119,-3.38457 3.87313,-6.6722 3.07522,-7.45515 -2.27835,-2.23552 -21.37725,8.60824 -29.66673,16.86274 -4.1278,4.11088 -8.09238,6.79206 -8.86384,6.03503 -2.33066,-2.28702 3.51292,-13.84445 10.31098,-20.23519 7.02028,-6.59939 22.91751,-10.70565 26.77245,-6.92259 1.6547,1.62363 2.35163,0.30715 2.35163,-4.61509 -6e-5,-3.85748 -0.94219,-7.10013 -2.17074,-7.10007 -1.22855,0 -2.35162,0.97503 -2.35162,1.95255 0,0.97758 -5.30872,3.05311 -11.75818,4.61509 -6.44992,1.5618 -17.96618,6.20436 -25.68703,10.29504 -7.72033,4.09084 -14.57988,7.27744 -15.19522,7.27755 -1.94621,-5e-5 4.08132,-9.59517 7.77847,-12.42507 8.94663,-6.84824 32.32031,-18.29516 35.63629,-17.39518 2.02813,0.55022 5.80524,1.72635 8.50212,2.48505 4.56809,1.28519 4.9365,0.83693 3.79871,-6.92254 -2.79307,-19.0426 -5.19625,-25.15292 -9.58738,-23.78528 -2.2899,0.71309 -4.81756,0.18937 -5.60773,-1.06499 -0.79028,-1.25459 -3.23267,-2.13003 -5.42684,-2.12998 -10.22351,6e-5 -18.52466,-23.89953 -13.56715,-39.05036 2.70064,-8.25282 7.93967,-15.79769 11.03458,-15.79769 0.90679,5e-5 3.29924,3.64443 5.24602,8.165 3.48595,8.09596 3.52238,7.88476 2.17068,-11.89252 -1.24778,-18.24972 -0.89253,-20.70636 3.61793,-27.86776 3.11581,-4.94625 10.63268,-11.16817 20.26019,-16.68514 8.43405,-4.83356 16.06379,-9.79956 16.82325,-11.00513 0.75899,-1.20558 5.0649,-3.6337 9.58743,-5.5026 8.85212,-3.65771 27.13423,-2.59526 27.13423,1.59754 0,1.37682 -2.30711,1.74494 -5.78862,0.88757 -4.30862,-1.06106 -7.74567,0.0404 -13.38626,4.26001 -9.12809,6.83149 -10.03194,11.17413 -1.44713,6.9226 8.71234,-4.31463 24.38388,-5.86846 32.1993,-3.19508 4.96958,1.69991 8.01755,5.22269 12.11988,14.02262 5.30682,11.38433 9.94932,15.31624 9.94932,8.52008 6e-5,-1.80822 -1.31446,-3.37256 -2.71345,-3.37256 -1.75752,0 -2.11254,-3.9789 -1.26625,-13.13505 1.03341,-11.18198 0.6415,-12.97068 -1.9898,-10.82759 -1.83085,1.49072 -5.48573,1.94141 -9.04478,1.06498 -6.0266,-1.48426 -6.1184,-1.56168 3.25611,-5.68007 5.18851,-2.27928 11.02661,-3.52411 12.84349,-2.84006 3.98311,1.49996 4.24309,7.72916 0.54271,11.36014 -1.95943,1.92288 -1.98853,3.19635 -0.18071,4.97004 2.98937,2.93389 10.2343,-6.53825 8.68289,-11.36014 -0.53925,-1.6767 -1.42987,-5.73758 -2.17068,-9.05258 -0.9162,-4.10245 -2.95767,-6.03509 -5.9695,-6.03503 -2.43349,6e-5 -4.34153,0.92458 -4.34153,2.13004 -6e-5,1.20551 -2.61502,2.12992 -5.78862,2.12997 -3.63283,0 -5.29936,-0.93785 -4.70325,-2.66247 0.59826,-1.72981 -2.93232,-3.58231 -9.4066,-5.14758 l -10.31098,-2.48499 13.56714,-0.35507 c 15.19217,-0.33314 13.15174,-4.46699 -2.35168,-4.79245 -4.91404,-0.10335 -10.92915,-0.91158 -13.38614,-1.9525 -2.70849,-1.14749 2.34885,-1.4816 12.84348,-0.71009 12.28242,0.90293 17.36597,0.54099 17.36597,-1.24252 -6e-5,-1.55124 -4.52069,-2.56744 -11.75818,-2.66247 -19.9368,-0.26212 -23.01532,-3.90829 -3.43699,-4.08253 13.82874,-0.12298 17.36585,-0.74629 17.36585,-3.37256 -6e-5,-2.56144 3.05201,-3.29745 13.92891,-3.37251 7.67807,-0.052 18.0596,-1.63541 22.97363,-3.37256 5.8161,-2.0559 8.80882,-3.00172 9.5875,-2.84006 z m -121.92322,2.30751 c -5.12257,0.27887 -13.92891,2.60526 -13.92891,4.26013 6e-5,1.07128 1.49304,1.95238 3.25611,1.95244 4.75469,-6e-5 15.49562,-4.49828 14.10986,-5.85755 -0.46016,-0.45207 -1.72964,-0.44803 -3.43706,-0.35507 z m 142.54523,1.77502 c 1.22861,0 2.17074,0.35565 2.17074,0.88751 -6e-5,0.53175 -0.94224,1.56244 -2.17074,2.30757 -1.22838,0.74502 -2.35162,0.38914 -2.35162,-0.88756 0,-1.27659 1.12313,-2.30757 2.35162,-2.30752 z m -367.5785,0.71009 c -0.50576,0.15242 -1.15667,0.59416 -2.1708,1.42001 -1.82906,1.48963 -2.85594,3.52648 -2.17073,4.61502 1.76191,2.79775 5.60778,0.18706 5.60778,-3.90499 -5e-5,-1.74148 -0.42435,-2.3835 -1.26625,-2.13004 z m 264.64927,0.17725 c 6.85089,-0.40588 29.12408,2.20249 29.12408,3.72752 6e-5,2.49977 -14.57174,2.19758 -24.23989,-0.53232 -4.12768,-1.16539 -7.13471,-2.48933 -6.69315,-2.83995 0.24191,-0.19169 0.83006,-0.29676 1.80896,-0.35508 z m -20.07935,1.24258 c 1.22849,0 2.35168,0.53348 2.35168,1.06499 -6e-5,0.53174 -1.12319,1.56244 -2.35168,2.30751 -1.2285,0.74496 -2.17074,0.21132 -2.17074,-1.06504 0,-1.27659 0.94224,-2.30757 2.17074,-2.30746 z m -18.08945,6.92254 c -6.4248,0.26385 -17.54685,2.78557 -17.54685,4.61497 -5e-5,1.40713 3.75985,1.76873 10.31098,0.88751 10.75439,-1.44633 13.62193,-2.60883 11.39646,-4.7925 -0.52366,-0.51385 -2.0186,-0.79797 -4.16059,-0.70998 z m 15.376,4.96999 c 0.86557,0.0231 2.01156,0.98993 3.97976,2.48505 3.6229,2.75259 3.83288,3.07689 0.54271,1.95255 -4.48956,-1.53414 -5.21085,1.27659 -1.26631,5.14752 2.08477,2.04574 1.76001,2.6022 -1.62797,2.66253 -3.77307,0.0676 -3.75228,0.65905 1.08532,3.37256 l 5.60773,3.01749 -7.05487,0.17725 -6.87405,0 1.98986,-9.23012 c 1.62565,-7.0988 2.17437,-9.62265 3.61787,-9.58512 z m -226.6613,1.42006 c 3.73727,-0.33198 6.15038,4.73182 6.15038,15.44268 0,11.12037 -4.87622,20.4499 -13.3862,25.38276 -3.69154,2.13985 -6.6931,4.5327 -6.6931,5.325 -5e-5,0.79213 5.20093,1.88385 11.57723,2.48499 9.47838,0.89357 12.68772,2.43141 17.90868,8.16507 5.54041,6.08428 6.18843,8.40836 5.60773,18.1052 -0.81014,13.5213 -6.1378,17.53421 -6.15044,4.61503 -0.0115,-9.94609 -6.7013,-21.812 -14.29074,-25.20523 -6.39063,-2.85698 -17.51487,-1.08762 -27.676885,4.26002 -10.445789,5.49722 -9.974206,8.26431 1.44714,7.45509 9.713815,-0.68809 27.134225,4.85347 27.134225,8.69756 -6e-5,1.02249 -2.59913,1.77502 -5.60767,1.77507 -7.61646,-1.1e-4 -15.3648,11.08123 -20.9839,29.64278 -4.937132,16.30905 -4.324848,20.78234 1.62808,12.42507 6.66654,-9.35753 14.05241,-15.39019 21.88833,-17.92767 9.57473,-3.10068 19.25091,-1.15771 18.27033,3.72758 -0.74889,3.73335 -2.54077,5.00145 -15.55688,10.65006 -12.30626,5.34018 -15.50579,15.78424 -16.2806,54.3155 -0.28232,14.03544 -1.52444,26.6489 -3.07522,29.46535 -3.20443,5.81703 -11.185782,9.92589 -25.325313,13.31253 -5.677359,1.35996 -11.927743,3.15167 -13.928855,3.90511 -5.358486,2.01757 -4.705902,-6.92975 1.085312,-14.91018 2.591283,-3.57048 4.421266,-6.62607 3.979705,-6.92254 -0.441098,-0.29618 -3.267654,-1.58045 -6.331328,-2.84006 l -5.607731,-2.30746 7.235813,-3.72758 c 7.442621,-3.77676 9.622886,-7.98764 4.160533,-7.98758 -1.692111,0 -4.259838,-1.38756 -5.788615,-3.19508 -2.399198,-2.83701 -1.859371,-3.13394 4.16059,-1.95244 7.644003,1.50008 8.442369,-0.25173 3.436993,-6.74512 -3.345713,-4.34009 -4.520572,-12.07018 -1.808968,-12.07001 0.824924,-5e-5 3.467477,1.66585 5.788731,3.72741 3.643166,3.23532 4.524729,3.29496 6.331271,0.53289 3.191675,-4.88026 0.01155,-21.67724 -6.331271,-33.90284 -7.228769,-13.9359 -8.266737,-40.52233 -2.170738,-55.91299 7.634996,-19.27931 11.859789,-26.24544 15.375994,-26.27027 4.807459,-0.0346 9.20032,-5.31905 16.461417,-19.70275 7.08628,-14.0378 13.13049,-21.45634 17.36597,-21.83266 z m 261.03139,15.44268 c 1.21424,-0.0173 2.53124,0.25461 3.61794,0.53232 2.17322,0.55599 0.97209,1.02047 -2.71351,1.06499 -3.68549,0.0462 -5.49243,-0.46477 -3.97971,-1.06499 0.75559,-0.30023 1.86053,-0.51789 3.07528,-0.53232 z m -55.17293,1.95249 c -10.6134,0.0404 -23.33547,2.70999 -23.33547,4.79257 -5e-5,2.36271 24.90864,-0.18302 27.85783,-2.84007 1.25003,-1.12619 -0.64046,-1.96676 -4.52236,-1.9525 z m 142.18334,8.69774 c -6.21522,0 -11.39635,1.10199 -11.39635,2.30751 -5e-5,1.20552 4.4935,2.12998 9.94927,2.13003 5.45565,6e-5 10.45601,-0.92451 11.21546,-2.13003 0.85079,-1.35095 -2.80358,-2.30763 -9.76838,-2.30751 z m -149.96187,2.66253 c -2.85571,5e-5 -7.12173,0.52712 -12.11994,1.77501 -6.01512,1.50182 -5.60594,1.71983 3.79876,1.95256 5.76315,0.14261 10.99872,-0.74715 11.75817,-1.95256 0.78573,-1.24789 -0.58116,-1.77501 -3.43699,-1.77501 z m -229.193923,4.79256 c 0.801368,-0.13222 1.447197,0.28521 1.447197,1.24252 0,1.27665 -0.942185,2.3074 -2.170738,2.30746 -1.228438,-6e-5 -2.351623,-0.35565 -2.351623,-0.88745 5.7e-5,-0.53175 1.123128,-1.56261 2.351623,-2.30752 0.307153,-0.18648 0.456687,-0.31119 0.723541,-0.35507 z m 579.587413,0.71003 c -4.36146,0.53348 -15.19517,13.36824 -15.19517,19.17008 -1.2e-4,3.9748 4.92466,0.052 9.22567,-7.45503 2.76148,-4.82184 5.79895,-8.87516 6.87404,-8.8751 1.0744,-6e-5 1.35158,-1.02342 0.54271,-2.30746 -0.306,-0.48613 -0.82469,-0.6087 -1.4472,-0.53232 z m -327.60068,14.02262 c -1.07521,0.0739 -2.78354,1.13409 -4.34148,2.66253 -3.48214,3.4169 -3.40957,3.72745 0,3.72751 4.0722,-6e-5 7.44453,-3.87797 5.2459,-6.03509 -0.19168,-0.18821 -0.54617,-0.3799 -0.90442,-0.35507 z m 129.3398,1.95249 c -6.95984,0 -11.10836,0.86436 -10.31104,2.1301 1.40621,2.23245 18.20631,1.6603 20.62213,-0.71009 0.77325,-0.75893 -3.89073,-1.42012 -10.31109,-1.42001 z m -9.76821,10.65012 c -2.95571,0.19572 -5.05041,0.84421 -5.4269,1.9525 -0.67268,1.97986 2.89653,2.76379 13.20526,2.66253 10.02235,-0.0987 12.71929,-0.63804 9.4066,-1.9525 -4.01763,-1.59385 -9.38495,-2.54567 -13.92891,-2.66253 -1.13583,-0.0289 -2.27097,-0.0652 -3.25605,0 z m -113.24032,2.84001 c -1.01233,-6e-5 -1.94574,0.22863 -2.71339,0.53232 -1.53606,0.60801 -0.35796,1.06493 2.71339,1.06499 3.07141,0 4.43022,-0.45727 2.89434,-1.06499 -0.76777,-0.30427 -1.88247,-0.53232 -2.89434,-0.53232 z m 1.08543,8.52008 c -3.07142,-6e-5 -5.60779,0.92446 -5.60779,2.12997 6e-5,1.20564 2.53643,2.13004 5.60779,2.1301 3.07118,-1.2e-4 5.60715,-0.92458 5.60773,-2.1301 -6e-5,-1.2054 -2.5365,-2.13003 -5.60773,-2.12997 z m 115.59188,0 c -8.82682,-0.0346 -9.63501,3.69917 -1.08548,4.97004 11.50876,1.71064 18.45133,1.58455 18.45133,-0.35507 1.2e-4,-2.45792 -7.98978,-4.5764 -17.36585,-4.61509 z m 5.06502,13.13511 c -4.00303,0.004 -8.02465,0.62007 -8.86389,1.95255 -0.71263,1.13127 2.42183,2.44671 7.05492,2.83995 9.66815,0.82106 12.49413,0.052 10.67281,-2.83995 -0.83861,-1.33086 -4.86098,-1.95631 -8.86384,-1.95255 z m -9.22566,10.65011 c -1.08289,0.0231 -2.10077,0.0404 -3.07523,0.17783 -1.8428,0.26096 1.16476,1.80088 6.6931,3.3725 12.88252,3.66193 13.38568,3.811 13.38626,1.24246 6e-5,-2.48383 -9.42514,-4.97033 -17.00413,-4.7925 z m -88.27672,9.23011 c 1.4062,-0.21766 3.66903,1.18924 7.23581,3.905 2.92996,2.23095 6.84015,4.63748 8.68295,5.32505 1.84274,0.68752 -1.40008,1.3248 -7.23581,1.42007 -9.87554,0.16108 -10.49256,-0.22517 -10.49198,-5.32512 -6e-5,-3.26788 0.40242,-5.10728 1.80903,-5.325 z m 41.06319,0.35507 c 0.44572,-0.15935 1.1692,0.25924 2.17068,1.24247 1.45407,1.42653 2.08177,3.10473 1.44714,3.72752 -1.49084,1.46284 -4.16053,-1.1569 -4.16053,-4.08253 0,-0.515 0.2754,-0.79196 0.54271,-0.88746 z m 53.36403,1.9525 c -1.21493,0.0173 -2.31918,0.2321 -3.07534,0.53232 -1.51215,0.60034 0.29445,0.93226 3.97971,0.88751 3.68565,-0.0462 4.88615,-0.50922 2.71345,-1.06504 -1.08647,-0.27771 -2.40318,-0.36951 -3.61782,-0.35508 z m -168.23238,1.77496 c -0.24768,0.086 -0.46881,0.28291 -0.72354,0.53233 -0.6434,0.63099 -0.37124,3.04283 0.54272,5.32505 1.58166,3.9498 1.74996,3.99195 2.53251,0.17725 0.64005,-3.12158 -0.30427,-5.762 -1.62803,-6.03515 -0.22055,-0.0462 -0.47574,-0.086 -0.7236,0 z m 131.51066,2.30752 c -3.18896,0 -1.41931,6.77196 2.89433,11.00519 4.42895,4.34563 15.73783,6.12538 15.73783,2.48499 5e-5,-1.97253 -15.91115,-13.49024 -18.63216,-13.49018 z m -30.75216,7.27761 c 0.63959,-0.0173 1.27607,-0.0231 1.80896,0.17725 3.58543,1.35014 3.37782,1.97478 -1.62808,5.68013 l -5.60773,4.08253 9.58738,-1.24258 c 6.31262,-0.83081 9.40661,-0.40935 9.40661,1.24258 0,1.36412 -2.00377,2.48494 -4.52242,2.48499 -5.95513,6e-5 -15.62489,5.01722 -20.98378,10.82766 -2.33719,2.53429 -5.11219,4.61496 -6.15045,4.61502 -3.59974,6e-5 -1.73154,-8.1232 2.71346,-12.07012 2.45704,-2.18182 4.34147,-5.13314 4.34147,-6.56758 0,-4.00713 6.55546,-9.10892 11.03458,-9.23011 z m -26.59157,1.06505 c 0.3493,0.0115 0.68226,-0.0681 1.08542,0 6.4983,1.10003 6.8099,2.27939 1.9898,5.85755 -6.08925,4.52045 -8.05733,4.08253 -7.23581,-1.59754 0.45149,-3.11743 1.71618,-4.35551 4.16059,-4.26001 z m -72.53884,5.14752 c -0.99704,0.12644 -1.14761,1.10315 -0.54272,3.19502 0.65178,2.25215 1.90724,7.25417 2.7134,11.18261 0.8057,3.92826 2.16346,6.76585 3.07522,6.21251 2.74041,-1.66169 -0.71644,-19.34993 -3.97965,-20.41261 -0.515,-0.16801 -0.9341,-0.21939 -1.26625,-0.17782 z m 78.32745,4.61502 c 0.84248,-0.0947 0.53983,1.43889 -0.362,5.14758 -2.69619,11.08995 -4.63431,13.02357 -6.33127,6.39005 -0.84588,-3.30732 -1.27128,-6.19115 -0.90448,-6.39005 0.36662,-0.19861 2.4761,-1.69488 4.70324,-3.37256 1.40569,-1.05892 2.38892,-1.71815 2.89428,-1.77502 z m 44.50019,3.37256 -13.38626,10.11757 c -7.33644,5.61177 -15.3492,13.17639 -17.72767,16.86268 -2.37905,3.68629 -5.53221,12.35244 -7.05487,19.17014 -2.49002,11.14918 -2.82771,11.51487 -3.25617,4.61502 -0.8039,-12.94839 0.37009,-18.14614 6.15045,-30.17526 6.39553,-13.30959 11.08457,-16.97885 25.14443,-19.17008 l 10.13009,-1.42007 z m 23.69723,5.325 c 0.57389,-0.0462 1.07752,-0.0635 1.62809,0 7.64394,0.8803 10.10515,8.67545 4.52236,14.55523 -4.25147,4.47779 -17.25165,6.502 -20.62207,3.19502 -4.82276,-4.73263 5.86431,-17.05673 14.47162,-17.75025 z m -15.37605,0.53232 c 0.98543,-0.0866 1.62808,-0.0289 1.62808,0.35508 -5e-5,0.54791 -1.60741,3.37949 -3.61799,6.38999 -2.01052,3.01079 -3.61834,9.4174 -3.61782,14.20015 6e-5,4.78269 -0.34641,8.69756 -0.7236,8.69762 -1.53651,5e-5 -7.59758,-9.9249 -7.59758,-12.42508 -6e-5,-1.48011 -1.82952,-3.5953 -3.97965,-4.79262 -3.47111,-1.93293 -3.51828,-2.64394 -0.54271,-5.50254 2.62304,-2.52027 14.18168,-6.54645 18.45127,-6.9226 z m -30.93304,34.43534 c 0.15242,-0.0577 0.17667,-0.005 0.362,0.17725 0.74253,0.72845 1.00742,2.67777 0.362,4.26007 -0.71275,1.74834 -1.33998,1.13335 -1.44714,-1.42 -0.0733,-1.73288 0.26674,-2.85243 0.72354,-3.01755 z M 58.790871,715.33157 c 1.250492,-5e-5 -0.04042,3.60016 -3.075222,7.98759 -7.213816,10.43049 -7.041418,14.47636 1.447139,23.9627 l 7.054928,7.81011 23.697176,-1.59754 c 17.807118,-1.13641 28.165268,-3.06102 42.148568,-7.98753 14.4349,-5.08574 21.16334,-6.32146 29.84767,-5.50259 10.31987,0.9729 11.25195,0.60426 13.20532,-4.43749 1.16469,-3.00496 1.60949,-7.22924 0.90448,-9.40759 -1.44581,-4.47017 4.56295,-8.69768 12.48177,-8.69762 5.12899,-6e-5 5.2477,1.47831 0.90443,18.46011 -1.46284,5.7176 -1.49673,5.78347 12.66266,6.03508 19.65373,0.3493 21.67458,0.0115 34.37004,-5.85749 24.1206,-11.15524 43.42752,-15.1984 46.85181,-9.76261 0.75887,1.20564 3.29588,2.1301 5.60773,2.1301 6.20414,-1.2e-4 7.50474,4.02543 3.43699,10.1175 -3.35281,5.02097 -3.34577,5.32494 0.362,5.325 2.18696,-6e-5 7.46653,-1.03346 11.75812,-2.30751 4.29217,-1.27399 17.54494,-2.54036 29.30496,-2.84001 17.94291,-0.45726 22.38716,-1.42722 28.2196,-5.50254 9.7182,-6.79009 23.94734,-11.36014 35.45546,-11.36008 9.67745,-6e-5 9.76832,0.0346 9.76832,7.63257 0,8.96828 0.74341,9.05846 17.54685,3.19502 7.48223,-2.61109 21.39688,-4.90977 33.82738,-5.68002 21.13505,-1.30961 21.37206,-1.23894 44.68096,7.98759 l 23.51641,9.23005 15.73782,-2.48505 c 24.79265,-3.90464 41.47912,1.15824 47.0327,14.20016 5.05687,11.8767 4.30227,14.19998 -4.88419,14.20009 -5.28869,-5e-5 -13.84358,-3.04785 -24.60166,-8.87503 -18.13408,-9.82248 -23.46214,-10.34932 -25.50615,-2.13004 -2.00122,8.0489 -13.37546,6.95603 -29.84773,-2.84001 -16.90506,-10.05353 -28.96409,-11.69945 -53.0022,-7.10002 -30.77589,5.88827 -78.88968,11.70737 -81.04096,9.76249 -1.11736,-1.00979 1.60585,-3.37602 6.15044,-5.50253 4.4797,-2.09615 8.1403,-4.88113 8.1403,-6.03503 -6e-5,-2.52195 -26.40515,-0.18071 -30.02862,2.66247 -1.35448,1.06268 -5.83077,2.53181 -10.13015,3.19502 -4.30031,0.66321 -15.38777,3.17782 -24.60166,5.68007 -17.31048,4.70106 -28.35591,4.64881 -45.5855,-0.35507 l -8.68301,-2.48505 5.06507,-3.90505 c 2.7403,-2.17698 6.79616,-4.08259 9.04473,-4.08253 2.24816,5e-5 4.74377,-1.11274 5.60778,-2.485 2.13587,-3.39086 -13.3754,-0.41973 -22.43092,4.25996 -4.23056,2.18632 -11.47105,3.38324 -19.5367,3.19514 -9.95532,-0.2321 -17.79228,1.46324 -33.6465,7.45509 -18.47783,6.98356 -22.18404,7.63245 -35.81717,6.56758 -13.26894,-1.03664 -15.95803,-1.96075 -21.52656,-7.81022 -3.50512,-3.68168 -7.00573,-6.74506 -7.77835,-6.74501 -0.77256,0 -7.08304,2.43811 -14.10985,5.32512 -7.02693,2.88689 -20.03011,7.22484 -28.76226,9.7626 -8.732831,2.53765 -18.697106,4.66549 -22.250089,4.61497 -18.374024,-0.26154 -40.324586,-25.28732 -34.731867,-39.58286 2.44885,-6.25892 12.489509,-17.39529 15.73788,-17.39517 z m 217.978409,13.31265 c -3.62406,0.0404 -9.04865,1.43819 -12.11995,3.19496 -5.33649,3.05265 -5.26403,3.2527 4.34142,1.95262 11.89039,-1.60932 17.41088,-5.26115 7.77853,-5.14758 z"
     id="path9080" />
</svg>
