<?xml version="1.0" encoding="UTF-8" standalone="no"?>
<!-- Created with Inkscape (http://www.inkscape.org/) -->

<svg
   xmlns:dc="http://purl.org/dc/elements/1.1/"
   xmlns:cc="http://creativecommons.org/ns#"
   xmlns:rdf="http://www.w3.org/1999/02/22-rdf-syntax-ns#"
   xmlns:svg="http://www.w3.org/2000/svg"
   xmlns="http://www.w3.org/2000/svg"
   xmlns:sodipodi="http://sodipodi.sourceforge.net/DTD/sodipodi-0.dtd"
   xmlns:inkscape="http://www.inkscape.org/namespaces/inkscape"
   width="1000"
   height="1000"
   id="svg2"
   version="1.1"
   inkscape:version="0.47 r22583"
   sodipodi:docname="M.svg">
  <defs
     id="defs4">
    <inkscape:perspective
       sodipodi:type="inkscape:persp3d"
       inkscape:vp_x="0 : 526.18109 : 1"
       inkscape:vp_y="0 : 1000 : 0"
       inkscape:vp_z="744.09448 : 526.18109 : 1"
       inkscape:persp3d-origin="372.04724 : 350.78739 : 1"
       id="perspective10" />
    <inkscape:perspective
       id="perspective2940"
       inkscape:persp3d-origin="0.5 : 0.33333333 : 1"
       inkscape:vp_z="1 : 0.5 : 1"
       inkscape:vp_y="0 : 1000 : 0"
       inkscape:vp_x="0 : 0.5 : 1"
       sodipodi:type="inkscape:persp3d" />
    <inkscape:perspective
       id="perspective2953"
       inkscape:persp3d-origin="0.5 : 0.33333333 : 1"
       inkscape:vp_z="1 : 0.5 : 1"
       inkscape:vp_y="0 : 1000 : 0"
       inkscape:vp_x="0 : 0.5 : 1"
       sodipodi:type="inkscape:persp3d" />
    <inkscape:perspective
       id="perspective2966"
       inkscape:persp3d-origin="0.5 : 0.33333333 : 1"
       inkscape:vp_z="1 : 0.5 : 1"
       inkscape:vp_y="0 : 1000 : 0"
       inkscape:vp_x="0 : 0.5 : 1"
       sodipodi:type="inkscape:persp3d" />
    <inkscape:perspective
       id="perspective2979"
       inkscape:persp3d-origin="0.5 : 0.33333333 : 1"
       inkscape:vp_z="1 : 0.5 : 1"
       inkscape:vp_y="0 : 1000 : 0"
       inkscape:vp_x="0 : 0.5 : 1"
       sodipodi:type="inkscape:persp3d" />
    <inkscape:perspective
       id="perspective2992"
       inkscape:persp3d-origin="0.5 : 0.33333333 : 1"
       inkscape:vp_z="1 : 0.5 : 1"
       inkscape:vp_y="0 : 1000 : 0"
       inkscape:vp_x="0 : 0.5 : 1"
       sodipodi:type="inkscape:persp3d" />
    <inkscape:perspective
       id="perspective3005"
       inkscape:persp3d-origin="0.5 : 0.33333333 : 1"
       inkscape:vp_z="1 : 0.5 : 1"
       inkscape:vp_y="0 : 1000 : 0"
       inkscape:vp_x="0 : 0.5 : 1"
       sodipodi:type="inkscape:persp3d" />
    <inkscape:perspective
       id="perspective3018"
       inkscape:persp3d-origin="0.5 : 0.33333333 : 1"
       inkscape:vp_z="1 : 0.5 : 1"
       inkscape:vp_y="0 : 1000 : 0"
       inkscape:vp_x="0 : 0.5 : 1"
       sodipodi:type="inkscape:persp3d" />
    <inkscape:perspective
       id="perspective3031"
       inkscape:persp3d-origin="0.5 : 0.33333333 : 1"
       inkscape:vp_z="1 : 0.5 : 1"
       inkscape:vp_y="0 : 1000 : 0"
       inkscape:vp_x="0 : 0.5 : 1"
       sodipodi:type="inkscape:persp3d" />
    <inkscape:perspective
       id="perspective3044"
       inkscape:persp3d-origin="0.5 : 0.33333333 : 1"
       inkscape:vp_z="1 : 0.5 : 1"
       inkscape:vp_y="0 : 1000 : 0"
       inkscape:vp_x="0 : 0.5 : 1"
       sodipodi:type="inkscape:persp3d" />
    <inkscape:perspective
       id="perspective3057"
       inkscape:persp3d-origin="0.5 : 0.33333333 : 1"
       inkscape:vp_z="1 : 0.5 : 1"
       inkscape:vp_y="0 : 1000 : 0"
       inkscape:vp_x="0 : 0.5 : 1"
       sodipodi:type="inkscape:persp3d" />
    <inkscape:perspective
       id="perspective3070"
       inkscape:persp3d-origin="0.5 : 0.33333333 : 1"
       inkscape:vp_z="1 : 0.5 : 1"
       inkscape:vp_y="0 : 1000 : 0"
       inkscape:vp_x="0 : 0.5 : 1"
       sodipodi:type="inkscape:persp3d" />
  </defs>
  <sodipodi:namedview
     id="base"
     pagecolor="#ffffff"
     bordercolor="#666666"
     borderopacity="1.0"
     inkscape:pageopacity="0.0"
     inkscape:pageshadow="2"
     inkscape:zoom="1.5047232"
     inkscape:cx="153.75692"
     inkscape:cy="175.02329"
     inkscape:document-units="px"
     inkscape:current-layer="svg2"
     showgrid="false"
     showborder="true"
     inkscape:showpageshadow="false"
     showguides="true"
     inkscape:guide-bbox="true"
     inkscape:window-width="1280"
     inkscape:window-height="750"
     inkscape:window-x="0"
     inkscape:window-y="26"
     inkscape:window-maximized="1">
    <sodipodi:guide
       orientation="0,1"
       position="0,200"
       id="guide2818" />
  </sodipodi:namedview>
  <metadata
     id="metadata7">
    <rdf:RDF>
      <cc:Work
         rdf:about="">
        <dc:format>image/svg+xml</dc:format>
        <dc:type
           rdf:resource="http://purl.org/dc/dcmitype/StillImage" />
        <dc:title />
      </cc:Work>
    </rdf:RDF>
  </metadata>
  <g
     inkscape:label="Layer 1"
     inkscape:groupmode="layer"
     id="layer1" />
  <path
     style="fill:#800000"
     d="M 0,0 0,6.1796579 0,793.82034 0,800 l 6.2108928,0 724.7251872,0 6.21061,0 0,-6.17966 0,-787.6406821 L 737.14669,0 730.93608,0 6.2108928,0 0,0 z m 661.55116,12.359374 63.17374,0 0,287.795136 -0.17898,96.04941 c -0.45033,211.40846 -1.37237,384.85711 -1.95203,385.43366 -1.14778,1.14178 -62.89119,1.84852 -271.68302,3.53122 -90.7001,0.7311 -168.32677,1.62329 -223.77037,2.47188 l -212.05838,0 c -0.06004,-0.11316 -0.130482,-0.23152 -0.177247,-0.35276 -0.735319,-1.90683 -0.76921,-4.34367 -0.177248,-5.29688 1.595231,-2.5679 1.598406,-151.0548 0,-220.52529 -0.626199,-27.22447 -0.606511,-43.55962 -0.177248,-53.49809 l 0.177248,-6.0031 0.355073,-23.48269 C 14.052582,454.74116 13.519164,387.18766 13.30814,265.01907 12.896487,26.541398 12.817389,24.161138 14.37284,20.128258 c 0.811357,-2.103534 42.079629,-3.136017 185.97252,-4.237379 101.64011,-0.778043 261.3602,-1.888008 354.90938,-2.648384 l 106.29544,-0.882833 z m 56.25299,8.121763 -81.98396,1.412498 C 590.72926,22.688248 446.80813,23.803294 316.04683,24.542077 185.28587,25.280802 65.585238,26.605369 50.042215,27.367015 l -28.215264,1.412498 0.355073,269.256277 c 0.193991,148.08922 0.833816,280.73922 1.4196,294.85762 0.586015,14.11835 1.064815,62.57064 1.064815,107.70251 l 0,82.10105 133.090991,-1.76555 c 73.21417,-0.99328 140.55566,-2.05902 149.59427,-2.29533 9.03883,-0.23614 104.31915,-1.16025 211.88096,-2.11878 l 195.73264,-1.76561 0,-22.07019 c 0.14434,-27.05755 -0.13279,-366.25942 -0.35796,-414.38972 -0.0866,-19.18562 0.49075,-98.54636 1.41972,-176.38486 L 717.80127,20.481137 z M 368.92836,42.727882 c 1.66532,0.01732 3.50564,5.888325 5.32361,17.479586 1.65765,10.572057 3.74392,8.901077 6.21095,-4.76716 1.36418,-7.557514 5.65052,-11.693221 5.67846,-5.473322 0.0289,5.859399 4.71237,19.216269 6.38843,18.185748 0.97423,-0.599352 3.06558,-5.92643 4.61381,-11.653038 4.46746,-16.523659 6.73802,-16.307959 6.03348,0.529435 -0.62742,14.990436 -0.4717,15.241585 5.14613,15.890532 4.71549,0.544445 6.10374,-0.588959 8.34041,-6.53271 5.99086,-15.921306 6.68836,-16.078981 6.21095,-2.824997 -0.4284,11.89316 -1.01863,12.953241 -6.03347,14.124867 -4.28513,1.00119 -4.74424,1.757352 -1.95204,2.824996 9.91151,3.79068 23.335,48.584971 20.22982,67.623011 l -1.41966,8.12188 -4.79124,-5.64999 c -3.07395,-3.55911 -4.4585,-7.45567 -3.72653,-10.24054 0.83272,-3.16951 0.33255,-3.83485 -1.59708,-2.6485 -1.65522,1.01776 -5.13095,-0.85472 -9.05021,-4.59055 l -6.56579,-6.1796 -3.37164,4.94372 c -4.54124,6.4502 -8.81441,6.00448 -12.7768,-1.23595 -1.80446,-3.29762 -6.6741,-10.35023 -10.8247,-15.71403 -8.08984,-10.45336 -7.71392,-17.479646 0.88727,-17.479588 2.86565,0 3.69265,-1.142643 2.83932,-3.354662 -1.69171,-4.386971 -7.2622,-4.076412 -10.64734,0.530012 -2.33794,3.180935 -3.34041,3.222968 -6.38838,0.70622 -6.7189,-5.548147 -5.85605,-0.509227 1.59714,10.063928 4.09443,5.80801 11.17782,15.82823 15.79342,22.42336 4.61566,6.595 10.65924,14.97248 13.48654,18.3623 6.57665,7.88493 8.66506,15.73263 5.14625,19.95153 -3.93224,4.71375 -1.24835,6.36228 3.19416,1.94211 3.49681,-3.47943 4.07624,-3.43024 9.58253,2.11877 l 5.85599,6.0031 -6.21083,5.29677 c -3.38128,2.92967 -8.50986,5.29683 -11.53457,5.29694 -3.02482,-1.1e-4 -7.50341,0.999 -9.93748,2.29528 -6.56897,3.49773 -7.33212,0.98444 -1.95204,-6.53271 3.63705,-5.08275 4.01441,-6.70939 1.59708,-6.70939 -1.74355,0 -4.52288,-2.90478 -6.03341,-6.53271 -2.2891,-5.49832 -2.1704,-7.28332 0.53232,-10.41721 5.80691,-6.73253 6.56458,-10.36854 0.88728,-4.23743 l -5.50116,5.82654 -4.61381,-5.82654 c -4.45666,-5.63729 -4.56739,-7.95445 -1.0647,-16.42026 2.34192,-5.65946 -2.23101,-4.64903 -4.79129,1.05939 -2.17929,4.85994 -2.28962,4.89551 -5.67857,-1.58911 -1.87618,-3.58965 -5.92239,-8.92256 -9.05015,-11.82959 -3.12719,-2.90704 -5.67263,-6.30235 -5.67858,-7.59216 -0.006,-1.28969 -2.35988,-5.23078 -5.32367,-8.8281 -7.03495,-8.53948 -7.36999,-2.6183 -0.35507,6.53288 l 5.32361,6.88582 -4.08149,6.88594 c -4.49465,7.35411 -2.02311,9.34783 4.43639,3.53122 3.35859,-3.02453 4.30499,-2.55133 9.76001,5.64993 l 5.85605,9.00471 -6.92081,8.65149 c -8.99507,11.13671 -6.93195,13.30889 2.83932,3.00149 6.55211,-6.91174 7.85999,-7.50647 10.29238,-4.5906 1.84436,2.21167 2.24614,6.21938 1.24218,11.65315 -1.22584,6.63716 -1.02411,7.67922 1.24218,5.47338 3.91966,-3.81521 5.23476,-3.49998 7.80803,2.11872 2.74036,5.98538 0.39145,13.55363 -5.32367,16.59675 -3.19808,1.7028 -4.55273,5.66651 -5.67857,16.59681 -1.63097,15.83719 2.29527,28.89453 11.35714,36.90134 5.56581,4.91767 6.04173,9.11435 1.24212,10.94682 -6.4681,2.46963 -7.71571,1.311 -14.72866,-13.41871 -8.7781,-18.43828 -9.32272,-37.69687 -1.77462,-53.67464 5.38233,-11.393 5.52315,-12.35932 2.6619,-12.35932 -1.12423,0 -2.60676,2.01578 -3.37164,4.414 -2.1033,6.59287 -6.56522,5.16178 -10.64729,-3.35467 -2.01167,-4.19684 -4.63148,-7.59209 -5.85605,-7.59204 -3.01841,-5e-5 -2.75998,2.45076 0.88728,7.23899 3.44577,4.52358 0.59624,16.83284 -3.90401,16.77331 -7.6242,-0.10046 -8.99808,-5.43591 -3.90396,-14.65459 1.57514,-2.85098 1.78761,-4.94377 0.53232,-4.94371 -1.1875,0 -2.97938,1.57167 -4.08143,3.53121 -1.62341,2.88585 -4.10009,0.6165 -12.42179,-12.18276 -5.64976,-8.69057 -10.85329,-15.33217 -11.53456,-14.65453 -0.68146,0.67753 2.38274,7.8205 6.74327,15.71392 8.23694,14.91007 9.41584,18.53892 5.85593,18.53897 -4.82611,-5e-5 -11.1982,-9.91866 -9.93743,-15.36081 0.93162,-4.02104 0.68521,-4.65359 -0.88727,-2.29538 -2.52963,3.79298 -2.78845,3.28607 -6.92076,-15.0077 -3.23555,-14.32365 0.53464,-44.24321 7.27571,-57.735586 l 4.25886,-8.474931 7.45313,8.474931 c 4.3484,5.054856 7.40399,7.244126 7.45307,5.296766 0.0462,-1.810872 -2.60306,-6.05795 -5.67857,-9.357648 -5.98948,-6.427516 -5.35439,-9.531317 2.12946,-12.535928 3.7789,-1.516884 3.80205,-1.831138 0.7098,-1.942221 -3.2967,-0.118358 -3.67695,-2.046434 -3.19416,-13.242034 0.31004,-7.194243 1.03444,-13.065074 1.77456,-13.065651 0.74011,-4.04e-4 3.20247,4.538296 5.32361,10.064042 4.17231,10.869799 7.50544,9.74719 7.63055,-2.471828 0.0346,-3.59744 1.01222,-7.952945 2.12951,-9.710817 1.64905,-2.593997 2.42795,-2.244409 4.08144,2.118603 1.12105,2.957268 2.83914,8.655701 3.72654,12.712483 2.01918,9.23346 4.54447,5.796814 6.56579,-8.828041 0.98941,-7.157408 2.25336,-10.604908 3.54917,-10.593708 z m 304.68974,2.471887 c 0.95414,-0.04619 2.10117,-0.0034 3.1941,0 5.90807,0.01732 9.60926,0.708183 8.34024,1.588995 -1.26845,0.881043 -4.53501,5.223905 -7.27548,9.710932 -4.88881,8.004445 -5.27962,12.446093 -4.08149,40.079442 0.18764,4.321502 -1.90337,9.498812 -5.85594,14.654592 -9.95429,12.98482 -11.99575,11.04225 -12.06694,-11.47649 -0.0346,-11.493338 -1.19472,-18.409123 -4.43634,-25.071795 -2.46738,-5.071368 -4.47421,-10.639377 -4.43645,-12.359201 0.0346,-1.719882 4.37999,-6.343569 9.58259,-10.240597 6.74067,-5.048967 10.35174,-6.574569 17.03571,-6.885878 z m -551.70672,2.648383 c 2.20977,-0.144916 5.01727,0.312349 8.34035,1.412498 4.01158,1.327627 9.42139,5.58175 12.24437,9.710933 5.20958,7.618945 11.31078,26.882326 11.35714,35.841889 0.0173,2.796013 1.08987,4.456138 2.30688,3.707828 3.13636,-1.928537 2.63325,1.50101 -0.88722,6.53283 -1.65493,2.36525 -4.21123,11.66435 -5.67857,20.65763 -1.75262,10.74636 -5.73747,22.43704 -11.53451,33.89978 -4.85197,9.59281 -9.44385,18.14505 -10.29245,19.0687 -1.25592,1.36648 -4.49511,-3.2411 -8.16287,-11.65309 -0.30484,-0.69901 1.95637,-4.94689 4.96878,-9.35777 6.92496,-10.14025 14.04091,-37.52823 14.55118,-55.96991 0.50692,-18.333614 -6.88957,-38.017539 -16.14832,-43.25761 -8.69236,-4.919697 -7.69418,-10.158729 -1.06476,-10.593708 z m 480.1924,0 c 7.04257,-0.183021 9.8111,1.307997 17.92299,6.003103 6.64616,3.84703 15.78118,11.856267 21.472,19.068639 l 9.76,12.535871 0,18.009255 c 0.002,17.8346 -3.60517,39.01127 -10.29238,60.38402 -2.07807,6.64258 -10.16658,19.95493 -20.7622,34.07639 -13.74895,18.32357 -20.35746,25.13023 -31.94185,32.66384 -8.05797,5.24054 -16.75478,10.32161 -19.16506,11.12338 -2.41023,0.80183 -9.69748,3.47816 -16.32592,6.0031 -14.59419,5.55912 -32.08105,7.22536 -48.09018,4.41399 -16.07026,-2.82217 -16.67504,-4.23749 -1.59713,-4.23743 8.30784,0 12.13345,-0.93619 11.17966,-2.47183 -0.97492,-1.56891 1.11678,-1.86688 6.38837,-0.88289 17.53432,3.27296 53.84999,-16.20098 82.16156,-44.14033 21.24082,-20.96201 27.43456,-31.5533 32.11928,-54.73403 5.41293,-26.78452 3.68883,-42.14573 -6.2109,-56.499636 -17.40695,-25.240098 -23.53898,-26.657908 -53.59133,-13.242149 -16.70275,7.456247 -26.75167,7.215144 -48.62261,-0.882775 -6.57238,-2.43355 -17.21793,-4.413934 -23.77887,-4.414049 -7.90595,0 -10.78308,-0.680875 -8.51789,-1.942222 4.83298,-2.690819 25.83154,-6.73259 31.05458,-6.003102 14.91977,2.084192 27.09416,0.115471 39.57241,-6.179601 9.10627,-4.59378 17.76913,-6.957932 28.3928,-7.945208 3.6035,-0.334866 6.52497,-0.645252 8.87267,-0.706336 z M 96.535374,48.201493 c 4.332586,-0.170319 8.926476,6.118863 10.292326,15.184312 1.05194,6.97993 2.90594,9.91318 7.80803,12.712369 6.77081,3.866428 6.88727,10.354971 0.17725,10.41721 -7.00643,0.06466 -9.81815,3.417016 -7.09817,8.474931 1.37237,2.550638 3.91285,4.590435 5.67851,4.590545 4.07076,0 4.18888,3.0437 0.17725,6.35627 -2.39135,1.97473 -4.9003,1.90429 -11.17955,-0.70622 -11.1038,-4.61595 -11.463954,-4.61745 -11.179722,4.59055 0.340639,11.05432 -5.332332,12.10366 -11.534507,2.11878 -2.547404,-4.10038 -4.613872,-8.36293 -4.613872,-9.53438 5.8e-5,-3.54063 7.712304,-9.357766 12.421901,-9.357708 5.50525,0 11.711928,-6.524627 11.711928,-12.359374 5.8e-5,-2.41773 -2.026053,-6.128042 -4.436335,-8.298261 -5.331351,-4.800646 -5.988438,-18.887349 -1.0647,-22.953138 0.932716,-0.769903 1.839625,-1.19651 2.839257,-1.235886 z m 224.657646,2.118776 c 0.44283,-0.06755 1.27272,0.803505 2.48442,2.295332 4.01452,4.942502 8.059,18.497288 6.38825,21.187415 -1.53512,2.471828 -4.76346,2.26271 -6.38825,-0.353341 -0.72724,-1.170471 -1.85112,-7.27132 -2.48442,-13.595202 -0.67169,-6.711517 -0.73907,-9.421677 0,-9.534319 z m 122.44376,1.235944 c 2.34435,0 2.24637,2.903112 -0.35507,9.710874 -1.17544,3.075857 -3.34981,5.649877 -4.79135,5.649935 -1.44142,0 -4.57998,1.609318 -6.92069,3.707829 -4.19593,3.762159 -4.26642,3.832134 -0.7098,-4.767159 3.40772,-8.239082 8.83046,-14.301537 12.77674,-14.301479 z M 72.578966,52.439046 c 3.306395,-0.255769 7.09055,2.80219 11.179665,9.004596 4.103606,6.224807 4.136861,6.35298 -1.419658,11.476483 -4.211571,3.883518 -5.119865,6.300556 -4.081377,10.417152 1.182537,4.687774 0.211311,5.907782 -6.38843,8.651487 -12.753014,5.301732 -15.593541,4.284607 -14.5513,-5.47338 0.192259,-1.798691 3.733406,-6.444433 7.985508,-10.24054 7.587364,-6.774044 7.754046,-7.034662 4.436277,-13.418704 -2.914775,-5.60721 -2.862235,-6.787728 -0.177248,-9.004654 0.988778,-0.816495 1.914566,-1.327281 3.016679,-1.41244 z m 132.203764,1.76555 c 11.57469,-0.113161 23.05753,4.172889 31.40948,13.065536 l 6.38843,6.709439 -5.32367,-1.412498 c -3.01304,-0.847153 -9.65031,-2.150878 -14.72884,-2.825112 -8.33902,-1.106847 -9.58587,-0.616557 -11.8894,4.414049 -1.40321,3.063791 -6.74408,7.701334 -11.88947,10.417153 -8.64606,4.563584 -10.1044,4.684309 -18.45531,1.942221 -8.76679,-2.878921 -9.15217,-2.814315 -15.43852,3.178106 l -6.56585,6.179658 1.95203,-6.35627 c 1.02284,-3.496345 3.96181,-9.765319 6.56585,-14.124867 8.13989,-13.629611 23.09425,-21.041517 37.97527,-21.187415 z m 96.18042,2.824997 c 2.04083,-0.884681 18.42933,13.450804 19.16512,17.126417 1.34644,6.728087 -5.84139,3.669493 -12.59927,-5.47338 -3.71972,-5.032569 -6.74385,-10.181707 -6.74327,-11.299927 -6e-5,-0.202652 0.0404,-0.293874 0.17725,-0.353341 z m 64.23862,16.420197 c -12.54996,0.152999 -22.89165,0.988085 -22.89165,2.295274 0,1.390847 1.82755,1.827154 4.25885,1.059445 2.77182,-0.8755 5.06346,-0.09757 6.56591,2.471887 1.258,2.150934 2.27022,2.73464 2.30688,1.235885 0.0976,-4.00101 14.58392,-3.527406 16.14838,0.529434 0.69386,1.798691 2.34394,3.354662 3.54911,3.354662 1.20506,0 1.47745,-1.716822 0.7098,-3.70783 -1.23981,-3.213787 0.11259,-3.374464 12.59927,-2.295215 17.23623,1.489921 28.29113,-1.502912 13.13164,-3.531217 -8.95339,-1.197838 -23.8276,-1.565728 -36.37819,-1.412556 z M 89.082303,77.687285 c 3.998065,0 5.851085,5.478287 2.839199,8.474873 -3.338034,3.321233 -5.812576,3.087 -7.27565,-0.706162 -1.526064,-3.957824 0.586823,-7.768769 4.436451,-7.768711 z M 388.2709,81.041946 c -2.185,-0.263274 -6.38838,3.163384 -6.38838,5.649993 0,1.052229 0.71719,1.942106 1.7745,1.942163 2.85589,0 7.14598,-5.602823 5.50115,-7.238988 -0.20553,-0.204384 -0.57562,-0.315236 -0.88727,-0.353341 z m 9.58258,1.942164 c -0.98976,0.04619 -0.17667,2.660334 2.66178,8.121821 3.17441,6.107604 3.13221,6.936569 -0.35507,10.770319 -2.08177,2.28904 -4.94476,4.23738 -6.56585,4.23744 -4.79366,0 -3.57342,4.21347 3.54911,11.29987 6.98068,6.94552 12.17849,6.95083 5.85599,0 -4.663,-5.12732 -4.61785,-7.52825 0.35508,-12.00615 3.75962,-3.38526 4.17647,-3.40212 7.09823,0.17667 8.12817,9.95608 12.95422,18.18985 12.95422,22.24675 1.1e-4,2.9952 1.48542,4.41393 4.43633,4.41399 6.64513,0 5.15295,-4.07688 -6.74327,-19.59825 -5.97406,-7.79406 -10.81668,-15.145801 -10.82476,-16.420312 -0.006,-1.27451 -2.95034,-5.205083 -6.5658,-8.651486 -3.23047,-3.078859 -5.08678,-4.624207 -5.85599,-4.590605 z m -45.78336,1.589053 c -2.15711,-0.212467 -9.66884,8.072457 -9.76,11.12343 -0.0289,0.899346 0.95182,1.765493 2.12951,1.765551 3.02349,0 9.84869,-10.681754 7.98545,-12.535813 -0.0941,-0.09353 -0.21073,-0.338908 -0.35507,-0.353341 z m -120.6692,4.590662 c 0.11951,-0.02887 0.32563,-0.03464 0.35507,0 3.83982,4.440204 39.65434,60.074735 53.76887,83.513545 10.10954,16.78745 23.77033,38.25523 30.34466,47.84815 49.36908,72.0366 46.75967,68.59874 49.8648,68.6824 1.39812,0.0404 10.24931,-10.23026 19.69749,-22.77641 9.44812,-12.54609 23.57593,-31.28414 31.40948,-41.66849 7.83338,-10.38431 16.12373,-21.39203 18.45526,-24.54208 29.55883,-39.93903 67.97473,-89.22249 75.95066,-97.46191 3.5378,-3.65449 6.38831,-7.810111 6.38831,-9.181271 6e-5,-4.169944 4.06337,-5.221711 9.22769,-2.471828 4.84551,2.580313 55.79446,46.900939 73.28876,63.738739 9.02261,8.68371 9.00778,8.69901 7.98545,21.89364 -1.0207,13.17032 -1.12001,13.46524 -16.50327,28.07318 -8.52361,8.09393 -16.29601,14.65459 -17.21308,14.65459 -0.91759,0 -6.9047,3.39519 -13.30918,7.59221 -6.40494,4.19691 -12.84002,7.76871 -14.37377,7.76871 -2.14279,6e-5 -2.82089,-8.27401 -2.83931,-35.48889 -0.0231,-36.06798 -1.44016,-52.5051 -4.43634,-51.37931 -2.03483,0.76441 -29.05168,34.84133 -47.02548,59.32463 -7.23084,9.84984 -21.98272,28.20383 -32.82913,40.60911 -24.45813,27.97312 -46.17186,54.52277 -71.69169,87.75103 -10.82072,14.08942 -20.43905,25.60135 -21.29452,25.60141 -3.05461,6e-5 -36.8944,-41.14443 -53.94634,-65.50423 -2.93793,-4.19685 -11.29872,-15.93892 -18.63268,-26.13119 -7.33396,-10.19245 -15.65122,-21.93422 -18.45531,-26.13107 -2.80404,-4.19685 -12.05904,-15.9388 -20.58472,-26.13102 -8.52522,-10.1925 -21.25138,-26.22951 -28.21532,-35.48889 -6.964,-9.2595 -13.52355,-16.43342 -14.72872,-16.06709 -1.39547,0.42436 -2.28373,24.30461 -2.30688,65.85735 -0.0346,59.10391 0.49133,93.02015 4.25886,251.60013 0.64069,26.97978 2.16375,67.15663 3.37163,89.34009 1.20777,22.18347 2.30047,48.73393 2.30694,58.79503 0.006,14.40968 0.85593,20.23299 4.61381,27.72007 5.86004,11.67526 12.20655,12.49095 23.06907,3.00155 10.36092,-9.05131 16.48562,-10.16641 25.55349,-4.59055 12.86364,7.91005 16.73156,25.11141 9.22769,41.6685 -3.13175,6.90897 -6.60073,10.29284 -14.5513,14.30148 -12.72958,6.41793 -18.11047,6.54864 -29.28003,0.88277 -11.28716,-5.72539 -13.10387,-5.53533 -18.45531,1.94222 -4.01787,5.61403 -5.79624,6.29409 -15.08362,5.82649 -20.08028,-1.01089 -18.58926,-0.0981 -13.84145,-9.35776 7.25412,-14.14744 9.54194,-25.99239 6.74328,-34.42951 -1.36614,-4.11885 -3.47239,-7.59221 -4.61382,-7.5921 -1.14143,0 -2.92765,-2.45416 -4.08143,-5.47338 -2.54724,-6.66654 -11.27349,-10.40918 -18.10036,-7.76871 -5.53423,2.14026 -15.08582,11.85598 -18.81022,19.06864 -3.39819,6.58115 -3.06327,22.56533 0.7098,29.13257 4.60383,8.0131 4.11013,10.14672 -3.54917,13.94837 -3.80055,1.88656 -7.07548,3.3546 -7.27553,3.35466 -1.3248,0 -9.93749,-11.31598 -9.93749,-13.06554 1.2e-4,-3.7304 -7.39072,-2.22986 -16.50334,3.35472 -9.61549,5.89225 -23.15469,7.08697 -30.877155,2.64838 -28.128546,-16.16795 -33.545403,-49.60804 -9.582529,-59.14802 8.372913,-3.33341 9.435996,-3.24733 15.261158,0.17667 4.142405,2.43476 6.726933,6.15501 7.630493,10.94688 1.974553,10.4709 7.892953,12.80295 19.697493,7.94526 12.682,-5.21917 13.74173,-9.21706 16.50328,-64.09185 1.23225,-24.48567 3.27066,-60.72685 4.43645,-80.51199 1.16585,-19.78514 3.63774,-70.78438 5.50104,-113.35245 1.86335,-42.56818 4.33148,-85.22072 5.50109,-94.81347 1.16949,-9.59275 2.50479,-54.19847 3.01673,-99.05102 l 0.88728,-81.57138 13.84145,-10.77026 c 14.39818,-11.18082 60.36208,-41.62895 64.06113,-42.551274 z m 375.67163,1.765551 c 6.03318,-0.04041 8.24468,1.205632 13.13164,5.296825 13.18378,11.037689 18.24199,29.017619 9.40505,33.723289 -2.33095,1.24131 -5.32985,2.29521 -6.56579,2.29527 -3.20253,0 -12.81508,-10.75208 -15.61606,-17.47959 -2.84122,-6.82531 -11.18907,-12.00834 -22.53669,-14.12486 -8.13285,-1.51723 -8.13885,-1.74517 -3.54911,-4.943717 2.58395,-1.801 10.82141,-3.641895 18.27783,-4.237494 3.0967,-0.247108 5.44197,-0.515578 7.45313,-0.529435 z M 336.09922,106.11369 c -1.79638,0 -6.88842,9.66694 -6.74327,12.71237 0.10393,2.19885 8.69525,-8.44272 8.69525,-10.77021 6e-5,-1.06632 -0.94057,-1.94222 -1.95198,-1.94216 z m 26.79561,7.23904 c -0.26212,0.0462 -0.58567,0.16801 -0.88728,0.35334 -1.20523,0.7411 -2.12992,1.76648 -2.12934,2.29534 0,0.52885 0.92423,1.05927 2.12934,1.05933 1.20511,5e-5 2.30694,-1.02544 2.30694,-2.29533 6e-5,-0.95241 -0.63417,-1.54391 -1.41966,-1.41245 z m -43.83132,3.70778 c -1.67803,0.44225 -0.26559,2.94716 6.92081,14.12492 10.42725,16.21882 10.8993,17.99395 6.38837,22.95297 -4.09766,4.50561 -1.52393,6.10691 2.83925,1.76566 3.05334,-3.03815 8.39232,0.54849 10.46981,7.06243 1.35557,4.2498 5.50115,5.84087 5.50115,2.11872 6e-5,-1.13052 -2.00238,-5.42915 -4.43639,-9.53432 -2.43453,-4.1051 -3.77746,-8.97422 -3.01674,-10.94681 0.94831,-2.45821 0.27021,-3.24 -1.77455,-2.47189 -1.87375,0.70403 -6.1232,-3.78548 -11.53451,-12.00621 -4.73754,-7.19782 -9.30575,-13.06553 -10.29244,-13.06547 -0.35508,0 -0.82493,-0.0629 -1.06476,0 z m 95.64815,2.11877 c -1.20505,6e-5 -2.30694,1.48519 -2.30694,3.35466 -5e-5,1.86954 1.10177,2.8597 2.30694,2.11872 1.20523,-0.74109 2.12946,-2.22645 2.12946,-3.35472 -1.2e-4,-1.12832 -0.92435,-2.11877 -2.12946,-2.11866 z m -91.92156,13.41865 c -1.89303,0.40241 -4.38732,4.18951 -4.43633,7.23904 -0.0173,1.15621 1.51157,0.43822 3.54905,-1.58911 2.03691,-2.02709 3.02713,-4.4036 2.12946,-5.29682 -0.31466,-0.31293 -0.80518,-0.4463 -1.24218,-0.35334 z m 87.30769,2.11866 c 1.57266,0.0404 3.3292,1.90619 5.67857,5.47338 3.58682,5.44676 3.46881,5.90714 -0.53232,9.88749 -4.13409,4.1133 -4.17843,4.02728 -8.16293,-0.35335 -3.35045,-3.68392 -3.66222,-5.37863 -1.59708,-9.88737 1.586,-3.46309 3.0407,-5.16201 4.61376,-5.12038 z m -330.065695,8.47499 c 16.53665,-6e-5 23.689095,4.60255 31.764375,20.30458 15.70203,30.53167 20.88795,48.97238 20.58472,73.44956 -0.3747,30.26539 -5.44324,45.10381 -29.63492,86.16204 -15.770157,26.76547 -20.427446,47.74544 -15.793425,72.39011 2.113985,11.24237 4.148756,10.45734 7.985451,-3.17804 1.611281,-5.72667 5.213164,-13.7683 7.985454,-17.8327 5.72216,-8.38948 5.27661,-7.29643 5.85593,-18.18586 0.60351,-11.34052 4.07595,-14.25304 8.69531,-7.23899 5.07119,7.70006 7.98551,6.90141 7.98551,-2.11872 0,-5.04342 1.01314,-7.59227 3.01673,-7.59216 4.49269,0 6.36101,9.39582 2.30688,11.65304 -2.62552,1.46204 -2.94156,2.48101 -0.88722,4.94372 3.31621,3.9756 4.06954,27.49322 0.88722,28.60296 -1.29893,0.45322 -3.60281,-1.78444 -4.96871,-4.76716 -2.28777,-4.99591 -2.94342,-5.18961 -9.58253,-3.0015 -11.91782,3.92757 -16.968167,12.71231 -7.27565,12.71237 6.00385,-6e-5 14.37376,6.995 14.37376,12.00615 -1.1e-4,5.00024 -4.88032,13.75438 -8.16287,15.00775 -3.75991,1.43548 -3.65979,1.3005 0.70986,-7.4156 4.12577,-8.22776 2.17645,-13.71765 -5.32362,-14.8312 -9.42346,-1.39893 -12.74995,3.01137 -15.438576,19.77498 -2.821416,17.5887 -1.385766,34.31536 6.033416,69.38867 10.97973,51.90615 10.89335,77.85166 -0.17725,121.29772 -2.021491,7.93285 -4.416474,10.46588 -17.568036,19.24519 -27.340399,18.25133 -38.507535,39.5679 -36.378251,68.85895 1.802847,24.8038 23.996303,57.84598 44.54118,66.38713 12.257757,5.09579 37.741097,4.07503 51.816777,-2.11878 13.4758,-5.92949 25.21717,-16.4165 26.26322,-23.48269 0.87833,-5.93572 5.20578,-7.55555 7.09823,-2.64838 0.8098,2.09932 -0.72175,7.96351 -3.54911,13.5952 -5.99346,11.93808 -19.66077,20.71133 -39.74989,25.42485 -7.39337,1.73478 -14.41129,3.13348 -15.61594,3.00161 -12.38004,-1.3547 -25.674847,-4.30065 -32.11928,-7.06255 -20.036632,-8.5867 -37.253579,-32.32187 -44.718659,-61.6199 -2.682043,-10.52645 -2.77696,-16.41373 -1.0647,-28.42641 3.25068,-22.80597 7.348109,-30.53242 26.440708,-48.90754 9.481203,-9.12468 18.242675,-19.01563 19.342651,-21.89357 5.158202,-13.49913 7.331019,-45.51553 4.613814,-68.32929 -2.34787,-19.70864 -3.629655,-23.61162 -9.227686,-30.36857 -3.536239,-4.26867 -8.406342,-7.76883 -10.824707,-7.76877 -3.749688,-6e-5 -4.07572,0.93168 -2.839315,6.53283 3.766027,17.06071 0.657145,39.16612 -7.098171,51.02625 -1.546733,2.3652 -2.839835,6.7326 -2.839257,9.53432 -5.8e-5,7.89123 -3.809964,3.52926 -4.968772,-5.64999 -0.568695,-4.50417 -2.358956,-13.70328 -3.903957,-20.65763 -3.143812,-14.15403 -0.258078,-33.64332 5.855993,-39.72639 3.82203,-3.80338 18.931055,-4.31446 25.37595,-0.88278 6.67064,3.55206 7.138817,1.18953 3.194272,-13.77175 -1.982001,-7.51658 -6.642985,-25.05402 -10.292386,-38.8435 -3.650152,-13.78989 -6.540504,-28.00736 -6.388429,-31.60451 0.838492,-19.86487 -2.262191,-21.62967 -8.517771,-4.94377 l -4.258857,11.47648 -1.419657,-6.88594 c -1.942106,-8.79732 3.620937,-30.46873 9.227628,-35.66539 2.663741,-2.46929 4.911441,-8.37482 5.855935,-15.53736 3.164193,-23.99336 11.852341,-44.72726 24.843687,-59.67781 5.209644,-5.99553 13.332096,-18.46484 18.100356,-27.89668 7.79429,-15.41513 8.69479,-18.86829 8.69531,-33.54673 1.7e-4,-18.9348 -4.32266,-36.91986 -13.4866,-57.02936 -8.639017,-18.95698 -13.703341,-24.18885 -23.778815,-24.18879 -14.354538,0 -22.160258,13.11201 -22.35933,37.43088 -0.188795,23.08761 10.087656,36.39558 25.021108,32.13424 9.340039,-2.66513 16.661587,-10.1413 18.277777,-18.71553 1.74852,-9.27278 4.3674,-9.30355 7.45313,0 2.16496,6.52537 1.73068,8.396 -3.54906,16.42025 -6.37422,9.68692 -19.97693,17.65603 -29.989934,17.65614 -3.27516,0 -10.79838,-2.33141 -16.6807,-5.29688 -10.490881,-5.28961 -10.786428,-5.74081 -14.196401,-20.65769 -4.367457,-19.1068 -4.190555,-26.01843 0.532321,-43.78721 6.047733,-22.75373 16.202708,-32.66402 33.893837,-32.6639 z m 598.199765,0 c 3.22118,-6e-5 14.61267,18.04325 15.97119,25.24829 1.92144,10.19378 0.0577,16.46189 -8.87279,28.0733 -8.94605,11.66054 -9.15973,12.00615 -3.37186,12.0062 6.2875,0 5.67666,7.61791 -0.88728,10.59365 -5.92014,2.68384 -6.08503,1.71215 2.83943,27.54363 2.48609,7.19465 4.58419,16.39451 4.61364,20.30453 0.0866,11.40235 -6.4091,48.33774 -11.17961,63.73874 -11.94108,38.55187 -14.09248,71.71922 -6.21089,97.1088 3.6005,11.59836 6.91879,16.94784 15.43846,25.42479 5.93059,5.90028 10.82482,11.11056 10.82482,11.65304 0,3.61684 -8.26252,-0.45033 -16.85823,-8.29837 -10.8097,-9.86878 -19.04156,-25.39564 -22.89165,-43.25755 -1.2632,-5.86275 -3.24901,-11.27568 -4.43634,-12.00615 -3.54011,-2.17668 -8.0075,5.91026 -11.88946,21.54047 -2.00839,8.0862 -4.60181,14.08116 -5.67852,13.4187 -2.79647,-1.71959 -2.36473,5.0324 1.0647,18.18575 1.63068,6.25697 2.25532,11.29987 1.41966,11.29999 -4.56283,0 -12.73136,-29.44561 -13.30918,-47.84816 -0.20669,-6.59512 -0.89738,-9.76047 -1.41954,-7.06249 -1.5614,8.06397 -4.19183,5.49255 -5.67857,-5.29682 -2.90831,-21.11346 -1.15708,-33.55147 9.40505,-65.85741 7.35931,-22.50944 9.85815,-50.92643 6.92081,-76.62766 -2.69365,-23.57103 -5.15994,-30.62087 -14.19646,-39.02011 -6.43208,-5.97874 -7.19915,-9.4957 -2.66178,-13.24209 1.7215,-1.42174 6.9286,-8.72279 11.53456,-16.4202 8.84179,-14.77832 13.04833,-16.97579 21.29458,-10.77026 7.34204,5.52528 15.81518,4.00678 21.47199,-3.88433 4.10643,-5.72869 4.96871,-9.99557 4.96871,-21.89369 6e-5,-8.09394 0.87845,-14.65471 1.77456,-14.65459 z m -256.42203,9.53432 c 1.84679,-0.17725 3.29191,0.80339 5.856,3.35466 3.73687,3.71747 4.16053,5.55894 2.30687,9.00465 -3.06794,5.70381 -4.68171,5.35843 -11.71198,-1.94216 l -5.856,-6.0031 5.32368,-3.00155 c 1.73604,-0.92429 2.97337,-1.30627 4.08143,-1.4125 z m -61.93162,36.19505 c 1.20511,0 2.12934,0.53059 2.12934,1.05951 -1.1e-4,0.52885 -0.92481,1.55406 -2.12934,2.29521 -1.20529,0.74104 -2.12952,0.21074 -2.12952,-1.05933 -1.7e-4,-1.26989 0.92366,-2.29544 2.12952,-2.29539 z m -108.42495,41.492 c 7.54822,0 15.20596,5.20277 12.95428,8.8281 -0.71997,1.15915 -2.99746,0.86234 -5.50116,-0.88278 -10.31888,-7.19101 -18.22206,3.58307 -15.9709,22.07014 1.47486,12.11255 10.84885,44.82905 15.43858,53.67476 l 3.19416,6.1796 6.92075,-6.70944 c 12.89626,-12.37491 27.69218,-13.36871 37.44289,-2.64839 3.51523,3.86464 3.33815,3.89593 -6.21089,2.825 -8.36535,-0.93814 -11.02332,-0.24133 -17.39056,4.5906 -9.73177,7.38564 -12.65463,21.01641 -6.74327,32.31079 2.12219,4.05499 4.59055,10.08754 5.32362,13.59526 1.89147,9.04819 5.94658,9.36406 9.58258,0.70616 4.1696,-9.92928 13.42367,-16.77336 22.53675,-16.7733 4.05552,-6e-5 7.45308,0.38163 7.45308,0.88283 1.7e-4,0.50172 0.51038,2.51738 1.24223,4.41399 0.86355,2.23904 0.0964,3.35466 -2.12946,3.35472 -4.77651,0 -14.38334,12.7141 -19.16511,25.2483 -2.20596,5.7822 -3.5826,10.73689 -3.19422,11.12337 0.38856,0.38625 4.24576,-0.79854 8.69525,-2.6485 7.49141,-3.11442 8.81794,-2.9683 17.5681,0.88283 5.67412,2.49712 9.91682,5.87395 10.64723,8.65155 1.41278,5.37673 1.44344,5.5239 -5.67852,2.29527 -9.01066,-4.08478 -20.27028,-0.53059 -29.98988,9.53432 -9.94401,10.29614 -11.47584,16.02875 -3.72647,13.5952 15.47027,-4.85792 24.04601,-3.13752 26.26328,5.29688 1.00454,3.82371 0.17263,4.59055 -6.38843,4.59061 -4.18039,0 -12.19003,1.48888 -17.92288,3.35472 -9.29616,3.02499 -11.08711,4.73321 -16.32591,15.36087 -7.90647,16.03949 -7.85179,26.60623 0.35507,34.42939 5.97233,5.69306 6.74616,5.9076 15.61594,3.53127 9.10217,-2.43875 17.24276,-9.32664 17.39056,-14.65459 0.14492,-5.22737 20.65954,-24.72556 38.86261,-36.90139 10.24083,-6.84997 22.16759,-15.76536 26.44076,-19.77492 4.27254,-4.0095 8.43568,-7.23904 9.22763,-7.23899 2.72691,0 17.56746,-16.57943 17.56798,-19.5983 0,-4.90093 5.11248,-17.47964 7.09817,-17.47959 1.00524,0 0.81309,2.08974 -0.53232,4.59055 -3.51447,6.53381 -0.32389,8.3135 4.4364,2.47189 3.5927,-4.40938 4.2204,-4.49598 4.96871,-1.05939 0.6176,2.83724 2.70248,0.97896 7.80803,-6.88588 3.81181,-5.87112 6.38358,-11.33336 5.85599,-12.1827 -0.5277,-0.84935 1.46071,-3.75125 4.4364,-6.53277 7.79769,-7.28864 6.65672,-1.60661 -2.30694,11.82959 -9.35355,14.02152 -9.96353,19.4359 -2.12946,17.47965 3.08504,-0.77054 5.50109,-0.51154 5.50109,0.70616 6e-5,4.34003 8.70086,4.63194 11.00219,0.35334 2.53886,-4.71959 0.0346,-5.50075 -4.43633,-1.4125 -1.6394,1.49887 -0.82891,-0.95858 1.77449,-5.29688 2.60318,-4.33836 4.7913,-8.35906 4.7913,-9.00466 6e-5,-3.08111 -10.36617,1.78622 -14.72872,6.88594 -7.13218,8.33758 -6.03417,2.97517 1.7745,-8.47493 3.68034,-5.39596 7.3354,-12.49933 7.98545,-15.71398 0.65067,-3.21442 3.04335,-7.79215 5.50109,-10.41715 8.00473,-8.54883 5.78937,-20.59135 -2.30682,-12.53587 -1.7129,1.70458 -2.6619,1.70724 -2.6619,0.17667 -5e-5,-1.29206 1.57682,-3.63843 3.37164,-5.12027 3.40882,-2.81484 2.31017,-7.48113 -1.24218,-5.29688 -1.12203,0.68999 -2.12946,0.25057 -2.12946,-0.88272 -5e-5,-1.88091 9.79714,-7.25683 17.39056,-9.53438 2.50947,-0.75258 2.37051,-1.51342 -0.70974,-4.06088 -10.32483,-8.53977 -12.24442,-11.18001 -12.24442,-17.12642 6e-5,-3.56205 2.23263,-8.93248 4.96877,-12.00615 4.37029,-4.91011 5.74745,-5.21345 12.95411,-3.53133 7.21318,1.68386 8.54005,1.1927 11.53456,-3.3546 1.85573,-2.81842 3.37164,-6.06852 3.37164,-7.23905 1.1e-4,-1.17064 1.00361,-2.66241 2.12951,-3.35466 1.18964,-0.73145 1.57399,2.50127 1.06464,7.59216 -1.09495,10.95207 3.91435,12.01371 7.27565,1.58905 l 2.30694,-7.06249 0.17725,9.53432 c 0.25692,10.86212 4.95445,11.68745 6.92075,1.23588 1.11083,-5.90472 1.33305,-5.73636 2.83926,3.17817 2.05059,12.13518 4.01371,15.30394 6.03341,9.88743 1.41452,-3.79345 1.71549,-3.58058 3.90401,1.94222 1.33785,3.3755 2.48442,9.0166 2.48442,12.53581 0,3.51927 0.88705,6.35621 1.95198,6.35627 1.74453,-6e-5 5.16207,8.98924 3.90401,10.24048 -0.28579,0.28464 -4.82333,-0.58272 -10.11491,-1.76555 -10.92637,-2.44267 -18.80998,-0.98947 -13.30906,2.47189 1.77363,1.11626 5.45098,2.1003 8.16293,2.11866 2.7791,0.0173 4.96866,1.43554 4.96866,3.17811 5e-5,2.25769 -3.92711,3.2818 -14.72873,4.06088 -21.2332,1.53155 -29.07286,3.62134 -29.4575,7.76877 -1.33565,14.41089 -0.55253,18.51767 4.43645,22.4233 6.58335,5.15433 9.80597,5.0373 25.55337,-0.35334 15.379,-5.26461 14.19641,-5.25278 14.19641,-0.35334 5e-5,8.65518 -15.21087,15.0607 -26.08587,10.94687 -9.37682,-3.54721 -14.52572,-0.74507 -18.81021,10.4171 -2.1607,5.62868 -6.44992,12.57299 -9.58248,15.36086 -4.95941,4.41255 -5.34624,5.40052 -2.48441,7.76866 3.56055,2.94699 5.24862,14.65453 2.12946,14.65459 -1.04986,5e-5 -2.42922,-1.83934 -3.19416,-4.23744 -0.76494,-2.39833 -3.21436,-4.41411 -5.50109,-4.41399 -4.86797,0 -9.66752,7.53731 -7.80803,12.3592 3.01933,7.82864 -12.13328,23.33921 -32.11928,32.6639 -4.91219,2.29186 -8.34093,5.30386 -8.34041,7.59215 0,2.10538 -0.89894,4.5402 -2.1294,5.29683 -1.23057,0.75668 -7.13119,7.6507 -13.13164,15.53742 -8.15294,10.7153 -11.00225,13.21218 -11.00225,9.71093 -1.1e-4,-2.57714 1.79477,-6.58623 3.90402,-8.8281 16.66113,-17.7111 18.02345,-19.77503 12.95422,-19.77491 -7.82702,0 -32.081,38.68668 -32.29676,51.55592 -0.14664,8.75755 -10.51767,42.28944 -15.26115,49.08415 -2.78343,3.98791 -9.81677,12.9518 -15.616,19.95142 -9.91209,11.96307 -10.64729,13.55813 -10.64729,25.42491 -6e-5,13.50755 4.95948,28.40434 9.40511,28.4264 1.49009,0.006 5.61223,1.60464 9.22763,3.53116 3.61545,1.92663 11.20033,3.66551 16.85817,3.88444 6.50108,0.25115 11.88364,1.85187 14.72878,4.41399 5.20226,4.68402 5.92095,11.1702 1.41966,12.88898 -4.23784,1.61792 -25.36209,-6.58103 -31.40948,-12.18276 -5.06883,-4.69557 -9.3771,-4.06325 -5.67857,0.88284 1.1427,1.52773 7.90179,10.33822 14.9062,19.59824 13.10532,17.32491 14.77393,24.51812 5.32367,23.12958 -3.02586,-0.44456 -8.50437,-6.08237 -14.90614,-15.53736 l -9.93754,-14.83121 -3.90402,12.53593 c -2.1298,6.8935 -5.48031,14.42717 -7.45307,16.5967 -4.66843,5.13216 -8.82158,5.02038 -11.71199,-0.35277 -1.84938,-3.43803 -1.0192,-7.07634 4.25886,-17.4797 3.64519,-7.18425 6.74327,-14.45072 6.74327,-16.24352 1.8e-4,-5.09932 -13.92475,-17.59529 -22.18185,-19.95148 -7.2734,-2.07553 -7.45301,-2.5929 -7.45301,-13.77181 -6e-5,-9.48986 0.88976,-11.99547 4.96865,-14.65459 5.95663,-3.88329 6.63629,-13.79583 1.41966,-21.71708 -3.49392,-5.30549 -3.42019,-5.69739 7.27565,-16.94992 11.96331,-12.58593 15.47888,-24.00496 12.59927,-40.96222 -0.80322,-4.73113 -0.32101,-13.69092 1.06475,-19.95141 4.66058,-21.05006 4.71301,-21.18747 1.59708,-21.18742 -1.64384,6e-5 -4.86537,1.95955 -7.09823,4.41405 -4.20118,4.61907 -28.35134,21.71697 -30.69962,21.71703 -3.85563,5e-5 -14.02747,9.56434 -17.21314,16.24364 -4.39869,9.22226 -2.12864,21.22408 6.74333,34.78261 l 5.67852,8.65155 -7.45307,-4.41411 c -8.98947,-5.2239 -16.69935,-16.05271 -18.63274,-26.30763 -1.55089,-8.22614 1.79944,-17.2491 11.53457,-31.42783 5.41835,-7.89267 5.43105,-8.00497 1.95197,-21.36397 -4.19165,-16.09446 -2.82343,-24.9322 6.03348,-42.02167 7.49106,-14.4528 7.21543,-19.34935 -1.06476,-22.2468 -4.96912,-1.73847 -6.98201,-1.25361 -11.53451,3.00161 -3.00963,2.81316 -6.03878,6.9726 -6.74327,9.18121 -1.9428,6.08947 -5.32361,4.87795 -5.32361,-1.94217 -6e-5,-8.56165 9.41844,-21.52303 16.85812,-23.12957 8.55287,-1.84725 10.96904,-3.95407 12.59932,-10.41716 1.11545,-4.42138 -0.19572,-7.56825 -6.56591,-15.18425 -8.73913,-10.44816 -12.10649,-12.47739 -20.93956,-12.71243 -8.0948,-0.21535 -11.6069,5.12963 -11.71204,17.8327 -0.071,8.57845 -1.0733,11.42954 -4.61381,13.77181 -4.42676,2.9284 -4.46654,2.77373 -4.7913,-13.77181 -0.25808,-13.16692 0.5254,-18.12865 3.54912,-22.07019 5.45825,-7.11393 18.54365,-8.48053 29.10254,-3.00149 4.47265,2.32073 8.68064,3.89864 9.22769,3.35466 0.54675,-0.54387 -0.70686,-4.9712 -2.83926,-9.71094 -2.39671,-5.32632 -9.84534,-13.61436 -19.52007,-21.71702 -16.26385,-13.62083 -22.18237,-21.9102 -22.18185,-31.07484 -1.2e-4,-8.73515 2.26663,-12.35932 7.9855,-12.35926 5.20416,0 5.26946,-0.21882 3.54906,-10.2406 -0.97729,-5.69566 -1.78905,-17.19379 -1.7745,-25.6014 0.0346,-19.5344 5.97978,-29.48585 17.56792,-29.4858 z m 345.14943,0.17667 c 0.56754,-0.067 1.04362,0.15589 1.41965,0.52944 1.00235,0.99738 1.46441,61.26448 1.0647,134.01008 -0.45957,83.87739 0.0993,141.04832 1.59708,156.25699 5.24371,53.22956 11.02101,87.58673 18.27784,110.17434 4.67322,14.54564 14.09842,34.78245 16.14843,34.78256 0.63261,0 3.09128,-1.83928 5.67858,-4.23749 2.58666,-2.39822 6.74286,-4.3976 9.22763,-4.414 2.48412,-0.0173 6.65222,-0.54848 9.22762,-1.23594 3.24329,-0.86597 6.89304,0.48267 11.71199,4.76722 12.8048,11.38445 10.62806,35.27775 -4.08144,46.08243 -7.05567,5.18251 -27.07724,10.20232 -33.71635,8.47493 -6.62884,-1.72468 -21.29787,2.96777 -24.31137,7.76877 -1.36106,2.16848 -3.96134,3.88432 -5.85599,3.88432 -4.50216,-5e-5 -16.31489,-12.20914 -13.48655,-13.94831 1.19155,-0.73272 5.32252,-5.87649 9.05021,-11.47648 10.86639,-16.32239 8.14988,-28.06394 -8.34035,-36.54822 -6.65592,-3.42476 -7.9041,-3.36979 -18.10041,0 -15.24996,5.03972 -22.67515,16.15392 -20.7622,30.89823 2.90837,22.41106 3.35622,20.64135 -7.98545,24.18891 -9.61849,3.00853 -10.62944,2.98434 -14.72878,-0.70622 -2.43037,-2.18864 -4.43633,-4.7148 -4.43633,-5.65 1.1e-4,-0.93514 -1.08837,-4.40365 -2.30694,-7.5921 l -2.12945,-5.64999 -7.63055,6.70932 c -12.02353,10.50347 -20.6473,14.07412 -33.89384,14.12493 -14.33982,0.0577 -23.90768,-5.73792 -31.94186,-19.42181 -8.82094,-15.02369 -3.24745,-33.51521 12.59932,-41.66843 6.75933,-3.47816 27.00421,-3.25063 38.33023,0.35334 4.10297,1.30551 5.56126,-0.11259 10.11491,-9.18121 11.43393,-22.7707 23.91207,-67.7457 27.68289,-99.93374 7.5018,-64.03626 9.02197,-87.02692 10.1149,-158.02255 1.05212,-68.31093 2.96322,-139.48364 3.90402,-139.48358 0.18129,0 6.90118,-2.4078 14.9062,-5.29682 15.48892,-5.58978 25.46278,-11.04693 29.63498,-16.4202 0.87989,-1.13323 2.07045,-2.00729 3.01668,-2.11878 z M 53.591388,277.3785 c 1.90221,-0.10335 3.458874,0.3366 4.258856,1.589 2.878691,4.50683 2.03939,12.03028 -1.597078,13.41864 -1.906541,0.72782 -4.43674,1.23589 -5.501093,1.23589 -2.996067,0 -6.530459,-8.06299 -5.146251,-11.65298 1.028211,-2.66559 4.815658,-4.4185 7.985566,-4.59055 z m 450.912372,5.29677 c -1.20511,0 -2.12951,1.09611 -2.12951,2.29533 -6e-5,1.19899 0.92434,2.1186 2.12951,2.11866 1.20517,0 2.1294,-0.91973 2.1294,-2.11866 -1.1e-4,-1.19917 -0.92428,-2.29539 -2.1294,-2.29533 z m -439.732765,9.71087 c 0.820363,-0.0346 1.46319,0.0289 2.306878,0.35334 2.197874,0.83896 3.413205,3.25288 3.016794,6.00311 -0.665171,4.6156 -4.631366,6.52006 -9.760065,4.41393 -5.818061,-2.38921 -1.308863,-10.51143 4.436393,-10.7702 z m -25.730965,0.35334 c 2.695091,-0.29676 5.323614,1.84615 5.323614,5.47338 1.15e-4,2.63176 -1.546964,4.06083 -4.258857,4.06089 -5.524476,0 -7.83222,-3.7337 -4.613814,-7.59216 1.034446,-1.24056 2.323448,-1.80729 3.549057,-1.94211 z m 456.41347,2.82494 c -3.11177,-0.0918 -6.45096,0.46131 -9.40511,1.58906 -5.14827,1.96571 -4.21498,5.55472 1.24224,4.76716 6.5274,-0.94202 7.49504,3.39357 1.4196,6.53276 -4.34281,2.24366 -3.71886,2.53303 5.50109,1.76567 12.8268,-1.06759 16.00976,-3.37037 12.59932,-9.71093 -1.5607,-2.90115 -6.17071,-4.79043 -11.35714,-4.94372 z m -259.43877,6.70933 c -5.45051,0 -3.67053,8.2389 3.54912,16.42025 5.70952,6.47018 10.82476,9.61792 10.82476,6.88588 -1.1e-4,-4.0569 -11.89281,-23.30619 -14.37388,-23.30613 z m -185.085294,0.88277 c 3.70246,-0.38048 6.73617,3.51655 4.25903,8.12188 -1.222375,2.27235 -3.697725,4.06088 -5.50115,4.06094 -4.900933,6e-5 -6.448879,-6.29628 -2.484358,-10.2406 1.227456,-1.22151 2.492325,-1.81526 3.726478,-1.94222 z m 377.446184,16.59681 c 5.4231,-0.0687 4.59817,4.57981 -1.77455,10.59371 -2.99168,2.8239 -5.32419,6.20951 -5.32362,7.4156 -1.7e-4,1.20598 1.92519,-0.1709 4.43634,-3.00155 3.97867,-4.48484 4.52559,-4.68229 3.19421,-0.88283 -0.84005,2.39821 -2.18436,6.42982 -2.83925,8.82809 -1.17463,4.29893 -1.11083,4.27139 3.54911,0.17667 5.38499,-4.73147 6.41505,-2.1007 1.59708,4.23756 -5.58054,7.34089 -3.66181,8.65362 3.19416,2.11872 5.85495,-5.58118 13.1317,-8.99906 13.1317,-6.17966 1.7e-4,0.571 -2.9504,3.5057 -6.56585,6.53277 -3.61546,3.02701 -6.56585,6.78287 -6.56585,8.47498 1.1e-4,3.98294 -5.74191,3.97752 -7.27565,0 -0.64728,-1.6779 -4.74794,-4.06053 -9.05015,-5.47343 -6.6483,-2.18298 -7.80803,-3.64455 -7.80803,-9.18115 1.1e-4,-11.33065 9.34385,-23.54857 18.10035,-23.65931 z m 44.36365,2.29539 c -1.20506,0 -3.69386,0.95616 -5.50104,2.11866 -1.80839,1.16239 -2.27044,2.11866 -1.06475,2.11872 1.20534,-6e-5 3.69333,-0.95633 5.50115,-2.11872 1.80769,-1.16245 2.26981,-2.1186 1.06464,-2.11866 z m 60.3346,9.53426 c 0.90962,-0.0664 1.58692,-0.0115 1.77467,0.17667 2.20856,2.19707 -4.59499,5.33366 -11.7121,5.47338 -3.61539,0.071 -10.44048,1.62676 -15.26104,3.35472 -10.35295,3.71095 -15.70745,4.05453 -17.56804,1.05933 -0.80327,-1.2927 1.72364,-2.29539 6.2109,-2.29527 4.16255,0 14.105,-1.93183 22.18185,-4.41411 6.05801,-1.86168 11.64576,-3.1553 14.37376,-3.3546 z m -5.85599,10.24054 c 3.38988,0 5.85599,0.67701 5.85599,1.94216 -1.7e-4,1.20414 -5.18014,2.06226 -11.53456,1.94217 -9.05067,-0.1709 -10.3432,-0.5687 -6.03342,-1.94217 3.97035,-1.26509 8.32205,-1.94216 11.71199,-1.94216 z m -24.84363,4.41399 c 0.99311,6e-5 1.90816,0.22748 2.66178,0.53001 1.50603,0.60478 0.35103,1.05928 -2.66178,1.05934 -3.01298,5e-5 -4.34592,-0.45438 -2.83926,-1.05934 0.75328,-0.30253 1.84673,-0.53001 2.83926,-0.53001 z m -43.83132,8.8281 c -2.63257,0.35796 -6.56637,4.61849 -6.5658,7.94533 6e-5,2.803 0.92654,2.60906 4.7913,-1.23589 2.64428,-2.63147 4.17924,-5.55259 3.37163,-6.35621 -0.39953,-0.3978 -0.9897,-0.4359 -1.59713,-0.35334 z m 5.14619,15.53748 c -0.26212,0.0462 -0.58625,0.16744 -0.88728,0.35277 -1.20517,0.74115 -2.12946,1.76653 -2.12946,2.29539 1.2e-4,0.52885 0.92435,1.05927 2.12946,1.05933 1.20511,0 2.30694,-1.0255 2.30694,-2.29528 5e-5,-0.95252 -0.63365,-1.54402 -1.41966,-1.4125 z m 170.35658,5.82649 c -1.5614,0 -6.74333,15.95376 -6.74333,20.65769 1.1e-4,3.40957 2.37113,0.32101 5.32367,-6.70938 3.74051,-8.90765 4.27335,-13.94837 1.41966,-13.94831 z m -170.00168,2.11872 c -1.90793,0 -3.37164,1.63264 -3.37164,3.53128 1.2e-4,1.89863 1.23063,3.12302 2.66184,2.64844 4.06336,-1.34755 4.57935,-6.17978 0.7098,-6.17972 z m 15.9709,0.52944 c 0.27597,-0.0346 0.49652,0.0462 0.88734,0.17667 1.50741,0.49248 3.17146,3.96394 3.54905,7.76859 0.37759,3.80488 1.73715,6.88588 3.01674,6.88594 1.41625,0 1.68732,-2.55139 0.88728,-6.53277 -0.72343,-3.59732 -0.43879,-6.53283 0.53232,-6.53277 2.07218,0 6.2091,7.88655 7.45307,14.12487 0.77764,3.89835 1.02024,4.04287 2.48436,0.70628 0.93877,-2.14084 0.26096,-6.53491 -1.59702,-10.2406 -2.59608,-5.17726 -2.54406,-6.20056 -0.17725,-5.29677 7.03189,2.68458 7.43523,16.42845 0.70985,23.65919 -2.30289,2.47552 -4.25902,5.64092 -4.25902,7.06243 -1.8e-4,1.42168 -0.92423,2.64838 -2.1294,2.64844 -1.20512,0 -2.12946,-0.91967 -2.12946,-2.11872 -1.2e-4,-1.19911 -1.10171,-2.29539 -2.30694,-2.29533 -1.20505,0 -2.12945,1.59298 -2.12945,3.35472 -6e-5,1.76168 -2.08154,6.99627 -4.61382,11.82954 -2.53222,4.83338 -4.99019,8.82804 -5.50109,8.8281 -0.51096,0 -2.01866,-2.39753 -3.19416,-5.47338 -3.61863,-9.47087 -2.36074,-21.62303 3.37164,-32.8404 3.01437,-5.89901 5.04117,-11.99622 4.43633,-13.59526 -0.47054,-1.24483 -0.11893,-2.01358 0.7098,-2.11877 z m 42.94404,32.31078 c 2.81853,-0.0173 6.36996,5.27697 7.27565,14.65465 1.15079,11.91562 0.86754,12.3857 -13.48648,18.18575 -4.78281,1.93258 -9.00593,4.63633 -9.40511,5.82655 -0.3978,1.19021 4.76162,5.95252 11.53451,10.5937 12.60723,8.63948 17.43247,14.58086 15.08362,18.36242 -2.51375,4.04755 -6.12302,1.96849 -18.98764,-10.24054 -7.09834,-6.73617 -13.41096,-11.55171 -14.01892,-10.94687 -0.60778,0.60495 0.4665,9.63483 2.30694,20.12802 1.84112,10.49308 2.77199,19.97676 2.12951,21.01081 -1.74297,2.8064 -6.65228,2.06421 -9.40516,-1.23595 -1.33456,-1.60019 -2.51508,-11.31771 -2.66178,-21.71702 -0.14723,-10.39931 -1.19455,-19.44421 -2.30694,-20.12808 -1.11244,-0.68382 -5.35854,1.78333 -9.58258,5.47349 -8.54537,7.46502 -10.05227,7.83078 -13.84145,4.06088 -4.11602,-4.09569 -3.03867,-9.6417 2.48436,-13.24209 2.77806,-1.81133 6.45887,-7.66761 8.16293,-12.88898 1.70418,-5.22136 4.31313,-10.77477 5.85599,-12.35937 1.54292,-1.58449 2.83926,-4.11348 2.83926,-5.82649 1.1e-4,-4.77242 3.78889,-3.75177 5.14619,1.4125 0.66205,2.51882 2.17784,3.91209 3.37164,3.17804 1.19368,-0.73399 5.61691,0.81823 9.93754,3.35472 10.87338,6.38318 15.02872,4.40233 14.19629,-7.06243 -0.52366,-7.22288 1.17982,-10.57864 3.37163,-10.59371 z m 127.23506,6.70933 c 1.53039,-0.50461 4.7996,4.54124 10.29238,15.53742 10.89232,21.80409 23.92067,64.43803 26.44083,86.69171 2.64197,23.33996 2.60964,21.08285 -0.8874,33.89978 -3.71297,13.61368 -13.13938,26.05781 -22.00431,29.13268 -16.30484,5.65525 -31.86045,0.81436 -37.97533,-12.00621 -4.36798,-9.15823 -4.16972,-12.22346 1.24218,-19.06869 5.23372,-6.62053 9.99239,-7.32733 17.21307,-2.29528 4.25719,2.96686 4.78448,4.98973 3.72654,11.47649 -0.89986,5.5176 -0.0404,8.87821 2.48442,11.65309 4.79891,5.27627 7.83424,4.89793 15.79347,-1.76561 18.15163,-15.19724 16.49757,-50.74191 -5.32361,-114.58838 -4.20886,-12.31423 -7.63061,-24.16911 -7.63061,-26.30769 1.2e-4,-2.13846 -1.10171,-3.8845 -2.30688,-3.88438 -1.20522,0 -2.12945,-2.01589 -2.12945,-4.41399 0,-2.4813 0.3695,-3.83173 1.0647,-4.06094 z m -192.18347,48.55443 c 2.88284,-0.22806 3.58294,1.57866 1.24218,5.29676 -1.35355,2.15065 -5.70906,4.01458 -10.46981,4.41405 -9.58882,0.80524 -9.17492,-1.26233 1.7745,-7.06243 3.18503,-1.68743 5.7236,-2.51138 7.45313,-2.64838 z m -54.30108,3.53127 c 1.205,6e-5 2.12888,2.30567 2.1294,4.94366 0,3.52758 0.68746,4.08334 2.48436,2.29533 1.79696,-1.78778 4.89753,-1.6237 11.53457,0.70622 13.9904,4.91144 17.91733,8.31177 22.18185,19.42175 2.17339,5.662 5.73648,12.06365 7.9855,14.30148 2.34124,2.32922 4.08144,7.1764 4.08144,11.29998 6e-5,9.93529 -10.16058,29.83879 -15.2611,29.83885 -3.13492,-6e-5 -4.44586,2.38326 -5.67857,11.29992 -1.4233,10.29245 -0.99478,11.78081 3.72659,15.36081 2.85698,2.16601 6.47931,4.93292 7.98545,6.17972 1.50655,1.24685 2.66184,6.10674 2.66184,10.7702 1.7e-4,8.97019 5.03274,16.35767 9.40505,13.77176 1.40909,-0.83335 5.14948,-3.18607 8.16293,-5.29677 3.01298,-2.11069 9.14501,-4.49915 13.66402,-5.29688 7.33512,-1.29454 8.16287,-0.88047 8.16287,3.17805 1.1e-4,2.86148 2.54683,5.78631 6.74333,7.94538 3.66736,1.8868 7.54187,5.80963 8.69525,8.82804 4.57744,11.97896 1.64026,12.52912 -12.06689,2.11866 -8.64277,-6.56377 -10.63447,-7.19863 -16.68076,-5.47338 -9.00217,2.56883 -10.12616,3.83855 -6.92075,8.29844 7.76935,10.81091 8.24977,18.68827 1.24213,21.36397 -2.62264,1.00136 -5.76449,-0.88509 -10.82465,-6.70938 -4.01995,-4.62721 -8.46576,-7.86865 -10.11491,-7.23899 -1.64309,0.62752 -4.14165,7.76755 -5.67857,16.06703 -1.51758,8.19387 -3.87411,16.131 -5.1462,17.65614 -4.83303,5.79398 -5.58971,2.18794 -4.43639,-20.30453 l 1.06476,-23.30607 -12.24437,-11.29993 c -14.78172,-13.57944 -15.57593,-17.58657 -6.92075,-44.84666 l 5.67858,-17.83264 -7.09818,-10.41715 c -3.99702,-5.82822 -11.11096,-12.52652 -16.32585,-15.36092 -9.2546,-5.03021 -16.32586,-13.93059 -16.32586,-20.48108 -1.2e-4,-1.91353 0.94155,-3.35478 2.12946,-3.35472 1.1886,-6e-5 5.01138,-4.26151 8.3404,-9.35771 3.32886,-5.09625 7.18634,-10.59815 8.69531,-12.18276 1.50828,-1.58443 2.8392,-3.65367 2.8392,-4.76722 6e-5,-1.11337 0.92434,-2.11866 2.12951,-2.1186 z m -0.70985,11.47643 c -0.50403,0.1299 -1.71278,1.00684 -3.37164,2.47188 -4.3443,3.83635 -15.616,21.18493 -15.616,24.01236 1.7e-4,0.68578 1.28294,1.23582 2.83926,1.23594 1.55701,-6e-5 5.68821,-5.6411 9.22763,-12.53581 6.05714,-11.79836 8.03042,-15.47063 6.92075,-15.18437 z m 2.83925,8.12176 c -2.96592,0 -10.81391,13.12177 -10.8247,18.00937 -0.0115,6.14524 1.72496,4.53211 7.63055,-7.0625 3.05351,-5.99554 4.43708,-10.94699 3.19415,-10.94687 z m 13.84145,2.29539 c -2.47339,1.1e-4 -12.96086,13.52505 -14.72872,19.06858 -2.55751,8.01749 1.65423,5.40612 9.22768,-5.64988 7.21976,-10.54018 8.46818,-13.41882 5.50104,-13.4187 z m 102.03652,0.17667 c 1.15298,-0.23383 3.03677,0.72677 5.67852,2.64844 5.59098,4.06798 2.71224,15.31739 -5.32362,21.01086 -3.4083,2.4145 -6.73501,4.41399 -7.45307,4.41405 -2.36265,0 -1.32422,-5.40156 1.95198,-9.71093 1.76924,-2.32767 3.37163,-7.50879 3.37163,-11.47649 -1.7e-4,-4.42865 0.29272,-6.58496 1.77456,-6.88593 z m -97.95503,13.06565 c -2.17899,0.40646 -6.92069,6.04513 -6.92069,8.82804 -1.2e-4,0.9699 0.96632,1.76555 2.1294,1.76561 2.81512,-1.2e-4 7.34828,-8.57961 5.50115,-10.41709 -0.18591,-0.18476 -0.39838,-0.23441 -0.70986,-0.17668 z m 70.98189,1.94211 c 4.65711,0 3.99916,9.37208 -0.88722,13.77175 -2.20359,1.9846 -4.6924,3.70783 -5.50115,3.70789 -2.3014,0 -1.55597,-6.08994 0.88728,-7.59221 1.20505,-0.7411 2.12945,-3.32262 2.12945,-5.64988 6e-5,-2.32761 1.56388,-4.23761 3.37164,-4.23755 z m 77.90258,15.18425 c -1.67895,-6e-5 -8.38319,29.88088 -10.29227,45.90605 -0.78544,6.59512 -3.26512,18.79659 -5.50115,27.1904 -3.78017,14.18964 -8.5135,53.59791 -8.51783,70.62468 l 0,7.4156 5.14619,-5.4735 c 10.55768,-11.33434 26.43072,-15.90543 38.68513,-10.94687 3.01275,1.21931 8.75882,5.21726 12.77669,8.8281 10.68469,9.60325 11.53976,19.62151 2.83931,36.01861 -3.72284,7.01654 -6.92075,13.11744 -6.92075,13.59521 1.7e-4,2.06958 4.2935,0.67192 7.45307,-2.47189 4.70313,-4.67906 14.79575,-7.39672 34.2488,-9.53426 24.89605,-2.73568 27.43901,-4.4853 28.03784,-18.71559 0.57678,-13.71131 -4.28426,-20.75648 -14.37376,-20.65763 -5.96385,0.0583 -22.35939,12.91484 -22.35939,17.47958 -1.2e-4,1.18294 -2.07074,2.11866 -4.43634,2.11872 -5.1593,0 -19.41008,-20.15482 -28.57022,-40.25594 -8.75327,-19.20772 -18.5754,-58.22385 -23.06901,-92.1652 -2.10342,-15.88805 -4.40828,-28.95613 -5.14631,-28.95607 z m -187.74702,139.8368 c 1.20835,-0.0404 2.56986,0.10797 4.25891,0.52943 3.99189,0.99681 6.07585,3.57718 7.63055,9.18116 1.18722,4.27739 1.48554,9.97207 0.53233,12.53593 -1.71966,4.62541 -1.6722,4.62189 -4.4364,-0.70628 -1.53195,-2.95335 -5.41916,-8.17119 -8.51783,-11.47649 -5.35294,-5.70969 -4.70359,-9.89799 0.53232,-10.06392 z m 45.07344,17.30297 c 1.20506,6e-5 2.14782,2.06913 2.12952,4.76711 -0.0173,2.69809 -0.96101,6.49974 -2.12952,8.29843 -1.58016,2.43257 -2.10457,1.13762 -2.1294,-4.94372 -0.0173,-4.49661 0.92429,-8.12187 2.1294,-8.12182 z m -127.41247,10.77021 c 2.75785,6e-5 9.05026,12.22023 9.05026,17.47958 6e-5,2.06734 -1.36925,4.99562 -3.01679,6.35622 -2.4026,1.98396 -3.15894,1.11337 -4.25891,-4.59055 -0.7549,-3.91175 -2.0883,-9.9447 -2.8392,-13.24215 -0.81505,-3.57792 -0.29965,-6.00322 1.06464,-6.0031 z m 51.99431,7.76871 c 0.2396,-0.052 0.54156,-0.0173 0.88722,0 0.9218,0.052 2.20041,0.43244 3.90401,0.88283 6.44582,1.70447 8.58024,7.20458 6.2109,16.59676 -1.66694,6.60811 -5.57604,6.8607 -5.67846,0.35334 -0.0404,-2.69798 -1.47231,-7.24292 -3.19427,-10.2406 -2.90294,-5.05226 -3.80633,-7.24707 -2.1294,-7.5921 z"
     id="path9093" />
</svg>
