<?xml version="1.0" encoding="UTF-8" standalone="no"?>
<!-- Created with Inkscape (http://www.inkscape.org/) -->

<svg
   xmlns:dc="http://purl.org/dc/elements/1.1/"
   xmlns:cc="http://creativecommons.org/ns#"
   xmlns:rdf="http://www.w3.org/1999/02/22-rdf-syntax-ns#"
   xmlns:svg="http://www.w3.org/2000/svg"
   xmlns="http://www.w3.org/2000/svg"
   xmlns:sodipodi="http://sodipodi.sourceforge.net/DTD/sodipodi-0.dtd"
   xmlns:inkscape="http://www.inkscape.org/namespaces/inkscape"
   width="1000"
   height="1000"
   id="svg2"
   version="1.1"
   inkscape:version="0.47 r22583"
   sodipodi:docname="Osvg.svg">
  <title
     id="title2815">Glyph tempate</title>
  <defs
     id="defs4">
    <inkscape:perspective
       sodipodi:type="inkscape:persp3d"
       inkscape:vp_x="0 : 526.18109 : 1"
       inkscape:vp_y="0 : 1000 : 0"
       inkscape:vp_z="744.09448 : 526.18109 : 1"
       inkscape:persp3d-origin="372.04724 : 350.78739 : 1"
       id="perspective10" />
    <inkscape:perspective
       id="perspective2830"
       inkscape:persp3d-origin="0.5 : 0.33333333 : 1"
       inkscape:vp_z="1 : 0.5 : 1"
       inkscape:vp_y="0 : 1000 : 0"
       inkscape:vp_x="0 : 0.5 : 1"
       sodipodi:type="inkscape:persp3d" />
  </defs>
  <sodipodi:namedview
     id="base"
     pagecolor="#ffffff"
     bordercolor="#666666"
     borderopacity="1.0"
     inkscape:pageopacity="0.0"
     inkscape:pageshadow="2"
     inkscape:zoom="0.7525"
     inkscape:cx="367.0735"
     inkscape:cy="600"
     inkscape:document-units="px"
     inkscape:current-layer="svg2"
     showgrid="true"
     showborder="true"
     inkscape:showpageshadow="false"
     showguides="true"
     inkscape:guide-bbox="true"
     inkscape:window-width="1280"
     inkscape:window-height="750"
     inkscape:window-x="0"
     inkscape:window-y="26"
     inkscape:window-maximized="1"
     borderlayer="true">
    <sodipodi:guide
       orientation="0,1"
       position="0,200"
       id="guide2818" />
    <inkscape:grid
       type="xygrid"
       id="grid2817"
       empspacing="5"
       visible="true"
       enabled="true"
       snapvisiblegridlinesonly="false"
       dotted="true" />
    <sodipodi:guide
       orientation="1,0"
       position="734.147,0"
       id="guide2847" />
  </sodipodi:namedview>
  <metadata
     id="metadata7">
    <rdf:RDF>
      <cc:Work
         rdf:about="">
        <dc:format>image/svg+xml</dc:format>
        <dc:type
           rdf:resource="http://purl.org/dc/dcmitype/StillImage" />
        <dc:title>Glyph tempate</dc:title>
        <dc:date>2010-05-21</dc:date>
        <dc:creator>
          <cc:Agent>
            <dc:title>Glyphbanger</dc:title>
          </cc:Agent>
        </dc:creator>
        <cc:license
           rdf:resource="http://creativecommons.org/licenses/by-sa/3.0/" />
        <dc:rights>
          <cc:Agent>
            <dc:title>Copyright © 2010 Glyphbanger</dc:title>
          </cc:Agent>
        </dc:rights>
      </cc:Work>
      <cc:License
         rdf:about="http://creativecommons.org/licenses/by-sa/3.0/">
        <cc:permits
           rdf:resource="http://creativecommons.org/ns#Reproduction" />
        <cc:permits
           rdf:resource="http://creativecommons.org/ns#Distribution" />
        <cc:requires
           rdf:resource="http://creativecommons.org/ns#Notice" />
        <cc:requires
           rdf:resource="http://creativecommons.org/ns#Attribution" />
        <cc:permits
           rdf:resource="http://creativecommons.org/ns#DerivativeWorks" />
        <cc:requires
           rdf:resource="http://creativecommons.org/ns#ShareAlike" />
      </cc:License>
    </rdf:RDF>
  </metadata>
  <g
     inkscape:label="Layer 1"
     inkscape:groupmode="layer"
     id="layer1" />
  <g
     id="g14"
     transform="matrix(0.1045601,0,0,-0.10632791,17.155421,778.65035)"
     style="fill:#800000">
    <path
       d="m 6332.2,6610.3626 c 31.648,192.3728 64.6436,47.5995 0,0 z M 340.53493,6597.7942 c -74.44804,115.6162 18.85313,106.5925 0,0 z M 4454.02,6445.1822 c -93.6375,30.5852 -124.7892,54.1115 -17.7387,57.7878 69.8001,0 168.9689,-13.9558 168.9689,-29.5116 0,-9.8238 -39.6007,-20.2957 -151.2302,-28.2762 z m -2130.7975,20.3057 -131.992,-33.4208 c -62.9518,17.8244 -114.8208,31.051 -114.8208,40.3785 12.4912,31.9929 253.9346,17.2878 246.8128,-6.9577 z m 2670.6795,-23.2022 -41.2316,-22.7566 c -93.05,10.6643 -148.3531,20.0222 -148.3531,27.0508 2.6846,17.4497 192.3707,19.6676 189.5847,-4.2942 z m -3258.9454,-36.054 c -3.5457,32.4082 6.3013,36.925 62.5465,38.677 38.2736,0 72.191,-4.7396 72.191,-11.8998 0,-7.2412 -34.7177,-16.9738 -134.7375,-26.7772 z m 3791.5233,-565.4921 c 84.3375,189.4663 251.5336,340.3465 373.2532,510.145 122.2364,33.1678 182.3616,243.9828 196.2812,243.9828 6.2404,0 3.181,-42.4344 -7.7398,-162.375 28.3758,103.2301 97.6289,275.115 120.8686,227.9712 0,-19.6374 -9.8673,-63.0947 -35.0419,-139.4462 -17.5463,-243.75 -291.8941,-124.488 -362.8896,-364.3893 -79.6065,-104.7999 -172.5248,-267.5902 -284.7317,-315.8885 z m -4381.7647,-14.5229 c -184.42627,126.6855 -271.90636,350.1398 -424.97019,504.1191 -199.8542,-40.3381 -218.56043,201.9434 -257.37698,357.5126 89.28435,-118.6745 187.28613,-411.4215 99.84554,-90.0542 136.83556,-237.3492 448.39223,-468.8751 593.04763,-761.0347 0,-6.7045 -3.2216,-10.5428 -10.546,-10.5428 z M 845.25045,5486.4779 C 604.65994,5445.2385 263.68898,5164.7357 197.3961,4933.2705 c 0,-41.4621 26.73577,-74.6198 94.80049,-92.3531 49.52161,16.3458 105.99991,31.5878 111.86859,-18.9487 3.16583,-102.6731 -228.58469,-356.8442 -153.33633,-527.5846 2.62688,-46.7184 -15.88079,-219.1501 33.87787,-207.1995 119.80291,98.9866 121.26679,292.5545 202.52565,431.9704 192.8975,330.9582 423.83655,638.9269 700.25313,902.8205 -95.2686,559.851 511.3946,1105.5234 1056.119,844.8606 178.7451,23.2123 303.3924,296.8993 540.3784,295.1978 496.604,172.3 1030.9445,120.842 1446.868,-133.4102 119.4503,-328.2846 447.7236,43.4775 699.4699,-110.0258 326.2269,-116.4769 568.6531,-440.7915 590.1706,-782.6773 -53.1758,-238.3013 268.5126,-308.6675 345.9208,-502.8532 198.2869,-259.2147 378.3793,-542.6949 468.8155,-856.487 28.3253,-48.997 49.0424,-69.1813 63.9446,-69.1813 26.056,0 34.3327,61.6667 34.3327,138.8184 24.5567,253.5229 -111.8219,469.4019 -153.5703,602.8121 15.4391,65.4341 102.3701,36.3073 180.2747,16.8826 77.6919,248.9048 -238.0194,425.266 -404.3138,543.2013 -126.015,96.7384 -270.174,-24.6707 -264.6224,48.0046 -31.8103,67.571 -72.4746,107.5343 -13.879,129.1566 69.79,0 252.8608,-106.8253 380.0002,-106.8253 174.3889,0.3038 327.7769,157.8378 324.2819,255.6598 -58.4235,153.716 -205.2164,-74.2551 -359.0705,-43.1433 -162.5865,0 -355.9804,66.4367 -394.6896,185.314 194.0827,181.1515 483.3429,270.8308 744.5716,127.9818 160.9555,179.4602 -295.2474,268.5827 -292.9072,385.566 22.0746,99.4627 92.0875,365.9185 133.2382,303.4923 19.9877,-15.8193 -82.7876,-192.3223 -64.0561,-229.7131 33.4514,0 168.0977,149.1079 168.0977,250.8898 8.0437,75.8452 -124.6677,115.4034 -193.0191,120.3659 -148.9912,0 -288.5206,-161.7977 -354.6432,-289.5264 -97.0819,-96.151 -231.789,291.8557 -338.5558,278.1532 -25.6812,0 -46.9049,-23.982 -60.7636,-85.5373 62.4554,-102.3895 149.5889,-673.3809 -94.8937,-545.48 -153.2766,223.3023 -293.3833,464.4798 -365.4729,724.9503 -23.3715,22.1895 -42.5386,31.7499 -58.4539,31.7499 -119.9366,-6.8259 -59.9024,-557.4913 -211.4669,-299.4919 -43.7644,80.9697 -193.6066,164.684 -294.7509,164.684 -87.4173,7.4135 -117.5357,-82.7927 -83.7399,-166.6083 -370.3255,204.1613 -759.4535,198.6519 -1236.5863,182.8833 -274.9657,-16.842 -561.3893,-57.7777 -801.7691,-195.958 23.8273,86.0336 -7.6891,176.7055 -86.1712,167.3173 -109.6541,0 -283.2933,-115.3224 -337.6441,-208.263 -10.1915,-11.4542 -18.772,-16.5788 -26.0966,-16.5788 -69.6177,-1.1646 -24.506,439.1105 -182.6249,348.722 -67.6626,-132.9443 -83.9122,-296.2005 -177.6307,-418.9565 -63.3772,-83.0155 -165.0787,-363.022 -264.44,-363.022 -204.6086,50.1415 -60.7433,431.7475 -41.9105,584.0153 0,39.5177 -12.7747,64.2087 -48.9107,64.2087 -228.96157,-25.7747 -282.74108,-523.8071 -421.35253,-147.052 -35.8655,105.9341 -171.92809,173.2115 -286.42862,173.2115 -99.91748,0 -183.40812,-51.2353 -169.55346,-172.7355 48.54805,-100.4249 128.47677,-225.571 164.84879,-172.5128 17.43585,20.0323 -91.54045,151.7006 -60.74026,234.4021 22.39782,0 98.16386,-239.7697 129.32367,-342.1896 -4.97819,-40.7837 -501.39945,-270.0207 -265.81074,-360.9864 262.5345,133.1772 547.94499,21.5312 721.55881,-163.2967 -177.34899,-180.9691 -470.58033,-206.8754 -702.95186,-84.3017 -54.3296,0 -76.88142,-18.0372 -76.88142,-45.3106 0,-84.5651 216.76325,-257.9386 375.58128,-257.9386 116.60568,0 217.61118,128.8933 334.67477,117.3479 93.909,-12.0518 50.18617,-65.4139 -6.57276,-127.354 -1.40512,29.9574 -19.40219,42.0699 -47.66162,42.0699 z M 2685.3827,3819.2906 c 81.6732,62.1123 -19.0355,205.5994 -61.8779,112.1828 0,-23.3135 16.1483,-60.0158 61.8779,-112.1828 z m 1884.4508,-163.803 c -3.181,9.6211 -6.4937,-9.368 0,0 z m -1793.2447,-33.1779 c 19.4914,49.3313 -61.3511,-30.3218 0,0 z m -139.6204,1011.5499 c -46.5098,216.3751 233.2174,8.4768 0,0 z m 1836.5025,-40.0646 c 11.6806,59.1449 -94.3264,-10.2389 0,0 z m -299.4515,-77.7491 c -110.3126,2.471 -596.0666,40.0543 -246.4481,52.3492 18.6403,-8.5982 344.1378,-12.6189 246.4481,-52.3492 z m -234.413,-49.3212 c 63.4888,0 208.3974,-11.4645 208.3974,-19.0398 -7.831,-21.7439 -347.5316,14.9077 -208.3974,19.0398 z m 40.553,-92.89 0,2.4813 c -48.4244,61.3629 275.6446,1.8229 0,-2.4813 z m 230.9381,284.007 c 15.5404,34.2817 123.0568,-72.1183 139.7522,-45.5233 17.8805,0 26.4612,7.5855 26.4612,18.908 -2.1073,111.9196 -475.0966,168.6238 -546.7607,72.2196 0,-14.8166 45.5776,-22.6148 166.4463,-27.9723 107.9116,-4.7802 148.0391,-19.9918 148.0391,-28.6306 -54.432,-31.6283 -250.2673,-12.6695 -319.956,10.4921 -46.3072,0 -65.6567,-25.1263 -65.6567,-61.2615 3.0189,-104.1315 157.4707,-307.9687 310.8283,-244.1853 178.4107,-46.1715 161.7356,177.6878 140.8463,305.9533 z m 521.7482,-389.4854 c 17.84,239.3849 -294.2951,203.5739 -434.7868,250.7987 112.1259,-48.1363 424.2104,-0.952 152.9524,55.823 -72.1403,34.221 -178.6539,21.6325 -176.7087,-49.9389 -8.1654,-71.2676 113.7974,-140.0539 213.9286,-101.2857 82.585,-32.722 114.7092,-45.9487 114.7092,-48.602 -0.7496,-8.2945 -361.5625,99.6955 -392.2381,-6.6337 30.2704,-61.464 389.8979,-3.5648 522.1434,-100.1614 z m -709.6615,521.5689 c 337.6744,-10.0365 691.8214,-261.0073 773.4237,-559.8612 0,-24.458 -6.8787,-47.2551 -22.8446,-67.1456 -193.1407,193.6388 -454.3693,117.8745 -752.9496,109.7725 -160.5503,0.871 -316.7649,174.6091 -324.6161,319.2407 -8.4286,134.1698 192.5835,204.2929 326.9866,197.9936 z m 653.6896,-940.5862 c -3.5355,15.7484 15.7532,-3.5446 0,0 z m -126.0048,89.801 c 101.7521,-61.7578 256.4369,-482.2233 140.1168,-109.4484 95.0152,-27.4559 63.3469,-334.1282 143.0042,-355.5682 69.1314,91.8568 -20.5146,351.6185 -10.2117,406.1654 7.3345,0 30.1285,-37.3909 81.5921,-133.9064 19.9169,-76.6657 40.2794,-107.8787 58.7374,-107.8787 86.5562,34.2919 100.0604,522.5613 -11.8326,579.6706 -156.6804,396.9088 -485.0853,720.7474 -973.3214,695.5804 -107.7899,0 -251.3613,-54.2026 -345.0698,-54.2026 -97.5175,-8.3552 -114.2128,87.7755 -80.6905,176.1688 -144.554,-0.5875 -196.7066,100.0804 -325.5886,69.3129 -55.9414,92.3329 -125.5895,13.2772 -200.9209,2.5926 -31.9116,-7.393 -53.9659,34.0691 -96.5146,70.3359 -176.3644,0 -349.3349,-226.5027 -425.5071,-390.2146 13.2306,-177.7486 124.9513,-335.86 -14.345,-461.2491 -14.8921,-97.4068 -48.2219,-249.2087 -17.2323,-327.8187 48.2523,47.3564 173.5075,492.0875 210.454,492.9383 3.3633,0 5.2375,-5.7323 5.2375,-18.5537 l -24.0907,-200.404 c 0,-25.329 3.7788,-36.2364 10.2826,-36.2364 96.0587,47.1539 125.7415,484.0666 323.9474,484.0666 146.0332,0 289.7668,-191.5018 344.8976,-324.264 76.993,-185.4253 153.4387,-396.5138 370.5585,-468.2878 253.3065,-83.7345 606.6025,45.8171 792.3173,-146.3025 40.786,-76.6859 61.1891,-105.4988 69.5165,-105.4988 27.0083,3.8688 -54.6244,208.2833 -25.3367,263.0024 z M 1981.6275,3416.4369 c 114.6788,105.9544 -218.0822,-1.6103 0,0 z m 1686.5083,377.869 c 3.647,57.798 -20.8084,128.0021 -82.9802,121.085 -128.3146,0 -73.7813,-289.729 -144.7871,-384.4418 -130.9485,5.5195 -366.3035,-82.8737 -95.3495,-87.5629 177.347,96.9714 -31.9925,-135.1723 113.1086,-120.8115 92.2496,114.816 210.0082,319.4837 210.0082,471.7312 z m 654.0948,-362.2827 c -36.1664,21.4805 -7.0104,384.2899 -100.0603,384.2899 -90.3248,0 -169.516,-221.0339 -87.6301,-326.4819 -179.0489,-50.7694 -116.2288,-155.3465 35.1331,-77.6378 13.2407,-40.4595 -7.3751,-119.181 62.6681,-102.592 70.023,60.9171 89.8892,92.3835 89.8892,122.4218 z M 2957.593,3957.4405 c -19.7244,102.3895 44.585,11.8087 0,0 z M 2362.732,3623.444 c -91.6924,101.4578 17.7388,232.407 0,0 z m -499.6836,-308.2826 c -33.1374,78.8935 64.4309,16.599 0,0 z m 155.6066,0 c -38.304,94.9761 87.9238,13.2772 0,0 z m -99.4524,-7.0185 c -13.9094,88.768 40.8061,-28.2963 0,0 z m 168.5028,-13.2265 c -51.5851,184.6353 81.8657,-1.509 0,0 z m 58.6362,-7.1703 c -13.261,97.8726 30.1387,186.2558 51.879,130.3921 0,-22.1893 -13.0482,-64.6137 -51.879,-130.3921 z m 330.5931,-153.4527 c 135.0313,31.3043 57.0659,224.4063 11.8934,264.005 8.6212,1.0533 123.1683,-163.7524 148.6975,-123.7283 4.2042,31.4562 -51.96,135.294 1.8742,149.1688 l 119.4908,-42.4345 c 145.9724,0 308.9136,262.3542 308.9136,348.57 0,16.9535 -6.3013,27.0912 -20.2612,27.0912 -91.9255,-27.6482 -250.7637,-254.9509 -380.365,-155.7414 0,18.432 29.9461,48.6932 108.6814,91.4416 81.6024,79.9165 168.1282,209.7213 178.3499,209.7213 5.6226,0 -11.7718,-39.1531 -65.6363,-147.2546 -38.2736,-49.0274 -53.429,-74.3361 -53.429,-82.0028 0,-29.2585 220.5338,197.9937 220.5338,343.7697 -5.197,74.478 -78.1072,183.3593 -116.1275,171.4898 -86.7791,0.2734 -126.9064,-211.5241 -72.505,-311.6855 -24.9213,-127.0907 -179.7479,-227.8801 -223.6945,-210.3594 0,11.0289 35.8118,43.1231 135.9632,101.2654 59.0211,64.3504 83.9526,168.7149 18.1947,203.8068 -25.8939,0 -57.998,-39.9633 -73.6802,-145.6443 -94.7417,-170.467 -140.6133,-92.4341 -126.1771,52.6127 -194.9641,-81.4458 -370.1938,211.4935 -540.6925,55.4584 -11.2449,-158.1721 220.5541,-120.5887 220.5541,-185.0506 6.3723,-18.979 -63.1239,-96.9308 -95.0557,-92.1 -75.9596,0 -100.81,207.8377 -232.8832,207.8377 l -82.1088,-16.8523 c -164.4202,0 -333.5411,368.5416 -417.8686,368.5416 -32.266,6.593 -50.5822,-80.3925 -47.6443,-126.4425 -7.5981,-195.6238 156.1537,-323.2917 252.0908,-473.8783 2.6441,-96.6775 -421.779,-26.4733 -330.3601,-168.1375 240.2278,46.7082 508.6492,132.9747 746.8002,31.1625 2.4922,98.9968 -352.9108,134.4735 -352.9108,141.259 l 177.9445,-2.39 c 128.9327,4.061 352.0297,-173.2723 396.2803,-210.1974 70.3066,211.4632 -28.3962,-232.1438 -88.0049,-76.2604 12.4202,54.1925 28.3962,119.7481 -17.0397,128.1338 -53.6924,0 -170.4582,-99.5742 -270.8528,-99.5742 -97.1629,0 -189.6557,115.0895 -318.5579,105.6507 -33.0056,0 -55.8299,-7.5552 -55.8299,-26.5038 148.1301,-191.0563 493.9192,-309.3866 782.1156,-231.6272 l 4.7615,127.7995 c 18.2958,0 70.7219,-200.9205 148.5455,-200.9205 z m 1349.6037,-421.6505 c 25.4178,113.0843 -128.9731,-2.7648 0,0 z m 404.6582,-70.6802 c 76.0812,70.8119 0.06,247.6795 -33.3702,116.9024 0,-27.1216 8.9554,-65.6873 33.3702,-116.9024 z m -439.4772,-138.2511 c 16.128,82.4383 -49.4578,0.5165 0,0 z m 64.8563,-34.3324 c 62.3338,121.8648 -107.2631,293.8104 -74.7742,83.5928 47.9787,135.9319 27.8187,-131.8506 74.7742,-83.5928 z m 452.6674,34.6869 0,2.5318 c 48.5156,89.4465 204.1425,28.7218 0,-2.5318 z m -25.5799,-148.551 c 67.7943,120.9736 209.2078,19.4145 0,0 z m -20.4841,-118.7252 c 135.6999,71.7638 146.256,16.4268 0,0 z m -59.6796,-374.5878 c 151.1288,50.5871 11.3362,474.9923 154.0769,172.9988 103.3831,72.8577 31.6481,322.522 112.1259,485.1097 -27.7883,103.139 -97.2339,158.0911 -152.1825,158.0911 -71.9782,5.6613 -92.5737,-107.6761 -61.6449,-184.6758 -7.1522,-136.9245 -7.9728,-370.2735 -201.1236,-367.3263 -106.8681,-54.3749 -96.9503,-138.6867 20.1397,-146.566 44.3519,0 90.3147,18.9284 104.1835,63.9251 -2.9379,-31.4764 -47.918,-205.7715 24.425,-181.5566 z m -1241.4186,20.245 c -100.1515,246.302 35.5788,140.8945 0,0 z m 0.8104,-98.5411 c -29.3282,137.3094 44.1595,44.1967 0,0 z M 2470.289,1609.6817 c 12.096,-12.548 119.3187,65.9304 148.1809,76.3719 22.2367,0 -114.4661,-137.2384 -114.4661,-190.9549 6.0479,-32.7525 48.9208,-21.0552 84.9454,-10.1073 263.7917,-60.8565 263.4675,284.1588 507.9096,300.6363 138.9418,9.3579 168.0471,316.4961 79.0495,382.2745 -20.0689,0 -44.0683,-30.4636 -68.0374,-108.4761 l 24.7795,-145.4924 c -10.0496,0 -57.0658,138.5854 -83.5373,253.29 -60.6318,-42.88 2.0769,-309.0828 4.336,-314.1161 0,-0.7191 -8.6313,31.6182 -35.0419,118.3303 -28.0314,307.4927 -143.4802,61.8895 -296.0781,-5.9449 -85.0568,-37.8061 -314.5866,-285.5361 -252.0401,-355.8113 z m 100.3237,1459.1169 c 72.8697,73.05 115.4792,117.6111 159.75,76.5136 0,-22.2908 -44.7875,-61.5958 -159.75,-76.5136 z m 44.0278,-96.7992 c 45.7297,58.5778 108.6815,91.1986 153.8844,68.0572 0,-12.4671 -39.1347,-37.4416 -153.8844,-68.0572 z m 58.778,-92.9405 c 50.0453,48.8452 137.0371,86.4893 172.5146,75.6427 0,-7.9907 -43.734,-31.993 -172.5146,-75.6427 z m 68.0879,-79.552 c 76.6283,60.1375 113.7165,93.5888 155.1508,65.8697 0,-17.6827 -45.2637,-51.9949 -155.1508,-65.8697 z m 53.2163,-55.8939 c 106.1084,114.8971 211.8824,3.8789 0,0 z m 326.1762,-494.5486 c 33.4109,20.8628 -54.898,136.2561 -21.3757,190.3372 32.5296,9.368 146.5701,-350.4132 101.9042,-134.4229 l -16.1281,95.8471 c 20.0891,0.3544 126.0759,-266.7394 238.911,-255.4674 119.9163,-139.1324 101.5393,-372.4003 -107.1012,-413.427 -182.777,-107.3622 -112.0752,-223.1099 60.6927,-202.2269 -14.4362,-7.9501 -77.4184,-128.549 -17.4653,-103.0174 141.5858,60.3095 121.9223,172.3506 194.3564,26.7975 86.0496,115.3123 370.528,268.2484 269.0595,480.6333 -96.5651,202.1458 -10.8498,436.6797 -104.1125,655.1816 -40.7353,95.4319 28.7609,235.1415 88.0453,226.0672 37.0478,0 58.3121,-44.065 58.3121,-148.5003 0,-106.1468 13.4433,-211.848 31.5164,-211.848 10.6878,0 23.0978,36.9655 35.5889,132.681 -12.9875,78.4075 -26.755,160.0052 -4.1738,205.0626 9.928,0 28.1834,-42.2521 38.1317,-144.8645 9.5329,-98.2879 14.2639,-136.4485 22.1354,-136.4485 22.4901,4.5574 33.958,262.6784 16.8169,335.6777 46.3375,-112.8615 78.32,-441.5815 99.0169,-128.9338 l 1.0941,91.6543 c 5.9568,0 24.7593,-209.6201 44.129,-209.6201 8.3376,0 24.3541,38.5455 24.3541,149.7764 0,99.1791 7.6487,135.7294 27.6262,135.7294 40.9583,0 122.6415,-153.8172 216.968,-237.4404 212.3584,-104.7391 225.0521,-360.3383 180.6495,-608.6051 -119.6732,-85.831 -346.1944,-117.6517 -346.1944,-261.6756 -2.9885,-33.2386 14.4565,-91.8569 62.3137,-81.2634 112.288,0 209.8663,163.9143 339.2548,195.0465 173.2845,184.3011 301.2548,408.4542 264.9668,693.9397 -176.9924,147.2951 -64.0155,382.9126 -128.0614,605.7288 258.6149,-10.1782 292.5121,-340.8325 290.9216,-544.0013 10.4751,-26.6355 20.8995,-38.2214 30.787,-38.2214 34.586,0 62.4857,141.9275 62.4857,277.0594 4.8425,432.7705 -369.0185,511.3603 -681.8122,585.1091 -126.7748,0 -44.2911,-231.2626 -204.1526,-231.2626 -221.3748,-9.4895 -98.946,162.5573 -301.9336,113.7526 -77.7222,109.813 208.6101,145.3202 -46.9251,160.3192 -168.9183,69.4142 -381.0134,29.7345 -291.0533,-182.4277 -154.0768,-31.8511 -257.0649,-113.4386 -315.4072,67.3179 -242.8315,-15.4344 -216.3297,34.859 -172.2716,132.6608 -197.7601,40.6317 -244.0369,-234.2705 -461.2075,-202.389 -32.2761,-126.7463 -198.6212,-323.2917 -334.8884,-181.749 -117.475,-326.7857 229.7527,-625.6092 419.7427,-753.9759 25.59,0 40.6948,29.38 36.4602,110.4106 25.519,-103.139 82.048,-269.5043 91.6823,-103.058 0,16.5383 -0.7294,36.368 -2.32,59.8234 12.2986,-143.3352 97.7505,-279.6723 123.9281,-135.8712 0,22.5237 -3.7179,51.6911 -12.41,87.9881 38.5876,-98.2473 81.5719,-163.884 97.1427,-163.884 z M 3273.4765,997.64353 c -496.4115,79.95697 -1018.4636,260.72367 -1358.7821,641.23597 -157.0553,175.6117 -345.5662,307.0977 -471.9155,520.6067 -196.4838,332.0217 -332.0115,711.9669 -332.0115,1090.8284 0,539.5757 164.3696,1088.6206 487.1925,1528.5006 250.5409,341.3795 622.0922,571.9737 1002.2039,738.0352 364.5004,159.2456 779.9376,214.4712 1188.1112,90.125 383.4345,-116.8111 751.7339,-306.5102 1048.9162,-567.3757 424.2307,-372.38 630.0244,-942.9864 697.8997,-1497.7433 47.8166,-390.731 -53.591,-720.5752 -156.3765,-1063.9195 C 5260.7025,2083.7018 4946.5109,1795.1071 4644.1215,1537.4217 4265.1646,1214.4946 3838.918,1031.3784 3273.4765,997.64353 z M 434.95553,3892.9077 c 11.13559,-125.298 131.72667,-10.958 218.57259,-20.0525 257.63126,0.04 407.72078,-333.3788 250.86804,-541.0645 -70.30866,-251.0113 -466.33762,-95.756 -505.10757,-242.4433 92.78652,-436.5583 197.18377,-888.085 479.17517,-1246.894 167.10284,-222.0465 344.27764,-440.9535 562.91704,-610.4888 320.655,-248.62121 681.2855,-470.40446 1094.0786,-527.95427 384.7921,-53.64057 765.8358,-135.60992 1171.0107,-76.2807 363.0821,53.16558 732.3438,111.49825 1057.6994,303.82652 622.8824,368.21245 1204.3304,957.57505 1388.5561,1704.25925 3.1911,97.66 110.9102,306.6825 110.9102,426.8053 7.9931,78.2962 -61.2397,86.7729 -143.6423,86.7729 -214.9418,0 -450.8135,177.1815 -420.2899,411.7862 -19.5521,259.1134 316.2989,395.3492 520.9378,258.7792 8.5401,186.2355 -36.0854,390.4981 -104.538,569.6849 -181.065,473.9795 -532.8514,861.5608 -906.9252,1204.2265 -214.9621,196.9303 -498.4174,292.4432 -764.1136,391.0653 -442.9116,164.4207 -885.0835,187.2685 -1400.8141,156.9872 C 2590.5397,6115.2772 2159.248,5963.1817 1745.4823,5786.4661 1498.9431,5681.1699 1320.8059,5473.7982 1137.097,5290.2464 853.36713,5006.7662 634.55343,4645.2329 506.76858,4260.71 c 10.3363,-95.0166 -71.81305,-274.5579 -71.81305,-367.8023 z M 3564.3372,447.70836 c 577.6693,0 1173.3306,132.8532 1660.2092,479.18709 424.1191,301.69675 826.0826,657.69025 1063.9095,1124.73245 106.24,189.1623 227.2201,389.8701 258.8176,603.2373 -84.7226,47.5489 -130.3207,-302.4187 -215.0735,-383.267 -169.3337,-394.225 -444.2995,-727.705 -762.2394,-1015.7325 -558.7149,-506.15884 -1208.7068,-727.91271 -2137.038,-758.90402 -124.0699,0 -245.5161,26.18073 -371.3791,41.30521 -531.1392,63.82686 -1072.4294,171.81592 -1520.8925,490.06301 -503.2396,357.1178 -920.94908,848.3748 -1175.17747,1439.7428 2.73831,29.2484 -138.82115,365.0375 -113.73972,186.7925 43.1859,-288.4123 222.91356,-538.6843 368.08663,-785.2598 219.72343,-373.2205 565.02226,-661.7038 917.79136,-907.17237 316.2886,-220.08789 676.9089,-365.75448 1061.3972,-420.55465 320.4421,-45.67627 642.9409,-94.17002 965.3282,-94.17002 z M 578.10652,1371.4311 c 15.54445,9.4794 19.41841,-9.7832 0,0 z m 5613.16608,-22.6553 c 24.3946,7.2614 24.3541,-4.4257 0,0 z M 1588.1029,518.31258 c -54.4826,87.02604 -104.0923,224.305 -92.0065,274.23888 7.2535,0 26.8968,-38.0887 62.6175,-140.34962 -12.2986,-28.92631 69.871,-122.08459 29.389,-133.88926 z m 3601.3104,-18.91422 c 27.5147,165.30897 187.9943,451.46698 66.3354,115.50573 -20.7476,17.75056 -37.3213,-145.93193 -66.3354,-115.50573 z M 659.21444,423.25943 c -16.77026,24.0256 71.70264,165.58242 27.26662,196.81478 -66.22906,0 -316.99883,-348.47485 -320.58001,-348.47485 -0.9381,0 15.05717,23.8757 55.72661,84.11437 -33.28117,-16.97175 -67.1945,-65.1799 -103.96973,-68.65365 48.58756,84.5853 306.12764,271.70295 306.12764,352.32028 0,23.6853 -23.17788,48.4735 -78.5084,38.1758 L 422.87069,654.76917 c 0,0 406.9741,105.22424 412.68069,244.33932 214.33092,255.29941 -100.57394,73.82073 -21.96728,141.81001 97.85184,43.1737 209.8065,129.4909 253.1049,129.4909 46.9555,-31.4562 0.3749,-71.9158 -32.1142,-158.719 -35.19376,-111.25317 -7.76,-539.79037 -54.97891,-228.13524 9.83685,64.35755 20.05867,170.42035 -19.96748,179.37614 -63.23748,0 -210.16416,-283.97045 -224.66718,-402.99652 C 723.97962,428.57336 682.40043,330.91744 659.21444,423.25943 z M 6119.6187,366.47021 c -71.3805,64.91557 -151.4632,565.9326 -295.2981,574.27973 -35.4673,-4.05102 -28.1327,-88.30313 -18.7518,-137.80963 -8.1754,-105.0693 -13.6257,-145.30302 -18.0123,-145.30302 -11.7515,0 -15.905,288.91675 -44.5545,393.44931 -35.7713,57.6258 -74.2373,83.8561 -32.2256,104.9923 59.5682,0 250.1458,-129.1364 250.1458,-150.6372 -26.5626,1.114 -78.4213,25.886 -80.9945,-11.13016 6.5141,-73.15233 205.2671,-324.28319 332.6598,-307.04306 105.0851,-26.58482 180.1937,-50.11922 147.0867,-64.4092 -19.927,0 -68.1082,12.02647 -144.2096,44.26145 -43.3591,-8.64487 -60.8244,-25.48598 -60.8244,-47.63595 0,-94.85869 320.4221,-287.11607 299.8568,-350.28262 -101.509,9.2809 -263.6296,313.9865 -330.3905,313.9865 -15.4289,0 -25.7723,-16.29118 -29.0851,-56.29197 21.011,-92.65089 38.1217,-123.19963 24.5973,-160.42648 z M 4943.8973,681.36614 C 4940.3413,521.24754 4718.6931,338.5607 4552.9356,249.4423 l 0,-18.28124 c 154.3808,132.46128 301.0319,253.22827 390.9617,450.20508 z m 103.9909,-265.69831 c 73.8727,-24.614 73.0116,-210.87385 173.3048,-177.52889 111.508,0 256.6699,126.68149 261.8264,254.88615 62.6681,149.77332 185.9277,390.95892 205.5203,79.77877 99.1688,-206.29416 306.6544,-321.92243 508.1427,-404.26347 222.8132,-91.053777 466.2018,89.73111 338.9915,321.07071 4.3156,126.38474 -217.7075,249.37169 -217.7075,315.8773 -1.4183,32.5621 114.7903,57.10116 95.0963,108.86306 17.6578,157.17244 -561.9263,312.34684 -182.311,376.70744 139.5395,23.6478 199.1786,72.6955 199.1786,103.6453 7.4663,44.5107 -142.9028,55.5294 -217.3428,41.4724 -117.1507,11.2111 -168.0875,13.0645 -168.0875,17.1358 0,4.8207 71.583,12.7505 189.2504,43.0623 136.8042,-1.9647 336.9552,123.151 336.9552,192.8489 8.6921,46.607 -119.1667,52.4809 -186.5253,39.7506 16.361,179.926 196.5445,412.4749 94.7822,593.6162 -126.2885,-272.1171 -272.8383,-535.8487 -455.4634,-775.4159 l 314.8502,48.7946 c 0,-5.0435 -38.6889,-19.3842 -142.8927,-48.7946 -156.1131,26.1189 -342.3548,-127.5869 -346.2957,-200.2014 0,-22.949 19.3496,-38.272 65.7783,-38.272 l 184.3675,25.5923 c 26.5322,0 37.9088,-1.4887 37.9088,-4.0409 0,-15.3433 -410.078,-69.0699 -410.078,-69.0699 C 5605.9953,1091.9715 5314.2532,986.8779 5310.3325,828.40501 5212.8657,1002.4541 4997.6504,636.2317 4854.5146,661.66908 4453.5946,478.83842 4011.3618,409.39786 3577.0005,409.39786 c -795.6299,0 -1579.9845,134.55362 -2080.4989,511.12432 -4.4574,-27.43452 -10.0091,-38.62647 -17.3031,-38.62647 -29.5916,0 -88.0455,184.09869 -220.3414,215.90919 -137.4424,214.6028 -333.21394,216.0207 -556.69787,238.8583 -49.54895,15.4648 -69.43843,22.9997 -69.43843,25.7747 l 241.15276,-19.5158 c 50.19833,0 88.21152,7.1399 88.21152,29.775 -22.91651,117.1656 -405.51022,233.0551 -490.57213,235.8706 33.29233,21.0147 259.00396,-68.2191 271.23672,-22.5945 0,54.9925 -170.90388,226.5938 -206.43203,315.7567 -76.33639,69.7383 -159.7156,415.1081 -228.29597,415.1081 -120.43912,-96.1915 88.96018,-380.4921 74.37003,-506.1851 11.03227,-82.7927 -90.27007,-106.6026 -179.68512,-83.6738 59.40708,-222.8467 399.74083,-179.602 569.44118,-271.9855 0.13069,-45.8475 -332.89076,-114.1477 -418.10665,-46.7184 92.85743,-83.8865 334.97565,-101.4173 334.97565,-166.3755 -16.41468,-68.928 -341.35087,-189.5472 -309.11416,-315.77901 0,-45.09899 33.96499,-82.54764 123.18553,-96.55606 C 359.84292,742.2702 228.99154,559.63805 228.99154,383.5807 c -5.5759,-129.77545 88.35032,-232.09916 194.3097,-219.59366 375.51037,34.20782 686.34166,272.23262 720.04626,617.35322 174.9055,-136.59128 142.7306,-527.86315 409.6527,-527.86315 129.6114,0 134.7577,206.23847 198.6922,206.23847 24.6681,0 58.0992,-30.71585 110.8191,-115.84197 94.5188,-77.33803 421.8802,-427.58074 519.8739,-148.49926 -35.5787,75.71863 -78.9885,111.20861 -26.8259,138.37981 69.2834,-4.6688 270.1943,-119.68335 386.8385,-131.39788 113.9089,14.18262 80.8323,103.97348 -11.9137,150.0822 216.5627,-55.73697 456.7398,18.14655 690.4031,-7.6787 224.6367,-24.83277 504.1917,-55.07667 591.6597,-59.95105 -27.5148,-37.1671 -34.3226,-71.84992 23.3511,-72.85457 114.3951,0 413.7656,130.46312 432.6087,130.46312 2.563,0 -0.04,-2.40125 -8.9758,-7.85292 0,0 -166.0817,-265.254731 84.3781,-265.254731 190.8511,0 397.0603,346.358201 503.979,346.358201 z M 3328.5263,24.28578 1528.734,34.331061 l -707.72695,0 c -228.47833,0 -499.51708,-10.993861 -726.854701,0 -32.652048,712.718699 10.404161,1448.833739 0,2163.119739 -2.42122,369.8886 -9.563878,741.7798 -9.563878,1109.7745 l 9.563878,1006.3209 13.706131,1109.0167 -23.270009,1571.3708 c -17.646029,93.5557 52.955899,80.0337 535.577149,94.0487 405.97558,11.7892 860.91718,-4.6835 1284.71218,0.9981 l 1212.6983,19.2322 3489.5769,-39.0401 c 0,-470.2434 9.5639,-957.7886 9.5639,-1429.54 0,-151.812 9.5639,-309.0974 9.5639,-460.8385 L 6638.662,2320.9701 6626.2808,34.331061 c 0,0 -2417.8359,-23.138983 -3297.7545,-10.045281 z M -39.741938,4614.502 -40.895325,2232.1514 -39.741938,-22.098149 c -10.122727,-94.874591 17.004306,-58.432254 86.074899,-65.834079 L 1197.435,-90.69352 c 179.0489,0 357.6622,10.242295 536.2046,10.242295 786.1883,0 1569.9654,-19.452088 2356.579,-19.452088 355.3829,0 707.9548,12.204423 1082.3528,11.971085 l 449.5022,9.404869 1116.3245,5.905238 c 21.7769,219.811601 2.71,402.462601 2.6492,614.816071 l 19.1277,1617.63735 c 0,236.6403 -1.5099,477.8055 -9.5638,714.77 l -9.5639,3526.8257 c 0,246.7072 -9.5639,790.0089 -9.5639,790.0089 0,0 -389.1629,18.498 -611.9965,16.8978 l -2815.193,21.0248 -2094.2767,-3.5244 -692.38147,-3.1902 c -194.10101,-1.6407 -586.0693,-2.9933 -576.505423,-12.3983 L -39.741938,4614.502 z M 6857.2197,-200.79065 l -7021.29205,0 c 0,0 0,7523.89475 0,7523.89475 l 7021.29205,0 c 0,0 0,-7523.89475 0,-7523.89475 z M 2488.8281,3398.2984 c -6.129,8.1223 -10.1712,12.7506 -10.4143,12.7506 -0.233,0 2.7859,-3.9498 10.4143,-12.7506 z m 888.9737,-1868.5939 c 0.3039,0.1114 0.5977,0.2329 0.8611,0.3444 -0.2735,-0.061 -0.5572,-0.1722 -0.8611,-0.3444 z M 2114.6327,345.38464 c -97.3859,90.11495 -212.4294,219.9299 -239.8531,311.23179 2.0363,-98.08634 119.4099,-221.89565 239.8531,-311.23179 z m 0,0 c 49.7212,-36.87441 99.9489,-67.87484 142.8116,-88.76596 4.8931,-10.58329 3.8901,-15.40907 -1.7526,-15.40907 -16.8067,0 -74.8553,42.9155 -141.059,104.17503"
       style="fill:#800000;fill-opacity:1;fill-rule:nonzero;stroke:none"
       id="path16"
       sodipodi:nodetypes="ccccccscccccccccccscccscccccccccccccccccsccccccccscccccccccccccccccccccccccccccccsccccscccccccsscccccccccccccccccccccccccccscccccccccccccccccccccccccccccccccccccccccscsccccccccccccsccccccccccccccccccccccccscccscscccccccccccccccccccccccsccccccccccccccccccccccccccccccccccccccccccccccsccccccccccccccccccccccsccscssccsccccsssccccccccscccccccccccccccccccssccsccccccccccccscccsccscccsccccccccccsscccccccccccccccccccsccscccccccccccccscccccccscsccccccccccsccccccsccccccccccscccscscccccccccccccccccccssccccccccscsccccccccccscccscccccccccssccccccccccccccccccccsccsccccccsc" />
  </g>
</svg>
