<?xml version="1.0" encoding="UTF-8" standalone="no"?>
<!-- Created with Inkscape (http://www.inkscape.org/) -->

<svg
   xmlns:dc="http://purl.org/dc/elements/1.1/"
   xmlns:cc="http://creativecommons.org/ns#"
   xmlns:rdf="http://www.w3.org/1999/02/22-rdf-syntax-ns#"
   xmlns:svg="http://www.w3.org/2000/svg"
   xmlns="http://www.w3.org/2000/svg"
   xmlns:sodipodi="http://sodipodi.sourceforge.net/DTD/sodipodi-0.dtd"
   xmlns:inkscape="http://www.inkscape.org/namespaces/inkscape"
   width="1000"
   height="1000"
   id="svg2"
   version="1.1"
   inkscape:version="0.47 r22583"
   sodipodi:docname="O.svg">
  <title
     id="title2815">Glyph tempate</title>
  <defs
     id="defs4">
    <inkscape:perspective
       sodipodi:type="inkscape:persp3d"
       inkscape:vp_x="0 : 526.18109 : 1"
       inkscape:vp_y="0 : 1000 : 0"
       inkscape:vp_z="744.09448 : 526.18109 : 1"
       inkscape:persp3d-origin="372.04724 : 350.78739 : 1"
       id="perspective10" />
    <inkscape:perspective
       id="perspective2830"
       inkscape:persp3d-origin="0.5 : 0.33333333 : 1"
       inkscape:vp_z="1 : 0.5 : 1"
       inkscape:vp_y="0 : 1000 : 0"
       inkscape:vp_x="0 : 0.5 : 1"
       sodipodi:type="inkscape:persp3d" />
  </defs>
  <sodipodi:namedview
     id="base"
     pagecolor="#ffffff"
     bordercolor="#666666"
     borderopacity="1.0"
     inkscape:pageopacity="0.0"
     inkscape:pageshadow="2"
     inkscape:zoom="0.7525"
     inkscape:cx="367.07812"
     inkscape:cy="600"
     inkscape:document-units="px"
     inkscape:current-layer="svg2"
     showgrid="true"
     showborder="true"
     inkscape:showpageshadow="false"
     showguides="true"
     inkscape:guide-bbox="true"
     inkscape:window-width="1280"
     inkscape:window-height="750"
     inkscape:window-x="0"
     inkscape:window-y="26"
     inkscape:window-maximized="1"
     borderlayer="true">
    <sodipodi:guide
       orientation="0,1"
       position="0,200"
       id="guide2818" />
    <inkscape:grid
       type="xygrid"
       id="grid2817"
       empspacing="5"
       visible="true"
       enabled="true"
       snapvisiblegridlinesonly="false"
       dotted="true" />
    <sodipodi:guide
       orientation="1,0"
       position="734.147,0"
       id="guide2847" />
    <sodipodi:guide
       orientation="1,0"
       position="475,699"
       id="guide2819" />
    <sodipodi:guide
       orientation="0,1"
       position="468,700"
       id="guide2821" />
  </sodipodi:namedview>
  <metadata
     id="metadata7">
    <rdf:RDF>
      <cc:Work
         rdf:about="">
        <dc:format>image/svg+xml</dc:format>
        <dc:type
           rdf:resource="http://purl.org/dc/dcmitype/StillImage" />
        <dc:title>Glyph tempate</dc:title>
        <dc:date>2010-05-21</dc:date>
        <dc:creator>
          <cc:Agent>
            <dc:title>Glyphbanger</dc:title>
          </cc:Agent>
        </dc:creator>
        <cc:license
           rdf:resource="http://creativecommons.org/licenses/by-sa/3.0/" />
        <dc:rights>
          <cc:Agent>
            <dc:title>Copyright © 2010 Glyphbanger</dc:title>
          </cc:Agent>
        </dc:rights>
      </cc:Work>
      <cc:License
         rdf:about="http://creativecommons.org/licenses/by-sa/3.0/">
        <cc:permits
           rdf:resource="http://creativecommons.org/ns#Reproduction" />
        <cc:permits
           rdf:resource="http://creativecommons.org/ns#Distribution" />
        <cc:requires
           rdf:resource="http://creativecommons.org/ns#Notice" />
        <cc:requires
           rdf:resource="http://creativecommons.org/ns#Attribution" />
        <cc:permits
           rdf:resource="http://creativecommons.org/ns#DerivativeWorks" />
        <cc:requires
           rdf:resource="http://creativecommons.org/ns#ShareAlike" />
      </cc:License>
    </rdf:RDF>
  </metadata>
  <g
     inkscape:label="Layer 1"
     inkscape:groupmode="layer"
     id="layer1" />
  <g
     id="g14"
     transform="matrix(0.1045601,0,0,-0.10632791,17.155421,778.65035)"
     style="fill:#800000">
    <path
       id="path16"
       transform="matrix(9.5638776,0,0,-9.4048684,-164.07235,7323.1041)"
       style="fill:#800000;fill-opacity:1;fill-rule:nonzero;stroke:none"
       d="m 0,0 0,800 734.15625,0 0,-800 L 0,0 z M 362.65625,9.96875 657,12.21875 C 680.2995,12.048604 721,14 721,14 c 0,0 1,57.768139 1,84 l 1,375 c 0.84212,25.19594 1,50.83853 1,76 l -2,172 c 0.006,22.5791 1.99574,42.00289 -0.28125,65.375 L 605,787 l -47,1 c -39.14709,-0.0248 -75.99738,1.28125 -113.15625,1.28125 -82.2484,0 -164.20232,-2.0625 -246.40625,-2.0625 -18.66841,0 -37.37238,1.0625 -56.09375,1.0625 L 22,788 c -7.222028,-0.78702 -10.058433,3.08782 -9,-7 L 12.875,541.3125 13,288 11,12 c -1,-1.000014 39.986029,-1.138048 60.28125,-1.3125 l 72.40625,-0.34375 218.96875,-0.375 z m -19.53125,12.875 -126.78125,2.0625 C 172.0317,25.510363 124.44885,23.746479 82,25 31.537074,26.490186 24.154929,25.052418 26,35 L 28.4375,202.09375 27,320 26,427 c 0,39.12811 0.746837,78.67052 1,118 1.08786,75.94854 -3.414101,154.21811 0,230 23.770444,1.16895 52.110283,0 76,0 l 74,0 188.1875,1.0625 C 457.19188,777.45473 710,775 710,775 L 711.28125,531.875 710,228 c 0,-16.13431 -1,-32.85815 -1,-49 0,-50.16034 -1,-102.000002 -1,-152 L 343.125,22.84375 z m 191.6875,16.8125 c 1.66411,0 3.68127,1.015637 6.125,3.375 7.5377,27.695284 22.19213,53.350483 38.21875,77.09375 25.56313,13.59944 16.43659,-47.113138 9.90625,-58 1.44907,-6.545046 3.68977,-9.09375 6.375,-9.09375 11.16355,-1.456958 25.25536,39.786035 35.40625,29.5625 6.91379,-13.581126 21.48397,-30.78125 37.0625,-30.78125 7.14683,0.527652 21.02855,4.716788 20.1875,12.78125 0,10.822257 -14.06482,26.6875 -17.5625,26.6875 -1.95857,-3.975686 8.77742,-22.755467 6.6875,-24.4375 -4.30272,-6.637647 -11.62938,21.705589 -13.9375,32.28125 -0.24469,12.43859 47.45452,21.91837 30.625,41 -27.3141,-15.18884 -57.55044,-5.66771 -77.84375,13.59375 4.04744,12.63997 24.24994,19.71875 41.25,19.71875 16.087,3.30805 31.45373,-20.93805 37.5625,-4.59375 0.36544,10.40121 -15.67213,27.1552 -33.90625,27.1875 -13.29371,0 -32.45275,-11.34375 -39.75,-11.34375 -6.12676,2.29905 -1.85734,6.53407 1.46875,13.71875 -0.58048,7.72741 14.48011,-5.19224 27.65625,5.09375 17.38776,12.53981 50.40472,31.31572 42.28125,57.78125 -8.14571,-2.06539 -17.22944,-5.17622 -18.84375,1.78125 4.36522,14.18523 18.63015,37.13719 16.0625,64.09375 0,8.20338 -0.86933,14.75 -3.59375,14.75 -1.55818,0 -3.7258,-2.134 -6.6875,-7.34375 -9.45602,-33.36486 -28.29835,-63.50074 -49.03125,-91.0625 -8.09381,-20.64736 -41.71632,-28.13067 -36.15625,-53.46875 -2.24987,-36.352 -27.60843,-70.834 -61.71875,-83.21875 -26.32262,-16.321685 -60.63526,23.18707 -73.125,-11.71875 C 416.04225,68.059645 360.17496,62.617201 308.25,80.9375 c -24.77928,-0.180917 -37.81039,28.90688 -56.5,31.375 -56.95644,-27.715731 -120.39879,30.31596 -110.4375,89.84375 -28.90215,28.05925 -53.049368,60.77866 -73.21875,95.96875 -8.496435,14.8238 -8.660896,35.41246 -21.1875,45.9375 -5.20277,1.27068 -3.256583,-17.06378 -3.53125,-22.03125 -7.867976,-18.15447 16.36227,-45.17673 16.03125,-56.09375 -0.61363,-5.37344 -6.509516,-3.73801 -11.6875,-2 -7.116854,-1.88554 -9.9375,-5.43517 -9.9375,-9.84375 6.93159,-24.61121 42.593832,-54.4276 67.75,-58.8125 2.95481,0 4.85308,1.28344 5,4.46875 5.93472,-6.58596 10.50663,-12.24981 0.6875,-13.53125 -12.240181,-1.2276 -22.807698,12.46875 -35,12.46875 -16.606029,0 -39.28125,-18.41462 -39.28125,-27.40625 0,-2.89992 2.350542,-4.84375 8.03125,-4.84375 24.29679,13.03301 54.956372,10.30457 73.5,-8.9375 C 100.31567,137.84764 70.481884,125.96455 43.03125,140.125 18.398071,130.45281 70.29198,106.08645 70.8125,101.75 67.554427,90.859906 59.654418,65.34375 57.3125,65.34375 c -3.220471,8.793478 8.166844,22.807507 6.34375,24.9375 -3.803062,5.641568 -12.173811,-7.66578 -17.25,-18.34375 -1.448645,-12.918862 7.302618,-18.375 17.75,-18.375 11.972187,0 26.1874,7.173749 29.9375,18.4375 14.49323,40.05958 20.12226,-12.91568 44.0625,-15.65625 3.77838,0 5.125,2.641916 5.125,6.84375 -1.96916,16.190317 -17.0189,56.76231 4.375,62.09375 10.38923,0 21.02952,-29.766885 27.65625,-38.59375 9.79922,-13.052389 11.48769,-30.42681 18.5625,-44.5625 16.53293,-9.61082 11.81452,37.217579 19.09375,37.09375 0.76586,0 1.65313,-0.563349 2.71875,-1.78125 5.68293,-9.88218 23.84706,-22.125 35.3125,-22.125 8.2061,-0.998228 11.49138,8.633477 9,17.78125 25.13414,-14.692423 55.09331,-19.052975 83.84375,-20.84375 49.88905,-1.676642 90.59123,-2.270544 129.3125,19.4375 -3.53369,-8.911938 -0.39036,-18.475762 8.75,-17.6875 10.57566,0 26.23649,8.890661 30.8125,17.5 15.8476,27.432537 9.55317,-31.117966 22.09375,-31.84375 z M 682.5,65.46875 c -0.73474,0.0235 -2.00908,2.642026 -3.25,10.3125 4.22446,-3.163222 4.47457,-10.351673 3.25,-10.3125 z m -617,2.0625 c 4.058662,16.541348 6.009475,42.32032 26.90625,38.03125 16.00437,16.3723 25.15387,40.12355 44.4375,53.59375 0.76584,0 1.09375,-0.41212 1.09375,-1.125 -15.12518,-31.06472 -47.69246,-55.66941 -62,-80.90625 9.142797,34.17031 -1.101919,3.024662 -10.4375,-9.59375 z M 50.375,68.25 c -1.047279,0.236613 -1.273888,3.112549 2.375,8.875 0.985643,-5.666879 -0.936803,-8.755066 -2.15625,-8.875 -0.07621,-0.0075 -0.148931,-0.01577 -0.21875,0 z m 614.875,1.34375 c -3.05443,0.290119 -8.9039,15.489539 -11.5,25.09375 1.14188,-12.753033 1.465,-17.25 0.8125,-17.25 -1.45543,0 -7.7502,22.410837 -20.53125,25.9375 -12.72701,18.05432 -30.21291,34.10444 -39.03125,54.25 11.73236,-5.13546 21.45759,-22.4506 29.78125,-33.59375 7.4233,-25.508204 36.10286,-12.83257 37.9375,-38.75 2.63226,-8.118295 3.65625,-12.724496 3.65625,-14.8125 -0.30374,-0.626588 -0.68865,-0.916446 -1.125,-0.875 z M 481,87.21875 c -11.19321,0.390893 -7.91575,2.87294 1.875,6.125 11.67199,-0.84855 15.8125,-1.955456 15.8125,-3 0,-1.654016 -10.38919,-3.125 -17.6875,-3.125 z M 243.1875,88.5 c -4.58971,0.08751 -8.44772,0.661848 -8.9375,1.9375 0,0.991774 5.449,2.417269 12.03125,4.3125 l 13.78125,-3.5625 c 0.46541,-1.611233 -9.22548,-2.833348 -16.875,-2.6875 z m 284.59375,3.28125 c -4.28527,0.09426 -8.15844,0.594517 -8.28125,1.40625 0,0.747336 5.77068,1.741087 15.5,2.875 l 4.3125,-2.40625 c 0.16386,-1.433142 -6.02161,-1.996197 -11.53125,-1.875 z M 205.09375,93.375 c -5.881,0.186286 -6.90199,0.679104 -6.53125,4.125 10.45808,-1.042375 14.09375,-2.073808 14.09375,-2.84375 0,-0.761329 -3.56061,-1.28125 -7.5625,-1.28125 z m 169.5,31 c 37.92355,0.14442 72.61059,4.79437 107.34375,17.90625 27.78122,10.48628 57.39854,20.65456 79.875,41.59375 39.11319,36.43493 75.91158,77.634 94.84375,128.03125 7.15741,19.05256 11.83045,40.76047 10.9375,60.5625 -21.39706,-14.5212 -56.51312,-0.0197 -54.46875,27.53125 -3.19155,24.94503 21.46316,43.78125 43.9375,43.78125 8.61602,0 15.86701,0.89368 15.03125,9.21875 0,12.77241 -11.26009,34.99102 -11.59375,45.375 -19.26266,79.39337 -80.05885,142.06749 -145.1875,181.21875 -34.01921,20.44986 -72.62985,26.65951 -110.59375,32.3125 -42.36513,6.30835 -82.23485,-2.42151 -122.46875,-8.125 -43.16169,-6.11915 -80.84728,-29.68963 -114.375,-56.125 C 145.01404,629.62992 126.47229,606.35974 109,582.75 79.514951,544.59859 68.608018,496.57458 58.90625,450.15625 c 4.05379,-15.59695 45.46102,0.90826 52.8125,-25.78125 16.40054,-22.08279 0.7192,-57.5355 -26.21875,-57.53125 -9.080618,-0.967 -21.710662,11.19767 -22.875,-2.125 0,-9.91448 8.612015,-28.99083 7.53125,-39.09375 13.361197,-40.88552 36.23943,-79.32689 65.90625,-109.46875 19.20862,-19.51668 37.81559,-41.58533 63.59375,-52.78125 43.26338,-18.7898 88.37245,-34.94807 135.8125,-37.78125 13.48121,-0.80494 26.48382,-1.26689 39.125,-1.21875 z M 365.25,175.21875 c -26.49532,-0.0194 -52.39863,6.26109 -76.21875,16.84375 -39.74452,17.65697 -78.58467,42.17058 -104.78125,78.46875 -33.75439,46.77152 -50.9375,105.15929 -50.9375,162.53125 0,40.28355 14.14313,80.66558 34.6875,115.96875 13.2111,22.70197 32.92203,36.70257 49.34375,55.375 35.58374,40.45908 90.18891,59.65459 142.09375,68.15625 59.12262,-3.58696 103.68873,-23.03884 143.3125,-57.375 31.61787,-27.39915 64.47316,-58.08181 76.8125,-100 10.74726,-36.50708 21.34346,-71.57939 16.34375,-113.125 C 588.8092,343.07636 567.2951,282.40689 522.9375,242.8125 491.86409,215.07522 453.34195,194.88903 413.25,182.46875 c -16.0045,-4.95805 -32.10281,-7.23836 -48,-7.25 z m -41.71875,52.875 c 4.4489,3.85617 6.75707,8.25483 10.09375,7.46875 7.87666,-1.13607 15.15076,-9.53631 21,0.28125 13.47591,-3.27144 18.94792,7.43747 34.0625,7.375 -3.5051,9.39867 -1.75894,19.60714 8.4375,18.71875 9.79817,0 24.79198,-5.75 36.0625,-5.75 51.05002,-2.67595 85.39873,31.76627 101.78125,73.96875 11.69954,6.07231 10.26907,57.97881 1.21875,61.625 -1.92997,0 -4.04249,-3.31705 -6.125,-11.46875 -5.38104,-10.26229 -7.76435,-14.25 -8.53125,-14.25 -1.07727,5.79986 8.29089,33.42056 1.0625,43.1875 -8.32898,-2.27967 -5.0027,-34.89317 -14.9375,-37.8125 12.16244,39.63638 -4.01704,-5.05842 -14.65625,-11.625 -3.06232,5.81817 5.48024,27.55739 2.65625,27.96875 -0.87071,0 -3.01666,-3.0649 -7.28125,-11.21875 -19.41836,-20.42768 -56.358,-6.65919 -82.84375,-15.5625 -22.70207,-7.63158 -30.6996,-30.06537 -38.75,-49.78125 -5.76448,-14.11633 -20.79325,-34.5 -36.0625,-34.5 -20.72443,0 -23.83109,46.45497 -33.875,51.46875 -0.68004,0 -1.0625,-1.15057 -1.0625,-3.84375 l 2.5,-21.3125 c 0,-1.36327 -0.17958,-1.96875 -0.53125,-1.96875 -3.86313,0.0905 -16.95473,47.37094 -22,52.40625 -3.24028,-8.35844 0.22413,-24.48669 1.78125,-34.84375 14.56484,-13.33236 2.88339,-30.13161 1.5,-49.03125 7.96457,-17.40714 26.05932,-41.5 44.5,-41.5 z M 435.125,269.3125 c -13.88534,0.3195 -32.32621,7.71938 -31.5,21.09375 0.82092,15.37838 17.15034,33.84489 33.9375,33.9375 31.21959,-0.86147 58.55519,-8.90171 78.75,11.6875 1.6694,-2.11492 2.375,-4.55568 2.375,-7.15625 -8.53234,-31.77651 -45.56773,-58.46409 -80.875,-59.53125 -0.87833,-0.0419 -1.76181,-0.0525 -2.6875,-0.0312 l 0,-5e-5 z m 1.4375,4 c 16.77779,-0.18907 38.13665,5.09676 38.28125,12.90625 0,1.2039 -0.88041,2 -2.75,2 -1.74567,2.82779 -13.00009,-8.4576 -14.625,-4.8125 2.18419,13.6382 3.93589,37.44057 -14.71875,32.53125 -16.03509,6.78196 -32.18434,-14.89667 -32.5,-25.96875 0,-3.84218 2.00186,-6.53125 6.84375,-6.53125 7.28666,2.46272 27.77733,4.48797 33.46875,1.125 0,-0.91855 -4.1855,-2.52298 -15.46875,-3.03125 -12.63804,-0.56965 -17.40625,-1.42458 -17.40625,-3 2.57579,-3.52359 10.08663,-5.11971 18.875,-5.21875 z M 296.375,275.5 c -2.8257,-0.059 -5.17168,2.52894 -3.5,10.4375 16.00281,-0.59149 8.89451,-10.32484 3.5,-10.4375 z m 187.09375,12.125 c 1.00696,-0.0285 1.81916,0.59726 1.4375,2.5625 -6.78066,0.74847 -3.65281,-2.49976 -1.4375,-2.5625 z m -10.125,2.65625 c 3.05189,-0.10359 6.39013,0.54176 9.21875,1.90625 C 510.92526,298.22427 478.00001,300 475,300 c 1,0.99999 38.8966,-0.6408 37.03125,24.8125 -13.8276,-10.27091 -51.42867,-4.12091 -54.59375,-10.65625 3.20744,-11.30576 40.92162,0.16319 41,-0.71875 0,-0.28212 -3.3649,-1.67699 -12,-5.15625 -10.46973,4.12214 -23.22878,-3.20352 -22.375,-10.78125 -0.12712,-4.75627 4.19476,-7.0461 9.28125,-7.21875 z m -45.53125,2.625 c -36.55615,1.30729 14.24695,5.29976 25.78125,5.5625 10.21444,-4.22444 -23.83222,-4.64827 -25.78125,-5.5625 z m 1.28125,10.8125 c -14.54789,0.43936 20.96244,4.34323 21.78125,2.03125 0,-0.80547 -15.14285,-2.03125 -21.78125,-2.03125 z m 7.78125,6.6875 c -2.92252,0.0997 -5.14477,0.86732 -3.5625,2.90625 l 0,0.28125 c 19.81473,-0.31464 9.99204,-3.40677 3.5625,-3.1875 z M 168.40625,330.3125 c 0.10256,0.003 0.20707,0.009 0.3125,0.0312 8.81729,0 26.49571,39.1875 43.6875,39.1875 L 221,367.75 c 13.80959,0 16.40141,22.09375 24.34375,22.09375 3.33879,0.51365 10.60379,-7.76325 9.9375,-9.78125 0,-6.8541 -24.23827,-2.86939 -23.0625,-19.6875 17.82736,-16.59089 36.17703,14.56621 56.5625,5.90625 -1.50945,15.42252 3.2813,23.71915 13.1875,5.59375 1.63973,-11.23684 4.98003,-15.5 7.6875,-15.5 6.87565,3.73125 4.265,14.84526 -1.90625,21.6875 -10.47184,6.18215 -14.21875,9.57732 -14.21875,10.75 4.59506,1.86294 20.80048,-8.86171 23.40625,-22.375 -5.68822,-10.64995 -1.51113,-33.15407 7.5625,-33.125 3.97541,-1.26206 11.61285,10.29966 12.15625,18.21875 0,15.50006 -23.0625,39.6735 -23.0625,36.5625 0,-0.81518 1.59186,-3.50577 5.59375,-8.71875 5.63208,-11.49421 7.4629,-15.65625 6.875,-15.65625 -1.06878,0 -10.12389,13.81515 -18.65625,22.3125 -8.23257,4.54535 -11.375,7.75891 -11.375,9.71875 13.55112,10.54874 30.16951,-13.62272 39.78125,-16.5625 1.45965,0 2.125,1.07237 2.125,2.875 0,9.16715 -17.04961,37.0625 -32.3125,37.0625 l -12.5,-4.5 c -5.62891,1.47528 0.25209,12.49908 -0.1875,15.84375 -2.66934,4.25568 -14.66107,-13.26825 -15.5625,-13.15625 4.72324,4.21045 12.90014,24.73398 -1.21875,28.0625 -8.13724,0 -13.61824,-21.34375 -15.53125,-21.34375 l -0.5,13.59375 c -30.13384,8.26799 -66.29275,-4.34163 -81.78125,-24.65625 0,-2.01477 2.39268,-2.8125 5.84375,-2.8125 13.47803,-1.00361 23.12189,11.25 33.28125,11.25 10.49727,0 22.72967,-10.59375 28.34375,-10.59375 4.75078,0.89163 3.07991,7.86282 1.78125,13.625 6.23269,16.57476 16.53877,-30.60944 9.1875,-8.125 -4.62685,-3.92617 -27.95628,-22.77555 -41.4375,-22.34375 l -18.59375,-0.25 c 0,0.72149 37.16683,4.50513 36.90625,15.03125 -24.90109,-10.82548 -52.97551,-1.65389 -78.09375,3.3125 -9.55877,-15.06286 34.80772,-7.59548 34.53125,-17.875 -10.03119,-16.01156 -27.13821,-29.60598 -26.34375,-50.40625 -0.29759,-4.74339 1.47698,-13.55895 4.65625,-13.46875 z M 326.5625,352.75 c -0.54818,0.067 -0.86519,1.38264 -0.15625,5.125 3.05931,-0.82398 1.20278,-5.25287 0.15625,-5.125 z M 295,357.375 c 4.62864,-0.41546 9.60919,10.02791 2.9375,15.1875 -4.78149,-5.54681 -6.46875,-9.45862 -6.46875,-11.9375 0.97991,-2.1728 2.23523,-3.13367 3.53125,-3.25 z m 97.625,4.90625 c 0.19131,-0.0118 0.37464,-0.008 0.5625,0 5.63593,0.23658 7.8575,7.17606 7.5,12.9375 0,16.18816 -12.29187,37.9481 -21.9375,50.15625 -15.17179,1.52695 6.69967,-23.15452 -11.84375,-12.84375 -28.33098,-0.49859 -3.72324,-9.89938 9.96875,-9.3125 7.42437,-10.07061 1.73966,-40.875 15.15625,-40.875 0.20314,-0.023 0.40244,-0.0507 0.59375,-0.0625 z m 113.625,6.4375 c -0.11136,0.0491 -0.18617,0.20638 -0.0937,0.625 1.23537,0.28267 0.42782,-0.77214 0.0937,-0.625 z m -47.625,4.15625 c 9.72931,0 6.68719,38.55977 10.46875,40.84375 0,3.19391 -2.08464,6.55406 -9.40625,13.03125 -7.32372,1.76387 -5.17805,-6.60428 -6.5625,-10.90625 -15.82642,8.2626 -22.37762,-2.8518 -3.65625,-8.25 -8.562,-11.21207 -0.28812,-34.71875 9.15625,-34.71875 z m -196.4375,6.71875 c -1.94974,-0.12723 -3.6925,7.376 2,13.78125 0.7535,-10.03899 -0.66597,-13.6942 -2,-13.78125 z M 494.75,389.6875 c 0.0686,-0.0299 0.1356,0.0255 0.21875,0.28125 -0.50924,0.74706 -0.42466,-0.19165 -0.21875,-0.28125 z M 307.4375,391.75 c 0.40563,-0.006 0.54076,0.43868 0.0312,1.75 -4.81116,2.41804 -1.24814,-1.73198 -0.0312,-1.75 z m 106.65625,9.90625 c 4.87862,0.0908 10.22003,1.26794 15.1875,3.34375 26.71879,1.59481 -3.22039,5.35506 4.90625,17.03125 21.2244,-5.1893 8.41553,13.10275 31.5625,12.09375 16.71513,0 8.08816,-24.59375 21.34375,-24.59375 32.70574,7.84156 71.81883,16.20317 71.3125,62.21875 0,14.36829 -2.94618,29.46875 -6.5625,29.46875 -1.03384,0 -2.12347,-1.2304 -3.21875,-4.0625 0.1663,-21.60251 -3.36545,-56.76152 -30.40625,-57.84375 6.69665,23.69158 -5.10009,48.74467 13.40625,64.40625 3.79428,30.35508 -9.60011,54.1849 -27.71875,73.78125 -13.52887,3.31022 -23.72791,20.75 -35.46875,20.75 -5.00395,1.12638 -6.84373,-5.12206 -6.53125,-8.65625 0,-15.31376 23.70571,-18.68627 36.21875,-27.8125 4.64274,-26.39769 3.29797,-53.58206 -18.90625,-64.71875 -9.86279,-8.89148 -18.4049,-25.25 -22.6875,-25.25 -2.08885,0 -2.875,3.89199 -2.875,14.4375 0,11.82695 -1.69072,15.9375 -2.5625,15.9375 -2.0253,0 -3.97091,-22.3125 -4.59375,-22.3125 l -0.125,9.75 c -2.16407,33.24318 -5.4987,-1.71842 -10.34375,-13.71875 1.79228,7.76186 0.60157,35.23417 -1.75,35.71875 -0.82304,0 -1.34699,-4.0805 -2.34375,-14.53125 -1.0402,-10.91056 -2.93068,-15.40625 -3.96875,-15.40625 -2.36109,4.79086 -0.92047,13.47559 0.4375,21.8125 -1.30607,10.17723 -2.60123,14.125 -3.71875,14.125 -1.88973,0 -3.3125,-11.24488 -3.3125,-22.53125 0,-11.10439 -2.22003,-15.78125 -6.09375,-15.78125 -6.19878,-0.96485 -13.44679,13.88418 -9.1875,24.03125 9.75156,23.23285 0.77814,48.16251 10.875,69.65625 10.60956,22.58244 -19.12765,38.83283 -28.125,51.09375 -7.57372,-15.47636 -5.53952,-3.53758 -20.34375,2.875 -6.2687,2.71472 0.3343,-10.12343 1.84375,-10.96875 -18.06463,2.22045 -25.45493,-10.0844 -6.34375,-21.5 21.81547,-4.36228 23.72596,-29.17509 11.1875,-43.96875 -11.79805,1.19853 -22.86823,-27.19393 -24.96875,-27.15625 l 1.6875,10.1875 c 4.67027,22.9658 -7.25495,-15.27733 -10.65625,-14.28125 -3.5051,5.75033 5.7122,18.00045 2.21875,20.21875 -1.62808,0 -6.12153,-6.95982 -10.15625,-17.40625 0.90885,3.85938 1.3125,6.94885 1.3125,9.34375 -2.73713,15.29007 -11.68281,0.80303 -12.96875,-14.4375 0.16631,2.49396 0.25,4.58527 0.25,6.34375 -1.00736,17.69789 -6.92548,0.029 -9.59375,-10.9375 0.44277,8.61581 -1.13681,11.71875 -3.8125,11.71875 -19.86537,-13.64896 -56.1582,-45.40981 -43.875,-80.15625 14.24811,15.04994 31.62521,-5.83583 35,-19.3125 22.70738,3.38989 27.54093,-25.85153 48.21875,-21.53125 -4.60672,10.39906 -7.35924,15.73486 18.03125,14.09375 6.10028,19.21946 16.85846,10.54291 32.96875,7.15625 -6.76073,-16.21411 2.78242,-22.95067 15.25,-22.71875 z M 224.375,410.4375 c 2.69479,-0.099 4.0906,1.06484 -0.0312,4.9375 -14.96427,0.11236 -5.11334,-4.74846 0.0312,-4.9375 z m 20.90625,2.9375 c -2.24384,0.0661 -4.80201,7.55735 -3.71875,15.6875 4.06015,-6.99408 5.4375,-11.48441 5.4375,-13.84375 -0.49726,-1.29935 -1.09048,-1.86226 -1.71875,-1.84375 z m -10.4375,6.25 c -0.87916,0.1258 -1.14447,2.36082 0.59375,8.6875 5.61743,0.10529 1.53699,-8.38823 -0.40625,-8.6875 -0.0636,-0.01 -0.12889,-0.008 -0.1875,0 z m -6.25,1.71875 c -1.08061,0.0904 -1.75174,1.3411 -0.375,4.8125 6.03312,-0.92645 2.43798,-4.98511 0.375,-4.8125 z M 212.21875,422 c -0.93046,-0.0286 -1.54932,1.01053 -0.25,4.15625 4.21056,-1.10309 1.80077,-4.1086 0.25,-4.15625 z m 5.6875,1.3125 c -0.3443,0.0229 -0.50279,0.93917 -0.0937,3.59375 3.06668,2.16249 0.97363,-3.65238 0.0937,-3.59375 z m 81.25,19.25 c -3.56304,-0.14684 -7.5043,3.95581 -13.21875,9.78125 12.02049,-1.58618 16.71875,-5.75487 16.71875,-8.125 -1.15724,-1.09245 -2.31232,-1.6073 -3.5,-1.65625 z m 3.65625,12.0625 c -4.06935,0.22942 -8.69512,3.35991 -12.28125,8.03125 11.99824,-3.25529 16.09375,-5.9244 16.09375,-7.25 -1.1816,-0.61514 -2.45605,-0.85772 -3.8125,-0.78125 z m 10.28125,9.65625 c -4.29764,0.0645 -11.8276,3.70559 -16.40625,8.25 13.46531,-4.64118 18.03125,-7.21287 18.03125,-8.0625 -0.46369,-0.14416 -1.01105,-0.19672 -1.625,-0.1875 z m 3.6875,8.65625 c -3.29397,0.0567 -6.95955,3.26678 -12.96875,8.0625 11.48981,-1.47528 16.21875,-5.15109 16.21875,-7.03125 -1.08309,-0.73683 -2.15201,-1.05015 -3.25,-1.03125 z m 142.4375,7.375 c 3.33735,-0.22417 6.31004,11.79054 0.34375,17.4375 -2.55281,-5.44559 -3.46875,-9.55372 -3.46875,-12.4375 0.87387,-3.47631 2.01255,-4.92528 3.125,-5 z m -139.75,1.09375 c -2.45784,-0.0389 -6.27995,1.33174 -10.09375,5.53125 14.53885,-0.27066 14.78599,-5.45697 10.09375,-5.53125 z m 95.84375,3.53125 c 1.56243,-0.11842 2.85108,1.14799 1.9375,5.28125 -8.84982,0.19292 -4.92033,-5.05518 -1.9375,-5.28125 z M 43.75,490.84375 c 2.481907,-0.27752 11.85316,22.89678 11.625,25.375 26.582146,62.87892 70.25622,115.12216 122.875,153.09375 46.89135,33.83855 103.49528,45.30717 159.03125,52.09375 13.16025,1.60815 25.83974,4.40625 38.8125,4.40625 97.0664,-3.29524 165.04946,-26.86869 223.46875,-80.6875 33.24383,-30.62536 61.98195,-66.08288 79.6875,-108 8.86176,-8.59643 13.6414,-45.80578 22.5,-40.75 -3.30384,22.68689 -15.95403,44.01177 -27.0625,64.125 -24.8672,49.65962 -66.90406,87.51497 -111.25,119.59375 -50.90808,36.82496 -113.19259,50.9375 -173.59375,50.9375 -33.70885,0 -67.43204,-5.14334 -100.9375,-10 C 248.70411,715.20446 211.00867,699.71399 177.9375,676.3125 141.05193,650.21234 104.94305,619.52751 81.96875,579.84375 66.789439,553.62589 47.984272,527.04128 43.46875,496.375 42.936051,492.52529 43.117357,490.91449 43.75,490.84375 z m 424.15625,3 c 0.2247,-0.005 0.45231,0.0124 0.6875,0.0312 5.74543,0 13.0007,5.8147 15.90625,16.78125 -8.41477,17.28761 -0.909,43.84694 -11.71875,51.59375 -14.92498,-32.11034 -0.29171,13.02743 -16.09375,18.40625 -7.56419,2.57472 -2.86969,-15.96568 -2.5625,-19.3125 -1.45012,4.78441 -6.26881,6.78125 -10.90625,6.78125 -12.24294,-0.83779 -13.26789,-9.78093 -2.09375,-15.5625 20.19587,0.31337 20.28342,-24.5036 21.03125,-39.0625 -3.13286,-7.93137 -1.21555,-19.48893 5.75,-19.65625 l 0,5e-5 z m -53.1875,2.84375 c 3.78494,0.10075 9.96469,10.90281 5.6875,19.40625 -4.90967,5.13115 -2.79584,-23.3596 -7.8125,-8.90625 -1.16773,-7.6835 0.14241,-10.55277 2.125,-10.5 z m 60.875,10.46875 c -2.47784,0.0829 -5.9727,1.40225 -7.875,4.96875 l 0,0.28125 c 13.34073,-2.07696 12.00473,-5.38825 7.875,-5.25 z m -62.4375,1.375 c 0.60386,-0.0555 1.04843,0.89311 0.46875,3.90625 -3.39367,-0.036 -1.62157,-3.80028 -0.46875,-3.90625 z M 473.28125,522 c -2.45407,0.14563 -5.78205,1.76589 -8.21875,6.1875 14.35533,-1.3547 12.90379,-6.46551 8.21875,-6.1875 z m 221.3125,9.6875 c 10.64028,19.26038 -8.19554,43.99384 -9.90625,63.125 7.04302,-1.35359 20.40885,-0.73687 19.5,4.21875 0,7.41083 -20.91449,20.7089 -35.21875,20.5 -12.30332,3.22299 -19.8125,4.08118 -19.8125,4.59375 0,0.43289 5.34446,0.62045 17.59375,1.8125 7.78345,-1.49465 23.49943,-0.32648 22.71875,4.40625 0,3.29083 -6.22224,8.51683 -20.8125,11.03125 -39.69261,6.84333 20.9088,23.35068 19.0625,40.0625 2.05921,5.50373 -10.11705,8.10024 -9.96875,11.5625 0,7.0714 23.23249,20.15552 22.78125,33.59375 13.30112,24.59786 -12.14013,43.80656 -35.4375,34.125 C 644.02611,751.9636 622.3066,739.68483 611.9375,717.75 c -2.0486,-33.08713 -14.91617,-7.45633 -21.46875,8.46875 -0.53916,13.63173 -15.71571,27.125 -27.375,27.125 -10.48667,3.5455 -10.40086,-16.25784 -18.125,-18.875 -11.17943,0 -32.73209,36.8125 -52.6875,36.8125 -26.1881,0 -8.84375,-28.21875 -8.84375,-28.21875 0.93433,-0.57966 1.20549,-0.8125 0.9375,-0.8125 -1.97024,0 -33.25759,13.875 -45.21875,13.875 -6.03037,-0.10682 -5.31445,-3.7981 -2.4375,-7.75 -9.14566,-0.51828 -38.38696,-3.73458 -61.875,-6.375 -24.43186,-2.74594 -49.54368,5.1139 -72.1875,-0.8125 9.69753,4.90264 13.16033,14.42949 1.25,15.9375 -12.19633,-1.24558 -33.22447,-13.47233 -40.46875,-13.96875 -5.45413,2.88906 -0.90761,6.66775 2.8125,14.71875 -10.24623,29.67415 -44.46085,-7.55806 -54.34375,-15.78125 -5.5124,-9.05128 -9.01445,-12.3125 -11.59375,-12.3125 -6.685,0 -7.22907,21.90625 -20.78125,21.90625 -27.9094,0 -24.52436,-41.60153 -42.8125,-56.125 -3.52416,36.69595 -36.0491,62.019 -75.3125,65.65625 -11.079123,1.32968 -20.895517,-9.545 -20.3125,-23.34375 0,-18.71981 13.678517,-38.15567 28.65625,-47.4375 -9.328909,-1.48949 -12.875,-5.45472 -12.875,-10.25 -3.370674,-13.42196 30.596179,-26.26478 32.3125,-33.59375 0,-6.90687 -25.290818,-8.76802 -35,-17.6875 8.910182,7.16962 43.732415,-0.0939 43.71875,-4.96875 -17.743886,-9.82294 -53.35089,-5.21143 -59.5625,-28.90625 9.349247,2.43797 19.934785,-0.10308 18.78125,-8.90625 1.525548,-13.36467 -20.343126,-43.58466 -7.75,-53.8125 7.17077,0 15.862009,36.70987 23.84375,44.125 3.714827,9.4805 21.59375,27.74651 21.59375,33.59375 -1.279059,4.85117 -24.862701,-4.6407 -28.34375,-2.40625 8.894082,0.29937 48.8851,12.60453 51.28125,25.0625 0,2.40674 -3.97001,3.1875 -9.21875,3.1875 L 83.3125,633.78125 c 0,0.29506 2.069157,1.10566 7.25,2.75 23.3675,2.42827 43.84776,2.58798 58.21875,25.40625 13.83287,3.38234 19.93715,22.9375 23.03125,22.9375 0.76266,0 1.34643,-1.17669 1.8125,-4.09375 52.33384,40.03998 134.34011,54.34375 217.53125,54.34375 45.41686,0 91.67351,-7.40375 133.59375,-26.84375 14.96629,2.7047 37.46511,-36.22503 47.65625,-17.71875 0.40995,-16.85009 30.92711,-28.00814 43.59375,-46 0,0 42.875,-5.71233 42.875,-7.34375 0,-0.27137 -1.19454,-0.4375 -3.96875,-0.4375 L 635.625,639.5 c -4.85459,0 -6.875,-1.62238 -6.875,-4.0625 0.41206,-7.72095 19.8643,-24.05842 36.1875,-21.28125 10.89556,-3.12715 14.96875,-4.65124 14.96875,-5.1875 l -32.9375,5.1875 c 19.0953,-25.47268 34.42026,-53.53511 47.625,-82.46875 z M 473.1875,537 c -1.46601,-0.009 -4.96045,0.95106 -10.28125,3.8125 9.55784,-1.09164 12.7246,-3.79811 10.28125,-3.8125 z m -123.96875,11.15625 c 9.3056,6.99408 6.27777,39.62999 -8.25,40.625 -25.55889,1.75202 -25.54291,38.43949 -53.125,31.96875 -3.76674,1.16407 -8.24263,2.42 -8.875,-1.0625 0,-5.71156 14.29382,-20.3125 11.96875,-20.3125 -3.01783,1.11022 -14.23524,9.4592 -15.5,8.125 -6.53987,-7.47222 17.48145,-33.82391 26.375,-37.84375 15.95565,-7.21269 28.00653,-33.32006 30.9375,-0.625 2.76149,9.21992 3.6875,12.67021 3.6875,12.59375 -0.23621,-0.53518 -6.80842,-28.84691 -0.46875,-33.40625 2.76786,12.1963 7.69921,26.9375 8.75,26.9375 L 342.125,559.6875 c 2.50621,-8.29491 4.99534,-11.53125 7.09375,-11.53125 z m -25.5,14.625 c -1.29487,-0.0426 -1.42518,4.26116 3.15625,15.71875 2.09257,-8.42682 -1.49142,-15.66391 -3.15625,-15.71875 z m 3.09375,18.53125 c -0.65799,0.15051 -0.99371,2.18132 0.15625,7.65625 2.88583,-2.93709 0.9404,-7.9071 -0.15625,-7.65625 z m -248.25,51.25 c -0.234812,-0.034 -0.562418,0.0293 -0.96875,0.28125 1.522793,0.78017 1.673185,-0.17919 0.96875,-0.28125 z m 587.375,2.40625 c -0.31851,-5.7e-4 -0.79982,0.0882 -1.4375,0.28125 1.90985,0.35293 2.39302,-0.27953 1.4375,-0.28125 z m -537.25,19.25 c -4.52729,0 -16.23735,9.15943 -26.46875,13.75 -8.21912,7.22916 24.72296,-12.0517 2.3125,15.09375 -0.59668,14.79182 -43.15625,25.96875 -43.15625,25.96875 l 12.78125,-2.4375 c 5.785365,-1.09493 8.21875,1.54409 8.21875,4.0625 0,8.57187 -26.91968,28.47497 -32,37.46875 3.845222,-0.36936 7.395118,-5.50793 10.875,-7.3125 -4.252401,6.40505 -5.941838,8.96875 -5.84375,8.96875 0.374449,0 26.606333,-37.0625 33.53125,-37.0625 4.646235,3.32087 -4.59725,18.38291 -2.84375,20.9375 2.424329,9.81853 6.758012,-0.56386 7.90625,-14.53125 1.516437,-12.65579 16.88788,-42.875 23.5,-42.875 4.18514,0.95225 3.12229,12.25075 2.09375,19.09375 4.93721,33.13764 2.07014,-12.42068 5.75,-24.25 3.39706,-9.2296 8.25342,-13.53033 3.34375,-16.875 z m 485.59375,1.5 c -4.39275,2.24737 -0.36525,5.02902 3.375,11.15625 2.99559,11.11473 3.42751,41.84375 4.65625,41.84375 0.45866,0 1.02018,-4.2657 1.875,-15.4375 -0.98087,-5.26392 -1.73971,-14.22551 1.96875,-14.65625 15.03939,0.88753 23.41145,54.16016 30.875,61.0625 1.41411,-3.95825 -0.39684,-7.21112 -2.59375,-17.0625 0.34639,-4.2532 1.44925,-5.96875 3.0625,-5.96875 6.98053,0 23.91746,32.38818 34.53125,33.375 2.15031,-6.71637 -31.34375,-27.16387 -31.34375,-37.25 0,-2.35516 1.81012,-4.14331 6.34375,-5.0625 7.95717,3.42748 13.01018,4.71875 15.09375,4.71875 3.46167,-1.51942 -4.38729,-4.04829 -15.375,-6.875 -13.32019,1.83311 -34.10014,-24.84687 -34.78125,-32.625 0.26905,-3.93585 5.69136,-1.30595 8.46875,-1.1875 0,-2.28614 -19.92779,-16.03125 -26.15625,-16.03125 z M 173.59375,694.375 c -1.26369,5.30937 3.92829,19.90295 9.625,29.15625 4.2328,-1.25517 -4.37969,-11.14308 -3.09375,-14.21875 -3.73496,-10.87319 -5.77282,-14.9375 -6.53125,-14.9375 z m 397.53125,2.28125 c -1.59611,0.27587 -9.48701,17.37137 -11.375,28.90625 3.03372,3.23515 4.76813,-14.16863 6.9375,-12.28125 4.37273,-12.27946 5.27356,-16.7695 4.4375,-16.625 z m -357.9375,12.1875 C 213.40042,719.27307 225.40645,732.50107 238,742 227.81732,732.41827 216.05492,718.55169 213.1875,708.84375 z M 239,743 c 6.92227,6.5136 12.24269,10 14,10 0.59,0 0.69912,-0.4997 0.1875,-1.625 C 248.70577,749.15369 244.19885,746.92078 239,743 z m 293,-34 c -9.40307,20.94413 -19.85793,29.91567 -36,44 l -4,3 c 17.33162,-9.47577 39.62818,-29.97492 40,-47 z"
       sodipodi:nodetypes="cccccccccccccccsscccccccccccsccccccccccccsccccccccccccccccccccccccsccccccccsccccccccsscccccccsccccscccccccccccccccccccccscccsccccccccscccccccccccccsccccsccscccscccccccccssccccssccccccsccccccccccccccccsssccccccccccccccccccccccccsccccccccccccccccccccccccccccccccccccccccccscscccscccccccccsccccccccccccccccccsccccccccccccccccccccccccccccccsccccccccsssccccsccsscsccsccccccccccccccccccccccccccccsccccccccccccccccccccccccccccccccccccccssccccccscccccccccsccccccccccccccccccccccccsccccccsccccscsccccccccsscccccccccccccccccccscscccsccccccccccccccccscccccccccccccccccccccccsccscccccccccsccccscsccccccccccccccccccscccccc" />
  </g>
</svg>
