<?xml version="1.0" encoding="UTF-8" standalone="no"?>
<!-- Created with Inkscape (http://www.inkscape.org/) -->

<svg
   xmlns:dc="http://purl.org/dc/elements/1.1/"
   xmlns:cc="http://creativecommons.org/ns#"
   xmlns:rdf="http://www.w3.org/1999/02/22-rdf-syntax-ns#"
   xmlns:svg="http://www.w3.org/2000/svg"
   xmlns="http://www.w3.org/2000/svg"
   xmlns:sodipodi="http://sodipodi.sourceforge.net/DTD/sodipodi-0.dtd"
   xmlns:inkscape="http://www.inkscape.org/namespaces/inkscape"
   width="1000"
   height="1000"
   id="svg2"
   version="1.1"
   inkscape:version="0.47 r22583"
   sodipodi:docname="N.svg">
  <defs
     id="defs4">
    <inkscape:perspective
       sodipodi:type="inkscape:persp3d"
       inkscape:vp_x="0 : 526.18109 : 1"
       inkscape:vp_y="0 : 1000 : 0"
       inkscape:vp_z="744.09448 : 526.18109 : 1"
       inkscape:persp3d-origin="372.04724 : 350.78739 : 1"
       id="perspective10" />
    <inkscape:perspective
       id="perspective2940"
       inkscape:persp3d-origin="0.5 : 0.33333333 : 1"
       inkscape:vp_z="1 : 0.5 : 1"
       inkscape:vp_y="0 : 1000 : 0"
       inkscape:vp_x="0 : 0.5 : 1"
       sodipodi:type="inkscape:persp3d" />
    <inkscape:perspective
       id="perspective2953"
       inkscape:persp3d-origin="0.5 : 0.33333333 : 1"
       inkscape:vp_z="1 : 0.5 : 1"
       inkscape:vp_y="0 : 1000 : 0"
       inkscape:vp_x="0 : 0.5 : 1"
       sodipodi:type="inkscape:persp3d" />
    <inkscape:perspective
       id="perspective2966"
       inkscape:persp3d-origin="0.5 : 0.33333333 : 1"
       inkscape:vp_z="1 : 0.5 : 1"
       inkscape:vp_y="0 : 1000 : 0"
       inkscape:vp_x="0 : 0.5 : 1"
       sodipodi:type="inkscape:persp3d" />
    <inkscape:perspective
       id="perspective2979"
       inkscape:persp3d-origin="0.5 : 0.33333333 : 1"
       inkscape:vp_z="1 : 0.5 : 1"
       inkscape:vp_y="0 : 1000 : 0"
       inkscape:vp_x="0 : 0.5 : 1"
       sodipodi:type="inkscape:persp3d" />
    <inkscape:perspective
       id="perspective2992"
       inkscape:persp3d-origin="0.5 : 0.33333333 : 1"
       inkscape:vp_z="1 : 0.5 : 1"
       inkscape:vp_y="0 : 1000 : 0"
       inkscape:vp_x="0 : 0.5 : 1"
       sodipodi:type="inkscape:persp3d" />
    <inkscape:perspective
       id="perspective3005"
       inkscape:persp3d-origin="0.5 : 0.33333333 : 1"
       inkscape:vp_z="1 : 0.5 : 1"
       inkscape:vp_y="0 : 1000 : 0"
       inkscape:vp_x="0 : 0.5 : 1"
       sodipodi:type="inkscape:persp3d" />
    <inkscape:perspective
       id="perspective3018"
       inkscape:persp3d-origin="0.5 : 0.33333333 : 1"
       inkscape:vp_z="1 : 0.5 : 1"
       inkscape:vp_y="0 : 1000 : 0"
       inkscape:vp_x="0 : 0.5 : 1"
       sodipodi:type="inkscape:persp3d" />
    <inkscape:perspective
       id="perspective3031"
       inkscape:persp3d-origin="0.5 : 0.33333333 : 1"
       inkscape:vp_z="1 : 0.5 : 1"
       inkscape:vp_y="0 : 1000 : 0"
       inkscape:vp_x="0 : 0.5 : 1"
       sodipodi:type="inkscape:persp3d" />
    <inkscape:perspective
       id="perspective3044"
       inkscape:persp3d-origin="0.5 : 0.33333333 : 1"
       inkscape:vp_z="1 : 0.5 : 1"
       inkscape:vp_y="0 : 1000 : 0"
       inkscape:vp_x="0 : 0.5 : 1"
       sodipodi:type="inkscape:persp3d" />
    <inkscape:perspective
       id="perspective3057"
       inkscape:persp3d-origin="0.5 : 0.33333333 : 1"
       inkscape:vp_z="1 : 0.5 : 1"
       inkscape:vp_y="0 : 1000 : 0"
       inkscape:vp_x="0 : 0.5 : 1"
       sodipodi:type="inkscape:persp3d" />
    <inkscape:perspective
       id="perspective3070"
       inkscape:persp3d-origin="0.5 : 0.33333333 : 1"
       inkscape:vp_z="1 : 0.5 : 1"
       inkscape:vp_y="0 : 1000 : 0"
       inkscape:vp_x="0 : 0.5 : 1"
       sodipodi:type="inkscape:persp3d" />
    <inkscape:perspective
       id="perspective3083"
       inkscape:persp3d-origin="0.5 : 0.33333333 : 1"
       inkscape:vp_z="1 : 0.5 : 1"
       inkscape:vp_y="0 : 1000 : 0"
       inkscape:vp_x="0 : 0.5 : 1"
       sodipodi:type="inkscape:persp3d" />
    <inkscape:perspective
       id="perspective3096"
       inkscape:persp3d-origin="0.5 : 0.33333333 : 1"
       inkscape:vp_z="1 : 0.5 : 1"
       inkscape:vp_y="0 : 1000 : 0"
       inkscape:vp_x="0 : 0.5 : 1"
       sodipodi:type="inkscape:persp3d" />
  </defs>
  <sodipodi:namedview
     id="base"
     pagecolor="#ffffff"
     bordercolor="#666666"
     borderopacity="1.0"
     inkscape:pageopacity="0.0"
     inkscape:pageshadow="2"
     inkscape:zoom="0.532"
     inkscape:cx="500"
     inkscape:cy="500"
     inkscape:document-units="px"
     inkscape:current-layer="svg2"
     showgrid="false"
     showborder="true"
     inkscape:showpageshadow="false"
     showguides="true"
     inkscape:guide-bbox="true"
     inkscape:window-width="1280"
     inkscape:window-height="750"
     inkscape:window-x="0"
     inkscape:window-y="26"
     inkscape:window-maximized="1">
    <sodipodi:guide
       orientation="0,1"
       position="0,200"
       id="guide2818" />
  </sodipodi:namedview>
  <metadata
     id="metadata7">
    <rdf:RDF>
      <cc:Work
         rdf:about="">
        <dc:format>image/svg+xml</dc:format>
        <dc:type
           rdf:resource="http://purl.org/dc/dcmitype/StillImage" />
        <dc:title></dc:title>
      </cc:Work>
    </rdf:RDF>
  </metadata>
  <g
     inkscape:label="Layer 1"
     inkscape:groupmode="layer"
     id="layer1" />
  <path
     style="fill:#800000"
     d="M 0,0 0,6.0511388 0,793.94886 0,800 l 6.1991148,0 724.5663052,0 6.3815,0 0,-6.05114 0,-787.8977212 0,-6.0511388 -6.3815,0 L 6.1991148,0 0,0 z m 18.779615,12.280276 705.786745,0 0,775.617334 -711.985802,0 0,-198.08669 C 13.168074,328.49673 15.498047,43.634156 17.321044,25.806426 l 1.458571,-13.52615 z m 8.751715,9.432705 -3.099586,130.278179 c -3.604367,151.41016 -4.679344,623.86779 -1.458571,628.07561 1.679178,2.19424 28.208279,2.61784 127.446367,1.77976 137.42652,-1.16072 238.49996,-3.17621 243.77063,-4.80538 1.86023,-0.57505 5.79491,-3.99761 8.75212,-7.65296 l 5.28741,-6.58507 -7.84048,1.42381 c -9.78674,1.79211 -12.79879,-1.91445 -6.01661,-7.29701 17.67571,-14.02747 20.05615,-16.58064 20.05615,-22.42492 0,-5.65242 -0.90934,-6.37821 -12.94545,-8.72077 -7.13091,-1.38778 -14.33572,-3.39392 -16.04469,-4.44938 -5.65057,-3.48942 -0.0866,-6.76313 11.30461,-6.76308 l 11.12158,0 -7.29314,-6.05119 c -9.33756,-7.71052 -25.15361,-18.15353 -27.53116,-18.15348 -0.99363,-5e-5 -6.9144,-2.47096 -13.12731,-5.51731 -6.21349,-3.04636 -20.25245,-7.42219 -31.36075,-9.78859 -23.98101,-5.10918 -42.60589,-15.21347 -55.97396,-30.43381 -8.63838,-9.835 -13.04706,-21.15877 -10.75727,-27.40823 0.627,-1.7118 2.75167,0.28636 5.28741,4.80532 12.71162,22.65586 37.9195,39.99959 64.36119,44.13795 19.98282,3.1273 47.5671,14.97145 68.55509,29.54393 9.78732,6.79616 21.46836,14.78282 25.89032,17.79754 4.42196,3.01466 13.89231,7.5395 20.96779,9.96664 l 12.94487,4.27139 10.57482,-4.62733 c 21.80496,-9.55839 31.14194,-23.82194 28.80769,-43.95995 -1.59465,-13.75987 0.23094,-16.87123 7.65803,-12.99222 3.22626,1.6853 4.55822,4.56728 4.55822,9.96659 -5.8e-4,4.19437 1.12988,7.65278 2.37004,7.65289 1.24016,-6e-5 2.16393,-0.69392 2.1876,-1.60169 0.22517,-8.50034 44.94821,-40.04457 56.70373,-40.04452 4.99354,-5e-5 1.12815,4.70516 -7.29314,8.89883 -10.8791,5.4179 -51.69923,43.86972 -47.95162,45.20577 2.60041,0.92706 20.43951,-9.66988 29.35445,-17.44159 4.99585,-4.35487 9.84563,-3.68514 9.84563,1.42381 0,4.68847 -22.49086,21.6157 -41.75256,31.50163 -17.24616,8.85079 -17.67918,9.37156 -10.02808,9.4327 19.66182,0.15762 58.93868,-13.87984 68.91941,-24.56067 10.3104,-11.03371 21.40254,-36.51525 23.52027,-54.63847 1.94627,-16.66558 4.94793,-26.41225 8.38723,-26.34037 4.46122,0.0935 7.86877,4.35043 6.74582,8.54283 -0.93936,3.50743 -0.34064,4.44933 2.91737,4.44938 2.70202,6e-5 4.37577,-1.49517 4.37577,-4.09338 0,-2.27334 1.392,-7.48639 3.09924,-11.5684 1.70781,-4.08219 3.84634,-12.27889 4.74066,-18.33153 1.8025,-12.19927 4.39136,-15.07219 10.75727,-11.7464 2.34348,1.22423 4.60383,2.0025 4.9231,1.60182 4.5178,-5.67217 14.76816,-30.667 14.76816,-35.95107 0,-8.37846 1.92952,-10.7862 6.01661,-7.47501 1.75516,1.42179 2.91737,6.92179 2.91737,12.99221 0,13.11069 4.94563,18.40751 8.56968,9.25477 4.91675,-12.41971 11.85078,-56.04607 11.85078,-75.2837 5.8e-4,-14.7662 3.57383,-18.05463 5.6523,-5.16127 0.73151,4.5394 1.70609,10.85566 2.18818,13.88209 0.48498,3.02638 -0.26558,15.94336 -1.64142,28.65411 -3.99125,36.87697 -3.57671,42.48072 2.37062,45.02778 6.11418,2.61882 6.27007,6.98899 1.64084,36.30706 -4.18236,26.4888 -4.32496,25.03133 1.64084,27.58612 7.49464,3.20975 7.83413,12.93702 0.7292,21.17911 -6.27931,7.28436 -6.94904,9.82178 -3.46413,11.92439 1.24016,0.74808 2.18818,3.16754 2.18818,5.5172 0,5.7691 -8.37222,5.68798 -14.76874,-0.17782 -4.23143,-3.88064 -5.79202,-4.06908 -10.93971,-1.77976 -9.60545,4.2722 -9.41262,0.54445 0.54848,-10.50052 15.11573,-16.76292 11.65449,-19.98455 -4.37577,-4.09356 -10.39873,10.30913 -22.35632,18.68747 -26.61951,18.68753 -3.18527,-6e-5 9.08698,-25.37514 15.49793,-32.03562 3.54554,-3.68439 5.01895,-7.79845 4.92253,-14.59397 -0.0751,-5.18967 0.88277,-10.06918 2.18817,-10.85652 2.42316,-1.46186 6.58184,-17.33248 6.56337,-24.91655 -0.006,-2.31155 0.96707,-5.9587 2.18817,-8.18689 1.46879,-2.67881 1.49131,-4.0935 0,-4.09338 -3.32094,1.1e-4 -5.93694,5.71748 -10.21051,22.95879 -4.67946,18.88198 -8.24752,30.03919 -10.93914,33.63738 -2.9728,3.97364 -6.40979,0.89726 -4.01146,-3.55951 1.10101,-2.04505 2.74532,-9.00396 3.64657,-15.6619 0.90183,-6.65788 2.62003,-13.31062 3.82901,-14.77196 1.47746,-1.78542 1.06927,-4.20563 -1.27653,-7.47496 l -3.46412,-4.98332 -2.18818,5.69526 c -1.20667,3.09866 -1.71012,7.48869 -1.09351,9.78864 1.76324,6.58358 -9.4946,47.50907 -17.13877,62.29143 -4.11481,7.95705 -8.26021,13.34815 -10.39296,13.34815 -2.55133,0 -3.18931,-1.17867 -2.00516,-3.91544 0.91627,-2.11855 2.58829,-8.48798 3.82844,-14.23803 1.24074,-5.75016 3.30016,-10.50064 4.37635,-10.50058 2.73493,1.1e-4 2.40642,-12.74389 -0.36373,-14.41603 -2.50341,-1.50978 -2.84636,-0.49594 -6.19964,15.4839 -2.92026,13.91506 -7.08414,24.24965 -13.85651,34.8832 -4.81283,7.55589 -4.89539,8.48399 -1.64084,10.85646 5.07899,3.70205 2.33829,11.99033 -5.28741,15.83984 -7.97789,4.02699 -9.9178,10.76628 -4.37577,15.66184 5.93924,5.24631 5.42078,10.64423 -1.45898,13.70409 -7.27063,3.23394 -54.69569,7.95254 -78.76503,7.83095 -19.68606,-0.0993 -44.74037,-6.22036 -43.21154,-10.50052 0.5023,-1.40823 3.22453,-2.27472 6.19906,-2.13569 14.74391,0.68872 49.24835,-3.50611 57.25049,-6.94108 21.4597,-9.21129 37.37736,-17.30747 37.37736,-19.04341 0,-2.95449 -2.79093,-2.13251 -13.30975,3.73751 -5.39769,3.01177 -11.63139,5.49959 -13.67465,5.51726 -2.04383,0.0173 -7.88724,1.42156 -13.12789,3.20357 -5.24007,1.78206 -21.97296,4.20666 -37.19434,5.33926 -15.22253,1.13254 -30.53398,3.11869 -34.0951,4.44938 -3.92255,1.4655 -7.39303,1.56376 -8.93399,0.35623 -1.39951,-1.0968 -5.81512,-2.71825 -9.84563,-3.55951 -8.45016,-1.76376 -8.99287,-0.32678 -4.01146,13.17015 3.31575,8.9841 4.35499,16.72961 2.18818,16.72972 -0.66396,0 -4.09922,-1.69459 -7.29315,-3.73745 -5.78105,-3.69743 -5.69502,-3.69888 -15.31549,7.11902 l -9.66318,10.85646 26.07276,0.53405 c 22.93137,0.54733 26.78752,0.19168 30.44853,-3.38162 4.05765,-3.9606 3.98201,-4.16839 -0.54849,-9.78865 -2.55999,-3.17718 -6.34513,-6.25194 -8.56967,-6.94101 -3.96354,-1.22792 -12.42872,-15.45394 -10.39239,-17.44154 3.03458,-2.96212 13.28724,2.14424 21.51455,10.85646 8.37684,8.87077 9.06851,10.89624 8.02234,18.50947 l -1.09409,8.54283 100.64447,0.71188 c 55.37177,0.3493 108.53632,0.21997 118.14755,-0.17783 l 17.50366,-0.71187 2.55248,0 0,-23.4928 0,-8.18689 0,-14.9499 0,-5.87314 0,-12.99227 0,-7.65301 0,-21.89092 0,-6.40714 0,-3.91544 0,-6.76308 0,-27.58618 0,-14.23808 0,-8.54283 0,-47.87541 0,-1.77975 0,-54.46054 0,-5.16126 0,-32.03562 0,-51.07897 c -0.12702,-0.88387 -0.1732,-1.67104 0,-2.49163 l 0,-36.30701 0.18476,0 c -1.83426,-63.70889 -0.6986,-280.75464 2.00573,-305.050069 l -0.54849,-11.03446 c -1.53403,-3.282896 -1.64373,-8.688148 -0.54849,-18.153589 1.81925,-15.707511 1.29847,-24.589593 -1.27653,-27.230182 -0.41569,-0.424356 -7.81161,-0.858584 -18.23286,-1.245874 l -666.586153,0 z M 184.87924,35.06119 c 1.01355,-0.21824 2.45549,1.195355 5.4698,4.805323 12.93246,15.486557 16.89449,24.665515 17.13872,40.222452 0.44514,28.339105 -4.44789,54.561515 -12.03358,64.961115 l -4.55815,6.05108 5.65213,2.31375 c 4.24153,1.88662 6.95377,1.6745 12.03357,-0.88993 8.82763,-4.45574 17.48276,-28.82276 13.85697,-38.97658 -2.85213,-7.98649 -2.30422,-8.69721 8.75154,-10.14458 8.19267,-1.07267 9.94494,-0.16744 29.53689,15.66178 20.57346,16.62198 20.90486,16.82481 26.9844,13.52615 14.81319,-8.03712 50.13229,-20.68131 62.53791,-22.42492 7.44152,-1.04587 25.17324,-1.83749 39.38251,-1.60175 97.02157,1.60955 169.97264,38.83524 230.64337,117.46379 19.50997,25.28519 42.92921,81.2122 47.9522,113.90439 1.2875,8.38302 0.96129,9.39662 -3.82902,11.2124 -14.26874,5.40855 -22.21372,21.83723 -22.0613,45.38377 0.10392,16.28193 6.37631,28.36019 19.50882,37.01895 l 9.11643,6.05114 -4.19391,8.00894 c -2.34926,4.49858 -4.19333,9.42936 -4.19333,10.85647 5.8e-4,2.36317 -13.65674,31.52714 -17.50308,37.37488 -34.83874,52.96559 -54.44281,73.09033 -97.54523,101.26812 -13.32361,8.71015 -38.49858,20.64505 -43.75828,20.64511 -1.79788,0 -4.50452,1.37115 -6.19906,3.02562 -1.69454,1.6543 -6.65517,3.56528 -10.93972,4.27139 -4.28454,0.7061 -16.91649,3.27903 -28.07791,5.6952 -11.16084,2.41611 -26.862,4.8119 -34.82488,5.51731 -7.96229,0.7053 -18.93376,2.56409 -24.43134,3.91539 -24.34473,5.98359 -88.66089,-11.5595 -133.46361,-36.485 -7.96114,-4.42935 -15.43442,-7.79839 -16.77388,-7.29696 -4.05361,1.51775 -2.30942,38.10495 3.09981,63.18125 2.74071,12.71058 7.81738,29.32269 11.30403,36.841 6.78969,14.64051 10.45012,16.93884 26.9844,16.90766 16.97192,-0.0346 24.66748,-3.07741 36.10083,-14.23803 8.54543,-8.34127 12.75146,-10.85657 18.05042,-10.85652 8.93399,0 12.65966,7.84562 8.93399,18.86541 -3.35674,9.92814 -11.1366,15.49141 -29.71933,21.00111 -18.32871,5.43441 -40.35305,4.40059 -57.25049,-2.66963 -13.54705,-5.66818 -17.82814,-5.45774 -32.27182,2.31369 -15.12669,8.13862 -16.17863,7.04078 -14.40384,-15.48385 1.17145,-14.87294 0.6501,-17.73316 -4.37606,-27.40829 -8.55115,-16.46165 -12.84141,-19.45437 -23.88482,-16.55166 -17.93904,4.71508 -25.15147,21.78411 -21.8792,51.61291 1.47121,13.41004 1.37526,13.65374 -4.74049,16.37372 -5.16726,2.2981 -6.62757,2.2138 -8.56933,-0.35565 -4.91346,-6.50079 -12.42744,-8.3821 -32.08948,-7.83095 -24.21455,0.67879 -35.749746,-2.27311 -46.493393,-12.45828 -7.203827,-6.82964 -8.416965,-9.11279 -8.387,-18.15347 0.04041,-11.57521 1.243968,-13.45156 9.298643,-18.33148 10.456471,-6.33485 12.973852,-6.35084 20.055973,-0.53405 6.471397,5.31548 6.928427,6.35962 6.928427,21.8911 1.8e-4,18.72673 1.73207,20.57749 15.49776,16.55166 15.17121,-4.43674 17.92842,-9.65274 22.60852,-41.29033 2.30543,-15.58742 5.47621,-33.27993 6.92843,-39.33263 2.89537,-12.06394 5.66304,-42.10284 8.75165,-91.30137 3.05213,-48.61967 2.93406,-81.10187 -0.54675,-92.36935 -10.32126,-33.4114 -15.37022,-33.75672 -31.36018,-1.7797 -4.07052,8.14059 -8.07719,14.74131 -9.11631,14.77191 -2.46086,0.0727 0.30658,-16.24243 4.55816,-26.6963 1.82894,-4.49783 2.98053,-9.25205 2.55254,-10.50058 -1.2696,-3.70731 -15.5716,4.72247 -22.42613,13.17021 -6.117245,7.53984 -6.295186,7.91599 -4.193557,24.02667 2.523097,19.34028 7.494357,26.04516 21.332217,27.94217 4.89395,0.67095 10.53799,1.55228 12.39823,2.1357 6.19957,1.94447 -4.7025,6.26493 -19.14427,7.47501 -11.69652,0.98006 -13.623149,1.59719 -14.22152,5.69514 -0.544445,3.72873 0.98422,5.44261 7.29309,7.47501 6.37878,2.05498 8.0224,3.75898 8.0224,8.18695 6e-5,4.43876 -0.86482,5.35762 -4.01123,4.09338 -10.29233,-4.13622 -11.195775,-3.87976 -12.762831,4.27145 -1.240735,6.45742 -0.568117,8.7147 3.099531,11.74634 4.72847,3.90903 14.66602,26.43984 12.58056,28.47605 -2.25711,2.20313 -10.23333,-6.74506 -12.03358,-13.52615 -2.404159,-9.05737 -5.390642,-8.62874 -6.016783,0.88994 -1.397833,21.23626 -11.649169,43.26089 -28.078374,61.22355 -7.080908,7.74204 -10.27749,19.55662 -9.480971,34.5272 0.258077,4.8421 -1.171569,18.88515 -3.099529,31.32374 -3.224814,20.81028 -3.101434,23.75589 0.364888,37.37488 2.071549,8.14041 5.137071,17.04016 6.928372,19.75529 4.538873,6.87767 18.731001,10.63406 26.984402,7.29695 5.297748,-2.14216 7.833028,-1.76584 15.315425,1.95781 12.02151,5.98272 25.09623,5.67355 37.74162,-0.88994 5.65334,-2.934 10.82996,-4.7343 11.48659,-4.09338 0.65691,0.64086 17.22231,1.37116 36.82997,1.60175 31.85202,0.37471 37.84381,0.95905 55.97448,6.40714 22.60747,6.79338 52.07508,8.43232 68.73696,3.55951 5.00913,-1.46487 10.01999,-1.96607 10.93971,-1.06788 2.71588,2.65087 -6.08474,7.46179 -18.05041,9.9667 -10.97321,2.29712 -34.77003,2.80618 -43.57585,0.88982 -2.48031,-0.53983 -13.6348,-3.62948 -24.7968,-6.76313 -18.26231,-5.1272 -23.78107,-5.66426 -54.88022,-5.33921 -25.37046,0.26501 -36.14379,1.18837 -40.84114,3.55951 -10.98279,5.5437 -29.69133,6.56741 -38.47093,2.13569 -5.21848,-2.63429 -12.037041,-3.63612 -21.514548,-3.3815 -7.647409,0.20553 -16.686127,-0.71806 -19.873645,-2.13575 C 57.7596,755.6766 51.59426,744.11247 45.764422,724.53865 c -3.268636,-10.97447 -3.411474,-14.62953 -1.093914,-24.73867 1.619999,-7.0652 2.444115,-23.22542 2.005557,-40.04445 -0.636245,-24.4161 -0.290987,-28.91254 3.099586,-32.56956 2.158094,-2.32801 4.011171,-6.15627 4.011171,-8.36483 5.8e-5,-2.2085 3.025743,-10.28915 6.746101,-17.97553 5.029394,-10.39088 6.746043,-17.09034 6.746043,-26.34042 0,-12.31388 -0.08083,-12.32 -4.558158,-8.36483 -2.488052,2.19758 -5.196769,3.2923 -6.016786,2.49169 -1.580162,-1.54229 -0.04042,-6.96232 8.934044,-30.07793 3.060788,-7.88632 6.893788,-24.39733 8.387,-36.48495 3.140521,-25.41861 10.304164,-46.41365 20.420631,-61.04555 12.976853,-18.76951 38.167013,-28.20915 54.880333,-20.46722 7.11133,3.29398 7.88811,4.64574 9.29864,15.6619 0.85004,6.64142 2.53436,12.10221 3.8289,12.10227 3.60281,6e-5 0.39722,-162.89051 -4.01123,-203.60395 -5.2429,-48.42302 -18.62078,-87.74364 -33.36573,-97.53067 -8.93496,-5.93053 -14.12417,-4.62017 -16.04474,3.91544 -2.3787,10.5716 -18.123799,20.39777 -28.260645,17.61966 -10.94116,-2.99867 -15.012261,-6.31938 -18.050417,-15.30591 -2.653984,-7.84948 -2.541399,-10.51669 0.729315,-20.64516 2.066179,-6.39853 6.265799,-13.96679 9.480972,-16.90766 5.059243,-4.62778 8.125401,-5.4642 20.785287,-5.16132 9.484088,0.2269 18.689488,2.14886 26.255088,5.33926 7.08518,2.98793 15.53557,4.81924 21.69682,4.62738 8.68364,-0.27078 11.09785,-1.41388 16.59172,-8.00889 6.35599,-7.63032 13.31992,-9.92992 16.22708,-5.33926 0.8274,1.30719 -0.66731,3.90748 -3.28186,5.69526 -3.84524,2.62898 -4.74049,5.43695 -4.74049,15.12785 3.5e-4,8.48197 0.80114,11.92433 2.9172,11.92439 1.64431,0 5.47489,2.49083 8.38706,5.51726 2.91253,3.02626 5.9542,5.51709 6.92837,5.51714 2.80167,0 10.52951,-26.08523 12.2159,-41.8242 1.47122,-13.723954 0.94952,-14.628207 -5.10514,-20.289227 -8.05785,-7.534074 -20.60873,-12.636331 -30.99551,-12.636273 -7.11238,0 -8.10658,-0.506917 -7.47542,-4.805265 1.12503,-7.665134 10.84907,-10.016411 21.8792,-5.16132 4.98708,2.195276 10.85577,5.933474 12.94522,8.186889 3.91937,4.227911 10.02795,5.491163 10.02795,2.135693 -5e-5,-2.860561 -16.87971,-13.516392 -26.61968,-16.907716 -4.71451,-1.64165 -12.43992,-2.972453 -17.32105,-3.025511 -10.44688,-0.113739 -34.45675,5.317205 -48.13423,11.03446 -10.882499,4.548861 -43.02874,7.687592 -47.587302,4.627324 -3.659678,-2.456933 -1.117816,-17.975591 2.9172,-17.975533 1.460015,-1.16e-4 6.573876,1.959137 11.486587,4.449383 6.253443,3.169908 11.467707,4.219597 17.138773,3.381567 11.059572,-1.634376 29.063742,-9.896263 30.630862,-13.882089 0.96175,-2.447464 4.53177,-3.090464 14.03918,-2.66963 7.29263,0.322741 14.76602,-0.654836 17.86798,-2.313634 4.822,-2.578985 7.13697,-2.121374 20.96761,4.805265 15.87674,7.951329 17.99055,7.637248 11.66886,-1.779695 -2.08766,-3.110614 -2.89647,-7.029524 -2.00556,-9.254765 0.50807,-1.269025 1.0326,-2.00469 1.6409,-2.135692 z m 419.89873,27.052241 c 1.06753,-1.15e-4 3.54323,3.878553 5.46928,8.720885 6.88842,17.314866 18.20919,28.397362 15.31549,14.949906 -0.7165,-3.328912 -0.32332,-7.61704 0.91164,-9.432763 2.00111,-2.934578 2.40295,-2.934636 4.37577,0 1.22169,1.815781 2.35157,4.881649 2.37062,6.763133 0.0635,6.200269 12.87039,23.375528 20.05557,26.874298 3.87867,1.8887 12.51994,5.06104 19.1445,6.94102 14.37382,4.07866 18.70341,7.88002 15.31549,14.06014 -2.58597,4.71584 -1.71128,5.82505 9.29887,11.2124 7.16151,3.50455 10.29424,11.91337 6.19906,16.72966 -4.25453,5.00371 -8.0847,3.82278 -17.86797,-4.80526 -4.93119,-4.34846 -10.51074,-7.43662 -12.0338,-6.94113 -1.53461,0.49941 6.15922,9.24864 16.95633,19.5774 14.05512,13.44451 18.89508,19.51494 17.50366,21.71298 -1.61544,2.55116 -2.84463,2.54487 -7.65804,-0.53405 -3.16274,-2.02265 -6.02758,-3.73716 -6.3815,-3.73751 -1.90007,-0.001 0.12702,23.85867 2.37062,27.94218 3.35385,6.10518 3.48145,73.29997 0.18475,84.89429 -3.55765,12.50561 -6.56394,9.99048 -6.56394,-5.5172 0,-7.62368 -2.76553,-25.93177 -6.01661,-40.40045 -3.25109,-14.46874 -6.50102,-28.88454 -7.1107,-32.21362 -0.61027,-3.3288 -1.84234,-6.05108 -2.73493,-6.05108 -1.70839,0 -2.06462,1.87039 -2.55306,14.23797 -0.35219,8.96291 -5.6806,14.80683 -8.93399,9.78864 -2.79728,-4.3155 -2.6795,-13.18822 0.36373,-21.71298 3.46124,-9.69165 0.17321,-12.60677 -8.93398,-8.00889 -3.80131,1.91884 -7.99694,3.38139 -9.2983,3.38151 -3.49588,0 -2.72396,-9.48923 1.09409,-14.41597 1.81982,-2.34972 3.24242,-6.02579 3.28168,-8.18689 0.0577,-2.16104 1.698,-6.17417 3.64657,-9.07677 2.90756,-4.33195 3.00225,-6.35482 0.7292,-10.50058 -2.67315,-4.8768 -2.8758,-4.91496 -4.55821,-0.71188 -0.95726,2.39412 -1.73611,6.43324 -1.82329,8.72077 -0.17321,4.47369 -6.27123,9.85268 -11.12158,9.96665 -9.01828,0.21189 -13.13771,-16.52488 -6.01719,-24.20462 2.72396,-2.93792 4.41676,-8.08302 4.55821,-13.88214 0.20785,-8.55842 0.76904,-9.30096 6.92826,-9.96659 8.91609,-0.9636 10.98128,-3.34767 7.84047,-9.07676 -1.75284,-3.19757 -4.35614,-4.53917 -7.84047,-4.09345 -3.82498,0.48902 -7.6794,-2.05734 -14.76816,-9.7887 -6.64246,-7.24361 -15.3686,-13.27084 -27.89604,-19.221292 -18.18667,-8.638784 -18.2167,-8.621752 -20.78535,-19.755344 -1.41336,-6.125502 -1.72513,-11.501483 -0.7292,-12.102336 2.5623,-1.545982 10.28327,6.936974 13.67465,15.127963 3.23665,7.818652 5.78509,10.095912 11.48647,10.144583 4.39944,0.04042 5.30474,-6.390219 1.4584,-10.144583 -2.77361,-2.707909 -1.83368,-17.263713 1.09409,-17.263655 z m 92.4391,1.067875 c 6.27989,-5.7e-5 9.43629,5.694738 5.6523,10.144584 -3.41736,4.019139 -10.77401,3.953955 -12.39811,-0.177825 -2.12986,-5.417781 0.91626,-9.966701 6.74581,-9.966643 z m -554.09062,3.02557 c 9.9137,-0.185331 7.2331,3.118292 -8.93398,8.720827 -18.70508,6.481845 -28.44298,7.494814 -28.44298,2.847628 1.8e-4,-5.246248 4.88893,-7.459999 23.1555,-10.144583 6.071,-0.892359 10.91743,-1.362037 14.22146,-1.423872 z m 303.20924,1.601813 c 7.62974,-0.166279 11.35252,0.819093 17.86797,3.915446 12.59557,5.986013 28.42605,6.562386 53.9688,1.601755 10.54077,-2.0473 25.19518,-3.57602 32.63671,-3.20351 11.79362,0.590287 13.85651,1.323528 13.85651,5.161262 0,3.898298 -2.25399,4.485064 -17.50309,5.695257 -9.47034,0.7516 -18.3108,2.192504 -19.69125,3.025512 -5.61824,3.389245 -1.56406,5.047869 15.13304,6.407135 20.63119,1.679583 45.79231,7.913858 63.44954,16.017784 19.38238,8.89553 23.4585,17.77121 13.12732,28.65411 -6.08243,6.40725 -8.79831,6.36141 -16.22656,-0.88988 -5.31108,-5.18424 -8.087,-6.049 -21.87943,-6.58507 -8.72498,-0.33949 -17.50597,0.32967 -19.50881,1.42375 -2.69509,1.47156 -5.93867,0.052 -11.85136,-5.16126 -4.65175,-4.10228 -15.41653,-9.55955 -25.89032,-13.17021 -9.89874,-3.41251 -19.16817,-7.22854 -20.6029,-8.36483 -1.4353,-1.13623 -7.48713,-2.87765 -13.4922,-3.915445 -6.00564,-1.037795 -18.41299,-4.896718 -27.7136,-8.720827 -27.50633,-11.309223 -34.94035,-12.140614 -56.88618,-6.407136 -13.61056,3.555812 -25.43074,4.885691 -42.48233,4.983322 -20.6514,0.118357 -26.99422,-0.778217 -49.22815,-7.296955 -27.62642,-8.100401 -31.52645,-13.04556 -6.01661,-7.653009 55.36774,11.704018 64.05635,11.860943 94.62785,2.135692 9.92069,-3.156051 25.85394,-6.371686 35.18861,-7.118956 3.65466,-0.292719 6.57377,-0.478627 9.11644,-0.534053 z m 216.60441,4.627324 c 1.78518,-0.05196 3.80304,0.596061 7.1107,2.13575 19.14277,8.910777 26.57852,20.976161 17.68553,28.832057 -5.20832,4.60094 -21.86673,4.71999 -30.44853,0.17782 -12.24107,-6.479015 -12.39869,-20.779801 -0.36373,-28.476112 2.68008,-1.714339 4.23085,-2.617495 6.01661,-2.66963 z M 369.02905,137.39707 c -13.33343,0.1149 -25.72,1.27278 -33.73021,3.55951 -17.68091,5.04735 -51.25293,24.36927 -62.1736,35.77307 -15.65324,16.34664 -24.8834,35.8349 -31.17772,66.02899 -5.00856,24.02841 -5.46986,32.1008 -5.46986,80.08897 0,29.31506 -1.22111,87.24123 -2.55249,128.85424 l -2.37004,75.81764 10.57483,14.23797 c 18.44706,25.23432 52.27427,48.21881 94.44541,64.07118 10.37795,3.90107 18.37085,5.08003 32.81857,5.16138 17.6047,0.0987 49.03415,-4.4704 59.80297,-8.72083 17.97132,-7.09257 42.65554,-19.18457 53.42205,-26.34036 18.8489,-12.52808 53.60392,-48.0612 53.60392,-54.63848 0,-1.20956 1.60389,-2.68476 3.46413,-3.38157 1.86023,-0.69663 3.28168,-2.69647 3.28168,-4.44938 0,-1.75302 0.91684,-3.51193 2.00573,-3.91545 2.90236,-1.07503 20.78535,-36.22981 20.78535,-40.93438 0,-2.20596 0.76326,-4.90105 1.82328,-6.05114 4.96352,-5.38609 14.00432,-59.39704 13.67465,-81.51284 -0.42725,-28.83656 -4.69159,-63.55203 -9.84563,-80.80084 -7.40111,-24.76961 -12.72663,-39.6309 -15.13305,-42.5362 -1.10794,-1.33756 -4.67772,-7.24448 -7.84047,-13.17016 -3.16275,-5.92556 -7.61242,-12.40613 -10.02808,-14.41602 -2.41449,-2.00972 -4.37577,-4.71947 -4.37577,-5.8732 5.8e-4,-2.75133 -45.07927,-48.7654 -47.76917,-48.76534 -1.13854,-6e-5 -5.3515,-2.44128 -9.29887,-5.33926 -12.66485,-9.29674 -42.75369,-23.41288 -60.16786,-28.12011 -12.01995,-3.24924 -30.6252,-4.77531 -47.76975,-4.62739 z m 288.44119,4.98338 c -2.17027,-0.0404 -4.01146,0.9251 -4.01146,2.13569 0,1.21054 1.6039,2.13558 3.46413,2.1357 1.86024,6e-5 3.28226,1.71139 3.28226,3.73744 0,2.02617 4.03744,11.75858 8.93399,21.5351 4.89654,9.77646 10.21456,20.98228 11.66891,24.91655 3.46586,9.37561 5.24816,9.10639 3.64658,-0.53405 -0.93821,-5.64029 -0.23672,-8.18458 2.37004,-9.6107 4.25683,-2.32524 1.95261,-6.94114 -3.46413,-6.94108 -2.62523,-6e-5 -5.84918,-4.50879 -9.66319,-13.88214 -3.07903,-7.56578 -5.27933,-14.43988 -4.9231,-15.48385 0.89836,-2.63048 -6.51949,-7.92413 -11.30403,-8.00883 z m -297.01029,33.45938 c 8.89646,0.0346 15.11457,1.48444 29.35445,6.05114 18.23286,5.84745 49.16521,11.07372 66.91425,11.21251 9.08525,0.071 28.60792,23.49822 21.51454,25.80637 -1.22919,0.40011 -4.03571,2.06393 -6.3815,3.91545 -4.03686,3.18567 -3.88098,3.41834 2.1876,2.49169 5.36766,-0.81973 6.60205,-0.0173 8.38723,4.98332 1.29789,3.63566 5.48198,7.42946 10.57483,9.78864 17.75654,8.22563 40.45928,23.59909 47.40485,32.03562 12.45528,15.1286 21.04343,39.68852 13.85709,39.68858 -1.24015,0 -2.18817,-1.31072 -2.18817,-3.02557 0,-1.71498 -0.81292,-3.51205 -1.82329,-3.91551 -1.00979,-0.40357 -3.47509,-4.39788 -5.28741,-8.89877 -3.13561,-7.78597 -27.4434,-34.88324 -31.36017,-34.88319 -1.02019,0 -7.01371,-3.12043 -13.30976,-6.94107 -6.29605,-3.82053 -11.86926,-6.21135 -12.58056,-5.5172 -1.3666,1.33427 2.54383,5.00895 25.52601,23.49273 12.41774,9.98737 21.09769,20.90007 18.23228,22.78086 -1.61775,1.06233 -81.65181,-2.4242 -89.70475,-3.91539 -14.90499,-2.76062 -28.49072,-16.90847 -42.6642,-44.3159 -9.13548,-17.66364 -25.1819,-32.15207 -39.7474,-35.77312 -6.20079,-1.54154 -13.18159,-3.76522 -15.49794,-4.98338 -3.39888,-1.78737 -5.66154,-0.7572 -12.03322,5.16132 -9.98766,9.27711 -14.23699,18.50237 -14.2214,31.85762 0,21.42125 7.33529,36.61855 22.42619,45.91777 12.65099,7.79544 61.84854,23.24441 121.06492,38.2647 12.82074,3.25189 39.37674,16.37268 43.94073,21.71298 2.04614,2.39348 5.12344,5.19302 6.92825,6.22914 6.78854,3.89812 15.70405,21.32505 18.77962,37.01894 4.18871,21.36766 1.48207,43.63791 -7.47559,62.82531 -8.65339,18.53505 -31.05302,42.33326 -44.48748,47.34152 -11.28036,4.20522 -44.87432,5.04135 -87.88147,2.31369 -33.95711,-2.1537 -39.49798,0.19573 -49.41059,19.22129 -5.79606,11.12401 -6.16903,13.37396 -3.64657,17.97554 4.09691,7.47218 23.11555,15.68395 43.39398,18.86547 11.50437,1.80492 18.60352,4.19465 21.14965,6.94107 6.51487,7.0271 1.1397,9.06891 -13.4922,5.33926 -13.44659,-3.42747 -15.47541,-2.32957 -8.20478,4.09339 2.45087,2.16531 3.94621,4.82454 3.28226,5.87319 -1.94627,3.07465 -11.57885,2.11353 -14.58629,-1.42375 -1.52191,-1.78998 -7.60376,-6.14236 -13.67465,-9.7887 -12.72316,-7.64193 -13.16484,-7.03484 -7.65745,12.99221 1.83021,6.65799 3.26725,12.97414 3.28168,13.88209 0,0.90783 -1.94395,1.60169 -4.37577,1.60181 -4.41041,-6e-5 -6.0986,-3.95488 -10.21052,-23.67073 -1.05944,-5.08165 -2.75802,-7.11913 -5.83416,-7.11908 -2.38217,1.2e-4 -4.19333,1.23266 -4.19333,2.66969 -5.8e-4,1.43704 -3.01783,-0.24306 -6.56395,-3.55956 -5.53741,-5.17835 -6.68576,-8.09988 -7.8399,-21.53504 -2.12408,-24.73064 4.72796,-46.17608 22.24375,-69.76639 3.0542,-4.1133 5.65172,-8.49473 5.65172,-9.6107 0,-2.14175 -13.9154,8.56587 -31.36017,24.20473 -12.62155,11.31517 -16.08741,11.73294 -16.04469,2.13569 0,-5.62274 2.49302,-9.86624 12.21625,-19.93328 6.80355,-7.04408 12.58056,-13.18234 12.58056,-13.70409 0,-0.52193 -2.13852,-0.88994 -4.74066,-0.88988 -2.78574,0 -10.31675,5.39497 -18.23286,13.17015 -14.35015,14.09519 -16.45288,15.24378 -18.59717,9.78865 -2.46762,-6.27677 -1.42896,-9.35702 6.56394,-19.57729 9.11874,-11.66118 8.95362,-11.38711 4.19333,-13.17015 -2.30134,-0.86217 -6.17365,1.13831 -10.57483,5.3392 -7.93343,7.57102 -8.95304,7.8627 -12.763,3.38162 -2.09695,-2.4664 -2.06924,-5.0388 -0.18475,-10.32264 2.78804,-7.80687 -0.0866,-13.47534 -5.65231,-11.39045 -6.31164,2.36426 -3.17141,-6.04664 3.64658,-9.78865 6.1113,-3.35345 6.63842,-4.6335 5.46985,-11.5684 -1.13912,-6.76324 0.0982,-9.86641 10.02808,-23.67073 11.64928,-16.1918 12.75896,-18.15365 9.66318,-18.15353 -2.52304,1.1e-4 -22.80031,19.37752 -30.63097,29.18805 -13.0742,16.38157 -13.07247,6.37226 0,-11.39046 16.4419,-22.33964 34.28043,-31.62096 84.05302,-43.60396 18.75133,-4.51457 34.0951,-8.87001 34.0951,-9.6107 0,-0.74063 -6.28854,-3.38209 -14.03953,-5.8732 -20.95393,-6.73513 -40.92117,-16.41777 -54.33311,-26.51836 -9.15281,-6.89263 -13.82188,-12.7872 -20.05615,-25.09455 -11.6106,-22.92086 -12.67813,-32.6393 -5.46986,-52.14685 7.30469,-19.76706 13.56726,-28.90387 26.2552,-38.08681 13.64982,-9.8786 22.84362,-12.70481 43.94074,-14.06003 3.9976,-0.25692 7.24464,-0.3672 10.21051,-0.35565 z m -228.63776,21.35704 c 4.08121,-0.0733 7.7391,0.47112 10.75728,1.60181 5.7859,2.1671 4.05886,5.16121 -2.9172,5.16127 -17.92109,5e-5 -31.72483,27.21413 -31.72483,62.29143 5e-5,10.19487 0.58243,11.661 10.21028,20.28922 l 10.39262,9.4327 -5.83446,1.42376 c -3.85679,0.94484 -5.83446,2.94312 -5.83446,5.87326 1.2e-4,6.20881 5.40092,17.93667 9.84563,21.53498 2.05255,1.6614 3.8289,5.40519 3.8289,8.36489 -1.7e-4,4.23091 -0.91892,5.10774 -4.19356,4.09344 -3.81348,-1.18167 -4.29933,0.66286 -5.65213,22.24692 -1.68985,26.95611 -5.61523,37.09821 -19.69125,51.25697 -8.172574,8.21986 -9.703834,8.92983 -20.602962,8.89877 -14.576993,-0.0404 -17.526352,-1.53536 -21.332216,-12.28034 -2.811659,-7.9381 -2.692897,-9.04668 2.005615,-12.63627 3.244675,-2.47835 7.207753,-3.28422 11.121871,-2.49163 4.205683,0.85177 7.559132,-0.0814 10.575059,-3.02557 5.719622,-5.58319 13.856801,-32.50391 13.856801,-45.56171 1.73e-4,-8.9904 -0.400684,-10.09401 -3.828843,-8.72083 -8.225687,3.29485 -10.766914,2.35624 -9.663358,-3.38157 2.049667,-10.66172 1.177053,-53.86684 -1.093914,-54.63847 -1.2401,-0.42147 -3.580234,3.402 -5.105201,8.54282 -1.52462,5.14094 -4.272598,11.05386 -6.016786,12.99222 -1.744073,1.93846 -5.853915,8.77255 -9.116373,15.1279 -3.263035,6.35529 -6.985125,11.3904 -8.204671,11.39046 -3.271927,6e-5 -2.67067,-3.48399 2.005614,-12.63627 2.294119,-4.49125 5.42292,-16.30017 6.928372,-25.98437 5.998022,-38.58744 15.122073,-59.11604 33.365846,-75.99558 8.332436,-7.70878 23.675236,-12.94972 35.918326,-13.17021 z m 319.25415,4.80538 c -1.62525,0.31928 -2.80883,1.35846 -3.46412,3.02557 -1.51094,3.84166 0.53116,10.30919 4.01088,12.63622 3.73664,2.49723 9.03906,2.063 13.67464,-1.24582 4.04957,-2.89058 4.06227,-3.33145 -1.64084,-8.89877 -3.69969,-3.6106 -7.64417,-5.41045 -10.75727,-5.5172 -0.60564,-0.0231 -1.28173,-0.10681 -1.82329,0 z m -349.885,23.84868 c -1.205579,0.27135 -2.851502,3.00536 -4.375833,8.36482 -2.546365,8.94998 -3.108189,38.09294 -0.911643,46.09571 0.747847,2.72379 2.107575,4.98327 3.099528,4.98332 3.134808,1.2e-4 3.804768,-5.09556 1.640958,-12.81427 -2.026689,-7.22952 -1.63351,-14.2162 1.82329,-36.129 1.13819,-7.2133 0.27482,-10.8496 -1.2763,-10.50058 z m 1.82328,72.79201 c -1.19102,0 -1.71237,1.79701 -1.09397,3.9155 8.40155,28.79042 8.69265,58.56911 0.54675,79.37703 -5.467255,13.96655 -6.677044,15.3992 -15.497753,18.68741 -5.260394,1.96104 -10.81674,3.55951 -12.398288,3.55956 -1.58224,0 -2.406991,1.10304 -1.640957,2.31369 4.644298,7.33518 22.100444,-2.35399 30.630978,-16.90771 9.4058,-16.0474 11.51932,-31.64943 7.84001,-60.33368 -3.12845,-24.39133 -4.91871,-30.61186 -8.387,-30.6118 z m 303.20935,37.73076 c -1.25401,0.0115 -0.25981,1.01782 2.55248,3.73756 2.48032,2.39677 8.05757,6.23347 12.39812,8.54283 9.57427,5.09388 13.64058,12.27993 15.31549,28.12012 0.69802,6.60106 2.16565,11.92433 3.09981,11.92439 3.36483,0 4.58362,-7.62166 3.09924,-19.22141 -1.28461,-10.03546 -3.17198,-12.88967 -10.75727,-19.75528 -10.37564,-9.3916 -11.7151,-10.39851 -20.78534,-12.45828 -2.53228,-0.57504 -4.16966,-0.89536 -4.92253,-0.88993 z m -89.15799,42.5362 c -4.55187,0.29445 -3.65581,2.2283 4.01146,3.73745 2.47973,0.48844 9.00557,0.92659 14.58628,1.06787 12.23588,0.31004 5.48661,-2.10954 -12.21624,-4.44938 -2.6593,-0.35161 -4.86422,-0.45438 -6.3815,-0.35623 z m -14.40385,12.45827 c -0.67377,0.0999 -0.71592,0.31524 -0.18475,0.88988 1.01037,1.0867 8.66609,3.07967 16.95633,4.44938 19.59484,3.23735 22.97352,3.52152 22.97352,1.24582 0,-1.03658 -6.76198,-2.59585 -15.13305,-3.38151 -8.37106,-0.78543 -17.86739,-2.07016 -20.96779,-2.84757 -1.63911,-0.41108 -2.97337,-0.45553 -3.64657,-0.35623 z m 135.65121,1.60182 c -1.32214,0.23267 -4.08825,2.10861 -7.8399,6.05113 -19.14161,20.11464 -53.41858,33.92219 -85.32897,33.99338 -10.58753,0.0231 -14.03838,0.64057 -11.66892,2.13569 5.68117,3.58335 29.04325,2.36611 46.12891,-2.31369 25.4036,-6.95816 47.21952,-18.06918 53.96822,-27.76424 5.54261,-7.96258 6.94385,-12.4902 4.74066,-12.10227 z m -150.60181,11.39039 c -5.46581,0.0976 2.94855,3.74432 18.05042,6.94102 19.03596,4.02953 32.27182,4.95555 32.27182,2.31375 0,-1.51573 -17.93899,-4.90573 -44.12318,-8.54289 -2.83192,-0.39318 -4.93754,-0.73433 -6.19906,-0.71188 z m 214.41625,1.42388 c -0.1963,0.0231 -0.40993,0.0947 -0.54849,0.17782 -1.10448,0.66656 0.32332,3.11829 3.28168,5.3392 9.14934,6.86695 12.72721,4.54182 3.82902,-2.49163 -2.43586,-1.92542 -5.17656,-3.20183 -6.56395,-3.02551 z m -5.46986,9.61064 c -5.79491,0 -3.39254,3.65483 8.5691,12.81422 6.51082,4.98522 12.15504,9.05603 12.58055,9.07676 0.42725,0.0231 -3.37752,-4.98182 -8.56909,-11.03446 -5.19158,-6.0527 -10.8358,-10.85658 -12.58056,-10.85652 z m -9.66319,9.07677 c -4.30706,0.19919 -2.80421,3.88115 3.64657,7.29695 3.40986,1.80603 6.47561,3.15507 6.74582,3.20357 0.27135,0.0462 -0.43302,-2.08171 -1.4584,-4.80532 -1.02538,-2.72367 -4.09114,-5.30837 -6.74639,-5.6952 -0.85102,-0.12413 -1.57214,-0.0289 -2.1876,0 z m 16.77389,15.12785 c -0.59179,0.33544 -0.75749,1.22774 -0.18476,2.13575 0.76615,1.21048 2.40642,2.13563 3.64658,2.13569 1.24015,0 1.67837,-0.92521 0.91164,-2.13569 -0.76615,-1.21066 -2.40642,-2.13581 -3.64657,-2.13575 -0.31177,0 -0.53117,-0.11143 -0.7292,0 z m -26.25521,4.27144 c -3.78802,0 -2.28286,6.29715 1.82329,7.65295 2.17028,0.71655 7.37917,5.82632 11.66892,11.39046 4.2909,5.56402 8.30466,8.96424 8.75211,7.65295 0.45034,-1.31146 -0.075,-3.76245 -1.09408,-5.51726 -3.17026,-5.46622 -18.8743,-21.17916 -21.15024,-21.1791 z m 24.61437,8.89877 c -1.49478,5e-5 -1.41395,1.11169 0.36373,3.20356 1.56809,1.84511 3.26148,3.04555 3.82902,2.49164 1.56405,-1.52636 -1.4688,-5.69526 -4.19391,-5.6952 z m -38.28843,15.6619 c -0.82447,0.36719 0.66684,3.71435 3.82844,8.00883 3.61366,4.90803 7.01716,8.45599 7.47558,8.00895 1.51729,-1.48057 -7.53101,-14.96804 -10.75727,-16.01778 -0.21939,-0.071 -0.42724,-0.052 -0.54849,0 z m 14.9506,0.35565 c -0.63683,-0.0173 -0.69745,0.62498 0.18475,2.13569 0.87296,1.49939 3.24185,4.46653 5.10497,6.58507 5.17252,5.87932 7.8832,4.54205 3.28226,-1.60175 -2.94451,-3.93138 -7.16786,-7.08408 -8.56968,-7.11901 z m -25.34356,1.77975 c -2.03691,-0.18187 -0.96765,3.29294 3.28226,10.67852 7.23945,12.58235 9.66318,13.8079 9.66318,4.62732 -5.8e-4,-4.33899 -1.83368,-7.96235 -5.83474,-11.0344 -3.549,-2.72505 -5.88845,-4.16255 -7.1107,-4.27144 z m -10.02808,2.13569 c -0.30022,-0.006 -0.61142,0.0629 -0.7292,0.17783 -0.83485,0.8147 4.86999,18.52956 7.1107,22.06892 2.46704,3.89679 3.22511,1.16954 2.37062,-8.54277 -0.58659,-6.65338 -2.23378,-10.91074 -4.74066,-12.28034 -1.58657,-0.86666 -3.11771,-1.40424 -4.01146,-1.42381 z m -353.348904,6.0512 c -0.360847,-0.0346 -0.746173,0.19457 -1.2763,0.71193 -2.17045,2.1189 -3.97757,28.1162 -2.187886,32.03551 1.129941,2.47443 2.484126,-2.40047 3.646515,-13.70415 1.373815,-13.36206 1.382013,-18.89041 -0.182445,-19.04329 z m 335.480934,0.17782 c -0.13279,0.0346 -0.26558,0.0652 -0.36373,0.17783 -0.53694,0.60333 -0.17898,4.25256 0.91164,8.18683 2.11774,7.65214 6.3815,9.79956 6.3815,3.20357 0,-4.02185 -4.97564,-12.05956 -6.92826,-11.5684 z m -21.69641,0.35623 c -1.91566,0.65264 -2.29268,3.50033 -0.54849,8.00883 2.41334,6.23365 5.86362,6.43445 7.8399,0.35623 0.95437,-2.93429 0.46188,-5.39786 -1.45897,-6.58513 -2.00227,-1.23854 -3.69623,-1.79402 -4.92253,-1.7797 -0.33487,0.004 -0.63798,-0.0935 -0.91164,0 z m -7.29315,6.40714 c -1.24015,0 -2.37061,0.92503 -2.37061,2.13569 5.7e-4,1.21054 1.13046,2.31358 2.37061,2.31363 1.24016,6e-5 2.1876,-1.10321 2.1876,-2.31363 5.8e-4,-1.2106 -0.94744,-2.13575 -2.1876,-2.13569 z m 19.87371,0 c -2.36427,0 -2.70202,3.05773 -0.54849,5.16126 2.73782,2.67327 5.14769,1.39702 3.82844,-1.95769 -0.71419,-1.81596 -2.17374,-3.20363 -3.28168,-3.20357 z m 85.14653,13.34809 c 3.72913,-0.15877 7.36416,2.07842 12.03323,6.94102 10.33522,10.76368 8.87971,14.14975 -3.09924,7.29701 -5.49122,-3.14145 -10.35775,-5.69664 -10.75728,-5.69514 -0.39837,0.002 -0.72977,8.63699 -0.72977,18.86535 5.8e-4,11.94362 -0.92492,19.41303 -2.73493,21.1791 -2.25457,2.19943 -2.73435,1.79511 -2.73435,-2.31369 -5.8e-4,-7.43864 -5.07553,-22.43462 -7.29315,-21.71298 -1.04039,0.33833 -5.73255,6.07619 -10.39296,12.63627 -11.26765,15.86236 -14.79356,17.06632 -10.57483,3.38145 3.86539,-12.53708 2.32443,-21.9792 -4.01088,-24.73855 -3.87405,-1.68714 -1.81924,-2.77113 12.03323,-6.05114 9.21631,-2.18228 18.7034,-5.27465 21.14965,-6.94107 2.57905,-1.75649 4.87403,-2.75225 7.11128,-2.84763 z M 88.610777,517.37467 c -0.174938,-0.0173 -0.520196,0.13684 -0.729257,0.35623 -2.069239,2.16479 -6.928429,27.55183 -6.928429,35.95101 -1.73e-4,6.88195 1.909543,5.71789 5.652129,-3.02557 3.313265,-7.74042 4.635061,-33.039 2.005557,-33.28144 z M 670.96245,677.37466 c 1.68356,-0.0462 3.06864,0.64641 4.01088,2.13575 2.20722,3.48572 -4.68235,12.46053 -10.57483,13.70409 -2.86599,0.60478 -6.94558,1.77929 -9.11643,2.66963 -6.99638,2.87078 -4.4872,-4.64118 4.01146,-11.92433 5.15174,-4.4155 8.86297,-6.51193 11.66892,-6.58514 z m -41.93558,10.85652 c 10.02172,0.0116 14.29934,20.15632 8.56967,39.51057 -1.59523,5.38805 -1.40932,9.49247 0.36374,13.70421 3.44565,8.18071 1.14373,15.93984 -5.83475,19.04329 -7.18807,3.19728 -6.74697,3.32476 -10.0275,-0.53405 -4.15637,-4.88835 -0.84293,-16.70056 5.46986,-19.04335 4.72623,-1.75447 5.12171,-2.59273 2.73435,-7.65295 -2.42373,-5.14031 -3.48491,-5.52609 -12.21567,-4.27145 -8.42707,1.21089 -9.66318,1.03393 -9.66318,-2.66957 0,-5.99987 4.50221,-9.61076 12.03322,-9.6107 l 6.38151,0 -0.7292,-14.23803 c -0.63048,-11.94229 -0.0808,-14.2419 2.91737,-14.23808 z m 68.73753,11.03452 c 3.98664,0.0404 7.65746,0.77596 7.65746,2.13569 5.8e-4,0.96609 0.71938,1.67941 1.64142,1.95775 l 0,11.5684 c -1.0427,0.30196 -2.34349,1.2778 -3.82902,3.02557 -4.61479,5.42771 -8.93398,3.95344 -8.93398,-3.02557 0,-3.48341 -1.61833,-7.58072 -3.46413,-9.07676 -1.84696,-1.49582 -2.8683,-3.55408 -2.18818,-4.62733 0.85276,-1.3472 5.1298,-1.99915 9.11643,-1.95775 z m -113.40746,2.13569 c -2.30192,0 -9.66319,7.08564 -9.66319,9.25471 0,1.0509 2.55191,0.20323 5.6523,-1.7797 5.27183,-3.37215 7.4294,-7.47507 4.01089,-7.47501 z m 80.40645,0 c 1.23958,0 2.18759,1.38762 2.18759,3.20357 0,1.81566 -0.94743,3.38145 -2.18759,3.38151 -1.24016,-6e-5 -2.18818,-1.56585 -2.18818,-3.38151 5.8e-4,-1.8159 0.94802,-3.20363 2.18818,-3.20357 z m 14.40384,6.94107 c 0.14434,0.004 0.26559,-0.0947 0.36374,0 0.57735,0.56235 -0.10393,3.70974 -1.64142,6.94102 -2.82442,5.93659 -5.1858,7.31098 -7.1107,4.27139 -1.15009,-1.81711 6.18924,-11.27805 8.38723,-11.21241 z m -25.70845,1.77976 c 1.24016,6e-5 2.37062,1.56567 2.37062,3.38151 -5.8e-4,1.81578 -1.13046,3.20351 -2.37062,3.20356 -1.24015,-1.1e-4 -2.18759,-1.38778 -2.18759,-3.20356 0,-1.81584 0.94744,-3.38151 2.18759,-3.38151 z m 6.92826,9.43265 c 1.33253,-0.0462 2.18817,0.7509 2.18817,2.49168 5.8e-4,3.88283 -5.80183,4.75273 -8.02234,1.24582 -0.76673,-1.2106 -0.77423,-2.13575 -0.18475,-2.13569 0.59179,1.1e-4 2.59636,-0.51096 4.55821,-1.24582 0.58486,-0.21939 1.01441,-0.34006 1.4584,-0.35623 z m 16.59202,4.62744 c 0.96707,-0.14492 1.82559,0.38567 2.37004,1.24575 0.72631,1.14657 0.44456,2.49487 -0.7292,3.20357 -1.17434,0.70859 -2.92026,0.43475 -3.64657,-0.71193 -0.72516,-1.14646 -0.26559,-2.67275 0.91164,-3.38146 0.29445,-0.17724 0.77192,-0.30773 1.09409,-0.35565 z m -30.44853,3.55944 c 1.31348,-5e-5 2.55248,0.92522 2.55248,2.1357 0,1.21059 -0.54848,2.31363 -1.09408,2.31369 -0.54849,0 -1.60332,-1.10315 -2.37005,-2.31369 -0.76614,-1.21048 -0.40414,-2.13581 0.91165,-2.1357 z m 16.95633,1.24582 c 1.0681,0.0173 2.17143,0.47343 3.28168,1.77981 1.97744,2.32536 1.69685,3.4042 -1.09351,4.44939 -5.08187,1.90359 -5.46986,1.79672 -5.46986,-1.77982 0,-2.89907 1.50228,-4.47946 3.28169,-4.44938 z m 29.71933,1.42381 c 2.29672,0.0756 5.67251,0.97094 8.38723,2.49169 2.64486,1.4819 4.20545,2.33742 5.46986,2.49164 l 0,13.3482 c -7.13668,1.75528 -19.63179,2.53396 -20.78535,0.71188 -2.19452,-3.46615 1.57156,-17.54205 5.10497,-18.86541 0.47921,-0.17898 1.05772,-0.20323 1.82329,-0.17782 z m -41.935,6.0512 c 1.24015,0 2.18759,1.10304 2.18759,2.31363 0,1.21066 -0.94744,2.13575 -2.18759,2.13575 -1.24016,-1.1e-4 -2.18818,-0.92526 -2.18818,-2.13575 0,-1.21048 0.94802,-2.31369 2.18818,-2.31363 z m 15.67979,4.44938 c 1.31349,-1.1e-4 2.37062,1.10298 2.37062,2.31364 -5.7e-4,1.21048 -0.54848,2.13569 -1.09408,2.13575 -0.54849,0 -1.6039,-0.92527 -2.37062,-2.13575 -0.76557,-1.21066 -0.2194,-2.31364 1.09408,-2.31364 z m 5.10497,9.25471 c 3.05132,-0.3314 4.07382,1.32838 5.10555,5.33932 1.21822,4.74101 0.20208,7.12028 -4.9231,11.21246 -9.66145,7.7175 -23.32167,6.44997 -23.15539,-2.13569 0.0693,-3.5042 2.97915,-6.32775 10.93972,-9.9667 6.02469,-2.75456 9.66087,-4.1916 12.03322,-4.44939 z"
     id="path9119" />
</svg>
