<?xml version="1.0" encoding="UTF-8" standalone="no"?>
<!-- Created with Inkscape (http://www.inkscape.org/) -->

<svg
   xmlns:dc="http://purl.org/dc/elements/1.1/"
   xmlns:cc="http://creativecommons.org/ns#"
   xmlns:rdf="http://www.w3.org/1999/02/22-rdf-syntax-ns#"
   xmlns:svg="http://www.w3.org/2000/svg"
   xmlns="http://www.w3.org/2000/svg"
   xmlns:sodipodi="http://sodipodi.sourceforge.net/DTD/sodipodi-0.dtd"
   xmlns:inkscape="http://www.inkscape.org/namespaces/inkscape"
   width="1000"
   height="1000"
   id="svg2"
   version="1.1"
   inkscape:version="0.47 r22583"
   sodipodi:docname="P.svg">
  <defs
     id="defs4">
    <inkscape:perspective
       sodipodi:type="inkscape:persp3d"
       inkscape:vp_x="0 : 526.18109 : 1"
       inkscape:vp_y="0 : 1000 : 0"
       inkscape:vp_z="744.09448 : 526.18109 : 1"
       inkscape:persp3d-origin="372.04724 : 350.78739 : 1"
       id="perspective10" />
    <inkscape:perspective
       id="perspective2940"
       inkscape:persp3d-origin="0.5 : 0.33333333 : 1"
       inkscape:vp_z="1 : 0.5 : 1"
       inkscape:vp_y="0 : 1000 : 0"
       inkscape:vp_x="0 : 0.5 : 1"
       sodipodi:type="inkscape:persp3d" />
    <inkscape:perspective
       id="perspective2953"
       inkscape:persp3d-origin="0.5 : 0.33333333 : 1"
       inkscape:vp_z="1 : 0.5 : 1"
       inkscape:vp_y="0 : 1000 : 0"
       inkscape:vp_x="0 : 0.5 : 1"
       sodipodi:type="inkscape:persp3d" />
    <inkscape:perspective
       id="perspective2966"
       inkscape:persp3d-origin="0.5 : 0.33333333 : 1"
       inkscape:vp_z="1 : 0.5 : 1"
       inkscape:vp_y="0 : 1000 : 0"
       inkscape:vp_x="0 : 0.5 : 1"
       sodipodi:type="inkscape:persp3d" />
    <inkscape:perspective
       id="perspective2979"
       inkscape:persp3d-origin="0.5 : 0.33333333 : 1"
       inkscape:vp_z="1 : 0.5 : 1"
       inkscape:vp_y="0 : 1000 : 0"
       inkscape:vp_x="0 : 0.5 : 1"
       sodipodi:type="inkscape:persp3d" />
    <inkscape:perspective
       id="perspective2992"
       inkscape:persp3d-origin="0.5 : 0.33333333 : 1"
       inkscape:vp_z="1 : 0.5 : 1"
       inkscape:vp_y="0 : 1000 : 0"
       inkscape:vp_x="0 : 0.5 : 1"
       sodipodi:type="inkscape:persp3d" />
    <inkscape:perspective
       id="perspective3005"
       inkscape:persp3d-origin="0.5 : 0.33333333 : 1"
       inkscape:vp_z="1 : 0.5 : 1"
       inkscape:vp_y="0 : 1000 : 0"
       inkscape:vp_x="0 : 0.5 : 1"
       sodipodi:type="inkscape:persp3d" />
    <inkscape:perspective
       id="perspective3018"
       inkscape:persp3d-origin="0.5 : 0.33333333 : 1"
       inkscape:vp_z="1 : 0.5 : 1"
       inkscape:vp_y="0 : 1000 : 0"
       inkscape:vp_x="0 : 0.5 : 1"
       sodipodi:type="inkscape:persp3d" />
    <inkscape:perspective
       id="perspective3031"
       inkscape:persp3d-origin="0.5 : 0.33333333 : 1"
       inkscape:vp_z="1 : 0.5 : 1"
       inkscape:vp_y="0 : 1000 : 0"
       inkscape:vp_x="0 : 0.5 : 1"
       sodipodi:type="inkscape:persp3d" />
    <inkscape:perspective
       id="perspective3044"
       inkscape:persp3d-origin="0.5 : 0.33333333 : 1"
       inkscape:vp_z="1 : 0.5 : 1"
       inkscape:vp_y="0 : 1000 : 0"
       inkscape:vp_x="0 : 0.5 : 1"
       sodipodi:type="inkscape:persp3d" />
    <inkscape:perspective
       id="perspective3057"
       inkscape:persp3d-origin="0.5 : 0.33333333 : 1"
       inkscape:vp_z="1 : 0.5 : 1"
       inkscape:vp_y="0 : 1000 : 0"
       inkscape:vp_x="0 : 0.5 : 1"
       sodipodi:type="inkscape:persp3d" />
    <inkscape:perspective
       id="perspective3070"
       inkscape:persp3d-origin="0.5 : 0.33333333 : 1"
       inkscape:vp_z="1 : 0.5 : 1"
       inkscape:vp_y="0 : 1000 : 0"
       inkscape:vp_x="0 : 0.5 : 1"
       sodipodi:type="inkscape:persp3d" />
    <inkscape:perspective
       id="perspective3083"
       inkscape:persp3d-origin="0.5 : 0.33333333 : 1"
       inkscape:vp_z="1 : 0.5 : 1"
       inkscape:vp_y="0 : 1000 : 0"
       inkscape:vp_x="0 : 0.5 : 1"
       sodipodi:type="inkscape:persp3d" />
    <inkscape:perspective
       id="perspective3096"
       inkscape:persp3d-origin="0.5 : 0.33333333 : 1"
       inkscape:vp_z="1 : 0.5 : 1"
       inkscape:vp_y="0 : 1000 : 0"
       inkscape:vp_x="0 : 0.5 : 1"
       sodipodi:type="inkscape:persp3d" />
    <inkscape:perspective
       id="perspective3109"
       inkscape:persp3d-origin="0.5 : 0.33333333 : 1"
       inkscape:vp_z="1 : 0.5 : 1"
       inkscape:vp_y="0 : 1000 : 0"
       inkscape:vp_x="0 : 0.5 : 1"
       sodipodi:type="inkscape:persp3d" />
  </defs>
  <sodipodi:namedview
     id="base"
     pagecolor="#ffffff"
     bordercolor="#666666"
     borderopacity="1.0"
     inkscape:pageopacity="0.0"
     inkscape:pageshadow="2"
     inkscape:zoom="0.532"
     inkscape:cx="500"
     inkscape:cy="500"
     inkscape:document-units="px"
     inkscape:current-layer="svg2"
     showgrid="false"
     showborder="true"
     inkscape:showpageshadow="false"
     showguides="true"
     inkscape:guide-bbox="true"
     inkscape:window-width="1280"
     inkscape:window-height="750"
     inkscape:window-x="0"
     inkscape:window-y="26"
     inkscape:window-maximized="1">
    <sodipodi:guide
       orientation="0,1"
       position="0,200"
       id="guide2818" />
  </sodipodi:namedview>
  <metadata
     id="metadata7">
    <rdf:RDF>
      <cc:Work
         rdf:about="">
        <dc:format>image/svg+xml</dc:format>
        <dc:type
           rdf:resource="http://purl.org/dc/dcmitype/StillImage" />
        <dc:title></dc:title>
      </cc:Work>
    </rdf:RDF>
  </metadata>
  <g
     inkscape:label="Layer 1"
     inkscape:groupmode="layer"
     id="layer1" />
  <path
     style="fill:#800000"
     d="M 0,0 0,6.0498681 0,793.77225 0,800 l 6.2345639,0 724.6776261,0 6.23456,0 0,-6.22775 0,-787.7223819 L 737.14675,0 730.91219,0 6.2345639,0 0,0 z m 102.68708,12.277619 616.12266,0 c 2.44867,0.393179 3.79293,0.874866 4.40088,1.601409 0.77909,0.9311 1.23883,4.771085 1.467,10.854093 l 0,19.572957 c -0.11547,6.662499 -0.24941,14.560768 -0.55022,23.843418 -0.91331,28.208912 -1.29708,94.592564 -0.91683,147.330914 0.69634,96.54166 1.12751,169.55202 1.46694,239.32382 l 0,328.11393 c -0.39895,0.59606 -0.99224,1.31013 -1.65037,1.95729 -1.5502,1.52433 -7.95329,2.33124 -35.39034,2.84693 l -426.70164,0 C 222.3138,787.41696 192.5204,787.05196 184.47,786.65479 165.13757,785.70158 120.05991,785.10974 84.350067,785.23127 l -48.593052,0.17782 c -16.56771,-2.1059 -21.055892,-9.78177 -23.287945,-19.03913 l 0,-749.466171 c 0.06524,-0.08083 0.118358,-0.295029 0.183599,-0.355651 1.720921,-1.611397 37.763842,-2.988618 90.034581,-4.270403 z m 359.58831,10.498213 c -42.06759,0.01732 -90.87857,0.296182 -147.42938,0.711705 -248.443069,1.82675 -289.509553,2.597749 -292.658272,5.693929 -2.431933,2.391691 -2.35936,63.765758 0,240.747354 0.808989,60.70185 1.927383,111.08222 2.56715,112.09969 0.639247,1.0173 0.983061,13.33718 0.733471,27.04618 -0.249417,13.70928 -0.34699,30.89748 -0.36662,38.25626 -0.02309,7.35897 -1.114237,25.44362 -2.383782,40.39145 -1.2707,14.948 -1.598291,29.10034 -0.733471,31.31675 1.430338,3.66447 4.681999,70.68512 4.217518,86.65475 -0.106811,3.67942 -0.199765,37.60201 -0.183599,75.62277 0.01732,38.0206 -0.06582,72.09924 -0.183599,75.62284 -0.476895,14.30523 6.60026,17.80902 33.556659,16.54802 l 39.241177,0 c 10.609988,0.5863 23.768128,1.17578 38.507648,1.60141 32.78999,0.94709 75.46978,2.24187 94.80221,3.02493 45.2398,1.83235 408.13181,0.68307 448.70598,-1.42347 l 30.98951,-1.60146 1.28357,-23.48754 c 0.7482,-12.87807 0.7482,-123.79395 0,-246.44128 -0.74865,-122.64744 -1.28357,-279.87715 -1.28357,-349.46617 0,-100.9228 -0.61252,-126.704397 -2.93389,-127.580013 -1.6006,-0.603855 -41.52623,-2.32391 -88.5677,-3.736697 -36.64718,-1.100611 -87.76926,-1.629583 -157.88135,-1.601408 z m -203.9073,4.09252 c 4.13578,-5.8e-5 3.85839,11.410779 -0.36673,16.903904 -4.02471,5.232796 -4.30542,9.78645 -0.73348,9.786507 1.43818,0 7.8546,-2.338459 14.30285,-5.338105 8.35088,-3.884788 19.90354,-6.460079 39.97462,-8.718863 27.65762,-3.112403 33.74006,-2.91899 33.74006,0.889703 0,2.326855 -9.40973,4.828648 -41.44159,11.031977 -21.10162,4.086516 -40.158,11.213382 -40.158,14.946672 0,0.605241 2.05408,3.776361 4.58425,6.939456 7.01098,8.764821 1.97055,11.128684 -7.88491,3.736697 -7.03835,-5.278638 -8.98548,-5.694795 -13.75273,-3.558756 -4.84038,2.16889 -5.24685,2.972799 -3.30066,8.007158 1.22991,3.180185 2.20044,6.860474 2.20044,8.007042 0,4.146388 -6.31888,1.996897 -9.90198,-3.380757 -4.16201,-6.246458 -5.72816,-6.065053 -22.92124,3.914579 -6.23607,3.619898 -15.67581,9.028152 -20.90416,11.921734 -11.59288,6.41528 -18.88706,6.76579 -18.88706,1.06765 0,-2.77765 4.82385,-6.58196 14.85296,-11.743799 13.6937,-7.047883 15.17132,-8.364194 19.43717,-19.572956 2.53354,-6.657477 5.32794,-15.638343 6.23456,-19.928839 0.90668,-4.29038 2.6399,-8.192604 3.85078,-8.540864 1.21037,-0.348145 5.0906,3.959902 8.6184,9.430568 3.52787,5.47055 7.30115,9.964332 8.43501,9.96439 2.49946,1.16e-4 10.92065,-13.211086 16.68665,-26.156531 2.3214,-5.212704 5.65323,-9.608625 7.3348,-9.608567 z m 360.87194,4.448402 c 0.34872,-0.04041 0.84218,0 1.28345,0 3.72504,-5.8e-5 5.86789,9.392751 5.86789,24.733121 6e-5,7.236563 1.04686,10.887061 2.93389,10.854094 4.56173,-0.07968 12.13859,-7.125942 16.1366,-14.946672 2.03719,-3.986172 5.37857,-7.295453 7.33482,-7.295337 2.94001,1.15e-4 3.24583,1.888238 2.01699,10.676153 -1.39287,9.956422 -0.98976,11.072622 5.31784,15.658319 8.7221,6.341028 13.27951,15.339562 15.21965,30.605048 1.08081,8.5094 2.83666,13.09163 5.68446,14.59073 6.8558,3.60801 8.86678,2.54267 12.65255,-6.76157 3.27268,-8.04411 9.90186,-12.466934 9.90186,-6.58369 0,9.00338 -5.66217,33.82998 -8.25161,35.9431 -1.73853,1.41861 -8.5389,2.62904 -15.03633,2.84699 -11.00831,0.36893 -11.79697,0.82689 -12.46913,6.40569 -0.59906,4.97212 2.24955,8.74993 16.50328,21.88607 16.30981,15.03155 20.56866,22.06407 13.93607,22.06407 -1.64685,0 -7.19609,-3.74651 -12.46907,-8.18504 -5.2731,-4.43818 -10.05711,-7.68696 -10.63551,-7.1174 -1.60002,1.57312 8.08822,22.0837 14.1195,29.89323 6.40858,8.29699 6.66261,9.96439 1.28357,9.96439 -2.26109,-6e-5 -7.04286,-3.07412 -10.63545,-6.76157 -7.53459,-7.73361 -12.79568,-5.80155 -7.1514,2.66905 4.7309,7.10054 15.03634,36.78667 15.03634,43.41638 0,6.82669 -6.34276,6.8338 -8.98514,0 -1.10766,-2.86478 -3.76003,-12.84961 -6.0512,-22.24201 -4.14021,-16.97077 -7.67639,-20.53351 -10.08535,-10.49822 -0.6923,2.88418 -2.50941,5.72805 -4.03415,6.22776 -2.07339,0.67948 -2.75051,-5.35959 -2.75051,-23.84342 0,-14.99032 -0.82539,-24.73312 -2.20047,-24.73312 -1.24721,0 -2.36479,2.22264 -2.38379,4.98222 -0.0404,5.93682 -3.3897,12.02918 -5.13435,9.25268 -2.61727,-4.16445 -2.30192,-46.55014 0.36662,-51.42347 2.35936,-4.30782 1.87744,-5.44099 -2.93395,-8.54098 -4.47519,-2.88371 -6.31383,-3.09289 -9.90197,-0.88965 -6.53358,4.01285 -10.6246,1.37082 -13.75271,-8.8968 -1.61012,-5.2843 -4.13969,-9.25268 -6.05119,-9.25268 -1.82052,0 -3.30068,1.12999 -3.30068,2.31322 0,1.18347 -2.17097,3.2594 -4.76762,4.62629 -3.83554,2.01843 -5.3313,1.7118 -7.88488,-1.60141 -4.13403,-5.36443 -4.02173,-10.62483 0.1836,-14.05691 3.81083,-3.10992 4.57023,-10.280261 1.28358,-12.27762 -1.18185,-0.718402 -11.52822,-0.116625 -22.92125,1.245585 -11.39358,1.362211 -21.2194,1.839568 -22.00437,1.067587 -0.78492,-0.772039 -0.35219,-3.405873 1.1002,-5.693929 3.49993,-5.510735 -0.17089,-6.761573 -18.88706,-6.761573 -14.88622,1.15e-4 -20.02808,-2.536377 -13.01929,-6.405692 3.38434,-1.868031 3.59975,-2.343194 0.73353,-3.380758 C 512.97844,70.940602 485.956,66.998251 475.8449,68.149496 l -11.36898,1.423468 5.50109,-4.448402 c 5.22385,-4.168558 15.77749,-9.257824 25.48842,-12.277561 7.42853,-2.309823 3.9845,-5.878452 -5.68446,-5.871928 -5.30098,0.0036 -21.70738,2.002555 -36.67397,4.448402 -32.29872,5.278465 -36.74434,5.473033 -38.32431,1.423526 -0.88101,-2.257111 2.75065,-3.697668 13.01927,-5.693929 7.69827,-1.496677 16.97907,-3.760542 20.72079,-4.804284 3.7416,-1.043799 16.81453,-2.479391 28.9724,-3.202874 18.44365,-1.097609 24.35507,-0.594676 36.85734,3.202874 17.93783,5.448092 22.26926,5.684518 20.53743,1.245527 -2.00983,-5.150465 2.57454,-6.202174 7.51814,-1.779349 6.5666,5.87493 42.98201,23.972861 44.74225,22.241952 0.82573,-0.812338 -1.08121,-6.279655 -4.40083,-12.277562 -6.26289,-11.315515 -7.7594,-18.149546 -3.85084,-18.149489 1.24726,0 2.20047,1.007657 2.20047,2.135289 0,3.241673 22.91659,26.868236 26.03858,26.868294 1.57762,1.16e-4 4.07041,-5.61691 5.6844,-12.811383 3.57296,-15.922171 3.97601,-18.21831 6.41799,-18.505313 z M 56.294501,33.807866 c 2.646304,-0.459574 9.617342,4.696087 22.187795,16.548023 12.455387,11.743739 19.271636,16.54808 23.287944,16.54808 5.21663,5.8e-5 5.6198,-0.545023 4.95099,-8.185099 -1.02723,-11.722608 4.3868,-10.856114 10.45208,1.601409 4.52548,9.294024 17.96456,19.815965 20.35406,16.014258 0.56004,-0.891147 0.0462,-6.589752 -1.1002,-12.633443 -2.08743,-10.989021 -0.2985,-16.378973 4.40082,-13.523146 1.2718,0.77302 3.5363,6.82029 4.95099,13.523146 1.41533,6.702914 3.33399,12.696894 4.40089,13.345206 1.06689,0.648196 6.96353,-8.214544 13.01929,-19.572957 8.51725,-15.976903 12.04263,-20.597934 16.13654,-21.174365 2.91091,-0.409922 5.0694,0.04619 4.58425,1.067586 -0.4844,1.023073 -4.94302,9.638185 -9.71861,19.217133 -4.77559,9.578775 -8.07898,17.951803 -7.33483,18.683196 1.73628,1.707469 19.04601,-5.846408 22.37117,-9.78645 3.23359,-3.83144 8.80171,-3.797203 8.80171,0 6e-5,3.778844 -11.23313,13.711595 -30.07261,27.046235 -10.03414,7.102328 -16.33856,13.481292 -18.88712,19.039132 -4.34124,9.46706 -19.42538,18.44798 -27.50546,16.37014 -3.84501,-0.98872 -5.57182,0.62661 -8.61841,6.93952 -2.09914,4.35002 -5.39561,9.06527 -7.1514,10.49821 -1.75637,1.43328 -3.11731,3.8181 -3.11731,5.3381 0,1.51989 -3.043005,9.3229 -6.784667,17.43767 -3.741662,8.11472 -6.872598,16.96464 -6.968035,19.75096 -0.09469,2.78648 -1.383515,8.59277 -2.933943,12.81138 -3.294443,8.96493 -6.456614,10.64573 -10.635449,5.69393 -2.527948,-2.99508 -2.134134,-6.16055 2.200413,-19.39507 2.83614,-8.65963 8.116336,-22.13809 11.735715,-30.07111 3.619898,-7.93286 6.601299,-15.43593 6.601299,-16.54803 0,-6.16759 -6.339065,1.05979 -23.838106,27.04618 -18.028245,26.77228 -23.699137,32.34162 -27.138727,26.86841 -1.722826,-2.74128 6.778027,-19.03561 15.769806,-30.24917 29.41795,-36.6843 33.908614,-43.41631 28.789096,-43.41631 -1.008293,-6e-5 -3.813312,1.40204 -6.234622,3.20281 -4.983263,3.70645 -16.870013,4.59384 -16.870013,1.24559 0,-2.53944 14.653664,-12.06325 22.187738,-14.41285 2.806578,-0.8751 5.134357,-2.77621 5.134357,-4.27046 0,-1.4946 -7.32842,-8.581976 -16.136543,-15.658381 C 67.028793,82.282906 61.822036,76.685107 62.345754,74.199307 c 0.829601,-3.938021 2.627541,-4.065732 14.85291,-1.423468 11.147909,2.409127 9.452969,-2.117275 -7.334771,-19.217076 -8.106867,-8.257441 -14.852967,-16.092085 -14.852967,-17.437784 0,-1.386286 0.401261,-2.159941 1.283575,-2.313113 z M 396.81232,51.601473 c 6.57552,-0.122976 11.91903,0.725504 11.91903,1.95729 0,2.587935 -9.93617,2.587877 -18.15357,0 -4.46077,-1.404646 -3.13241,-1.782409 6.23454,-1.95729 z m -66.19648,23.487537 45.29231,0.177825 c 24.94494,0.118935 49.472,1.218854 54.46087,2.491112 29.17947,7.440889 38.00762,10.310341 53.36064,16.725964 22.15119,9.256789 49.4842,23.932619 65.46301,35.409279 15.54498,11.16557 47.41338,41.38189 50.24334,47.50889 1.13277,2.45289 8.82533,15.05804 17.05338,27.93594 8.22748,12.87807 18.05255,31.29135 21.821,41.1032 15.33281,39.91541 17.59125,46.57751 17.60355,51.0676 0.006,2.57979 0.94651,8.37175 2.20041,12.81144 2.03495,7.20221 3.5643,8.19918 11.55229,9.25262 11.85592,1.56383 28.34003,14.95511 30.25604,24.37724 4.48073,22.03111 -2.24759,34.92551 -24.02148,46.26337 -15.09106,7.85763 -15.40769,8.13678 -17.97022,20.28472 -3.36257,15.94042 -12.40192,44.56329 -19.25385,60.6761 -25.29212,59.47359 -80.38108,108.62275 -158.79825,141.63699 -31.78615,13.3821 -56.5776,18.44169 -99.93657,20.10678 -16.52597,0.63457 -30.07266,1.71988 -30.07266,2.49111 -5e-5,6.51354 39.86098,17.55302 74.81488,20.6406 34.78925,3.07303 100.78054,1.20153 127.07534,-3.55876 40.69812,-7.36779 54.56652,-15.39372 78.66565,-45.37372 12.12312,-15.08218 14.49726,-31.13835 6.23451,-43.41632 -6.61562,-9.83015 -6.94598,-14.36931 -1.83362,-24.911 3.72705,-7.68592 11.92837,-12.45556 21.63763,-12.45556 6.48947,6e-5 19.27002,6.54911 21.27084,10.85409 0.95362,2.05157 2.04978,17.25049 2.20047,33.80787 0.15127,16.55755 0.79109,32.69894 1.65037,35.7651 1.4274,5.09815 0.44283,6.02227 -12.10245,11.92173 -10.58747,4.97859 -14.74523,8.37736 -18.15359,14.94656 -9.0263,17.39922 -4.4245,27.20524 12.6525,26.86841 13.0444,-0.2575 16.03198,2.71761 10.26871,10.6761 -3.49599,4.82824 -4.09142,9.94464 -3.85078,30.42705 0.29387,24.99073 -2.29262,33.78875 -10.81882,40.74738 -1.84176,1.50325 -6.80077,3.21476 -11.18555,3.91458 -10.6377,1.69725 -19.62059,-6.37631 -19.62059,-17.79361 6e-5,-11.06893 7.8522,-16.76938 21.08753,-15.3025 11.20259,1.24172 12.93246,-0.6792 11.18561,-12.27762 -1.18692,-7.881 -5.13435,-10.08101 -5.13435,-2.84693 0,5.44006 -3.50212,5.83665 -6.41799,0.71176 -3.31517,-5.8247 -24.63734,-7.10493 -112.58904,-7.11745 -83.77624,-0.0115 -107.03903,-1.74823 -149.62982,-11.56586 -44.4962,-10.25676 -64.52413,-17.91572 -106.35451,-40.56938 -35.38152,-19.16159 -61.20901,-38.76151 -95.71905,-72.41996 -37.73758,-36.80641 -53.82793,-59.91145 -73.34794,-105.33806 -3.95217,-9.19865 -8.10606,-18.72153 -9.16851,-21.17437 -5.937976,-13.71228 -11.838021,-39.97389 -12.285759,-54.44841 -0.14838,-4.79758 -1.511342,-6.00304 -10.63545,-7.65121 -7.076866,-1.27844 -12.713291,-4.08213 -17.053381,-8.54093 -5.714079,-5.8699 -6.634844,-8.11789 -6.601357,-20.46266 0.04619,-17.62883 3.230587,-22.25003 21.821002,-32.56222 12.212032,-6.77399 14.626818,-9.07319 15.219703,-14.59079 2.376103,-22.11811 23.735512,-71.17137 43.091962,-99.11031 42.40485,-61.20594 86.80007,-93.1825 164.84946,-118.505329 l 29.52258,-9.608509 z m -219.86046,1.245527 c -3.2766,0.235561 -6.22648,1.207653 -8.0683,2.846936 -5.533135,4.924257 -3.435144,21.978157 4.03415,33.096107 4.35972,6.48906 7.15342,8.36304 12.28576,8.36304 8.33914,-6e-5 19.06973,-5.48083 22.1878,-11.20998 3.6244,-6.65909 -1.43294,-22.242009 -7.15146,-22.242009 -1.06805,-1.16e-4 -0.68735,2.271833 0.73347,5.338047 4.35469,9.398232 -0.4948,16.903962 -11.18556,16.903962 -5.61252,-1.2e-4 -10.54815,-1.69032 -13.7527,-4.62634 -9.21677,-8.443698 -4.31982,-22.064071 7.88488,-22.064071 8.41067,-5.8e-5 5.41397,-5.547627 -3.48405,-6.405692 -1.12711,-0.108543 -2.3914,-0.07852 -3.48399,0 z m 244.43198,39.857673 c -14.10294,-0.15011 -20.90618,1.04859 -35.02363,4.44841 -63.61814,15.32056 -104.92668,46.01487 -130.19258,96.79708 -9.97438,20.04806 -21.82349,65.02416 -22.37111,85.2314 -0.37181,13.693 -0.362,13.8262 10.26872,23.84336 5.88659,5.54635 11.48462,12.69787 12.28576,15.83631 2.69428,10.55647 -0.95928,24.62447 -8.25167,31.49464 -3.74449,3.52775 -10.03061,11.02147 -13.7527,16.72596 l -6.78473,10.49827 7.70156,23.13166 c 7.5458,22.66209 9.24057,26.73608 17.78686,45.90743 2.31808,5.19913 4.40088,9.77606 4.40088,10.32033 0,2.45202 23.69949,39.39585 32.27309,50.17795 17.56549,22.09039 19.57244,24.22401 35.02365,36.6548 21.28029,17.12018 47.98514,26.74012 84.5335,30.60493 55.99305,5.92118 106.53135,-6.32405 152.74709,-36.83274 28.32866,-18.7004 47.43615,-37.76021 65.64643,-66.19215 9.84708,-15.37374 21.98196,-65.90873 22.0043,-91.45909 0.006,-9.63923 -0.44052,-10.63031 -6.41786,-11.92174 -3.55344,-0.76748 -9.65135,-4.56578 -13.56939,-8.54086 -8.42903,-8.5519 -11.47723,-23.42242 -7.33483,-35.7651 3.18007,-9.4763 14.18433,-20.78477 24.38819,-25.08901 4.53778,-1.9145 7.51814,-4.56502 7.51814,-7.11739 0,-12.92085 -29.22244,-81.2558 -47.67608,-111.92175 -16.16027,-26.85462 -44.8612,-52.76081 -72.06442,-64.59069 -31.53828,-13.71529 -60.1526,-20.19367 -96.08574,-21.70824 -6.83629,-0.2881 -12.3521,-0.48383 -17.05343,-0.53348 z m -12.1024,15.65832 c 0.14677,-0.0889 0.31576,-0.001 0.55011,0 1.60398,0.006 5.28488,3.36713 8.25167,7.65122 2.9673,4.28443 6.24835,7.82922 7.33478,7.82922 2.92267,1.1e-4 2.33848,-5.32558 -0.91683,-8.71886 -2.28734,-2.38454 -2.19508,-2.76628 0.5501,-1.95729 6.00994,1.77109 24.49401,26.35618 29.52256,39.32385 7.24489,18.68539 7.1676,18.68493 20.17064,22.24201 13.07013,3.57544 29.8893,16.7912 29.8893,23.66542 0,3.1068 -1.9764,2.3119 -8.98514,-3.91458 -7.94051,-7.05458 -20.91124,-12.5984 -29.33913,-12.63344 -1.80774,-0.006 -2.82212,1.95665 -2.38381,4.98222 0.57498,3.97428 2.96218,5.5198 11.36893,7.29534 16.19765,3.421 15.6479,5.51604 -1.46698,5.51604 -13.46145,-5e-5 -17.16987,-0.85835 -29.52255,-7.65127 -7.80541,-4.29258 -15.84066,-8.0071 -17.7869,-8.0071 -5.7559,5e-5 -26.4946,10.68429 -38.69099,19.75089 -13.97736,10.39037 -24.67103,27.1135 -29.52257,46.79714 -3.41229,13.84259 -3.46027,15.90791 0,28.29182 2.05675,7.35873 4.33188,15.56784 4.95099,18.32743 1.67435,7.46513 6.17179,6.14386 13.386,-4.09258 6.72567,-9.54414 25.9246,-25.38548 39.0578,-32.0284 10.80006,-5.46253 25.09702,-9.25609 51.16017,-13.52315 37.2881,-6.10477 66.43954,-22.69165 70.78079,-40.56938 0.81395,-3.35051 2.4104,-7.36872 3.48399,-8.71886 4.34459,-5.46415 4.64984,-22.74593 0.73347,-40.56944 -2.20018,-10.01491 -3.49669,-18.66334 -2.93394,-19.21702 0.56292,-0.55368 4.25019,-1.43536 8.43503,-1.77941 7.11486,-0.58509 8.43769,0.55426 19.8039,16.19214 6.68611,9.19876 14.32151,20.83327 16.87007,25.97865 6.31031,12.7387 10.80577,53.64202 12.28576,110.14241 1.89038,72.18445 8.53307,137.95807 16.87001,168.50533 2.04667,7.50111 -1.63431,12.65792 -12.83586,18.32731 -3.99125,2.02051 -5.15173,1.91572 -6.41793,-1.24547 -2.45255,-6.12307 -12.46913,-63.22818 -12.46913,-70.99643 0,-3.86625 -0.97694,-10.26571 -2.38378,-14.23491 -2.41022,-6.79835 -3.08209,-7.09112 -10.81888,-5.69398 -4.5171,0.81591 -9.11614,2.28465 -10.08528,3.20287 -0.96811,0.91834 -0.54849,8.5904 0.73341,17.08185 8.40732,55.69751 9.22393,59.66607 16.1366,72.4199 3.8778,7.15509 6.40356,14.52641 5.6844,16.37014 -0.71955,1.84372 -0.27597,4.07924 0.9169,4.80428 2.30012,1.39801 3.09248,9.96439 0.91684,9.96439 -0.7057,0 -3.47972,-1.31614 -6.0512,-2.66905 -5.41922,-2.85202 -9.08652,0.86337 -6.78466,6.76157 0.75425,1.93333 -2.62252,0.40934 -7.5182,-3.5587 -5.29648,-4.29332 -11.4792,-7.29534 -15.2197,-7.29534 -7.9645,6e-5 -7.85549,1.22994 0.55021,8.18504 4.09507,3.38844 6.78473,7.79545 6.78473,11.03198 0,6.92652 -3.18994,6.96625 -6.41799,0 -3.65731,-7.89301 -16.77717,-11.50962 -28.60567,-7.65122 -9.37202,3.05686 -9.30072,2.61605 -8.25167,17.79361 0.17032,2.45809 2.10423,4.04789 5.31773,4.09246 5.96315,0.0831 13.01929,4.99447 13.01929,8.89686 0,1.95995 -2.02161,2.22322 -7.33483,0.88965 -14.00582,-3.51505 -44.99771,-1.96635 -62.16235,3.20287 -24.10689,7.26035 -45.30711,6.22192 -52.81052,-2.66905 -4.53385,-5.37217 -1.53344,-6.76186 8.25167,-3.5587 10.4919,3.4344 24.16949,2.87535 32.27309,-1.24558 4.37031,-2.22224 7.28756,-6.93686 11.18551,-17.79361 4.55845,-12.69782 5.2808,-17.34431 4.03415,-31.85052 -1.67096,-19.43624 -3.84612,-23.15255 -10.26868,-17.43772 -3.65343,3.25172 -5.29957,3.47446 -9.53523,1.24552 -3.51002,-1.84724 -10.72675,-2.26242 -23.47138,-1.24552 -22.58445,1.80186 -29.63324,-0.25288 -31.72294,-9.60851 -1.57721,-7.0614 -8.0683,-9.6338 -8.0683,-3.20288 -3e-5,5.86939 8.78868,17.89338 13.9361,19.21714 2.60893,0.67065 11.52144,0.69784 19.98734,0 8.46647,-0.69774 17.93679,-0.55426 20.90415,0.17782 6.88196,1.69893 15.40309,9.49333 15.40309,14.05691 0,3.12089 -0.59934,3.03868 -5.86786,-0.35565 -5.55331,-3.57815 -6.48735,-3.64351 -14.30284,-0.17782 -10.1402,4.49678 -19.97898,16.22245 -25.30504,30.07122 -2.62119,6.81539 -5.2983,10.58724 -8.25167,11.03198 -2.45585,0.36951 -7.29539,3.50108 -10.81878,7.11745 -5.57117,5.71824 -16.54024,9.60753 -14.1195,4.98217 10.24521,-19.57145 13.11393,-33.29766 7.51816,-35.40922 -2.50614,-0.94576 -4.93948,0.0976 -7.15142,3.20282 -1.86196,2.61403 -5.68634,4.98223 -8.25164,4.98223 -4.24305,5e-5 -4.50907,-1.01413 -3.11729,-10.14234 1.83849,-12.05516 -0.20277,-12.72582 -11.91904,-3.55875 -4.60428,3.60258 -11.05026,7.22755 -14.30285,8.00716 -10.44171,2.50225 -28.93249,-7.61912 -29.15581,-16.01426 -0.0468,-1.75383 2.75141,-1.19871 7.88491,1.7794 12.57712,7.29765 21.48966,6.49086 33.00657,-3.20287 5.43721,-4.57634 12.43487,-8.93832 15.58644,-9.60857 11.39632,-2.4239 11.56039,-2.5776 11.36893,-17.08178 L 306.41112,478.47 294.12534,468.32767 c -6.65644,-5.51917 -15.33042,-15.09136 -19.4372,-21.53025 -4.10675,-6.439 -8.19906,-11.74385 -8.98513,-11.74385 -2.88413,0 -7.28716,19.46222 -8.435,37.36656 -1.99477,31.12253 -8.57546,20.47432 -8.25165,-13.34521 0.11559,-12.03772 -0.57389,-19.57295 -2.01707,-19.57295 -1.28631,-6e-5 -7.20077,4.93765 -13.01926,11.03209 -5.81905,6.09438 -11.04447,10.46594 -11.73568,9.78645 -2.96784,-2.91876 4.0055,-14.55892 14.48624,-24.1993 6.22493,-5.72597 10.8756,-10.96933 10.2687,-11.5658 -0.60631,-0.59675 -7.27086,-1.63697 -14.85295,-2.31317 -8.76016,-0.78104 -13.75272,-2.34088 -13.75272,-4.09252 0,-2.89018 9.69241,-5.51605 20.35403,-5.51605 11.1697,-5e-5 11.8482,-9.10401 2.20044,-30.24911 -3.77014,-8.26304 -8.85722,-24.0631 -11.36893,-35.23127 -8.18785,-36.40908 -2.05431,-65.05153 20.53742,-95.01779 l 11.73567,-15.65838 -0.91685,-21.35231 c -0.74976,-20.39695 -0.94135,-21.66378 -6.96805,-25.97864 -4.73938,-3.39317 -5.67302,-5.13679 -3.85077,-7.2954 3.37319,-3.99749 10.3194,-1.72392 14.66959,4.80428 2.00762,3.01345 4.22521,12.48651 4.95099,20.99643 0.72522,8.50992 2.1062,15.48043 3.11728,15.48043 3.66628,-5e-5 18.66245,-11.18682 36.67398,-27.58005 l 18.33696,-16.72602 -2.75054,-17.08185 c -1.5381,-9.3737 -2.342,-17.46919 -1.65034,-18.14943 1.6849,-1.6573 12.83591,5.42436 12.83591,8.18504 0,1.19824 0.95323,2.13523 2.20044,2.13523 3.97893,-1.1e-4 2.53337,-7.29522 -2.56717,-12.63344 -2.71161,-2.83891 -3.94114,-5.16017 -2.56717,-5.16017 1.37339,1.2e-4 5.66215,3.78301 9.35186,8.1851 8.41954,10.04436 11.0879,6.55546 3.484,-4.4484 -3.17912,-4.60094 -4.14461,-7.38587 -3.11727,-8.00716 z m 9.53523,34.16369 c -1.87189,-0.0115 -3.59745,1.30881 -6.41796,3.91458 -5.1959,4.80001 -7.09665,12.82328 -3.85073,16.01426 2.24876,2.21162 9.50569,1.90943 14.48621,-0.71176 6.12885,-3.22522 5.89446,-14.4983 -0.36674,-17.79361 -1.47331,-0.77527 -2.72692,-1.41752 -3.85079,-1.42347 z m -128.90902,68.86126 c 6.61964,-0.19226 8.81484,6.7278 1.65034,10.49816 -5.16637,2.71905 -5.71237,2.84578 -7.70153,0.88976 -3.11864,-3.06645 -1.4185,-9.49564 2.93394,-10.85415 1.11378,-0.34757 2.17207,-0.50634 3.11725,-0.53406 z m 42.90856,11.38792 c -0.3243,0.0462 -0.62148,0.17667 -0.91685,0.35565 -1.18135,0.718 -1.64768,2.219 -0.91684,3.38076 0.73024,1.16181 2.30268,1.42976 3.48403,0.71182 1.18131,-0.718 1.64708,-2.21895 0.91685,-3.38088 -0.54768,-0.87134 -1.59465,-1.21394 -2.56719,-1.06753 z m 210.50857,8.18498 c -2.64457,6e-5 -5.30658,6.46701 -3.66735,9.07474 2.47032,3.93035 5.68446,1.95198 5.68446,-3.55869 0,-3.06599 -0.90385,-5.51605 -2.01711,-5.51605 z m -16.13654,8.71886 c -1.24726,-1.1e-4 -2.20041,1.08664 -2.20041,2.31317 0,1.22654 0.95315,2.31323 2.20041,2.31323 1.2472,0 2.20047,-1.08681 2.20047,-2.31323 0,-1.22641 -0.95327,-2.31317 -2.20047,-2.31317 z m 24.57158,0 c -1.11216,-1.1e-4 -1.83368,3.99091 -1.83368,8.89681 0,4.90607 -1.13664,9.07474 -2.38384,9.07474 -1.2472,-6e-5 -2.20041,1.13335 -2.20041,2.49106 0,1.35765 1.36925,1.90544 3.11725,1.24558 4.66116,-1.75874 6.24674,15.9761 1.65037,18.50537 -2.90641,1.59939 -3.07003,3.14456 -0.36662,11.56586 1.71387,5.33753 4.14252,10.92245 5.31766,12.4555 1.17527,1.53322 3.62752,2.84694 5.50115,2.84694 2.6373,-6e-5 3.16541,-1.86498 2.01705,-7.47328 -0.81569,-3.986 -2.45595,-16.49433 -3.66741,-27.93594 -2.56981,-24.26471 -4.36105,-31.67264 -7.15141,-31.67264 z m -12.10239,13.34521 c -0.88884,0.35565 -0.83353,5.02599 0,16.72602 0.78271,10.98556 1.95584,20.91352 2.5672,21.88607 2.95104,4.69557 3.69265,0.13221 2.56715,-16.0142 -0.6755,-9.69996 -2.40428,-19.44998 -3.85078,-21.70819 -0.51385,-0.802 -0.98716,-1.00823 -1.28357,-0.8897 z m -10.45209,6.76157 c -0.9162,6e-5 -1.05962,2.19614 -0.36662,4.80429 0.81563,3.06558 0.0346,5.43054 -2.38384,6.76157 -3.80984,2.09666 -4.84695,10.17795 -2.38378,19.21702 0.93283,3.42371 3.09716,4.98222 6.78467,4.98222 4.46232,0 5.31772,-1.02307 5.31772,-6.40569 0,-8.72828 -4.87841,-29.35941 -6.96803,-29.35941 z m -200.42326,1.42347 c -3.16607,-0.0404 -8.06827,2.80941 -8.06827,5.51605 0,1.18305 1.37458,2.15393 2.93391,2.13523 4.79064,-0.0577 9.16623,-3.96204 7.51816,-6.58364 -0.44941,-0.71563 -1.32863,-1.05413 -2.3838,-1.06764 z m 169.43377,8.71886 c -0.52707,-0.052 -1.13366,0.0918 -1.83372,0.35565 -3.81087,1.43831 -3.761,1.88183 0.55011,25.26689 0.79105,4.29269 2.4969,8.57545 3.8508,9.43063 1.35384,0.85523 3.09428,0.49132 3.85073,-0.71177 0.75541,-1.20332 3.0508,-1.49777 5.13435,-0.7117 2.13154,0.80454 3.85073,0.32216 3.85073,-1.06765 0,-1.35793 1.42993,-2.66905 3.30073,-2.66905 4.88777,0 4.261,-7.96824 -0.73353,-9.25268 -2.4989,-0.64237 -4.99319,-4.22191 -6.05119,-8.71881 -1.18629,-5.04412 -2.07998,-6.16776 -2.75052,-3.55876 -1.5409,5.99173 -4.36659,4.53761 -5.86789,-2.84693 -0.76314,-3.74969 -1.71843,-5.36241 -3.3006,-5.51605 z m -167.4167,1.06765 c -2.09746,1.1e-4 -14.48622,6.87981 -14.48622,8.0071 1e-5,1.4308 4.4479,1.27497 10.63545,-0.35565 4.32005,-1.13855 7.5863,-7.65128 3.85077,-7.65128 z m -0.18337,12.4555 c -1.06578,0.006 -2.83632,0.70368 -5.86783,1.95729 -4.01245,1.65885 -7.72856,4.32837 -8.25164,5.87193 -0.66384,1.95954 0.31321,2.27085 3.30065,1.06758 2.35265,-0.94778 6.25269,-2.22968 8.43502,-2.84693 2.18289,-0.61719 3.85076,-2.63314 3.85076,-4.27052 3e-5,-1.23745 -0.40115,-1.78512 -1.46696,-1.77935 z m 146.51249,5.69393 c -0.90104,0.25057 -1.45558,3.22424 -0.91682,9.0748 0.75989,8.24376 0.70161,8.83549 -0.91683,2.84694 -2.70718,-10.01584 -4.58373,-12.186 -9.90201,-11.38792 -6.03897,0.90627 -6.80853,11.62024 -2.56718,33.45199 1.64079,8.44623 2.24968,16.37042 1.46698,17.61566 -0.78223,1.24512 0.33539,3.50934 2.38381,4.98217 5.20771,3.74466 9.68351,35.8304 5.68444,40.56938 -4.17985,4.95237 -0.28781,6.29293 24.20485,9.25268 27.64982,3.34127 28.68836,3.67943 26.58858,11.03204 -0.92665,3.24479 -1.65759,14.03162 -1.65025,23.84342 0.0115,16.23001 0.76822,19.30396 8.61828,34.51957 4.74609,9.19853 10.83995,18.55502 13.5694,20.64054 6.48681,4.9559 8.00923,0.65414 2.0171,-5.69393 -13.29174,-14.08225 -21.78399,-47.48158 -17.60348,-69.39496 2.54244,-13.32645 5.86782,-8.79029 5.86782,8.18498 0,22.54633 11.69767,60.84192 21.08748,68.50532 4.85826,3.96475 4.87097,1.73004 -0.55022,-8.71881 -6.3908,-12.31895 -11.85038,-37.67804 -12.28576,-57.65122 -0.5098,-23.35267 3.87312,-24.61702 5.50103,-1.60147 0.69398,9.81186 2.40538,21.33008 3.85079,25.62283 1.4454,4.29274 3.1602,10.68406 3.85072,14.05691 0.69069,3.37279 2.29106,6.04981 3.48405,6.04981 1.30869,0 1.34737,-1.95441 0.1836,-4.98217 -3.2258,-8.38769 -7.76063,-52.0801 -6.41794,-61.92174 1.174,-8.61113 0.91222,-9.11216 -3.66735,-8.00716 -2.70277,0.65212 -9.89603,1.69124 -16.13654,2.49111 l -11.36893,1.42347 -4.40088,-16.19214 c -2.41796,-9.00997 -4.6984,-14.75684 -5.13436,-12.81133 -0.68284,3.0441 0.39434,9.12272 4.21746,24.19924 0.52424,2.06803 -0.46419,3.15848 -2.56721,2.66906 -1.8708,-0.43591 -4.98141,-1.13872 -6.78466,-1.42347 -1.80331,-0.28464 -3.56569,-1.46533 -4.03409,-2.84705 -0.62973,-1.85862 -1.93738,-2.02848 -4.95103,-0.17783 -5.58901,3.43237 -11.60136,0.80097 -11.91903,-5.33805 -0.19538,-3.77722 -0.51367,-4.14269 -1.28356,-1.24558 -0.57002,2.14637 -1.92395,3.91458 -2.93396,3.91458 -3.09008,6e-5 -4.55182,-9.13202 -4.58424,-28.46976 -0.0242,-14.27787 -0.6901,-18.7657 -3.30064,-19.75084 -5.87817,-2.2182 -11.21764,-36.65486 -5.68449,-36.65486 1.23835,0 2.20044,4.06325 2.20044,8.8968 0,4.83356 1.13665,9.38444 2.38381,10.14239 1.24727,0.7579 2.20044,-0.49941 2.20044,-3.02493 0,-5.90842 4.50103,-6.07441 4.95103,-0.17783 0.18701,2.45289 0.42551,5.58435 0.55011,7.11746 0.12448,1.53305 -1.19182,2.61969 -2.75054,2.31317 -1.55935,-0.30658 -2.75059,1.00719 -2.75059,2.84693 0,4.04766 3.68285,4.42606 5.1344,0.53406 0.78552,-2.10741 1.74934,-2.11786 3.85073,-0.17783 2.16341,1.9973 1.69394,2.75618 -2.01702,3.91458 -3.80028,1.18595 -4.46642,2.72731 -3.30069,7.29545 1.43317,5.61443 2.35444,10.92788 2.9339,19.21702 0.1899,2.71241 1.43934,3.86562 3.66742,3.02494 2.56585,-0.96811 3.31371,0.27944 3.484,5.69398 0.12453,3.94743 1.20224,9.74506 2.20044,12.81133 l 1.83371,5.69399 0.36673,-6.04987 c 0.24007,-6.37879 4.76762,-11.27914 4.76762,-5.16011 0,2.01803 1.01271,2.96858 2.3838,2.13523 1.37895,-0.83803 1.72248,-3.95973 0.91684,-7.11745 -1.14109,-4.47075 -0.60051,-5.3272 2.20047,-4.27041 2.75346,1.03913 3.48399,-0.45264 3.48399,-6.40575 0,-4.18149 0.83889,-7.93614 1.83373,-8.54092 3.15548,-1.91774 7.54874,2.11329 8.25167,7.65122 1.40355,11.06327 4.0726,23.45659 6.05114,27.22423 3.62382,6.90153 6.1811,4.02763 3.85078,-4.27046 -3.07672,-10.95853 -0.70068,-12.05897 3.66742,-1.7794 4.95589,11.66267 6.03537,8.84489 2.20047,-5.69393 -2.87638,-10.903 -4.69378,-51.20628 -2.20047,-48.75443 0.55021,0.54156 1.20459,8.90558 1.46694,18.68326 0.53521,19.87814 2.14574,28.31711 5.86788,29.5374 1.66423,0.5456 2.23979,-2.53678 1.65026,-8.8968 -0.8251,-8.90448 -0.71864,-8.96389 1.10026,-2.13529 2.98065,11.19502 5.05353,11.40789 4.40089,0.53405 -0.43129,-7.19164 -1.7607,-9.90296 -4.76762,-10.67615 -3.42574,-0.88087 -4.03415,-3.67607 -4.03415,-16.72596 0,-13.47078 0.64692,-15.40994 4.03415,-14.76868 4.22895,0.80108 5.9785,8.22938 8.43497,33.45193 1.17798,12.09754 2.29649,14.91803 5.86789,15.83632 2.90704,0.74756 4.40083,3.10022 4.40083,6.93951 0,3.18094 0.99207,5.69393 2.38384,5.69393 1.47,0 2.27223,-2.14123 1.65031,-5.33805 -0.58844,-3.0292 -0.33371,-5.09694 0.73347,-4.4484 1.06741,0.64831 2.0171,2.68112 2.0171,4.4484 0,1.76746 1.02717,3.20282 2.38378,3.20282 1.56267,-6e-5 2.08027,-3.06639 1.28358,-8.36298 -0.69167,-4.59927 -1.95221,-17.01528 -2.75052,-27.58006 -0.79888,-10.56518 -2.38984,-20.72027 -3.48404,-22.41995 -1.65701,-2.57275 -1.90314,-2.42841 -2.01705,0.35565 -0.0756,1.83986 -1.54067,0.43186 -3.11731,-3.20287 -3.88791,-8.96395 -6.25443,-3.98242 -4.03409,8.1851 0.97584,5.34844 1.10361,12.51266 0.36662,16.19219 -0.96136,4.80279 -1.73836,1.85562 -2.75058,-10.49827 -1.58778,-19.38404 -3.05276,-23.06791 -7.33477,-19.57295 -1.56319,1.27532 -3.39687,1.69684 -4.21752,0.8897 -0.82071,-0.80697 -1.46255,-0.13625 -1.467,1.60141 -0.004,1.73755 -2.40266,-0.51154 -5.1343,-4.80423 -3.85061,-6.05189 -5.01617,-6.76249 -5.68451,-3.73669 -0.47286,2.14614 -1.77878,3.73669 -2.93389,3.73669 -1.15621,-1.1e-4 -2.16248,2.40053 -2.20047,5.16011 -0.06,4.4025 -0.40184,4.58864 -2.38378,1.24559 -1.33052,-2.24453 -3.58139,-3.28509 -5.68446,-2.49112 -1.96353,0.74087 -4.66526,-0.0675 -5.86783,-1.7794 -1.58721,-2.25798 -1.74286,-1.76232 -0.73347,1.7794 1.00656,3.5296 0.0577,5.52789 -3.30068,7.29534 -2.55474,1.34426 -4.58426,3.89732 -4.58426,5.69393 6e-5,1.79644 -1.61319,3.20287 -3.48398,3.20287 -1.87086,-5e-5 -3.30069,1.0867 -3.30069,2.31318 5e-5,1.22636 -1.2956,2.13517 -2.75054,2.13517 -1.45489,0 -2.10427,-0.61656 -1.28356,-1.42347 0.82014,-0.80714 0.50756,-2.62229 -0.73351,-4.09246 -2.17061,-2.57183 -5.35411,-15.33529 -8.25161,-32.91816 -0.94523,-5.73758 -2.21565,-8.25762 -3.11733,-8.00716 z m -147.24597,4.4484 c -1.56599,0.32274 -3.94168,1.98212 -7.88491,5.16017 -7.14277,5.75772 -5.57652,7.22022 4.21752,3.55869 3.19896,-1.19628 5.86783,-3.82393 5.86783,-5.69393 3e-5,-2.36478 -0.635,-3.34779 -2.20044,-3.02493 z m 117.90684,6.40569 c -1.293,0.052 -2.20044,2.01278 -2.20044,5.51605 -6e-5,3.06621 -0.99901,5.51604 -2.20045,5.51604 -1.202,-1.1e-4 -2.1315,4.71318 -2.01707,10.32028 0.15069,7.39591 1.32134,10.92008 4.40088,12.81132 4.43837,2.72575 5.94071,10.32027 2.01708,10.32027 -2.80767,6e-5 -3.10184,7.44014 -0.36679,10.32033 1.10658,1.16516 2.56238,7.71635 3.11732,14.76868 0.99595,12.64851 1.00707,12.81138 -4.95098,12.81138 -9.21463,0 -13.06051,-8.1228 -8.0683,-17.61567 2.59769,-4.94031 3.4317,-9.54078 2.38381,-14.23485 -0.8525,-3.8162 -2.00165,-12.88396 -2.56718,-20.10678 -1.26679,-16.18717 -3.79233,-21.63065 -9.71858,-20.10672 -4.66511,1.19969 -4.7523,1.87785 -1.28362,33.98575 0.58177,5.39197 -0.0139,11.12938 -1.28356,12.63344 -3.04493,3.60847 1.4235,24.15918 6.05117,27.93594 1.87189,1.52757 8.80211,3.18146 15.58645,3.38076 6.78434,0.19919 13.09536,0.95269 13.9361,1.77935 3.49097,3.43306 4.64823,-2.73839 2.75055,-14.23485 -1.11436,-6.74576 -1.60433,-16.42153 -1.1002,-21.53025 0.56944,-5.76379 -0.24364,-10.80658 -2.20044,-13.34515 -2.02381,-2.62667 -3.07148,-3.11968 -3.11727,-1.24558 -0.0398,1.60556 -1.13658,2.35942 -2.3838,1.60141 -1.24722,-0.75795 -2.20045,-8.76783 -2.20045,-17.79361 -5e-5,-9.02596 -0.7099,-17.98881 -1.46697,-19.92878 -0.92679,-2.3753 -2.11176,-3.59756 -3.11727,-3.55876 z m -257.63468,4.4484 c -7.02271,6e-5 -11.4005,1.47214 -16.50328,5.69393 -10.049202,8.31547 -9.672247,18.32385 1.28358,30.24917 7.83227,8.52528 8.89536,8.84363 17.60354,7.47328 5.0888,-0.80056 11.54236,-3.77602 14.48623,-6.58363 4.78621,-4.56526 5.11051,-6.23116 3.66736,-16.54803 -2.05954,-14.7256 -7.52542,-20.28472 -20.53743,-20.28472 z m 139.72784,4.44841 c -2.26667,-0.0768 -6.0364,1.58247 -9.53523,4.4484 -2.94441,2.41207 -4.59999,4.4077 -3.85076,4.4484 3.60712,0.1963 15.58643,-5.1675 15.58643,-6.93951 3e-5,-1.29195 -0.84097,-1.91116 -2.20044,-1.95729 z m 356.83766,0 c -2.7579,-6e-5 -7.55612,3.12672 -10.81876,6.93951 -9.39379,10.97817 -7.6683,30.1953 3.11726,33.98575 11.01945,3.87284 22.75562,-1.16043 27.13878,-11.5658 4.85094,-11.5173 -6.95949,-29.35946 -19.43728,-29.35946 z m -256.71771,9.7865 c 1.04737,-0.31119 1.8337,0.63994 1.8337,2.31312 0,3.91689 -1.35669,4.51647 -3.30069,1.42352 -0.71733,-1.14172 -0.16708,-2.78851 1.10026,-3.5587 0.15854,-0.0964 0.21708,-0.13337 0.36673,-0.17782 z m -100.85343,1.42347 c -3.39103,-6e-5 -8.43501,4.49251 -8.43501,7.47334 0,1.11221 1.6944,1.27814 3.6674,0.53405 1.97295,-0.74461 4.53885,-1.24558 5.68446,-1.24558 1.14501,0 2.01707,-1.71902 2.01707,-3.5587 3e-5,-1.83986 -1.31211,-3.20288 -2.93392,-3.20288 z m 191.80486,1.06765 2.01704,12.27756 c 1.14617,6.74558 1.82317,17.17722 1.467,23.30959 l -0.55022,11.20992 -1.83373,-10.85404 c -0.93572,-5.99669 -1.61273,-16.60645 -1.46695,-23.48759 l 0.36662,-12.45544 z m -13.01924,5.33804 c 0.12125,0.0115 0.2246,0.35681 0.36662,0.88971 0.56754,2.13199 0.54214,5.94496 0,8.7188 -0.54271,2.77402 -0.89172,1.16926 -0.91683,-3.73664 -0.0173,-3.67948 0.18706,-5.90304 0.55021,-5.87187 z M 264.4193,355.1601 c -2.41853,-0.14145 -7.51816,4.03028 -7.51816,6.58369 0,1.07625 1.73091,1.95729 3.85076,1.95729 2.99856,-1.2e-4 3.21673,0.58786 1.10023,2.66905 -1.49624,1.47174 -2.75055,3.28913 -2.75055,4.27046 0,2.21087 2.66267,2.34632 5.86783,0.17783 2.56756,-1.73691 2.66999,-12.857 0.18337,-15.3025 -0.21212,-0.209 -0.38787,-0.33544 -0.73349,-0.35565 z m 183.91996,0 c 0.15474,-0.0577 0.17841,-0.006 0.36662,0.17782 0.75432,0.74104 0.83878,2.48269 0.1836,4.09253 -0.72354,1.77865 -1.17474,1.35233 -1.28363,-1.24559 -0.0745,-1.76278 0.26963,-2.85698 0.73353,-3.02493 z m -16.31989,4.27052 c 0.30433,-0.071 0.86425,0.5277 1.65029,1.24553 1.57838,1.44113 2.3585,6.02983 1.83368,11.03203 -0.51327,4.89862 -1.05021,6.17983 -1.28357,3.02493 -0.22748,-3.06615 -1.05766,-7.96587 -1.83367,-11.03203 -0.6772,-2.67517 -0.87311,-4.15199 -0.36673,-4.27046 z m 61.79558,3.73664 c 0.3799,-0.14319 0.75662,1.67104 1.28363,5.51604 0.63088,4.59915 0.77926,8.36299 0.36662,8.36299 -1.76595,-6e-5 -2.97875,-6.79218 -2.20047,-11.56586 0.23325,-1.4289 0.32158,-2.22732 0.55022,-2.31317 z m -68.58027,1.42347 c 0.0835,-0.14896 0.24959,-0.0785 0.36674,0 0.28082,0.18879 0.71693,0.91089 1.28355,2.31322 0.99043,2.45295 2.28631,9.29876 2.93396,15.12456 0.64869,5.82568 0.38053,10.49815 -0.55016,10.49815 -1.97746,0 -4.5717,-13.66327 -4.40089,-23.30959 0.0468,-2.6291 0.11617,-4.17895 0.3668,-4.62634 z m -112.95585,5.69398 c -5.38585,0 -8.21158,6.57907 -7.15142,16.1922 2.18626,19.83358 7.67403,32.92804 17.78686,43.06049 11.17808,11.20057 10.61929,16.07581 -0.73346,6.4057 -11.88544,-10.12432 -22.44512,-23.57824 -23.83809,-30.42705 -1.47109,-7.23206 -5.31772,-8.52037 -5.31772,-1.77941 -10e-6,13.99421 18.67819,37.02483 35.9405,44.30608 5.89556,2.48678 17.38146,5.56217 25.48841,7.11739 19.60263,3.7613 23.40953,7.63656 5.68444,5.69399 -25.14195,-2.75537 -39.72294,-9.02856 -55.56105,-23.66548 -7.9266,-7.32565 -15.01896,-13.3452 -15.40307,-13.3452 -2.74563,1.1e-4 0.83117,5.58175 9.71861,15.30249 9.80133,10.71998 23.03861,18.51357 38.50764,22.77584 10.63818,2.93076 61.7054,0.72758 77.01537,-3.38082 7.4833,-2.00827 17.51092,-4.67501 22.18776,-5.87187 4.938,-1.26371 8.61834,-3.62359 8.61834,-5.51605 0,-1.79228 -0.23844,-3.39392 -0.55022,-3.38075 -0.31177,0.0115 -5.61292,1.73241 -11.73565,3.55869 -14.70147,4.38571 -53.2243,4.24703 -70.78077,-0.17782 -17.71117,-4.4637 -22.59568,-8.26714 -35.94046,-27.58006 -10.88442,-15.75144 -11.00222,-16.37095 -11.00222,-32.56234 -10e-6,-11.49634 -1.03074,-16.7259 -2.93391,-16.7259 z m 76.09851,0 c 1.24722,0 2.20045,1.08676 2.20045,2.31317 0,1.22642 -0.95323,2.13523 -2.20045,2.13523 -1.24722,0 -2.20044,-0.90875 -2.20044,-2.13523 -6e-5,-1.22647 0.95322,-2.31317 2.20044,-2.31317 z m 30.43939,0 c 0.54998,0 1.61285,1.08676 2.3838,2.31317 0.77043,1.22642 0.40403,2.13523 -0.91688,2.13523 -1.32088,0 -2.56717,-0.90875 -2.56717,-2.13523 0,-1.22647 0.54976,-2.31317 1.10025,-2.31317 z m 70.2306,7.1174 c 0.15473,-0.0577 0.362,-0.006 0.55021,0.17782 0.75368,0.74092 0.83821,2.66063 0.1836,4.27041 -0.72417,1.77883 -1.35805,1.35228 -1.46694,-1.24553 -0.0739,-1.76289 0.26905,-3.03475 0.73341,-3.20287 z m -99.75316,4.4484 c 0.15462,-0.0577 0.17863,-0.006 0.36674,0.17783 0.75367,0.74097 0.83879,2.83862 0.18336,4.4484 -0.72355,1.77877 -1.17471,1.17428 -1.28355,-1.42359 -0.0743,-1.76306 0.26956,-3.0348 0.73346,-3.20281 z m -341.434647,9.0748 c 1.099803,-0.36027 2.646016,2.89988 3.483988,7.29534 0.83855,4.39557 6.188549,17.08543 11.735715,28.29182 5.54601,11.20657 10.268713,21.68752 10.268713,23.30954 0,5.13326 -3.902224,3.28492 -10.452081,-5.16011 -5.697393,-7.34476 -6.721332,-7.75416 -8.251668,-3.91458 -0.937335,2.35134 -1.746036,9.15702 -1.833678,15.3025 -0.137988,9.67254 1.434899,13.38562 10.268714,26.33453 13.833243,20.27675 13.833243,29.32257 0,15.12455 -3.584795,-3.67936 -7.604569,-6.76157 -8.618404,-6.76157 -1.013834,6e-5 -1.687145,6.84581 -1.65031,15.12455 l 0,14.94662 14.852967,15.48043 c 13.994037,14.83519 17.599328,21.35225 12.102392,21.35225 -1.379531,-5e-5 -6.277981,-3.08209 -11.002185,-6.76151 -8.39618,-6.53895 -13.58833,-8.33741 -13.936128,-4.98223 -0.09526,0.91996 -0.501721,3.38775 -0.916839,5.51605 -0.41916,2.14961 5.453865,11.55512 13.019289,21.17436 10.322119,13.12518 12.671028,17.59806 9.90192,18.14949 -2.008674,0.40011 -6.817345,-1.82265 -10.635449,-4.98222 -8.737223,-7.22923 -10.767202,-7.38558 -12.652496,0 -1.882061,7.37449 2.865815,25.42191 9.901978,38.43415 6.164011,11.4005 6.617119,16.01426 1.833679,16.01426 -1.870803,6e-5 -3.300621,-1.08681 -3.300621,-2.31317 0,-1.22648 -1.796612,-2.31323 -3.667415,-2.31323 -5.593527,-1.2e-4 -4.171906,21.57447 2.56715,40.56944 3.211881,9.05263 6.485424,19.6793 7.151461,23.66547 0.698945,4.18144 0.221704,7.11746 -1.100207,7.11746 -1.94684,0 -11.919082,-13.95749 -11.919082,-16.72602 0,-0.51269 -3.122565,-7.75803 -6.968035,-16.0142 -5.285278,-11.34773 -6.688596,-16.39999 -5.501093,-21.53025 1.480568,-6.39853 2.114042,-88.27752 1.100207,-139.67969 -0.768805,-38.95978 2.083153,-121.36439 4.217518,-122.06403 z m 391.494597,4.44835 c -1.24165,0.39953 -1.23051,4.10331 0.36663,9.96439 0.75206,2.75952 2.04845,5.16022 2.93394,5.16022 2.22807,-6e-5 0.0901,-13.26513 -2.38384,-14.76873 -0.43359,-0.26385 -0.63041,-0.44803 -0.91684,-0.35565 z m 61.06218,19.57301 c 3.87394,0 5.06629,3.4624 7.15141,21.17431 2.30855,19.61291 10.92095,52.24476 16.50333,62.45551 2.67246,4.88765 4.76762,9.51336 4.76762,10.32033 0,2.90121 -6.536,3.8431 -8.6184,1.24553 -12.8451,-16.02362 -29.29994,-95.19568 -19.80396,-95.19568 z m -222.97774,18.50531 c -4.77835,1.01378 25.82287,30.96723 37.77419,37.01063 4.7834,2.41894 11.55622,7.41808 15.21967,11.20997 12.23497,12.66451 31.59129,7.50313 24.02149,-6.40569 -1.75303,-3.221 -4.73721,-4.62634 -10.26874,-4.62634 -14.47083,1.2e-4 -32.88832,-9.01533 -48.59299,-24.02136 -8.33417,-7.96391 -16.11193,-13.60034 -18.15362,-13.16721 z m 215.45955,60.14234 c -0.0115,0.1045 0.0693,0.30369 0.1836,0.53406 0.60697,1.22647 1.97259,4.13056 2.93394,6.58369 1.23161,3.14259 1.95215,3.54184 2.75057,1.42346 0.62303,-1.6536 -0.55945,-4.55769 -2.75057,-6.58363 -1.36943,-1.26602 -2.32622,-1.88702 -2.75058,-1.95729 -0.12701,-0.0231 -0.35218,-0.1045 -0.36662,0 z m -89.3011,4.27041 c -0.48631,0.0462 -0.93918,0.19514 -1.28356,0.53405 -0.76657,0.75397 0.10017,3.70188 1.83365,6.40569 4.01578,6.26418 8.11835,14.26078 11.18557,22.06407 2.70377,6.87849 5.32664,7.79406 9.35186,3.02493 2.20303,-2.61033 1.1257,-5.6131 -4.76761,-15.30249 -6.28804,-10.33771 -12.91544,-17.03918 -16.31991,-16.72602 z m 41.80831,19.75089 c -3.33128,-0.17667 -4.67877,2.28223 -1.83368,6.76158 2.97401,4.68338 5.58077,5.27765 10.63545,2.13523 2.90866,-1.8081 2.78048,-2.63193 -1.1002,-5.51599 -2.99359,-2.22432 -5.70288,-3.27487 -7.70157,-3.38082 z m -333.183,78.29183 c 2.45364,-0.18475 5.6198,1.26377 10.63545,4.27052 l 7.70157,4.62628 -1.467,17.79361 c -0.88543,11.28613 -0.48267,17.39881 0.91684,16.54802 1.21209,-0.73647 2.20047,-3.31817 2.20047,-5.51604 0,-3.28607 9.4767,-23.64441 12.46913,-26.69035 0.46361,-0.4717 3.91971,0.41685 7.70156,1.95728 5.04469,2.05493 6.95429,4.41798 7.1514,8.71887 0.36027,7.86114 0.39953,7.01503 -1.28357,15.83632 -1.27232,6.66798 -1.04594,7.26144 1.46694,4.09246 1.61792,-2.03991 4.13328,-5.42356 5.50109,-7.65122 2.31693,-3.77619 2.86813,-3.69692 9.53525,2.49111 8.0706,7.4902 9.31452,15.11936 3.30067,21.70825 -3.89466,4.26642 -3.66828,4.3439 7.51814,2.84693 l 11.36892,-1.42347 2.56721,9.60851 c 1.42699,5.25768 2.15896,10.22236 1.65031,11.03204 -0.50923,0.80985 -5.46535,3.58381 -11.18555,6.22775 -13.1589,6.08301 -21.88682,7.7235 -26.22189,4.80428 -3.02372,-2.03598 -3.02372,-2.67436 0,-4.62634 1.87074,-1.20765 4.86167,-2.11658 6.6013,-2.13523 4.03756,-0.0462 23.09903,-11.78167 23.10463,-14.23485 0.006,-2.58355 -12.49712,0.0878 -28.78909,6.40569 -13.19573,5.11715 -18.88712,6.54235 -18.88712,4.4484 6e-5,-0.53347 0.98393,-3.61562 2.20047,-6.76157 1.21649,-3.14595 1.24801,-5.51605 0.1836,-5.51605 -1.06522,-1.1e-4 -3.08082,-3.01546 -4.58425,-6.58363 -2.15671,-5.1201 -2.26947,-7.62414 0,-11.7438 3.20738,-5.82198 6.70967,-24.19924 4.58425,-24.19924 -2.82499,6e-5 -6.59887,8.68774 -8.0683,18.32737 -2.09071,13.70819 -4.82784,17.55204 -8.80171,12.45556 -3.39104,-4.34927 -5.86789,-3.09941 -5.86789,3.02494 0,2.24839 -1.13658,4.09246 -2.38378,4.09246 -1.2472,1.1e-4 -2.37373,-1.13589 -2.38378,-2.669 -0.17725,-25.86063 -1.4185,-50.82591 -2.75058,-52.13523 -4.92131,-4.83985 -6.76295,4.95428 -6.41793,33.62992 0.30023,25.02157 -0.22401,30.07111 -2.93394,30.07111 -7.38893,0 -9.875651,-57.19777 -2.93389,-67.61567 2.37386,-3.56274 4.14709,-5.33129 6.6013,-5.51599 z m -27.50546,41.81497 c 0.868688,-0.0872 2.055325,0.67031 3.850725,1.77935 5.879952,3.63156 11.598365,20.20625 11.735715,34.51957 0.0681,7.05238 1.00881,12.98926 2.01704,12.98926 2.93152,1.2e-4 8.29428,-5.11386 12.46913,-11.74374 2.5302,-4.0174 5.67274,-6.22775 9.35188,-6.22775 4.85769,0 5.68446,1.19998 5.68446,7.65128 6e-5,4.62721 -1.58709,8.88404 -4.40089,11.38786 -7.03501,6.26129 -5.65686,7.82916 7.5182,7.82916 18.8004,0 26.13777,2.12345 34.47355,10.32033 7.40625,7.28252 9.27001,14.10731 6.23457,21.88612 -1.89372,4.85175 -3.17332,4.25447 -11.00219,-4.62634 -10.9631,-12.43645 -35.40546,-14.8062 -55.74445,-5.33805 -7.756876,3.61072 -8.53388,3.59894 -13.386026,0 -4.96704,-3.68444 -4.977836,-4.52524 -2.56715,-20.46266 2.802595,-18.53169 0.628855,-39.88498 -5.134357,-51.24559 -2.773611,-5.4668 -3.011828,-8.52718 -1.100207,-8.7188 z m 87.46738,1.06758 c -0.82008,-0.0231 -2.54487,1.44414 -5.86783,4.80429 -3.61493,3.65609 -7.35723,9.03352 -8.25161,12.09962 -1.53195,5.25802 -1.12988,5.29059 6.6013,-1.95729 4.50873,-4.22653 8.25167,-9.78218 8.25167,-12.27756 0,-1.78403 -0.0953,-2.65093 -0.73353,-2.66906 z m 37.4075,52.66901 c 1.12324,1.7e-4 3.92347,1.99551 6.41793,4.4484 3.66406,3.60321 4.58425,7.42391 4.58425,19.92889 0,8.51287 -0.95327,15.96813 -2.20047,16.72597 -1.2472,0.75801 -2.38378,3.49132 -2.38378,5.87187 0,3.45708 1.56896,4.27046 7.88487,4.27046 7.51845,0 8.35376,-0.81869 15.95319,-15.65832 4.3965,-8.58538 9.03713,-15.4805 10.26872,-15.4805 3.33023,-5e-5 2.68448,8.83699 -1.46696,20.81855 -3.8187,11.02014 -3.06915,13.40617 5.13436,15.83631 3.66681,1.08624 7.91707,-1.40297 18.33698,-9.96444 13.43528,-11.03966 19.37102,-11.76522 13.93611,-1.77935 -1.48785,2.73423 -4.82473,6.54241 -7.33479,8.54092 -6.10101,4.85809 -2.99177,9.61163 4.95098,7.65128 3.28722,-0.81119 12.11639,-5.33505 19.4372,-10.14239 12.0892,-7.93846 19.62057,-10.97598 19.62057,-7.65122 0,3.85182 -5.4857,10.53164 -11.36892,13.52309 -11.03678,5.61263 -8.61753,8.43561 5.86785,6.76157 9.26985,-1.07151 15.27737,-3.37464 21.45425,-8.18504 10.68506,-8.32193 14.43714,-8.42187 12.46913,-0.71171 -1.22597,4.80429 -0.82163,5.60952 2.56723,4.62629 10.6148,-3.08007 33.17212,-6.09121 36.49055,-4.80423 2.04397,0.79254 12.50546,2.72933 23.1046,4.27041 22.09486,3.2128 33.39675,1.44471 39.42456,-5.87187 3.23307,-3.9248 4.90699,-4.3241 7.88487,-2.49112 5.26692,3.24179 5.99,12.70746 1.28364,16.54809 -4.91855,4.01417 -31.69721,3.9237 -56.47795,0 -16.19989,-2.5649 -21.6572,-2.15273 -50.61008,1.95729 -48.13345,6.83304 -79.39286,5.42615 -105.8044,-4.44841 -3.17444,-1.18692 -12.67222,-3.15536 -20.90416,-4.4484 l -14.85298,-2.31317 -15.2197,8.8968 c -14.44628,8.58365 -16.15975,9.07475 -33.92339,9.07475 -14.77953,-1.2e-4 -21.22685,-1.09588 -31.90635,-5.51605 -17.09484,-7.07554 -19.57411,-7.04765 -37.040708,1.06765 -7.764092,3.60725 -15.330555,6.46908 -17.053439,6.58357 -0.03464,0.002 -0.153576,0 -0.183599,0 -0.123554,0.006 -0.242489,-0.005 -0.36662,0 -3.724515,0.14665 -7.687823,-0.27078 -12.102392,-1.24553 l -1.283575,-0.71176 C 51.703781,760.98647 45.842303,756.44945 45.842303,752.4911 c 0,-4.37155 3.238094,-3.7916 12.652554,2.49112 10.63314,7.09534 18.748379,7.10995 33.373291,-0.17783 15.718652,-7.83251 26.949992,-8.82273 38.507652,-3.02487 7.10815,3.5662 13.81003,4.69989 29.8893,4.98216 19.74166,0.34641 21.47996,0.10335 30.80614,-6.22769 10.69682,-7.26191 21.12581,-25.39985 19.25385,-33.45199 -2.25214,-9.68991 -2.67413,-25.62282 -0.73347,-25.62282 z M 79.399135,727.4021 c 2.817722,-0.21016 6.002121,1.20171 9.351817,4.27046 5.707959,5.22939 5.70871,5.43845 2.567208,11.20998 -2.958943,5.43764 -10.807386,5.41449 -17.970221,0 -5.35404,-4.04651 -5.405424,-4.32872 -1.650368,-9.96439 2.32749,-3.49277 4.883901,-5.30566 7.701564,-5.51605 z"
     id="path9043" />
</svg>
