<?xml version="1.0" encoding="UTF-8" standalone="no"?>
<!-- Created with Inkscape (http://www.inkscape.org/) -->

<svg
   xmlns:dc="http://purl.org/dc/elements/1.1/"
   xmlns:cc="http://creativecommons.org/ns#"
   xmlns:rdf="http://www.w3.org/1999/02/22-rdf-syntax-ns#"
   xmlns:svg="http://www.w3.org/2000/svg"
   xmlns="http://www.w3.org/2000/svg"
   xmlns:sodipodi="http://sodipodi.sourceforge.net/DTD/sodipodi-0.dtd"
   xmlns:inkscape="http://www.inkscape.org/namespaces/inkscape"
   width="1000"
   height="1000"
   id="svg2"
   version="1.1"
   inkscape:version="0.47 r22583"
   sodipodi:docname="Q.svg">
  <defs
     id="defs4">
    <inkscape:perspective
       sodipodi:type="inkscape:persp3d"
       inkscape:vp_x="0 : 526.18109 : 1"
       inkscape:vp_y="0 : 1000 : 0"
       inkscape:vp_z="744.09448 : 526.18109 : 1"
       inkscape:persp3d-origin="372.04724 : 350.78739 : 1"
       id="perspective10" />
    <inkscape:perspective
       id="perspective2940"
       inkscape:persp3d-origin="0.5 : 0.33333333 : 1"
       inkscape:vp_z="1 : 0.5 : 1"
       inkscape:vp_y="0 : 1000 : 0"
       inkscape:vp_x="0 : 0.5 : 1"
       sodipodi:type="inkscape:persp3d" />
    <inkscape:perspective
       id="perspective2953"
       inkscape:persp3d-origin="0.5 : 0.33333333 : 1"
       inkscape:vp_z="1 : 0.5 : 1"
       inkscape:vp_y="0 : 1000 : 0"
       inkscape:vp_x="0 : 0.5 : 1"
       sodipodi:type="inkscape:persp3d" />
    <inkscape:perspective
       id="perspective2966"
       inkscape:persp3d-origin="0.5 : 0.33333333 : 1"
       inkscape:vp_z="1 : 0.5 : 1"
       inkscape:vp_y="0 : 1000 : 0"
       inkscape:vp_x="0 : 0.5 : 1"
       sodipodi:type="inkscape:persp3d" />
    <inkscape:perspective
       id="perspective2979"
       inkscape:persp3d-origin="0.5 : 0.33333333 : 1"
       inkscape:vp_z="1 : 0.5 : 1"
       inkscape:vp_y="0 : 1000 : 0"
       inkscape:vp_x="0 : 0.5 : 1"
       sodipodi:type="inkscape:persp3d" />
    <inkscape:perspective
       id="perspective2992"
       inkscape:persp3d-origin="0.5 : 0.33333333 : 1"
       inkscape:vp_z="1 : 0.5 : 1"
       inkscape:vp_y="0 : 1000 : 0"
       inkscape:vp_x="0 : 0.5 : 1"
       sodipodi:type="inkscape:persp3d" />
    <inkscape:perspective
       id="perspective3005"
       inkscape:persp3d-origin="0.5 : 0.33333333 : 1"
       inkscape:vp_z="1 : 0.5 : 1"
       inkscape:vp_y="0 : 1000 : 0"
       inkscape:vp_x="0 : 0.5 : 1"
       sodipodi:type="inkscape:persp3d" />
    <inkscape:perspective
       id="perspective3018"
       inkscape:persp3d-origin="0.5 : 0.33333333 : 1"
       inkscape:vp_z="1 : 0.5 : 1"
       inkscape:vp_y="0 : 1000 : 0"
       inkscape:vp_x="0 : 0.5 : 1"
       sodipodi:type="inkscape:persp3d" />
    <inkscape:perspective
       id="perspective3031"
       inkscape:persp3d-origin="0.5 : 0.33333333 : 1"
       inkscape:vp_z="1 : 0.5 : 1"
       inkscape:vp_y="0 : 1000 : 0"
       inkscape:vp_x="0 : 0.5 : 1"
       sodipodi:type="inkscape:persp3d" />
    <inkscape:perspective
       id="perspective3044"
       inkscape:persp3d-origin="0.5 : 0.33333333 : 1"
       inkscape:vp_z="1 : 0.5 : 1"
       inkscape:vp_y="0 : 1000 : 0"
       inkscape:vp_x="0 : 0.5 : 1"
       sodipodi:type="inkscape:persp3d" />
    <inkscape:perspective
       id="perspective3057"
       inkscape:persp3d-origin="0.5 : 0.33333333 : 1"
       inkscape:vp_z="1 : 0.5 : 1"
       inkscape:vp_y="0 : 1000 : 0"
       inkscape:vp_x="0 : 0.5 : 1"
       sodipodi:type="inkscape:persp3d" />
    <inkscape:perspective
       id="perspective3070"
       inkscape:persp3d-origin="0.5 : 0.33333333 : 1"
       inkscape:vp_z="1 : 0.5 : 1"
       inkscape:vp_y="0 : 1000 : 0"
       inkscape:vp_x="0 : 0.5 : 1"
       sodipodi:type="inkscape:persp3d" />
    <inkscape:perspective
       id="perspective3083"
       inkscape:persp3d-origin="0.5 : 0.33333333 : 1"
       inkscape:vp_z="1 : 0.5 : 1"
       inkscape:vp_y="0 : 1000 : 0"
       inkscape:vp_x="0 : 0.5 : 1"
       sodipodi:type="inkscape:persp3d" />
    <inkscape:perspective
       id="perspective3096"
       inkscape:persp3d-origin="0.5 : 0.33333333 : 1"
       inkscape:vp_z="1 : 0.5 : 1"
       inkscape:vp_y="0 : 1000 : 0"
       inkscape:vp_x="0 : 0.5 : 1"
       sodipodi:type="inkscape:persp3d" />
    <inkscape:perspective
       id="perspective3109"
       inkscape:persp3d-origin="0.5 : 0.33333333 : 1"
       inkscape:vp_z="1 : 0.5 : 1"
       inkscape:vp_y="0 : 1000 : 0"
       inkscape:vp_x="0 : 0.5 : 1"
       sodipodi:type="inkscape:persp3d" />
    <inkscape:perspective
       id="perspective3122"
       inkscape:persp3d-origin="0.5 : 0.33333333 : 1"
       inkscape:vp_z="1 : 0.5 : 1"
       inkscape:vp_y="0 : 1000 : 0"
       inkscape:vp_x="0 : 0.5 : 1"
       sodipodi:type="inkscape:persp3d" />
  </defs>
  <sodipodi:namedview
     id="base"
     pagecolor="#ffffff"
     bordercolor="#666666"
     borderopacity="1.0"
     inkscape:pageopacity="0.0"
     inkscape:pageshadow="2"
     inkscape:zoom="0.532"
     inkscape:cx="500"
     inkscape:cy="500"
     inkscape:document-units="px"
     inkscape:current-layer="svg2"
     showgrid="false"
     showborder="true"
     inkscape:showpageshadow="false"
     showguides="true"
     inkscape:guide-bbox="true"
     inkscape:window-width="1280"
     inkscape:window-height="750"
     inkscape:window-x="0"
     inkscape:window-y="26"
     inkscape:window-maximized="1">
    <sodipodi:guide
       orientation="0,1"
       position="0,200"
       id="guide2818" />
  </sodipodi:namedview>
  <metadata
     id="metadata7">
    <rdf:RDF>
      <cc:Work
         rdf:about="">
        <dc:format>image/svg+xml</dc:format>
        <dc:type
           rdf:resource="http://purl.org/dc/dcmitype/StillImage" />
        <dc:title></dc:title>
      </cc:Work>
    </rdf:RDF>
  </metadata>
  <g
     inkscape:label="Layer 1"
     inkscape:groupmode="layer"
     id="layer1" />
  <path
     style="fill:#800000"
     d="M 0,0 0,6.1192662 0,793.88073 0,800 l 6.1655123,0 724.8157277,0 6.16557,0 0,-6.11927 0,-787.7614638 L 737.14681,0 730.98124,0 6.1655123,0 0,0 z m 536.58478,12.418436 177.71316,0 c 5.18124,0.448027 6.99639,1.004482 7.79764,1.799845 1.46821,1.457128 2.31126,10.734986 2.72009,49.313822 l 0,304.881867 c -0.40704,192.88488 -1.14853,361.339 -1.63207,374.17319 -0.34872,9.25788 -0.32101,15.24932 -0.18129,19.97751 0.0173,0.64982 -0.0289,1.40199 0,1.97969 -0.10738,7.09806 0.86009,16.88861 -3.26413,22.67722 -0.40472,0.18245 -0.84178,0.34411 -1.26937,0.53983 l -248.073,0 C 420.73159,787.2262 360.93116,786.84486 304.10706,786.68153 92.115371,786.07265 18.871644,784.75541 12.331198,781.46218 l 0,-637.84025 C 12.598513,65.9369 13.144229,17.121509 13.963148,15.837934 16.393811,12.028722 40.947895,11.685715 211.0797,13.498205 c 54.80429,0.583821 191.43901,0.155885 303.56301,-0.899865 9.21163,-0.0866 13.53348,-0.102192 21.94213,-0.180135 z m 171.18484,9.358861 -142.53315,1.799787 c -78.36833,0.929022 -232.21711,1.801982 -341.82569,2.159711 L 24.118181,26.456698 23.755602,265.10681 C 23.496947,396.32006 22.84344,564.30479 22.486173,638.56016 l -0.543868,134.98314 31.371775,0.35969 c 17.242234,0.17841 131.5174,0.82019 254.05722,1.25985 122.53977,0.43937 262.71408,1.51977 311.36065,2.51975 48.64658,0.99969 89.43847,1.63732 90.66997,1.43975 1.23161,-0.19746 2.29948,-8.32696 2.53874,-17.99771 1.12082,-45.26829 2.34106,-277.63482 1.45072,-279.14512 -0.55368,-0.9389 -3.77174,0.052 -7.07219,2.33973 -3.30056,2.28828 -8.61725,4.95549 -11.9685,5.75928 -3.35184,0.80385 -7.16521,3.21777 -8.34162,5.39931 -2.49296,4.6223 -3.81614,35.26782 -1.63201,37.43532 0.81522,0.80899 5.86702,-1.56757 11.243,-5.39936 9.52167,-6.78623 12.69389,-7.22946 12.69389,-1.43981 0,3.42037 -17.93725,21.70836 -24.84363,25.37676 -4.29765,2.28257 -4.71058,3.99628 -3.80811,13.31842 0.9255,9.55937 0.16223,11.76648 -6.52827,20.15753 -8.61032,10.7997 -9.61099,19.53005 -2.90143,25.55677 3.7916,3.40558 5.32499,3.64651 8.8856,1.43981 10.44071,-6.47134 16.27868,2.30439 5.98428,8.99882 -6.84015,4.44806 -15.40775,2.66143 -22.66752,-4.8593 -8.31697,-8.61598 -9.54691,-19.37274 -3.62683,-31.49609 l 4.71491,-9.89874 -5.0776,-4.13952 c -2.81628,-2.28049 -6.73236,-5.27286 -8.70426,-6.65909 -4.64834,-3.26858 -9.9563,-13.75293 -11.96844,-23.57708 -0.87643,-4.27826 -3.11997,-12.10009 -4.89614,-17.45788 -1.77624,-5.35774 -2.831,-10.14816 -2.35746,-10.61865 1.66053,-1.64777 12.47531,15.96876 17.22734,28.07653 4.81912,12.27773 10.29446,19.97745 13.96315,19.97745 1.08433,0 3.86677,-4.69719 6.34686,-10.43863 l 4.53356,-10.43875 -6.52832,-15.65803 c -3.66869,-8.62059 -7.95947,-19.58773 -9.42965,-24.477 -3.19565,-10.62402 -10.92857,-21.34273 -19.94737,-27.71649 l -6.52826,-4.6794 -7.79764,6.65915 c -4.24148,3.69588 -8.77787,6.83917 -10.15497,6.83917 -3.84674,0 -2.99757,-5.62863 1.81335,-11.69853 l 4.35222,-5.39937 -11.24312,-6.47919 c -11.38439,-6.59431 -19.76602,-17.05199 -19.76602,-24.47695 6e-5,-3.16892 2.05584,-2.09296 9.42964,5.03939 5.23389,5.06282 12.4965,9.95561 15.95791,10.79866 l 6.16557,1.61977 -4.53345,-7.55901 c -5.4676,-8.9005 -5.79144,-10.79867 -1.45077,-10.79867 3.61799,0 14.54177,14.94684 19.04069,26.09678 1.60314,3.97231 4.36509,7.19909 6.16557,7.19909 1.80037,0 2.81397,-1.1718 2.17611,-2.69971 -5.88873,-14.10853 -14.90037,-47.25567 -13.78186,-50.75363 2.22316,-6.95066 4.8783,-3.12915 6.34692,9.17878 2.26964,19.01489 12.70388,48.06304 21.94207,60.8324 3.49063,4.8246 6.34692,10.37119 6.34692,12.41855 5e-5,2.04707 2.47823,9.264 5.44024,15.83799 6.67422,14.81174 9.27237,10.87713 7.07219,-10.43869 -1.23756,-11.98773 -0.87302,-14.39824 1.99476,-14.39824 7.70399,-6e-5 12.33114,-8.21501 12.33114,-21.95726 5e-5,-7.25423 -1.00679,-16.17667 -2.3574,-19.61759 -1.3513,-3.44097 -3.37371,-13.68982 -4.35221,-22.85706 -2.79931,-26.2283 -8.4355,-37.98387 -21.21675,-43.7345 -3.69455,-1.66238 -8.34849,-4.00055 -10.33638,-5.39936 -5.53313,-3.89328 -10.21658,-0.93774 -11.60575,7.55907 -1.7827,10.90554 -12.51127,25.42745 -20.12878,27.17655 -4.58477,1.05292 -8.28451,0.13914 -13.78174,-3.59952 -8.17268,-5.55791 -10.15509,-11.24231 -10.15509,-29.15629 -6e-5,-9.4998 0.91395,-11.91666 6.8909,-17.45794 8.68867,-8.05554 17.44333,-8.33631 28.4704,-0.8998 9.99955,6.74402 11.60575,6.79962 11.60575,0.8998 0,-5.90154 -12.48535,-17.13658 -19.94743,-17.9977 -3.34779,-0.38625 -5.80288,-2.0294 -5.80288,-3.95944 -1.1e-4,-2.5989 3.5796,-3.44883 16.32066,-3.95956 18.25267,-0.73162 20.35147,-2.74116 16.32061,-14.21816 -4.07237,-11.59392 -0.56466,-30.2845 7.07219,-38.33525 l 6.52826,-6.83917 -1.08802,7.55907 c -0.92775,7.50867 4.18131,30.49986 7.61623,34.37575 0.93664,1.0572 3.38399,-1.4521 5.44018,-5.39942 6.19582,-11.89073 21.28862,-26.63666 27.20108,-26.63666 6.10148,6e-5 6.52717,2.36901 2.17605,10.79867 -1.70348,3.30033 -3.84824,12.09645 -4.71491,19.61753 -1.59188,13.81431 0.18302,20.15943 7.25365,27.1766 1.80378,1.79061 2.36693,4.58541 1.45072,6.65927 -7.31583,16.55674 -9.9686,28.03472 -7.61629,32.39583 1.92069,3.5621 1.6457,6.35638 -0.90673,12.41843 -1.82906,4.34616 -4.38547,14.60159 -5.80282,22.67722 -2.15555,12.28565 -2.07345,16.64127 0.90668,26.81662 1.95931,6.6886 3.62682,18.31271 3.62682,25.91682 l 0,13.85824 7.07231,-1.25979 c 3.91291,-0.77683 7.63598,-1.99868 8.34162,-2.69971 0.70564,-0.70096 1.35372,-100.52113 1.26937,-221.73223 -0.1224,-176.207882 -0.75922,-221.423986 -3.08284,-225.691849 l -2.9015,-5.399305 z m -143.80252,15.118146 0,0.180135 c 11.4274,-0.06582 21.79733,1.431608 28.28904,4.679401 7.94608,3.974971 14.995,3.664816 25.56896,-0.719903 6.72214,-2.787642 12.38963,-3.148719 25.38761,-1.979749 9.20852,0.828215 17.77444,2.261498 19.04064,3.239594 1.26573,0.978212 5.31235,2.570152 8.88566,3.419556 8.9412,2.125416 24.81551,15.434999 28.28905,23.757046 2.77517,6.64997 1.6659,14.947653 -3.44542,26.816679 -1.18803,2.758023 -0.29388,3.775318 3.44542,4.319418 7.55203,1.09877 7.90462,6.09236 0.54387,8.6389 -14.40489,4.98402 -24.76979,34.31126 -14.14456,39.95496 10.26421,5.45196 10.7067,38.14703 0.54387,39.59516 -6.81099,0.9703 -6.35419,5.00433 1.63207,12.59834 7.52223,7.15278 8.36286,10.34786 3.44542,14.39824 -1.94268,1.60014 -3.37106,6.7532 -3.44542,12.05845 -0.071,5.04516 -0.8889,13.10855 -1.81342,17.99776 l -1.81335,8.81892 -4.8962,-7.73903 c -2.69625,-4.2782 -5.40924,-10.9657 -6.16557,-14.93813 -1.69748,-8.9128 -7.54683,-9.91595 -7.61629,-1.2599 -0.0687,8.58099 -7.57836,23.7638 -13.7818,28.07652 -10.7631,7.48211 -13.11247,3.81008 -3.98946,-6.29917 7.19349,-7.972 11.40327,-21.4467 12.69372,-41.21486 1.41688,-21.70617 -0.78567,-25.88806 -9.24824,-17.99776 -7.15614,6.67254 -8.85131,5.81304 -7.07231,-3.59958 1.85827,-9.83079 6.75378,-19.80626 12.87512,-26.45664 6.01552,-6.53531 3.56696,-9.82958 -4.89619,-6.65921 -3.6423,1.36452 -7.10903,1.76307 -7.79758,1.07989 -1.07989,-1.07203 0.15242,-9.54881 4.53344,-30.23618 1.82583,-8.62146 -4.33985,-5.49994 -9.067,4.49938 -2.43107,5.14342 -5.8803,9.73507 -7.61623,10.25879 -2.62905,0.79322 -2.94076,-2.69752 -1.81342,-21.0574 1.40961,-22.968491 -0.70379,-33.327907 -4.71485,-22.857177 -1.1737,3.064657 -3.84143,6.843727 -5.80282,8.458997 -5.43937,4.48119 -6.76001,-1.48929 -5.25889,-24.476951 1.02983,-15.784182 0.78139,-19.797663 -1.63207,-19.797547 -1.66491,0 -3.48612,1.201071 -3.98952,2.69971 -1.56168,4.649552 -14.40037,2.106651 -33.91052,-6.839227 -26.00797,-11.925549 -35.57029,-12.972812 -52.40728,-5.93919 -7.37051,3.078802 -19.26996,6.426477 -26.47558,7.559073 -11.8871,1.86832 -15.44106,1.321738 -38.80672,-5.759285 -14.16291,-4.292112 -29.41824,-8.703044 -33.72923,-9.898861 -4.31047,-1.195701 -8.74219,-3.242365 -9.97368,-4.499382 -3.44537,-3.516898 23.20157,-0.215931 50.41247,6.299228 26.67222,6.386177 39.51114,6.128099 56.75938,-1.259846 11.84241,-5.072176 28.28449,-7.834933 42.97753,-7.918996 z m 87.04319,24.117026 c -0.42551,0.05196 -0.82221,0.18995 -1.26937,0.359692 -4.94943,1.885179 -11.8591,15.389907 -10.15503,19.797548 2.02755,5.243996 14.1132,4.719528 17.04593,-0.719904 4.54626,-8.430705 0.76442,-20.246325 -5.62153,-19.437509 z M 406.02002,72.530925 c 38.87473,-0.03464 51.72087,2.203936 97.37957,17.097953 26.08235,8.508129 64.50276,33.987482 90.30727,59.752512 17.255,17.22872 22.55298,24.63497 18.67806,25.91669 -5.57343,1.84361 -23.34204,18.01087 -27.74506,25.19691 -3.85223,6.28613 -4.35626,9.74766 -3.26414,22.67717 1.70845,20.22438 7.62022,26.64393 31.55318,33.65573 8.31154,2.43511 8.99657,3.18151 8.70432,9.53882 -1.20119,26.13598 -41.39875,65.14252 -83.96035,81.3499 -22.88559,8.71471 -37.04452,12.33484 -48.23642,12.41844 -4.8473,0.0346 -7.43495,1.26845 -7.43495,3.4195 -5e-5,3.4669 3.31177,6.07209 22.12342,17.81774 6.633,4.14142 18.13893,12.77703 25.56896,19.25766 7.43056,6.48046 14.70263,12.81589 16.13932,14.03826 9.1472,7.78511 33.91479,43.06258 38.08132,54.35321 1.59212,4.31353 6.55234,18.01311 11.06177,30.23612 4.50833,12.22306 8.7598,27.65315 9.42965,34.37569 0.67042,6.72266 2.6295,20.74655 4.35215,31.13616 1.72225,10.38955 3.62672,28.34309 4.35216,39.95502 1.41735,22.68743 14.16187,72.59252 19.40339,75.95048 6.80164,4.35677 9.59777,0.95939 9.61099,-11.69848 0.0115,-10.11675 1.23213,-13.86234 6.34692,-20.51751 3.44276,-4.47888 8.11755,-8.0989 10.33632,-8.0989 5.72545,6e-5 18.66374,8.98734 22.12354,15.47802 4.77668,8.95967 2.12928,26.37575 -5.44019,37.07534 -8.51667,12.03704 -13.27592,14.03821 -33.54788,14.03821 -12.34575,-6e-5 -19.12458,1.23669 -25.56896,4.49938 l -8.70431,4.31953 -8.52297,-4.85936 c -10.77199,-6.19242 -12.31076,-8.56159 -8.52302,-12.77836 4.83026,-5.37667 6.34588,-26.43614 2.72009,-36.71548 -6.13133,-17.38536 -27.63635,-24.71291 -38.44402,-13.13834 -7.2973,7.81421 -11.81031,32.90356 -8.16033,44.99434 3.47896,11.52568 3.70176,11.0504 -6.34686,14.03832 -8.62291,2.56421 -9.17197,2.29412 -17.95267,-5.57932 -4.97247,-4.45868 -9.51827,-8.09901 -10.15504,-8.09901 -0.6367,-6e-5 -4.97974,2.31761 -9.61099,5.2194 -11.59997,7.26762 -26.08424,8.52487 -36.81201,3.05957 -11.86227,-6.04369 -21.47448,-18.37702 -23.21156,-29.87631 -1.86607,-12.34783 2.64717,-19.51043 14.50724,-23.03708 7.64995,-2.27455 9.8469,-2.11826 16.32055,1.61976 5.58885,3.22695 7.6339,6.17828 8.16033,11.51863 0.49422,5.01548 1.96508,7.01913 4.71485,7.01913 6.08774,6e-5 32.45824,-22.89378 38.80678,-33.65579 8.59594,-14.57006 17.86352,-47.17738 16.32054,-57.05285 -0.70558,-4.51301 -1.66059,-16.60709 -2.3574,-26.99676 -2.79052,-41.6148 -32.1083,-103.18845 -62.19962,-130.48353 -23.21965,-21.06155 -40.17747,-31.62425 -89.0379,-56.33301 -20.56641,-10.40023 -54.37722,-40.60645 -64.19433,-57.23287 -7.14112,-12.09316 -14.09657,-36.12381 -13.9632,-48.23394 0.3135,-28.52727 20.69412,-50.24267 42.61489,-45.35432 13.65894,3.04595 17.31631,5.59941 22.48617,15.65803 8.02939,15.62015 1.98985,34.9456 -12.69378,41.03478 -10.27137,4.25949 -16.2605,3.82082 -26.65698,-1.43975 -4.83136,-2.44446 -9.07411,-4.31947 -9.42964,-4.31947 -5.43337,-6e-5 18.26351,31.25826 32.09716,42.29474 17.36619,13.85542 30.6271,19.9599 51.5005,23.57703 29.62597,5.13407 50.09053,1.69309 71.26663,-11.87844 21.85905,-14.00945 44.65468,-37.74871 52.76992,-54.71324 6.01771,-12.58038 6.63808,-15.14695 5.44018,-30.41614 -3.26084,-41.56543 -12.44638,-68.35463 -29.37713,-85.66926 -9.27733,-9.48802 -38.70839,-30.5181 -53.49519,-38.33525 -37.6299,-19.893967 -86.85793,-21.288394 -125.48728,-3.59958 -12.8253,5.8728 -19.09906,10.74232 -33.18519,25.7368 -34.10445,36.30498 -34.6381,40.05548 -34.99866,267.98648 -0.13799,87.67482 0.0681,170.49172 0.54387,183.93693 0.94594,26.71627 6.55078,55.02154 13.60051,68.93146 7.90185,15.59435 37.32044,39.30111 52.40723,42.29475 l 7.25354,1.43981 -1.26937,-10.97869 c -1.12186,-9.40297 -0.58544,-11.8375 3.44548,-15.83799 5.19186,-5.15307 17.44609,-6.44905 24.84356,-2.51969 11.82475,6.28092 13.44879,25.42438 3.62683,43.01459 -6.43947,11.53191 -15.10198,14.75816 -39.71345,14.75816 -12.66878,6e-5 -23.00348,1.1229 -28.1077,3.2396 -10.76195,4.46312 -10.67581,4.5921 -18.31531,-4.85942 l -6.52826,-8.27892 -13.41917,2.69965 c -18.36178,3.76401 -19.27556,3.64594 -22.66752,-3.9595 -2.53308,-5.68059 -2.51161,-8.14139 0.18129,-15.11808 3.80165,-9.85089 0.83774,-28.43512 -5.62147,-35.45552 -4.57178,-4.9697 -17.8943,-9.35892 -28.28905,-9.35892 -9.16054,5e-5 -18.21271,8.69888 -22.48611,21.77735 -2.55636,7.82281 -2.68799,11.99206 -0.54387,22.13716 3.55506,16.82366 1.89742,17.98731 -16.86464,12.05852 -14.35789,-4.53686 -15.99371,-4.46313 -33.00385,-1.43987 -9.85238,1.75135 -24.12522,3.21569 -31.734467,3.23954 -12.661675,0.0404 -14.624508,-0.70888 -21.942131,-7.55896 -6.532075,-6.11401 -8.019167,-8.97134 -7.978983,-16.01801 0.06524,-11.24716 5.872909,-18.50381 16.139313,-20.15741 7.496719,-1.20719 9.092469,-0.41974 18.315248,8.99882 12.31162,12.57218 19.05859,13.34428 31.19054,3.41961 9.39039,-7.68274 12.76912,-14.67491 20.67271,-42.11473 10.82534,-37.58549 16.32447,-96.99159 16.68329,-182.67713 l 0.18129,-59.57261 -5.07754,-1.97975 C 140.97828,383.36757 139.0155,381.60132 134.7354,361.0348 c -2.48401,-11.93525 -2.40815,-14.16776 1.45072,-21.95714 4.37652,-8.83567 13.03101,-15.03888 27.56372,-19.97751 l 8.16027,-2.87968 1.26937,-16.37793 c 2.16704,-27.37152 0.62562,-84.1275 -2.90144,-102.94712 -1.83194,-9.77848 -6.02446,-24.18596 -9.24835,-32.03602 -3.22383,-7.85 -5.80288,-15.34003 -5.80288,-16.73797 6e-5,-3.92417 -15.70352,-16.7378 -20.49141,-16.7378 -2.5612,0 -4.3428,1.62288 -4.35216,3.95949 -0.0231,5.75248 -13.36581,13.85819 -22.84881,13.85819 -11.993556,0 -19.73005,-7.60676 -21.216739,-20.69736 -1.631315,-14.36389 2.521885,-22.83068 14.325839,-29.696288 11.04855,-6.426246 20.92131,-6.009569 38.62537,1.619768 12.82536,5.52696 28.01591,5.67037 33.54789,0.18013 2.96362,-2.941559 9.11302,-4.650356 21.03545,-5.759281 17.97807,-1.671846 24.63694,1.014585 14.1445,5.759281 -4.8876,2.21052 -5.80294,3.99582 -5.80294,12.41838 0,11.47724 5.275,24.17401 11.60581,27.53659 6.892,3.66065 23.18789,3.06292 29.55842,-1.07989 15.17814,-9.87016 15.63621,-22.67162 1.08809,-38.33519 -4.84742,-5.219056 -8.053,-9.868031 -7.07231,-10.438573 0.98133,-0.571003 18.29123,-0.07332 38.44408,1.079827 36.18888,2.070105 36.66046,2.021376 50.23118,-3.419614 33.73518,-13.526091 45.48758,-15.806295 79.97083,-15.83805 z m 0.54387,36.895385 c 4.82911,0.1478 9.18981,1.25927 12.87506,3.41961 7.23056,4.23929 9.41129,8.02558 7.43494,13.1384 -1.03635,2.67991 -3.31545,3.06575 -9.79233,1.97975 -13.04481,-2.18725 -26.22842,2.42685 -31.37178,10.79861 -2.40243,3.91037 -4.34777,8.37083 -4.35221,9.8988 -0.0173,4.96958 3.36851,2.8015 5.80287,-3.59957 3.13792,-8.2515 16.36979,-14.49403 26.11294,-12.4185 12.2532,2.61005 14.76319,5.00145 23.93689,23.57709 7.77789,15.74879 10.04846,18.54434 18.13408,22.13728 5.09319,2.26299 10.71414,4.1394 12.51243,4.1394 2.09649,5e-5 2.99739,1.71232 2.53874,4.85942 -0.84796,5.81454 -6.80822,7.91986 -24.11824,8.27892 -19.36568,0.40184 -22.8305,5.94767 -6.16557,9.8988 4.6577,1.10425 6.16557,2.86749 6.16557,7.01913 0,4.16371 -3.32088,7.92333 -13.78186,15.47801 -7.58326,5.47685 -14.66463,10.2507 -15.77656,10.61865 -1.11244,0.36778 -2.17824,8.18042 -2.35739,17.45788 -0.24769,12.85451 0.57879,18.24042 3.62676,22.85718 5.19464,7.86865 6.93559,5.99109 3.62683,-3.9595 -2.31866,-6.9719 -1.74165,-21.56708 1.26937,-32.57597 0.52539,-1.91924 6.4688,-5.85449 13.23782,-8.63889 11.14514,-4.58495 13.38395,-4.76589 23.57425,-2.33973 9.80274,2.33384 11.69507,3.74622 14.68848,10.79866 2.54966,6.00709 3.08579,11.89772 1.99476,22.85707 -1.57057,15.77362 0.48845,22.26603 8.52297,28.61646 3.92567,3.10311 4.11111,4.23138 1.45072,8.459 -3.41124,5.42096 -8.11691,5.8228 -24.48093,2.33967 -8.34295,-1.77559 -12.27935,-3.94881 -15.05123,-8.27892 -2.08044,-3.2505 -4.95873,-6.68218 -6.34681,-7.55919 -1.38813,-0.87682 -3.85696,-9.38501 -5.44018,-18.89756 -3.71672,-22.3285 -7.60999,-26.85219 -6.34697,-7.37906 1.00939,15.57033 8.81897,34.91812 19.04075,46.97415 3.12955,3.69167 5.11842,7.33887 4.35216,8.0989 -2.0342,2.01901 -18.85975,0.968 -23.39291,-1.4398 -2.13725,-1.13514 -5.83394,-1.83201 -8.16027,-1.61971 -3.21004,0.29271 -4.84678,-2.13166 -7.07231,-9.71885 -1.61301,-5.50045 -4.90902,-11.57295 -7.25359,-13.49832 -3.15831,-2.59394 -5.34435,-9.72328 -8.16028,-27.71654 -4.54805,-29.06213 -6.65788,-35.73588 -12.51243,-37.25531 -3.7707,-0.97867 -4.19864,-2.31617 -2.90143,-9.17884 1.48068,-7.83522 1.35124,-8.0799 -4.35216,-6.65915 -6.708,1.67098 -8.2676,-3.19976 -2.5388,-7.91905 1.83414,-1.51013 2.73233,-3.67533 1.99476,-4.85937 -0.73757,-1.18404 -4.27387,0.60946 -7.79758,3.95956 -5.87666,5.58781 -6.53519,5.71523 -7.97898,1.97963 -1.14888,-2.97078 0.25519,-5.60236 5.44018,-9.89868 3.90851,-3.23827 7.25365,-6.55159 7.25365,-7.37912 -6e-5,-3.93998 -6.59726,-0.61794 -16.6833,8.459 -7.92742,7.13379 -13.0127,9.89874 -17.77138,9.89874 -9.7249,0 -25.13478,8.23158 -30.1024,16.01802 l -4.35216,6.83911 -1.45077,-5.93931 c -0.8042,-3.18053 -2.35717,-5.75923 -3.44537,-5.75923 -2.05902,0 -11.24306,27.99553 -11.24306,34.19574 0,5.90755 4.23669,4.0129 5.62153,-2.51969 1.71001,-8.06853 3.99553,-12.18057 7.43495,-13.31836 2.11513,-0.69981 2.56206,1.46527 1.45066,8.81892 -2.80491,18.56397 3.98322,45.33815 19.40338,76.1305 12.51278,24.98762 25.2188,40.31055 43.34028,52.55341 19.65292,13.2776 37.60825,31.10989 45.69762,44.99435 6.17319,10.59555 6.37198,10.59699 18.49671,11.15864 23.229,1.07596 39.52766,17.98881 36.26792,37.61529 -0.84294,5.07327 -2.4261,10.58072 -3.62671,12.05846 -3.21281,3.95228 0.18129,16.47747 6.16551,22.85712 5.61524,5.98671 21.75998,35.78167 26.83833,49.4939 3.01379,8.13827 2.98221,8.384 -2.35745,10.79861 -4.91173,2.22097 -6.66943,1.55262 -16.1392,-6.29923 -5.85345,-4.85342 -15.37773,-11.88929 -21.2168,-15.83799 -6.06292,-4.09968 -11.17955,-9.65932 -11.96845,-12.77848 -2.40301,-9.50291 -7.46063,-6.26025 -9.06701,5.75929 -0.81366,6.09017 -2.84162,12.10511 -4.53344,13.49832 -5.45935,4.49696 -3.39537,6.47913 7.07224,6.47913 8.46587,6e-5 10.22236,0.63047 9.61105,3.77965 -0.44629,2.29897 -4.08513,4.58986 -9.067,5.75923 -4.62958,1.08658 -8.69491,3.50512 -9.24842,5.57927 -0.82787,3.10155 -1.05159,3.10357 -1.26937,-0.35969 -0.25692,-4.08456 -3.80477,-4.11787 -14.14449,-0.18014 -1.89367,0.72135 -6.79541,-1.9667 -11.42441,-6.29928 -6.42399,-6.01304 -8.20531,-9.73611 -9.4297,-18.89763 -1.35448,-10.13049 -2.3201,-11.59495 -8.34168,-13.67828 -3.72879,-1.29004 -7.18454,-2.33967 -7.61629,-2.33967 -2.43944,-6e-5 0.19457,5.88336 6.34698,14.75816 5.49064,7.9205 6.34784,10.43217 3.98946,11.87838 -4.5413,2.78556 -7.28477,-0.49248 -18.678,-22.85706 -13.81269,-27.11339 -16.13244,-30.04704 -21.03545,-26.99664 -2.12184,1.32018 -4.16412,4.57628 -4.53351,7.01913 -0.3695,2.44261 -4.56468,8.47377 -9.42964,13.49832 -4.86445,5.02483 -8.8856,11.35714 -8.8856,14.03826 0,5.39746 -16.14729,21.95726 -21.39821,21.95726 -4.66988,6e-5 -3.97208,-5.37067 1.26943,-10.07877 6.00224,-5.3911 5.51685,-7.2589 -1.63212,-8.09895 -7.6742,-0.90166 -9.67606,-6.29929 -2.35734,-6.29929 2.94601,0 7.40145,-1.489 9.79234,-3.23959 4.01498,-2.94059 3.52128,-3.15992 -5.07755,-3.05952 -10.58782,0.12355 -14.1445,-1.37578 -14.1445,-6.11927 0,-2.51917 1.70389,-2.99843 7.2536,-1.97975 4.83731,0.88815 8.8102,0.0918 11.7871,-2.15971 4.27895,-3.23607 4.10095,-3.352 -3.44548,-3.41955 -8.94167,-0.0803 -17.77127,-5.29198 -17.77127,-10.43875 0,-2.44255 1.03029,-2.81639 3.80812,-1.61982 8.0056,3.44778 17.92877,3.49842 25.93154,0.18013 9.47976,-3.93121 11.40275,-9.40713 2.53886,-7.19915 -13.20532,3.28954 -37.38695,-10.80594 -33.91064,-19.79743 1.2117,-3.13238 2.34597,-2.92829 8.70437,1.79973 16.34739,12.15556 31.67772,11.57469 45.15364,-1.79973 6.14611,-6.10033 4.24679,-7.91906 -8.88561,-7.91906 -12.47045,6e-5 -34.45467,-5.91967 -34.45467,-9.3588 0,-0.98439 -4.21521,-5.68636 -9.24836,-10.43874 -11.97468,-11.30559 -11.26499,-16.96926 1.99471,-16.37794 5.18822,0.23152 9.42976,-0.0831 9.42976,-0.7199 0,-0.63665 -3.27343,-5.34359 -7.43489,-10.43869 -7.67108,-9.39021 -17.22734,-26.01121 -17.22734,-30.23629 0,-5.3623 6.55529,-1.67641 13.23776,7.55913 3.95096,5.4601 8.95368,11.7539 11.06177,13.8583 3.62082,3.61488 3.8382,3.21771 4.8962,-5.93936 0.61575,-5.33031 2.14395,-10.01479 3.44548,-10.43863 1.30153,-0.42378 5.34313,5.24128 8.8856,12.5984 5.78896,12.02017 9.97374,16.85119 9.97374,11.33855 -5e-5,-3.09814 -14.59598,-36.2495 -27.92641,-63.53199 -16.55524,-33.88021 -20.15787,-49.16867 -20.12872,-83.32959 0.0231,-24.35213 0.86673,-29.88249 6.16563,-45.17436 3.32412,-9.59431 8.1433,-21.07858 10.69902,-25.37682 2.5552,-4.29846 4.82663,-12.77991 5.25883,-18.89762 0.63625,-9.01297 2.05625,-12.10176 7.25366,-16.37799 6.11412,-5.03032 6.28629,-5.42783 2.35733,-8.45888 -2.86772,-2.21243 -3.7901,-4.57392 -2.72003,-7.91912 1.35176,-4.2271 2.80623,-4.81837 11.96839,-3.95944 5.73221,0.53752 13.71783,2.44649 17.77132,4.13952 7.2118,3.01293 7.68973,2.89988 13.60051,-4.67946 3.32141,-4.25932 8.27719,-9.79389 11.24312,-12.23847 2.96529,-2.44452 8.50807,-7.49539 12.33108,-11.15859 8.23498,-7.89094 20.56583,-12.20412 31.19049,-11.87855 z m 9.61099,34.37569 c -5.48129,0.19342 -14.15039,4.26798 -21.94213,11.15865 -4.62196,4.08715 -9.47133,7.55908 -10.69908,7.55908 -3.2266,-6e-5 -2.77245,6.05073 0.54387,7.19909 4.18253,1.44783 8.52297,-0.59797 8.52297,-4.13952 -6e-5,-3.99033 12.30094,-11.54403 21.76078,-13.3183 4.00222,-0.75068 7.2536,-2.7239 7.2536,-4.31942 0,-2.92863 -2.15128,-4.25562 -5.44018,-4.13958 z m -280.89555,12.77842 c 1.9514,-0.14318 3.16269,7.88476 3.26407,23.39707 0.11778,17.9675 0.87319,23.36415 3.80823,26.27679 3.44161,3.41546 4.04714,3.49715 8.34162,-0.35969 4.19183,-3.76516 4.97616,-3.88011 8.16027,-0.71996 4.88593,4.84926 0.47921,12.77841 -7.07224,12.77841 -6.3904,6e-5 -6.7957,1.96289 -2.53881,16.91788 5.5866,19.62671 6.11384,24.77689 2.17611,26.27674 -6.28999,2.3955 -11.24791,-4.67288 -12.33108,-17.63778 -0.98075,-11.74062 -2.76385,-16.33464 -5.25889,-13.8583 -1.9047,1.89026 -1.90579,26.71495 0,33.47583 1.46688,5.20196 1.09697,5.93924 -2.72009,5.93924 -2.93666,6e-5 -5.87031,-2.74976 -8.34168,-7.91899 -3.14774,-6.58248 -3.45183,-9.63761 -1.45066,-18.89763 1.31972,-6.10795 2.53874,-11.50754 2.53874,-12.05845 0,-2.58909 -6.48138,-0.57158 -9.79234,3.05951 -12.43789,13.64082 8.52378,55.97309 27.74501,55.97309 7.1521,-6e-5 8.7382,4.30955 3.26407,8.8188 -5.69681,4.69245 -15.86795,0.30138 -26.83827,-11.33849 -10.2746,-10.9023 -16.79848,-22.56423 -16.86458,-30.23629 -0.0404,-4.93644 -3.770937,-11.01558 -5.62159,-9.17879 -0.757951,0.75201 0.938779,8.49497 3.626827,17.27786 3.359393,10.97661 7.499433,19.28047 13.600513,26.27662 11.08879,12.71606 14.16649,19.87249 11.06171,26.63666 -3.28567,7.15591 -8.34826,6.2617 -11.24306,-1.97963 -1.35672,-3.86366 -5.04619,-10.47044 -8.34173,-14.75817 -3.29497,-4.28801 -8.776429,-12.95532 -12.149739,-19.07764 l -6.165512,-10.97863 0.362579,18.17772 c 0.346412,16.83433 -0.04619,18.76391 -4.896199,22.67716 -6.406269,5.16975 -11.250447,5.39001 -13.056412,0.71996 -0.829659,-2.14729 0.517887,-4.6779 3.626768,-6.83917 4.732749,-3.28994 5.119577,-4.71052 4.17081,-23.75704 -0.84288,-16.91897 -0.321587,-21.72193 3.264074,-28.61641 5.297864,-10.18673 3.824282,-12.77842 -7.07219,-12.77842 -12.290667,6e-5 -23.049036,-4.2137 -22.123478,-8.63895 0.4538,-2.16809 2.637009,-3.25946 5.258892,-2.87962 2.415709,0.35046 13.06184,1.24836 23.755487,1.97969 l 19.40333,1.25991 11.9685,-11.15859 c 6.53479,-6.18734 11.30438,-11.99795 10.51773,-12.77836 -0.78613,-0.78064 -5.70063,-0.30427 -10.88042,1.07982 -5.1798,1.38427 -10.976032,1.91411 -12.693777,1.25985 -5.779609,-2.20122 -3.280241,-7.55844 4.170807,-8.99894 19.20911,-3.71406 28.69482,-6.6793 27.92636,-8.81892 -0.46362,-1.2909 -2.92806,-2.02461 -5.2589,-1.61971 -2.33072,0.40473 -7.35711,1.3476 -11.24305,1.97975 -8.95275,1.45574 -31.814725,-5.05566 -33.547944,-9.53876 -2.636143,-6.81816 2.780136,-8.24954 13.781917,-3.41968 14.790557,6.49345 21.520547,5.88105 14.144437,-1.4398 -4.69129,-4.65579 1.31579,-8.39676 8.34168,-5.21935 9.74049,4.40476 12.18178,3.0896 15.05123,-7.55901 1.64107,-6.09138 2.99988,-9.09282 4.17081,-9.1789 z m 274.72992,6.11927 c -6.21499,0.30311 -10.69896,4.46387 -10.69896,10.79861 0,6.61625 4.58864,9.54176 7.61629,4.67946 0.74923,-1.20292 4.76208,-3.12592 8.70426,-4.13946 8.75697,-2.25215 9.29541,-7.3939 1.08802,-10.25879 -2.32743,-0.8121 -4.63783,-1.18086 -6.70961,-1.07982 z m -89.58188,13.13834 c -1.32353,0 -1.62,1.56792 -0.72533,3.77953 0.86609,2.13922 2.0906,5.31126 2.72009,6.83912 0.62891,1.52779 0.0941,2.69971 -1.26937,2.69971 -3.5557,0 -3.07574,4.89896 1.08802,10.79861 4.26642,6.04536 6.72503,4.79885 3.26413,-1.61977 -4.07393,-7.55492 -2.67684,-8.31351 2.72004,-1.61983 4.40798,5.46726 5.60357,5.72095 7.97898,2.87961 3.89472,-4.65717 -0.37412,-14.93812 -6.16551,-14.93812 -2.41617,6e-5 -5.01895,-1.86907 -5.80293,-4.31942 -0.78163,-2.44464 -2.52749,-4.49944 -3.80812,-4.49944 z m -7.43488,16.19797 c -0.10739,0.006 -0.28637,0.10335 -0.36258,0.18013 -0.61587,0.61102 0.0173,3.10536 1.45072,5.75923 1.43045,2.65399 3.19236,4.39078 3.80817,3.77954 0.61581,-0.61113 -0.0173,-3.28527 -1.45078,-5.93925 -1.25193,-2.32212 -2.69243,-3.83271 -3.44542,-3.77954 z m -4.35216,6.65921 c -0.18129,-0.0289 -0.34757,0.12355 -0.54387,0.18013 -0.22459,0.0647 -0.46881,0.20265 -0.72533,0.35969 -1.49945,0.91979 -1.48074,2.85756 0.18129,5.93925 2.11681,3.92561 1.96936,4.40412 -1.08803,3.23965 -3.83028,-1.45874 -4.40544,0.35392 -2.17616,6.11921 0.74767,1.93345 2.13413,3.41956 3.08284,3.41956 3.0183,6e-5 6.78196,-5.82412 5.80288,-8.99888 -2.27241,-7.36936 -3.26454,-10.04366 -4.53345,-10.25867 z m 191.49496,4.8593 -1.26943,7.73909 c -0.67972,4.19772 -2.87246,9.29928 -4.89614,11.51863 -5.5922,6.13301 -28.98921,4.80458 -34.63591,-1.9798 -2.63736,-3.16864 -2.17374,-3.40813 3.80812,-1.97975 23.31548,5.56749 28.28102,4.65827 33.36653,-6.83923 l 3.62683,-8.45894 z m -49.14321,35.0956 c -0.99386,-0.0577 -1.95712,0.2523 -2.72004,0.71996 -3.0161,1.84967 -2.39042,5.39931 0.90668,5.39931 1.57554,0 4.20915,1.87496 5.98417,4.31948 3.84743,5.29769 5.30138,5.54566 8.88571,1.25984 3.67752,-4.39794 0.71517,-8.42695 -4.89619,-6.65915 -2.80329,0.88301 -3.93341,0.64635 -3.08273,-0.7199 1.19674,-1.92248 -2.09574,-4.14835 -5.0776,-4.31954 z m 17.22733,14.93819 c -2.82522,1.1e-4 -14.9984,6.9794 -17.58997,10.0787 -2.44596,2.92534 -2.06664,3.20316 3.08278,1.2599 3.25132,-1.22705 7.53933,-1.68905 9.611,-0.89992 2.77413,1.05656 3.52117,0.56004 2.5388,-1.97975 -0.73324,-1.89666 -0.11201,-4.56808 1.26937,-5.93924 1.38155,-1.37128 1.76058,-2.51969 1.08802,-2.51969 z m -12.14973,14.03826 c -0.26789,0.052 -0.5986,0.17089 -0.90679,0.35969 -1.23144,0.75547 -2.17605,2.37714 -2.17605,3.59946 0,1.22243 0.94461,1.65533 2.17605,0.89998 1.23155,-0.75541 2.35751,-2.37726 2.35751,-3.59952 -6e-5,-0.91684 -0.64808,-1.41388 -1.45072,-1.2599 z m 7.07225,11.33861 c -3.34739,-0.0658 -10.15509,3.87445 -10.15509,6.29917 0,0.92838 1.85769,1.61988 4.17086,1.61988 5.15168,-1.1e-4 10.52264,-5.55438 7.2536,-7.55907 -0.30427,-0.18707 -0.79144,-0.35046 -1.26937,-0.36027 z M 276.9058,320.71992 c 0.153,-0.0577 0.35796,-0.005 0.54387,0.18013 0.74415,0.73838 0.82798,2.71513 0.18129,4.31942 -0.71488,1.77288 -1.34322,1.14928 -1.45066,-1.43981 -0.0733,-1.757 0.26731,-2.89214 0.72533,-3.05957 z m 1.81341,11.15864 c 0.75184,-0.20149 2.92696,3.37747 5.44024,9.17884 3.09376,7.14032 5.19441,14.06223 4.7148,15.47802 -0.48036,1.41613 -2.22709,-1.40996 -3.80818,-6.29917 -1.58212,-4.88933 -3.63208,-9.81751 -4.71479,-10.97869 -1.08271,-1.16118 -2.04551,-4.15337 -1.99476,-6.65909 0.0115,-0.46997 0.18879,-0.67349 0.36258,-0.71991 z m -169.19013,3.9595 c 4.70515,6e-5 3.67775,2.43338 -4.89614,13.13834 -4.29829,5.3668 -7.616348,10.59885 -7.616348,11.69848 5.8e-5,1.09997 -2.072587,4.60723 -4.533446,7.91899 -6.380519,8.58561 -13.187472,28.07439 -14.869942,42.83475 -1.685182,14.78288 3.94264,58.25219 10.699132,83.86942 2.499484,9.47768 8.461536,26.72343 13.237764,38.33519 4.77622,11.61199 12.19979,35.30945 16.68329,52.55347 l 8.16028,31.31612 -5.98423,12.77836 c -4.6395,9.73357 -7.88487,13.4679 -13.60045,15.83805 -15.158909,6.28653 -29.678627,2.84087 -40.076207,-9.53882 -8.135619,-9.68622 -8.363674,-20.73789 -0.90662,-28.61641 9.36169,-9.89008 17.494019,-9.05627 17.589917,1.79973 0.02309,2.64763 -1.732295,3.77954 -5.440181,3.77954 -11.368921,5e-5 -7.590713,18.6504 4.896198,24.29698 6.311525,2.85422 16.173319,3.1433 20.310063,0.53983 5.03147,-3.16656 9.42965,-13.74837 9.42965,-22.85724 0,-9.96924 -8.48273,-46.336 -11.6057,-49.67368 -1.348467,-1.44102 -3.781786,-0.003 -6.709609,3.95944 -4.872122,6.5946 -5.829722,6.97588 -10.336379,4.13957 -2.292156,-1.44269 -1.529875,-4.20897 3.808115,-12.05857 7.479745,-10.99907 8.662109,-18.42858 3.808174,-25.01689 -2.955941,-4.01221 -3.355124,-3.7576 -6.528265,3.77959 -4.615257,10.96281 -17.212846,20.25863 -24.843511,18.35769 -7.764208,-1.93397 -7.388581,-3.36252 2.357339,-8.63896 12.846948,-6.95545 16.404376,-13.35762 17.045933,-31.13604 0.308885,-8.55599 -0.33602,-16.12673 -1.450661,-16.73797 -1.113602,-0.61113 -2.36727,0.85442 -2.720149,3.23959 -1.550139,10.48297 -8.191623,23.39712 -11.968388,23.39712 -6.444375,6e-5 -6.735188,-2.22945 -1.632066,-10.79866 4.537603,-7.61935 4.813463,-11.05484 5.077487,-55.07311 0.294451,-49.00834 2.080787,-70.89892 5.621587,-73.07081 1.145529,-0.70258 1.99476,-4.17485 1.99476,-7.73909 5.8e-5,-6.01517 -0.474008,-6.45696 -6.709611,-5.21929 -6.03197,1.19738 -6.709611,0.85483 -6.709611,-4.13946 0,-7.22796 3.689989,-9.98945 15.595329,-11.87855 5.522051,-0.87654 11.185958,-3.42181 13.23776,-5.9393 11.713886,-14.37411 16.802986,-19.43751 19.584736,-19.43751 z m 16.68324,2.51969 c 3.42567,0.11547 2.138,3.92497 -4.3521,13.49826 -11.70027,17.25783 -16.37008,28.21636 -17.59009,41.57485 -1.90077,20.79891 -0.71881,22.94009 17.59009,31.316 14.53536,6.6494 16.79744,6.98767 23.0301,4.49944 9.46919,-3.78046 13.00289,-3.92849 14.14449,-0.71984 0.87216,2.45191 -7.0622,7.0779 -17.95261,10.43874 -3.74039,1.15448 -3.73369,1.62964 -0.36258,8.0989 5.31265,10.19649 14.50719,40.08048 14.50719,47.15411 6e-5,11.64345 -6.16851,6.65413 -11.24311,-8.99894 -7.83736,-24.18007 -11.69582,-33.83569 -13.41911,-33.83569 -0.88803,-6e-5 -2.21617,7.80508 -2.90144,17.27786 -1.22716,16.96308 -6.10004,33.18126 -9.06701,30.23617 -0.83456,-0.82856 -0.95915,-11.60523 -0.36257,-23.937 l 1.08796,-22.4972 -4.89608,10.6187 c -2.67869,5.80594 -5.6269,10.61871 -6.52832,10.61871 -1.80435,6e-5 -4.92091,-13.39209 -8.704257,-36.89539 -1.352858,-8.40813 -2.896935,-15.65324 -3.44548,-16.19803 -2.250816,-2.23355 -0.665747,35.31332 2.176108,51.83357 7.214449,41.94447 23.338579,65.91727 42.070789,62.27214 l 7.25366,-1.4398 -5.44019,4.6794 c -6.15881,4.97662 -7.11104,5.13037 -16.50195,2.33979 -14.00685,-4.16256 -23.23771,-17.87098 -31.915813,-47.69406 -7.301573,-25.09339 -12.825471,-69.37383 -10.155091,-81.16982 2.661143,-11.75627 4.714851,-13.90409 4.714851,-4.85948 0,4.7742 1.167123,7.01919 3.445422,7.01919 2.599828,-6e-5 3.264132,-2.97118 3.264132,-12.95838 0,-7.09644 2.058904,-18.83117 4.533562,-26.09677 4.956477,-14.54922 19.192937,-34.84601 25.206207,-35.99552 0.68249,-0.13049 1.32387,-0.1963 1.81341,-0.18014 z m 210.35431,21.9572 c -1.2315,-6e-5 -2.3574,0.93745 -2.3574,2.15977 0,1.22232 1.12584,2.15971 2.3574,2.15971 1.23155,6e-5 2.1761,-0.93739 2.1761,-2.15971 0,-1.22232 -0.94461,-2.15977 -2.1761,-2.15977 z m 246.98503,0 c 5.57008,-0.0289 6.43034,0.70039 5.25877,5.03933 -0.74305,2.75017 -1.43362,9.20349 -1.45066,14.39824 -0.0346,11.16003 -4.18334,12.49043 -12.14979,3.9595 -3.84229,-4.11498 -4.77998,-7.29361 -3.98946,-12.77836 1.22607,-8.50207 3.51626,-10.57194 12.33114,-10.61871 z m -237.01129,8.81892 c -0.48844,0.0173 -1.2632,0.18418 -2.17611,0.35969 -2.322,0.44688 -4.5648,2.07167 -5.07754,3.59958 -1.32965,3.96435 2.79555,3.3475 6.34691,-0.89998 1.94823,-2.32951 2.37258,-3.10507 0.90674,-3.05958 z m 258.04668,0.7199 c -0.27539,-0.23498 -0.66407,0.75951 -1.45072,2.69966 -0.99114,2.44463 -1.44142,5.20248 -0.90673,6.11926 1.89632,3.25397 2.87557,1.52982 2.72015,-4.49938 -0.0687,-2.66778 -0.0866,-4.08467 -0.36258,-4.31954 z m 13.23782,0.71991 c -0.29214,-0.14434 -0.78428,0.99472 -1.45072,3.05957 -0.98572,3.05577 -1.87178,7.21988 -1.9947,9.35886 -0.1224,2.13893 0.76315,3.9595 1.9947,3.9595 1.23156,6e-5 2.29845,-4.34401 2.17611,-9.53876 -0.10623,-4.51341 -0.34988,-6.65326 -0.72539,-6.83917 z m -314.26214,9.8988 c 0.0462,-0.0906 0.052,-0.0462 0.18128,0 0.30543,0.10739 0.98376,0.62291 1.81348,1.43981 1.53033,1.50764 2.14025,3.27522 1.45066,3.9595 -0.68913,0.68399 -1.87935,-0.50808 -2.72015,-2.69966 -0.56985,-1.48472 -0.85668,-2.42696 -0.72533,-2.69965 z m 78.33893,14.03826 c -0.7162,0.71044 0.65432,4.23605 3.26402,7.73898 2.60982,3.50275 6.45968,11.55743 8.52303,17.81774 2.2884,6.94512 5.03424,11.33861 7.0723,11.33861 2.32189,0 2.96824,-1.25644 1.81341,-3.9595 -0.91412,-2.13892 -3.00657,-7.17449 -4.53356,-11.33861 -2.98457,-8.13862 -12.94082,-21.53902 -15.7765,-21.59722 -0.18937,-0.004 -0.24134,-0.12066 -0.36258,0 z m 259.31606,2.87962 c 1.82571,0.10508 4.61994,1.8775 8.52297,5.03932 6.56244,5.31559 7.84596,7.62108 8.70425,17.9977 0.5456,6.59911 0.0173,15.58933 -1.08796,19.79761 l -1.99471,7.55901 -2.90149,-7.55901 c -1.59142,-4.20822 -5.19048,-13.72355 -8.16027,-21.05739 -5.97516,-14.7517 -7.09939,-22.00847 -3.08279,-21.77724 z m -343.82051,42.29469 4.35216,5.03938 c 6.58715,7.31075 12.10661,9.45447 27.01962,11.15853 7.38933,0.84438 14.12792,1.81249 15.05123,1.97975 4.50833,0.81638 0.67597,-4.02624 -7.25359,-9.17884 -6.20126,-4.02953 -13.49353,-6.26851 -24.11819,-7.379 l -15.05123,-1.61982 z m 144.89061,5.03938 c -2.73152,6e-5 -2.81079,0.70824 -0.54387,3.41956 1.53317,1.83344 4.31885,3.23959 6.16563,3.23959 2.73152,-6e-5 2.81079,-0.52828 0.54387,-3.23959 -1.53311,-1.83351 -4.31827,-3.41956 -6.16557,-3.41956 z m -25.93159,2.15971 c -5.74157,0 -4.49477,6.72451 1.26937,6.83911 2.77118,0.0577 8.09243,1.56059 11.7871,3.2396 8.09653,3.67925 10.15503,3.84535 10.15503,1.43986 0,-2.37177 -18.43037,-11.51857 -23.2115,-11.51857 z m 37.53734,6.65915 c -1.92011,0 -2.75606,1.11741 -1.9947,2.33967 0.76066,1.22226 2.28667,2.15971 3.44548,2.15971 1.15933,-6e-5 2.17605,-0.93739 2.17605,-2.15971 -6e-5,-1.22232 -1.7073,-2.33967 -3.62683,-2.33967 z m -36.81201,11.87855 c -3.28007,-0.067 -6.48156,1.01049 -11.96845,3.41956 -14.43554,6.33745 -13.3045,11.89316 4.17081,21.05728 10.78071,5.65351 39.16947,4.22207 39.16947,-1.97964 0,-4.78321 -16.17534,-18.60762 -24.84357,-21.23735 -2.54908,-0.77331 -4.56024,-1.21972 -6.52826,-1.25985 z m -3.62683,5.93925 c 3.4736,0.18648 4.97408,3.21073 4.17087,8.6389 -1.06008,7.17097 -4.49084,8.86135 -9.06701,4.31948 -3.73872,-3.71072 -3.30501,-10.5235 0.72533,-12.05846 1.55626,-0.59277 3.01368,-0.96216 4.17081,-0.89992 z M 345.271,527.51402 c 0.24941,-0.13279 0.51096,-0.0346 0.72538,0 1.0292,0.17379 1.66232,2.24291 1.63196,6.47925 -0.0589,8.29964 -7.96958,29.09007 -14.86983,38.87513 -5.3948,7.64978 -8.27938,27.77798 -4.53356,31.49608 1.40031,1.38947 6.61787,2.75785 11.60581,2.87968 13.1302,0.32043 19.97427,2.66379 20.85405,7.19897 0.67429,3.47458 0.23729,3.60096 -4.17081,1.25985 -3.92394,-2.08443 -7.74926,-2.06474 -17.04594,0 -6.57226,1.45984 -11.83894,3.31061 -11.7871,4.13951 0.052,0.82914 5.52177,5.54948 12.1498,10.43869 6.67202,4.92172 12.51618,11.10328 13.05641,13.85824 0.87377,4.4588 -0.052,4.24812 -7.79758,-2.69959 -4.75688,-4.26503 -10.45283,-7.73903 -12.87512,-7.73903 -3.68531,0 -4.40181,1.30718 -3.98952,8.27886 0.3389,5.73625 -0.46939,8.27903 -2.53869,8.27903 -3.67486,0 -9.66913,-16.21535 -7.97892,-21.59722 0.67192,-2.1391 0.6113,-3.95955 0,-3.95955 -2.35238,5e-5 -23.70976,23.46276 -23.75555,26.09671 -0.0727,4.17716 -5.92712,3.36991 -7.79763,-1.07988 -2.25475,-5.3653 -7.42259,-26.5261 -12.33114,-51.47348 -3.66973,-18.65172 -3.75725,-21.85789 -0.90668,-29.87631 3.47844,-9.78512 11.26332,-19.2576 15.77656,-19.2576 5.6478,0 5.67649,4.85774 0,10.07876 -7.50509,6.90332 -7.50018,9.89875 0.36258,9.89875 6.2718,-6e-5 26.3537,-5.74965 30.64644,-8.81892 1.2315,-0.88041 4.95296,-2.30134 8.16028,-3.05964 4.7884,-1.13207 6.57947,-3.74466 10.33638,-15.11808 2.82568,-8.55334 5.3254,-13.64924 7.0723,-14.57821 z m 68.54648,1.61983 c -11.4091,6e-5 -14.59547,1.53259 -10.88042,5.21928 1.82525,1.81192 3.9315,1.94459 14.68854,0.18014 12.5227,-2.0544 10.25047,-5.39931 -3.80812,-5.39931 z m 20.12866,48.95384 c 1.67543,0 3.77278,0.93739 4.53356,2.15977 0.76119,1.2222 3.67308,2.33967 6.52821,2.33967 4.00777,-6e-5 6.53081,2.60156 11.42441,11.87855 6.22503,11.79992 14.81134,19.07759 22.30482,19.07759 5.64947,5e-5 16.0153,-6.6285 19.04069,-12.23842 2.24978,-4.17271 1.95729,-5.79652 -1.99476,-9.71884 -5.86222,-5.81829 -4.05533,-10.54625 4.53351,-12.41844 18.05266,-3.9353 22.39882,21.31039 6.52826,37.61535 -5.44607,5.59445 -6.6946,9.06071 -7.25365,18.89762 -0.69675,12.25193 -4.85001,17.442 -7.43488,9.35887 -1.74373,-5.4526 -16.147,-8.12125 -33.18525,-6.11933 -13.00341,1.52814 -16.65922,4.7499 -18.67794,17.27792 -0.73428,4.55908 -2.88903,9.72686 -4.8962,11.51857 -3.22383,2.8784 -4.39609,2.8702 -9.06707,-0.89993 -2.90738,-2.34654 -6.67399,-4.31953 -8.34162,-4.31953 -1.66745,0 -3.98432,-1.95504 -5.25883,-4.31942 -3.13342,-5.81114 -2.87563,-6.90892 1.08808,-5.39931 4.30164,1.63813 4.28553,-2.5231 0,-14.57814 -2.98787,-8.40611 -2.90911,-11.1381 0.36258,-25.37682 2.00873,-8.74311 3.67417,-19.22198 3.80812,-23.39712 0.46361,-14.44657 5.68867,-10.79798 13.78186,9.71878 1.69742,4.30378 1.88269,4.36261 2.72003,-0.35969 0.47632,-2.68262 -0.24191,-8.43284 -1.45066,-12.77842 -1.73928,-6.25061 -1.50349,-7.91905 0.90667,-7.91905 z m -139.99435,8.81886 c -1.23167,-6e-5 -2.17611,1.11747 -2.17611,2.33979 0,1.22231 0.9445,2.15977 2.17611,2.15977 1.2315,5e-5 2.3574,-0.93746 2.3574,-2.15977 6e-5,-1.22232 -1.12584,-2.33979 -2.3574,-2.33979 z m 95.20341,4.13957 c 0.11951,0.0116 0.22286,0.36893 0.36258,0.89987 0.56061,2.12472 0.53579,6.05443 0,8.81886 -0.53521,2.76466 -0.88191,1.10973 -0.90674,-3.77948 -0.0173,-3.66701 0.18534,-5.97025 0.54387,-5.93925 z m -82.147,3.05958 c -4.2745,0.33313 -17.40857,10.02905 -17.40857,13.13846 0,1.21896 4.55077,-1.08907 10.33633,-5.03944 5.78567,-3.95073 9.31255,-7.59782 7.79758,-8.09902 -0.19861,-0.0658 -0.44053,-0.0231 -0.72534,0 z m 72.8987,0 c 0.15243,-0.0577 0.35796,-0.005 0.54387,0.18013 0.74427,0.73844 0.82799,2.53517 0.18129,4.13941 -0.71499,1.77276 -1.34321,1.3293 -1.45072,-1.25979 -0.0727,-1.75701 0.26674,-2.8922 0.72539,-3.05963 z m -2.5388,8.459 c 0.34642,5e-5 0.6415,0.84767 1.08809,2.69965 0.51557,2.13892 0.51557,5.60005 0,7.73903 -0.89242,3.70408 -1.09605,3.70402 -2.72015,0 -0.93884,-2.13892 -0.93884,-5.60005 0,-7.73903 0.81199,-1.85204 1.28594,-2.69965 1.63206,-2.69965 z m 55.85271,7.55895 c -0.11201,0.0116 -0.24018,0.10508 -0.36258,0.18014 -1.23161,0.75529 -2.35751,4.24286 -2.35751,7.73903 0,3.49612 -1.52589,12.3633 -3.44536,19.79755 -1.91907,7.43431 -2.72575,14.73322 -1.81342,16.19797 1.05679,1.69731 3.13371,-0.52539 5.62159,-6.11921 4.16036,-9.35476 5.81327,-38.18294 2.35734,-37.79536 z m -43.88426,1.43987 c 0.24942,-0.0652 0.57678,-0.0173 0.90673,0 0.37702,0.0231 0.96448,0.086 1.45072,0.18013 2.98458,0.57776 4.11019,2.8362 4.17081,7.37906 0.10624,7.97453 4.47912,9.79499 6.70961,2.87961 1.41666,-4.39315 1.79887,-4.53004 2.72004,-1.07988 0.58711,2.19902 -0.459,6.48305 -2.3574,9.35886 -3.15114,4.77299 -3.18705,6.25829 0.90668,17.8178 2.46588,6.96468 6.50632,15.29828 8.88566,18.5377 4.81375,6.55222 4.7619,16.61407 -0.18129,21.2373 -3.21159,3.00357 -21.022,5.85662 -26.11288,4.13945 -5.72338,-1.93078 -2.64036,-5.03932 5.07748,-5.03932 9.77023,1.2e-4 16.6833,-3.46511 16.6833,-8.27898 0,-1.9805 -2.394,-6.65638 -5.25889,-10.43868 -6.71013,-8.85674 -12.79718,-27.77498 -14.3259,-44.27444 -0.84363,-9.11239 -1.02186,-11.96129 0.72539,-12.4185 z m -84.1417,4.4995 c -3.60535,0.0231 -11.24306,4.85578 -11.24306,7.19909 -6e-5,2.51738 3.33041,1.39391 9.06695,-3.05969 3.6852,-2.86085 4.38726,-4.15343 2.17611,-4.1394 z m 137.09297,79.73001 c 2.58049,-0.4717 3.98946,3.36223 3.98946,11.3385 0,22.72098 16.75195,39.77505 39.16947,39.77505 12.67432,0 22.43952,-6.06505 24.29947,-15.29805 1.42734,-7.08096 7.4514,-10.25601 14.86994,-7.91899 5.19966,1.63778 6.0523,7.73903 1.08803,7.73903 -1.84731,6e-5 -3.42891,1.6405 -3.44548,3.77954 -0.0173,2.13898 -0.42609,6.0143 -1.08803,8.45888 -1.12901,4.16838 -0.20496,4.41411 17.22734,4.6794 10.22334,0.15531 28.57369,1.07111 40.62008,1.97981 l 21.94213,1.61977 12.14979,-8.09896 c 9.99742,-6.58779 12.53483,-7.43494 13.60051,-4.67946 0.72048,1.86382 0.70888,4.82576 0,6.65915 -1.97028,5.09539 4.10263,4.20568 20.31007,-3.23954 17.91797,-8.23117 27.34975,-8.57412 34.27321,-1.2599 l 5.07755,5.39942 -8.70437,2.33967 c -4.75412,1.26591 -12.38547,3.00305 -17.04594,3.95944 -11.11685,2.28154 -11.64045,5.6922 -1.08797,8.27904 5.8456,1.43328 8.43591,3.1829 7.97893,5.57926 -0.89975,4.72086 -13.71258,5.16 -26.47564,0.89987 -6.32041,-2.10971 -21.68047,-3.73323 -41.34551,-4.31942 -17.24166,-0.51443 -38.15004,-2.497 -46.42301,-4.31948 -16.25484,-3.58041 -41.51422,-1.63876 -47.87373,3.59963 -7.09759,5.84612 -36.91992,-2.37506 -54.94603,-15.1182 -8.12898,-5.74653 -11.3225,-9.79673 -14.14449,-18.35763 -4.55851,-13.83313 -4.56619,-20.97939 0,-27.89656 2.27397,-3.44409 4.43575,-5.29648 5.98422,-5.57927 z m -64.01298,9.17879 c 1.00829,-0.0346 2.40179,0.49248 3.98952,1.79978 5.67314,4.67352 8.53307,17.01234 6.89084,30.05622 -1.28386,10.19828 -2.87234,13.08574 -8.8856,17.63784 -3.9483,2.98919 -11.58618,6.21303 -17.04599,7.01913 -8.36062,1.23444 -12.39794,0.28579 -25.38761,-5.75923 -21.9109,-10.19602 -35.11702,-8.89438 -56.57804,5.57927 -12.42843,8.38192 -17.03352,7.09263 -15.77656,-4.31948 0.80044,-7.26947 -18.9064,-7.40244 -35.3613,-0.18014 -12.36832,5.4287 -25.84828,7.18282 -33.36659,4.31948 -2.10025,-0.79975 -3.44543,-3.9263 -3.44543,-7.73903 0,-3.53607 -0.55252,-6.47925 -1.08802,-6.47925 -0.53521,0 -8.30109,1.55597 -17.22728,3.41961 -17.86179,3.72902 -45.30866,4.89892 -58.39151,2.33968 -5.66206,-1.10754 -13.30566,-0.45265 -23.030099,2.15976 -14.526704,3.90275 -28.327847,3.43942 -37.17471,-1.25978 -3.681444,-1.95527 -8.314715,-10.09661 -11.605751,-20.15759 -1.601005,-4.89181 3.367247,-27.06407 6.165512,-27.35662 1.231497,-0.12875 2.807156,6.27336 3.445479,14.21834 0.638901,7.94503 2.398504,16.80876 3.989463,19.61753 5.615813,9.9111 21.525743,11.35812 36.993362,3.41955 3.522672,-1.80804 12.010884,-4.11307 18.859404,-5.2194 6.84904,-1.10627 12.93234,-2.57615 13.60045,-3.23959 0.66818,-0.6635 -0.3314,-4.78229 -2.35739,-8.99882 -2.4272,-5.05203 -2.98498,-8.05774 -1.45072,-8.99888 3.44149,-2.11099 12.69793,7.40139 14.32584,14.75816 1.50724,6.80996 1.82167,7.03472 15.59527,6.65915 23.32213,-0.63607 35.07476,-2.86177 41.34552,-8.09901 3.50778,-2.92904 7.79949,-5.39931 9.61094,-5.39931 5.67591,6e-5 14.78755,8.73116 16.3206,15.65803 0.80766,3.652 1.88443,6.47919 2.35745,6.47919 0.47228,0 6.03446,-1.85614 12.33109,-4.31942 16.05467,-6.28087 32.05166,-3.79045 37.53734,5.93925 1.90521,3.37827 3.3161,3.19184 16.13931,-2.51969 17.37388,-7.73829 32.43983,-8.27673 47.14834,-1.61983 31.28258,14.15853 49.2166,3.91354 41.16417,-23.57708 -2.9019,-9.90804 -2.66108,-15.73107 0.36258,-15.838 z m -168.46486,39.05515 c -2.70676,0.0866 -5.44018,2.76287 -5.44018,6.47913 -6e-5,3.56788 8.03048,4.31226 10.15503,0.89998 0.79438,-1.27595 0.23094,-3.96435 -1.26937,-5.75923 -0.96909,-1.15927 -2.21554,-1.65937 -3.44548,-1.61988 z"
     id="path9058" />
</svg>
