<?xml version="1.0" encoding="UTF-8" standalone="no"?>
<!-- Created with Inkscape (http://www.inkscape.org/) -->

<svg
   xmlns:dc="http://purl.org/dc/elements/1.1/"
   xmlns:cc="http://creativecommons.org/ns#"
   xmlns:rdf="http://www.w3.org/1999/02/22-rdf-syntax-ns#"
   xmlns:svg="http://www.w3.org/2000/svg"
   xmlns="http://www.w3.org/2000/svg"
   xmlns:sodipodi="http://sodipodi.sourceforge.net/DTD/sodipodi-0.dtd"
   xmlns:inkscape="http://www.inkscape.org/namespaces/inkscape"
   width="1000"
   height="1000"
   id="svg2"
   version="1.1"
   inkscape:version="0.47 r22583"
   sodipodi:docname="S.svg">
  <defs
     id="defs4">
    <inkscape:perspective
       sodipodi:type="inkscape:persp3d"
       inkscape:vp_x="0 : 526.18109 : 1"
       inkscape:vp_y="0 : 1000 : 0"
       inkscape:vp_z="744.09448 : 526.18109 : 1"
       inkscape:persp3d-origin="372.04724 : 350.78739 : 1"
       id="perspective10" />
    <inkscape:perspective
       id="perspective2940"
       inkscape:persp3d-origin="0.5 : 0.33333333 : 1"
       inkscape:vp_z="1 : 0.5 : 1"
       inkscape:vp_y="0 : 1000 : 0"
       inkscape:vp_x="0 : 0.5 : 1"
       sodipodi:type="inkscape:persp3d" />
    <inkscape:perspective
       id="perspective2953"
       inkscape:persp3d-origin="0.5 : 0.33333333 : 1"
       inkscape:vp_z="1 : 0.5 : 1"
       inkscape:vp_y="0 : 1000 : 0"
       inkscape:vp_x="0 : 0.5 : 1"
       sodipodi:type="inkscape:persp3d" />
    <inkscape:perspective
       id="perspective2966"
       inkscape:persp3d-origin="0.5 : 0.33333333 : 1"
       inkscape:vp_z="1 : 0.5 : 1"
       inkscape:vp_y="0 : 1000 : 0"
       inkscape:vp_x="0 : 0.5 : 1"
       sodipodi:type="inkscape:persp3d" />
    <inkscape:perspective
       id="perspective2979"
       inkscape:persp3d-origin="0.5 : 0.33333333 : 1"
       inkscape:vp_z="1 : 0.5 : 1"
       inkscape:vp_y="0 : 1000 : 0"
       inkscape:vp_x="0 : 0.5 : 1"
       sodipodi:type="inkscape:persp3d" />
    <inkscape:perspective
       id="perspective2992"
       inkscape:persp3d-origin="0.5 : 0.33333333 : 1"
       inkscape:vp_z="1 : 0.5 : 1"
       inkscape:vp_y="0 : 1000 : 0"
       inkscape:vp_x="0 : 0.5 : 1"
       sodipodi:type="inkscape:persp3d" />
    <inkscape:perspective
       id="perspective3005"
       inkscape:persp3d-origin="0.5 : 0.33333333 : 1"
       inkscape:vp_z="1 : 0.5 : 1"
       inkscape:vp_y="0 : 1000 : 0"
       inkscape:vp_x="0 : 0.5 : 1"
       sodipodi:type="inkscape:persp3d" />
    <inkscape:perspective
       id="perspective3018"
       inkscape:persp3d-origin="0.5 : 0.33333333 : 1"
       inkscape:vp_z="1 : 0.5 : 1"
       inkscape:vp_y="0 : 1000 : 0"
       inkscape:vp_x="0 : 0.5 : 1"
       sodipodi:type="inkscape:persp3d" />
    <inkscape:perspective
       id="perspective3031"
       inkscape:persp3d-origin="0.5 : 0.33333333 : 1"
       inkscape:vp_z="1 : 0.5 : 1"
       inkscape:vp_y="0 : 1000 : 0"
       inkscape:vp_x="0 : 0.5 : 1"
       sodipodi:type="inkscape:persp3d" />
    <inkscape:perspective
       id="perspective3044"
       inkscape:persp3d-origin="0.5 : 0.33333333 : 1"
       inkscape:vp_z="1 : 0.5 : 1"
       inkscape:vp_y="0 : 1000 : 0"
       inkscape:vp_x="0 : 0.5 : 1"
       sodipodi:type="inkscape:persp3d" />
    <inkscape:perspective
       id="perspective3057"
       inkscape:persp3d-origin="0.5 : 0.33333333 : 1"
       inkscape:vp_z="1 : 0.5 : 1"
       inkscape:vp_y="0 : 1000 : 0"
       inkscape:vp_x="0 : 0.5 : 1"
       sodipodi:type="inkscape:persp3d" />
    <inkscape:perspective
       id="perspective3070"
       inkscape:persp3d-origin="0.5 : 0.33333333 : 1"
       inkscape:vp_z="1 : 0.5 : 1"
       inkscape:vp_y="0 : 1000 : 0"
       inkscape:vp_x="0 : 0.5 : 1"
       sodipodi:type="inkscape:persp3d" />
    <inkscape:perspective
       id="perspective3083"
       inkscape:persp3d-origin="0.5 : 0.33333333 : 1"
       inkscape:vp_z="1 : 0.5 : 1"
       inkscape:vp_y="0 : 1000 : 0"
       inkscape:vp_x="0 : 0.5 : 1"
       sodipodi:type="inkscape:persp3d" />
    <inkscape:perspective
       id="perspective3096"
       inkscape:persp3d-origin="0.5 : 0.33333333 : 1"
       inkscape:vp_z="1 : 0.5 : 1"
       inkscape:vp_y="0 : 1000 : 0"
       inkscape:vp_x="0 : 0.5 : 1"
       sodipodi:type="inkscape:persp3d" />
    <inkscape:perspective
       id="perspective3109"
       inkscape:persp3d-origin="0.5 : 0.33333333 : 1"
       inkscape:vp_z="1 : 0.5 : 1"
       inkscape:vp_y="0 : 1000 : 0"
       inkscape:vp_x="0 : 0.5 : 1"
       sodipodi:type="inkscape:persp3d" />
    <inkscape:perspective
       id="perspective3122"
       inkscape:persp3d-origin="0.5 : 0.33333333 : 1"
       inkscape:vp_z="1 : 0.5 : 1"
       inkscape:vp_y="0 : 1000 : 0"
       inkscape:vp_x="0 : 0.5 : 1"
       sodipodi:type="inkscape:persp3d" />
    <inkscape:perspective
       id="perspective3135"
       inkscape:persp3d-origin="0.5 : 0.33333333 : 1"
       inkscape:vp_z="1 : 0.5 : 1"
       inkscape:vp_y="0 : 1000 : 0"
       inkscape:vp_x="0 : 0.5 : 1"
       sodipodi:type="inkscape:persp3d" />
    <inkscape:perspective
       id="perspective3148"
       inkscape:persp3d-origin="0.5 : 0.33333333 : 1"
       inkscape:vp_z="1 : 0.5 : 1"
       inkscape:vp_y="0 : 1000 : 0"
       inkscape:vp_x="0 : 0.5 : 1"
       sodipodi:type="inkscape:persp3d" />
  </defs>
  <sodipodi:namedview
     id="base"
     pagecolor="#ffffff"
     bordercolor="#666666"
     borderopacity="1.0"
     inkscape:pageopacity="0.0"
     inkscape:pageshadow="2"
     inkscape:zoom="0.532"
     inkscape:cx="500"
     inkscape:cy="500"
     inkscape:document-units="px"
     inkscape:current-layer="svg2"
     showgrid="false"
     showborder="true"
     inkscape:showpageshadow="false"
     showguides="true"
     inkscape:guide-bbox="true"
     inkscape:window-width="1280"
     inkscape:window-height="750"
     inkscape:window-x="0"
     inkscape:window-y="26"
     inkscape:window-maximized="1">
    <sodipodi:guide
       orientation="0,1"
       position="0,200"
       id="guide2818" />
  </sodipodi:namedview>
  <metadata
     id="metadata7">
    <rdf:RDF>
      <cc:Work
         rdf:about="">
        <dc:format>image/svg+xml</dc:format>
        <dc:type
           rdf:resource="http://purl.org/dc/dcmitype/StillImage" />
        <dc:title></dc:title>
      </cc:Work>
    </rdf:RDF>
  </metadata>
  <g
     inkscape:label="Layer 1"
     inkscape:groupmode="layer"
     id="layer1" />
  <path
     style="fill:#800000"
     d="M 0,0 0,6.2181093 0,793.78189 0,800 l 6.3111788,0 724.5244512,0 6.31118,0 0,-6.21811 0,-787.5637807 L 737.14681,0 730.83563,0 6.3111788,0 0,0 z m 15.146899,12.258567 667.723671,0 c 27.51568,0.396065 37.7897,0.95506 38.04749,1.776577 0.64381,2.051515 2.67835,278.684396 3.7867,489.984416 l 0,282.65596 -191.86014,0.35507 c -58.71933,0.11663 -114.18764,0.38452 -167.15634,0.71061 l -353.24623,0 0,-511.30352 C 13.460042,192.36521 14.554359,98.296299 14.786167,61.647559 L 15.147014,12.258336 z M 370.01595,22.029774 C 200.32225,22.146977 30.743787,22.652335 29.933066,23.451048 29.428458,23.947573 28.745967,85.372389 28.31018,159.8934 27.874854,234.41435 26.440244,326.83531 25.244773,365.44521 24.049072,404.05522 22.443564,512.98738 21.638385,607.41725 L 20.195807,779.0362 359.3771,777.79257 c 330.2066,-1.23571 355.08516,-1.4562 357.57384,-3.90851 0.6527,-0.64295 0.0347,-55.85693 -1.44257,-122.58492 -1.47815,-66.72799 -2.98418,-234.94655 -3.24566,-373.97291 -0.26097,-139.02642 -1.12509,-253.562372 -1.98356,-254.408196 -0.80951,-0.797442 -170.56944,-1.005463 -340.2632,-0.88826 z m -94.12681,22.029774 c 0.67192,5.8e-5 6.90193,5.030837 13.88457,11.014887 14.16528,12.138534 23.17264,16.361652 38.76878,18.654212 l 10.6388,1.598984 0,-12.436219 0,-12.258451 11.36015,7.639268 c 13.79415,9.348584 22.35413,11.067888 42.91604,8.705353 20.1749,-2.318021 34.82972,-2.336901 62.02999,0 l 21.81864,1.95423 0,-8.527586 0,-8.350049 8.29474,7.817035 c 13.94427,13.16282 20.17219,15.286619 37.68682,12.791465 8.3217,-1.18554 18.37933,-2.107979 22.35962,-2.131882 6.76821,-0.04041 7.21277,0.413964 7.21277,7.461674 -5e-5,4.144482 1.08503,10.239904 2.34418,13.50213 1.25863,3.262343 1.84442,6.354596 1.26221,6.92866 -0.58272,0.57389 -5.83994,-1.253264 -11.72076,-4.08617 -14.90412,-7.179462 -36.38598,-6.937724 -44.53887,0.532899 -3.112,2.851035 -6.567,7.643132 -7.75381,10.659582 l -2.16381,5.50744 -3.24577,-5.50744 c -1.70089,-3.0165 -3.02217,-8.466328 -3.06547,-12.258508 -0.0953,-8.351666 -2.76489,-9.562205 -20.91709,-9.593613 -7.55325,-0.01155 -18.52206,-1.581663 -24.52349,-3.375562 -8.4878,-2.536781 -13.74439,-2.761141 -23.44152,-1.065912 -21.19723,3.70552 -34.66789,8.008371 -34.98203,11.192539 -0.16455,1.673231 -0.57978,7.308328 -0.72123,12.436156 -0.14088,5.12784 -1.01003,9.23826 -1.9835,9.23826 -0.97354,0 -3.52712,-4.41226 -5.77032,-9.77121 -2.24319,-5.359238 -5.3112,-10.254801 -6.8521,-10.837236 -1.54032,-0.582378 -7.97581,0.498834 -14.24524,2.309534 -9.24103,2.66911 -14.34409,2.802652 -26.86766,0.888318 -21.95651,-3.356336 -33.22364,-2.897685 -47.60434,1.776578 -14.21522,4.620226 -18.03488,3.364534 -20.55642,-6.928718 -1.25107,-5.106124 -0.66933,-6.452861 3.24566,-7.461673 7.44256,-1.917626 5.53435,-6.904931 -3.24566,-8.527643 -11.52977,-2.131247 -26.09065,0.421468 -38.76878,6.751007 -6.20691,3.098836 -14.75257,5.548263 -19.47452,5.507444 -10.03206,-0.0866 -23.80046,-8.731103 -31.19534,-19.542473 -2.76431,-4.041598 -8.16194,-9.764914 -12.08137,-12.613813 -3.91897,-2.849014 -6.75084,-5.152197 -6.13087,-5.152139 1.09362,5.8e-5 13.17529,6.039707 27.40858,13.679783 10.35277,5.557038 25.71537,4.85688 40.75223,-1.776578 11.16725,-4.926336 15.07877,-5.496359 29.57245,-4.619184 10.22772,0.618867 20.61138,2.741626 26.68729,5.507444 14.6651,6.675374 16.97781,3.891716 7.93407,-9.238309 -3.02488,-4.391302 -5.00036,-7.994687 -4.32762,-7.99463 z m -140.82967,18.65427 c 2.06774,-0.03464 4.08836,-0.01155 5.95051,0.355073 8.91499,1.756717 24.52348,16.032099 24.52348,22.385136 -6e-5,4.803706 -6.11736,9.72115 -15.32721,12.436103 -3.98946,1.17636 -6.69292,0.127018 -11.7207,-4.619126 -5.50207,-5.193536 -6.90891,-5.741099 -8.65541,-3.020142 -6.46793,10.078358 0.0733,26.034128 12.62241,30.735008 3.28671,1.23127 91.47613,2.13189 219.26872,2.13189 242.2591,-6e-5 223.28734,1.43339 232.61231,-18.29891 9.32722,-19.737275 5.13292,-31.964318 -5.7702,-16.877637 -5.19047,7.181714 -14.88616,9.137329 -17.13034,3.375503 -1.72877,-4.438413 3.36205,-16.714127 8.83561,-21.496702 6.47728,-5.659981 23.35099,-4.95174 31.01502,1.243564 9.1121,7.365659 13.6291,19.701592 10.81917,29.669102 -3.14168,11.1456 -3.39912,10.73625 5.95056,13.67984 10.79549,3.39883 12.44234,5.06126 10.6388,10.65947 -1.78524,5.54272 -5.22927,5.81038 -15.32709,1.06597 -7.2995,-3.42926 -8.09734,-3.40721 -18.75329,1.59898 -8.75754,4.11457 -11.63491,6.70903 -13.52395,12.61381 -3.2941,10.29706 1.68859,18.23448 15.68776,24.69461 9.43946,4.35609 11.85511,4.57462 18.21231,2.3096 10.16687,-3.62239 10.27772,-3.45882 10.27818,5.15208 -1.7e-4,6.29703 -0.7359,7.63938 -4.50793,7.63938 -2.52973,6e-5 -6.62757,1.04992 -9.01597,2.30953 -4.24575,2.23852 -4.22502,2.52836 1.08191,11.5479 19.45725,33.07174 -2.34614,72.61534 -34.80167,63.06901 -10.31542,-3.03417 -12.75013,-5.42303 -12.80272,-12.43616 -0.0745,-10.05013 12.99134,-15.3227 22.53992,-9.0606 7.32294,4.80284 12.10291,3.09601 15.14684,-5.50744 3.95506,-11.1769 2.73995,-19.42862 -4.50792,-30.55742 -11.15819,-17.13115 -34.74336,-28.76277 -67.61989,-33.39996 -15.41023,-2.17357 -136.70898,-3.56869 -137.94463,-1.59887 -0.64791,1.03288 -1.7383,44.45324 -2.52442,96.64668 l -1.44258,94.8701 5.22933,-1.59898 c 21.35796,-6.74731 34.29642,-4.56722 43.63738,7.46173 5.56443,7.16566 5.98238,9.69973 5.7702,24.33931 -0.21939,15.11699 -0.48959,16.56817 -6.31123,21.1414 -3.45178,2.712 -10.26098,6.61469 -14.96654,8.70535 -7.87662,3.4994 -9.45695,3.62613 -20.73673,0.5329 -6.73871,-1.848 -12.89902,-2.59515 -13.52395,-1.59887 -0.62493,0.99611 -0.637,18.92678 0,39.79561 0.63699,20.86894 1.81185,56.66678 2.52442,79.59145 1.38681,44.64683 3.7143,59.29178 14.60592,95.403 17.42145,57.76145 17.57052,58.2675 41.47358,77.81482 11.45771,9.37058 16.73681,12.12347 26.86754,14.03509 13.99577,2.64099 27.30027,2.04227 36.60486,-1.59893 8.16784,-3.19658 7.85832,-6.37197 -1.26215,-10.12663 -8.14913,-3.3546 -10.45849,-6.8465 -10.45849,-16.52227 5e-5,-16.71239 34.86673,-20.82125 42.1948,-4.97449 9.07942,19.63318 -7.52333,47.9194 -33.17889,56.318 -11.59374,3.79536 -13.32246,3.70714 -32.27719,0.35508 -11.01765,-1.94817 -22.54385,-4.57081 -25.60544,-5.86275 -11.50114,-4.85301 -29.70241,-8.52765 -42.55543,-8.52765 -13.48931,-5e-5 -25.52808,5.16623 -32.99853,14.03509 -4.33934,5.15093 -8.62481,4.36359 -14.6058,-2.48724 l -5.22939,-5.86269 8.65547,-10.30428 c 7.47709,-8.79917 8.67216,-11.49606 9.01591,-21.85212 0.4717,-14.24305 -1.75302,-18.75312 -14.06493,-29.13609 -7.28085,-6.14051 -11.19958,-7.99474 -18.03194,-7.99474 -17.66977,5e-5 -33.10274,13.9923 -35.88369,32.51176 -1.93223,12.8686 4.96317,28.23853 14.065,31.62327 l 6.49154,2.48724 -4.68835,6.21811 c -6.06326,8.0802 -13.42875,7.99406 -23.08091,-0.35565 -9.53997,-8.25288 -17.71035,-8.50258 -34.08043,-0.88826 -6.73536,3.13279 -17.78812,7.71958 -24.52343,10.12651 -8.86337,3.16755 -19.61066,4.52196 -38.94903,5.1522 -38.08543,1.24172 -50.09903,-3.03654 -59.32521,-21.85212 -13.24717,-27.01327 7.67472,-55.07426 35.34265,-47.43499 16.53399,4.56497 22.74078,24.60333 10.63885,34.11051 -12.68696,9.96687 -1.2267,12.71093 23.08091,5.5075 18.19989,-5.39359 26.85703,-10.7336 45.26027,-27.53721 12.14748,-11.09162 15.91288,-16.54895 23.9825,-34.11058 5.26681,-11.46239 10.28627,-24.20247 11.17984,-28.42548 0.89415,-4.22294 5.1951,-23.51091 9.55695,-42.81592 7.6141,-33.69661 8.0011,-37.73267 10.27818,-101.62117 1.30523,-36.60209 1.7584,-67.49807 1.08191,-68.57651 -0.67649,-1.07861 -7.00447,-1.27866 -14.24524,-0.5329 -19.03798,1.96053 -26.05325,-1.49852 -32.63786,-16.16702 -6.69974,-14.92647 -6.5841,-22.2072 0.36084,-35.7095 7.46716,-14.51874 14.38682,-18.09395 30.83473,-15.45642 6.89373,1.10552 13.57915,2.64071 14.78616,3.37556 2.70791,1.64904 2.41219,12.22814 2.16381,-96.46903 -0.15762,-68.91097 -0.8733,-92.80196 -2.8851,-94.69239 -1.84453,-1.73322 -21.84207,-2.92014 -63.83313,-3.55316 -57.36342,-0.86528 -62.5491,-0.4844 -82.22581,4.08612 -18.81489,4.37034 -21.73977,5.76084 -28.49049,13.32453 -8.17487,9.15973 -17.80024,26.50687 -17.13034,30.91267 0.22863,1.5081 0.38798,4.31237 0.54098,6.21811 0.21132,2.62782 1.91699,2.98313 6.6718,1.95422 8.61782,-1.86479 18.2123,5.64492 18.2123,14.21274 -5e-5,9.24963 -5.40155,13.14683 -17.85157,13.14683 -9.67964,-6e-5 -11.46696,-0.75922 -18.75329,-8.70529 l -8.11437,-8.7053 1.62289,-15.98943 c 0.82833,-8.78486 3.19277,-18.68291 5.40958,-22.38502 4.77836,-7.97887 3.37845,-10.94797 -7.57345,-15.45636 -8.361828,-3.44242 -10.591918,-8.75131 -5.77026,-13.50213 1.70816,-1.68282 5.50485,-1.15812 13.34371,1.77657 14.40765,5.39365 15.83008,5.19371 23.98256,-2.30947 9.05852,-8.33677 9.28092,-16.97804 0.54098,-25.22769 -8.98133,-8.47787 -22.87075,-10.0574 -31.55595,-3.73086 -3.54508,2.58239 -6.83126,4.61912 -7.39309,4.61912 -0.562339,0 -3.133011,-3.43474 -5.770251,-7.63938 -6.030411,-9.61359 -4.493782,-15.51548 5.589947,-20.25308 7.707284,-3.62122 9.786734,-8.656796 5.229274,-13.146826 -3.68704,-3.632484 -0.57504,-16.719901 5.58983,-23.273338 5.14689,-5.471416 15.38494,-9.081499 24.34324,-9.238251 z m 97.37259,128.447602 c 2.27483,0 7.16399,3.82521 10.99947,8.5277 6.90539,8.46587 7.16532,8.5665 19.65488,7.46168 7.23535,-0.64017 16.97273,-0.0289 22.72029,1.59892 l 9.91751,2.84255 -11.17978,1.59893 c -12.90832,1.72744 -24.05623,6.66879 -32.81816,14.74575 -9.62473,8.87215 -7.44545,11.5016 4.50798,5.50744 12.57554,-6.30662 22.2356,-5.4336 33.53946,3.0202 9.14841,6.84142 8.04861,8.61384 -2.34418,3.73081 -9.71844,-4.56595 -21.48677,-2.69151 -30.11343,4.61918 -5.09186,4.31515 -6.13133,6.97543 -6.13081,15.63402 6e-5,6.53403 1.09535,10.60485 2.88515,11.19248 4.60908,1.51394 16.65865,29.17759 18.39256,42.28297 0.87821,6.63611 0.63047,18.45098 -0.54098,26.29353 -2.3018,15.40868 -5.18898,20.84626 -7.39309,14.03515 -0.74831,-2.31335 -3.41037,-8.60553 -5.77031,-14.03515 -2.35924,-5.4295 -5.00214,-13.73896 -5.9505,-18.4765 -0.94825,-4.73771 -2.84163,-8.98704 -4.14737,-9.41596 -2.42662,-0.79698 -14.06494,15.13195 -14.06494,19.18723 6e-5,1.23242 -0.9173,2.13194 -1.98356,2.13194 -1.0673,-6e-5 -2.74405,-8.86113 -3.60633,-19.72024 -1.9092,-24.0463 -4.92997,-25.4666 -12.08149,-5.50745 -2.80704,7.8339 -5.90051,13.72638 -6.8521,13.14677 -0.95154,-0.57949 -3.00317,-7.42108 -4.50799,-15.27865 -1.71746,-8.96603 -3.75459,-14.21279 -5.58989,-14.21279 -1.60833,5e-5 -6.06453,5.4448 -9.91756,12.08085 -3.85367,6.63617 -8.39809,11.90315 -10.09794,11.90315 -3.36309,6e-5 -8.87169,-16.21391 -6.67185,-19.72018 0.7389,-1.17873 0.39202,-2.13189 -0.72117,-2.13189 -1.11285,0 -3.62267,6.60142 -5.58995,14.7457 l -3.42608,14.92335 0.90154,-18.47645 c 1.08323,-18.23944 1.32122,-18.31369 13.52401,-34.28834 6.75563,-8.84357 14.20102,-16.66361 16.58936,-17.41053 6.73536,-2.10619 5.04753,-5.5075 -2.70479,-5.5075 -8.49941,5e-5 -21.12887,-7.4421 -23.08085,-13.50213 -2.12304,-6.5897 0.2575,-7.42034 6.85211,-2.30954 4.08495,3.16598 7.747,4.22953 12.08143,3.37556 3.42337,-0.67452 8.47568,-0.004 11.17984,1.42128 7.42218,3.91365 8.6882,0.26962 1.80313,-5.1522 -10.66587,-8.39901 -17.37589,-19.10328 -17.13034,-27.53716 l 0.18014,-7.81698 2.34417,7.28403 c 1.73559,5.35178 4.60417,8.32349 10.27824,10.65952 l 7.93407,3.3755 11.90106,-13.50207 c 6.5968,-7.36069 13.95334,-13.32448 16.22881,-13.32448 z m 309.24822,9.94892 c 1.27515,0.0647 2.34354,2.86345 2.34412,7.81709 -6e-5,6.99003 -5.89664,19.39583 -10.63885,22.38502 -3.7106,2.33852 -3.5023,4.89915 0.72128,9.0606 5.9176,5.83001 14.24121,4.05038 22.53999,-4.61907 4.18149,-4.36815 8.02938,-7.55335 8.47499,-7.10642 0.44629,0.44687 -0.53348,4.75538 -2.16381,9.4159 -3.6236,10.35757 -13.21115,20.6111 -22.9006,24.69473 -3.97982,1.67727 -7.21278,4.16174 -7.21278,5.50744 -1.1e-4,1.34587 3.49819,6.19623 7.75376,10.83718 10.54036,11.49478 23.33315,37.05849 25.96595,52.05418 1.19333,6.79667 2.70969,15.62125 3.42613,19.54253 1.09132,5.97683 0.62539,7.12854 -2.8851,7.10642 -2.30272,-0.0173 -8.55529,-2.50577 -13.88462,-5.50744 -11.24872,-6.33572 -11.36021,-6.29727 -11.36021,-2.4873 1.2e-4,1.58628 3.34756,4.41041 7.57345,6.39576 6.12579,2.87817 8.17436,5.64445 10.09794,13.14683 3.57879,13.96199 7.20607,21.14422 8.29468,16.52227 0.47805,-2.0305 -0.61356,-6.66354 -2.52443,-10.30428 -1.91093,-3.64074 -3.42608,-8.10895 -3.42608,-10.12657 0,-6.12446 5.58891,0.0849 8.47499,9.41596 2.96985,9.60251 11.26505,23.54464 12.98309,21.85212 0.64848,-0.63913 -1.05471,-5.86471 -3.60645,-11.54784 -5.00861,-11.15588 -6.02077,-19.75927 -2.16381,-17.41065 2.54995,1.55286 1.44431,-8.16293 -2.70479,-24.33931 -1.83304,-7.14609 -1.4551,-10.75409 1.44252,-17.58818 10.94278,-25.80313 29.50941,-42.63827 47.06347,-42.63827 19.64056,-6e-5 29.46385,8.3348 39.85057,33.57755 11.16264,27.12851 16.04827,56.8643 17.67133,109.08279 2.68123,86.26688 3.59824,104.29963 6.85216,128.27007 1.80192,13.27217 3.6162,27.34674 4.14742,31.26802 1.58963,11.72861 -3.64501,8.89242 -9.19633,-4.97443 -16.92042,-42.26686 -22.75909,-61.59993 -30.6543,-99.66688 -8.62954,-41.60279 -16.60004,-111.49139 -15.32726,-135.55403 0.20727,-3.92139 -0.49768,-7.10643 -1.62283,-7.10643 -1.12607,6e-5 -1.98356,2.14233 -1.98356,4.79684 6e-5,8.55997 -3.78433,1.22884 -8.11437,-15.81167 -3.86256,-15.19793 -4.22064,-15.74844 -4.8686,-7.99468 -0.40819,4.87945 1.80261,15.87084 5.22927,26.29353 4.7734,14.5173 5.33314,19.0997 3.42608,23.98407 -4.8298,12.36826 -11.64212,4.0633 -17.31071,-20.78616 -2.14551,-9.4021 -4.47992,-17.05528 -5.22927,-17.05528 -3.67377,5e-5 1.10557,24.53613 7.39314,37.84144 5.65559,11.96861 6.56573,15.87684 4.8686,20.60844 -2.98325,8.31593 -6.03948,8.40663 -12.08143,0.35507 -4.92796,-6.56764 -7.55977,-14.68317 -10.45855,-31.97863 -0.65946,-3.93254 -2.2003,-7.78107 -3.42608,-8.5277 -2.49983,-1.52197 -0.20092,18.85253 3.06552,27.35956 2.82794,7.36624 2.38459,16.29884 -0.72135,15.27865 -1.44067,-0.47285 -3.7218,-4.75728 -5.04896,-9.4159 -2.4567,-8.62851 -7.93401,-13.13684 -7.93401,-6.57336 6e-5,1.98847 2.06912,8.39272 4.68829,14.39045 4.67577,10.71005 4.75642,11.0948 0.72129,18.47651 -3.40316,6.22584 -5.97106,7.87067 -14.96653,9.77132 -5.97222,1.26198 -11.76505,1.87542 -12.80272,1.24356 -1.03786,-0.63203 -2.50901,-0.28637 -3.24578,0.88826 -0.73716,1.1748 1.93847,3.99651 5.95051,6.0404 16.73959,8.52845 21.82014,14.48756 36.78528,44.59256 9.49477,19.10051 18.6239,33.8361 25.60539,41.57231 15.82454,17.53512 20.09287,27.6782 20.0155,47.07969 -0.0652,16.29468 -5.23574,33.50175 -9.19628,31.09043 -1.13531,-0.6915 -2.5989,-6.45846 -3.42614,-12.79152 -2.20913,-16.91499 -9.44656,-39.94896 -14.42555,-45.83613 -5.47909,-6.47798 -5.50582,-5.6314 -0.18013,8.1724 7.0973,18.39821 11.89864,48.6677 10.27818,64.31263 -1.5312,14.77727 0.48902,16.24052 5.40958,4.08616 1.59731,-3.94714 4.75152,-9.70284 7.03247,-12.96917 2.28153,-3.26604 5.77926,-9.81376 7.57345,-14.39033 l 3.24571,-8.35005 -0.72123,13.14677 c -0.98693,17.03802 -9.66422,34.72124 -23.80219,48.67867 -14.39339,14.21003 -16.05906,22.74044 -4.32768,22.74044 5.73331,-6e-5 6.77843,0.54906 5.40964,3.73081 -10.33014,24.01454 -12.23166,44.82477 -5.77025,63.60208 8.50766,24.72457 4.44378,43.08289 -8.47499,38.37439 l -4.86866,-1.77658 4.50793,-4.08617 c 5.253,-4.6839 6.00062,-9.94891 1.44257,-9.94891 -1.70423,0 -3.73063,2.45635 -4.50792,5.50744 -1.44402,5.6691 -15.40071,14.31787 -18.39262,11.37019 -0.84865,-0.8363 2.16468,-4.99325 6.6718,-9.06066 6.08185,-5.48862 8.29468,-8.9632 8.29468,-14.03508 -1.2e-4,-7.90237 -0.60622,-8.31478 -6.67185,-3.19786 -5.50254,4.64199 -5.61097,6.57273 -0.54098,7.63939 2.94901,0.61996 1.94603,1.8014 -3.7867,4.79683 -4.16665,2.17686 -9.99938,6.81065 -12.98303,10.30417 -2.98394,3.49351 -6.27758,6.39576 -7.39308,6.39576 -4.31839,6e-5 -1.73882,-5.21548 6.85216,-13.67978 4.92858,-4.85585 8.49756,-9.39362 7.934,-9.94892 -0.5635,-0.55484 -5.35173,1.30696 -10.6388,3.90852 -5.74312,2.82568 -11.49565,7.94746 -14.42555,12.79146 -4.48777,7.41907 -6.4002,6.77174 -5.22933,-1.77658 0.85281,-6.22977 11.93987,-15.19545 26.32668,-21.31916 l 14.24524,-6.21805 -1.26227,-15.81167 c -1.55528,-18.37916 -2.69636,-21.08718 -17.31065,-38.90741 -11.91077,-14.52347 -21.99952,-33.46728 -21.999,-41.5723 6e-5,-2.90496 1.21706,-8.15121 2.52448,-11.54784 3.07863,-7.99602 22.24357,-35.7095 24.70374,-35.7095 1.03906,5e-5 2.91887,2.50133 4.14743,5.68509 3.63658,9.42289 5.09711,4.2278 2.1638,-7.81698 -2.32876,-9.56434 -4.2857,-12.21336 -13.16328,-18.12131 -15.21277,-10.12437 -35.77197,-29.57776 -45.44058,-42.99352 -6.82866,-9.47468 -8.35247,-13.01005 -7.21277,-18.12126 0.77839,-3.49132 2.54671,-7.06185 3.78669,-7.81703 1.24033,-0.75518 4.14091,-5.49203 6.49149,-10.48193 3.89166,-8.2612 4.17156,-8.4799 3.42608,-2.48719 -0.44976,3.61967 -1.42768,8.37032 -2.34418,10.48193 -1.03756,2.39135 -0.70448,3.90846 0.9016,3.90846 3.29006,-5e-5 9.67837,-14.9943 8.11437,-19.00957 -0.65015,-1.6689 -2.56634,-3.0202 -4.14731,-3.0202 -1.76341,-6e-5 -2.89826,-2.73331 -2.8851,-7.10631 0.0173,-4.88442 -0.95771,-7.10643 -3.24577,-7.10643 -2.36883,0 -3.68352,3.23636 -4.50798,11.01489 -1.54697,14.60182 -7.46029,23.75722 -19.1139,29.49144 -5.28309,2.59937 -11.5516,7.02681 -13.88463,9.94892 -4.63327,5.80363 -13.58712,10.11485 -23.08091,10.83724 -7.40804,0.56349 -16.25911,8.33619 -21.999,19.36487 -4.9522,9.51394 -8.65535,10.64746 -8.65535,2.66484 0,-7.73407 -4.79834,-8.67123 -15.68783,-3.19785 l -9.19627,4.61918 1.44252,-5.15214 c 0.86499,-2.79341 3.23122,-6.78501 5.22933,-9.06065 3.47475,-3.95632 3.37071,-4.17693 -3.60645,-3.19785 -12.67206,1.77802 -6.77237,-3.43861 8.47505,-7.46174 15.25394,-4.02508 35.52296,-12.54989 35.52296,-14.92334 5e-5,-2.29926 26.84387,-22.78455 38.40811,-29.31374 5.81742,-3.28434 10.63885,-6.60066 10.63885,-7.28402 6e-5,-2.95242 -13.26778,2.5429 -25.0644,10.30422 -11.4934,7.56184 -13.47644,8.20386 -19.29421,6.0404 -6.45015,-2.39874 -6.45419,-2.40208 -3.60645,-11.72555 1.57277,-5.14758 2.31415,-9.97837 1.62289,-10.65953 -0.69167,-0.68128 -4.51284,-0.73237 -8.47499,0 -5.787,1.06955 -7.61421,0.55599 -9.55695,-3.0202 -4.07399,-7.50076 -2.82742,-20.57853 3.0654,-30.73512 3.60697,-6.21598 5.18563,-11.37891 4.32768,-14.7457 -1.45695,-5.71979 0.97919,-14.98281 9.55701,-35.53185 8.6434,-20.70624 10.86466,-17.28213 3.78669,5.86275 -1.1442,3.74166 -0.92492,4.84302 0.9016,3.73087 1.4177,-0.86321 2.70473,-2.67246 2.70473,-4.08617 1.2e-4,-4.16348 9.50846,-25.76064 11.36015,-25.76064 1.46076,-6e-5 -2.74336,13.64231 -8.29462,27.18191 -1.1755,2.86645 -0.84,3.82896 1.08184,3.19791 1.52618,-0.50114 4.65233,-5.90553 6.85216,-11.9032 7.59609,-20.71052 9.5924,-24.43977 10.63886,-20.07555 0.52366,2.18321 -0.76424,8.01259 -2.70479,12.79152 -3.75021,9.2326 -4.71237,20.53535 -1.62283,18.65422 1.01736,-0.61945 3.16818,-6.63329 4.68829,-13.32442 3.15802,-13.90542 7.56445,-16.82891 5.40959,-3.55322 -1.69512,10.44348 0.43705,18.37726 3.60644,13.32442 1.60395,-2.55693 2.66657,-2.70236 4.86854,-0.5329 3.79929,3.74351 5.79203,3.46304 6.85211,-1.06602 0.72423,-3.09514 1.60452,-2.67627 3.96712,2.13199 3.88807,7.91357 7.20486,5.52125 5.40958,-3.90851 -0.93064,-4.88823 -0.70946,-7.63939 0.90159,-7.63939 1.44772,6e-5 2.52449,4.1711 2.52449,9.94898 -1.2e-4,5.42961 1.11955,9.77121 2.34411,9.77121 2.52166,0 2.47443,-24.38002 0,-32.86695 l -1.44257,-5.50745 -3.7867,7.10637 c -2.09118,3.92139 -5.39613,7.28402 -7.21277,7.28402 -1.84968,-1.1e-4 -6.46285,-6.40736 -10.4585,-14.39039 -7.38222,-14.75031 -10.08834,-16.66499 -15.14689,-10.65952 -2.8485,3.38127 -6.56106,5.10756 -17.13035,8.34999 -4.47351,1.37266 -4.71109,1.00465 -3.06546,-4.61913 0.98855,-3.37822 5.05214,-13.51362 8.83572,-22.56284 9.96508,-23.83574 10.64191,-27.70321 5.22922,-30.55731 -2.47674,-1.30568 -6.44888,-2.4873 -8.83567,-2.4873 -5.08158,0 -7.16947,-5.46552 -7.21277,-20.07548 -0.0404,-13.44798 -1.37278,-16.62274 -9.19628,-20.60844 -9.03433,-4.60291 -31.0988,-4.54113 -38.40811,0.17782 -4.93078,3.18307 -5.7702,3.35102 -5.7702,0.5329 -6e-5,-6.09981 15.35169,-11.30264 32.81816,-11.01489 8.8781,0.14607 16.22875,-0.34006 16.22875,-1.24356 6e-5,-4.07116 -18.04701,-10.09447 -33.53951,-11.1926 l -16.58936,-1.24356 11.17983,-3.90852 c 9.28491,-3.19572 13.40728,-3.4546 23.44153,-1.59893 6.67889,1.23508 13.24647,3.71072 14.60591,5.50745 3.72475,4.92183 5.22928,3.95372 5.22928,-3.19786 0,-3.54842 1.03785,-7.02178 2.34411,-7.81703 4.16822,-2.53811 4.69488,0.29445 1.44258,9.59356 -3.04115,8.69802 -3.16205,9.06065 1.26227,9.06065 2.5332,-6e-5 7.17063,-2.08771 10.09788,-4.79678 l 5.22927,-4.97448 6.13087,7.46173 c 7.12843,8.60495 10.3447,6.48623 5.40964,-3.55322 -3.02943,-6.16245 -6.53554,-8.45362 -19.11396,-12.43616 -5.9964,-1.89845 -4.50082,-5.76956 2.34418,-6.21805 10.99335,-0.72036 18.5642,0.41916 25.06446,3.73081 5.87083,2.99099 7.05048,2.86593 14.4255,-1.42122 5.30312,-3.08249 8.35599,-6.6987 9.19639,-10.83723 0.70495,-3.47452 1.89292,-5.20266 2.8851,-5.1522 z m -309.7892,3.19791 c -3.57671,-0.0462 -19.65489,16.37251 -19.65489,20.07554 0,3.07384 8.26143,2.04367 11.1799,-1.42133 1.52502,-1.80989 6.11159,-3.3755 10.09787,-3.3755 3.98635,0 8.47753,-1.62953 10.09794,-3.55322 2.51443,-2.98515 2.13326,-3.93478 -2.52454,-7.46173 -3.00127,-2.27241 -7.14829,-4.2368 -9.19628,-4.26376 z M 94.848164,260.8039 c 4.619356,0.15242 9.771896,1.54304 15.687826,3.90858 5.07385,2.02882 10.84843,13.4411 15.86807,31.62327 2.16537,7.84261 5.2071,17.5178 6.85216,21.31916 3.06102,7.07081 15.10642,17.48022 21.09734,18.29885 7.68586,1.05038 11.1799,-0.30311 11.1799,-4.26376 -6e-5,-4.59684 4.62813,-7.25654 13.88457,-7.99469 5.53111,-0.44167 5.95079,0.093 4.68835,5.32979 -2.26017,9.3733 -8.23013,18.12923 -11.5404,16.87764 -1.66751,-0.63047 -5.35496,0.5635 -8.29479,2.84255 -4.22191,3.27192 -4.78621,4.72403 -2.52448,6.57341 4.23091,3.45974 15.91737,1.59379 16.76972,-2.6649 0.39549,-1.97882 2.43655,-3.55321 4.50805,-3.55321 2.16369,0 5.47938,-3.62336 7.75375,-8.34999 3.76868,-7.83251 3.64421,-5.63412 0,7.81703 -0.79761,2.94249 -0.209,4.79672 1.26221,4.79672 1.35737,6e-5 2.34412,-1.38796 2.34412,-3.19779 6e-5,-1.80972 0.56235,-3.37556 1.26227,-3.37556 0.69993,0 2.85138,1.56578 4.6883,3.37556 6.38121,6.28756 9.93136,4.0379 9.55695,-6.04046 -0.35392,-9.52254 7.15071,-28.07017 11.36014,-28.07017 2.77604,6e-5 2.75514,5.73111 0,10.65958 -3.21667,5.75473 -9.46394,29.22754 -8.11437,30.55742 1.35182,1.33178 5.56928,-8.64069 7.39308,-17.58824 0.67649,-3.31812 2.18015,-6.0404 3.42608,-6.0404 1.42907,-6e-5 1.87733,5.03043 1.08185,13.67966 -1.18837,12.91445 -1.08889,13.48291 1.80325,7.28408 1.68888,-3.61966 3.0101,-7.90779 3.06547,-9.4159 0.0577,-1.50834 1.15678,-2.6649 2.52448,-2.6649 1.43063,0 2.09759,1.95608 1.44258,4.79672 -4.41659,19.17158 -4.51671,19.8416 -1.98356,18.29897 1.41596,-0.86222 2.70479,-3.00888 2.70479,-4.79684 6e-5,-6.18277 9.27705,-31.44573 11.54051,-31.44573 1.24911,-6e-5 1.64985,1.45361 0.90154,3.37556 -0.74877,1.9219 -1.96307,6.21009 -2.70479,9.41596 -0.74115,3.20594 -2.80537,9.93102 -4.50793,15.10106 -3.63064,11.02355 -3.86233,13.67978 -1.08202,13.67978 1.12434,6e-5 3.92284,-6.83282 6.13087,-15.27871 2.20809,-8.446 4.66745,-15.45642 5.58995,-15.45642 1.99753,-5e-5 0.12644,11.0045 -3.96701,23.09581 -1.61769,4.77905 -2.16837,9.12076 -1.44257,9.7712 0.72527,0.65016 1.67484,0.0935 2.16381,-1.24362 0.48844,-1.33709 2.19544,-4.25181 3.78669,-6.39576 2.41207,-3.24993 2.48805,-1.07117 0.90166,12.43622 -1.04698,8.91049 -2.94688,19.06477 -4.14737,22.56273 -3.09763,9.02313 -2.63747,12.31157 1.26221,10.83723 1.83697,-0.69455 3.24583,-0.32736 3.24583,0.88826 -6e-5,1.21574 3.883,3.12615 8.47499,4.26383 l 8.29468,2.13194 -6.31118,3.02019 c -8.38377,3.95315 -6.67745,8.48758 4.50799,12.79147 13.4269,5.16623 13.91447,6.75107 2.1638,6.75107 -8.14526,0 -10.27824,0.91083 -10.27824,3.73086 6e-5,1.97836 1.64402,4.79274 3.78676,6.3957 3.65257,2.73124 3.63283,3.02765 -0.54098,3.0202 -2.44937,-0.004 -7.03634,-1.47352 -10.09788,-3.19785 -7.72708,-4.35215 -7.85162,-4.33056 -16.58942,4.79684 -5.38302,5.62314 -7.75381,7.11976 -7.75381,4.61912 -6e-5,-1.99025 0.71782,-4.31353 1.80325,-4.97454 1.086,-0.66119 2.75508,-4.7682 3.60639,-9.23825 0.85137,-4.47023 3.67555,-11.833 6.31118,-16.34462 2.66911,-4.56953 3.96504,-8.95033 2.8851,-9.94898 -1.06615,-0.98554 -2.39943,-0.85113 -2.8851,0.35565 -0.48614,1.20656 -4.54176,9.49367 -9.19628,18.47656 -8.21928,15.86034 -13.70432,21.6609 -13.70432,14.56804 -6e-5,-1.91012 -0.93918,-3.37556 -2.16387,-3.37556 -3.74726,-5e-5 -2.49833,17.98962 1.98356,27.71487 6.11979,13.28078 19.21685,21.09412 36.96553,22.20743 11.89651,0.7464 15.33951,0.14376 23.62183,-4.61907 18.93879,-10.89185 30.59841,-12.50596 14.06494,-1.95429 -9.69817,6.18971 -9.68178,8.2806 -0.18013,11.37019 4.13807,1.3457 9.05072,4.27491 10.99947,6.39571 3.35091,3.64847 2.8105,3.69767 -10.81922,2.8426 -16.75322,-1.05113 -17.94459,0.81096 -8.83567,14.03503 3.06166,4.44506 5.58995,10.26675 5.58995,12.79147 0,3.75569 -0.94802,3.09294 -5.40958,-3.37545 -2.99895,-4.34875 -10.08396,-10.91108 -15.68782,-14.5681 -10.08425,-6.58086 -10.30382,-6.57376 -21.8187,-3.55321 -16.88323,4.42836 -18.82308,4.04367 -20.55648,-3.73081 -1.75741,-7.88609 -17.13709,-23.984 -22.90054,-23.984 -2.15815,-6e-5 -5.86084,-2.72235 -8.29468,-6.0404 -2.43337,-3.31806 -7.74059,-9.28254 -11.72082,-13.32454 -6.35049,-6.44888 -7.21277,-8.79184 -7.21277,-19.18717 0,-6.51545 -0.88988,-11.90315 -1.98356,-11.90315 -3.49559,0 -4.16071,5.16034 -2.34418,18.29891 1.51192,10.93851 5.35439,18.878 11.36021,23.45105 2.93105,2.23194 2.84226,10.16364 -0.18014,19.18717 -1.71024,5.10635 -3.70661,9.23825 -4.50798,9.23825 -0.80201,6e-5 -3.18515,-3.41627 -5.22928,-7.63933 -3.67613,-7.59492 -8.11443,-10.21704 -8.11443,-4.79677 -6e-5,3.08584 6.24652,12.76883 9.73732,15.10105 2.2294,1.48923 -2.08552,8.34994 -5.22933,8.34994 -0.84802,5e-5 -3.18509,-3.41638 -5.22922,-7.63933 -2.0443,-4.22294 -4.70625,-7.63932 -5.95056,-7.63932 -3.39641,-6e-5 -2.86622,3.51349 1.98356,11.37019 3.2363,5.24376 3.78692,7.80756 1.9835,9.94897 -2.7623,3.27926 -8.4751,-0.12355 -8.4751,-4.97454 -6e-5,-3.46806 -6.3964,-8.79889 -8.29469,-6.92872 -0.77948,0.76782 0.22575,3.2109 2.16381,5.32985 1.93778,2.11877 4.20863,6.6308 5.04903,9.94886 1.79401,7.08391 7.86022,7.81715 20.37611,2.66495 4.39587,-1.80989 12.29211,-3.19791 17.67133,-3.19791 8.62319,0 10.44036,0.82042 14.42555,7.10637 3.72059,5.86956 4.24234,9.25401 3.06541,19.18717 -1.73871,14.67566 -7.30175,27.37862 -16.04844,36.77553 -5.17905,5.56414 -7.52651,11.65661 -6.13087,15.98937 1.96849,6.11049 18.30035,5.63065 36.78522,-1.06603 7.95999,-2.8836 21.36028,-7.75029 29.93307,-10.83723 18.84133,-6.78421 26.30872,-7.40694 25.24477,-1.95423 -0.51789,2.65415 -3.59328,4.31769 -9.91757,5.15214 -9.69938,1.27953 -16.40968,6.02689 -16.40911,11.72549 6e-5,2.60855 2.36595,3.37551 9.73726,3.37551 16.09203,5e-5 23.62189,2.21877 23.62189,6.92877 6e-5,6.1262 -4.63448,7.03172 -22.35967,4.08617 -12.34858,-2.05215 -16.38908,-2.05198 -18.39256,0 -1.96682,2.01347 -1.36383,3.44525 2.8851,6.21811 9.81878,6.4076 15.68776,13.98884 15.68776,20.43079 0,8.64814 -5.07229,8.02171 -9.55689,-1.24362 -6.6039,-13.64399 -11.75783,-15.47299 -50.48955,-16.69998 -31.70502,-1.00437 -35.18653,-1.36868 -41.83413,-6.0404 -4.51924,-3.17597 -10.11635,-5.03858 -14.60592,-4.79684 -3.96706,0.21362 -7.83522,0.29965 -8.83566,0.17783 -1.00102,-0.1224 1.59864,-4.53865 5.95056,-9.77133 8.11951,-9.76277 14.78623,-24.58416 14.78623,-33.22225 6e-5,-6.4423 -5.96748,-17.98085 -10.09788,-19.54259 -1.80677,-0.68301 -3.42608,-2.77153 -3.42608,-4.61907 6e-5,-1.84788 -1.17376,-3.3867 -2.70479,-3.37556 -1.87594,0.0115 -2.90813,4.54956 -3.24583,13.85744 -0.27597,7.59492 -2.08731,18.20301 -3.967,23.45099 -4.1207,11.50644 -20.9048,31.43228 -32.63786,38.72975 -11.216612,6.97641 -14.997419,12.9746 -17.491014,28.07018 -1.133578,6.86399 -3.097565,15.69584 -4.327677,19.54258 -5.776029,18.06231 -9.319716,36.34274 -8.655296,44.2372 l 0.721231,8.52759 13.343705,2.48718 c 17.321731,3.13019 22.407941,6.04104 25.425021,14.5681 1.35898,3.84074 2.03131,7.23634 1.62295,7.63933 -0.40935,0.40299 -5.69919,-2.71033 -11.720823,-6.92872 -14.804931,-10.37021 -17.120123,-9.61769 -5.770197,1.77664 10.91622,10.95859 11.46112,13.64716 3.426022,15.63401 -4.600881,1.13762 -7.154463,0.19688 -12.261742,-4.61912 l -6.671794,-6.21811 2.524425,6.21811 c 1.308632,3.39646 2.344175,7.50699 2.344175,9.2383 0,3.8199 -3.385665,3.81118 -12.622358,-0.17782 -5.779377,-2.49637 -7.330787,-4.89181 -9.557008,-14.03509 -3.005073,-12.34095 -7.462309,-15.01364 -6.491429,-3.90846 0.344103,3.93866 -0.05196,8.23602 -0.901597,9.59356 -1.580335,2.51905 -17.018509,5.38637 -17.310708,3.19791 -1.45274,-10.86772 -0.341217,-20.8029 3.606388,-29.84681 2.632852,-6.03278 5.638502,-18.31034 6.491544,-27.35951 3.280702,-34.81673 15.152903,-86.37473 21.818693,-94.15949 5.026103,-5.87055 14.309619,-22.92364 15.868072,-29.3138 2.32264,-9.52589 -2.765124,-7.44632 -16.048438,6.57341 -11.690853,12.33911 -12.061919,12.58853 -14.064878,7.46174 -1.126534,-2.88262 -1.466885,-8.51905 -0.721347,-12.43622 0.800964,-4.20343 0.350455,-7.65549 -1.081904,-8.52759 -4.039404,-2.45965 -3.870644,19.49092 0.180134,24.33931 3.11962,3.73317 4.83292,32.02205 2.163868,35.88715 -2.980882,4.31757 -5.220614,1.88067 -11.540511,-13.50207 -4.649033,-11.31685 -4.857515,-13.77869 -2.524425,-25.22763 1.412036,-6.92745 2.816682,-15.46698 2.885098,-19.18717 0.06871,-3.72018 2.085636,-11.27054 4.508043,-16.69998 l 4.327619,-9.94897 -1.26227,11.01488 c -0.807373,7.25902 -0.404726,10.1701 1.081962,8.7053 3.194792,-3.14751 6.757648,-23.66635 4.507985,-25.93824 -3.249467,-3.2826 5.995886,-17.3338 20.556423,-31.26808 11.91175,-11.39842 14.995632,-16.2911 21.638385,-32.86695 4.286683,-10.69469 10.047583,-22.6334 12.802663,-26.6489 2.75572,-4.01521 5.1981,-8.03152 5.22933,-8.883 0.16051,-4.36111 15.84406,-25.41775 22.17931,-29.66905 8.16611,-5.47961 12.77282,-11.57705 10.45855,-13.85743 -0.84594,-0.83324 -2.93088,-0.19341 -4.68829,1.24362 -3.75887,3.07338 -6.99552,-0.33082 -5.04903,-5.32979 0.66772,-1.71336 0.34815,-3.61274 -0.72123,-4.26382 -1.06943,-0.65137 -3.54905,3.7177 -5.58994,9.77126 -2.04032,6.05351 -5.66732,11.95176 -7.93407,13.14677 -10.72113,5.65305 -33.332414,0.0346 -46.161811,-11.54784 -2.755136,-2.48736 -4.8686,-3.47712 -4.8686,-2.13188 -5.8e-5,1.34494 4.794179,6.54258 10.819106,11.54778 l 10.999587,9.06072 -3.245772,11.37013 c -5.678514,19.63439 -32.015758,65.65561 -42.375174,74.08401 -2.047877,1.6663 -5.507328,5.97383 -7.753757,9.59355 -4.69499,7.56647 -5.620547,3.78295 -2.16381,-9.59355 1.127112,-4.36301 4.237379,-22.30067 6.852161,-39.79573 2.614723,-17.49511 5.878567,-37.24578 7.212775,-43.88184 1.334325,-6.63605 2.724479,-29.20201 3.065465,-50.27765 0.341216,-21.07541 1.265907,-49.68708 1.983502,-63.60202 1.263425,-24.47337 1.540555,-25.8096 9.196277,-36.77547 8.157386,-11.68335 15.803524,-16.85777 25.966062,-16.52233 z m 414.013956,5.86281 c -0.39202,0.0462 -0.90044,0.15011 -1.44258,0.35507 -1.93939,0.73318 -3.42608,2.19753 -3.42608,3.3755 1.2e-4,2.88348 5.02137,1.14755 6.13087,-2.13188 0.40704,-1.20234 -0.0866,-1.73178 -1.26221,-1.59893 z m 10.99947,8.34993 c -1.26949,-0.0404 -2.76224,1.13773 -3.42602,2.8426 -0.99288,2.54874 -0.27367,3.3732 2.52442,2.84249 4.36232,-0.82781 5.28355,-4.42363 1.44258,-5.68509 -0.17205,-0.0577 -0.35969,0.006 -0.54098,0 z m 11.17984,8.70529 c -1.2793,0.20612 -3.39392,1.56735 -5.40964,3.55322 -3.92671,3.86879 -4.12474,4.79678 -1.26221,4.79678 4.18212,5e-5 9.73979,-6.03798 7.57339,-8.17229 -0.20496,-0.20207 -0.47517,-0.24653 -0.90154,-0.17782 z m 7.39308,9.41596 c -0.84092,-0.0595 -2.30543,0.43244 -4.50798,1.42134 -3.06154,1.37422 -5.4101,3.91723 -5.40959,5.50744 1.2e-4,2.28806 1.00449,2.33269 5.40959,0.35507 3.06148,-1.3741 5.58989,-3.73941 5.58989,-5.32979 0,-1.14397 -0.24076,-1.89488 -1.08191,-1.95423 z m 5.22928,10.30423 c -2.56259,0.31061 -6.31118,2.59601 -6.31118,4.26388 -1.8e-4,2.74618 6.158,2.29891 7.93406,-0.5329 0.80755,-1.28687 0.92042,-2.82402 0.36085,-3.37545 -0.38798,-0.38279 -1.12942,-0.459 -1.9835,-0.35565 z m -348.73819,4.79683 c 1.01193,-0.20554 1.80314,1.08647 1.80314,3.19791 0,2.41311 -1.11949,5.11704 -2.34418,5.86269 -1.22457,0.74565 -2.16381,-0.60703 -2.16381,-3.0202 6e-5,-2.41323 0.93919,-5.11715 2.16381,-5.86275 0.15358,-0.093 0.39607,-0.14838 0.54098,-0.17782 z m 439.9799,4.44148 c -1.06013,0.0231 -1.80319,2.50768 -1.80319,6.57341 6e-5,4.29402 0.93872,7.81703 2.16381,7.81703 1.22451,-5e-5 2.34423,-2.84716 2.34423,-6.39576 -1.7e-4,-3.54842 -1.12007,-7.07144 -2.34423,-7.81698 -0.16628,-0.10103 -0.209,-0.18071 -0.36085,-0.17782 z m -567.82665,0.53289 c -0.188795,0.0462 -0.266738,0.20612 -0.360847,0.35508 -0.748309,1.19304 2.239328,5.75974 6.671795,10.12657 6.444778,6.35009 7.79498,9.06891 6.85216,13.85743 -0.974055,4.94654 0.285213,7.09679 6.85216,12.0808 8.180884,6.20962 14.714522,7.58217 17.130402,3.73081 0.75697,-1.20644 -0.39664,-2.13183 -2.70485,-2.13183 -2.30838,0 -6.334909,-2.25976 -8.835662,-4.97443 -5.309642,-5.76459 -8.429089,-21.42112 -4.327677,-21.49681 1.453201,-0.0289 5.011784,-1.69512 7.934065,-3.90852 3.781784,-2.86507 4.453484,-4.5103 2.524483,-5.6851 -1.620404,-0.98641 -5.305889,0.76915 -9.196336,4.44148 l -6.491486,6.21816 -7.57345,-7.28413 c -3.624401,-3.4613 -7.151172,-5.64203 -8.475046,-5.32974 z m 133.07597,3.19786 c 0.57158,-0.19631 0.94218,0.48382 0.90165,2.13188 -0.0462,1.74955 -1.56232,5.51119 -3.42608,8.5277 l -3.42614,5.50738 1.44258,-6.57335 c 1.05414,-4.96352 3.24935,-9.1617 4.50799,-9.59361 z m 352.70524,7.10636 c -3.80436,0.17437 -10.99953,3.49687 -10.99953,5.68504 1.2e-4,1.23658 1.28231,2.30965 2.88516,2.30965 3.94576,6e-5 11.79287,-5.9699 10.09793,-7.63944 -0.36315,-0.35796 -1.1054,-0.39549 -1.98356,-0.35507 z m -350.36107,6.39571 c 0.49537,-0.42436 0.63463,0.92278 0.72129,4.26382 0.086,3.318 -0.93924,6.0404 -2.16381,6.0404 -2.6138,-6e-5 -2.61374,-1.64737 0,-7.63933 0.63579,-1.45793 1.14542,-2.41028 1.44252,-2.66489 z m 355.95096,3.73092 c -2.86541,-6e-5 -9.91751,4.8324 -9.91751,6.75101 0,1.18242 2.40942,0.89473 5.58984,-0.5329 4.9276,-2.21196 7.71374,-6.21805 4.32767,-6.21805 z m -431.86553,5.15208 c -3.2781,0.004 -18.86725,10.59971 -18.93359,13.14683 -0.0289,1.00315 3.70211,-0.31581 8.29468,-3.02026 10.67892,-6.28947 12.89672,-8.25761 11.17984,-9.94891 -0.10104,-0.0993 -0.32274,-0.17783 -0.54098,-0.17783 z m 19.47446,17.41059 c -1.60117,0.21709 -4.00707,1.12371 -7.03241,2.6649 -3.69582,1.8831 -9.21169,3.3755 -12.26174,3.3755 -3.04999,-5e-5 -6.1751,1.12042 -7.03252,2.48725 -2.61704,4.17248 23.85496,-0.17725 27.04796,-4.44148 2.32819,-3.10905 1.94777,-4.44776 -0.72129,-4.08617 z m 395.98202,9.23825 1.26221,11.01495 c 0.62568,6.03284 1.46065,12.39101 1.98356,14.03503 0.76096,2.39261 1.67554,2.34619 4.32768,0.17782 2.63077,-2.15116 4.01977,-2.16808 6.67179,0 2.76755,2.26352 3.31044,2.1611 3.24578,-1.24356 -0.0895,-4.64441 -6.36932,-16.68081 -6.49149,-12.43616 -0.15011,5.21259 -4.5842,2.66247 -7.75376,-4.44147 l -3.24577,-7.10643 z m -448.635315,3.90858 c -0.365465,-0.0231 -0.789705,0.1351 -1.44252,0.5329 -2.461378,1.49881 -5.584116,8.53948 -7.934123,17.76589 -2.252895,8.84311 1.080058,5.98417 5.770256,-4.79677 3.990617,-9.17238 5.190071,-13.39394 3.606387,-13.50208 z m 330.886555,1.95423 c -3.84478,0.32851 -7.87633,2.33858 -12.08138,6.0404 -6.54518,5.76165 -6.92323,6.85805 -4.50804,12.08086 3.97653,8.59906 9.3767,7.31508 9.3767,-2.13189 0,-8.73485 3.89789,-11.3841 10.99941,-7.63938 6.00692,3.16737 5.77141,5.68365 -0.90148,12.25851 l -5.40964,5.32973 6.13087,0 c 3.37337,0 7.36595,-1.03935 8.83567,-2.48718 4.12225,-4.06146 3.14346,-14.49103 -1.80326,-19.36488 -3.12181,-3.07534 -6.79448,-4.41486 -10.63885,-4.08617 z m -125.50246,1.77658 c -2.86645,0.16743 -6.03815,1.08542 -9.55695,2.66489 -7.22773,3.24451 -7.93569,14.92196 -1.26222,21.49676 11.4415,11.27268 29.78428,-0.30657 24.16287,-15.27865 -2.3451,-6.24582 -7.03755,-9.25107 -13.3437,-8.883 z M 68.882101,373.9728 c -0.798192,0.0346 -1.262154,0.89871 -1.262154,2.30953 0,1.88096 0.939125,3.55321 2.163751,3.55321 1.224627,0 2.163868,-0.99645 2.163868,-2.13194 -5.8e-5,-1.13519 -0.939241,-2.62973 -2.163868,-3.3755 -0.305998,-0.18649 -0.635147,-0.3672 -0.901597,-0.35507 z m 442.143829,0.17782 c 1.02896,-0.306 1.80262,0.48556 1.80319,2.13183 0,3.85338 -1.33698,4.46404 -3.24577,1.42127 -0.70443,-1.12324 -0.34353,-2.61778 0.9016,-3.3755 0.15588,-0.0947 0.39375,-0.13395 0.54098,-0.17783 z m -383.35966,0.71055 c -1.31937,0.0704 -3.78138,3.40865 -6.13087,8.17234 -2.67708,5.43031 -4.32883,9.82236 -3.42602,9.77132 3.06529,-0.17378 12.00834,-15.88371 10.09793,-17.76601 -0.13106,-0.12875 -0.35276,-0.18764 -0.54098,-0.17782 z m 8.47505,1.42128 c -0.60034,0.1426 -1.56735,0.76303 -2.70479,1.95428 -2.76882,2.90029 -7.93401,16.66465 -7.93401,20.96381 0,1.49367 0.93918,2.16687 2.16375,1.42127 1.22469,-0.74571 2.16387,-2.35959 2.16387,-3.55321 6e-5,-1.19363 1.83962,-5.95328 4.14731,-10.65959 3.20628,-6.53779 3.96412,-10.55346 2.16387,-10.12656 z m -35.52296,3.37556 c -2.149375,0.42378 -4.5555,5.6284 -5.409581,12.43616 l -1.081904,8.52764 4.507984,-9.77121 c 2.499601,-5.30369 4.084381,-10.01092 3.426081,-10.65958 -0.44976,-0.44341 -0.94594,-0.6307 -1.44258,-0.5329 z m 197.8107,0.5329 c 3.98184,-0.14896 7.61514,3.03261 7.03241,7.99462 -0.52597,4.48507 -2.30012,6.05484 -6.8521,6.57342 -7.32576,0.83491 -10.86882,-7.05707 -5.58989,-12.25851 1.64991,-1.6252 3.59946,-2.24204 5.40958,-2.30953 z m 329.98496,2.13188 c 1.47687,0.31696 2.50364,5.20242 2.52448,14.39039 0.0173,8.14428 1.48063,18.80242 3.24577,23.6287 5.85438,16.01108 4.20078,24.74992 -4.32767,23.09568 -7.05383,-1.36833 -26.66126,-0.0289 -28.67086,1.95423 -2.92632,2.88256 -8.11437,3.12176 -8.11437,0.35565 -1.2e-4,-1.114 -2.66594,-4.89267 -5.7702,-8.52758 -6.59085,-7.71733 -5.76702,-17.94366 1.44252,-17.94366 2.86258,0 4.27947,-1.61995 4.32768,-4.97443 0.0404,-2.71472 1.62808,-6.89627 3.42602,-9.23837 1.798,-2.34233 3.24577,-5.98982 3.24577,-8.17222 0,-6.00628 2.6556,-4.77092 8.65542,3.90846 l 5.40958,7.81697 3.967,-5.15208 c 2.21612,-2.8127 5.21259,-8.79986 6.49149,-13.32442 1.57496,-5.56968 2.99889,-8.06368 4.14737,-7.81703 z m -517.87803,0.17782 c -2.02502,0.22171 -5.26092,6.19773 -6.49155,12.25851 -2.06173,10.15723 2.37212,8.6273 5.58989,-1.95423 1.50309,-4.94366 2.32616,-9.43415 1.80319,-9.94897 -0.22343,-0.21998 -0.61216,-0.38683 -0.90153,-0.35508 z m 109.45402,21.31911 c -1.27301,0.4105 0.32101,2.68551 7.75376,11.5479 3.39034,4.04247 6.8521,5.225 6.8521,2.30954 6e-5,-2.65145 -11.22701,-13.85744 -13.88463,-13.85744 -0.28983,0 -0.53925,-0.0583 -0.72123,0 z m 402.29314,3.3755 -0.18014,6.75107 c -0.11027,3.72047 0.4463,7.36814 1.26227,8.17234 2.79832,2.75733 3.23353,-0.0958 1.08185,-7.46173 l -2.16381,-7.46168 z m -21.8187,1.42128 c -0.45553,0.16512 -0.61332,1.46353 -0.54098,3.19791 0.10681,2.55572 0.55195,2.99358 1.26221,1.24368 0.64341,-1.5838 0.55946,-3.35732 -0.18013,-4.08623 -0.18533,-0.18244 -0.38914,-0.4105 -0.54098,-0.35565 z m 11.90113,10.30428 c -0.94773,0.77971 -1.09259,4.21088 -0.18014,8.70529 0.77331,3.81227 2.43765,6.92872 3.60639,6.92872 1.90978,-6e-5 0.209,-12.75169 -1.9835,-15.10106 -0.39722,-0.42608 -0.59797,-0.5329 -0.90165,-0.5329 -0.16455,0 -0.40531,-0.11142 -0.54099,0 z m -11.54045,3.37556 c -1.58409,0.50865 -1.59587,6.40517 0.54098,11.54784 1.37098,3.29831 1.74442,2.86131 2.34417,-2.30965 0.40184,-3.46499 -0.30311,-7.22675 -1.62294,-8.52758 -0.53752,-0.52944 -0.89663,-0.82805 -1.26221,-0.71061 z m -9.19634,1.77652 c -0.45611,0.16512 -0.79363,1.28594 -0.72123,3.02026 0.10681,2.5556 0.73209,3.17117 1.44252,1.42127 0.64283,-1.58368 0.55946,-3.53491 -0.18013,-4.26382 -0.18476,-0.18245 -0.38914,-0.23268 -0.54099,-0.17783 z m -164.63186,19.18728 c 0.88318,-0.0346 2.60733,0.3545 5.40964,0.8882 4.13316,0.78752 9.06285,1.42134 10.8191,1.42134 1.7558,-6e-5 2.5115,1.0028 1.80326,2.13188 -2.42674,3.86862 2.96489,20.95116 7.57339,23.984 5.98335,3.9375 5.66777,6.84523 -1.26227,13.32442 -4.54477,4.24928 -6.07464,4.69869 -7.57334,2.30965 -1.31619,-2.09834 -2.80201,-2.43407 -4.86865,-0.88832 -4.04328,3.02471 -11.46084,1.22844 -8.83561,-2.13193 1.09957,-1.40719 2.60872,-4.32485 3.42602,-6.57342 1.32434,-3.64311 0.6583,-3.95297 -6.31112,-2.66484 -9.32889,1.72427 -10.26813,-1.22549 -1.98356,-6.57341 5.30243,-3.42308 5.56033,-4.07895 2.34412,-6.39576 -3.27747,-2.36138 -3.04254,-2.91616 1.08196,-6.39565 4.42364,-3.73202 4.35516,-3.89933 0.36085,-8.35005 -2.54948,-2.84058 -3.45478,-4.02918 -1.9835,-4.08611 z M 158.14032,453.209 c -0.91326,-0.15011 -1.44252,1.2326 -1.44252,4.61919 5e-5,3.65985 0.62631,7.36808 1.44252,8.17233 3.44646,3.39537 5.55842,1.18693 4.14737,-4.44153 -1.29484,-5.16715 -2.97263,-8.15686 -4.14737,-8.34999 z m -10.45855,3.37556 c -2.91408,-5e-5 -2.7918,4.8824 0.36085,12.43616 2.10821,5.05186 2.82095,5.41415 3.60638,2.13189 1.28445,-5.36894 -1.24038,-14.56805 -3.96706,-14.56805 z m -14.24524,27.18186 c -0.7982,0.0346 -1.26216,0.89871 -1.26216,2.30959 0,1.88079 0.93913,3.37556 2.16381,3.37556 1.22463,-6e-5 2.16381,-0.99651 2.16381,-2.13194 -6e-5,-1.13519 -0.93918,-2.62991 -2.16381,-3.3755 -0.306,-0.18649 -0.63526,-0.18937 -0.90165,-0.17783 z m 540.59837,3.90852 c -0.45553,0.16512 -0.79363,1.28594 -0.72134,3.0202 0.10681,2.55566 0.73168,3.17123 1.44258,1.42127 0.64317,-1.58357 0.55945,-3.53485 -0.18014,-4.26382 -0.18533,-0.18245 -0.38914,-0.23268 -0.54098,-0.17783 z m -500.92799,1.77663 c -2.7112,-6e-5 -2.75196,0.9923 0.54098,5.32979 4.6167,6.08059 6.24963,5.81431 4.14737,-0.71072 -0.80633,-2.50416 -2.87667,-4.61907 -4.68829,-4.61907 z m 378.85161,0 c -1.64932,-6e-5 -8.01691,12.6294 -7.93412,15.81161 0.11663,4.49222 8.83566,-6.90176 8.83566,-11.54784 -5e-5,-2.27957 -0.32043,-4.26377 -0.90154,-4.26377 z m 4.8686,9.23825 c -1.02878,0.30427 -2.15763,2.01838 -3.60638,5.15209 -3.53012,7.63366 -3.24208,10.44948 0.90154,8.883 2.67586,-1.01153 3.24542,-0.33717 2.16386,3.02026 -1.84638,5.73007 1.55932,5.612 5.22934,-0.17783 2.35508,-3.71579 2.36149,-5.58042 0,-10.83723 -1.98865,-4.42675 -3.36506,-6.43144 -4.68836,-6.0404 z m 118.10938,0.5329 c -1.04755,-0.052 -1.80319,2.0816 -1.80319,5.50745 6e-5,3.69079 1.11955,6.57335 2.34412,6.57335 1.22445,6e-5 2.16386,-2.38436 2.16386,-5.32973 0,-2.94509 -0.93924,-5.8277 -2.16386,-6.57342 -0.16224,-0.0987 -0.39145,-0.17032 -0.54099,-0.17782 z m 0.36085,16.52239 c -1.29697,6e-5 -1.83893,1.10292 -1.08196,2.30948 0.7572,1.20649 1.98459,2.13194 2.52448,2.13194 0.53983,0 0.9016,-0.92539 0.9016,-2.13194 0,-1.20662 -1.04715,-2.30948 -2.34412,-2.30948 z m -112.6998,5.15208 c -0.26616,-0.0116 -0.41511,0.16859 -0.72129,0.35507 -1.22462,0.74566 -2.34469,2.24026 -2.34417,3.37551 6e-5,1.13548 1.11955,2.13194 2.34417,2.13194 1.22457,0 2.16381,-1.4946 2.16381,-3.37556 1.8e-4,-1.41071 -0.64438,-2.45243 -1.44252,-2.48719 z m 8.6553,1.59893 c -1.86387,-0.0116 -4.82478,4.64984 -4.86866,8.17228 -0.0173,1.50828 0.84167,2.66489 1.9835,2.66489 2.59781,-5e-5 5.55306,-8.5639 3.60645,-10.48187 -0.20843,-0.20554 -0.45496,-0.35334 -0.72129,-0.35507 z m 105.1264,6.21805 c -0.362,0.2575 -0.59467,2.99006 -0.72134,8.52764 -0.14665,6.38866 0.74854,11.37025 1.98356,11.37025 2.51772,0 2.5172,-6.59628 0,-16.34468 -0.6359,-2.46114 -0.9811,-3.75326 -1.26222,-3.55321 z m -538.79518,0.17782 c -1.52918,0.41801 -1.0326,2.62755 2.34412,9.06066 1.88904,3.599 4.31001,5.99929 5.40958,5.32979 2.13627,-1.30089 -4.22745,-14.36718 -7.03235,-14.39045 -0.30138,-0.002 -0.50288,-0.0595 -0.72135,0 z m 437.81615,4.44148 c -2.45745,-6e-5 -4.80313,5.75005 -3.06541,7.46167 0.69906,0.68873 2.01179,0.64167 3.06541,0 2.52916,-1.54009 2.54405,-7.46167 0,-7.46167 z m -396.52294,6.57347 c -1.22469,-6e-5 -2.16381,1.04028 -2.16381,2.30953 -6e-5,1.26932 -2.99797,3.35744 -6.67191,4.61913 -3.67377,1.26175 -6.6718,3.84599 -6.6718,5.68515 -5e-5,2.90791 0.51096,2.80958 4.86866,-0.35565 2.75566,-2.00128 6.8726,-4.27485 9.01603,-4.97437 4.11013,-1.34195 5.42823,-7.28402 1.62283,-7.28402 z m 15.50746,4.44141 c -6.21136,6e-5 -31.01498,15.92362 -31.01498,19.89784 -5e-5,1.15575 5.61894,-1.25771 12.62236,-5.15208 13.09741,-7.28252 22.52913,-14.74576 18.39262,-14.74576 z m -75.01292,0.71067 c -1.29916,0.28348 -0.76834,3.79593 1.9835,8.7053 2.4783,4.42172 2.80548,4.49245 3.60633,0.71066 0.47748,-2.25411 -0.7505,-5.71344 -2.70473,-7.63938 -1.36285,-1.34247 -2.29475,-1.90533 -2.8851,-1.77658 z m -10.09799,8.34993 c -1.34962,0.1634 -2.02802,2.25867 -0.90154,5.1522 0.72522,1.86174 2.34395,3.19785 3.60639,3.19785 2.82863,-5e-5 2.90583,-2.1492 0.18013,-6.39576 -0.96198,-1.49864 -2.07541,-2.05221 -2.88515,-1.95429 z m 78.43911,4.08617 c -1.20321,0.14607 -2.59007,0.97695 -3.42614,2.30965 -0.80356,1.28081 -3.72971,3.16165 -6.67179,4.26382 -2.94255,1.10241 -5.40958,3.02748 -5.40958,4.26377 0,1.23675 0.6001,2.30959 1.44258,2.30959 2.50467,0 16.21286,-9.76278 16.22874,-11.54784 0.0115,-1.2326 -0.96112,-1.74488 -2.16381,-1.59899 z m 348.91855,1.95423 c 1.80418,-0.0987 5.54185,4.0341 8.29474,10.65964 5.86038,14.10859 13.08482,25.81624 14.06488,22.91798 0.44167,-1.30476 -2.2081,-8.32996 -5.95051,-15.63395 -3.7423,-7.30441 -6.85222,-13.75276 -6.85222,-14.39045 -1.7e-4,-2.54285 6.08428,-0.9561 6.13088,1.59898 0.0982,5.38718 13.68596,31.10833 15.50751,29.3138 1.11048,-1.09432 -2.02276,-8.77481 -9.7372,-23.80636 -1.9204,-3.74148 -2.17224,-6.0404 -0.72129,-6.0404 1.28588,0 3.34698,2.49845 4.50798,5.50739 2.63938,6.83929 9.15448,16.74126 10.27819,15.63401 0.46246,-0.45553 -0.78024,-4.34459 -2.70479,-8.883 -1.92462,-4.53859 -3.0661,-8.88254 -2.52443,-9.41591 0.54156,-0.53347 4.24806,2.02819 8.11437,5.50745 l 7.03241,6.21811 -8.47499,15.63401 c -5.33464,9.91387 -9.70123,15.7877 -12.08137,15.81172 -2.07086,0.0231 -4.60106,1.02077 -5.4097,2.30954 -0.80847,1.28883 -2.859,1.75718 -4.68829,1.06591 -4.08663,-1.54512 -15.76652,10.29273 -20.01544,20.25319 -1.67323,3.9214 -4.25563,7.05424 -5.77026,6.92866 -5.21594,-0.43301 -25.03461,-6.89834 -26.14631,-8.52758 -0.61217,-0.8979 -3.61026,-2.46583 -6.67185,-3.37551 -3.06166,-0.90962 -9.99673,-3.67694 -15.50752,-6.21816 -12.06509,-5.56328 -29.45294,-5.91673 -39.67026,-0.8882 -3.9804,1.95879 -7.21284,2.6444 -7.21284,1.59886 6e-5,-3.39813 9.84095,-8.70529 16.04844,-8.70529 3.32908,-6e-5 6.63669,-1.10304 7.3932,-2.30954 0.84848,-1.3521 -2.97511,-2.13188 -9.91763,-2.13188 -6.19547,0 -11.17983,-0.8188 -11.17983,-1.95429 0,-3.34807 3.88051,-4.84585 13.34364,-4.97448 11.65252,-0.15877 11.30461,-2.80087 -1.0819,-7.46168 -15.28419,-5.75085 -12.17826,-9.77126 7.57339,-9.77126 15.65699,-6e-5 31.157,5.82851 31.37565,11.72555 0.097,2.60139 0.67071,3.5624 1.26227,2.13183 0.71476,-1.72999 4.257,-0.49191 10.45849,3.73092 11.21794,7.63881 21.53428,10.78083 21.63838,6.3957 0.0462,-1.96104 1.27503,-1.55845 3.42608,1.24357 3.19017,4.15568 3.24577,4.0476 3.24577,-0.71061 1.8e-4,-2.68141 -1.58917,-5.34584 -3.42608,-6.0404 -1.83708,-0.6945 -3.24577,-2.68585 -3.24577,-4.44147 6e-5,-1.75568 -1.66861,-8.0194 -3.60639,-13.85738 -5.09521,-15.34765 -3.72977,-20.03317 6.85216,-23.62876 8.37725,-2.84613 9.11349,-2.59226 12.98303,2.13194 l 4.14732,4.97443 -1.44252,-4.97443 c -1.01736,-3.57908 -0.72199,-5.09279 0.36084,-5.1522 z m -8.83566,5.68516 1.62289,6.57341 c 0.88046,3.61973 5.2911,13.81523 9.73725,22.56273 7.0002,13.77043 11.54046,19.44963 11.54046,14.39039 1.7e-4,-3.15345 -14.49836,-32.83416 -18.57292,-38.01909 l -4.32768,-5.50744 z m -424.65287,1.06597 c -1.22451,5e-5 -2.16375,1.10303 -2.16375,2.30953 -6e-5,1.20656 0.93918,2.13194 2.16375,2.13194 1.22474,0 2.16387,-0.92533 2.16387,-2.13194 5e-5,-1.20655 -0.93919,-2.30953 -2.16387,-2.30953 z m 87.99606,2.30953 c -6.0919,-6e-5 -30.11343,15.85502 -30.11343,19.89784 0,1.10534 0.50692,1.95428 1.08196,1.95428 1.6648,-6e-5 17.60493,-8.89628 21.27777,-11.90314 1.83691,-1.50407 5.06935,-3.33746 7.21272,-4.08623 4.78015,-1.67012 5.17142,-5.86275 0.54098,-5.86275 z m 349.82015,5.15214 c -1.00587,-0.15531 0.68982,5.76275 5.77025,17.41059 4.01325,9.20124 8.09775,16.86141 9.01597,16.87769 2.62581,0.0462 2.16624,-1.49465 -6.13087,-19.18722 -4.72547,-10.07594 -7.7679,-14.96382 -8.65535,-15.10106 z m -12.80273,7.81704 c -0.34352,0.0583 -0.70148,0.33602 -1.0819,0.71066 -0.74259,0.73139 1.96537,8.35883 5.95056,16.87758 9.47416,20.25088 12.36775,19.98293 3.96706,-0.35508 -5.75963,-13.94438 -7.34683,-17.48651 -8.83572,-17.23299 z m -341.34504,1.59892 c -4.77905,0.39491 -18.12045,8.4288 -23.44164,14.7457 -4.11503,4.88511 0.32736,4.40284 6.31124,-0.71061 2.73707,-2.33892 7.98112,-4.91508 11.54045,-5.6851 7.4596,-1.61434 10.31,-4.76548 7.03241,-7.99468 -0.29098,-0.28695 -0.76003,-0.41166 -1.44246,-0.35508 z m 333.77165,3.37551 c -0.624,0.61476 -0.0289,3.7513 1.44252,6.92877 1.46902,3.17724 2.97881,5.41559 3.42608,4.97437 0.44803,-0.4411 -0.14953,-3.57752 -1.44252,-6.92866 -1.13127,-2.93227 -2.5101,-4.91196 -3.24577,-4.97448 -0.10508,-0.0116 -0.10219,-0.0768 -0.18013,0 z m -45.07996,12.96917 c -0.94461,0.34006 -0.4284,4.09974 1.62288,9.4159 1.19444,3.09485 2.76011,5.6851 3.42608,5.6851 1.70257,-6e-5 -1.25915,-11.6901 -3.60638,-14.21274 -0.65467,-0.70345 -1.12787,-1.00165 -1.44258,-0.88826 z m -303.65828,1.95423 c -4.82178,-6e-5 -4.98205,0.89929 -1.80325,6.75106 3.42002,6.29623 8.50599,5.42206 7.21289,-1.24362 -0.68642,-3.53774 -2.70439,-5.50744 -5.40964,-5.50744 z m 354.68881,0.5329 c -0.6135,-0.14492 0.48382,3.15946 3.42602,9.23825 2.05688,4.24898 4.20701,7.40301 4.68835,6.92877 0.48151,-0.47458 -1.30292,-4.77743 -3.7867,-9.41596 -2.39215,-4.46797 -3.8502,-6.6383 -4.32767,-6.75106 z m -55.89913,3.73086 c -0.46708,-0.0462 -0.94484,0.2194 -1.44258,0.71067 -0.73491,0.72412 -0.59802,2.55716 0.36085,4.08611 1.40337,2.23627 1.94995,2.22928 2.70485,0 0.80696,-2.38586 -0.22171,-4.66387 -1.62295,-4.79678 z m 15.32715,0.5329 c -1.04859,0.30831 -0.0872,3.39872 2.70479,9.06054 2.72072,5.5168 5.36241,9.81786 5.77025,9.41602 1.6282,-1.60331 -5.08418,-17.43611 -7.75375,-18.29891 -0.23037,-0.0745 -0.57101,-0.2217 -0.72129,-0.17782 z m 30.4741,8.88295 c -0.32736,0.19399 -0.65333,0.79005 -0.90165,1.95423 -0.43706,2.04828 0.42897,6.10506 1.9835,8.88295 2.35659,4.21064 2.94364,4.52588 3.60644,1.42127 0.43706,-2.04817 -0.42897,-6.10495 -1.98356,-8.88295 -1.47225,-2.63169 -2.1593,-3.69882 -2.70473,-3.3755 z m -11.90112,0.17782 c -0.79606,0.19688 -0.48498,1.52272 0.72123,4.61919 1.66901,4.28587 5.40964,4.51139 5.40964,0.35507 -1.8e-4,-1.68097 -1.58917,-3.56926 -3.42614,-4.26382 -1.40003,-0.52943 -2.22732,-0.82868 -2.70473,-0.71067 z M 97.192454,638.6855 c 0.526548,6e-5 8.933346,4.13045 18.572926,9.23831 l 17.49101,9.23831 26.68729,0.17783 c 28.26642,0.19283 35.04451,1.35043 48.50599,7.99462 9.65008,4.76283 21.63839,19.81464 21.63839,27.18192 -6e-5,8.2758 -3.86395,8.09543 -7.93407,-0.35507 -2.09949,-4.35863 -7.50035,-10.18927 -11.90112,-12.96912 -9.79084,-6.18451 -31.99844,-10.33159 -51.39103,-9.59361 -19.30172,0.73433 -69.062469,-9.23768 -69.062469,-13.8575 -5.8e-5,-2.68741 6.230984,-17.05528 7.393083,-17.05528 z m 350.000456,13.67978 c 1.87478,-0.22574 6.6789,1.80256 14.06493,6.21811 7.83396,4.68322 18.73978,9.12099 24.34318,9.94892 14.85972,2.19551 42.11675,-0.56119 57.16134,-5.68515 16.53648,-5.6325 19.58029,-5.63048 23.26122,0.17782 2.47575,3.90465 2.49249,5.01698 0,6.57342 -3.93953,2.46051 -6.32666,2.65802 -29.03142,2.84249 -16.34156,0.13279 -20.38621,0.96787 -26.14637,5.15214 -3.73698,2.71483 -7.50699,4.76104 -8.47504,4.61924 -25.30037,-3.70916 -34.13148,-7.10533 -47.24378,-18.65433 -7.91328,-6.97006 -10.34492,-10.90253 -7.93406,-11.19254 z"
     id="path9085" />
</svg>
