<?xml version="1.0" encoding="UTF-8" standalone="no"?>
<!-- Created with Inkscape (http://www.inkscape.org/) -->

<svg
   xmlns:dc="http://purl.org/dc/elements/1.1/"
   xmlns:cc="http://creativecommons.org/ns#"
   xmlns:rdf="http://www.w3.org/1999/02/22-rdf-syntax-ns#"
   xmlns:svg="http://www.w3.org/2000/svg"
   xmlns="http://www.w3.org/2000/svg"
   xmlns:sodipodi="http://sodipodi.sourceforge.net/DTD/sodipodi-0.dtd"
   xmlns:inkscape="http://www.inkscape.org/namespaces/inkscape"
   width="1000"
   height="1000"
   id="svg2"
   version="1.1"
   inkscape:version="0.47 r22583"
   sodipodi:docname="T.svg">
  <defs
     id="defs4">
    <inkscape:perspective
       sodipodi:type="inkscape:persp3d"
       inkscape:vp_x="0 : 526.18109 : 1"
       inkscape:vp_y="0 : 1000 : 0"
       inkscape:vp_z="744.09448 : 526.18109 : 1"
       inkscape:persp3d-origin="372.04724 : 350.78739 : 1"
       id="perspective10" />
    <inkscape:perspective
       id="perspective2940"
       inkscape:persp3d-origin="0.5 : 0.33333333 : 1"
       inkscape:vp_z="1 : 0.5 : 1"
       inkscape:vp_y="0 : 1000 : 0"
       inkscape:vp_x="0 : 0.5 : 1"
       sodipodi:type="inkscape:persp3d" />
    <inkscape:perspective
       id="perspective2953"
       inkscape:persp3d-origin="0.5 : 0.33333333 : 1"
       inkscape:vp_z="1 : 0.5 : 1"
       inkscape:vp_y="0 : 1000 : 0"
       inkscape:vp_x="0 : 0.5 : 1"
       sodipodi:type="inkscape:persp3d" />
    <inkscape:perspective
       id="perspective2966"
       inkscape:persp3d-origin="0.5 : 0.33333333 : 1"
       inkscape:vp_z="1 : 0.5 : 1"
       inkscape:vp_y="0 : 1000 : 0"
       inkscape:vp_x="0 : 0.5 : 1"
       sodipodi:type="inkscape:persp3d" />
    <inkscape:perspective
       id="perspective2979"
       inkscape:persp3d-origin="0.5 : 0.33333333 : 1"
       inkscape:vp_z="1 : 0.5 : 1"
       inkscape:vp_y="0 : 1000 : 0"
       inkscape:vp_x="0 : 0.5 : 1"
       sodipodi:type="inkscape:persp3d" />
    <inkscape:perspective
       id="perspective2992"
       inkscape:persp3d-origin="0.5 : 0.33333333 : 1"
       inkscape:vp_z="1 : 0.5 : 1"
       inkscape:vp_y="0 : 1000 : 0"
       inkscape:vp_x="0 : 0.5 : 1"
       sodipodi:type="inkscape:persp3d" />
    <inkscape:perspective
       id="perspective3005"
       inkscape:persp3d-origin="0.5 : 0.33333333 : 1"
       inkscape:vp_z="1 : 0.5 : 1"
       inkscape:vp_y="0 : 1000 : 0"
       inkscape:vp_x="0 : 0.5 : 1"
       sodipodi:type="inkscape:persp3d" />
    <inkscape:perspective
       id="perspective3018"
       inkscape:persp3d-origin="0.5 : 0.33333333 : 1"
       inkscape:vp_z="1 : 0.5 : 1"
       inkscape:vp_y="0 : 1000 : 0"
       inkscape:vp_x="0 : 0.5 : 1"
       sodipodi:type="inkscape:persp3d" />
    <inkscape:perspective
       id="perspective3031"
       inkscape:persp3d-origin="0.5 : 0.33333333 : 1"
       inkscape:vp_z="1 : 0.5 : 1"
       inkscape:vp_y="0 : 1000 : 0"
       inkscape:vp_x="0 : 0.5 : 1"
       sodipodi:type="inkscape:persp3d" />
    <inkscape:perspective
       id="perspective3044"
       inkscape:persp3d-origin="0.5 : 0.33333333 : 1"
       inkscape:vp_z="1 : 0.5 : 1"
       inkscape:vp_y="0 : 1000 : 0"
       inkscape:vp_x="0 : 0.5 : 1"
       sodipodi:type="inkscape:persp3d" />
    <inkscape:perspective
       id="perspective3057"
       inkscape:persp3d-origin="0.5 : 0.33333333 : 1"
       inkscape:vp_z="1 : 0.5 : 1"
       inkscape:vp_y="0 : 1000 : 0"
       inkscape:vp_x="0 : 0.5 : 1"
       sodipodi:type="inkscape:persp3d" />
    <inkscape:perspective
       id="perspective3070"
       inkscape:persp3d-origin="0.5 : 0.33333333 : 1"
       inkscape:vp_z="1 : 0.5 : 1"
       inkscape:vp_y="0 : 1000 : 0"
       inkscape:vp_x="0 : 0.5 : 1"
       sodipodi:type="inkscape:persp3d" />
    <inkscape:perspective
       id="perspective3083"
       inkscape:persp3d-origin="0.5 : 0.33333333 : 1"
       inkscape:vp_z="1 : 0.5 : 1"
       inkscape:vp_y="0 : 1000 : 0"
       inkscape:vp_x="0 : 0.5 : 1"
       sodipodi:type="inkscape:persp3d" />
    <inkscape:perspective
       id="perspective3096"
       inkscape:persp3d-origin="0.5 : 0.33333333 : 1"
       inkscape:vp_z="1 : 0.5 : 1"
       inkscape:vp_y="0 : 1000 : 0"
       inkscape:vp_x="0 : 0.5 : 1"
       sodipodi:type="inkscape:persp3d" />
    <inkscape:perspective
       id="perspective3109"
       inkscape:persp3d-origin="0.5 : 0.33333333 : 1"
       inkscape:vp_z="1 : 0.5 : 1"
       inkscape:vp_y="0 : 1000 : 0"
       inkscape:vp_x="0 : 0.5 : 1"
       sodipodi:type="inkscape:persp3d" />
    <inkscape:perspective
       id="perspective3122"
       inkscape:persp3d-origin="0.5 : 0.33333333 : 1"
       inkscape:vp_z="1 : 0.5 : 1"
       inkscape:vp_y="0 : 1000 : 0"
       inkscape:vp_x="0 : 0.5 : 1"
       sodipodi:type="inkscape:persp3d" />
    <inkscape:perspective
       id="perspective3135"
       inkscape:persp3d-origin="0.5 : 0.33333333 : 1"
       inkscape:vp_z="1 : 0.5 : 1"
       inkscape:vp_y="0 : 1000 : 0"
       inkscape:vp_x="0 : 0.5 : 1"
       sodipodi:type="inkscape:persp3d" />
    <inkscape:perspective
       id="perspective3148"
       inkscape:persp3d-origin="0.5 : 0.33333333 : 1"
       inkscape:vp_z="1 : 0.5 : 1"
       inkscape:vp_y="0 : 1000 : 0"
       inkscape:vp_x="0 : 0.5 : 1"
       sodipodi:type="inkscape:persp3d" />
    <inkscape:perspective
       id="perspective3161"
       inkscape:persp3d-origin="0.5 : 0.33333333 : 1"
       inkscape:vp_z="1 : 0.5 : 1"
       inkscape:vp_y="0 : 1000 : 0"
       inkscape:vp_x="0 : 0.5 : 1"
       sodipodi:type="inkscape:persp3d" />
  </defs>
  <sodipodi:namedview
     id="base"
     pagecolor="#ffffff"
     bordercolor="#666666"
     borderopacity="1.0"
     inkscape:pageopacity="0.0"
     inkscape:pageshadow="2"
     inkscape:zoom="0.532"
     inkscape:cx="500"
     inkscape:cy="500"
     inkscape:document-units="px"
     inkscape:current-layer="svg2"
     showgrid="false"
     showborder="true"
     inkscape:showpageshadow="false"
     showguides="true"
     inkscape:guide-bbox="true"
     inkscape:window-width="1280"
     inkscape:window-height="750"
     inkscape:window-x="0"
     inkscape:window-y="26"
     inkscape:window-maximized="1">
    <sodipodi:guide
       orientation="0,1"
       position="0,200"
       id="guide2818" />
  </sodipodi:namedview>
  <metadata
     id="metadata7">
    <rdf:RDF>
      <cc:Work
         rdf:about="">
        <dc:format>image/svg+xml</dc:format>
        <dc:type
           rdf:resource="http://purl.org/dc/dcmitype/StillImage" />
        <dc:title></dc:title>
      </cc:Work>
    </rdf:RDF>
  </metadata>
  <g
     inkscape:label="Layer 1"
     inkscape:groupmode="layer"
     id="layer1" />
  <path
     style="fill:#800000"
     d="m 725.997,0.01376469 c -0.30138,0.01732064 -0.71055,0.12759542 -1.06199,0.17724794 l -718.740512,0 -6.194498,0 L 0,6.4047943 0,793.78616 0,800 l 6.194498,0 724.758052,0 6.19456,0 0,-6.21384 0,-787.3813657 0,-6.21378167 -6.19456,0 -3.00877,0 C 727.33242,0.0149194 726.74583,-0.02549544 725.997,0.01376469 z M 303.53115,12.618922 l 421.04994,0 c 0.10912,0.653739 0.10912,1.754582 0.17725,2.663107 l 0,15.090728 c -0.10219,2.479508 -0.18591,4.862136 -0.35392,7.811669 -1.4114,24.724702 -0.96926,358.795784 0.35392,548.947664 l 0,200.44046 -55.57364,0 c -86.55715,-1.06377 -241.01107,-1.0957 -332.20288,0 l -314.150322,0 c -2.007521,-1.04282 -3.570536,-1.99435 -4.778651,-2.84053 -0.643577,-0.45091 -1.415732,-0.95546 -1.592864,-1.24281 -0.623948,-1.01337 -1.230805,-12.2528 -1.238888,-24.67782 -0.0058,-12.42485 -0.0022,-72.81051 0,-134.39626 0.0017,-61.58569 -0.366043,-130.80419 -0.884912,-153.74792 -0.990972,-43.82412 -1.673694,-125.01044 -2.123858,-206.12175 l 0,-235.770532 c 0.137988,-5.828398 0.337176,-9.950365 0.531167,-10.29724 2.055672,-3.685198 9.051019,-3.942987 111.324238,-4.616009 78.35046,-0.515578 121.56939,-0.823077 179.46388,-1.242757 z M 86.900162,23.803845 c -37.586321,0.755526 -63.073016,1.353724 -63.714977,1.952902 -1.426297,1.330861 -2.053304,97.424473 -1.769881,278.202193 0.490752,313.22303 2.102438,462.96786 5.309586,474.02658 l 691.13071,0 0,-5.50364 c 0.41974,-4.30649 0.43648,-11.79074 0,-22.36979 l 0,-2.84064 c -0.0612,-1.48155 -0.0993,-2.65681 -0.17725,-4.26088 -1.80752,-37.23973 -5.3612,-549.85221 -4.42467,-637.36171 0.3874,-36.226765 0.0826,-71.156618 -0.70795,-77.584136 l -0.53117,-4.260879 -625.11486,0 z M 284.77064,74.579779 c 0.70662,-0.097 1.35742,-0.0058 2.1238,0 9.19651,0.07852 22.4464,7.324901 27.07887,16.511021 8.1153,16.09209 5.409,32.3623 -7.07941,42.25406 -4.55805,3.60968 -8.07685,4.35014 -16.45976,3.55073 -13.12645,-1.25216 -16.95974,-5.05387 -18.40653,-17.93137 -1.34425,-11.96718 -4.13831,-12.75769 -16.10572,-4.43841 -11.01108,7.65399 -19.3083,28.28686 -19.29144,47.58021 0.0173,20.30477 7.79123,70.92839 16.45963,106.3453 4.19656,17.14375 8.28591,37.85249 9.02631,45.80486 0.73959,7.95202 1.89765,14.79899 2.65479,15.26826 0.75726,0.46939 5.44919,-0.26096 10.44222,-1.59789 7.56254,-2.02501 10.43892,-1.78345 17.52156,1.4203 25.2759,11.4337 21.60987,54.6438 -5.30958,61.96085 -2.70907,0.7363 -4.95556,2.69302 -4.95556,4.43842 -1.1e-4,3.84697 12.2662,50.35828 43.53851,166.53073 3.57573,13.28309 7.44707,28.65314 8.67239,34.08726 5.43602,24.11213 19.26408,76.84611 20.53033,78.11675 0.76794,0.7699 2.40463,-2.91252 3.71672,-8.16674 4.46596,-17.88391 16.10763,-53.57836 21.41536,-65.68913 2.91074,-6.64154 7.71531,-19.81083 10.61918,-29.47125 2.9038,-9.66047 8.47233,-28.43831 12.56601,-41.72145 47.43149,-153.89625 44.02879,-141.16707 38.75991,-139.72247 -17.47567,4.79193 -26.45377,1.67958 -32.91945,-11.71754 -4.68939,-9.71867 -3.88611,-15.57588 3.18579,-29.29377 3.28538,-6.37325 13.30081,-11.31939 22.65425,-11.3624 4.00834,-0.0173 18.05256,7.00724 18.05256,9.05443 6e-5,0.98369 1.55707,1.77536 3.36274,1.77536 1.80545,6e-5 3.18579,-0.30888 3.18579,-0.88768 0,-1.48011 11.99888,-44.51308 19.46841,-69.4174 26.72183,-89.09122 32.62205,-127.3822 22.30027,-146.46892 -6.56608,-12.14189 -24.18459,-22.54732 -38.40599,-22.54732 -10.95266,-6e-5 -12.08756,1.8193 -5.48655,7.81167 2.89757,2.63043 4.2476,6.61417 4.2476,12.0726 -6e-5,11.42199 -9.47191,19.70668 -22.83115,19.70668 -8.97302,0 -9.8853,-0.59641 -15.7518,-10.47472 -8.55663,-14.40656 -8.45761,-27.20294 0.17725,-38.525731 12.40914,-16.272804 31.99395,-20.184557 57.87445,-11.717532 l 15.9287,5.326156 5.66362,-5.14862 c 3.06247,-2.847341 5.80381,-5.326156 6.1945,-5.326156 0.39087,1.16e-4 5.16704,3.246466 10.61912,7.101523 9.78068,6.915729 10.08823,7.189049 10.08823,19.5292 1.2e-4,14.68312 4.33213,21.47454 13.98192,22.19225 5.12189,0.38106 7.19477,-0.78312 10.61917,-6.56891 3.70945,-6.26736 4.00587,-8.18158 1.59287,-14.02551 -2.68291,-6.49692 -2.619,-6.99321 6.54847,-14.913191 l 9.55725,-7.989206 9.38028,3.195717 c 8.59306,3.099876 10.67772,3.289884 24.24712,-0.177825 18.16566,-4.642049 32.59133,-3.031344 46.01633,5.503751 10.74839,6.833744 13.94659,15.405044 10.97321,28.938644 -2.51917,11.46528 -6.65985,17.8491 -14.68987,22.01471 -7.56676,3.92486 -15.12549,2.6459 -21.9463,-3.72827 -3.71308,-3.47007 -4.62623,-6.39894 -4.0707,-13.4929 0.66073,-8.43394 0.29676,-9.31261 -5.13257,-9.94216 -16.09705,-1.86642 -41.00495,22.74587 -60.52924,59.29775 -11.80166,22.09444 -26.21549,57.66978 -47.4323,118.24031 -5.71051,16.30213 -12.79188,35.83341 -15.75175,43.49693 -2.95986,7.66358 -4.89648,14.61724 -4.24765,15.26827 0.64935,0.65108 3.69495,-0.49364 6.72543,-2.48557 4.09056,-2.68869 7.93828,-3.23891 14.86689,-2.13044 12.19044,1.9499 20.72346,10.69798 22.65419,23.61254 4.62565,30.94166 -23.44228,46.36702 -47.25528,25.92058 -4.93477,-4.23715 -9.73115,-6.92659 -10.61917,-5.85877 -1.55153,1.86463 -48.34747,143.52158 -69.20158,209.49488 -5.53424,17.50956 -15.59609,49.40068 -22.47724,70.66016 l -12.56595,38.52579 -17.8756,0 c -16.24394,0.0774 -18.32588,-0.33487 -21.23835,-4.79361 -3.4147,-5.22817 -17.4584,-50.79799 -30.79558,-99.95392 -4.42277,-16.30202 -9.03532,-32.13372 -10.08824,-35.15248 -1.0524,-3.01893 -2.52691,-8.9113 -3.36269,-13.13783 -1.34656,-6.80545 -19.65784,-63.24553 -37.6981,-116.2874 -3.49063,-10.26422 -8.14988,-24.9922 -10.44215,-32.66703 -2.29268,-7.67455 -5.41201,-14.66862 -6.90245,-15.26827 -1.48952,-0.59975 -6.87936,1.58525 -12.03508,4.61596 -7.98239,4.69297 -10.83424,5.39232 -18.93753,3.90586 -25.6655,-4.70787 -32.3377,-33.28647 -13.45092,-56.81218 6.37636,-7.94261 8.98583,-9.44576 18.05256,-10.65225 5.83099,-0.77597 10.44221,-1.89679 10.44221,-2.66305 1.7e-4,-3.33198 -35.0552,-103.80922 -41.06073,-117.70782 -3.64755,-8.44197 -7.40769,-17.93051 -8.31835,-20.94944 -2.8806,-9.55228 -20.21989,-45.22166 -25.13209,-51.48608 -5.14325,-6.55927 -27.4445,-17.39004 -32.03447,-15.62334 -1.56908,0.60426 -2.83176,4.10234 -2.83176,7.81173 2.4e-4,22.98929 -34.973843,32.31628 -50.441006,13.49284 -7.573106,-9.21568 -8.108487,-15.32329 -3.008769,-33.55471 2.839142,-10.15128 5.202371,-13.60525 11.681043,-18.108849 12.766586,-8.874925 31.449847,-7.479343 56.812582,4.438419 8.9359,4.19875 17.97895,2.72072 34.33524,-5.326159 15.69787,-7.722872 17.18779,-6.042712 14.15887,15.800929 -1.90434,13.73476 -1.69014,18.0465 0.88497,23.79008 5.94243,13.2548 8.8303,15.50083 18.58356,13.84797 8.10606,-1.3741 9.33842,-2.50104 14.68987,-13.84797 5.17766,-10.9799 5.57996,-14.14098 4.42461,-27.87348 -0.71482,-8.50045 -0.49595,-16.800273 0.53117,-18.463921 1.47555,-2.391 5.84231,-2.647634 20.53045,-1.420351 17.2651,1.442695 19.38013,1.17971 29.7336,-4.083342 6.12776,-3.114829 12.1211,-5.681229 13.45098,-5.681229 1.32988,-1.16e-4 3.82498,-1.529471 5.66357,-3.373196 1.29593,-1.300434 3.18965,-2.195507 5.30958,-2.485513 z m 81.05958,50.243211 c 10.51387,-0.2321 21.77696,1.66382 28.49477,5.14862 7.74014,4.01475 8.22893,6.28728 0.88497,4.43841 -9.23854,-2.32627 -6.10235,1.67578 5.66351,7.27912 13.14111,6.25835 16.75553,10.78534 18.40659,24.14515 0.67135,5.43407 0.7344,8.73538 0,6.92399 -6.04687,-14.91492 -11.26916,-22.78133 -16.63671,-25.5655 -9.05581,-4.69765 -13.12968,-3.82648 -5.13257,1.06527 8.58065,5.24874 14.86983,15.32571 19.82244,32.3119 l 3.89368,13.31536 14.33584,-2.66305 c 19.39502,-3.47337 24.96015,-6.41233 30.61863,-16.51108 2.6366,-4.70573 6.29034,-8.87689 8.14139,-8.87689 2.86293,6e-5 3.10941,2.613 1.76983,16.15595 -2.0357,20.57751 -6.96302,30.21304 -19.29145,37.46057 -10.95415,6.43947 -12.36723,6.71787 -23.18519,2.66305 l -7.6104,-2.84058 6.01754,-2.48552 c 3.38878,-1.34795 6.94085,-2.48557 7.78736,-2.48557 0.84589,6e-5 5.06427,-2.44111 9.55725,-5.50369 8.4109,-5.73307 11.74016,-13.81056 4.42467,-10.82979 -2.10665,0.85824 -9.13092,2.16976 -15.7518,3.01812 -12.67271,1.62387 -21.03875,5.21086 -25.83998,11.00733 -2.44382,2.95 -2.91818,1.97484 -1.76982,-6.39132 0.74577,-5.43418 2.31358,-10.84116 3.36269,-11.89507 1.07203,-1.07671 1.05673,-3.94402 0,-6.56891 -1.03381,-2.56888 -2.50359,-8.02367 -3.18573,-12.25014 -1.93402,-11.98491 -8.52228,-21.34325 -17.52162,-24.32269 -7.56127,-2.50341 -8.5418,-2.22992 -16.81373,4.43841 l -8.67228,6.92399 -6.01753,-5.50363 c -9.6681,-9.22313 -16.11629,-9.54408 -26.1939,-1.42036 -5.69549,4.59153 -9.4636,10.04604 -10.79613,15.26827 -1.67364,6.55892 -2.31035,7.22121 -3.71673,3.90586 -1.06423,-2.5082 -0.34179,-7.25902 1.94679,-12.07255 3.75044,-7.88915 3.50275,-10.95467 -0.70795,-8.34433 -1.28404,0.79588 -2.30082,3.88802 -2.30082,6.92398 1.1e-4,4.10246 -1.04744,5.39573 -3.89368,4.79355 -2.16514,-0.45784 -4.86861,1.18976 -6.37146,3.72833 -2.61986,4.42663 -2.75531,4.38997 -2.83181,-0.53232 -0.052,-3.34739 1.81913,-5.70277 5.48655,-7.10153 3.00946,-1.14801 5.46016,-3.89333 5.4866,-6.03636 0.0289,-2.14337 1.89338,-6.39062 4.24766,-9.4095 2.35416,-3.01898 4.39771,-6.44865 4.42467,-7.81166 0.0462,-2.44187 1.53178,-3.27465 22.65419,-10.8298 4.58299,-1.63928 10.50526,-2.52384 16.81367,-2.6631 z M 674.494,148.9682 c 0.59341,-0.14607 1.0714,-0.16801 1.23889,0 0.6706,0.67221 -1.73189,5.47991 -5.13257,10.65225 -5.92459,9.01119 -6.01754,10.49354 -6.01754,35.86269 -6e-5,17.18889 -1.05142,28.12596 -2.83181,31.24673 -3.47556,6.09329 -0.75766,8.05497 9.02631,6.21384 4.21094,-0.79242 8.08204,-0.53521 8.84929,0.71009 0.74629,1.21152 -3.72631,7.77016 -9.91116,14.55818 -11.49514,12.61705 -12.62837,17.41475 -3.00877,12.25014 4.19546,-2.25226 6.04935,-2.39123 8.49531,-0.35507 5.54342,4.61468 -1.9059,14.62301 -19.64548,26.63078 -8.92336,6.04023 -16.28273,12.16769 -16.28273,13.3153 -6e-5,1.14796 2.47714,2.61553 5.4866,3.37325 7.48575,1.88478 6.71498,4.82629 -2.1238,9.05443 -9.92831,4.74915 -12.35216,10.95594 -13.80496,35.33008 -1.21591,20.3965 -1.24668,20.63789 -13.98186,41.0113 -7.03957,11.26177 -12.74303,21.47587 -12.74303,22.54732 -1.7e-4,1.07152 -1.19934,3.15594 -2.65479,4.61601 -4.79095,4.80591 -10.52795,37.83297 -8.1414,47.04761 2.57258,9.93166 5.30024,10.52154 7.07947,1.59783 1.28259,-6.43092 6.44484,-8.91592 9.20327,-4.43847 0.74421,1.20754 2.25942,2.1305 3.53976,2.1305 1.37307,1.7e-4 1.24183,-1.39328 -0.53117,-3.55079 -2.75132,-3.34959 -2.23742,-3.46719 7.78742,-2.30798 l 10.97309,1.06522 -8.14133,-3.55079 c -4.50799,-2.00602 -8.31241,-4.24009 -8.31836,-4.97103 -0.006,-0.7311 5.1839,-2.77072 11.50414,-4.61601 l 11.50409,-3.37325 -14.51286,-0.17725 c -12.71889,-0.22401 -14.84725,0.28464 -17.8756,4.61601 -2.6157,3.7412 -3.87145,4.24766 -5.30958,2.1305 -2.15827,-3.17747 -0.89554,-15.80093 1.59286,-15.80093 0.89848,-6e-5 5.12824,-2.43165 9.38023,-5.3261 13.28101,-9.04132 18.96547,-9.18693 30.26465,-0.53232 8.92083,6.83253 10.11664,8.34064 9.20327,14.91313 -0.5583,4.01839 -2.27074,8.52678 -3.53971,10.11965 -1.7189,2.15792 -0.78751,4.24402 3.36275,7.81172 12.78685,10.99157 22.46401,33.36719 17.16759,39.76849 -4.04391,4.88847 -9.53715,4.12717 -15.39777,-2.13038 -2.82684,-3.01916 -6.30425,-5.50375 -7.61034,-5.50375 -1.30598,-1.1e-4 -3.62925,-2.02322 -5.13263,-4.43841 -3.01674,-4.84511 -11.94039,-5.67661 -21.23834,-2.1305 -4.37941,1.67023 -5.45266,3.45772 -5.13257,8.1668 0.2269,3.34271 -0.22055,8.08493 -1.06199,10.65225 -1.12717,3.43867 -0.56581,4.90931 2.30088,5.68123 2.28257,0.61466 5.41402,5.55843 7.6104,11.89507 4.00101,11.54375 17.62803,29.47131 22.47723,29.47131 2.92956,6e-5 7.78736,-16.86644 7.78736,-27.34087 -5e-5,-2.88822 1.09709,-6.00022 2.30082,-6.74645 1.22376,-0.75882 2.12386,0.99894 2.12386,3.90587 6e-5,2.8594 1.25078,7.06278 2.83181,9.23196 2.6765,3.67163 3.93219,2.99872 17.87554,-7.4566 8.2377,-6.17706 15.38824,-10.66224 15.92882,-10.11964 0.54098,0.54271 -2.1238,5.39093 -6.01754,10.82979 -4.17145,5.82632 -6.61805,11.45951 -5.84058,13.4929 1.5323,4.00592 10.2813,7.63413 18.05261,7.63413 6.93248,-6e-5 9.54466,6.37659 3.89368,9.4095 -2.29279,1.2304 -8.56488,6.86019 -13.98191,12.42768 -7.49765,7.70578 -10.92489,13.70317 -14.68982,25.56544 -4.78257,15.06879 -7.30411,40.96385 -4.24771,44.02943 0.82129,0.82417 3.78687,-0.59306 6.54853,-3.19572 7.72114,-7.27611 17.06522,-8.46125 22.30022,-2.66305 6.65124,7.36723 7.52593,39.76116 1.41584,53.61652 -2.46103,5.58101 -6.05246,10.80399 -7.96432,11.54 -4.22756,1.62676 -11.77752,-4.68697 -15.2208,-12.78275 -2.13951,-5.02853 -2.47645,-2.48038 -2.6548,16.51102 -0.19976,21.31086 -0.62579,23.15176 -9.20326,42.25406 -4.95815,11.04185 -9.555,23.24771 -10.2652,26.80826 l 0,0.35507 -10.97315,0 c -2.68764,-1.01776 -8.07073,-1.67496 -18.05256,-2.30803 -11.13769,-0.70622 -20.53172,-1.59933 -21.06133,-2.13038 -0.52943,-0.53117 3.17436,-5.60335 8.3183,-11.00739 13.34579,-14.01887 20.18254,-25.23433 26.1939,-42.96421 8.65299,-25.51948 8.83388,-30.56424 2.30082,-51.30854 -3.20409,-10.17524 -8.22904,-21.72361 -11.15005,-25.56545 -5.38661,-7.08345 -22.8938,-16.156 -31.14957,-16.156 -2.48563,-1.2e-4 -4.60163,-0.99865 -4.60163,-2.13044 0,-4.05586 18.6735,-1.78732 29.20266,3.55079 5.83735,2.95952 11.12124,5.00012 11.68111,4.43841 0.56003,-0.56176 0.28348,-4.69857 -0.53117,-9.05442 -2.17259,-11.61684 -12.16337,-23.95289 -23.89314,-29.6489 -8.56667,-4.1599 -12.3894,-4.70123 -23.36214,-3.55074 -7.21682,0.75657 -16.18978,2.73938 -19.99946,4.43848 -14.24231,6.35182 -22.54045,5.66893 -32.03448,-2.66311 -9.04853,-7.94094 -24.73601,-16.02304 -33.45038,-17.22111 -8.32211,-1.14438 -11.9319,-0.0612 -25.66296,6.74645 -8.83745,4.38103 -16.34336,7.57311 -16.81367,7.10146 -0.93341,-0.93647 8.82556,-17.89748 20.70735,-35.86262 10.11001,-15.28594 8.45513,-21.572 -9.02631,-34.79753 -4.5473,-3.44022 -7.83863,-6.51741 -7.43344,-6.92393 0.99923,-1.00228 21.93221,6.9823 32.91945,12.60522 4.89677,2.50543 12.35337,8.17708 16.63671,12.25008 11.62134,11.05248 12.17889,8.73717 1.76988,-6.56885 -8.48746,-12.48033 -9.32082,-14.79304 -9.20333,-26.80832 0.0854,-8.79502 1.72358,-16.66442 4.95561,-23.61254 2.66623,-5.73175 5.87026,-12.9656 7.07947,-16.15595 3.85719,-10.17576 4.47502,-4.04939 1.06193,10.47472 -5.86754,24.9706 -3.41361,38.02794 10.26514,53.61658 11.18833,12.74984 14.02603,12.5876 14.33589,-1.06528 0.13626,-5.97834 1.75233,-13.66339 3.53971,-17.04363 3.0579,-5.78198 3.27481,-5.19285 2.12385,10.47472 -2.17859,29.64457 3.31546,36.77386 32.91945,41.54391 7.12121,1.14726 17.81781,3.71603 23.71606,5.68123 5.89861,1.96537 11.15819,3.01033 11.85812,2.30798 0.7008,-0.70218 -1.46873,-5.30405 -4.95561,-10.29724 -14.75702,-21.1335 -19.61401,-31.81959 -23.89314,-53.08385 -1.63004,-8.10231 -3.95159,-7.75486 -9.55724,1.77536 -4.66266,7.92783 -4.70544,8.04781 -0.53117,16.51108 4.951,10.03893 3.28637,10.93008 -4.77859,2.48551 -8.93058,-9.35026 -9.76792,-18.60231 -2.83175,-29.11623 3.16477,-4.79673 8.14278,-9.1852 11.15011,-9.94211 4.48668,-1.12971 5.48654,-2.76674 5.48654,-8.87695 1.8e-4,-9.18993 -2.3832,-9.52456 -6.1945,-0.88768 -2.09412,4.74557 -5.14382,7.06116 -10.97309,8.52187 -24.71119,6.19242 -24.99144,5.6564 -7.43344,-11.53999 11.54334,-11.30571 12.03283,-12.25015 6.90245,-12.25015 -3.06085,-5e-5 -9.4304,2.80225 -14.15888,6.39138 -4.72848,3.58895 -9.97022,6.53525 -11.6811,6.56885 -3.28249,0.0647 -10.97315,-6.04571 -10.97315,-8.69935 -5e-5,-0.8587 5.73758,-3.58664 12.91999,-6.21378 7.18282,-2.62696 13.85738,-5.92747 14.68987,-7.27906 0.85004,-1.37959 -2.26883,-5.85963 -6.90251,-10.1197 -7.25561,-6.66989 -9.22988,-7.41162 -16.81361,-6.39138 -5.93959,0.79918 -8.54092,0.49133 -7.96444,-1.24275 1.41354,-4.25263 14.34398,-6.93658 19.8225,-4.0834 4.54812,2.36883 19.27419,11.33215 24.77805,15.09078 1.33508,0.91188 3.32863,5.55976 4.42468,10.29718 3.51239,15.18732 6.79188,11.77625 5.6635,-5.8587 -0.81857,-12.79898 0.2881,-20.53779 4.95561,-37.99319 6.53854,-24.45311 11.94495,-40.54058 14.68987,-43.67435 3.63555,-4.15037 1.79858,-13.90149 -3.18579,-17.22123 -4.84683,-3.22833 -4.83009,-3.25737 -1.06187,-11.18492 4.64956,-9.78074 4.82802,-12.42762 0.70796,-12.42762 -1.73773,6e-5 -4.94609,3.12378 -7.07947,6.74645 -4.679,7.94533 -6.20974,7.99325 -10.61917,1.24276 -3.94963,-6.04658 -2.39701,-11.35005 6.54847,-23.25747 5.75219,-7.65717 5.80819,-7.60937 1.06193,-8.34428 -3.14173,-0.48671 -6.90424,1.56769 -10.97309,6.03624 -8.13863,8.93907 -10.79619,8.5448 -10.79619,-1.59783 6e-5,-8.86447 3.06137,-13.00197 20.17642,-25.56544 9.31025,-6.83421 10.1481,-9.94592 3.89368,-15.6234 -4.5196,-4.10291 -5.82188,-10.88718 -2.47778,-12.96029 1.0464,-0.64912 4.6738,1.26943 8.14134,4.26088 8.27061,7.13507 9.8021,6.73334 8.1414,-1.59777 -1.32873,-6.66412 -1.09484,-6.80482 4.77859,-5.32616 4.61156,1.16101 6.97849,0.5075 10.08818,-2.84058 2.25832,-2.43171 8.09295,-5.44284 12.92004,-6.74651 12.16389,-3.28555 20.72681,-15.96796 18.76052,-27.87342 -3.98883,-24.15387 0.73514,-40.9661 14.33589,-50.42086 3.52487,-2.45024 6.89206,-4.17803 8.67227,-4.61596 z m -285.83251,6.03624 c 8.38498,1.2e-4 17.70326,12.58276 18.40648,24.85536 0.20438,3.57111 -0.39434,3.54461 -7.43339,0.17783 -6.37994,-3.05184 -8.37153,-3.11477 -14.15888,-0.71015 -3.74391,1.55551 -7.70162,4.41752 -8.84929,6.56891 -1.81711,3.40576 -0.75628,4.32491 8.84929,6.39138 6.06841,1.30534 13.42812,2.30798 16.45975,2.30798 4.20309,0 5.25174,0.9759 4.42456,3.90586 -0.59571,2.11329 -1.70781,10.08223 -2.47777,17.93131 -2.86074,29.1544 -7.66837,37.16018 -28.31776,45.44972 -11.70835,4.70036 -29.7907,1.16343 -38.75996,-7.45653 -12.15748,-11.68434 -14.44086,-28.28398 -9.55725,-72.08051 1.4554,-13.05451 8.87718,-24.48798 16.99069,-26.27565 5.72268,-1.26065 7.76334,-0.38509 15.04379,6.74651 l 8.49531,8.52182 7.78742,-8.34428 c 4.82911,-4.98841 9.77335,-7.98927 13.09701,-7.98927 z m -112.56318,2.1305 5.30958,6.39138 c 3.63157,4.329 11.11033,8.45045 23.00817,12.60516 16.21859,5.66321 17.52163,6.44888 17.52163,12.0726 -6e-5,3.34225 -1.14525,6.80811 -2.47778,7.63413 -2.73522,1.69581 -18.40804,-2.73839 -24.95501,-7.10146 -5.16011,-3.43867 -9.9118,-3.81909 -9.91128,-0.71015 1.8e-4,3.28174 19.91944,15.26827 25.30899,15.26827 5.6463,-6e-5 9.91122,3.95089 9.91122,9.2319 1.1e-4,2.17363 -1.32728,3.98531 -2.83175,3.90586 -4.70879,-0.24884 -25.82289,-6.31458 -30.26466,-8.69935 -8.96868,-4.81485 -15.05204,-26.65382 -12.03502,-42.78667 l 1.41591,-7.81167 z m 70.44047,17.93137 c -2.46202,0.17436 -5.31201,1.00905 -9.02631,2.30798 -9.42324,3.29543 -8.1067,8.71269 3.00877,12.07255 11.62013,3.51268 10.7627,3.57203 16.63671,-1.42024 l 5.30958,-4.43847 -5.30958,-4.26094 c -3.68826,-3.13423 -6.5158,-4.55134 -10.61917,-4.26088 z m -5.66357,4.26088 c 0.31524,-0.0982 0.53983,0 0.88492,0 1.13277,0 2.12333,1.38433 2.12385,3.19566 2.3e-4,3.39543 -2.6679,4.42566 -5.13262,1.95296 -1.53063,-1.53478 -0.0837,-4.46237 2.12385,-5.14862 z m 60.35229,6.56891 c 3.98202,0.0289 4.24778,0.40935 1.59287,2.1305 -4.24368,2.75081 -6.54854,2.75075 -6.54854,0 1.2e-4,-1.20748 2.2473,-2.14886 4.95567,-2.1305 z m -311.672545,6.21384 c 11.237755,-0.39433 26.458155,12.40424 32.211495,30.359 2.22437,6.94125 3.92145,17.39229 3.71672,23.07999 -0.40299,11.16477 -8.45553,40.60912 -11.68116,42.60907 -4.75504,2.94809 -1.29524,4.9682 7.96444,4.61601 7.5951,-0.28867 10.80727,0.58781 13.09695,3.72827 5.06242,6.94316 0.36893,11.44064 -14.86689,14.73566 -18.51906,4.0047 -19.65888,7.70907 -12.56596,36.57289 2.88551,11.74282 5.95779,22.13446 6.90245,23.25747 0.97094,1.15367 7.60787,-3.72573 15.22081,-11.3624 7.40983,-7.43339 15.32317,-14.21298 17.52162,-14.91319 6.55367,-2.08616 12.74298,2.86876 12.74298,9.94216 -1.2e-4,6.27371 -0.49653,6.99188 -19.46847,21.65958 -8.76448,6.77625 -14.24813,20.10223 -18.40653,44.38456 -3.12026,18.22352 -3.25115,21.89925 -0.17725,39.76855 2.81489,16.36045 3.10946,23.53974 1.06187,42.07647 -1.35811,12.29113 -3.41806,38.6628 -4.42467,58.58754 -2.01145,39.82687 -4.19928,52.24998 -11.85806,67.64198 -6.94795,13.96378 -8.402076,23.54562 -5.30959,34.26491 l 2.65485,9.05437 1.76982,-18.28639 c 1.37717,-14.11107 3.49277,-22.09953 9.38029,-34.08732 4.20557,-8.56379 7.78736,-17.34351 7.78736,-19.52914 -1.7e-4,-2.18581 1.1856,-3.90587 2.83181,-3.90587 1.64673,0 9.59616,-4.43339 17.52157,-9.76463 22.82693,-15.35463 37.45301,-17.94112 75.57309,-13.31524 8.20104,0.99507 11.29168,0.77816 10.2652,-0.88774 -0.8079,-1.31135 -3.7871,-2.30798 -6.72544,-2.30798 -4.42987,-6e-5 -5.4866,-1.13941 -5.4866,-6.39137 1.7e-4,-10.87021 17.10645,-17.81539 24.77805,-10.11971 5.11352,5.1294 6.96203,22.58514 2.83181,27.16328 -1.89575,2.10099 -3.53763,5.20774 -3.53976,6.92398 -0.003,3.31292 -21.24285,12.96029 -28.49477,12.96029 -4.31683,6e-5 -19.28181,3.28885 -31.50355,6.74645 -3.61158,1.02175 -10.84105,2.80398 -15.75174,4.0834 -10.49411,2.73395 -24.90639,15.77513 -31.1495,28.05096 -4.8473,9.53028 -11.20513,30.7811 -10.79614,35.86269 1.39397,17.32722 -3.03313,22.19842 -10.9732,12.07266 -4.40216,-5.61362 -12.599328,-7.65648 -10.61912,-2.66311 7.87356,19.85414 8.36484,20.80089 17.8756,25.56551 5.36045,2.68533 9.91122,5.80097 9.91122,6.92398 -2.3e-4,3.26916 -4.75919,1.90244 -17.34466,-4.79349 -15.197482,-8.08545 -18.845845,-11.521 -24.424132,-23.07999 -6.452518,-13.37171 -6.327521,-48.27552 0.177248,-63.02602 6.363721,-14.43185 15.235874,-56.86067 15.220744,-72.61305 -0.0173,-16.0313 -5.358369,-52.93669 -9.911158,-68.70725 -2.168603,-7.51341 -5.459467,-13.31432 -10.088237,-17.22117 -11.486128,-9.69552 -16.125174,-10.3582 -28.317812,-4.79349 -5.940289,2.7108 -10.381071,5.89399 -9.91122,7.10153 3.980169,10.22576 3.901418,10.91968 -0.707952,5.68123 -4.503195,-5.1182 -6.019618,-16.72159 -2.831753,-21.30463 0.884797,-1.27122 5.231066,-4.95261 9.734261,-8.34428 l 8.141338,-6.21378 -3.716722,-6.2139 c -2.033559,-3.45368 -6.592353,-7.39164 -10.265196,-8.69935 -6.417126,-2.28459 -6.560656,-2.45381 -2.477833,-5.50369 7.811438,-5.83579 29.043258,-1.93512 37.875055,6.92404 1.715841,1.72167 4.014464,3.01813 5.132627,3.01813 4.110132,1.1e-4 1.851346,-5.76593 -8.318355,-20.77202 -8.162066,-12.04287 -12.373003,-16.18482 -18.760511,-18.28639 -10.324317,-3.39704 -12.775824,-2.23702 -18.583552,7.81173 -3.849571,6.66198 -4.737601,7.29707 -4.778593,3.37314 -0.0791,-7.51722 3.752345,-15.76924 10.088179,-21.65964 7.092978,-6.59374 22.866832,-7.43073 34.68927,-1.77537 4.239112,2.02779 8.322512,3.19185 9.02625,2.48557 0.704027,-0.70633 -3.313613,-10.72229 -8.849291,-22.36979 -10.418311,-21.9206 -14.467993,-39.00603 -10.088179,-41.72145 1.345872,-0.8341 2.477256,-3.33751 2.477776,-5.68123 -1.15e-4,-2.34406 1.748057,-6.01471 3.893681,-8.16674 13.414147,-13.45647 28.848747,-47.14674 28.848747,-62.671 -6e-5,-9.967 -5.739946,-23.61255 -9.911161,-23.61255 -1.789742,6e-5 -3.185844,-1.3006 -3.185844,-3.01812 -1.73e-4,-1.71769 -3.574,-4.28645 -7.787362,-5.68123 -8.671582,-2.87113 -8.820135,-3.6729 -4.070641,-10.47477 2.361843,-3.3825 5.457158,-5.01728 9.203267,-5.14857 z m 287.425375,9.40956 c -1.88073,0.19226 -2.57448,1.89603 -3.00877,5.68117 -0.54964,4.79135 -1.67537,6.0363 -6.01748,6.0363 -3.57533,-1.1e-4 -6.37608,-1.74338 -7.78736,-4.97108 -2.51386,-5.74705 -5.3552,-5.93076 -17.34467,-1.59783 l -8.84929,3.01818 9.38029,0.17783 c 6.46614,0.0664 9.70094,1.15113 10.61917,3.55073 0.73145,1.91237 3.47631,4.29616 6.01748,5.32616 8.23429,3.33751 14.46817,2.23118 19.64548,-3.37326 2.78903,-3.01875 6.24334,-5.50363 7.6104,-5.50363 4.42681,1.1e-4 2.53742,-3.59808 -3.18572,-6.2139 -3.53041,-1.61371 -5.61651,-2.28003 -7.07953,-2.13038 z m -65.13082,26.09806 c 0.24826,-0.0577 0.67827,0.052 1.06187,0.17782 1.3972,0.46708 6.10732,8.05826 10.61917,17.04363 6.99806,13.934 9.65193,17.03428 18.05262,21.30463 12.8921,6.55378 29.50878,6.75771 41.4147,0.53232 11.57031,-6.0497 21.38869,-17.55615 23.18518,-27.16339 2.11734,-11.31864 4.80504,-11.11172 6.37152,0.35507 1.10869,8.11455 0.36489,11.09566 -3.18579,15.62334 -4.8496,6.18433 -4.18322,9.33756 1.06199,4.97108 2.69746,-2.24568 4.23859,-2.18725 7.07941,0.17725 2.70883,2.25526 3.1848,5.82037 2.47783,15.6234 -1.06377,14.7521 1.34715,16.57995 5.13257,3.90586 1.99055,-6.6636 2.04684,-10.93118 0.17725,-17.04369 -2.85046,-9.31591 -2.35347,-10.27674 3.71672,-8.34434 5.834,1.85747 17.69858,21.53811 17.69858,29.29383 2.9e-4,5.7332 -0.52308,6.19756 -7.96437,5.3261 -6.02384,-0.70535 -7.65313,-0.15992 -6.90251,2.1305 0.54387,1.6592 4.43004,3.3643 8.67239,3.72827 6.82427,0.5859 7.60976,1.21914 6.72543,5.85876 -1.96151,10.29499 -8.85304,13.44712 -24.60103,11.54 -4.69661,-0.56869 -5.62379,0.33487 -6.1945,6.21384 -0.55484,5.71558 -2.21704,7.40498 -9.5573,10.29718 -5.96546,2.3507 -10.38858,2.90081 -13.8049,1.59789 -5.28546,-2.01589 -9.91122,0.63111 -9.91122,5.68117 0,1.4823 -2.66888,4.77634 -5.84052,7.27912 -9.22585,7.27952 -26.35718,4.87322 -33.6274,-4.61601 -2.67414,-3.48959 -6.15524,-4.52006 -15.75174,-4.79355 -14.52458,-0.41339 -20.06597,-4.45037 -20.17642,-15.09073 -0.067,-6.48652 -0.63059,-7.15897 -6.37152,-6.74645 -3.47111,0.24942 -9.3323,-0.97942 -12.91993,-2.84058 -6.00986,-3.11731 -6.39524,-4.15384 -5.13262,-12.07261 1.07936,-6.7726 0.62723,-8.52181 -1.94684,-8.52181 -3.95766,5e-5 -6.45102,-9.12054 -4.60164,-16.51102 0.81477,-3.25605 5.94578,-8.37609 13.09695,-13.13789 6.50136,-4.32854 13.06063,-9.4297 14.51285,-11.18486 1.45234,-1.75504 3.53417,-2.61467 4.60164,-1.9529 3.77555,2.34117 1.90515,7.99653 -5.66356,16.86609 -4.21348,4.93771 -7.61041,10.76259 -7.61041,12.96029 1.2e-4,6.08878 3.57504,4.71578 6.54853,-2.48557 1.45973,-3.53532 4.2905,-7.8753 6.37146,-9.76457 3.47447,-3.15386 4.2013,-2.88684 10.08824,3.37319 6.10131,6.48832 21.3011,17.22123 24.24705,17.22123 0.76102,-6e-5 -3.30125,-4.45585 -8.84929,-9.94211 -11.24658,-11.12199 -14.85464,-17.34478 -18.58349,-31.24673 -1.39604,-5.20769 -3.16679,-11.05953 -3.89374,-12.96024 -0.59866,-1.5648 -0.56869,-2.49128 0.17725,-2.6631 z m 52.74182,2.13049 c -14.95805,0 -25.00269,7.34228 -12.56601,9.23191 11.00606,1.67242 12.8809,1.71717 19.82244,-0.71015 11.34704,-3.9681 7.5044,-8.52176 -7.25643,-8.52176 z m 4.0707,18.28639 c -5.41986,0.17725 -13.98186,2.23182 -13.98186,3.90586 -1.1e-4,2.57183 16.99167,2.40596 18.5835,-0.17782 0.69236,-1.12417 0.32793,-2.55364 -0.70796,-3.19566 -0.69144,-0.42898 -2.08685,-0.59156 -3.89368,-0.53232 z m 28.84875,25.92058 c -1.24102,0.13914 -5.08834,2.2298 -12.92005,6.21384 -11.15034,5.67216 -14.4681,6.34905 -25.13196,5.32615 -12.00471,-1.15147 -12.24697,-1.00298 -5.84058,2.13038 3.61135,1.76642 8.20005,3.4527 10.08823,3.5508 7.51185,0.39029 25.37879,-6.85563 30.2646,-12.07255 3.24935,-3.46933 4.78073,-5.288 3.53976,-5.14862 z m -98.75828,9.23196 c -0.18764,0.0231 -0.42782,0.0733 -0.53117,0.17725 -0.80818,0.81828 1.52122,4.01908 5.13257,6.92398 6.82116,5.48597 9.91128,6.59882 9.91128,3.55079 -1.1e-4,-2.61911 -11.69842,-11.00611 -14.51291,-10.65231 z m 114.15605,10.47478 c -1.46851,0.0231 -5.14712,1.46625 -13.80491,5.32615 -18.2529,8.13845 -36.82802,9.34524 -59.1134,3.55073 -20.86341,-5.42505 -20.17641,-5.47967 -20.17641,-2.48557 1.1e-4,3.3508 13.63464,8.72078 27.96383,10.82985 17.8304,2.62472 20.10442,2.46259 34.51226,-0.17782 12.0345,-2.20538 31.67137,-11.82966 31.68055,-15.62334 0.002,-0.90662 -0.18071,-1.43305 -1.06192,-1.42029 z m 201.23322,39.05834 c -0.57331,0.14203 -0.92637,2.92834 -0.88497,8.87689 0.0774,10.92754 0.35219,11.39877 1.94684,4.61601 0.96828,-4.12208 0.83872,-9.5532 -0.17667,-12.07261 -0.41396,-1.02573 -0.6247,-1.48478 -0.88491,-1.42029 z m -224.24139,8.87689 c 1.07497,-6e-5 1.94684,1.56186 1.94684,3.37325 -2.9e-4,1.81128 -1.41833,3.19566 -3.18573,3.19566 -1.95833,6e-5 -2.71467,-1.18958 -1.9469,-3.19566 0.69288,-1.81139 2.11075,-3.37325 3.18579,-3.37325 z m 167.9598,0.53232 c 2.05388,-0.13626 4.00742,0.46823 6.72543,1.59789 7.43235,3.08798 19.52337,15.05366 12.74303,12.60515 -4.27808,-1.54477 -3.60131,0.4896 2.65474,8.34428 3.41147,4.28311 3.37608,4.28028 -1.06187,0.53232 -6.52175,-5.5075 -11.45184,-5.09879 -6.37146,0.5329 2.17899,2.41514 5.24533,4.43848 6.90245,4.43848 4.298,-6e-5 6.02014,6.08843 2.83169,9.94216 -1.48564,1.79598 -5.93272,3.19566 -9.91116,3.19566 -7.59181,0 -14.61187,-6.35356 -17.52162,-15.97841 -0.79161,-2.61732 -3.80003,-8.15508 -6.72549,-12.0726 l -5.30959,-6.92393 7.61041,-3.72839 c 3.17764,-1.51994 5.37933,-2.34949 7.43344,-2.48551 z m -271.85065,3.72827 c -4.37704,-0.0404 -9.09536,2.35618 -12.21204,6.74651 -5.68007,8.00156 -4.29419,14.21695 3.89368,17.22116 8.35335,3.06506 8.57701,2.93637 13.45093,-1.9529 4.86265,-4.87807 5.82204,-15.10926 1.76982,-19.17413 -1.86249,-1.86849 -4.27606,-2.81668 -6.90239,-2.84064 z m 48.14019,0.5329 c 3.09335,-0.2142 6.04924,1.18918 8.31836,4.43847 2.81616,4.03311 6.1557,5.14371 20.35337,6.21378 16.2869,1.22729 16.6892,1.32607 7.78742,3.01818 -12.57577,2.39054 -13.90172,5.81749 -2.30081,5.85877 6.89581,0.0231 8.59456,0.39664 6.19449,1.9529 -1.80579,1.17053 -6.42365,2.2895 -10.26519,2.30798 -3.84166,0.0173 -7.57472,0.92284 -8.31836,2.13044 -0.74398,1.20771 0.73694,2.30803 3.36275,2.30803 3.90598,-1.7e-4 4.26255,0.43359 2.12386,3.01812 -2.19349,2.65214 -1.21459,3.42274 6.72549,4.08335 l 9.55718,0.7102 -9.20326,1.77542 c -10.16226,1.99153 -12.16406,4.89591 -4.42462,6.39138 1.15719,0.22344 1.85071,0.55195 2.1238,0.71015 -0.33371,0.19803 -1.67572,0.42435 -4.24766,0.53232 -9.91012,0.41627 -8.98503,4.60469 1.06193,4.79349 6.58439,0.12355 7.22843,0.43936 3.71672,1.9529 -2.40757,1.03791 -7.82177,2.00729 -12.03502,2.1305 -7.22028,0.21131 -7.36699,0.51269 -3.3628,3.55073 4.2058,3.1911 4.20586,3.31407 0,3.01818 -10.27484,-0.72314 -14.09572,-2.85086 -21.94624,-11.36246 -7.92327,-8.58994 -8.31836,-9.66619 -8.31836,-23.43501 0,-10.93452 1.0221,-15.98424 4.24766,-20.41688 2.60965,-3.5867 5.75577,-5.46726 8.84929,-5.68123 z m 330.07914,0.71014 c 4.85775,-0.13106 8.34093,2.23466 14.15882,7.81167 8.24244,7.9018 8.43227,8.69941 1.41591,8.69941 -3.00952,0 -7.2006,1.71919 -9.38023,3.90581 -2.18009,2.1865 -6.30004,5.59422 -9.20327,7.63413 -6.9872,4.90936 -20.44921,4.81687 -24.95512,-0.17782 -3.2374,-3.58832 -3.05877,-4.42658 1.4159,-12.42768 3.73884,-6.68693 7.38639,-9.55528 15.57479,-12.60522 4.62444,-1.72225 8.05791,-2.76201 10.9732,-2.84058 z m -270.61182,3.3732 c 3.18943,0.0289 3.36055,0.29618 0.53117,2.1305 -4.28623,2.77869 -7.1991,2.77869 -5.48655,0 0.74358,-1.20754 2.9198,-2.14892 4.95555,-2.1305 z m -109.55435,2.48551 c 0.34295,0.004 0.69438,-0.052 1.06187,0 5.60981,0.80276 7.96957,8.01334 3.53976,10.82985 -4.10349,2.60843 -5.22315,2.49879 -8.31835,-1.24275 -3.65605,-4.41908 -1.43259,-9.64356 3.71672,-9.5871 z m 149.90718,0 c -3.37949,0.0173 -5.93896,1.61498 -8.84929,5.32622 -5.71743,7.29049 -5.66362,8.52187 -0.17667,14.02545 5.10278,5.11877 8.31287,5.41934 13.8049,1.24281 2.89677,-2.20313 3.68907,-5.21409 3.18579,-11.36246 -0.59531,-7.26451 -1.58299,-8.65472 -6.54853,-9.23202 -0.51789,-0.06 -0.93307,-0.002 -1.41591,0 z m -226.89618,4.0834 c -5.49827,-6e-5 -8.51674,1.40217 -10.79613,4.97109 -5.23921,8.20294 -5.19504,16.98064 0,22.1923 4.2969,4.30973 10.22974,4.32734 18.22957,0.17725 15.20268,-7.88615 9.90424,-27.34087 -7.43344,-27.34087 z m 189.72914,0.17783 c 1.11123,-1.2e-4 1.59286,0.57747 1.59286,1.9529 6e-5,1.20754 -2.07028,2.14886 -4.77865,2.13044 -3.9819,-0.0289 -4.42473,-0.40934 -1.76982,-2.13044 2.12166,-1.37549 3.84449,-1.9529 4.95561,-1.9529 z m 34.51231,0.17725 c 5.77002,-0.66113 10.79163,4.49476 6.72543,9.40955 -3.83225,4.63241 -8.23112,4.22774 -11.15011,-1.24275 -1.94303,-3.64294 -1.95665,-5.10024 0.35392,-6.56892 1.32717,-0.84363 2.73909,-1.44523 4.0707,-1.59788 z m 225.65724,2.13049 c -0.94733,0.0231 -2.19741,0.28291 -3.89368,0.71015 -6.5121,1.6394 -11.6811,5.00607 -11.6811,7.81167 -1.8e-4,0.97001 4.04656,0.0704 8.84929,-1.9529 8.07592,-3.40224 10.82944,-6.67428 6.72549,-6.56892 z m -307.77887,1.77537 c -1.73478,1.1e-4 -3.18573,1.10049 -3.18573,2.30803 -5e-5,1.20766 1.94598,2.13038 4.42468,2.13038 2.47852,0 3.92942,-0.92272 3.18573,-2.13038 -0.74416,-1.20754 -2.69007,-2.30803 -4.42468,-2.30803 z m 34.15839,1.06528 c 1.03301,-0.15416 1.4599,0.30946 0.88491,1.24275 -0.73549,1.19368 -2.23009,2.13038 -3.3628,2.13038 -3.14785,0 -2.55295,-1.55857 1.23895,-3.01812 0.48728,-0.18764 0.89449,-0.30369 1.23894,-0.35507 z m 124.5982,1.9529 c -10.63707,-0.4769 -17.35592,14.72422 -9.0263,23.07993 8.59052,8.61731 22.12325,3.56465 22.12325,-8.34428 6e-5,-7.43246 -4.01925,-12.70827 -10.97315,-14.38064 -0.74074,-0.1784 -1.41469,-0.32331 -2.1238,-0.35507 z m -109.90838,1.59783 c 2.08223,-0.21074 2.4593,0.36893 1.59286,1.77536 -1.52335,2.47224 -12.03508,4.47941 -12.03508,2.30798 6e-5,-0.89923 2.06994,-2.11266 4.77865,-2.84059 2.56433,-0.68941 4.41446,-1.11637 5.66357,-1.24275 z m -190.96803,0.88768 c 7.64735,0 9.67826,5.3828 4.24771,10.82979 -5.95449,5.97309 -12.66376,2.72379 -11.50408,-5.50369 0.58994,-4.18848 2.03211,-5.3261 7.25637,-5.3261 z m 300.6994,3.72827 c 2.74705,-0.0462 5.59705,1.33606 7.43338,4.26094 1.66457,2.6519 1.55447,4.75815 -0.53059,7.27906 -6.59928,7.9765 -18.64105,-0.18764 -12.56601,-8.52182 1.43548,-1.96907 3.527,-2.98111 5.66351,-3.01818 z m -110.97026,3.01818 c 2.49931,-0.21247 3.03515,0.93347 -0.53117,3.19566 -1.77069,1.12342 -5.20283,2.11935 -7.61034,2.1305 -3.49825,0.0173 -3.12384,-0.72106 1.94678,-3.37326 2.45999,-1.28709 4.69488,-1.82542 6.19455,-1.9529 z m -7.43345,9.94211 c 2.51473,-0.24769 2.63038,1.05309 2.12386,5.50369 -0.59589,5.23107 -1.82098,6.4285 -7.25643,6.92399 -5.94092,0.54156 -6.12071,0.26154 -2.65485,-2.48557 5.20913,-4.12919 4.84395,-5.51155 -1.06187,-4.08334 -3.42758,0.8289 -4.3551,0.38509 -2.83181,-1.24282 1.20408,-1.2864 4.91341,-3.06183 8.31836,-3.90575 1.45384,-0.36027 2.52431,-0.62764 3.36274,-0.7102 z m -7.78742,17.39876 c 1.04582,0 1.38733,0.74109 0.53117,2.13044 -0.74409,1.20754 -3.09682,2.32645 -5.13263,2.30803 -3.1893,-0.0289 -3.18295,-0.474 -0.35391,-2.30803 2.14354,-1.3894 3.90909,-2.13044 4.95555,-2.13044 z m 16.10578,11.3624 c 0.26789,-0.0826 0.4538,-0.0231 0.70795,0 1.58161,0.13799 2.89336,2.26017 3.71672,6.39138 l 1.23889,6.74645 5.84052,-5.68123 c 10.1174,-9.72283 15.37571,-5.32697 10.61918,9.05448 -1.94875,5.89364 -5.33066,9.71677 -12.389,13.84791 -5.32552,3.11685 -10.05261,6.63006 -10.44221,7.81167 -0.38914,1.18185 2.92274,4.15165 7.43344,6.56897 10.32311,5.5328 11.18741,12.12902 1.76982,14.9132 -19.79957,5.85414 -31.9619,14.65638 -20.35337,14.73565 2.70878,0.0173 6.51268,1.02862 8.31835,2.30798 2.44089,1.72946 1.18947,1.90798 -4.95561,0.88774 -7.22409,-1.19952 -9.20909,-0.52713 -15.04378,5.32615 -3.67244,3.68347 -6.99853,6.74639 -7.43345,6.74639 -0.43475,-1.1e-4 -0.17089,-8.45501 0.53117,-18.81905 1.15246,-17.03445 2.21929,-20.40944 10.79619,-35.50755 5.21825,-9.18595 11.14277,-20.89725 13.27391,-26.09818 2.2369,-5.45675 4.49568,-8.65558 6.37151,-9.23196 z m -49.20218,2.1305 c 4.62946,-0.0289 8.85755,0.38798 12.03508,1.24276 l 4.77865,1.06522 -1.23889,68.88472 c -0.81118,45.40683 -0.55888,69.06238 0.88491,69.06238 1.20598,0 4.03906,-3.90494 6.19456,-8.69941 2.15526,-4.79453 5.7232,-10.39342 7.96432,-12.42762 2.24112,-2.03448 4.0707,-4.77686 4.0707,-6.2139 0,-3.26066 8.22678,-11.27695 9.91122,-9.58703 0.68168,0.68393 -0.98503,6.68421 -3.89369,13.13782 -9.6435,21.39574 -16.24913,42.145 -21.23834,66.57676 -7.17167,35.11703 -10.3824,46.68745 -11.68104,42.9642 -0.63105,-1.81127 -2.2947,-13.3123 -3.71673,-25.38791 -2.94248,-24.98988 -12.87397,-66.22069 -19.46846,-80.42472 -5.10041,-10.98608 -11.15016,-27.85697 -11.15016,-31.0692 -6e-5,-3.94795 17.22266,15.74499 21.94629,25.03284 2.54187,4.99753 5.19845,8.45617 6.01748,7.63419 0.81835,-0.82215 1.55736,-8.46142 1.59287,-16.51108 0.0577,-12.59413 -0.72193,-15.38177 -5.48655,-20.7719 -3.04462,-3.4449 -9.25396,-8.22736 -13.98186,-10.65231 -7.20827,-3.69686 -8.0142,-4.67421 -4.95561,-6.39138 2.34545,-1.31654 6.74339,-1.16412 12.389,0.5329 6.91394,2.07802 8.67233,3.68693 8.67233,7.63419 -1.1e-4,10.07912 3.79836,7.0614 5.13263,-4.0834 1.92652,-16.0892 1.80654,-65.16904 -0.17725,-65.15646 -0.90252,0.006 -1.89448,12.02128 -2.30088,26.80826 -0.40645,14.78681 -1.54015,27.59809 -2.47777,28.58357 -0.93699,0.98555 -7.50458,-3.0803 -14.51285,-9.2319 -7.00771,-6.15154 -14.88254,-11.71875 -17.69859,-12.42774 -7.71311,-1.94187 -2.56466,-6.9293 9.20327,-8.69935 13.05578,-1.96405 13.59942,-8.61875 1.06193,-15.80087 -4.80619,-2.75295 -8.67233,-6.31401 -8.67233,-7.98921 -1.8e-4,-3.9983 16.90662,-7.54522 30.79553,-7.63413 z m -167.07483,17.3987 c 0.26269,-0.0831 0.71748,-2.3e-4 1.06193,0 2.14285,0.001 6.01176,1.6909 12.03507,4.61601 10.37253,5.03667 17.94142,16.81096 19.11449,29.47131 0.35738,3.85627 2.33794,9.96671 4.24766,13.67044 3.97815,7.71733 4.35856,18.49874 1.06193,24.67776 -1.24397,2.33171 -6.25114,6.31978 -11.32713,8.87695 -11.28405,5.684 -24.1679,15.34736 -22.65419,16.86609 0.61217,0.61333 4.12503,-1.16354 7.96432,-3.90586 7.82097,-5.58637 13.6668,-3.98179 14.86683,4.0834 1.48213,9.95931 -5.27922,15.15262 -27.60986,21.4821 -1.80648,0.51212 -2.30382,2.66276 -1.41579,6.21384 1.49039,5.9549 2.5873,5.16161 -21.41536,14.38058 -6.79489,2.60976 -14.42331,7.01169 -17.16765,9.94211 -4.76727,5.09025 -10.87534,7.21393 -10.79613,3.72827 0.0762,-3.3788 12.1573,-22.07626 21.06133,-32.48937 26.84781,-31.3972 37.97003,-47.22521 32.91944,-47.22521 -0.45726,6e-5 -5.35837,5.49556 -10.61917,12.25015 -5.26103,6.75464 -13.17766,17.102 -17.69864,22.72491 -14.64974,18.21901 -26.78661,34.23299 -28.49477,37.638 -1.62774,3.24491 -0.65039,-22.49508 1.94684,-49.53307 l 1.41591,-13.67043 8.49531,1.06522 8.31836,1.24276 0,-14.73566 c -1.8e-4,-8.00808 0.91066,-14.38058 1.9469,-14.38058 1.03565,0 5.35283,2.34348 9.73414,5.32616 4.38143,2.9825 8.21166,4.77501 8.31841,3.9058 0.10681,-0.86944 -0.15646,-6.3132 -0.35391,-12.07255 -0.19688,-5.75952 0.4486,-13.43245 1.23888,-17.04368 l 1.41591,-6.56886 6.37146,4.61601 c 5.69237,4.06596 6.75464,4.22791 7.96443,1.06516 1.29547,-3.38607 0.69196,-9.65406 -2.65485,-28.05096 -0.87983,-4.83592 -1.12867,-7.5843 0.70795,-8.1668 z m 419.98801,55.21435 c -0.32852,0.0115 -0.68601,0.15589 -0.88491,0.35508 -0.74444,0.74675 -0.10681,2.77551 1.4159,4.61595 3.04289,3.67786 6.72549,4.44477 6.72549,1.42035 2.4e-4,-2.45636 -4.95942,-6.48133 -7.25648,-6.39138 z m -560.514973,8.69936 c 1.84413,-0.0699 4.778536,0.0462 8.672332,0.53232 14.084803,1.76526 26.088357,7.01867 32.565412,14.2031 4.622765,5.12737 11.333996,6.015 12.74303,1.77537 0.01732,-0.0462 0.160505,0.0231 0.176671,0 0.539249,1.30666 1.430743,11.38907 2.123857,24.32269 1.730333,32.275 -0.67256,52.70106 -9.557301,78.82683 -9.176074,26.98251 -11.919607,52.79916 -7.256369,67.46449 4.089924,12.86133 18.094243,27.91269 32.388451,34.61993 l 8.84935,4.08334 -12.56607,-1.24275 c -15.428365,-1.74644 -17.297321,2.16387 -2.12386,4.43841 5.71801,0.85732 16.08661,3.75096 23.00823,6.56897 13.46155,5.48037 13.85698,5.46524 10.08818,-1.59783 -3.27407,-6.13739 -8.75755,-32.53717 -7.61035,-36.75042 0.50057,-1.83899 1.52266,-5.44971 2.30076,-8.16674 0.77856,-2.71704 0.45784,-4.97109 -0.70789,-4.97109 -1.16534,1.8e-4 -3.04878,3.63832 -4.24772,8.1668 l -2.1238,8.34428 -0.35392,-11.89507 c -0.21997,-11.42914 0.001,-11.67013 5.30959,-10.65225 3.48393,0.66806 5.48654,-0.0231 5.48654,-1.77537 -5e-5,-3.12574 4.77144,-5.32615 11.32713,-5.32615 4.00361,5e-5 4.32802,0.74553 2.65479,8.16668 -2.96154,13.13361 -2.15007,29.60589 1.94684,37.99318 5.21548,10.67801 17.79125,25.15449 33.80436,39.41342 7.41676,6.60488 13.52125,12.52115 13.62794,13.13788 0.10681,0.61662 -15.37577,1.45476 -34.33535,1.77537 l -17.3446,0.35507 -17.52163,0 -10.97315,-9.23196 c -22.690215,-19.2717 -34.737879,-21.08506 -60.706261,-8.52187 -16.964302,8.20715 -18.374203,8.27193 -19.999341,1.77542 -2.128361,-8.50582 2.880712,-17.44957 16.99063,-30.35905 l 13.627884,-12.42768 -5.663505,-8.52176 c -3.149875,-4.77541 -6.93536,-12.30706 -8.141396,-16.68861 -2.908945,-10.56883 -1.520753,-35.506 2.65485,-47.22515 1.842571,-5.17125 4.654116,-17.77502 6.017539,-28.05101 3.268175,-24.63666 0.181867,-42.29904 -9.026308,-53.79394 -3.631966,-4.53328 -6.548532,-9.37376 -6.548532,-10.65232 0,-3.89171 11.66049,-2.64422 19.468521,2.13044 4.047893,2.47576 7.722641,4.14836 8.141339,3.72827 0.418582,-0.41973 -1.319083,-6.30494 -3.893739,-13.3153 C 70.179792,525.52498 67.079627,521.55977 54.511478,511.50057 39.313593,499.33669 35.352766,495.90974 40.883536,495.6997 z m 460.694823,87.52618 c 4.91491,-0.0404 8.49531,0.68446 8.49531,2.1305 1.8e-4,1.20771 -0.92267,2.13044 -2.1238,2.13044 -3.67024,0 -20.78535,17.327 -18.93752,19.17413 0.95165,0.95125 3.41147,-0.45092 5.4866,-3.01818 4.43691,-5.48967 17.69858,-12.79777 17.69858,-9.76452 2.3e-4,1.15096 -2.73291,4.47462 -6.1945,7.279 -9.87323,7.99799 -11.58843,12.92912 -8.84935,25.74305 2.77801,12.99227 5.87973,14.73779 4.95567,2.84064 -0.35218,-4.52831 -0.16281,-7.01313 0.53117,-5.50375 2.32091,5.04989 4.66445,2.80704 6.01754,-5.68117 1.23704,-7.75988 8.74981,-17.8532 11.32712,-15.26827 0.61009,0.6124 -0.46361,4.64245 -2.30081,9.05443 -1.86694,4.48287 -2.44712,8.16674 -1.23895,8.16674 3.13706,-6e-5 9.53536,-13.04499 8.1414,-16.68856 -0.65109,-1.70227 -0.39261,-3.19572 0.70795,-3.19572 1.09969,6e-5 2.43517,4.73882 2.83169,10.47478 l 0.53117,10.47472 3.18573,-6.56886 c 1.65198,-3.69703 3.32314,-5.4463 3.89374,-3.90586 0.55888,1.50949 2.10613,2.66305 3.36268,2.66305 1.42659,-1.2e-4 1.90227,-4.08375 1.23895,-11.00733 -0.86551,-9.03468 -0.44341,-10.93013 2.1238,-9.94216 1.73339,0.66713 5.39434,1.24275 8.14134,1.24275 5.75669,1.2e-4 16.45975,13.87413 16.45975,21.30457 6e-5,2.55127 1.01892,5.07512 2.30082,5.50369 1.28144,0.4284 2.79751,5.24423 3.36274,10.65231 4.13773,39.59639 8.39994,53.1521 21.06133,67.10937 3.68635,4.06423 8.02876,9.27445 9.73426,11.71753 2.77107,3.96868 2.82529,4.48189 -0.70795,4.43841 -8.40086,-0.10392 -24.31368,-19.10536 -29.91068,-35.68509 -1.95007,-5.77828 -3.5397,-16.33798 -3.5397,-23.6126 -6e-5,-7.27444 -0.89392,-12.72553 -1.94684,-12.0726 -3.05069,1.89083 -7.64147,35.83399 -7.43345,55.03681 0.25058,23.16919 4.53518,34.53084 18.58361,48.82297 6.23203,6.33959 10.82668,11.61661 10.26514,11.53994 -0.56061,-0.0762 -3.39052,-1.29252 -6.37146,-2.48551 -2.98175,-1.19328 -7.54158,-1.70632 -10.08823,-1.06522 -3.38769,0.85287 -5.45826,-0.40473 -7.61041,-4.43842 -1.61763,-3.03278 -7.00389,-8.64744 -12.03507,-12.78275 -16.48574,-13.55127 -22.77579,-37.56282 -16.99063,-64.09124 1.80013,-8.256 3.88386,-18.95987 4.60163,-23.79013 1.13433,-7.62865 0.7262,-8.3963 -2.12386,-6.03631 -3.66712,3.03631 -9.59229,25.18936 -7.6104,28.40615 2.23742,3.63093 -5.10595,40.56957 -11.6811,59.47523 -12.84199,36.92548 -25.23237,31.32958 -27.6098,-12.42768 -0.62187,-11.45195 -1.56181,-21.45785 -2.1238,-22.36979 -1.50442,-2.4414 5.23487,-30.2072 8.67227,-35.68515 4.96214,-7.90924 6.41649,-14.55811 3.00877,-14.55811 -3.74946,1.1e-4 -10.44221,13.49526 -10.44221,21.12703 6e-5,8.65033 -12.98292,31.19223 -22.30022,38.70327 -4.57461,3.68803 -8.3183,8.05462 -8.3183,9.76457 0,1.70989 -1.15032,2.67812 -2.65485,2.1305 -1.50499,-0.54734 -6.02903,0.29849 -10.08818,1.9529 -4.05967,1.65464 -10.391,3.01818 -13.98191,3.01818 -6.26719,1.2e-4 -6.47215,-0.2627 -5.48655,-8.16674 0.56408,-4.52837 3.0706,-13.97389 5.66351,-20.9495 2.59295,-6.97554 5.38383,-18.76033 6.01753,-26.2757 4.14328,-49.12586 18.48916,-75.39141 45.66242,-82.7327 5.51028,-1.48865 11.72181,-2.2701 16.63671,-2.30804 z m 12.91999,0.71021 c 0.81447,-0.0404 2.1451,0.11951 3.89368,0.5329 3.27834,0.77463 6.84085,2.34175 7.96438,3.37319 2.80964,2.57985 1.20684,3.16189 -5.66351,2.30798 -3.20859,-0.39838 -6.40748,-2.15001 -7.07952,-3.90581 -0.59704,-1.5607 -0.4717,-2.24354 0.88497,-2.30797 z m -329.01716,1.59783 c -3.49761,0.28406 -6.34484,1.04726 -6.9025,1.9529 -1.64431,2.66801 9.208,2.66807 15.39782,0 3.40287,-1.46689 2.35307,-1.83304 -4.77865,-1.9529 -1.26112,-0.0231 -2.55087,-0.0947 -3.71667,0 z m -20.17641,6.21384 -8.67233,1.42029 c -9.02591,1.43167 -16.15428,5.99231 -22.83121,14.55812 -5.27882,6.77249 -15.52981,27.18227 -15.39783,30.71406 0.0583,1.54951 2.9224,-2.5903 6.37158,-9.23196 7.08703,-13.64659 18.93735,-25.87699 31.85746,-32.8445 l 8.67233,-4.61601 z m 64.24591,12.0726 c 3.49935,0.0675 8.14457,0.60547 15.57484,1.59783 16.80807,2.24458 19.73099,3.32435 18.76051,6.39138 -0.63087,1.99355 0.61275,5.08713 2.83181,7.10146 5.28857,4.80146 11.51159,19.53232 20.17636,47.04761 5.15185,16.3586 9.58028,25.1751 15.75174,32.66703 4.64326,5.63642 8.31836,10.84284 8.31836,11.71753 5e-5,10.10059 -23.04148,-4.8846 -33.98132,-22.19231 -6.91382,-10.93799 -17.51337,-10.04234 -14.68981,1.24281 0.64675,2.58338 5.22841,10.50844 10.26514,17.75378 12.96282,18.64585 26.50035,47.09547 23.71617,49.8882 -2.75998,2.76876 -39.6477,-21.15573 -47.96323,-31.06914 -6.76204,-8.06184 -13.76628,-12.15217 -16.28274,-9.5871 -0.99818,1.01748 0.0779,7.20649 2.30088,13.84803 2.22201,6.6416 4.36907,15.97166 4.77859,20.7719 1.714,20.07642 -11.13706,7.02341 -28.67173,-29.11618 -3.69172,-7.60976 -7.66005,-13.16496 -8.84935,-12.42773 -1.189,0.73711 -2.12385,6.04785 -2.12385,11.89512 -1.2e-4,9.89333 -0.57938,10.89712 -7.96433,15.26827 -4.3652,2.58343 -8.25467,4.5021 -8.67233,4.08334 -0.41685,-0.41858 -1.98113,-12.74072 -3.36269,-27.34087 -2.83804,-29.98435 -0.8927,-47.36533 7.61035,-68.35212 8.18406,-20.19893 15.04096,-29.64532 27.07887,-36.21781 6.91624,-3.77596 9.56521,-5.08361 15.39776,-4.97103 z m 256.45289,7.81167 c -5.16635,0 -5.84405,23.25678 -0.88497,30.35899 1.87386,2.68384 4.35071,4.97109 5.4866,4.97109 2.89001,1.1e-4 2.49642,-1.72884 -1.59286,-7.98927 -2.54498,-3.89685 -3.22736,-8.50588 -2.47784,-16.33342 0.57678,-6.01812 0.3672,-11.00739 -0.53116,-11.00739 z m -270.08077,5.14862 c -0.59064,0.1045 -1.30125,0.58832 -2.30082,1.42029 -7.13813,5.94266 -2.73811,18.46358 9.7342,27.16328 5.91766,4.12786 14.41684,4.91346 16.45975,1.59789 0.71113,-1.15489 2.65774,-1.5681 4.42462,-0.88774 1.95897,0.75362 3.18579,-0.0912 3.18579,-2.13044 1.7e-4,-1.83998 -1.10108,-3.62285 -2.47784,-4.08335 -1.86399,-0.62325 -1.92155,-2.25653 0,-5.85876 1.86734,-3.49952 2.04979,-6.05368 0.35392,-9.23202 -3.53549,-6.62694 -6.63219,-5.21352 -5.13262,2.30803 0.93456,4.68535 0.23209,7.82605 -2.47778,10.82985 -6.47076,7.17196 -13.78163,0.44861 -19.64548,-18.2865 -0.65449,-2.09095 -1.1393,-3.01466 -2.1238,-2.84053 z m 40.35283,10.29718 c -1.20361,0 -2.30134,0.9229 -2.30082,2.13044 -1.7e-4,1.2076 1.09703,2.13044 2.30082,2.13044 1.20396,0 2.12386,-0.92284 2.12386,-2.13044 5e-5,-1.20754 -0.92008,-2.13044 -2.12386,-2.13044 z m 313.08839,4.26088 c -1.20384,0 -2.30081,1.10038 -2.30081,2.30798 5e-5,1.20771 1.09703,2.13049 2.30081,2.13049 1.20373,6e-5 2.1238,-0.9229 2.1238,-2.13049 -1.7e-4,-1.20748 -0.92001,-2.30798 -2.1238,-2.30798 z m -308.66372,4.7936 c -0.63318,-0.0173 -1.45961,0.18822 -2.30081,0.71015 -1.30321,0.80784 -1.64258,2.67645 -0.88497,3.90575 0.92411,1.49962 2.14429,1.39933 3.71666,-0.17725 2.107,-2.11346 1.36793,-4.38287 -0.53059,-4.43841 z m -142.47385,5.3261 -3.18573,8.69936 c -1.75839,4.83038 -3.16795,11.70598 -3.18573,15.26826 -0.0577,11.12251 3.72994,3.15709 5.13257,-10.82979 l 1.23889,-13.13783 z m 144.77467,3.19566 c -2.47858,0 -4.60163,1.1005 -4.60163,2.30804 5e-5,1.20765 1.45118,2.13044 3.18572,2.13044 1.73473,0 3.68047,-0.92291 4.42468,-2.13044 0.74363,-1.20743 -0.53001,-2.30804 -3.00877,-2.30804 z m -21.41536,5.32616 c -0.31697,0.0116 -0.82579,0.12817 -1.41591,0.35507 -1.64869,0.6348 -5.80201,1.33565 -9.20326,1.59783 -3.40074,0.26212 -6.40668,1.70464 -6.90245,3.19572 -1.6248,4.88864 14.15229,3.39051 16.81367,-1.59789 1.36792,-2.56328 1.65902,-3.58295 0.70795,-3.55073 z m 21.06133,2.1305 c -2.89197,0.12182 -6.37146,1.97195 -6.37146,3.9058 1.7e-4,2.59839 8.12465,2.43471 9.73426,-0.17725 0.69225,-1.12399 0.22921,-2.68221 -0.88503,-3.37325 -0.6471,-0.40126 -1.51371,-0.39549 -2.47777,-0.35507 z m -16.63666,4.26087 c -1.20372,0.24884 -3.27435,1.64841 -5.30958,3.55079 -3.79103,3.54271 -4.22572,4.43848 -1.59287,4.43848 3.84501,0 9.73802,-5.85507 7.78736,-7.81173 -0.1732,-0.17378 -0.48382,-0.26039 -0.88491,-0.17782 z m 155.92478,2.66311 c 1.20212,-0.13625 3.10606,1.34079 6.01754,4.26088 6.81071,6.83224 11.00358,6.93409 19.46841,0.88768 3.56528,-2.54688 6.84928,-4.13674 7.43339,-3.55079 1.92172,1.92727 -6.399,16.99502 -9.91117,17.93138 -18.17068,4.84464 -25.51464,1.74557 -25.13202,-10.47472 0.1911,-6.10628 0.57776,-8.87943 2.12385,-9.05443 z m -204.77298,3.19566 c -1.20361,0 -2.1238,0.92296 -2.1238,2.1305 -1.7e-4,1.20754 0.92007,2.30797 2.1238,2.30797 1.2039,6e-5 2.30082,-1.10043 2.30082,-2.30797 -1.2e-4,-1.20754 -1.09704,-2.1305 -2.30082,-2.1305 z m 63.36106,0 c -2.40757,0 -4.24766,0.92296 -4.24766,2.1305 1.7e-4,1.20754 1.84009,2.30797 4.24766,2.30797 2.40757,6e-5 4.42461,-1.10043 4.42461,-2.30797 6e-5,-1.20754 -2.01704,-2.1305 -4.42461,-2.1305 z m -43.53862,2.1305 c -2.7601,0 -4.75787,3.57203 -3.00877,5.3261 2.46455,2.47263 5.13263,1.44229 5.13263,-1.95296 0,-1.81134 -0.99115,-3.37314 -2.12386,-3.37314 z m 26.72495,4.79349 c -2.2973,-0.0901 -7.07941,4.11226 -7.07941,6.56891 -6e-5,1.05973 0.71309,1.9529 1.76982,1.9529 2.79884,-6e-5 7.78407,-6.57203 6.1945,-8.16674 -0.19861,-0.19919 -0.55657,-0.34237 -0.88491,-0.35507 z m 18.05255,0.71014 c -2.05197,0.0231 -3.36268,1.40811 -3.36268,3.72827 5e-5,1.00627 2.01699,1.77537 4.42456,1.77537 5.01819,1.1e-4 5.80628,-3.21281 1.23894,-4.97103 -0.805,-0.31004 -1.617,-0.53982 -2.30082,-0.53232 z m -67.60865,1.24276 c -0.78509,0.33429 -1.23935,1.22474 -1.23895,2.1305 6e-5,1.20759 0.92007,2.13038 2.12386,2.13038 1.20361,1.1e-4 2.1238,-0.92279 2.1238,-2.13038 1.1e-4,-1.2076 -0.92002,-2.1305 -2.1238,-2.1305 -0.3008,6e-5 -0.62326,-0.11143 -0.88491,0 z m 23.89308,4.26088 c -1.80568,1.1e-4 -3.36275,1.10044 -3.36275,2.30803 -6e-5,1.20748 1.55707,2.13044 3.36275,2.13044 1.80573,1.7e-4 3.18578,-0.9229 3.18578,-2.13044 2.9e-4,-1.20765 -1.38005,-2.30803 -3.18578,-2.30803 z m -23.18519,8.87694 c -1.13317,6e-5 -1.94736,0.92291 -1.94684,2.13044 6e-5,1.20743 1.48646,2.1305 3.36275,2.1305 1.87698,6e-5 2.86801,-0.92296 2.12385,-2.1305 -0.7434,-1.20765 -2.4071,-2.13044 -3.53976,-2.13044 z m 24.24712,2.13044 c -2.40757,-1.1e-4 -4.42468,0.92296 -4.42468,2.1305 -6e-5,1.20765 2.01711,2.30798 4.42468,2.30798 2.40762,1.1e-4 4.42415,-1.10038 4.42467,-2.30798 6e-5,-1.20748 -2.01705,-2.1305 -4.42467,-2.1305 z m 180.52581,6.56892 c 1.69662,-0.11894 4.7417,3.80742 8.49537,11.36246 6.56147,13.20872 7.3846,29.98238 2.47778,46.33746 -2.53603,8.45213 -2.41248,10.47472 0,10.47472 3.31344,-6e-5 12.03508,-11.48394 12.03508,-15.80094 5e-5,-6.84315 4.01937,2.1085 4.77859,10.65237 l 0.70795,9.4095 -21.06138,0 c -25.69709,-1.1e-4 -28.31476,-1.83633 -28.14074,-19.88427 0.1045,-10.8545 0.38394,-11.63844 3.18573,-7.63413 9.91006,14.1606 9.13306,13.87949 11.85806,3.72826 1.37174,-5.10895 2.77298,-16.74721 3.18578,-26.09805 0.41339,-9.35125 0.92187,-18.3749 1.06193,-19.88428 0.16744,-1.79632 0.64479,-2.60906 1.41585,-2.6631 z m -271.49667,5.32615 c 0.13221,0.052 0.20207,0.33256 0.35391,0.71021 0.60663,1.50938 0.60675,3.99414 0,5.50363 -0.60737,1.50938 -1.0625,0.1784 -1.06192,-2.84064 0,-2.26404 0.31177,-3.52117 0.70795,-3.3732 z m 71.14842,1.24276 c -1.13249,0 -2.12386,0.92284 -2.12386,2.13044 1.1e-4,1.20759 1.66295,2.30803 3.53976,2.30803 1.87704,0 2.69042,-1.10049 1.94684,-2.30803 -0.74404,-1.20754 -2.23009,-2.13044 -3.36274,-2.13044 z m 127.25299,15.26826 c 3.20888,-5e-5 10.88141,35.896 8.49537,39.76855 -0.96891,1.57318 -1.35026,3.92908 -0.70795,4.97109 1.75579,2.84918 9.36903,-5.17686 14.51285,-15.09073 l 4.60164,-8.69941 2.47777,13.13782 c 1.35049,7.24534 2.03749,14.0075 1.59287,14.91319 -1.41862,2.89186 -45.41347,1.94315 -49.20213,-1.06522 -1.92519,-1.529 -3.8162,-7.57622 -4.42461,-13.49289 l -1.06193,-10.65226 6.90245,6.74639 c 3.83329,3.72718 7.64989,6.74651 8.49531,6.74651 0.84548,6e-5 1.59287,-3.88658 1.59287,-8.69941 1.1e-4,-9.66885 4.44621,-28.58363 6.72549,-28.58363 z m -178.225,26.80826 c -0.32851,0.0116 -0.68607,0.15589 -0.88491,0.35508 -0.74427,0.74675 -0.10681,2.77534 1.4159,4.61595 3.04307,3.67781 6.7255,4.44471 6.7255,1.42029 1.1e-4,-2.45653 -4.95942,-6.48133 -7.25649,-6.39137 z"
     id="path2425" />
</svg>
