<?xml version="1.0" encoding="UTF-8" standalone="no"?>
<!-- Created with Inkscape (http://www.inkscape.org/) -->

<svg
   xmlns:dc="http://purl.org/dc/elements/1.1/"
   xmlns:cc="http://creativecommons.org/ns#"
   xmlns:rdf="http://www.w3.org/1999/02/22-rdf-syntax-ns#"
   xmlns:svg="http://www.w3.org/2000/svg"
   xmlns="http://www.w3.org/2000/svg"
   xmlns:sodipodi="http://sodipodi.sourceforge.net/DTD/sodipodi-0.dtd"
   xmlns:inkscape="http://www.inkscape.org/namespaces/inkscape"
   width="1000"
   height="1000"
   id="svg2"
   version="1.1"
   inkscape:version="0.47 r22583"
   sodipodi:docname="Y.svg">
  <defs
     id="defs4">
    <inkscape:perspective
       sodipodi:type="inkscape:persp3d"
       inkscape:vp_x="0 : 526.18109 : 1"
       inkscape:vp_y="0 : 1000 : 0"
       inkscape:vp_z="744.09448 : 526.18109 : 1"
       inkscape:persp3d-origin="372.04724 : 350.78739 : 1"
       id="perspective10" />
    <inkscape:perspective
       id="perspective2940"
       inkscape:persp3d-origin="0.5 : 0.33333333 : 1"
       inkscape:vp_z="1 : 0.5 : 1"
       inkscape:vp_y="0 : 1000 : 0"
       inkscape:vp_x="0 : 0.5 : 1"
       sodipodi:type="inkscape:persp3d" />
    <inkscape:perspective
       id="perspective2953"
       inkscape:persp3d-origin="0.5 : 0.33333333 : 1"
       inkscape:vp_z="1 : 0.5 : 1"
       inkscape:vp_y="0 : 1000 : 0"
       inkscape:vp_x="0 : 0.5 : 1"
       sodipodi:type="inkscape:persp3d" />
    <inkscape:perspective
       id="perspective2966"
       inkscape:persp3d-origin="0.5 : 0.33333333 : 1"
       inkscape:vp_z="1 : 0.5 : 1"
       inkscape:vp_y="0 : 1000 : 0"
       inkscape:vp_x="0 : 0.5 : 1"
       sodipodi:type="inkscape:persp3d" />
    <inkscape:perspective
       id="perspective2979"
       inkscape:persp3d-origin="0.5 : 0.33333333 : 1"
       inkscape:vp_z="1 : 0.5 : 1"
       inkscape:vp_y="0 : 1000 : 0"
       inkscape:vp_x="0 : 0.5 : 1"
       sodipodi:type="inkscape:persp3d" />
    <inkscape:perspective
       id="perspective2992"
       inkscape:persp3d-origin="0.5 : 0.33333333 : 1"
       inkscape:vp_z="1 : 0.5 : 1"
       inkscape:vp_y="0 : 1000 : 0"
       inkscape:vp_x="0 : 0.5 : 1"
       sodipodi:type="inkscape:persp3d" />
    <inkscape:perspective
       id="perspective3005"
       inkscape:persp3d-origin="0.5 : 0.33333333 : 1"
       inkscape:vp_z="1 : 0.5 : 1"
       inkscape:vp_y="0 : 1000 : 0"
       inkscape:vp_x="0 : 0.5 : 1"
       sodipodi:type="inkscape:persp3d" />
    <inkscape:perspective
       id="perspective3018"
       inkscape:persp3d-origin="0.5 : 0.33333333 : 1"
       inkscape:vp_z="1 : 0.5 : 1"
       inkscape:vp_y="0 : 1000 : 0"
       inkscape:vp_x="0 : 0.5 : 1"
       sodipodi:type="inkscape:persp3d" />
    <inkscape:perspective
       id="perspective3031"
       inkscape:persp3d-origin="0.5 : 0.33333333 : 1"
       inkscape:vp_z="1 : 0.5 : 1"
       inkscape:vp_y="0 : 1000 : 0"
       inkscape:vp_x="0 : 0.5 : 1"
       sodipodi:type="inkscape:persp3d" />
    <inkscape:perspective
       id="perspective3044"
       inkscape:persp3d-origin="0.5 : 0.33333333 : 1"
       inkscape:vp_z="1 : 0.5 : 1"
       inkscape:vp_y="0 : 1000 : 0"
       inkscape:vp_x="0 : 0.5 : 1"
       sodipodi:type="inkscape:persp3d" />
    <inkscape:perspective
       id="perspective3057"
       inkscape:persp3d-origin="0.5 : 0.33333333 : 1"
       inkscape:vp_z="1 : 0.5 : 1"
       inkscape:vp_y="0 : 1000 : 0"
       inkscape:vp_x="0 : 0.5 : 1"
       sodipodi:type="inkscape:persp3d" />
    <inkscape:perspective
       id="perspective3070"
       inkscape:persp3d-origin="0.5 : 0.33333333 : 1"
       inkscape:vp_z="1 : 0.5 : 1"
       inkscape:vp_y="0 : 1000 : 0"
       inkscape:vp_x="0 : 0.5 : 1"
       sodipodi:type="inkscape:persp3d" />
    <inkscape:perspective
       id="perspective3083"
       inkscape:persp3d-origin="0.5 : 0.33333333 : 1"
       inkscape:vp_z="1 : 0.5 : 1"
       inkscape:vp_y="0 : 1000 : 0"
       inkscape:vp_x="0 : 0.5 : 1"
       sodipodi:type="inkscape:persp3d" />
    <inkscape:perspective
       id="perspective3096"
       inkscape:persp3d-origin="0.5 : 0.33333333 : 1"
       inkscape:vp_z="1 : 0.5 : 1"
       inkscape:vp_y="0 : 1000 : 0"
       inkscape:vp_x="0 : 0.5 : 1"
       sodipodi:type="inkscape:persp3d" />
    <inkscape:perspective
       id="perspective3109"
       inkscape:persp3d-origin="0.5 : 0.33333333 : 1"
       inkscape:vp_z="1 : 0.5 : 1"
       inkscape:vp_y="0 : 1000 : 0"
       inkscape:vp_x="0 : 0.5 : 1"
       sodipodi:type="inkscape:persp3d" />
    <inkscape:perspective
       id="perspective3122"
       inkscape:persp3d-origin="0.5 : 0.33333333 : 1"
       inkscape:vp_z="1 : 0.5 : 1"
       inkscape:vp_y="0 : 1000 : 0"
       inkscape:vp_x="0 : 0.5 : 1"
       sodipodi:type="inkscape:persp3d" />
    <inkscape:perspective
       id="perspective3135"
       inkscape:persp3d-origin="0.5 : 0.33333333 : 1"
       inkscape:vp_z="1 : 0.5 : 1"
       inkscape:vp_y="0 : 1000 : 0"
       inkscape:vp_x="0 : 0.5 : 1"
       sodipodi:type="inkscape:persp3d" />
    <inkscape:perspective
       id="perspective3148"
       inkscape:persp3d-origin="0.5 : 0.33333333 : 1"
       inkscape:vp_z="1 : 0.5 : 1"
       inkscape:vp_y="0 : 1000 : 0"
       inkscape:vp_x="0 : 0.5 : 1"
       sodipodi:type="inkscape:persp3d" />
    <inkscape:perspective
       id="perspective3161"
       inkscape:persp3d-origin="0.5 : 0.33333333 : 1"
       inkscape:vp_z="1 : 0.5 : 1"
       inkscape:vp_y="0 : 1000 : 0"
       inkscape:vp_x="0 : 0.5 : 1"
       sodipodi:type="inkscape:persp3d" />
    <inkscape:perspective
       id="perspective3174"
       inkscape:persp3d-origin="0.5 : 0.33333333 : 1"
       inkscape:vp_z="1 : 0.5 : 1"
       inkscape:vp_y="0 : 1000 : 0"
       inkscape:vp_x="0 : 0.5 : 1"
       sodipodi:type="inkscape:persp3d" />
    <inkscape:perspective
       id="perspective3187"
       inkscape:persp3d-origin="0.5 : 0.33333333 : 1"
       inkscape:vp_z="1 : 0.5 : 1"
       inkscape:vp_y="0 : 1000 : 0"
       inkscape:vp_x="0 : 0.5 : 1"
       sodipodi:type="inkscape:persp3d" />
  </defs>
  <sodipodi:namedview
     id="base"
     pagecolor="#ffffff"
     bordercolor="#666666"
     borderopacity="1.0"
     inkscape:pageopacity="0.0"
     inkscape:pageshadow="2"
     inkscape:zoom="2.128"
     inkscape:cx="105.73308"
     inkscape:cy="203.94737"
     inkscape:document-units="px"
     inkscape:current-layer="svg2"
     showgrid="false"
     showborder="true"
     inkscape:showpageshadow="false"
     showguides="true"
     inkscape:guide-bbox="true"
     inkscape:window-width="1280"
     inkscape:window-height="750"
     inkscape:window-x="0"
     inkscape:window-y="26"
     inkscape:window-maximized="1">
    <sodipodi:guide
       orientation="0,1"
       position="0,200"
       id="guide2818" />
  </sodipodi:namedview>
  <metadata
     id="metadata7">
    <rdf:RDF>
      <cc:Work
         rdf:about="">
        <dc:format>image/svg+xml</dc:format>
        <dc:type
           rdf:resource="http://purl.org/dc/dcmitype/StillImage" />
        <dc:title />
      </cc:Work>
    </rdf:RDF>
  </metadata>
  <g
     inkscape:label="Layer 1"
     inkscape:groupmode="layer"
     id="layer1" />
  <path
     style="fill:#800000"
     d="M 0,0 0,6.0905139 0,793.90949 0,800 l 6.1792533,0 724.7883067,0 6.17925,0 0,-6.09051 0,-189.87901 0,-597.9399661 L 737.14681,0 730.96756,0 6.1792533,0 0,0 z m 12.358507,12.360065 712.248043,0 0,770.443315 c -2.83048,0.94576 -5.83099,1.59892 -7.81484,1.6122 -1.96543,0.0116 -5.26865,0.45438 -8.72371,0.89565 l -51.61476,2.5078 -44.16341,0 -599.931323,0 0,-59.65066 c 0.554837,-28.24933 0.86199,-63.37789 0.545022,-90.81956 -0.08891,-7.67258 -0.381054,-25.52254 -0.545022,-37.08008 l 0,-195.79048 c 0.470544,-43.17671 0.398374,-85.59588 0,-137.03529 l 0,-255.082895 z M 240.2633,20.420975 C 120.88155,20.522012 25.159036,21.059991 23.990008,22.212276 23.120974,23.068839 23.637245,296.9821 24.535031,311.1509 c 1.743438,27.52873 2.036445,297.83225 0.363733,376.53382 l -1.999205,90.103 43.436466,0.53752 c 71.739425,1.07469 502.903125,-0.17609 543.954775,-1.6122 3.47902,-0.12183 7.77593,-0.37355 11.6315,-0.53752 l 95.41472,0 0,-2.14961 -0.18187,-10.74786 -0.90875,-79.71333 c -0.68959,-49.74574 -0.66073,-97.81721 0.18186,-106.94138 0.84219,-9.12416 0.31004,-39.55162 -1.27214,-67.53242 -1.68564,-29.80593 -3.34479,-121.86899 -3.8166,-222.30185 -0.15185,-32.24214 -0.33083,-58.70155 -0.54502,-85.08729 l 0,-178.772949 -8.17841,0 C 671.1259,21.22015 426.79757,20.263473 240.26364,20.420975 z m 288.42506,18.80877 c 1.32318,-0.234983 1.99915,0.344681 1.99915,1.791359 -1.2e-4,1.849324 -3.85465,5.234932 -21.44561,18.987865 -11.25604,8.799808 -4.48408,8.878098 13.99421,0.17898 24.35513,-11.465628 41.23265,-16.176091 63.06462,-17.554871 17.9335,-1.132597 19.75494,-0.929195 41.61896,7.523508 23.0533,8.912623 43.36123,22.464868 46.70775,31.168835 0.90847,2.363402 4.5469,8.504203 7.99665,13.613965 3.45028,5.109874 7.3689,12.759534 8.72366,17.017474 2.09712,6.59454 2.23026,10.72528 0.90864,22.74962 -0.31697,2.88706 -6.21822,1.73425 -7.4514,-1.43306 -0.64969,-1.66901 -2.0283,-7.85872 -2.90784,-13.793 -3.59571,-24.243293 -19.76938,-43.160143 -49.07047,-57.322075 -18.69324,-9.034618 -36.02785,-12.714503 -51.06956,-10.74786 -13.20583,1.726694 -15.15001,4.194481 -6.9062,8.419216 9.04155,4.633559 23.08126,19.093637 23.08126,23.82448 5e-5,4.472074 -4.41203,5.688906 -4.54355,1.253841 -0.0964,-3.239421 -17.35632,-14.344779 -26.35261,-17.017412 -3.42267,-1.017068 -9.69851,-3.360839 -13.99415,-5.194806 -6.97796,-2.979034 -8.48515,-3.03088 -14.53946,0 -3.72711,1.865895 -7.20654,3.752979 -7.63321,4.120003 -0.42666,0.367198 2.59573,3.708637 6.72457,7.344355 10.45439,9.207074 6.16765,11.250217 -7.99671,3.940907 -10.22489,-5.276848 -12.71225,-5.71812 -18.35601,-3.582601 -3.59559,1.360594 -14.00587,2.617668 -23.26294,2.686951 -13.5631,0.101614 -19.49282,-1.00708 -30.16921,-5.732208 -7.28702,-3.225045 -13.86644,-5.320958 -14.53946,-4.657404 -0.67337,0.663669 -0.81592,5.904375 -0.54502,11.643511 l 0.36373,10.389612 -5.63394,-6.627858 c -3.13694,-3.649748 -6.23659,-8.764474 -6.9062,-11.285262 -0.66979,-2.520615 -4.005,-6.233352 -7.45152,-8.240006 -7.12063,-4.145983 -15.30723,-2.675807 -28.5335,5.015653 -9.5025,5.526035 -9.8141,5.545203 -9.8141,0.35796 -6e-5,-4.28172 7.36791,-10.33026 18.71951,-15.226111 11.18047,-4.822355 24.87654,-3.193522 45.43556,5.194748 10.60531,4.326753 24.14699,8.432726 30.16926,9.135713 11.86643,1.385247 9.47554,2.617206 36.53015,-19.346114 6.68138,-5.424478 10.8799,-8.206288 13.08545,-8.598369 z m -167.20294,2.328703 c 4.35077,-0.180712 5.51132,0.96551 6.54276,5.015652 0.76852,3.019045 0.97613,7.26878 0.54502,9.49402 -0.7938,4.10603 -6.27532,5.532385 -13.63065,3.582601 -3.14606,-0.833931 -3.98513,-2.838738 -3.4531,-9.135656 0.621,-7.345856 1.45955,-8.15473 7.99665,-8.777407 0.7609,-0.07217 1.37763,-0.153576 1.99915,-0.17898 z m -184.28668,3.045257 c 0.4844,-0.135101 2.85738,1.138601 7.81489,4.120002 5.5545,3.340401 14.45899,8.128114 19.80991,10.568823 l 9.63235,4.478193 15.26635,-5.553054 c 14.89246,-5.440817 47.25856,-13.311257 53.97747,-13.076563 8.64559,0.301957 43.08872,10.922568 48.16171,14.867863 3.34386,2.599828 5.81298,7.256424 6.17925,11.106167 0.5762,6.044556 -0.0768,6.553899 -8.36015,8.060852 -8.4564,1.538535 -9.39685,1.244719 -17.08381,-6.986049 -4.48801,-4.805207 -10.33725,-8.777522 -12.9037,-8.777464 -2.56681,5.7e-5 -9.30656,2.837236 -15.08461,6.448704 -11.47711,7.174209 -16.41009,6.954583 -11.0863,-0.537517 6.14276,-8.643576 4.53206,-10.106131 -9.45055,-8.777464 -8.95858,0.851309 -14.64258,2.641801 -18.5377,6.090456 -10.99364,9.733737 -25.3051,18.80877 -29.80576,18.80877 -4.25256,5.8e-5 -4.15557,-0.319854 1.45395,-6.090398 6.09092,-6.266319 8.27315,-11.835655 3.0896,-7.702719 -1.54315,1.230169 -8.76944,3.401138 -16.17505,4.836557 -7.40567,1.435419 -17.15655,3.522152 -21.6273,4.657404 -12.5902,3.197275 -49.07047,5.347632 -49.07047,2.866104 -1.7e-4,-1.176418 5.54122,-3.793335 12.35845,-5.911303 6.81683,-2.117968 11.92832,-4.67969 11.26806,-5.732265 -1.69788,-2.708198 -20.66468,-8.752927 -32.89536,-10.389497 -14.16279,-1.895282 -40.974796,2.885272 -48.343458,8.598254 -7.887357,6.115052 -25.44396,29.888609 -25.44396,34.393129 -1.16e-4,1.95458 -1.615496,7.86548 -3.634794,13.07662 -8.139892,21.00774 -9.491133,3.07626 -1.453894,-19.34617 7.54054,-21.037071 20.587599,-33.946893 41.255509,-41.020988 20.266127,-6.936801 39.186497,-6.344839 64.881897,2.328644 17.08941,5.768581 51.62261,10.102032 51.61487,6.448705 -0.002,-1.092759 -4.46976,-4.733038 -9.8141,-8.060852 -5.34492,-3.327988 -11.62666,-8.272395 -13.99416,-10.927072 -1.64349,-1.842858 -2.37593,-2.760967 -1.99914,-2.866046 z m 309.87061,63.233325 c 2.58903,-0.0906 5.9094,1.14939 11.08631,3.5826 6.37041,2.9941 7.74221,4.68384 6.72439,8.24 -5.39573,18.85756 -2.6817,36.3779 6.361,41.9167 8.46425,5.18418 18.60104,5.96419 23.80826,1.79141 5.45202,-4.36936 14.14293,-34.56985 13.08545,-45.49935 -0.59877,-6.1882 -0.0231,-7.06451 5.63406,-7.70266 5.01652,-0.56639 8.22367,1.31048 15.0846,8.41916 4.78419,4.95687 9.98119,8.95661 11.6315,8.95661 1.6502,-5e-5 6.98992,-4.08755 11.81326,-8.95661 5.26524,-5.31461 10.26115,-8.35877 12.35844,-7.70266 3.59179,1.12387 8.0884,1.93078 28.53351,4.6574 9.37387,1.24991 14.01337,3.31061 22.17261,10.38967 9.59482,8.32378 10.3578,9.55337 9.26891,17.55481 -1.55153,11.40356 -10.19297,23.38731 -17.99251,25.07838 -7.96161,1.72606 -23.01896,-0.77204 -25.9891,-4.29915 -1.25909,-1.49576 -3.68162,-6.68485 -5.27061,-11.46442 -1.58888,-4.77946 -4.43663,-8.94957 -6.36095,-9.31481 -4.87738,-0.92561 -19.3964,20.57455 -21.2638,31.52714 -0.82994,4.86624 -4.91854,21.80236 -9.08721,37.61755 -4.16804,15.81518 -8.44445,38.24119 -9.6323,49.79845 -4.97703,48.41066 -13.86124,86.77282 -26.17091,113.92748 -2.75796,6.08272 -6.35517,15.01734 -7.99665,19.88352 -1.64124,4.86629 -3.62422,10.01156 -4.5436,11.28526 -0.91996,1.27341 -5.50618,9.49708 -9.99574,18.45052 -4.48911,8.95315 -11.32314,20.92304 -15.26636,26.51143 -15.5298,22.00685 -24.31459,33.31839 -25.8074,33.31839 -0.85939,-6e-5 -6.12654,4.17727 -11.63156,9.13571 -5.50467,4.95861 -13.01698,10.44844 -16.72025,12.36006 -3.70275,1.91157 -13.91938,8.31027 -22.71786,14.15137 -17.94188,11.91077 -35.97959,18.65375 -58.52101,21.85397 -8.37592,1.18906 -20.83575,3.57919 -27.62486,5.37396 -6.78848,1.79465 -25.86486,4.85318 -42.52772,6.80695 -73.74296,8.64595 -87.56772,11.51332 -111.40796,23.10793 -35.50794,17.2696 -50.24244,35.08861 -54.70447,66.09948 -2.57731,17.91162 -1.28582,23.01717 8.17841,32.60177 20.11907,20.37467 28.85324,25.56284 53.97751,31.88539 20.50862,5.16109 43.77815,5.71784 79.05792,2.14961 20.3756,-2.0611 25.6267,-3.54842 46.52595,-13.43487 27.95684,-13.22529 41.47323,-21.8766 47.79821,-30.63143 9.1606,-12.67986 13.01369,-46.45436 6.17925,-54.99332 -3.06529,-3.82971 -17.26509,-9.43207 -19.8099,-7.8817 -1.10338,0.67193 -1.99915,4.39696 -1.99915,8.41916 0,17.10673 -19.05091,25.8204 -29.07875,13.25572 -5.74249,-7.19581 -5.8415,-20.05061 -0.36374,-26.51144 7.22623,-8.52319 18.26196,-12.79729 33.07717,-12.71837 15.38604,0.082 19.17227,2.10614 43.98161,24.54104 13.92077,12.58841 16.40541,13.30999 26.3526,8.24006 6.06534,-3.09133 6.7424,-2.90802 8.90535,1.07475 4.12404,7.59533 2.53851,10.30122 -8.90535,15.58442 -6.17129,2.84895 -11.08631,5.83838 -11.08631,6.62785 -1.1e-4,0.78971 -3.59651,5.50277 -7.99665,10.56871 -6.22123,7.16347 -7.81836,10.78273 -7.26964,16.30092 0.59877,6.02157 1.76064,7.46132 8.36015,9.13571 4.27733,1.08519 11.44906,1.53784 15.81155,0.89571 20.62085,-3.03533 22.76844,-4.10678 31.0779,-14.86792 6.66331,-8.6284 9.5823,-10.82483 15.26641,-10.92702 8.12569,-0.14607 10.88417,2.59232 13.63065,13.07656 1.08889,4.15782 3.94443,8.54456 6.361,9.85227 26.16,14.15477 37.53446,22.99425 48.16171,37.08014 13.69139,18.14764 18.9922,20.22531 30.16921,11.82266 6.1337,-4.61115 9.22064,-5.63532 13.99415,-4.4783 10.32287,2.50173 15.972,7.43373 18.35601,15.94272 3.30166,11.78589 -2.7265,19.56112 -17.81076,22.74968 -6.21903,1.31458 -13.459,2.23598 -16.1751,2.14955 -8.34688,-0.26616 -32.39439,-7.75953 -39.07456,-12.18097 -3.47966,-2.30278 -8.25426,-5.2761 -10.7228,-6.6278 -33.91883,-18.57062 -33.44535,-18.35324 -62.51937,-25.43669 -26.09042,-6.35667 -92.20012,-6.14756 -117.22383,0.35854 -9.76318,2.53828 -24.32724,6.07088 -32.3501,7.88175 -8.0228,1.81065 -20.10932,4.84742 -26.89785,6.62786 -11.8483,3.10709 -61.64208,4.87288 -93.23383,3.40351 -15.30093,-0.71159 -45.9554,-10.69561 -62.88286,-20.42104 -6.17187,-3.5457 -15.34343,-8.2251 -20.3551,-10.56864 -19.88196,-9.29738 -44.041248,-43.82717 -51.614813,-73.44384 -5.245902,-20.51382 -3.220195,-54.64431 4.725301,-78.81768 5.08228,-15.46358 5.841847,-20.79002 4.907053,-36.5428 -1.476123,-24.89796 -5.23805,-49.24413 -8.360153,-54.99326 -1.412036,-2.60121 -1.926344,-6.02204 -1.272201,-7.7026 0.6542,-1.68057 -0.387405,-7.72154 -2.362708,-13.43487 -3.372444,-9.75418 -3.570188,-10.55139 0.181866,-13.25577 2.921011,-2.10498 3.694724,-4.72201 2.726211,-9.49391 -0.958004,-4.7201 -0.329092,-6.93235 2.180899,-7.88175 4.294537,-1.62422 7.633148,0.28348 7.633148,4.29909 -1.15e-4,1.6685 2.311382,3.37314 5.088862,3.76176 3.559275,0.49825 5.148906,2.31987 5.633941,6.4487 0.433016,3.68116 2.404163,6.42619 5.270555,7.16532 4.18357,1.07832 4.441994,2.53563 3.816545,18.80871 -0.884449,23.0081 1.709663,26.79665 5.815809,8.41922 1.193392,-5.34111 2.309418,-6.15293 6.9062,-5.01571 4.852089,1.20014 5.674473,0.37008 7.996655,-8.06085 3.51106,-12.74771 1.30118,-38.4927 -3.816665,-44.06631 -3.534911,-3.84991 -3.695416,-5.28741 -0.908641,-14.68876 6.089126,-20.54119 5.562116,-49.08196 -0.908756,-49.08196 -2.187885,6e-5 -3.279432,5.18372 -3.998296,19.34617 -0.897036,17.67283 -1.62127,20.32115 -8.541962,29.91488 -8.604431,11.92872 -14.396164,13.34192 -21.990802,5.37396 -9.448928,-9.91329 -5.238281,-37.08268 7.814957,-50.51501 3.925434,-4.03981 5.160222,-7.34551 4.180105,-10.38955 -2.153129,-6.6856 -7.594119,-7.74862 -9.995914,-1.97051 -1.127458,2.71339 -4.28068,9.85994 -6.906143,15.94272 l -4.906994,11.10611 -5.452307,-6.6278 c -3.858287,-4.65429 -5.100523,-8.24578 -4.180105,-12.00182 1.877615,-7.6653 9.283747,-16.26437 16.720306,-19.34617 5.641967,-2.33846 7.30342,-2.04614 13.812401,2.68695 9.605737,6.98524 20.140842,9.83697 37.257216,9.85221 16.81458,0.0173 24.13706,-2.62598 33.6223,-11.64351 l 7.26965,-6.80701 8.9054,9.85227 c 10.51738,11.45235 13.18782,17.20921 8.90535,19.88351 -6.26978,3.91591 -15.04465,2.08223 -19.62815,-4.12 -8.14809,-11.02482 -7.38419,-3.46303 0.90876,9.31487 8.42833,12.98568 9.32514,19.38197 2.9079,20.60007 -2.61016,0.49537 -5.21201,-2.42397 -8.54196,-9.85221 -6.41054,-14.3005 -10.99243,-21.02166 -13.4489,-19.52533 -1.11828,0.68134 1.24062,9.11066 5.45231,18.80877 l 7.63309,17.73403 -6.72445,0 c -7.49557,-6e-5 -7.96097,-0.97856 -13.08546,-20.95838 -3.09127,-12.05505 -4.10343,-13.30912 -9.9958,-13.97227 l -6.36094,-0.89559 1.81739,9.67305 c 1.05968,5.26773 1.60753,17.34097 1.27221,26.86968 -0.41512,11.77232 0.37412,18.41773 2.36265,20.77923 2.07634,2.46582 2.86373,11.28821 2.72609,30.27313 -0.22055,30.44749 -1.52485,34.66541 -27.624801,83.11689 -17.683679,32.82665 -24.591669,52.54152 -27.079606,78.45949 -2.907269,30.2867 2.21098,51.44155 18.53776,78.10119 3.911751,6.38692 7.951155,11.64351 9.0871,11.64351 1.178785,-6e-5 1.438017,-4.12688 0.545023,-9.49391 -0.860143,-5.17038 -1.443964,-17.86912 -1.272143,-28.12363 0.248839,-14.87485 1.344947,-20.67628 5.633999,-29.01929 2.956922,-5.75126 6.255288,-10.86737 7.269648,-11.2852 1.01499,-0.41743 4.91092,-4.62767 8.5419,-9.49397 15.47276,-20.73419 25.41059,-31.02155 40.34681,-41.20014 15.37836,-10.47979 34.87176,-31.43199 42.3459,-45.6785 6.19121,-11.80038 9.67393,-51.31979 12.54026,-136.49795 3.65691,-108.68747 1.48738,-146.03054 -10.3593,-170.71204 -7.40613,-15.43085 -30.54021,-37.71165 -42.34596,-40.8419 -4.96663,-1.31665 -10.97868,-3.35206 -13.44895,-4.47836 -2.47056,-1.1266 -9.09397,-2.24741 -14.53941,-2.5078 -9.56423,-0.45727 -9.82865,-0.31408 -11.81314,7.16526 -2.56126,9.65354 -3.12776,10.37264 -13.449012,12.18091 -7.113759,1.24639 -9.433859,0.55426 -14.175846,-4.12 -4.578595,-4.51301 -5.452306,-7.76629 -5.452306,-17.37572 0,-14.28964 3.491668,-19.87422 15.084602,-23.64533 10.202842,-3.31886 40.634682,-2.1634 63.973322,2.3287 14.81751,2.85173 15.35278,2.79931 27.44305,-3.0452 13.61125,-6.57988 17.09864,-7.15019 20.71866,-3.58265 1.69465,1.6704 1.5928,4.55671 0,9.67311 -3.12609,10.03945 -0.54965,18.08852 8.5419,27.04878 6.69056,6.59477 8.58399,7.45855 14.90285,6.09051 12.00672,-2.59931 14.80868,-5.56882 19.99165,-21.85408 2.72876,-8.57291 5.87465,-16.5952 6.9062,-17.73391 1.15137,-1.27134 8.53746,-0.47979 19.08296,1.97045 13.31588,3.09404 21.42771,3.49311 36.53015,2.32864 22.32099,-1.72109 29.86592,0.48152 33.80411,9.85221 1.46793,3.49271 1.79165,9.51337 0.9087,14.15137 -3.29854,17.32947 -22.45037,22.22365 -40.16506,10.21052 -5.38187,-3.64969 -10.90374,-6.62786 -12.17669,-6.62786 -3.2538,-6e-5 -6.47919,13.37881 -10.35931,42.45404 -6.60464,49.49546 -13.04486,168.49725 -15.0846,279.80297 -0.3008,16.43982 0.13857,18.79508 5.8157,26.86973 7.71207,10.9687 14.7301,13.58648 41.25551,15.22611 22.21129,1.37295 25.53633,0.69387 52.16,-12.18091 29.91886,-14.46816 73.99458,-51.21072 74.15087,-61.80033 0.0231,-1.52063 0.94669,-2.86604 2.18096,-2.86604 1.23426,-6e-5 2.36265,-2.17784 2.36265,-4.83656 1.7e-4,-2.65895 2.20971,-7.02202 4.90711,-9.85227 6.72872,-7.05989 23.85207,-50.92233 28.89694,-73.80197 9.84113,-44.62928 10.72211,-51.98149 11.99501,-99.41787 0.91874,-34.25369 -0.75363,-49.07762 -6.90621,-59.82981 -1.74049,-3.04145 -6.07151,-10.86374 -9.63235,-17.55482 -8.9117,-16.74478 -19.50627,-27.32613 -32.16835,-32.06448 -10.30416,-3.85633 -11.02753,-4.00176 -19.62821,-0.17898 -4.91335,2.18384 -8.90541,4.79395 -8.90541,5.73226 -1.1e-4,0.93855 2.54839,4.62554 5.634,8.24001 6.77976,7.94117 6.72543,8.07061 0.90876,16.12188 -3.8703,5.35762 -6.16748,6.48958 -13.99421,6.44864 -21.48031,-0.11258 -30.24386,-21.23926 -19.26465,-46.39494 10.14943,-23.25308 39.42443,-31.63823 69.97082,-20.06273 9.42121,3.57001 16.17823,2.7952 20.7186,-2.14955 2.48084,-2.70202 4.31723,-4.02907 6.9062,-4.12 z m -123.94817,63.94981 c 4.56365,6e-5 7.13709,8.87123 3.2713,11.28527 -4.40193,2.74919 -6.35252,2.32402 -7.81496,-1.433 -1.80071,-4.62449 0.61644,-9.85227 4.54366,-9.85227 z M 87.781516,196.32782 c 1.34362,-0.2269 4.823567,0.89236 8.541846,2.86611 12.406258,6.58513 22.806608,34.62551 16.902118,45.49935 -1.37082,2.52408 -3.11604,4.39506 -3.99836,4.29916 -6.03936,-0.65761 -7.2697,-3.38423 -7.2697,-16.48007 -1.2e-4,-12.67178 -0.76067,-15.01832 -7.99665,-24.36188 -4.40435,-5.68706 -7.47478,-10.9041 -6.72445,-11.64357 0.09353,-0.0924 0.352764,-0.14665 0.545023,-0.17898 z m 282.609314,0 c 3.99939,0.10277 3.84154,3.02026 -0.54502,7.34436 -5.0141,4.94192 -8.10572,4.36913 -7.26976,-1.43305 0.46073,-3.19838 2.57101,-5.27778 5.81575,-5.73221 0.73595,-0.10277 1.42791,-0.19399 1.9992,-0.17898 z m 82.32927,2.86611 c 4.96017,-0.25924 10.12888,1.56047 13.63065,5.37396 4.97899,5.4232 1.04345,18.1653 -8.90541,29.01922 -4.23744,4.6234 -7.6332,9.47462 -7.6332,10.74786 -6e-5,1.27336 2.52073,7.3256 5.63405,13.43482 9.40742,18.46079 14.53935,37.36061 14.53935,53.56026 -1.7e-4,8.28539 -0.94657,15.54908 -2.1809,16.30097 -1.23421,0.75189 -2.36259,4.42254 -2.36259,8.06091 6e-5,9.79794 -5.447,18.66709 -14.1759,22.74968 -6.92936,3.24098 -17.08381,4.7951 -17.08381,2.68695 1.1e-4,-0.44687 3.91914,-3.37556 8.90535,-6.62791 4.98644,-3.25271 10.20722,-8.38366 11.6315,-11.46436 2.33973,-5.06161 1.93344,-6.28924 -4.54355,-11.28526 -5.57511,-4.30055 -7.08795,-7.17918 -7.08795,-13.07662 -1.8e-4,-6.5632 0.70968,-7.52351 5.4523,-7.52351 3.01287,5e-5 6.14375,0.933 6.9062,2.1496 0.76309,1.21649 2.48344,2.14955 3.81666,2.14955 1.59668,0 1.90083,-4.33841 1.0904,-12.71831 -0.88162,-9.12186 -4.63224,-19.92468 -13.63065,-38.69229 -16.4915,-34.39347 -17.23254,-51.14709 -2.36265,-61.97942 2.40491,-1.75192 5.38377,-2.71074 8.36015,-2.8661 z m -107.77323,1.6122 c 4.69666,0.32043 5.34353,3.86857 1.09051,8.06091 -1.48144,1.45978 -4.59846,2.68701 -6.9062,2.68701 -7.20741,-6e-5 -4.02607,-9.72046 3.4531,-10.56882 0.82712,-0.0941 1.6913,-0.22459 2.36259,-0.17898 z m -268.433411,4.47825 c 1.764281,-0.49364 3.089656,2.3033 3.089656,8.24007 0,4.713 1.378492,12.80358 3.271349,18.09227 5.563216,15.54088 8.267256,17.65516 43.254716,32.24352 5.47355,2.28246 8.85448,6.1165 12.90364,14.68883 9.20621,19.48906 6.21592,34.24925 -8.72359,43.34975 -16.00964,9.75209 -49.959711,2.45999 -60.883665,-13.07662 -5.476381,-7.78829 -6.107084,-10.1585 -5.270612,-23.10787 1.086292,-16.81794 5.107567,-22.92508 11.81331,-18.09228 3.591781,2.5888 3.708176,3.83624 1.453895,10.56877 -1.595751,4.7656 -1.806485,11.12787 -0.726947,16.48001 1.556432,7.71854 3.140405,9.41492 14.175903,14.86792 11.081336,5.47615 13.234586,5.88809 20.173406,3.5826 10.45583,-3.47354 13.3108,-6.05685 13.2672,-11.64345 -0.0618,-7.89123 -9.55198,-21.8624 -18.17419,-26.69059 -26.383899,-14.77467 -31.888802,-21.50709 -35.803324,-44.0663 -1.35915,-7.83268 -1.023419,-12.85705 1.272259,-18.27137 1.84713,-4.35689 3.535084,-6.78149 4.906994,-7.16526 z m 305.872321,9.31481 c 1.17451,0.006 2.29065,0.48267 3.45315,1.43305 1.91036,1.56336 3.2758,4.98407 2.90779,7.52357 -0.46188,3.18405 -2.65029,4.89123 -6.9062,5.3739 -5.24261,0.59462 -6.17925,-0.24422 -6.17925,-4.8365 6e-5,-5.60813 3.20022,-9.51122 6.72451,-9.49402 z m -27.98837,24.18267 c 1.70568,-0.25461 3.23042,3.5221 4.18011,12.00188 0.78774,7.03726 2.00013,14.98506 2.72615,17.55487 0.98578,3.48861 0.0346,4.83338 -3.4531,5.73215 -3.87474,0.99876 -4.54355,3.03255 -4.54355,11.46436 0,9.52589 2.47096,12.92633 5.63406,7.88187 2.02802,-3.23446 9.99574,-2.65133 9.99574,0.7165 1.2e-4,4.01654 -4.58974,8.06085 -9.08704,8.06085 -4.2028,0 -7.02664,7.40486 -3.99841,10.38961 3.36199,3.31338 -2.13512,16.79195 -11.4497,28.30273 -15.85773,19.59686 -23.67275,41.0621 -18.17425,49.61942 2.7586,4.29338 22.50568,5.66737 32.89541,2.32864 10.07426,-3.2374 22.44657,-11.11529 39.2563,-25.25747 13.45219,-11.31777 21.13759,-12.98442 22.71775,-4.83656 1.24853,6.43889 -7.1141,39.70242 -12.5402,49.79851 -2.18569,4.06677 -3.42232,7.91287 -2.72609,8.59825 0.69508,0.68555 5.05705,-0.39375 9.81405,-2.5078 10.72274,-4.766 21.44324,-4.06296 22.53605,1.61215 0.44168,2.29366 -1.98916,7.22046 -5.634,11.10617 -3.58779,3.82538 -10.51097,12.70919 -15.26635,19.70442 -7.90191,11.62174 -9.38201,12.71831 -16.90206,12.71831 -4.52646,-5e-5 -8.89201,-0.70316 -9.63229,-1.43305 -0.74092,-0.72989 -7.41168,-1.2539 -14.90297,-1.25396 -7.49112,-5e-5 -14.21441,-0.87301 -14.90285,-1.97039 -1.76197,-2.81045 8.96903,-6.44876 19.08296,-6.44876 4.68465,-6e-5 13.02985,-0.50981 18.53776,-1.2539 8.50911,-1.14928 10.51189,-2.52119 13.08545,-8.4191 1.66567,-3.81788 3.41378,-7.91923 3.9983,-9.13572 0.58439,-1.21666 -1.0143,-0.32216 -3.6348,1.9704 -3.61285,3.16021 -6.80476,3.8707 -13.08545,2.8661 -9.24622,-1.47866 -12.93194,-5.32269 -9.26891,-9.67311 1.78299,-2.1178 1.43063,-4.04281 -1.2722,-6.98611 -2.02172,-2.20197 -3.63485,-4.89799 -3.63485,-6.0904 -6e-5,-1.19252 -1.29564,-4.09598 -2.90791,-6.26961 -2.72147,-3.66822 -3.8065,-3.06581 -14.90285,6.26961 -20.70792,17.4218 -44.02317,21.59676 -60.88366,11.10606 -5.23995,-3.26027 -10.55179,-8.81436 -12.35845,-13.07657 -1.72663,-4.07237 -4.37987,-7.76819 -5.81581,-8.24 -1.85567,-0.60992 -2.05284,-5.05261 -0.90864,-15.58442 1.38028,-12.69984 3.15929,-17.35141 12.90365,-32.06449 6.25055,-9.43767 16.83248,-22.89153 23.44481,-30.09403 13.06311,-14.2289 14.14369,-16.68682 7.99665,-18.27137 -6.25529,-1.61232 -17.65637,-22.55153 -19.44646,-35.64714 -1.05898,-7.75289 -0.8774,-11.64351 0.72695,-11.64351 3.57313,-6e-5 10.19747,11.07701 10.54111,17.55481 0.362,6.81619 12.46901,26.89226 15.6298,25.97409 1.23421,-0.35854 3.49149,-11.61332 5.08886,-24.89929 3.18463,-26.49133 7.2846,-41.78886 10.54093,-42.275 z m 273.34052,12.36013 c 7.16734,-0.17032 14.71071,2.21311 28.17006,8.24 9.68154,4.3353 11.6636,6.16488 11.08625,10.03136 -1.05033,7.03011 -3.66066,6.81071 -18.5377,-2.1496 -11.94824,-7.19598 -15.10019,-8.06085 -28.35181,-8.06085 -16.94657,5e-5 -17.83414,-2.05429 -2.5444,-6.44871 3.69218,-1.06123 6.92005,-1.53478 10.1776,-1.6122 z m 66.88117,14.50967 c 1.22387,-0.0947 2.25976,0.0462 3.0896,0.35796 6.85764,2.59394 3.29034,6.68813 -11.63151,13.07662 -8.33174,3.56666 -18.61553,9.88344 -22.7178,14.15136 l -7.4514,7.70261 0.72695,23.28708 c 0.35392,12.81311 -0.18937,24.53739 -1.09039,25.97403 -3.02453,4.82218 2.66928,5.29492 12.35844,1.07474 5.2847,-2.3018 11.45212,-4.79666 13.63065,-5.55305 7.84475,-2.72379 9.1498,-12.189 3.9983,-28.12358 -2.59804,-8.03528 -6.63242,-16.43983 -9.0871,-18.62968 -8.85246,-7.89624 -2.58124,-11.07926 7.08795,-3.5826 8.59421,6.66296 15.95687,23.01301 16.35681,36.18449 0.34641,11.41904 0.24306,11.7632 -11.99495,23.10799 -6.86042,6.36008 -18.11023,14.59881 -24.89871,18.27131 -14.63727,7.91801 -20.22889,12.48171 -25.62571,20.60012 -4.00551,6.02551 -3.58029,17.01747 0.72701,17.01747 3.53312,0 11.4498,-11.30333 11.4498,-16.48006 0,-7.13033 5.31923,-10.92361 11.08619,-7.88188 14.85326,7.83534 11.42891,31.94925 -6.54264,47.11162 -9.33784,7.87818 -16.33861,10.10457 -27.07966,8.77741 -17.72721,-2.19031 -29.14503,-11.05906 -29.07875,-22.39137 0.0346,-6.03855 4.79342,-21.20497 7.45145,-23.82448 0.84606,-0.8337 1.45395,-3.03135 1.45395,-5.01566 6e-5,-4.8537 16.13914,-26.60883 19.80985,-26.69058 1.60406,-0.0346 5.90362,-1.50285 9.63241,-3.40351 5.2836,-2.69272 6.30766,-4.13744 4.36186,-6.4487 -13.97597,-16.59796 1.29015,-59.52457 26.89779,-75.77248 12.77218,-8.10358 21.77453,-12.48778 27.07961,-12.89741 z m -294.24082,42.27488 c 11.56776,-0.17205 14.7211,0.59329 14.7211,3.22436 1.2e-4,4.13992 -24.16038,10.60127 -25.4439,6.80695 -1.22988,-3.63653 -7.08801,-2.89745 -7.08801,0.89571 1.7e-4,3.70494 -1.92484,3.96013 -6.9062,1.0748 -1.85129,-1.07261 -6.05599,-2.5205 -9.45055,-3.22435 -3.39409,-0.70391 -6.17925,-2.02224 -6.17925,-3.04526 -1.1e-4,-2.35093 21.27581,-5.44861 40.34681,-5.73221 z m -219.18119,77.02644 c 1.66786,0.005 2.78187,2.42934 2.90785,7.16526 0.093,3.53642 0.84946,8.07246 1.81739,10.21052 2.55647,5.64884 -0.32851,18.55081 -7.99659,34.93053 -4.28859,9.16129 -6.37388,16.23781 -5.63406,19.88363 1.3162,6.48676 -2.91552,13.81281 -13.63065,23.64527 -5.09232,4.67259 -6.67987,8.02858 -5.81575,11.28527 0.93872,3.5386 -1.01522,6.07273 -8.54196,11.46435 -9.31163,6.6707 -22.69385,13.25578 -26.8978,13.25578 -3.64414,5e-5 -2.09164,-5.96079 2.72616,-10.21052 10.92124,-9.63386 39.6642,-49.90613 45.61725,-63.94988 5.87089,-13.84923 3.90915,-13.7225 -4.72525,0.17898 -14.79078,23.8153 -20.40579,32.14457 -28.5335,41.55839 -4.41075,5.10815 -13.03487,15.65803 -19.08301,23.64539 -9.78905,12.92778 -22.717749,24.65541 -22.717749,20.60007 0,-0.82931 6.180292,-10.69769 13.630649,-22.03312 14.14328,-21.51893 18.39585,-31.08403 21.08205,-46.7532 1.33328,-7.77939 2.52719,-9.31487 6.7245,-9.31487 3.98306,6e-5 6.47117,-3.08255 11.81326,-13.97221 3.72982,-7.60359 7.52535,-17.51093 8.36015,-22.03318 1.38865,-7.52224 1.87617,-8.08498 7.45145,-6.98611 5.57038,1.09825 6.6733,0.1403 12.35845,-11.28526 3.71499,-7.46571 6.94286,-11.29196 9.08716,-11.28526 z m 440.72509,8.95656 c -0.78797,0.0462 -3.18376,1.22382 -5.634,3.04526 -4.89383,3.63889 -4.90763,4.10366 -1.45395,10.9269 1.97531,3.90349 5.20283,7.99578 7.26971,9.13577 2.06629,1.13993 3.98553,2.00417 4.17998,1.7913 0.54618,-0.59756 -3.40489,-24.13527 -4.17998,-24.89923 -0.0462,-0.0462 -0.0693,-0.006 -0.18187,0 z m -43.43646,4.65741 c 1.40158,0.14722 1.45401,1.72687 1.45401,5.55305 5e-5,9.71925 0.0404,9.61042 -13.08546,13.61397 -11.48248,3.50188 -22.71786,11.24531 -22.71786,15.58447 -1.8e-4,2.22923 6.39305,0.65663 17.26556,-4.29921 9.92709,-4.52513 18.63377,-4.29719 22.3543,0.71655 2.7907,3.76055 2.40832,4.18992 -3.4531,5.37391 -9.15193,1.84892 -10.23852,2.89832 -19.26471,16.30097 -10.01052,14.8648 -10.19175,17.46336 -0.72688,8.59825 4.01128,-3.75708 12.97598,-9.9417 19.99159,-13.79306 12.71479,-6.98045 12.91877,-6.98691 15.44811,-2.3287 1.39546,2.57021 2.21519,6.82306 1.99914,9.49396 -1.15309,14.25298 2.74723,20.65065 5.63406,9.31475 0.77464,-3.04144 2.89763,-5.55294 4.7253,-5.55294 4.71018,-5e-5 4.11233,10.26537 -0.727,13.07645 -3.38751,1.96791 -3.40443,2.63239 -0.54502,4.47837 4.26555,2.75432 10.80542,-2.75012 15.0846,-12.71832 2.59001,-6.03399 3.89824,-7.09603 7.99665,-5.91136 2.73215,0.7893 6.03537,3.07857 7.2697,5.01565 1.23421,1.93709 4.33207,5.54925 6.9062,8.06091 2.57373,2.51144 5.94254,6.52342 7.45145,8.95662 2.36566,3.81626 2.46508,3.34999 1.27215,-3.9409 -0.76015,-4.64852 -1.87144,-9.91544 -2.54435,-11.64352 -2.31063,-5.9341 6.23872,-6.14311 17.62901,-0.35853 l 11.26794,5.73226 -1.45384,-5.37396 c -0.75766,-2.97412 -0.90333,-5.3739 -0.36373,-5.3739 0.53983,-6e-5 2.53799,-0.56407 4.36186,-1.25395 2.34642,-0.88746 4.94556,2.29798 9.08704,10.92695 5.00168,10.42102 5.53775,13.01069 3.27135,17.91318 -1.82329,3.94402 -3.75373,5.29099 -6.1792,4.29915 -1.94037,-0.79345 -5.52811,-2.04885 -7.99671,-2.68695 -2.46865,-0.63803 -6.85989,-3.08036 -9.63235,-5.55311 -6.10772,-5.44803 -7.69937,-4.22797 -7.99659,6.09046 -0.17783,6.19657 -2.45197,10.12535 -10.72281,18.80877 -5.79589,6.08387 -11.55176,11.10617 -12.72201,11.10617 -2.69278,5e-5 -7.17715,-14.46101 -8.90534,-28.84014 -0.7292,-6.07152 -1.96699,-11.60806 -2.90791,-12.18097 -0.94086,-0.57331 -4.42536,3.38238 -7.63315,8.77747 -3.20778,5.39532 -8.60541,11.68052 -11.995,13.97221 -7.74619,5.23759 -24.47562,10.08973 -27.80655,8.06091 -1.73109,-1.05466 -2.0402,-7.96998 -1.09051,-22.21233 0.75789,-11.37914 0.49883,-20.60002 -0.54502,-20.60002 -1.04426,-6e-5 -5.81881,4.25031 -10.72281,9.49396 -9.64061,10.30856 -20.84798,17.66677 -30.5327,20.06267 -5.71229,1.41308 -6.00911,1.03416 -5.9975,-5.7322 0.006,-3.977 1.04599,-11.0907 2.36265,-15.76358 1.87149,-6.64131 1.67369,-10.29746 -0.90865,-16.65916 -3.80395,-9.37018 -1.53714,-18.72702 7.4514,-31.16878 5.15029,-7.12963 23.92633,-20.31999 34.71276,-24.36182 1.97472,-0.74029 3.33861,-1.16326 4.18004,-1.07486 z m 27.62486,14.50967 c -0.8986,0.31293 -1.55436,1.43629 -2.1809,3.04514 -1.66636,4.27964 6.32902,13.8374 12.54026,15.04702 12.84048,2.50133 16.70708,-2.39123 5.634,-7.16515 -4.01349,-1.73067 -8.74652,-4.9481 -10.35931,-7.16531 -1.76468,-2.42564 -3.39444,-3.61817 -4.7253,-3.7617 -0.33255,-0.0346 -0.60922,-0.1045 -0.90875,0 z M 315.68642,440.6628 c 1.61994,-0.10104 3.15779,0.24018 4.907,0.89565 6.99678,2.62211 7.26133,6.17163 1.09039,16.48007 -5.62372,9.39477 -9.3573,10.19723 -8.3601,1.79135 0.59664,-5.03147 -0.1045,-5.98485 -3.81654,-5.37396 -2.46837,0.40646 -7.02392,3.15132 -10.17761,6.09046 -5.97851,5.57321 -11.08625,6.97289 -11.08625,3.0452 0,-4.9044 7.59083,-13.07223 16.902,-18.45052 4.93044,-2.84792 7.84042,-4.31024 10.54111,-4.47825 z m -248.623505,1.7913 c -1.59246,0.34468 -1.010198,10.29071 1.453894,26.86968 1.265735,8.51581 2.299084,20.42865 2.362593,26.51137 0.06351,6.08289 0.507495,11.78606 1.090565,12.71837 0.582493,0.93226 2.173452,1.1378 3.4531,0.35796 3.913656,-2.38395 -2.832559,-60.67951 -7.633205,-66.09942 -0.312349,-0.35161 -0.499412,-0.40761 -0.726947,-0.35796 z M 668.63,442.81206 c 4.68281,-0.38568 8.42002,3.5968 6.5427,8.41916 -1.90891,4.90312 -6.099,4.69672 -10.90456,-0.53752 -3.72451,-4.05621 -3.62342,-4.32052 1.09045,-6.80695 1.12608,-0.59393 2.19066,-0.98578 3.27141,-1.07481 z m -75.96838,76.13079 c 4.47069,5e-5 5.16577,0.905 4.18011,5.01565 -2.63107,10.9721 -2.64706,73.46676 0,89.74475 5.90824,36.33489 26.54463,85.09497 45.61736,107.65782 6.17031,7.29926 10.66599,14.09218 9.81405,14.86792 -5.57361,5.07518 -11.39698,3.76579 -17.08381,-3.5826 -3.25466,-4.20586 -5.81569,-8.12586 -5.81569,-8.77747 -6e-5,-3.46187 -21.26507,-32.72434 -30.71446,-42.275 -17.30465,-17.49073 -39.37697,-32.06443 -48.52527,-32.06443 -3.07003,-6e-5 -3.50962,-0.92307 -1.99915,-3.58266 1.10183,-1.94106 1.44795,-5.81708 0.90876,-8.59831 -0.84923,-4.37739 -2.75242,-5.15445 -14.35766,-6.4487 -7.37299,-0.82221 -14.77721,-2.02092 -16.53855,-2.68695 -4.29916,-1.62595 -1.80776,-5.19475 3.63485,-5.19475 2.39556,-6e-5 4.3618,-0.9389 4.3618,-1.97051 1.2e-4,-3.7281 -23.3029,-11.61684 -43.25472,-14.68877 -4.62888,-0.71263 -8.36009,-2.19851 -8.36009,-3.22435 1.1e-4,-2.52558 14.14807,-4.95347 18.71945,-3.22436 2.01722,0.76292 3.63485,0.49826 3.63485,-0.71655 1.8e-4,-3.88115 -17.59499,-9.31475 -30.1692,-9.31475 -12.76346,0 -16.91822,-2.68199 -12.54026,-7.88182 3.81522,-4.5305 -19.4707,-15.59463 -36.89365,-17.55481 -18.68539,-2.10209 -22.82012,-3.28607 -18.90121,-5.73221 1.70545,-1.06504 5.94722,-1.95192 9.26886,-1.97051 3.321,-0.0173 6.68848,-1.11216 7.45139,-2.3287 0.79964,-1.27543 12.67865,-2.14955 28.17006,-2.14955 21.81188,6e-5 27.12152,-0.7098 28.17011,-3.4035 1.98524,-5.09937 4.85382,-4.0938 16.17505,5.73226 5.74376,4.98477 12.09079,10.00469 14.17591,11.10605 5.93555,3.13458 6.72699,-1.27468 1.45395,-7.8817 -3.21437,-4.0282 -3.90742,-6.71781 -2.36265,-8.24006 1.54431,-1.52248 4.08392,0.19457 7.99659,5.19475 3.17759,4.06019 10.01497,12.70965 15.0846,19.16708 9.17134,11.68219 14.40252,15.54007 17.26556,12.71831 0.82568,-0.81401 0.38048,-3.41078 -1.09039,-5.73221 -1.82565,-2.88129 -1.96635,-4.57692 -0.36373,-5.55305 2.9911,-1.82213 2.04805,-3.31968 14.35771,19.88363 10.778,20.31734 17.8708,29.91482 22.35425,29.91482 1.38288,6e-5 7.06006,9.16793 12.54025,20.42097 11.57758,23.77154 10.82973,22.68052 11.99501,21.49573 0.49825,-0.50692 -1.92409,-9.36591 -5.45231,-19.70437 -3.52758,-10.33846 -7.43633,-27.27463 -8.7236,-37.6176 -2.52488,-20.28933 -3.32036,-81.51092 -1.0905,-87.23689 0.74883,-1.92433 3.92941,-3.5826 6.9062,-3.5826 z m 78.14928,11.10611 c 2.33494,5e-5 2.64677,1.545 1.27214,6.2696 -1.00332,3.44768 -1.15407,7.77131 -0.18186,9.49397 0.97243,1.7223 2.38684,14.49148 3.08971,28.48182 0.70327,13.9904 1.93379,27.71505 2.72609,30.45234 1.52711,5.27697 4.24876,6.34519 6.5427,2.68695 2.3365,-3.72544 7.99659,-2.47183 7.99659,1.7913 1.8e-4,5.09042 -10.83527,26.17565 -18.71939,36.36364 -7.45388,9.63155 -8.12638,14.08855 -1.45395,10.56877 2.56513,-1.35309 6.19882,-1.93391 7.99665,-1.25396 2.85201,1.07879 2.81662,2.004 0,7.34442 -1.77577,3.36742 -6.84085,10.64728 -11.26794,16.12176 -7.39979,9.15095 -7.72547,10.12177 -4.18011,12.71837 4.81289,3.52515 2.04049,8.63994 -7.45151,13.79306 -11.43884,6.20991 -14.10045,6.69287 -15.44805,2.50785 -1.96566,-6.10483 2.52899,-24.90863 9.26879,-39.22974 3.37649,-7.17444 9.23843,-25.53351 13.08546,-40.6628 6.29062,-24.74045 6.79275,-28.77859 4.72542,-40.84189 l -2.36271,-13.43487 -1.8174,20.95838 c -1.99285,23.66201 -8.92613,54.36042 -13.63077,59.65072 -5.85789,6.58842 -12.77743,22.18889 -14.17584,32.24358 -1.9779,14.22071 -6.50084,11.4341 -5.81575,-3.5826 0.3008,-6.58173 0.77383,-22.22608 1.09045,-34.75144 0.56696,-22.39374 0.66869,-22.72404 5.634,-21.49572 2.7769,0.68705 5.0888,0.93595 5.0888,0.53752 -6e-5,-0.39895 -3.18625,-8.93999 -6.9062,-18.98787 l -6.72451,-18.27142 6.17926,0.71655 c 4.72264,0.54676 6.53704,2.29181 7.9967,7.8817 2.65728,10.17963 6.79939,9.27659 4.907,-1.07475 -0.8337,-4.56202 -2.2078,-9.35216 -3.0896,-10.5687 -2.89457,-3.99333 -7.58372,-23.33564 -5.9975,-24.89929 0.85373,-0.84097 3.73658,-1.57542 6.36095,-1.61214 3.68641,-0.052 5.55952,-2.44164 8.54196,-10.92702 2.12368,-6.0423 5.42217,-11.47885 7.08795,-12.00176 1.66573,-0.52308 3.73854,-2.29452 4.72524,-3.94096 0.98676,-1.64639 3.20317,-3.0452 4.90711,-3.0452 z m -214.27426,31.88539 c -2.66201,0.37297 3.40391,3.22337 17.44726,7.88175 7.81183,2.59111 18.33037,7.14124 23.263,10.21046 4.93326,3.06928 11.12839,6.45719 13.8124,7.52351 2.68418,1.06632 5.78908,2.07259 6.9062,2.14961 3.40287,0.2344 -10.64353,-10.84267 -15.44805,-12.18097 -2.46842,-0.68723 -10.58677,-4.09882 -17.9925,-7.52351 -7.40579,-3.42475 -17.41717,-6.9308 -22.35431,-7.70261 -2.9101,-0.45495 -4.74666,-0.48266 -5.634,-0.35796 z m -222.27085,23.10792 c 4.57248,0.0601 10.69019,2.80237 14.90291,7.1652 11.00184,11.39335 14.29923,12.23115 19.99166,5.19481 6.54339,-8.0881 10.73348,-5.47119 9.63235,5.91136 -0.91666,9.47248 -0.45842,10.02467 4.7253,5.55305 1.94869,-1.68102 5.94675,-3.6442 8.7236,-4.47825 4.41243,-1.32549 4.90705,-0.83196 4.90705,4.65735 6e-5,4.89014 -1.62138,7.19852 -7.63315,10.38967 -10.4347,5.53833 -11.85251,10.10861 -4.7253,15.22611 3.15253,2.26352 5.634,5.51368 5.634,7.16532 1.8e-4,5.41016 -4.85474,6.15275 -11.0863,1.61209 -4.81843,-3.5113 -8.26599,-4.14333 -16.53856,-3.2243 -10.49238,1.16562 -10.54105,1.12007 -10.54105,9.67306 1.2e-4,6.13405 -0.85858,8.4191 -3.27135,8.4191 -5.38695,6e-5 -12.19459,-7.85543 -10.90455,-12.71826 2.0126,-7.58563 -2.89861,-13.00774 -12.90371,-14.33051 -11.51678,-1.52232 -12.00037,-2.18858 -9.4506,-9.85216 1.64875,-4.95537 4.7458,-7.0805 14.90291,-10.56876 11.4423,-3.92948 17.40147,-10.03137 9.81399,-10.03137 -3.5117,6e-5 -13.24313,-12.02554 -11.26794,-13.97227 1.15425,-1.13715 3.01027,-1.81843 5.08874,-1.79124 z m 298.05742,10.56871 c -0.0733,0.0115 -0.14838,0.12124 -0.18186,0.17898 -2.09851,3.5561 2.0727,9.34829 11.99488,17.01747 11.26702,8.70847 11.10507,8.58053 11.08637,6.26955 -0.0231,-2.88579 -20.62161,-23.83966 -22.89956,-23.46617 z m -197.19039,12.18097 c -2.60098,0.15588 -4.67692,4.05337 -3.2714,8.41916 0.84472,2.62228 2.74197,4.41255 4.1801,3.94085 3.6106,-1.18491 4.79643,-8.16963 1.81746,-11.10617 -0.91679,-0.90327 -1.85932,-1.30592 -2.72616,-1.25384 z m -79.05792,2.32864 c -1.77952,0.22864 -3.48803,1.46787 -5.9975,3.94091 -5.86748,5.78359 -5.64018,7.75572 1.4539,13.25572 7.79515,6.04369 11.14802,5.7609 15.8116,-1.2539 3.78295,-5.69087 3.68774,-5.97649 -2.36259,-11.10623 -4.23391,-3.58941 -6.6181,-5.13043 -8.90541,-4.8365 z m 1.8174,6.26961 c 1.85158,-5e-5 3.45316,1.39945 3.45316,3.22441 6e-5,1.82485 -1.6017,3.40351 -3.45316,3.40351 -1.85123,-6e-5 -3.27129,-1.57872 -3.27129,-3.40351 -6e-5,-1.8249 1.41995,-3.22441 3.27129,-3.22441 z m -86.69112,2.14961 c 5.84202,0 23.49157,15.3391 31.62321,27.40702 l 7.2697,10.92707 5.27056,-6.44876 c 4.7432,-5.81835 5.24047,-6.07614 6.72445,-2.32876 0.98571,2.48846 0.23844,6.65586 -1.99921,10.38967 -2.0365,3.39756 -3.63485,7.28067 -3.63485,8.59826 6e-5,3.77895 17.77248,13.83584 32.53191,18.45052 13.22662,4.13542 36.87535,4.4626 61.61061,0.71655 7.10568,-1.07613 6.80366,-0.72487 -4.3618,4.65735 -9.87484,4.76006 -16.18036,6.10345 -31.4414,6.62786 -20.79984,0.71465 -32.21668,-1.7954 -51.61481,-11.10605 -11.00854,-5.28384 -13.07789,-7.38385 -19.08296,-19.70448 -6.0979,-12.51237 -7.48725,-13.86939 -14.90285,-15.04702 -9.55932,-1.51804 -18.71789,-10.66305 -21.9908,-21.85403 -2.49735,-8.53717 -1.48525,-11.2852 3.99824,-11.2852 z"
     id="path9124" />
</svg>
