<?xml version="1.0" encoding="UTF-8" standalone="no"?>
<!-- Created with Inkscape (http://www.inkscape.org/) -->

<svg
   xmlns:dc="http://purl.org/dc/elements/1.1/"
   xmlns:cc="http://creativecommons.org/ns#"
   xmlns:rdf="http://www.w3.org/1999/02/22-rdf-syntax-ns#"
   xmlns:svg="http://www.w3.org/2000/svg"
   xmlns="http://www.w3.org/2000/svg"
   xmlns:sodipodi="http://sodipodi.sourceforge.net/DTD/sodipodi-0.dtd"
   xmlns:inkscape="http://www.inkscape.org/namespaces/inkscape"
   width="1000"
   height="1000"
   id="svg2"
   version="1.1"
   inkscape:version="0.47 r22583"
   sodipodi:docname="D.svg">
  <defs
     id="defs4">
    <inkscape:perspective
       sodipodi:type="inkscape:persp3d"
       inkscape:vp_x="0 : 526.18109 : 1"
       inkscape:vp_y="0 : 1000 : 0"
       inkscape:vp_z="744.09448 : 526.18109 : 1"
       inkscape:persp3d-origin="372.04724 : 350.78739 : 1"
       id="perspective10" />
    <inkscape:perspective
       id="perspective2940"
       inkscape:persp3d-origin="0.5 : 0.33333333 : 1"
       inkscape:vp_z="1 : 0.5 : 1"
       inkscape:vp_y="0 : 1000 : 0"
       inkscape:vp_x="0 : 0.5 : 1"
       sodipodi:type="inkscape:persp3d" />
    <inkscape:perspective
       id="perspective2953"
       inkscape:persp3d-origin="0.5 : 0.33333333 : 1"
       inkscape:vp_z="1 : 0.5 : 1"
       inkscape:vp_y="0 : 1000 : 0"
       inkscape:vp_x="0 : 0.5 : 1"
       sodipodi:type="inkscape:persp3d" />
    <inkscape:perspective
       id="perspective2966"
       inkscape:persp3d-origin="0.5 : 0.33333333 : 1"
       inkscape:vp_z="1 : 0.5 : 1"
       inkscape:vp_y="0 : 1000 : 0"
       inkscape:vp_x="0 : 0.5 : 1"
       sodipodi:type="inkscape:persp3d" />
  </defs>
  <sodipodi:namedview
     id="base"
     pagecolor="#ffffff"
     bordercolor="#666666"
     borderopacity="1.0"
     inkscape:pageopacity="0.0"
     inkscape:pageshadow="2"
     inkscape:zoom="0.532"
     inkscape:cx="500"
     inkscape:cy="500"
     inkscape:document-units="px"
     inkscape:current-layer="svg2"
     showgrid="false"
     showborder="true"
     inkscape:showpageshadow="false"
     showguides="true"
     inkscape:guide-bbox="true"
     inkscape:window-width="1280"
     inkscape:window-height="750"
     inkscape:window-x="0"
     inkscape:window-y="26"
     inkscape:window-maximized="1">
    <sodipodi:guide
       orientation="0,1"
       position="0,200"
       id="guide2818" />
  </sodipodi:namedview>
  <metadata
     id="metadata7">
    <rdf:RDF>
      <cc:Work
         rdf:about="">
        <dc:format>image/svg+xml</dc:format>
        <dc:type
           rdf:resource="http://purl.org/dc/dcmitype/StillImage" />
        <dc:title></dc:title>
      </cc:Work>
    </rdf:RDF>
  </metadata>
  <g
     inkscape:label="Layer 1"
     inkscape:groupmode="layer"
     id="layer1" />
  <path
     style="fill:#800000"
     d="M 0,0 0,6.1916669 0,793.80833 0,800 l 6.0567968,0 725.0332132,0 6.05685,0 0,-6.19167 0,-787.6166631 L 737.14686,0 731.09001,0 6.0567968,0 0,0 z m 12.648051,12.565431 658.230389,0 51.48272,1.274742 0.35622,158.798107 c 0.2067,87.33546 0.40762,164.8537 0.53463,172.27409 0.53521,31.41606 1.74465,364.77677 1.4252,393.17096 -0.0958,8.53913 -0.0173,17.22041 0.17783,24.22032 l 0,22.21713 c -0.47632,0.34987 -1.02313,0.67238 -1.78137,0.91054 -1.87132,0.58769 -67.00276,1.37099 -140.55313,2.00319 l -283.95653,0 c -28.53783,-0.44341 -74.05919,-0.91984 -127.90513,-1.27474 -86.243277,-0.56869 -157.388672,-1.73126 -158.189059,-2.54948 -0.133368,-0.13626 -0.248262,-3.47781 -0.356227,-6.19167 l 0,-179.0121 c 0.476895,-116.61479 0.513268,-281.83066 0,-425.95034 l 0,-151.513794 c 0.111429,-5.221538 0.372393,-7.663517 0.53463,-8.376955 z M 167.98682,19.667644 C 102.31417,19.822953 55.701792,20.404291 45.60409,21.124483 l -24.583473,1.638995 -1.24697,28.408851 c -0.732028,15.618137 -0.995244,35.412973 -0.534631,44.070117 0.948652,17.819014 4.636505,304.781654 4.631597,359.845124 -0.0042,43.88404 -3.038444,236.60503 -4.453425,283.72415 -0.564653,18.79561 -0.181867,34.77609 0.712513,35.32891 0.895246,0.55253 85.173959,1.67144 187.404189,2.5496 102.2308,0.87798 186.47978,1.99447 187.04784,2.54948 2.51276,2.45422 318.11532,-2.20595 320.6536,-4.73488 1.02717,-1.02313 0.95373,-109.5288 -0.53463,-437.78732 L 713.27561,22.58138 575.3946,21.306639 C 440.00147,20.045754 277.44091,19.409278 167.98648,19.667644 z M 619.5739,39.335289 c 4.07583,0.09526 6.05679,1.499043 6.05679,4.370574 1.2e-4,3.784387 -8.54023,10.01618 -13.71685,10.015949 -2.15064,0 -3.91908,0.917128 -3.91908,2.00319 1.7e-4,1.952844 27.87913,6.920288 38.65649,6.920115 3.98975,0 5.31888,1.178901 4.80983,3.824282 -1.57705,8.190988 -7.00799,8.448489 -35.09375,2.185287 -14.95112,-3.334107 -31.5458,-6.033183 -36.87518,-6.009569 -9.24686,0.04042 -9.53132,0.264429 -6.05674,4.188477 2.00215,2.26196 3.74097,5.713733 3.74097,7.648506 -1.2e-4,5.168826 -6.99748,7.195514 -9.44148,2.731638 -1.11511,-2.037427 -4.84234,-6.909665 -8.19451,-10.744339 l -6.05674,-6.920115 -14.0732,2.731638 c -14.96584,2.847686 -25.45487,2.324834 -47.74169,-1.821092 -15.59053,-2.900168 -19.18087,-1.535706 -11.7573,4.188477 4.41041,3.400908 4.67917,4.392803 1.95954,8.194857 -2.99151,4.182068 -3.24023,4.153143 -5.70045,-0.546178 -4.2696,-8.155308 -20.46238,-18.010463 -34.38124,-20.760288 -11.56575,-2.285112 -14.78964,-1.929635 -27.25559,2.185287 -7.7593,2.560972 -15.4156,6.463024 -17.10148,8.923248 -3.65534,5.335854 -12.25752,5.961995 -16.21084,1.092643 -2.89348,-3.564356 -18.39753,-3.502175 -74.10659,0.364311 l -18.17034,1.274799 -14.25125,13.29388 c -7.89036,7.309772 -15.27449,13.294053 -16.38896,13.29388 -4.17924,0 -4.18299,-4.040386 0,-12.019139 l 4.27531,-8.194856 -29.57135,0 c -31.54741,0 -32.0754,0.255768 -40.08164,12.747529 -1.87063,2.918412 -4.96219,5.281294 -6.76937,5.281121 -3.28139,0 -3.27591,-0.605588 0.71258,-15.297012 1.32098,-4.866176 0.8901,-5.098792 -12.64811,-5.099023 -12.87975,0 -15.23183,-0.724754 -28.14622,-9.469656 -22.00858,-14.903314 -19.07857,-19.186419 5.5224,-8.194857 4.83922,2.162078 13.4929,4.602268 19.23925,5.463277 8.66349,1.298124 10.33216,0.912682 10.33216,-2.00319 6e-5,-1.93408 -1.5786,-4.327908 -3.56285,-5.463219 -5.39226,-3.085037 -1.54668,-7.284137 6.76937,-7.284368 5.8031,0 9.02457,1.943145 15.67639,9.469656 9.21654,10.429277 8.16535,10.339671 44.89146,9.105345 19.83052,-0.666499 25.57658,-3.431508 18.17039,-8.74115 -2.72188,-1.951632 -4.98788,-5.033724 -4.98788,-6.738017 1.1e-4,-4.97674 10.44302,-3.605118 21.02056,2.731638 9.61318,5.759343 9.91087,5.832263 50.94826,5.099023 39.42252,-0.704546 41.59817,-0.999055 46.31666,-5.827472 6.66688,-6.821965 19.71677,-7.637305 23.15833,-1.456839 2.29666,4.124564 7.09505,3.986519 18.70479,-0.546177 8.97503,-3.503966 11.7039,-3.458066 50.94826,1.456839 l 41.50683,5.281121 11.22285,-6.009512 c 13.84572,-7.400878 15.67639,-7.441062 15.67639,-0.364311 -5e-5,4.846315 0.96228,5.658365 7.12566,5.645316 7.23177,-0.01732 47.50993,-6.783975 65.19956,-10.926494 3.97232,-0.930234 7.17398,-1.332073 9.6196,-1.274742 z M 40.61615,50.261783 c 0.606857,-0.1963 3.116099,0.345836 6.234911,1.456839 9.733276,3.468632 13.868174,18.169583 12.113593,43.159571 -1.322373,18.840357 -1.102401,19.513777 4.987883,27.316207 5.433023,6.96053 7.431305,8.01276 15.676391,8.01276 5.221596,0 11.479197,-1.0457 13.895022,-2.36744 4.119714,-2.25411 3.712102,-3.00294 -5.700511,-11.47279 -5.520031,-4.96727 -9.991642,-10.21387 -9.975881,-11.65489 0.110852,-10.457448 26.146542,-48.48116 33.312322,-48.622785 3.60131,-0.07102 23.8709,22.951753 23.8709,27.134053 6e-5,1.131846 -5.83526,13.411082 -13.00433,27.316212 -12.82905,24.88335 -17.56873,41.26965 -14.60754,50.80807 1.94292,6.25714 14.37608,13.84046 22.80205,13.84023 8.04544,0 8.184,0.17436 2.67217,-15.84342 -5.60305,-16.28227 -5.68521,-26.12443 -0.1784,-29.13724 2.34013,-1.28034 9.84436,-2.18506 16.74524,-2.18529 l 12.648,0 -1.60326,15.11492 c -0.83607,8.34456 -3.649,19.47446 -6.23491,24.76672 l -4.63165,9.6517 11.93542,12.20123 c 12.01359,12.43541 27.98738,21.85201 49.87946,29.13725 6.33485,2.10792 13.18643,3.37498 15.3201,2.91373 2.1331,-0.4613 -2.93227,-2.99658 -11.40102,-5.82747 -19.35397,-6.46984 -45.06969,-20.23322 -45.06969,-24.03822 -6e-5,-8.68168 44.01977,-51.09785 74.10665,-71.38632 12.34026,-8.32147 23.0126,-15.11469 23.69273,-15.11492 0.67943,0 8.34474,-3.37793 17.10159,-7.648561 17.79563,-8.679893 41.6988,-15.355267 69.83116,-19.121294 34.01797,-4.553827 45.82054,-3.521632 107.77526,9.105345 30.89378,6.296515 86.14414,26.59994 101.36206,37.15006 11.7293,8.13187 31.70745,11.24641 42.2194,6.73796 5.26294,-2.25717 8.19446,-5.02518 8.19446,-7.64851 -1.2e-4,-6.11482 -6.25691,-14.02209 -11.04468,-14.02233 -2.30809,0 -5.25474,-2.18257 -6.59126,-4.73482 -3.11159,-5.943696 -0.25115,-9.843496 9.97588,-13.293825 16.99911,-5.73521 34.02496,6.447839 34.02496,24.584515 -1.2e-4,8.65858 -7.46918,24.00796 -13.1824,27.13411 -2.98221,1.6316 -4.33714,5.16334 -4.80982,11.83698 -0.57043,8.06016 -1.52301,9.74973 -5.87869,10.3802 -2.83775,0.4105 -9.68858,-1.36042 -15.3201,-3.82428 -5.63117,-2.46369 -14.9174,-5.32171 -20.66433,-6.19167 l -10.51034,-1.45689 0,7.64856 c 0,6.87283 1.29454,8.77273 12.11353,16.38971 14.37781,10.12282 16.36201,13.24868 15.67645,24.94877 -0.43821,7.47795 -1.53408,9.31902 -7.83822,12.56543 -11.16621,5.7508 -12.16879,7.50411 -9.0852,15.11497 3.53699,8.72793 1.27532,15.14523 -6.59119,19.30345 -10.06693,5.32171 -19.17037,4.44096 -26.36484,-2.91373 -12.11296,-12.38213 -9.81942,-27.31598 4.27536,-27.31621 3.74317,0 8.50733,-2.71715 13.18245,-7.64851 7.39869,-7.80358 7.53939,-12.5652 0.35623,-12.56543 -2.188,0 -6.51377,-3.94362 -9.61965,-8.74121 -6.0874,-9.40378 -19.40801,-21.13701 -33.49038,-29.50149 -31.23829,-18.55335 -40.64444,-22.72566 -73.57225,-32.23308 -14.04005,-4.05389 -22.2856,-4.64153 -55.04551,-4.55267 -35.81464,0.0976 -39.70763,0.39549 -55.9362,6.00951 -23.33032,8.07026 -51.41055,23.99526 -61.99299,35.14687 -6.97832,7.35365 -10.21202,9.10384 -16.74531,9.1054 -18.2037,0.004 -39.0133,16.75992 -39.01278,31.32253 -1.1e-4,4.97969 0.13048,5.144 3.91908,1.639 4.77034,-4.41324 7.7328,-4.68564 13.36057,-1.09265 4.03063,2.57339 3.98161,2.82644 -1.24697,9.8338 l -5.34429,7.28431 6.0568,1.27474 c 3.38734,0.65732 14.76077,1.76682 25.11787,2.54954 22.20304,1.67802 28.80405,4.5387 16.38897,6.92011 -18.51594,3.55068 -56.35559,-3.73057 -84.79504,-16.38971 -14.55205,-6.47757 -32.88029,-19.23255 -42.39752,-29.3194 -7.95526,-8.43163 -8.81869,-8.72914 -19.77365,-7.8306 -21.12246,1.73281 -33.728598,-12.84834 -31.17461,-36.23951 l 1.24697,-11.1086 -7.303827,1.2748 c -23.509477,4.35753 -21.966555,4.72421 -32.065296,-4.37063 -9.486861,-8.54335 -9.583337,-8.68122 -9.619653,-24.40241 -0.06351,-27.50645 -1.81451,-38.628437 -7.481939,-47.165954 -2.943816,-4.434199 -5.344168,-8.424066 -5.344168,-8.923305 1.16e-4,-0.06235 0.0918,-0.154154 0.178403,-0.181867 z m 71.43448,20.578191 c -1.17902,-0.113739 -2.2339,0.183599 -3.56286,0.910546 -5.90028,3.228221 -21.911244,24.26281 -21.911244,28.77305 1.73e-4,2.00122 3.7147,7.51115 8.194452,12.20123 4.48033,4.69003 9.210542,8.37713 10.510282,8.37696 1.29962,0 6.70568,-8.70588 11.93542,-19.48555 l 9.44142,-19.667644 -6.94748,-6.191667 c -3.51788,-3.213383 -5.69583,-4.72738 -7.65999,-4.916925 z m 556.33381,7.648506 c 0.53348,5.7e-5 1.56792,0.948767 2.31589,2.185345 0.74796,1.236751 0.21246,2.367616 -1.06892,2.367385 -1.28115,0 -2.31577,-1.130403 -2.31577,-2.367385 -1.1e-4,-1.236809 0.53521,-2.185114 1.0688,-2.185345 z m 7.83823,13.476035 c 2.65733,-0.280594 6.59119,2.517844 6.59119,5.463218 6e-5,1.894012 -0.89755,3.460257 -1.95954,3.460027 -2.77257,0 -7.80168,-6.593273 -6.23491,-8.194854 0.42262,-0.431862 0.98964,-0.663612 1.60326,-0.728391 z m 5.70051,14.204365 c 4.24096,-0.0346 7.24747,3.09566 7.30376,7.64857 0.0173,1.51694 -1.37987,2.17351 -3.20657,1.45684 -5.62181,-2.20527 -3.50794,2.75069 2.31589,5.46327 3.02453,1.40829 5.34423,3.65356 5.34423,4.91687 -1.8e-4,1.26331 -0.69566,2.1716 -1.60326,2.00319 -10.47316,-1.94378 -11.55102,-2.55422 -11.5792,-7.10221 -0.0173,-2.69677 -0.57042,-7.07514 -1.24702,-9.6517 -0.91621,-3.48768 -0.31351,-4.70919 2.67217,-4.73483 z m -1.60326,25.31302 c 0.97048,-0.0115 2.40157,0.30889 4.45348,0.91055 3.53867,1.03756 6.96417,1.25782 7.66006,0.54617 0.69588,-0.71147 1.24703,0.96263 1.24703,3.64219 -1.8e-4,2.67973 -0.23152,4.75036 -0.53464,4.55267 -0.30311,-0.19803 -3.72844,-0.77602 -7.65999,-1.27474 -5.19625,-0.65911 -7.12565,-2.04822 -7.12565,-5.09902 1.1e-4,-2.23206 0.34179,-3.25484 1.95954,-3.27793 z m -534.24446,0.91055 c -10.03858,0 -12.28945,5.10133 -9.26325,19.84974 1.4211,6.9275 3.81424,13.38158 5.34417,14.38652 4.00245,2.62806 9.82456,-5.59093 11.57919,-16.20756 2.11584,-12.80312 -0.18764,-18.02841 -7.66011,-18.0287 z m 531.03789,11.10859 c 0.87856,-0.12529 1.69142,0.68289 2.67211,2.00319 1.58894,2.13869 2.81189,5.9087 2.85029,8.55905 0.0404,2.65058 1.57756,5.48268 3.38462,6.19167 2.69741,1.05846 2.19973,3.193 -3.20651,12.56543 -3.62186,6.27994 -6.59119,12.56745 -6.59119,13.84023 1.1e-4,1.27318 -1.80164,2.05169 -3.91915,1.63894 -4.8332,-0.94167 -6.70568,-10.67806 -1.95954,-10.19799 1.81191,0.1836 3.08204,-0.37124 2.85029,-1.2748 -0.23094,-0.90368 1.79886,-3.19797 4.45354,-5.09902 4.29119,-3.07234 4.47282,-4.15569 2.13765,-9.8338 -1.44465,-3.51308 -3.59992,-6.14317 -4.80982,-6.00957 -1.20973,0.13395 -1.86699,0.82995 -1.60326,1.63894 0.26385,0.80893 -1.07399,2.6817 -2.85023,4.18848 -1.77582,1.50689 -3.20651,5.20017 -3.20651,8.19485 -1.1e-4,3.93814 -0.95685,5.39504 -3.74103,4.91693 -2.93671,-0.50403 -3.86117,0.62845 -3.38462,4.91692 l 0.71251,5.46322 -5.52234,-6.19166 c -6.91873,-7.82379 -7.95173,-7.66063 -5.70045,0.36431 2.58031,9.19755 6.44079,16.02575 9.08514,16.02552 4.46168,0 22.99176,17.86237 25.47421,24.58457 1.38842,3.76152 1.71867,6.92034 0.71252,6.92011 -1.00581,-6e-5 -3.19866,0.362 -4.80983,0.91049 -1.61157,0.54849 -14.1445,-4.60083 -27.78993,-11.47279 -21.09388,-10.62292 -24.39214,-13.00624 -22.08947,-15.84336 2.19649,-2.70537 2.06722,-3.66903 -1.06886,-5.46322 -3.56822,-2.04158 -3.45477,-2.66005 1.60326,-7.83066 3.01471,-3.08227 6.10373,-8.82025 6.94748,-12.74759 0.84386,-3.92705 3.67498,-9.45672 6.23491,-12.20118 4.64747,-4.98228 4.63171,-4.89077 8.0164,-0.36431 4.70549,6.29271 9.4872,3.66707 17.81404,-9.46965 3.92983,-6.2005 5.83943,-8.71459 7.30377,-8.92325 z m 10.15405,2.54948 c 0.92643,0.0404 2.40867,1.01626 4.09726,3.09584 1.4166,1.74499 1.73882,3.72214 0.71257,4.37057 -1.02636,0.6486 -2.99139,-0.88433 -4.45354,-3.27793 -1.71815,-2.81351 -1.54824,-4.23813 -0.35623,-4.18848 z m -224.27936,3.27793 -1.0688,15.66133 c -0.61454,8.65731 -2.59868,20.18622 -4.45354,25.49505 -3.07211,8.79352 -3.05865,9.83899 0.1784,11.1086 4.57646,1.7954 8.47943,-3.71447 14.42942,-20.3961 l 4.6316,-13.11172 4.27542,10.92644 c 4.24027,10.86448 6.29438,44.61473 3.74097,60.27773 -1.0375,6.3662 -0.70547,6.72895 5.52234,6.00957 9.17994,-1.06026 15.60232,-7.9772 18.52668,-19.8498 3.25368,-13.20803 6.9939,-11.78294 11.04468,4.37063 3.7946,15.13356 1.19703,29.46726 -7.66005,41.33848 -2.95473,3.95921 -5.34417,8.15005 -5.34417,9.4696 0,3.75575 9.70423,2.91552 21.9113,-2.00319 9.65256,-3.88901 11.37371,-4.01296 12.46982,-1.09265 2.2294,5.93902 -1.43201,15.12242 -9.26325,23.12773 -6.2983,6.43838 -8.72377,7.46728 -14.07319,6.37377 -3.5576,-0.72747 -7.08212,-0.15762 -7.83823,1.09264 -2.62471,4.34171 3.67873,8.431 13.89502,9.10541 8.53036,0.56292 10.49296,1.51001 11.04474,5.46321 0.8393,6.01367 -9.82831,15.38137 -25.29599,22.39929 -6.24022,2.83129 -11.94183,6.11684 -12.64805,7.28431 -2.653,4.38807 10.49602,10.35145 22.62394,10.19804 11.01737,-0.13914 11.4841,-0.0404 6.59119,2.73164 -6.29726,3.56753 -18.1787,4.02474 -23.87084,0.91055 -4.51376,-2.46929 -11.0448,-0.69156 -11.0448,2.91373 -1.7e-4,3.02875 15.09511,20.18802 20.48628,23.30977 3.91764,2.26855 3.52521,2.94682 -5.34429,10.7444 -5.26068,4.62502 -12.34742,10.17449 -15.67639,12.20118 -8.577,5.2231 -9.43761,10.20243 -2.85022,16.93606 3.07314,3.14156 5.70051,6.73519 5.70051,8.01276 0,1.2774 -3.99143,4.77334 -8.72891,7.83061 -10.30359,6.64881 -12.53859,9.94557 -9.26331,13.29388 4.3484,4.44522 2.96639,18.82534 -2.31583,23.85612 -2.64769,2.52188 -5.96725,4.735 -7.48194,4.73477 -4.76883,0 -5.34959,3.65384 -1.95954,13.47603 6.79604,19.69138 2.14129,39.40735 -9.97588,41.88477 -6.70973,1.37186 -6.90655,1.82802 -5.70051,10.74434 2.17472,16.08031 -5.43383,28.22699 -17.45782,28.22676 -3.57694,0 -3.61794,0.16223 -4.27537,11.65494 -0.34872,6.09883 -3.00986,11.3568 -10.33222,20.214 -5.44936,6.59188 -10.60214,14.80984 -11.40097,18.21074 -1.33478,5.68568 -2.3608,6.19184 -12.11359,6.19167 -14.6192,0 -46.24449,-4.30354 -53.79854,-7.28425 -3.42862,-1.35286 -7.16498,-4.98702 -8.37257,-8.19492 -2.56432,-6.80932 -3.16639,-51.71521 -0.89069,-72.47897 4.86705,-44.40353 27.15773,-102.92507 39.1909,-103.07304 3.88144,-0.0462 18.17039,18.10884 18.17039,23.12767 1.7e-4,1.56815 -3.92578,2.60733 -9.6196,2.73164 -7.75393,0.16974 -10.42506,1.42462 -14.60759,6.73801 -2.83019,3.5956 -6.39547,10.81871 -7.83817,16.02546 -3.79997,13.71489 2.05833,24.38718 17.99228,32.96153 15.6761,8.43573 27.41742,7.30977 44.35706,-4.18842 16.57736,-11.25172 25.83039,-26.34354 25.83039,-42.79543 0,-6.75967 -1.55257,-16.09677 -3.38463,-20.57814 -2.77182,-6.78132 -2.95242,-8.6714 -0.53463,-11.65488 3.97457,-4.90457 8.19451,-15.23991 8.19451,-20.21394 -6e-5,-6.04109 -8.21079,-24.35588 -11.57919,-25.67727 -1.5972,-0.62643 -9.68709,-0.4844 -17.81411,0.18187 -20.45244,1.67842 -18.11092,6.19184 3.20663,6.19166 l 16.3889,0 1.95955,8.01276 c 2.49157,10.30492 0.79542,17.26435 -6.23491,24.94877 -6.65552,7.27426 -6.92295,10.06508 -1.24703,17.48235 5.44376,7.11417 5.93844,26.63892 0.89074,37.5142 -1.96751,4.23877 -8.05773,11.61788 -13.36056,16.38977 -8.3213,7.48789 -11.50247,8.8632 -23.69279,10.19805 -14.89148,1.63027 -19.99252,0.20958 -29.21507,-8.37701 -5.4556,-5.07974 -6.45379,-14.58693 -2.67211,-25.67716 3.28947,-9.64529 15.02698,-13.35381 22.80204,-7.10227 7.78257,6.25783 7.76144,17.94395 -0.17782,23.85618 -7.37213,5.48978 -4.04905,7.86172 5.34416,3.82422 10.08916,-4.33657 12.87767,-12.1357 9.08526,-24.22031 -7.27294,-23.17658 -17.03081,-38.62653 -29.3933,-46.43751 -6.86798,-4.3391 -10.91963,-4.5525 -92.27692,-4.55273 l -84.97322,0 0,11.1086 c 1.2e-4,15.84347 5.76622,50.6605 11.22291,67.74414 7.37952,23.1018 24.01761,53.68399 37.05324,68.29049 19.72584,22.102 42.70715,37.87464 66.98099,45.89115 56.02962,18.50479 125.84236,19.14138 164.95843,1.45684 24.84663,-11.23296 53.86586,-36.14108 62.88368,-54.08601 5.27892,-10.50468 9.28819,-30.68057 6.76937,-33.32578 -0.94606,-0.99409 -5.25035,0.0577 -9.6196,2.18541 -6.66856,3.25079 -9.24102,3.46378 -16.38902,1.27468 -16.84715,-5.16005 -23.92396,-15.82581 -20.12987,-30.22994 4.10966,-15.60255 15.09401,-21.53828 33.66861,-18.575 11.96729,1.90913 16.90402,4.7548 30.10581,17.84661 l 10.86662,10.92643 8.37263,-5.82747 c 10.21577,-7.19823 19.19098,-6.67526 26.18673,1.639 7.62402,9.06088 6.75349,19.70003 -2.31589,28.77298 -4.04039,4.0423 -11.81164,10.04915 -17.27965,13.29394 -9.85775,5.85016 -14.96832,16.05416 -10.51028,20.76029 5.38245,5.68221 26.66807,-0.83104 43.64449,-13.29388 9.86226,-7.24078 18.84671,-7.14228 25.65228,0.36431 7.62956,8.4161 8.72042,18.02588 4.45354,42.24903 -4.28802,24.34641 -3.58826,37.43209 3.02839,56.27135 6.12591,17.44142 5.87551,22.86705 -1.78148,35.32891 -5.66789,9.22468 -7.68938,10.47598 -16.56702,11.83704 -8.46448,1.29743 -11.43867,0.80471 -19.77365,-4.18854 -14.21412,-8.51563 -15.59642,-17.56953 -7.66005,-48.07638 4.18392,-16.08417 4.4025,-19.95153 2.13766,-27.6804 -3.55518,-12.13057 -9.4259,-17.66428 -18.70474,-17.66451 -6.95672,0 -21.17084,6.25696 -70.54384,30.59408 -22.09398,10.89052 -76.90261,30.0322 -90.67367,31.68678 -6.44911,0.77493 -12.24615,2.13546 -12.82611,3.09589 -1.65891,2.74249 15.11226,27.32787 24.76159,36.23946 4.79793,4.43183 15.18027,11.18971 22.9801,15.11497 12.79372,6.43825 16.72631,7.21526 40.43798,8.37695 l 26.3649,1.27469 10.33217,-8.3769 c 13.9296,-11.22989 22.35788,-25.78801 20.30804,-35.32902 -2.14175,-9.97051 -10.90525,-23.5335 -16.38896,-25.31291 -19.0299,-6.1744 -48.95662,5.07922 -80.8759,30.59408 -7.53592,6.0236 -14.25229,10.92638 -14.96388,10.9265 -0.71159,6e-5 -4.57525,-2.58869 -8.72891,-5.82747 -7.55393,-5.88989 -9.79851,-9.83391 -5.34417,-9.8338 1.30234,0 9.54674,-4.88159 18.34851,-10.92649 43.31447,-29.74595 70.67242,-38.5203 98.69,-31.86888 9.78305,2.32212 23.25325,13.55958 28.68067,24.03822 18.64509,35.99685 -14.91249,80.53786 -65.19956,86.50129 -18.13916,2.15106 -28.13034,1.97514 -46.49478,-0.36431 -24.83046,-3.16309 -62.04611,-15.57887 -68.40608,-22.76353 -2.06329,-2.33049 -4.55781,-4.18854 -5.52239,-4.18842 -2.2182,0 -27.16362,-17.88622 -36.5189,-26.22357 -7.50428,-6.68755 -18.17085,-20.64978 -18.17033,-23.67408 1.7e-4,-0.9964 9.24252,-1.82103 20.66439,-1.82103 31.87067,0 26.82234,-3.57937 -7.12571,-5.09908 -29.51391,-1.32157 -50.12524,-5.2933 -80.69773,-15.11497 -23.81259,-7.64995 -74.0447,-31.28708 -85.50767,-40.24578 -19.68508,-15.38517 -43.71718,-41.29662 -56.47065,-61.00618 -19.0478,-29.43764 -41.93183,-87.37905 -44.891465,-113.63529 l -1.603314,-13.84018 14.429479,-1.27479 c 28.28103,-2.69971 42.21184,-16.4594 41.86312,-41.15639 -0.13221,-9.35874 -1.63212,-16.3706 -4.4536,-21.30658 -5.47349,-9.57485 -23.71305,-22.39905 -31.88712,-22.39928 -4.95578,0 -6.413663,-0.93889 -6.413143,-4.55273 0,-6.67572 8.623603,-45.92008 13.538733,-61.73457 4.37785,-14.08434 33.56486,-69.33868 42.57564,-80.67377 l 5.16611,-6.73801 14.60753,9.83385 c 12.92842,8.61101 34.66975,18.02888 41.68495,18.02865 6.59328,0 7.57744,5.07084 3.0284,16.57181 -2.50306,6.32873 -7.02606,19.1333 -9.97588,28.40885 -9.8861,31.08235 -19.13555,94.34189 -14.25125,97.42773 1.26926,0.80258 40.38175,1.5614 86.9327,1.63894 l 84.61692,0.18187 9.08526,-5.82742 c 11.09525,-7.16029 16.5949,-18.7101 18.70473,-40.06374 0.82533,-8.3482 0.86592,-15.11474 0.17782,-15.11497 -0.68786,0 -4.08744,2.16953 -7.48188,4.73477 -8.66315,6.54772 -20.45792,3.99905 -27.78998,-5.82741 -6.20333,-8.31402 -6.92335,-16.58128 -2.13772,-26.04147 4.54852,-8.99166 14.03832,-13.4758 28.50256,-13.47598 10.4694,0 13.14446,0.99242 19.95176,7.10222 9.61099,8.62625 13.55987,16.09751 16.74525,31.68678 1.33917,6.55488 4.62854,14.39062 7.30377,17.48236 7.30336,8.4415 12.19592,17.35453 12.11353,21.85293 -0.13741,7.55249 -8.209,14.36776 -22.26759,18.57506 -22.84136,6.83536 -29.75524,10.61334 -31.35272,17.1181 -1.79656,7.31688 0.20265,14.38681 4.0972,14.38653 1.92807,5e-5 2.9937,-2.65532 2.85028,-7.83061 -0.12009,-4.33079 0.68041,-8.89091 1.95954,-10.19804 1.27879,-1.3076 10.18668,-4.3349 19.59548,-6.73802 9.4084,-2.40359 20.18772,-6.4837 24.04901,-8.92331 14.14744,-8.93849 27.1818,-44.23056 24.58342,-66.83359 -2.856,-24.8438 -21.98746,-53.89219 -43.64449,-66.6515 -9.00639,-5.30589 -12.55539,-6.14311 -29.57136,-6.19167 -12.84458,-0.0346 -22.20177,1.11874 -27.61187,3.46009 -4.49742,1.94644 -10.05942,3.64236 -12.29171,3.64213 -2.23222,6e-5 -6.85545,3.02788 -10.3321,6.73802 -7.36151,7.85467 -9.98541,8.48942 -8.37269,2.18528 1.92629,-7.53263 -2.56784,-5.07362 -7.65999,4.18848 -8.12667,14.78143 -13.82326,17.31781 -39.54735,17.11816 -32.1821,-0.25057 -37.67361,-3.47388 -48.45426,-26.40566 -0.43186,-0.91903 5.10647,-0.94958 12.29165,-0.18187 12.88344,1.37665 23.34354,-0.93092 43.82272,-9.65169 8.44554,-3.5964 7.68268,-8.84127 -1.60332,-10.9265 -3.44467,-0.77325 -7.57962,-2.88013 -9.08513,-4.73483 -1.75354,-2.15953 -5.70352,-3.12579 -11.0448,-2.73158 -9.30043,0.68654 -18.20659,-5.4504 -21.73307,-14.93287 -1.47,-3.95159 -3.97191,-5.66778 -9.26343,-6.19167 l -7.12559,-0.72845 7.12559,-4.00637 c 3.99657,-2.2275 12.10078,-4.5678 17.99228,-5.28113 11.05738,-1.33859 18.24348,1.25939 48.45432,18.21081 l 9.97588,5.64537 5.52234,-6.73801 c 8.15773,-10.00902 18.7758,-11.67412 48.63249,-7.64851 13.63446,1.83824 25.47283,3.27816 26.36478,3.27793 4.05199,0 16.00069,-13.0522 19.59553,-21.30664 3.74467,-8.59808 3.95102,-8.66332 4.09726,-2.73164 0.20034,8.10041 -5.0731,18.76848 -11.0448,22.03509 -6.31169,3.45333 -1.25638,6.72399 6.76937,4.37058 16.75668,-4.91271 26.60993,-14.31372 38.30033,-36.60371 l 6.05673,-11.83699 z m 180.10041,32.59733 c -3.61325,0 2.40555,12.56728 10.15406,20.94245 7.71334,8.33648 14.03208,10.20659 6.76936,2.00313 -2.00879,-2.26929 -3.74096,-4.91468 -3.74096,-5.82742 5e-5,-2.60485 -11.14947,-17.11798 -13.18246,-17.11816 z m -586.795908,1.09265 c 1.251647,0.0289 3.916196,3.09548 8.19451,9.65175 7.021556,10.76062 8.64883,11.71649 14.429363,9.4696 6.089533,-2.36693 8.265352,-0.79104 12.113536,8.9233 1.71509,4.32866 6.369146,13.48412 10.332219,20.21394 8.90807,15.12577 9.01447,18.82915 0.53463,27.49831 -3.690619,3.77278 -7.30203,9.9783 -8.016334,13.84023 -1.746555,9.44321 -3.838658,13.65293 -16.032677,30.77617 -22.14057,31.09021 -29.68723,51.50466 -26.186729,70.65788 2.000996,10.95046 5.395841,19.30368 8.016396,19.30345 0.864416,0 4.314803,-3.54444 7.660053,-7.8306 17.807581,-22.81463 52.373341,-10.4761 52.373341,18.75709 -1.1e-4,12.2069 -3.74709,19.68924 -12.64799,25.31297 -9.220355,5.82545 -24.435671,4.74562 -33.846668,-2.36739 -8.900903,-6.72734 -10.249719,-6.02914 -11.935537,5.46322 -2.742204,18.69636 0.117203,50.34146 6.234968,68.47253 18.325006,54.30846 20.477038,59.42469 26.721129,61.55247 8.266098,2.81669 12.155108,12.79343 9.619598,24.76667 -2.03195,9.59402 -10.794111,19.46511 -17.457823,19.48555 -5.495492,0.0173 -7.84394,4.32213 -9.441423,17.84655 -2.938331,24.87307 -7.838744,22.07313 -7.838224,-4.55261 5.7e-5,-8.55646 -1.044839,-15.6611 -2.137714,-15.66127 -1.092182,0 -4.723685,3.77163 -8.194452,8.1948 l -6.413025,8.0127 0.356228,-16.57181 c 0.136833,-9.08554 1.448756,-18.62979 2.850227,-21.30658 1.401528,-2.67685 2.493999,-7.02462 2.493999,-9.46966 0,-2.44469 2.961771,-6.89396 6.591196,-10.01589 9.032656,-7.76998 8.587689,-15.99012 -2.137656,-43.34167 -16.03539,-40.89247 -18.959345,-63.18459 -12.113593,-92.875 3.154435,-13.68296 3.168176,-15.00227 -0.712572,-20.39609 -2.26398,-3.14728 -5.834515,-11.4572 -8.016338,-18.575 -8.198436,-26.75017 -1.009967,-50.59365 27.255528,-89.05078 9.577736,-13.03176 15.4977,-23.08097 15.498278,-26.5877 -1.16e-4,-4.46884 -0.876078,-5.39891 -3.919084,-4.18848 -7.450184,2.96414 -8.251784,2.17045 -8.907023,-8.19492 -0.583764,-9.23207 -1.54581,-11.11546 -8.72891,-16.02546 -4.475884,-3.05894 -9.97386,-8.59727 -12.113594,-12.38333 l -3.740969,-6.92011 6.23491,1.82109 c 3.48347,1.0214 8.358133,2.99797 10.866623,4.37057 11.203972,6.12989 11.646283,-0.3695 1.247029,-20.94238 -8.335731,-16.49 -11.47452,-27.18879 -9.085195,-27.13411 z m 208.959198,7.83066 c -5.52072,0.40761 -8.19762,4.65509 -2.31582,11.10859 3.05374,3.35143 5.75409,4.22416 9.44142,3.27793 2.88152,-0.73942 7.05868,-0.21766 9.26337,1.09264 5.05912,3.00791 5.16605,3.09237 5.16605,0.18187 -1.2e-4,-1.33213 -2.87673,-5.30814 -6.41302,-8.9233 -4.84361,-4.95134 -10.84809,-7.05458 -15.142,-6.73802 z m 371.60175,0.91054 c -0.22344,-0.0404 -0.35623,0.10912 -0.35623,0.36431 -6e-5,1.01927 1.73836,3.74756 3.74097,6.00952 3.48266,3.93409 5.16605,4.96271 5.16605,3.27798 -1.7e-4,-0.42897 -2.03385,-3.15732 -4.45348,-6.00956 -1.81486,-2.13893 -3.42741,-3.51673 -4.09731,-3.64219 z m -301.05801,4.00638 c -3.01916,0.067 -4.38016,1.01442 -6.0568,3.27793 -3.91695,5.28973 -4.17254,11.45004 -0.53463,12.74753 6.07042,2.16456 11.47775,-3.54189 5.5224,-5.82741 -6.97064,-2.67529 8.54664,-5.15266 20.66427,-3.27799 7.18957,1.11216 14.71394,1.30465 16.74525,0.36431 2.55676,-1.18375 0.30831,-2.20671 -7.30377,-3.27793 -6.04912,-0.85114 -15.58557,-2.32293 -21.3769,-3.27793 -3.36298,-0.55426 -5.84797,-0.76823 -7.66005,-0.72845 z m 65.37768,19.84974 c -1.20991,0 -2.13766,1.05755 -2.13766,2.36739 6e-5,1.30961 0.92787,1.85723 2.13766,1.09264 1.20973,-0.76424 2.13719,-2.0044 2.13771,-2.54948 0,-0.5456 -0.92787,-0.91037 -2.13771,-0.91055 z m 39.01283,6.73796 c -3.08076,0 -6.05726,4.55071 -6.05674,9.28751 -5e-5,1.13559 1.56995,2.00347 3.38469,2.00318 1.81468,6e-5 3.20651,-0.86759 3.20651,-2.00318 -1.2e-4,-1.1356 0.69028,-3.6889 1.42508,-5.64532 0.85183,-2.26912 0.14492,-3.64195 -1.95954,-3.64219 z m -350.581124,2.54955 c -3.040696,-0.0652 -5.166689,3.48427 -5.166111,9.83385 -1.16e-4,7.58886 1.393734,8.91556 8.19451,8.0127 1.512669,-0.20092 2.850227,1.18669 2.850227,3.09583 5.7e-5,1.90931 0.927866,3.46032 2.137655,3.46009 3.771863,0 2.481703,-15.0144 -1.78137,-20.3961 -2.16075,-2.72834 -4.409893,-3.96729 -6.234911,-4.00637 z m 224.813704,2.00318 c -2.06369,0 -26.34515,20.28068 -27.25547,22.76348 -1.00517,2.74065 2.02415,2.35954 7.48188,-0.91054 5.11011,-3.06223 22.11633,-21.8527 19.77359,-21.85294 z m 4.27543,4.55268 c -0.91147,0 -7.29459,5.50912 -14.07313,12.38333 -12.57583,12.75342 -9.42515,15.01596 3.56274,2.54954 8.60252,-8.25669 9.61018,-5.46362 1.24708,3.46003 -3.25085,3.46863 -4.96652,6.1919 -3.74097,6.19167 4.31411,0 12.49765,-10.88077 11.04468,-14.75072 -0.77856,-2.07507 -0.31004,-5.0395 1.06886,-6.73802 1.37895,-1.6984 1.80158,-3.0956 0.89074,-3.09583 z m 245.12181,0.54617 c -0.61846,0.06 -1.13589,0.15474 -1.78143,0.36432 -5.6206,1.82363 -6.12261,4.97575 -0.89068,6.37382 6.35627,1.69771 6.83565,1.63131 8.37262,-0.91055 1.99101,-3.29415 -1.37139,-6.24594 -5.70051,-5.82747 z m -102.78731,4.18848 c -0.17898,0.0289 -0.32794,0.11201 -0.53464,0.18187 -1.58766,0.54098 -3.38999,2.20099 -3.91914,3.82428 -0.55022,1.68651 0.30947,2.5653 1.95955,2.00319 1.58778,-0.54098 3.39011,-2.38303 3.91914,-4.00638 0.48151,-1.47583 -0.16917,-2.19522 -1.42515,-2.00319 z m -191.1451,10.9265 c -3.86048,-0.0173 -7.6253,0.94876 -8.37263,2.18528 -1.74274,2.88239 7.75087,2.88239 12.1136,0 2.51051,-1.65856 1.59973,-2.15901 -3.74097,-2.18528 z m 49.8794,2.18528 c -1.20985,0 -2.13771,1.71394 -2.13771,3.64219 1.7e-4,1.92802 0.92792,2.76772 2.13771,2.00319 1.20973,-0.76436 2.31588,-2.2966 2.31588,-3.46003 1.2e-4,-1.16395 -1.10609,-2.18511 -2.31588,-2.18535 z m 311.21206,2.73164 c 15.50521,-0.57331 28.30181,8.34272 41.15061,28.0446 9.26313,14.20518 11.69108,20.50187 25.83038,67.01575 8.5635,28.17069 13.44301,62.37191 9.26326,65.0125 -1.38029,0.87221 -5.63909,-3.11765 -9.97583,-9.2875 -7.78412,-11.07389 -20.58119,-22.12019 -22.80204,-19.84974 -2.95092,3.01679 -1.18531,34.44065 2.49394,44.79851 2.12836,5.99202 3.60951,11.24334 3.20657,11.65483 -0.40299,0.41165 -5.66166,-3.62937 -11.57914,-9.10529 -5.91788,-5.47644 -12.00718,-10.01572 -13.53873,-10.01595 -1.53144,0 -4.48241,-0.62955 -6.5912,-1.4569 -3.51892,-1.38016 -3.58797,-0.1045 -2.31583,16.75385 1.57584,20.89251 0.20208,22.29536 -10.33216,10.92656 -11.19272,-12.07971 -14.68894,-17.93818 -13.36057,-22.21713 0.88711,-2.85814 0.28695,-3.61309 -1.9596,-2.73164 -3.24802,1.27434 -8.85067,-3.18965 -12.29165,-9.83379 -3.15524,-6.09236 -6.90198,-34.79336 -6.94748,-53.72187 -0.052,-22.48716 -3.80309,-37.09371 -11.75736,-45.70906 -7.58916,-8.22002 -10.15931,-7.19153 -4.0972,1.63894 6.49963,9.46856 8.89432,19.60108 10.51034,44.43437 0.80489,12.36769 2.89058,29.58544 4.45348,38.24265 2.04643,11.33965 2.09626,16.19208 0.35623,17.30026 -1.32786,0.84565 -3.06241,1.08715 -3.91909,0.54617 -2.24683,-1.41977 -5.96268,-26.93971 -8.55079,-59.36718 -2.42125,-30.33485 -4.49407,-40.8061 -8.19445,-42.06693 -3.62071,-1.23392 -5.2369,5.41997 -2.85023,11.83698 1.17584,3.16171 2.13771,9.22757 2.13771,13.47598 6e-5,4.24818 1.10598,7.64879 2.31577,7.64856 1.20962,0 2.13771,1.05754 2.13771,2.36739 0,1.30967 -1.01175,1.98621 -2.13771,1.27474 -2.99531,-1.89222 -4.95087,2.6041 -3.38462,7.64856 0.74519,2.39932 2.52887,3.71107 4.09719,3.09584 2.18142,-0.85587 3.28602,4.73529 4.27537,23.30983 1.27751,23.98995 3.12978,31.82563 12.46988,53.53965 7.39811,17.19853 11.9002,25.78056 14.96382,28.4088 2.88106,2.47154 -0.82619,-7.19713 -11.40102,-30.04779 -6.83525,-14.77133 -7.05458,-17.66417 -1.42509,-17.6644 2.55139,0 8.48423,5.21825 14.60754,12.92963 12.74528,16.05063 31.15423,32.45795 47.02912,41.52057 22.46781,12.82501 28.25856,21.67067 14.07313,21.67084 -8.99824,0 -17.37728,8.00456 -19.77353,18.93925 -1.66422,7.59551 -4.3066,7.67714 -12.82622,0.36431 -9.09738,-7.80878 -22.11344,-14.40292 -28.14622,-14.38652 -2.77072,0.006 -7.62546,1.36706 -10.86656,3.09589 -6.52203,3.47793 -8.37268,2.66646 -8.37268,-3.64218 0,-2.32357 -2.57414,-6.82035 -5.70051,-10.01595 -5.00388,-5.11554 -6.95955,-5.67263 -16.21079,-4.55273 l -10.51034,1.2748 -2.49394,-8.37696 c -4.21169,-14.36949 -23.05349,-19.50489 -32.4217,-8.92325 -5.31628,6.00524 -8.2564,5.17824 -6.94743,-1.82114 1.53051,-8.18476 -6.90949,-17.22671 -14.42942,-15.29702 -7.79983,2.00123 -8.6535,-1.57462 -2.31577,-11.10859 7.7156,-11.6072 26.05169,-49.55331 30.28393,-62.64512 1.91255,-5.91805 3.5628,-14.35269 3.5628,-18.75709 1.1e-4,-8.88318 5.56974,-30.14023 10.33211,-39.69955 1.79037,-3.59455 4.77969,-6.19143 7.30382,-6.19166 2.38886,0 4.27537,-0.94831 4.27537,-2.18529 1.2e-4,-1.23675 2.56877,-2.36721 5.5224,-2.36739 6.2229,0 9.18819,-3.28601 5.16611,-5.82747 -1.89453,-1.19674 -1.07001,-2.19244 2.67206,-3.09583 3.00305,-0.72447 6.26181,-3.22539 7.48193,-5.64537 1.22013,-2.41999 4.014,-6.44952 6.05674,-8.92325 2.04286,-2.47356 7.50169,-9.72854 12.29171,-16.02552 6.88086,-9.04507 11.05975,-12.09645 19.06108,-14.38652 3.9073,-1.11828 7.46623,-1.68888 11.04473,-1.8211 z m -149.63832,3.64219 c -1.30782,-0.052 -3.74362,0.78202 -7.48194,2.73158 -4.83921,2.52402 -8.90754,5.52615 -8.90702,6.73801 -1.2e-4,3.66217 5.61189,2.57426 11.75731,-2.36744 5.44745,-4.38068 6.81249,-7.0159 4.63165,-7.10215 z m -169.59008,3.46003 c -0.26327,0.052 -0.4105,0.1732 -0.71257,0.36431 -1.20985,0.7643 -2.31577,2.40537 -2.31577,3.64218 6e-5,1.23669 1.10552,1.67502 2.31577,0.91049 1.20967,-0.7643 2.13777,-2.40538 2.13777,-3.64213 -1.1e-4,-0.92734 -0.63665,-1.43057 -1.4252,-1.27474 z m -29.21501,1.45683 c -1.20996,0 -2.63741,0.94871 -3.38474,2.18529 -0.74802,1.23681 -0.49711,2.36768 0.71257,2.36744 1.2099,-5e-5 2.81547,-1.1304 3.5628,-2.36744 0.7479,-1.23681 0.31927,-2.18505 -0.89063,-2.18529 z m 354.85649,12.38334 c -0.43013,0.76898 1.63807,4.46445 6.5912,10.3802 4.34275,5.18603 8.95171,13.02431 10.33222,17.4823 1.3804,4.45793 4.11585,10.56646 6.0568,13.65813 3.07378,4.89712 3.5654,5.19365 4.27537,1.63894 1.17405,-5.88342 -9.03012,-26.08402 -18.34856,-36.05736 -4.62819,-4.95318 -7.71831,-7.06953 -8.72885,-7.10221 -0.16224,-0.005 -0.11663,-0.1097 -0.17841,0 z m -148.92569,9.46965 c -3.79195,-0.11143 -12.18322,2.74434 -13.7169,5.28112 -1.6263,2.68984 1.20667,2.63372 9.61965,-0.36431 3.80829,-1.35736 6.50904,-3.32787 5.87862,-4.37063 -0.24191,-0.40068 -0.90685,-0.52077 -1.78137,-0.54618 z m -206.64343,1.82104 c 0.15127,0.0173 0.3978,0.0289 0.53463,0.18186 3.69663,4.17763 8.90702,24.64398 8.90702,34.96472 -1.7e-4,5.96378 0.69295,10.92672 1.78143,10.92649 1.08797,0 3.82884,-5.13874 6.05674,-11.47278 4.08987,-11.62568 9.08023,-15.84146 16.56708,-13.84023 3.42706,0.91643 7.80733,10.1649 11.75731,24.76666 1.88748,6.97739 -3.04584,4.66636 -8.72886,-4.00632 -2.41981,-3.69236 -5.34515,-6.36978 -6.41308,-6.00957 -1.06724,0.35969 -3.53491,5.23355 -5.52234,10.74434 l -3.56285,9.83385 -17.99216,0.72839 -17.81417,0.72845 -6.23491,-12.74753 c -3.44276,-6.99719 -7.32628,-13.27898 -8.72891,-13.84023 -1.40303,-0.56176 -5.70317,0.75524 -9.44148,2.73164 -8.22938,4.35031 -8.3385,3.08354 -1.24697,-9.2875 6.49899,-11.33653 13.57592,-14.55095 17.99222,-8.37695 3.07401,4.29719 9.44148,24.05565 9.44148,29.31934 -6e-5,1.63073 0.90731,2.9139 1.95954,2.91373 2.16733,6e-5 4.57698,-13.00792 4.63171,-24.76667 0.0462,-9.80515 3.79253,-23.79908 6.05674,-23.49192 z m 330.27314,4.37063 c -1.18318,-0.13221 -1.95954,0.37586 -1.95954,1.27474 -6e-5,1.19784 1.56988,2.18552 3.38468,2.18529 1.81457,0 3.20657,-0.42436 3.20657,-0.91055 6e-5,-0.48613 -1.39189,-1.47341 -3.20657,-2.18528 -0.4538,-0.17783 -1.03092,-0.31986 -1.42514,-0.36431 z m 5.87862,5.82741 c -0.70772,0.7236 1.47988,5.16473 4.80983,9.65176 6.03878,8.13631 9.44148,10.20261 9.44148,6.00951 -1.2e-4,-3.02534 -11.2598,-15.40047 -13.89496,-15.66127 -0.17552,-0.0173 -0.26097,-0.097 -0.35623,0 z m -58.07391,20.0319 c -1.03012,0 -2.52419,11.39952 -3.20657,25.31296 -1.04576,21.32558 -2.54908,29.44549 -9.79771,51.71868 -4.72917,14.53202 -8.37326,26.4059 -8.01628,26.40566 1.09126,0 11.26304,-22.95862 13.89491,-31.50468 6.52301,-21.18031 11.54905,-71.93239 7.12565,-71.93262 z m 106.52823,7.64851 c -1.4002,0.23498 -0.99011,8.17546 1.60331,20.21399 1.90037,8.82296 4.06464,20.00263 4.80983,24.76667 0.74444,4.76422 1.77912,8.19769 2.31577,7.64856 1.6965,-1.73489 -2.94722,-40.8479 -5.70051,-47.89439 -1.35834,-3.47735 -2.39152,-4.8417 -3.0284,-4.73483 z m -29.39318,4.00638 c -0.38741,0.14953 -0.53463,0.91995 -0.53463,2.18528 -6e-5,1.89656 0.72053,4.19737 1.60325,5.09903 0.88162,0.90194 2.03044,0.51211 2.49394,-0.91055 0.4642,-1.42225 -0.2575,-3.72301 -1.6032,-5.09902 -0.89836,-0.91834 -1.57231,-1.42445 -1.95954,-1.27474 z m -149.10392,4.91692 c -4.51399,0.19746 -11.93543,2.28587 -11.93543,4.00638 1.2e-4,1.0822 2.26554,2.02207 4.98794,2.00319 5.55618,-0.0404 12.04507,-3.53006 10.154,-5.46327 -0.45669,-0.46651 -1.7021,-0.61229 -3.20651,-0.54618 z m 155.16065,9.2875 1.60326,14.75072 c 0.92157,8.03909 1.78143,25.01903 1.78143,37.69635 -6e-5,14.94362 0.78278,22.94702 2.31583,22.94558 3.9409,-0.002 2.15463,-55.45699 -2.13772,-66.28724 l -3.5628,-9.10541 z m -363.58546,5.64538 c 27.08827,0 33.98241,0.58971 31.88724,2.73158 -2.95311,3.01881 -5.87458,3.28734 -41.68495,2.36744 -38.22786,-0.98231 -30.35857,-5.09879 9.79771,-5.09902 z m 189.36373,6.92005 c -1.11516,-0.0115 -1.60326,0.6859 -1.60326,2.00319 -1.7e-4,1.14588 1.62347,2.43228 3.74092,2.91374 5.22471,1.18843 6.62387,-0.35911 2.67211,-2.91374 -2.07519,-1.34136 -3.69478,-1.99014 -4.80977,-2.00319 z m -195.06418,0.91055 -1.4252,6.92012 c -1.75672,7.81518 -6.47503,13.70028 -8.37257,10.56224 -0.70778,-1.17082 1.21233,-5.44786 4.27537,-9.6517 l 5.5224,-7.83066 z m 14.25125,8.92331 c 0.2627,-0.0693 0.5885,-0.0115 0.89068,0.18186 1.20985,0.76436 2.31583,2.77044 2.31583,4.55267 -1.7e-4,1.78213 -1.10604,3.27817 -2.31583,3.27794 -1.20973,5e-5 -2.13771,-2.00643 -2.13771,-4.55268 -1.2e-4,-1.91 0.45784,-3.25316 1.24703,-3.46008 z m 170.12448,8.55905 c -0.66892,0.0404 -1.17117,0.28637 -1.42509,0.54617 -0.66603,0.68042 2.12022,2.5447 6.23486,4.37058 8.99287,3.9901 10.08286,4.22635 11.75731,1.4569 1.21261,-2.00591 -11.88427,-6.64559 -16.56708,-6.37377 z m 122.0265,3.46008 c -0.31292,0.0699 -0.69571,0.71927 -1.24702,1.63894 -3.41021,5.69457 -2.65312,45.86921 1.06885,58.45658 2.27547,7.69545 2.73534,8.16455 3.38463,3.46003 0.41743,-3.0247 -0.48556,-11.29132 -1.95954,-18.39284 -1.67335,-8.06172 -2.14539,-19.44277 -1.24692,-30.41199 0.88342,-10.77857 0.93855,-14.9603 0,-14.75072 z m 44.53518,9.2875 c -0.25519,0.0624 -0.83052,2.08495 -1.60331,5.82742 -1.02146,4.94712 -1.78842,13.08182 -1.78137,18.02871 0.0115,6.71561 0.48093,7.91085 1.78137,4.55267 0.958,-2.4735 1.72513,-10.6078 1.78148,-18.02865 0.0577,-7.2178 0.14954,-10.46022 -0.1784,-10.38015 z m -529.612744,0.54618 c -1.3375,0.006 -2.949532,0.0895 -4.987998,0.36431 -6.878026,0.92666 -10.762295,3.24543 -16.210733,9.6517 -3.932247,4.62276 -7.125654,9.7047 -7.125654,11.29069 -1.15e-4,3.33093 11.985017,13.17004 19.951761,16.38971 17.456838,7.05499 29.062188,-14.51498 17.101538,-31.68678 -3.20178,-4.59626 -4.71601,-6.03474 -8.728914,-6.00957 z m 360.200834,2.91368 c -2.19805,-0.17494 -3.56285,0.27078 -3.56285,1.2748 5e-5,1.26013 1.80163,2.32374 3.91914,2.36738 2.11693,0.0462 6.2382,1.51071 9.26325,3.27794 6.42047,3.75211 12.41382,4.31364 14.25131,1.27474 1.17416,-1.9428 -3.71101,-3.7632 -21.37691,-7.83061 -0.88271,-0.20323 -1.76128,-0.306 -2.49394,-0.36431 z m -9.08519,15.11497 c -0.65161,0.1836 -0.69727,0.5986 -0.17783,1.4569 0.85656,1.41706 2.7877,2.73181 4.27531,2.73158 1.48721,0 6.65488,1.8973 11.40103,4.37057 8.95176,4.66584 14.26533,5.82153 14.2513,2.91374 -0.0115,-1.88414 -15.30394,-8.53607 -25.11787,-10.92644 -1.69944,-0.41396 -2.89024,-0.5329 -3.74097,-0.54618 -0.3545,-0.005 -0.67354,-0.0612 -0.89068,0 z m 15.32016,25.49512 c -0.35854,-0.0231 -0.54849,0.0115 -0.71257,0.18186 -0.65865,0.67262 0.17956,2.12715 1.95954,3.27794 5.21553,3.37215 8.02246,2.31201 3.38463,-1.27475 -1.74823,-1.35216 -3.55668,-2.12455 -4.6316,-2.18528 z m 72.50328,1.82109 c -0.2627,0.052 -0.58804,0.17321 -0.89075,0.36431 -1.20979,0.7643 -2.13765,2.40538 -2.13765,3.64213 -1.8e-4,1.23675 0.92786,1.67508 2.13765,0.91054 1.20985,-0.76424 2.13772,-2.40537 2.13772,-3.64212 1.7e-4,-0.92741 -0.45785,-1.43057 -1.24697,-1.2748 z m 26.54295,2.36738 c -1.95729,0.53694 -3.20651,7.53194 -3.20651,18.57495 -1.7e-4,6.70106 0.85321,12.01937 1.95954,12.01914 2.28096,0 4.32554,-29.03875 2.13766,-30.41199 -0.30716,-0.19283 -0.61067,-0.25865 -0.89069,-0.18186 z M 460.4941,449.44197 c -1.20985,0 -2.13772,1.13092 -2.13772,2.36738 1.2e-4,1.23681 0.92793,2.18558 2.13772,2.18535 1.20973,0 2.31588,-0.94836 2.31588,-2.18535 6e-5,-1.23669 -1.1061,-2.36715 -2.31588,-2.36738 z m -215.72852,7.46641 c 1.32174,-0.0173 2.61392,0.22055 3.74092,0.54617 l 6.41308,1.82098 -7.66011,1.63905 -7.83817,1.45684 7.12565,0.36431 c 9.46065,0.39607 12.53264,6.29369 9.44143,18.02865 -1.26811,4.81468 -3.80015,9.4524 -5.70051,10.19805 -6.52123,2.55808 -9.7969,1.19628 -11.93543,-4.55262 -2.26785,-6.09894 -6.47855,-5.48741 -6.59119,0.91044 -0.0589,3.32273 -0.39376,3.33133 -2.49394,-0.36432 -1.83247,-3.22585 -1.54795,-6.20962 1.24697,-12.20112 2.01508,-4.31971 3.09831,-8.30519 2.49394,-8.92336 -2.29297,-2.344 -7.94723,1.83016 -9.97588,7.28431 -2.8183,7.57894 -4.46463,7.20625 -2.49394,-0.54618 1.93604,-7.61692 14.97317,-15.55872 24.22718,-15.66126 z m 83.9043,0.72839 0,10.74439 c 0,8.89467 -1.27595,11.86684 -6.5912,17.30026 -3.53641,3.61523 -8.50218,6.5561 -11.04479,6.55587 -2.71455,0 -5.3754,2.12853 -6.59114,5.09902 -1.1382,2.78273 -3.4792,6.75921 -5.16611,8.92336 -1.68703,2.16433 -3.58445,4.00667 -4.09726,4.00638 -1.80608,0 -8.37262,-13.20872 -8.37262,-16.75402 -1.2e-4,-1.9734 -0.92781,-3.4598 -2.13771,-3.46003 -1.20973,0 -2.31629,1.32913 -2.31577,3.09589 1.1e-4,5.53735 -6.61424,10.5623 -11.75737,8.9233 -6.88588,-2.19504 -8.39173,-5.40513 -6.94742,-15.47922 1.68645,-11.76759 3.79662,-13.41328 11.40102,-9.4696 4.7708,2.47437 9.53016,2.77275 20.12987,1.4569 12.51353,-1.55332 15.07127,-2.64146 23.69279,-11.29075 l 9.79771,-9.65175 z m 290.72584,14.56862 c -0.30426,0.067 0.61304,1.73899 2.85029,5.46327 2.22917,3.71037 5.52805,8.39815 7.30377,10.5623 1.77513,2.16428 3.61141,4.00656 4.09725,4.00633 1.73466,0 -7.11035,-13.95028 -11.22291,-17.6644 -1.79909,-1.62514 -2.7918,-2.41958 -3.0284,-2.3675 z M 238.35244,500.7964 c 1.30361,-0.0173 2.7168,-0.11028 4.27537,0 8.29486,0.58797 10.93527,1.70394 11.75731,4.91692 1.45262,5.67898 14.35662,13.45542 22.44576,13.47598 3.62954,0.0115 9.96335,2.10232 13.89496,4.55273 5.52113,3.44132 7.12514,6.05547 7.12572,11.29063 -6e-5,3.72867 -1.1061,6.73825 -2.31595,6.73802 -4.43293,0 -2.09181,6.93316 3.02846,8.9233 6.1867,2.40474 12.46982,10.53638 12.46982,16.38966 -1.2e-4,2.48078 -2.53441,5.05497 -6.23491,6.37376 -3.71424,1.32359 -7.06036,4.70481 -8.55074,8.74121 -1.45245,3.93473 -5.04209,7.64943 -8.72891,9.1054 -11.60442,4.58345 -19.5214,5.09683 -22.62387,1.2748 -2.51825,-3.10143 -2.28944,-3.64195 1.78137,-3.64218 17.27705,0 5.05722,-44.089 -17.81405,-64.10196 -9.1647,-8.01951 -17.07284,-18.44931 -17.10153,-22.58138 -0.006,-0.97399 2.68014,-1.40609 6.59119,-1.45689 z m 110.09109,29.86569 c -0.62395,-0.0808 -1.20968,0.14376 -1.60326,0.54617 -0.64571,0.66009 -0.4411,2.32288 0.35623,3.64219 1.7924,2.96396 5.5224,3.05576 5.5224,0.18186 5e-5,-1.98979 -2.40382,-4.12727 -4.27537,-4.37057 z m 26.18667,20.03189 c -1.13878,0 -1.96006,0.94877 -1.95954,2.18529 5e-5,1.23675 1.49898,2.36768 3.38468,2.36744 1.8861,0 2.70745,-1.13046 1.95954,-2.36744 -0.74744,-1.23675 -2.24637,-2.18511 -3.38468,-2.18529 z m 43.46638,3.0959 c -0.67262,-0.0935 -1.97658,0.39433 -3.91915,1.45683 -2.72014,1.48796 -7.95646,1.99251 -12.64793,1.09259 l -8.01634,-1.63899 4.09726,4.73482 c 5.32505,6.01506 15.81553,6.22337 18.88284,0.36431 2.08512,-3.98236 2.72431,-5.8542 1.60332,-6.00945 z m -49.16689,4.18847 c -1.53432,-0.18302 -3.67931,1.29766 -6.5912,4.73471 -4.01175,4.73466 -6.88836,6.24086 -10.86662,5.46328 -5.56801,-1.08814 -7.37652,1.44616 -2.49394,3.46003 6.01921,2.48303 10.77892,1.20598 17.10153,-4.55273 4.74545,-4.32242 5.81235,-6.65534 4.0972,-8.3769 -0.42667,-0.42839 -0.73521,-0.6673 -1.24697,-0.72839 z M 80.519671,568.72269 c -1.512149,-0.0115 -2.672113,0.45727 -2.672113,1.09259 1.16e-4,0.63509 1.160137,3.33278 2.672113,5.82747 1.994934,3.28977 2.135808,4.83604 0.356228,6.00957 -3.22978,2.13044 -5.836709,11.1456 -4.097313,14.02233 2.59954,4.29909 9.940893,2.21369 12.469937,-3.46003 2.039967,-4.57704 1.639456,-7.08599 -1.781485,-14.38658 -2.311729,-4.93246 -5.434871,-9.09103 -6.947425,-9.10535 z m 275.762019,16.38966 c -1.16267,0.39606 0.0231,2.93994 2.67212,5.64537 4.65036,4.75371 11.40489,6.37001 14.2513,3.46003 1.57312,-1.60822 -12.04361,-9.00708 -16.21084,-9.1054 -0.27771,-0.006 -0.52655,-0.0635 -0.71258,0 z m 26.54302,2.73158 c -1.12654,0.06 -2.6194,0.80443 -3.74097,2.18534 -2.20994,2.72252 -2.08344,3.46026 0.71257,3.46003 4.10713,0 6.90516,-3.68901 4.0972,-5.46322 -0.27367,-0.17263 -0.69358,-0.20207 -1.0688,-0.18186 z m -17.45782,29.68365 c -4.52398,0.0716 -4.53853,1.37006 -1.24697,4.73477 1.45984,1.49229 5.2955,2.16387 8.37262,1.63899 3.07701,-0.52481 6.39617,-0.99074 7.30377,-1.0927 0.9072,-0.10161 1.60326,-1.07307 1.60326,-2.18523 1.7e-4,-1.11221 -4.53178,-2.47119 -9.97594,-2.91368 -2.59169,-0.21073 -4.54904,-0.20611 -6.05674,-0.18244 z m -226.59514,36.9679 c 18.89503,-0.14491 36.53558,3.42296 50.05758,10.38015 10.344,5.32199 30.12654,18.9176 29.03695,20.03184 -0.54156,0.5531 -5.28008,-1.72375 -10.51033,-5.09903 -10.15665,-6.55419 -16.17558,-8.40264 -40.43798,-12.74758 -16.60328,-2.97315 -36.34073,-2.71224 -36.34073,0.54617 6e-5,1.1061 6.15524,5.16935 13.71685,8.92331 7.5615,3.75361 24.17205,15.44787 36.87518,26.04146 29.20792,24.35669 56.47782,37.56137 89.07041,43.52377 18.99578,3.47493 65.77964,3.05092 88.00156,-0.9106 17.78298,-3.16991 19.87364,-3.20623 27.78998,0.36431 4.70671,2.12293 8.55074,5.12079 8.55074,6.73802 1.1e-4,1.61705 -0.22806,3.09583 -0.53463,3.09589 -0.30658,0 -7.56722,2.06531 -16.03274,4.55261 -8.465,2.48736 -21.70755,5.43799 -29.57135,6.73802 -25.69638,4.24846 -46.32827,4.26342 -68.22802,0 -50.47171,-9.82594 -76.77293,-21.66079 -99.04623,-44.79857 -17.13098,-17.79597 -27.57897,-26.10959 -40.0817,-31.68678 -9.24194,-4.12277 -26.03696,-6.86157 -28.14627,-4.55267 -0.60501,0.66199 7.09592,8.44727 16.92331,17.30026 16.99587,15.30988 29.13886,30.29166 35.80638,43.88796 5.43423,11.0818 0.49075,9.34766 -12.46982,-4.37063 -15.916,-16.84675 -26.9922,-23.97749 -42.21947,-27.31615 -15.031657,-3.29543 -27.115228,-1.62976 -40.972375,6.00962 -9.214407,5.07968 -12.012903,8.40692 -18.348504,21.30653 -4.111805,8.37083 -7.79094,14.98108 -8.194453,14.56868 -0.402993,-0.41224 0.630529,-9.56966 2.31577,-20.21394 3.792065,-23.94532 12.646723,-43.546 27.433815,-60.45983 10.820608,-12.37716 11.879823,-13.07633 30.996497,-17.66446 11.53318,-2.76818 23.22201,-4.10158 34.5593,-4.18847 z m -50.057569,31.14043 c -1.095646,6e-5 -2.137655,0.9874 -2.137655,2.18529 1.73e-4,1.19807 -1.391829,1.62266 -3.206628,0.91061 -3.329835,-1.30587 -4.839445,3.61135 -1.959542,6.5558 2.508318,2.56415 3.959845,1.79355 6.591254,-4.00638 1.398873,-3.08209 1.808679,-5.64532 0.712571,-5.64532 z m 8.906966,2.18529 c -1.209962,0 -2.137655,1.13063 -2.137655,2.36739 5.7e-5,1.23675 0.927866,2.18534 2.137655,2.18534 1.209674,0 2.137194,-0.94859 2.137714,-2.18534 0,-1.23652 -0.927867,-2.36739 -2.137714,-2.36739 z m -25.4741,12.01914 c -0.263274,0.0462 -0.587978,0.17321 -0.890685,0.36431 -1.209789,0.76465 -2.138233,1.82207 -2.137713,2.36744 5.7e-5,0.5456 0.927866,1.09259 2.137713,1.09265 1.209904,0 2.137656,-1.05801 2.137656,-2.36745 -1.74e-4,-0.98236 -0.45842,-1.59246 -1.246971,-1.45683 z m 337.933193,19.8498 c -0.71898,0.11605 -1.7017,0.72285 -2.49394,2.00313 -1.12538,1.81919 -1.94067,3.98923 -1.95955,4.91687 -0.0624,3.11991 4.56261,1.86572 5.87863,-1.63888 1.22451,-3.26263 0.15704,-5.53695 -1.42514,-5.28112 z m 151.41969,10.92644 c -2.30602,0 -2.63667,3.13209 -0.53406,5.28106 2.67125,2.73152 5.02761,1.42439 3.74092,-2.00307 -0.69652,-1.85522 -2.12559,-3.27799 -3.20657,-3.27799 z m -137.88101,0.91054 c -0.14492,0.0462 -0.38048,0.0849 -0.53464,0.18187 -1.2293,0.77677 -1.58662,2.30867 -0.89074,3.46003 1.8857,3.11887 3.20651,2.67506 3.20651,-1.27469 6e-5,-1.68726 -0.76487,-2.68123 -1.78142,-2.36744 z m 61.99305,26.7698 c -0.2627,0.0462 -0.58798,0.17321 -0.89069,0.36431 -1.20973,0.76442 -2.13777,1.82196 -2.13777,2.36733 -6e-5,0.5456 0.92793,1.0927 2.13777,1.09276 1.20991,6e-5 2.31583,-1.05771 2.31583,-2.36744 -1.2e-4,-0.98231 -0.63613,-1.59241 -1.42514,-1.4569 z"
     id="path9018" />
</svg>
