<?xml version="1.0" encoding="UTF-8" standalone="no"?>
<!-- Created with Inkscape (http://www.inkscape.org/) -->

<svg
   xmlns:dc="http://purl.org/dc/elements/1.1/"
   xmlns:cc="http://creativecommons.org/ns#"
   xmlns:rdf="http://www.w3.org/1999/02/22-rdf-syntax-ns#"
   xmlns:svg="http://www.w3.org/2000/svg"
   xmlns="http://www.w3.org/2000/svg"
   xmlns:sodipodi="http://sodipodi.sourceforge.net/DTD/sodipodi-0.dtd"
   xmlns:inkscape="http://www.inkscape.org/namespaces/inkscape"
   width="1000"
   height="1000"
   id="svg2"
   version="1.1"
   inkscape:version="0.47 r22583"
   sodipodi:docname="D.svg">
  <defs
     id="defs4">
    <inkscape:perspective
       sodipodi:type="inkscape:persp3d"
       inkscape:vp_x="0 : 526.18109 : 1"
       inkscape:vp_y="0 : 1000 : 0"
       inkscape:vp_z="744.09448 : 526.18109 : 1"
       inkscape:persp3d-origin="372.04724 : 350.78739 : 1"
       id="perspective10" />
    <inkscape:perspective
       id="perspective2940"
       inkscape:persp3d-origin="0.5 : 0.33333333 : 1"
       inkscape:vp_z="1 : 0.5 : 1"
       inkscape:vp_y="0 : 1000 : 0"
       inkscape:vp_x="0 : 0.5 : 1"
       sodipodi:type="inkscape:persp3d" />
    <inkscape:perspective
       id="perspective2953"
       inkscape:persp3d-origin="0.5 : 0.33333333 : 1"
       inkscape:vp_z="1 : 0.5 : 1"
       inkscape:vp_y="0 : 1000 : 0"
       inkscape:vp_x="0 : 0.5 : 1"
       sodipodi:type="inkscape:persp3d" />
    <inkscape:perspective
       id="perspective2966"
       inkscape:persp3d-origin="0.5 : 0.33333333 : 1"
       inkscape:vp_z="1 : 0.5 : 1"
       inkscape:vp_y="0 : 1000 : 0"
       inkscape:vp_x="0 : 0.5 : 1"
       sodipodi:type="inkscape:persp3d" />
    <inkscape:perspective
       id="perspective2979"
       inkscape:persp3d-origin="0.5 : 0.33333333 : 1"
       inkscape:vp_z="1 : 0.5 : 1"
       inkscape:vp_y="0 : 1000 : 0"
       inkscape:vp_x="0 : 0.5 : 1"
       sodipodi:type="inkscape:persp3d" />
    <inkscape:perspective
       id="perspective2992"
       inkscape:persp3d-origin="0.5 : 0.33333333 : 1"
       inkscape:vp_z="1 : 0.5 : 1"
       inkscape:vp_y="0 : 1000 : 0"
       inkscape:vp_x="0 : 0.5 : 1"
       sodipodi:type="inkscape:persp3d" />
  </defs>
  <sodipodi:namedview
     id="base"
     pagecolor="#ffffff"
     bordercolor="#666666"
     borderopacity="1.0"
     inkscape:pageopacity="0.0"
     inkscape:pageshadow="2"
     inkscape:zoom="0.532"
     inkscape:cx="500"
     inkscape:cy="500"
     inkscape:document-units="px"
     inkscape:current-layer="svg2"
     showgrid="false"
     showborder="true"
     inkscape:showpageshadow="false"
     showguides="true"
     inkscape:guide-bbox="true"
     inkscape:window-width="1280"
     inkscape:window-height="750"
     inkscape:window-x="0"
     inkscape:window-y="26"
     inkscape:window-maximized="1">
    <sodipodi:guide
       orientation="0,1"
       position="0,200"
       id="guide2818" />
  </sodipodi:namedview>
  <metadata
     id="metadata7">
    <rdf:RDF>
      <cc:Work
         rdf:about="">
        <dc:format>image/svg+xml</dc:format>
        <dc:type
           rdf:resource="http://purl.org/dc/dcmitype/StillImage" />
        <dc:title></dc:title>
      </cc:Work>
    </rdf:RDF>
  </metadata>
  <g
     inkscape:label="Layer 1"
     inkscape:groupmode="layer"
     id="layer1" />
  <path
     style="fill:#800000"
     d="m 0.66835417,0 0,5.4632762 c -0.82521302,0.7914378 -0.927578,2.1990862 -0.70893379,4.5526728 0.28809998,3.091965 0.67227177,72.436648 0.70893379,154.063281 l 0,629.7291 0,6.19167 6.20332943,0 724.0118164,0 6.02642,0 0,-6.19167 0,-777.236461 c 0.13857,-3.948529 0.11547,-7.5067657 0,-10.1981045 L 736.90992,0 730.8835,0 6.8716836,0 0.66835417,0 z M 334.58264,12.565489 l 390.09776,0 0,771.955291 c -7.48079,1.3028 -26.31294,1.52947 -76.03472,1.27479 -42.80739,-0.21939 -162.05307,0.25924 -264.96884,1.09265 -34.28217,0.27771 -60.54488,0.48324 -88.44092,0.72839 l -238.737947,0 c -22.315855,-0.5023 -39.930426,-0.95448 -43.600266,-1.45684 l 0,-769.405804 14.710651,-0.181866 c 9.819648,-0.07563 32.63451,-0.439945 50.689661,-0.910546 C 110.97479,14.809782 213.74404,13.65998 334.58264,12.56572 z m 381.76768,8.559052 -232.53478,1.274741 C 355.9234,23.077905 199.67858,23.622351 136.78618,23.674024 l -114.317722,0 -0.177248,25.313018 c -0.08256,13.858764 -0.483246,27.68456 -0.886182,30.776237 -1.928306,14.786457 -2.03656,206.312551 -0.177247,324.880471 1.144432,72.9696 2.076744,186.59306 1.949611,252.4015 l -0.177248,119.64498 16.660204,0.72839 c 21.973887,1.04969 364.680012,-0.22459 485.097142,-1.82115 51.76908,-0.68647 115.85083,-1.39697 142.32081,-1.63888 l 48.03129,-0.54618 1.77248,-25.85925 c 2.58251,-39.6507 3.35154,-232.81174 1.24073,-314.68242 -1.48726,-57.68599 -2.39544,-281.4917 -1.24073,-302.48125 0.13856,-2.47356 0.0577,-28.00522 -0.17898,-56.817647 L 716.3509,21.124772 z m -67.5274,18.392903 c 0.97746,0.01732 2.22571,0.24018 3.72221,0.728448 2.78573,0.908641 5.19792,5.345092 7.08934,12.929627 2.34117,9.385131 4.5178,12.395112 12.22952,17.846552 11.79016,8.334519 13.73007,12.43137 16.12841,32.051039 1.83656,15.02848 1.59234,16.61528 -4.60787,30.22988 -7.06163,15.50504 -7.06336,15.08132 3.72163,28.77305 11.73184,14.89465 8.38838,16.56615 -7.62109,4.00638 -6.91786,-5.42765 -11.52169,-7.59995 -14.53374,-6.73802 -17.1434,4.90538 -35.51713,5.80698 -51.93017,2.36745 -16.9546,-3.5531 -17.20921,-3.55951 -26.4082,1.63893 -11.2665,6.36649 -13.12385,14.65297 -6.2031,28.59095 8.24058,16.59635 18.90606,17.82779 38.99165,4.73483 l 13.64751,-8.74121 3.19046,4.91693 c 6.16961,9.05061 4.39886,11.75373 -14.00201,20.39609 -9.62912,4.523 -17.54638,9.06297 -17.54638,10.01595 0,0.95298 4.54493,5.60617 10.10255,10.38014 12.03727,10.33806 25.24483,30.83813 30.4849,46.98385 13.32881,41.07065 -9.06562,82.82829 -44.13241,82.31277 -22.80724,-0.33545 -39.99855,-30.02978 -26.58545,-45.89121 7.43575,-8.79236 18.82696,-9.87052 27.29444,-2.54948 9.61873,8.31604 12.30689,7.6884 10.6343,-2.54955 -0.75807,-4.63765 -1.84234,-10.93013 -2.30423,-14.02232 -1.93067,-12.91976 -10.08119,-26.98608 -23.39498,-40.06374 -11.50553,-11.30137 -37.39065,-32.05075 -40.05572,-32.05098 -0.40414,0 -4.3775,-1.58218 -9.03906,-3.64213 -8.90454,-3.93611 -48.1023,-15.12132 -85.07321,-24.22037 -12.03669,-2.96241 -33.8376,-6.63253 -48.38579,-8.19486 -24.95442,-2.68048 -27.74131,-2.58862 -50.15826,2.18529 -31.3723,6.68132 -54.94049,18.23153 -72.66701,35.51107 -9.11528,8.88537 -14.31262,15.95842 -16.1284,22.03503 -3.0571,10.22991 -5.93867,97.04269 -4.25338,128.20397 1.0785,19.95678 1.16222,20.16191 6.5576,19.66764 3.00917,-0.27598 41.18733,-0.87804 84.89654,-1.45684 93.65674,-1.24062 92.47028,-0.9677 107.58253,-24.22037 4.85556,-7.47184 9.06447,-15.75111 9.21632,-18.39291 1.08196,-18.81414 -2.63736,-29.54318 -9.57081,-27.6804 -11.79651,3.16973 -17.59835,-17.53109 -7.62108,-27.13405 15.53603,-14.95378 34.25272,-9.89765 48.56245,13.29388 2.0652,3.34669 3.15178,7.07969 2.48147,8.19485 -0.67088,1.11459 -0.38683,5.18621 0.70899,9.10541 1.4203,5.08788 1.18358,9.40857 -1.06348,14.93281 -6.54143,16.08707 -1.52711,28.11192 13.47026,32.23314 5.96349,1.63859 6.38034,2.50439 6.38034,14.02227 l 0,12.01914 -15.41941,0.36431 c -8.56909,0.17551 -18.74035,1.99585 -23.21831,4.00638 -6.736,3.02418 -8.34162,4.90872 -9.57081,12.38333 -1.87987,11.43295 0.73324,16.3247 12.93852,23.67408 8.8341,5.31946 10.44781,5.70271 14.88766,2.91374 2.72685,-1.71313 9.74286,-5.80276 15.41999,-9.10541 l 10.27922,-6.00962 4.4312,9.2875 c 2.4399,5.18909 4.1916,9.77877 3.89888,10.01595 -0.29445,0.23729 -4.92426,2.80819 -10.27923,5.82741 -8.37741,4.7227 -10.1395,7.07352 -12.40677,16.20767 -2.11831,8.53146 -2.05134,13.15081 0.35219,23.49193 3.62347,15.57587 3.97451,30.09392 0.88624,41.52063 -4.48259,16.58486 -29.12697,27.54132 -43.77734,19.48549 -5.47795,-3.012 -11.17182,-16.93999 -9.57081,-23.49192 2.30999,-9.45742 16.76234,-12.61896 29.95258,-6.73796 6.11245,2.72511 4.75625,-3.32193 -4.96236,-21.4888 -12.30401,-22.99979 -18.28021,-30.27047 -31.37115,-38.78894 -37.22321,-24.22176 -45.37545,-25.75088 -127.61039,-23.85618 -33.8503,0.78013 -62.62508,2.23396 -63.98244,3.0959 -3.22684,2.04897 -3.36136,91.44599 -0.17898,127.11132 3.87289,43.38116 10.06271,68.68789 25.16746,102.7088 1.73091,3.89732 3.19047,7.6582 3.19047,8.3769 0,2.67673 17.14974,29.91898 22.68657,36.05741 3.15871,3.5027 5.8486,7.27669 5.8486,8.37701 0,2.08189 -16.16015,9.96913 -25.52196,12.38328 -3.91331,1.0095 -6.9756,-0.13279 -10.98879,-4.00632 -4.5536,-4.39598 -7.73655,-5.28118 -18.60987,-5.28118 -12.36059,0 -13.60248,0.39606 -19.49612,7.6485 l -6.38034,7.83072 -7.97558,-4.00638 c -7.60665,-3.72659 -7.83124,-4.18062 -6.20368,-12.20129 2.2436,-11.05467 1.30021,-27.11044 -1.94914,-34.05411 -1.5323,-3.27441 -5.51721,-6.40396 -9.74806,-7.64862 -5.92366,-1.7424 -8.26535,-1.34316 -13.11565,2.3675 -5.45635,4.17364 -6.07978,5.95391 -7.08945,24.22026 l -1.06349,19.8498 -8.15283,2.91373 c -9.68651,3.43538 -13.3556,2.48898 -18.07813,-4.91692 -4.42455,-6.93882 -8.72625,-6.82595 -17.90099,0.36431 -4.04564,3.17066 -11.56424,7.58049 -16.66026,9.83385 -13.29388,5.87897 -22.55263,6.83369 -38.992056,3.82422 -18.59134,-3.40344 -29.27344,-10.78025 -34.029457,-23.49186 -3.441727,-9.19848 -3.431161,-10.58811 0.531744,-24.58463 5.386892,-19.02482 11.638257,-24.20843 28.535061,-24.03822 9.903134,0.0999 12.920278,1.0744 17.723638,6.00957 4.74037,4.87114 5.72862,8.15744 6.02608,18.3929 0.19918,6.8763 1.00783,13.23684 1.77236,14.02239 3.46817,3.56366 21.56397,-6.88542 29.4213,-16.93607 4.51237,-5.77164 8.83589,-11.03654 9.57081,-11.65494 5.46576,-4.59938 20.17612,-51.21119 29.0668,-92.14655 3.08839,-14.22279 7.59597,-44.78979 10.1025,-68.10834 3.92717,-36.54286 4.43489,-50.82586 3.36748,-103.4373 -1.31019,-64.58082 -4.98927,-146.1862 -6.91227,-152.78854 -1.45868,-5.00844 -7.90745,-3.70887 -26.76269,5.64537 -15.96097,7.91871 -29.65658,22.70251 -33.49778,35.87526 -2.13257,7.31312 -2.05884,9.24195 0.53175,10.92644 9.24587,6.01182 29.99675,-1.92629 42.71408,-16.38972 4.15557,-4.72668 8.47314,-8.16356 9.5707,-7.4664 3.37781,2.14498 -3.32257,20.38431 -11.16587,30.41198 l -7.44395,9.46966 5.67164,4.73477 c 3.03949,2.66761 7.84152,6.64183 10.81137,8.7412 l 5.49434,3.82428 -9.03906,0.18187 c -5.59122,0.0733 -12.98465,-2.08794 -19.49606,-5.64537 -5.74895,-3.14075 -10.81085,-5.28141 -11.34311,-4.73483 -3.83635,3.94218 18.23632,22.34172 32.96603,27.49831 10.20162,3.57163 13.15104,8.39693 6.73501,10.92649 -10.68539,4.21336 -28.12733,-4.25181 -48.56286,-23.49193 -7.8944,-7.43257 -15.33217,-13.32373 -16.48301,-12.92968 -1.1509,0.39433 -5.0537,8.25946 -8.68463,17.48236 -5.69578,14.46556 -6.68484,20.30533 -7.44395,42.61327 -1.04362,30.66718 -2.214672,37.60571 -5.494393,34.23633 -3.626596,-3.72677 -2.494808,-63.72558 1.595173,-85.77285 4.02376,-21.69145 3.49652,-22.52561 -11.69761,-22.58138 -10.778172,-0.0404 -22.511231,-5.74075 -32.788837,-15.84342 -10.532566,-10.35266 -19.530927,-34.90513 -9.747941,-26.58776 4.791467,4.0737 20.091538,9.58645 21.800046,7.83066 0.70062,-0.71933 -0.32736,-5.18332 -2.304049,-9.83385 -6.070134,-14.27752 -8.466675,-29.98145 -6.912205,-46.07325 1.271565,-13.16039 2.606756,-16.6158 9.747998,-25.49512 4.540375,-5.64554 11.765391,-13.01784 16.128518,-16.20761 4.3633,-3.18948 7.975635,-6.92075 7.975635,-8.37695 -5.8e-5,-1.45621 -3.869373,-6.6453 -8.507321,-11.65495 -10.657909,-11.51141 -12.540547,-22.83316 -6.735015,-39.15319 5.160684,-14.50679 7.290546,-16.86037 20.027798,-23.49193 8.104093,-4.21965 13.665813,-5.35779 25.167583,-5.28112 17.39679,0.11547 27.80009,3.33042 39.34655,12.56549 12.34442,9.87277 15.46467,10.42391 19.6733,3.82423 4.53841,-7.11636 15.04101,-12.66803 20.38218,-10.92644 8.14295,2.65549 7.84734,10.72402 -0.88618,28.77305 -7.54897,15.60151 -6.36511,22.52203 4.96265,29.31934 7.2096,4.32646 7.33893,4.24956 13.11536,-0.18187 8.34739,-6.40309 10.80692,-22.01176 4.78569,-30.41198 -5.54895,-7.7406 -5.55588,-12.21059 0,-14.02233 2.40699,-0.78503 4.43062,-2.27149 4.43062,-3.27793 0,-1.00679 3.33596,-4.61099 7.44384,-7.83066 l 7.44441,-5.82748 11.6972,15.84342 c 18.01635,24.31605 30.30073,28.34541 69.65438,22.58138 9.02752,-1.32219 29.19278,-3.05842 44.84083,-3.82428 28.89198,-1.41394 38.00206,-0.3135 77.62937,9.2875 7.82431,1.89592 27.59871,4.43264 43.77792,5.64538 26.96419,2.02062 30.72739,1.75625 46.25881,-2.54954 12.79649,-3.54791 19.09947,-6.66955 25.69921,-12.92963 13.76587,-13.05878 13.8363,-18.18615 0.53117,-33.14368 -10.23477,-11.50581 -11.16604,-13.47673 -11.16604,-23.491868 0,-14.417412 6.236,-22.077696 19.14161,-23.856179 12.76358,-1.759142 20.16181,1.960292 28.53518,14.568679 7.43055,11.189133 8.51021,17.634374 5.8486,33.507818 -0.86776,5.17754 -0.80425,12.89683 0,17.30026 1.31464,7.20042 2.28229,8.30952 10.98879,10.56224 6.17019,1.59656 10.32888,4.02988 11.16604,6.73802 1.87929,6.08376 11.85656,5.42372 31.37057,-2.00319 l 16.30623,-6.19167 4.43062,-12.74759 c 3.93236,-11.23705 4.17254,-14.24051 1.94972,-25.13086 -3.96931,-19.439184 -7.83181,-23.855889 -20.5596,-23.85612 -9.59448,0 -10.78787,0.652584 -12.05227,5.827414 -0.77135,3.158996 -0.81812,9.053383 -0.17898,13.111782 1.77421,11.230534 -1.24363,14.142474 -6.91209,6.738014 -6.26142,-8.178687 -7.78505,-15.207807 -4.60787,-21.306635 3.48433,-6.689174 0.0577,-8.616672 -12.40678,-7.284311 -11.40737,1.221452 -12.84614,-3.005362 -3.72162,-10.380144 6.02238,-4.867677 8.70304,-4.804746 25.87645,1.092644 4.79724,1.647597 9.41781,2.341923 10.2798,1.456839 0.86142,-0.885085 -1.26787,-7.509595 -4.78569,-14.568621 -5.2545,-10.544113 -6.0068,-15.012203 -1.77248,-14.932817 z m -399.31407,4.552673 c 4.46353,-0.05831 11.43797,2.917199 24.28123,9.651753 25.96248,13.613272 29.34232,14.247265 37.39699,7.284311 3.5923,-3.106169 12.95873,-7.720618 20.73685,-10.380145 11.64986,-3.983573 15.61917,-4.468782 22.50875,-2.54954 10.91951,3.041562 23.04049,11.633927 26.93994,19.121351 2.73089,5.241861 2.69105,6.340336 -0.35218,9.469598 -3.16275,3.250045 -3.81978,2.88966 -7.08934,-4.188477 -3.47048,-7.515079 -16.90033,-17.482126 -23.57224,-17.482357 -6.7614,0 -31.47911,9.750655 -36.15626,14.204426 -6.45482,6.146114 -6.26487,9.273471 1.77191,23.674024 6.32434,11.330179 7.113,11.963419 13.6475,10.744339 35.96689,-6.710939 42.73118,-6.528899 77.45271,0.72845 45.68088,9.54794 52.13975,8.98404 43.2456,-3.09583 -1.75458,-2.382055 -3.8423,-9.385886 -4.60845,-15.66127 -1.24131,-10.17524 -2.76033,-12.852838 -14.35592,-24.584569 -7.15112,-7.235525 -12.61001,-13.490123 -12.22953,-13.840231 0.38106,-0.349877 3.76782,-1.337211 7.62166,-2.185287 7.27525,-1.601063 7.22848,-1.528085 17.72363,12.201236 l 4.07613,5.281121 5.31686,-6.191667 c 2.88619,-3.424637 7.12051,-7.118899 9.39356,-8.376955 6.65286,-3.682021 26.46536,-4.868889 34.9161,-2.003189 9.34968,3.170658 18.96437,14.130986 18.96437,21.670834 0,7.428707 -4.79378,6.895058 -9.21632,-1.092644 -2.00168,-3.615222 -6.66613,-8.183887 -10.45704,-10.198046 -9.22036,-4.89897 -26.91166,-1.375606 -37.21975,7.466408 -6.5091,5.583019 -7.25388,7.299264 -6.91209,16.571811 0.45611,12.367514 3.34577,21.241168 9.21631,27.680408 5.14597,5.646 3.55593,11.64489 -3.54495,13.47603 -4.73431,1.22099 -54.72861,-4.98933 -58.48834,-7.28431 -2.42027,-1.47786 -16.8374,14.58017 -16.8374,18.7571 0,4.17647 -4.3469,2.85917 -7.44383,-2.18529 -1.78518,-2.90917 -1.11487,-5.01923 3.54496,-10.01595 3.27591,-3.51361 6.02585,-7.15285 6.02585,-8.01276 0,-3.4785 -34.89532,-1.20476 -51.57625,3.27793 -19.50708,5.24279 -30.20893,12.20517 -35.44726,23.49193 -3.67718,7.92437 -8.57661,10.06064 -10.63372,4.55273 -1.68588,-4.51514 4.44043,-15.51167 12.40619,-22.39928 l 6.73485,-6.00957 -6.2031,-2.36739 c -18.72766,-7.5914 -48.98393,-13.684572 -69.6538,-14.022325 -23.9862,-0.392023 -27.92393,0.926655 -46.9678,15.843365 -6.59397,5.16524 -10.01306,6.83328 -10.63424,4.91692 -1.52595,-4.70145 18.67725,-21.560094 32.08008,-26.769854 11.76013,-4.57109 13.82591,-4.824953 34.38378,-2.367385 12.03726,1.438653 31.44446,4.520745 43.06834,6.920115 11.62389,2.399314 22.06246,4.370804 23.39557,4.370574 1.33253,-6e-5 -0.43879,-5.889016 -4.0767,-13.293879 -7.30931,-14.877967 -14.18387,-19.78375 -41.65037,-29.1373 -19.27267,-6.56279 -21.17679,-7.889089 -17.54696,-12.383333 1.6622,-2.056826 3.34866,-3.242828 6.02643,-3.277931 z m -58.66547,6.920115 c 1.06845,0.04619 1.98448,0.582089 2.83579,1.456839 1.72329,1.770169 -0.44629,5.878105 -7.97563,14.932874 -10.15942,12.219019 -10.74636,14.208294 -6.73502,24.220375 2.30168,5.744621 -1.84921,4.796778 -9.92524,-2.185346 l -7.08951,-6.009511 -18.78707,4.188477 c -29.02188,6.439699 -35.27007,6.791423 -35.27007,2.367385 -1.2e-4,-4.776339 10.72909,-9.283285 26.93994,-11.29069 16.14624,-1.999321 15.15856,-5.075698 -3.19023,-11.654885 -17.24443,-6.183007 -25.80677,-6.461869 -51.39871,-0.910546 -23.66571,5.133491 -32.640342,3.990906 -27.64888,-3.460087 1.744016,-2.603292 24.445024,-6.792982 45.549819,-8.559052 21.564431,-1.80481 50.524881,7.019074 64.159751,19.667645 4.99625,4.634945 5.22997,4.762945 7.62114,0.728448 9.51526,-16.055194 16.28457,-23.703296 20.91392,-23.491926 z M 577.2194,144.95788 c -2.01093,0.22055 -5.58418,2.95011 -11.87503,8.9233 -7.88725,7.48968 -14.47428,11.68514 -19.67336,12.56544 -4.27762,0.72429 -10.68915,2.31882 -14.17868,3.46008 -3.49011,1.14137 -13.94542,2.00342 -23.39499,2.00319 -9.57773,0 -17.19246,0.9759 -17.19246,2.18529 0,4.1506 20.49493,13.72978 60.79255,28.2267 14.83051,5.33544 27.64028,10.1899 28.35793,10.92649 2.06578,2.12299 7.08934,1.62525 7.08934,-0.72845 0,-1.17538 -1.39027,-2.83533 -3.01321,-3.82422 -1.62295,-0.98901 -5.78567,-6.27723 -9.21631,-11.65495 -7.58875,-11.89801 -7.36416,-22.01869 0.35218,-33.68997 5.60207,-8.47054 6.47446,-13.10682 3.54496,-17.84655 -0.306,-0.49595 -0.92492,-0.61985 -1.59523,-0.54618 z m -444.15513,13.84023 c -2.47801,0.28464 -3.60662,2.33297 -4.43097,6.19167 -1.76723,8.26662 -5.55669,11.81833 -23.04072,21.12454 -20.535355,10.93036 -25.20269,19.92537 -25.167702,49.89753 0.03464,31.22865 5.655247,41.07682 13.292783,23.67402 2.171142,-4.94706 4.419996,-9.11216 5.139842,-9.1054 0.71973,0.006 1.546037,9.4077 1.772367,20.76034 0.22632,11.35224 1.05095,23.09003 1.77236,26.04141 1.9092,7.81681 5.409,5.21964 10.2798,-7.4664 9.52549,-24.80945 13.03517,-40.70611 13.11542,-57.91035 0.0462,-9.5849 1.0304,-17.30009 2.12686,-17.30026 1.09611,0 6.7961,4.45342 12.58385,10.01595 l 10.45693,10.19804 3.89922,-17.11816 c 3.0907,-13.48394 3.524,-19.27025 1.77237,-27.13405 -1.92773,-8.65766 -1.77289,-9.88385 1.24073,-9.2875 1.91064,0.37817 5.75669,4.18322 8.50732,8.37695 6.73346,10.26612 6.98761,36.91883 0.53174,51.53653 -2.38089,5.39168 -4.25371,9.9984 -4.25371,10.19804 1.7e-4,0.19977 4.35412,2.80006 9.74805,5.82748 14.12256,7.92702 15.82801,5.40981 12.22936,-18.39291 -7.64828,-50.59364 -14.40448,-63.83169 -38.99206,-75.93899 -6.19859,-3.05213 -10.1059,-4.47294 -12.58379,-4.18848 z m 354.65072,53.53971 c 0.6628,-0.0173 1.41972,0.17725 2.30422,0.18187 3.45027,0.0173 7.32432,0.73024 8.68457,1.63899 1.35967,0.90865 4.79089,10.72223 7.44384,21.85294 5.66904,23.78736 12.86923,45.68584 15.7739,47.53014 1.13162,0.71846 6.00103,-2.83908 10.81155,-7.8306 17.72247,-18.39238 33.93171,-20.82501 51.22117,-8.19486 7.71461,5.63579 11.64005,10.49585 14.3565,17.84655 2.05538,5.56484 3.13388,10.61946 2.48089,11.29069 -0.65241,0.67124 -6.53565,-4.31647 -12.93794,-11.10859 -9.83177,-10.42956 -12.71681,-12.38316 -19.31886,-12.38333 -21.31824,0 -34.92707,19.88207 -28.53518,41.70273 3.31344,11.31326 31.93753,45.22581 44.84083,53.17552 8.26194,5.09036 18.47477,13.13384 47.85404,37.3321 10.05752,8.28411 21.36328,17.33542 24.99022,20.03184 15.31029,11.37948 22.49836,30.40973 24.9908,66.83359 2.52592,36.93298 -6.1725,74.8075 -20.9141,91.96446 -9.18456,10.68926 -23.52836,11.73583 -30.8394,2.18529 -11.67815,-15.25406 3.06345,-31.51785 16.66015,-18.39279 5.76315,5.56252 8.58064,4.36613 10.2798,-4.18854 0.67897,-3.41626 3.30304,-13.8516 5.84918,-23.12761 3.64542,-13.28106 4.54147,-21.41986 3.89887,-38.2427 -1.18242,-30.94587 -9.03848,-44.24004 -33.32029,-56.63555 -7.98077,-4.07399 -12.36001,-5.20947 -15.95115,-3.82434 -3.70951,1.43045 -4.96294,1.02971 -4.96294,-1.4569 0,-2.38563 -2.4936,-3.28526 -9.21632,-3.27787 -7.34222,0.006 -10.86812,1.51307 -16.48289,6.92011 -3.91216,3.76718 -7.07144,7.51185 -7.08934,8.3769 0,0.86493 -1.03347,3.14121 -2.12698,4.91704 -3.15466,5.12218 -8.87567,-1.42225 -8.68457,-9.83391 0.40415,-17.78321 16.80333,-30.94257 37.57425,-30.22988 6.91209,0.23671 13.15387,-0.22229 13.82418,-0.91055 1.504,-1.54529 -6.7412,-8.02102 -25.34472,-20.214 -7.82373,-5.12794 -25.50349,-21.01051 -39.34672,-35.3289 -25.96941,-26.86316 -36.71802,-42.76767 -49.27145,-72.66107 -5.95368,-14.17683 -7.42593,-15.84458 -18.60987,-21.48874 -13.33285,-6.72803 -26.73037,-7.59452 -48.03129,-3.27793 -6.62052,1.3416 -12.58864,1.97675 -13.11576,1.45684 -0.5254,-0.51962 3.5207,-5.62447 8.86181,-11.29069 l 9.74806,-10.19805 19.31886,1.2748 c 13.1048,0.82776 20.67161,2.18419 23.21832,4.55268 6.30125,5.85986 6.50448,4.14292 1.94973,-11.65489 -6.67018,-23.13189 -7.47501,-25.19454 -2.83597,-25.31302 z m -112.54548,7.46641 c 8.58238,0.14261 15.5753,3.74143 21.97759,11.10859 5.1679,5.9482 5.79491,8.38983 4.78511,16.20762 -1.73726,13.4444 -5.62978,28.12416 -7.79833,29.5015 -2.50398,1.59003 -2.34579,7.83083 0.17898,7.8306 1.08947,0 4.55071,-4.39517 7.62108,-9.6517 6.55702,-11.22267 26.6634,-33.56174 33.85262,-37.51425 4.68177,-2.57471 5.04088,-2.35572 3.54438,2.54954 -2.28748,7.49961 -8.3295,14.59362 -19.67336,23.67402 -5.43349,4.34979 -9.74806,8.7628 -9.74806,9.83385 0,1.07152 3.32326,2.00331 7.44441,2.00314 4.86653,0 9.80406,2.04539 14.17868,5.82747 5.66616,4.89851 6.73484,7.40301 6.73484,15.84342 0,5.51697 -1.43011,12.89389 -3.18988,16.38971 -3.51667,6.98865 -16.78717,13.65831 -27.29445,13.65808 -6.96232,0 -21.97758,-6.4796 -21.97758,-9.4696 0,-1.00789 -2.07155,-1.82086 -4.60787,-1.82109 -3.50569,-6e-5 -4.33362,1.0151 -3.19046,4.00638 0.82677,2.16433 2.64429,9.89897 3.89888,17.1181 2.62119,15.08368 0.0635,22.33693 -9.21631,27.13411 -7.97154,4.12064 -22.25414,5.53389 -27.82619,2.73158 -5.55357,-2.7933 -9.39356,-10.40012 -9.39356,-18.575 5.8e-4,-7.07964 6.23716,-30.23347 9.21689,-34.05417 3.37522,-4.32796 0.10392,-3.36892 -10.6343,3.09584 -16.32412,9.82963 -34.33124,4.50232 -42.89167,-12.74753 -5.50162,-11.08527 -4.81976,-20.68974 1.94972,-28.95515 14.67694,-17.92195 31.39886,-15.83308 51.93017,6.37377 4.8313,5.2254 7.67939,6.52214 12.05228,5.64531 3.27129,-0.65541 7.59914,0.28002 10.10255,2.18529 3.90984,2.97592 4.00453,4.00338 1.59523,10.5623 -3.20894,8.73584 -2.47454,9.96289 3.72163,6.55586 3.71181,-2.04106 4.54724,-4.47912 4.25395,-12.01914 -0.39838,-10.24625 4.4566,-30.04299 9.9253,-40.79212 3.64022,-7.15441 4.8238,-16.97591 1.59523,-13.29388 -1.03058,1.17491 -4.24298,7.89445 -7.08934,15.11491 -6.07088,15.4007 -7.59972,14.21262 -3.36771,-2.54948 4.51088,-17.86844 0.1097,-16.29445 -5.14018,1.82109 -4.86248,16.77533 -7.71058,20.94308 -5.31686,7.8306 2.22224,-12.17456 -2.63909,-9.41307 -5.13961,2.91374 -2.1316,10.50537 -2.22686,10.28494 -2.48147,-7.83061 -0.14434,-10.13049 -1.10044,-19.0852 -2.30423,-19.84979 -2.2309,-1.4166 -2.96356,7.32206 -2.30422,29.86569 0.40415,13.84103 -3.07788,15.61409 -7.79833,4.00638 -8.78791,-21.60993 2.64313,-48.80685 21.62309,-51.71863 2.15353,-0.33024 4.22277,-0.5792 6.2031,-0.54617 z m -60.96923,4.91693 c 3.28631,-1.10587 18.99613,19.31141 22.15426,29.1373 1.95608,6.08422 3.20605,11.45697 2.83596,11.83698 -0.3695,0.38048 -5.19041,-4.16983 -10.63429,-10.01595 -8.8087,-9.46047 -17.60124,-27.80575 -14.71042,-30.77623 0.0808,-0.0814 0.24826,-0.14665 0.35219,-0.18187 z m 79.40186,29.1373 c -1.83368,-0.45554 -9.9253,15.80433 -9.9253,20.39603 0,1.90441 0.42146,3.27816 1.06348,3.27799 1.92202,-6e-5 10.10198,-20.64314 9.21632,-23.30983 -0.0635,-0.18591 -0.23095,-0.33371 -0.35219,-0.36431 z m 101.91118,3.46003 c -1.09062,0 -1.51556,2.0794 -0.88624,4.55267 0.62932,2.47356 1.48842,4.55296 1.94973,4.55273 0.46188,0 0.88624,-2.07888 0.88624,-4.55273 0,-2.4735 -0.85853,-4.55244 -1.94973,-4.55267 z m -180.4268,13.65807 c -1.59696,0.2015 -1.29269,0.85628 0.709,2.18529 4.31168,2.86299 9.34275,2.86322 7.62108,0 -0.74421,-1.23675 -3.56632,-2.20423 -6.20368,-2.18529 -0.974,0.006 -1.59408,-0.067 -2.1264,0 z m 58.48776,4.73483 c 0.15012,-0.0577 0.17321,0.17725 0.35219,0.36431 0.72747,0.74727 0.81003,2.56513 0.17898,4.18848 -0.69802,1.79349 -1.13623,1.34494 -1.24074,-1.27474 -0.0693,-1.77785 0.25981,-3.1086 0.709,-3.27799 z m -60.61473,4.37057 c -1.08831,0 -1.33196,0.67355 -0.53117,2.00319 0.74364,1.23676 3.56575,2.2723 6.2031,2.18529 4.62288,-0.15242 4.57438,-0.32159 0.35219,-2.18529 -3.01206,-1.32987 -4.93754,-2.00295 -6.02585,-2.00319 z m 105.10106,2.18529 c -3.83594,0 -8.11587,0.74877 -10.27922,2.18529 -2.37408,1.57652 -0.42724,2.16034 7.08934,2.18529 5.71754,0.0173 10.2798,-0.94831 10.2798,-2.18529 0,-1.43652 -3.25339,-2.18529 -7.08992,-2.18529 z m -87.55468,2.18529 c -4.69851,0.15069 -4.70775,0.34179 -0.53116,2.18529 2.40814,1.06302 4.66156,1.91635 4.96236,2.00319 0.30023,0.0872 0.53117,-0.76615 0.53117,-2.00319 5.8e-4,-1.2367 -2.25457,-2.27236 -4.96237,-2.18529 z m -16.66014,7.10221 c -1.45147,-0.0115 -2.64255,0.0889 -3.54496,0.18187 -5.15693,0.53116 -3.96065,1.17503 5.49469,2.91373 6.62052,1.21741 15.4604,1.65782 19.67278,1.09265 6.78622,-0.91026 6.13843,-1.26458 -5.49411,-2.91374 -5.41674,-0.76817 -11.77342,-1.23357 -16.1284,-1.27474 z m 80.28809,2.91374 c -1.21706,0.0624 -1.96358,0.16223 -2.30422,0.36431 -0.92203,0.5456 -1.07503,2.07969 -0.35219,3.27793 1.51094,2.51178 38.10599,2.33909 38.10599,-0.18187 0,-1.36896 -19.82751,-3.29005 -30.8394,-3.46003 -1.83483,-0.0289 -3.3908,-0.0618 -4.60787,0 z m -43.42284,1.09264 c -1.20379,0 -2.12698,1.05754 -2.12698,2.36739 0,1.30961 0.92319,1.85717 2.12698,1.0927 1.20321,-0.76436 2.30364,-1.82242 2.30364,-2.36744 0,-0.54561 -1.09986,-1.09242 -2.30364,-1.09265 z m -23.75006,4.91693 c -4.98373,0 -11.88196,0.57216 -16.66015,1.82109 -5.41616,1.41625 -4.43581,1.73201 5.49469,1.82103 6.62052,0.0589 13.89808,-0.75789 16.30565,-1.82103 2.82961,-1.24911 -0.15589,-1.82109 -5.14019,-1.82109 z m 57.07035,0 c -0.40992,0.27655 -0.34641,0.91672 0,2.00319 0.60276,1.88235 5.29896,3.76071 11.69778,4.55267 17.25252,2.13517 18.60988,2.21831 18.60988,0.18187 0,-1.06361 -5.20081,-2.58852 -11.52054,-3.27794 -6.31914,-0.6897 -13.50375,-1.99631 -15.7739,-2.91373 -1.13277,-0.45784 -1.93126,-0.56061 -2.48148,-0.54618 -0.23094,0.006 -0.3926,-0.0924 -0.53116,0 z m -53.34815,8.9233 c -1.70608,-6e-5 -4.24355,0.66858 -7.26658,2.00319 -3.66794,1.61948 -3.12465,1.87069 2.83539,2.00319 3.91215,0.0872 7.08991,-0.76621 7.08991,-2.00319 -5.8e-4,-1.3349 -0.95263,-2.00296 -2.65872,-2.00319 z m 32.43406,0.72839 c -1.05714,-0.0681 -1.40067,0.88676 -1.41741,2.91374 0,3.38895 -0.38683,3.37804 -2.12697,0.54618 -1.34697,-2.18962 -2.74186,-2.54816 -4.07671,-1.09265 -2.76322,3.01241 -8.23885,32.61985 -7.08933,38.2427 0.56003,2.74533 2.19106,-1.27554 4.43062,-10.1981 5.42944,-21.62776 6.82029,-23.10013 5.67193,-6.19167 -0.60911,8.95812 -0.17898,15.2973 1.06349,15.29707 1.15875,0 2.21935,-3.44669 2.30422,-7.4664 0.0866,-4.01949 0.85275,-9.23941 1.7719,-11.65489 1.41105,-3.70546 1.98264,-3.09127 3.36771,3.46003 2.24187,10.60121 4.96525,3.57082 3.89945,-10.19805 -0.55426,-7.1499 -2.22685,-10.96344 -5.14019,-12.56543 -1.25805,-0.69196 -2.0242,-1.05194 -2.65871,-1.09264 z m 36.86525,2.91374 c -2.44395,0.0935 -4.27127,0.3493 -4.60787,0.91054 -0.49075,0.82198 0.43879,2.1051 1.94972,2.73164 4.83708,2.004 23.57224,1.56989 23.57224,-0.54618 0,-1.76739 -13.58227,-3.37694 -20.91409,-3.09583 z m -68.59032,14.02233 c 2.41161,0 2.4324,-0.30831 -1.59523,11.83698 -2.48666,7.49782 -6.53623,13.197 -14.71042,20.21399 -22.93426,19.6856 -23.11843,19.55224 -9.21631,-2.18528 9.91665,-15.50636 22.14271,-29.86546 25.52196,-29.86569 z m 56.36137,0.18186 c 6.34397,-0.82463 31.03108,19.84039 38.1054,32.59727 2.92315,5.27137 -2.03633,3.72348 -12.0517,-4.00632 -5.20774,-4.01954 -13.03147,-9.83754 -17.54638,-12.92968 -7.90283,-5.41074 -12.33114,-12.46087 -9.57081,-15.29707 0.24826,-0.25577 0.64029,-0.30946 1.06349,-0.36431 z M 82.020051,349.64691 c 0.193991,0.0231 0.393179,0.0404 0.531744,0.18186 0.768748,0.78238 -0.07159,8.24902 -1.949611,16.57187 -7.796367,34.54256 -3.734677,62.5759 11.874857,80.30958 7.491061,8.50991 8.605469,9.11567 8.684569,4.73482 0.11893,-6.63115 7.75208,-21.12373 14.35621,-27.4983 4.57046,-4.41209 6.54507,-4.98217 15.2424,-3.64219 8.19653,1.26285 10.91056,2.93487 14.35621,8.74121 5.06802,8.54052 5.65559,23.59423 1.06337,29.68359 -3.20807,4.2532 -3.45558,4.25776 -8.50738,-2.00319 -4.43599,-5.49757 -6.2621,-6.26366 -12.22935,-4.91692 -18.09614,4.08397 -12.28894,36.83274 7.08945,40.06379 4.07156,0.67886 13.25231,-0.0982 20.3823,-1.82115 7.12986,-1.7234 17.67802,-3.25859 23.39522,-3.27787 10.3418,-0.0346 10.27974,-0.0346 10.27974,7.46635 l 0,7.64856 -14.88784,2.54949 c -40.44075,6.86215 -61.70594,30.38225 -61.67846,68.29049 l 0,15.11485 8.50733,2.18535 c 10.72765,2.96801 23.49515,17.12607 25.52213,28.22664 2.0301,11.11996 0.11374,23.97292 -4.7854,31.68678 l -4.07647,6.37382 -1.24062,-16.75391 c -1.32226,-18.58198 -5.45283,-27.30154 -15.41964,-32.59738 -3.37297,-1.79188 -7.08334,-3.2777 -8.15289,-3.27788 -1.06995,0 -3.09895,8.51708 -4.60815,18.93926 -3.19191,22.04346 -7.857859,37.85397 -9.747945,32.77937 -0.691266,-1.8551 -3.56961,-13.96569 -6.380577,-26.95196 -5.939132,-27.43814 -8.489365,-29.6807 -19.850492,-16.93606 -7.50157,8.41506 -10.058327,16.74311 -10.102495,34.23626 -0.02887,11.16402 -2.915294,12.44581 -7.621139,3.09584 -5.061091,-10.05562 -4.231432,-31.74775 1.595058,-44.07012 4.094195,-8.6587 6.832877,-11.20836 18.255435,-16.75385 13.199944,-6.40829 13.526669,-6.9226 16.128575,-18.57494 5.109474,-22.88813 10.124954,-35.71303 17.3692,-44.98067 5.69947,-7.2902 0.60016,-6.91145 -13.647283,1.27469 -13.58325,7.80549 -14.645525,8.17615 -27.471747,6.37382 -14.627223,-2.05521 -21.912457,-7.3477 -26.58545,-18.93914 -2.335169,-5.79225 -2.351508,-7.6895 1.063372,-14.20448 2.19695,-4.19102 5.790347,-7.64833 7.798502,-7.64857 4.978125,0 13.115477,9.24403 13.115477,14.93294 0,6.79927 4.819064,9.832 13.292726,8.37695 16.347219,-2.80773 34.915693,-8.82371 34.915693,-11.47284 -1.1e-4,-3.58948 -13.526724,-12.71087 -26.231125,-17.6644 -5.416568,-2.11231 -11.8039,-5.71472 -14.001659,-7.83072 -3.708984,-3.57215 -3.701016,-4.02786 -0.354495,-7.46641 4.94816,-5.08424 10.437186,-4.64863 22.863533,1.82115 5.832033,3.03654 11.009576,5.07789 11.520366,4.55262 1.69367,-1.74027 -0.85027,-16.75374 -2.835797,-16.75391 -1.072263,0 -1.949554,0.94882 -1.949554,2.18528 0,3.08562 -12.401347,2.83932 -18.255377,-0.36431 -6.576589,-3.59911 -9.622019,-7.66363 -16.128575,-22.03508 -5.083493,-11.22701 -5.467549,-14.20991 -4.430851,-32.59739 0.845189,-14.98876 2.67881,-23.63944 6.734958,-32.77943 5.614889,-12.65059 14.287795,-24.94408 17.191947,-24.58457 z M 691.7146,384.24743 c 1.50228,0.0289 3.47625,1.02232 5.67136,3.27793 4.33304,4.45146 4.71814,7.37305 4.96236,36.23951 0.20785,24.75853 1.35909,35.56199 5.31744,51.17233 5.13787,20.25943 4.88095,32.03475 -0.709,39.33529 -3.08134,4.02445 -10.12333,6.38283 -14.17867,4.73477 -3.84057,-1.56019 -3.43526,-11.91181 0.53116,-13.47592 4.7753,-1.88287 4.02243,-10.06485 -1.94972,-21.3067 -3.07326,-5.78521 -7.5466,-21.96696 -10.81155,-39.15313 -5.78336,-30.44016 -10.85542,-46.07313 -14.88766,-46.07331 -1.57965,0 -1.89142,3.78231 -0.88624,11.29069 1.71359,12.80417 -0.48498,14.3684 -7.44384,5.28112 -5.77527,-7.54325 -6.0501,-21.09278 -0.53116,-26.22356 6.71579,-6.24432 17.29177,-4.80174 24.63572,3.46009 l 6.38035,7.28431 0,-7.10222 c 0,-5.81199 1.39546,-8.78947 3.89945,-8.7412 z m -504.23876,13.65813 c 1.18866,-0.0808 1.3431,0.87469 1.41793,2.73158 0.0878,2.18956 0.58394,16.35444 1.06349,31.50468 0.86326,27.2859 0.91649,27.72019 -3.89928,27.49831 -15.23743,-0.70224 -23.35134,-8.93872 -25.16759,-25.49512 -0.9472,-8.63445 -0.004,-11.86804 4.78541,-19.30344 3.1669,-4.91814 9.54309,-10.95254 14.35609,-13.47598 4.08254,-2.13962 6.25547,-3.37914 7.44395,-3.46003 z m 159.51299,63.00937 c 3.83595,-0.27598 6.94673,0.3262 10.10256,2.00319 10.70126,5.68579 12.75318,20.97801 3.54495,26.04141 -6.33704,3.48474 -12.05228,0.21708 -12.05228,-6.92012 0,-5.59312 -8.93225,-5.73659 -13.82475,-0.18186 -9.09854,10.33037 -1.32907,25.35239 17.36971,33.32577 11.93854,5.091 14.08572,5.32004 29.24359,3.09584 8.9542,-1.31372 16.74098,-2.99659 17.36972,-3.64213 0.62874,-0.64606 -1.44916,-3.28174 -4.60845,-6.00963 -3.15928,-2.72806 -6.3278,-7.31375 -7.08933,-10.01583 -1.35794,-4.81427 4.14598,-29.12154 7.44383,-32.77948 0.91972,-1.02013 3.85326,2.48199 6.38035,7.8306 2.52708,5.3485 7.61299,13.57315 11.34328,18.21086 6.52873,8.11767 7.26024,8.37713 20.5596,8.3769 7.59799,0 18.89393,-1.7424 25.16747,-3.82422 12.0517,-3.99928 17.96266,-2.70422 19.31886,4.37057 0.49075,2.55872 -2.85328,4.72778 -12.05228,7.64851 -24.48734,7.77535 -33.89245,17.60914 -40.05513,41.33847 -4.65983,17.94217 -4.28166,17.23473 -8.86182,11.10865 -2.88504,-3.85759 -4.22046,-9.17739 -4.25395,-17.30025 l 0,-11.83699 -8.15282,0 c -15.25429,0.1455 -41.70983,6.19479 -53.34815,12.20118 -23.39268,12.07226 -34.58758,23.25856 -40.23296,39.69943 -9.36585,27.27487 4.76318,61.82423 24.63572,60.09569 6.81048,-0.59277 8.19844,-1.64286 9.74806,-7.83072 2.02767,-8.09555 8.02292,-11.3262 14.711,-7.64851 5.303,2.91645 6.02412,11.83901 1.24073,16.75397 -1.84465,1.89488 -7.04603,4.14206 -11.52053,4.91687 -4.47566,0.77487 -9.71515,1.61197 -11.52054,2.00325 -8.02869,1.74089 -26.35566,-7.45873 -32.2568,-16.20762 -10.3462,-15.3376 -12.11233,-49.77207 -3.19046,-63.00931 2.2511,-3.34046 4.75567,-7.9078 5.4941,-10.01595 0.73959,-2.10838 4.59228,-6.0844 8.68515,-8.92319 28.70145,-19.91117 32.30877,-22.81769 29.59809,-24.58469 -1.55136,-1.01118 -4.54436,-1.80209 -6.5576,-1.82103 -5.92885,-0.0577 -20.80671,-19.88479 -22.33208,-29.68365 -1.79499,-11.5341 6.71175,-29.50202 15.59724,-32.96147 5.99929,-2.33592 10.52056,-3.54807 14.35592,-3.82422 z m 254.33455,24.58457 c 4.5969,-0.22459 8.96227,1.29743 13.11576,4.55261 5.0074,3.9244 10.24978,5.64561 16.12841,5.64538 4.74181,0 13.12211,2.16006 18.78712,4.73477 9.51711,4.32542 10.07945,4.95018 6.38092,7.83066 -2.20203,1.71457 -7.63667,3.0564 -12.05228,3.09583 -4.41561,0.0404 -9.61642,0.70611 -11.52053,1.4569 -5.19966,2.05013 -4.09172,7.47362 1.94972,9.83379 5.32264,2.07911 11.80286,11.29098 7.97558,11.29075 -1.1091,0 -4.70486,-1.43022 -8.15282,-3.27799 -3.44797,-1.84724 -8.53908,-3.45206 -11.16604,-3.46003 -5.8411,-0.0173 -12.61924,9.48692 -14.53318,20.214 -3.98894,22.35044 -3.98721,26.48816 0.53117,41.52052 6.47215,21.52926 6.39882,21.48885 -6.20367,21.48868 -12.25263,0 -29.46068,6.79517 -31.54782,12.38333 -0.77134,2.06531 -0.0808,5.86615 1.41798,8.55911 1.78403,3.20253 2.69452,14.56983 2.65815,32.77943 -0.0577,25.95157 0.16165,27.302 3.01321,20.21393 2.30942,-5.7355 2.71876,-13.97937 1.77248,-33.87207 -1.03866,-21.81517 -0.62412,-27.03931 2.12697,-29.86563 5.56455,-5.71801 13.33343,-6.41227 31.19332,-2.73164 19.14797,3.9457 35.38838,11.26656 49.27203,22.21713 10.44145,8.23602 15.75196,15.5824 23.92673,33.32583 7.38205,16.02281 13.38827,65.19449 7.97557,65.19455 -3.70373,-6e-5 -8.77001,-12.89788 -9.03906,-22.94558 -0.14434,-5.31761 -0.92665,-12.6794 -1.77248,-16.38966 l -1.59465,-6.73801 -2.83597,10.01595 c -3.92081,13.79548 -7.35665,22.58132 -9.03906,22.58138 -0.77135,0 -2.04499,-5.33349 -2.83597,-11.83705 -1.78056,-14.64598 -4.6148,-20.09708 -7.79833,-15.11497 -1.18531,1.85545 -2.28575,4.48853 -2.30422,6.00957 -0.0866,7.31722 -7.34511,20.94239 -11.16546,20.94245 -6.67365,0 -8.83699,-7.80399 -8.15283,-29.13725 0.70033,-21.85276 -1.2084,-29.11784 -3.19046,-12.01919 -1.24882,10.77378 -11.14064,32.05092 -14.88824,32.05098 -3.45663,0 -5.33014,-1.05241 -4.78512,-2.73159 0.28868,-0.89068 -1.50343,-2.68908 -3.89945,-4.00637 -4.61422,-2.53754 -5.66212,-10.90698 -2.30365,-17.48236 3.38041,-6.61856 5.27702,-22.94558 2.65814,-22.94558 -1.30944,0 -2.46299,2.31623 -2.48089,5.09897 -0.0577,8.77862 -5.76258,22.31862 -11.16604,26.58776 -6.96521,5.50329 -8.50732,5.38637 -8.50732,-1.27469 -5.8e-4,-5.78359 -2.90583,-7.5817 -5.49469,-3.27793 -0.80425,1.3371 -3.89483,1.82473 -6.73484,1.09265 -4.16734,-1.07486 -5.7568,-0.002 -8.50732,5.46322 -2.6235,5.21206 -2.68066,6.85574 -0.53116,7.10227 1.53518,0.17609 6.02123,0.56869 10.10255,0.91054 7.69267,0.64352 17.6988,8.58631 14.71042,11.65483 -0.93647,0.96199 -13.25203,1.82103 -27.29445,1.82109 -24.55258,0 -25.89782,0.25635 -38.99164,7.28437 -10.6164,5.6982 -16.16074,7.24517 -25.16805,7.10216 -16.00889,-0.25404 -25.1155,-4.75966 -26.93994,-13.29383 -1.33542,-6.24998 -5.49411,-9.67559 -5.49411,-4.55273 0,2.65809 -11.4986,8.92319 -16.30623,8.92325 -2.86425,0 -2.65467,-0.96031 1.24074,-6.37376 7.30007,-10.14522 3.51955,-12.46105 -9.57081,-5.64532 -7.8884,4.10713 -10.4276,4.78182 -8.33007,2.18534 5.26893,-6.52387 0.60102,-6.72993 -10.45647,-0.54617 -15.01123,8.39479 -20.19702,8.0041 -11.52054,-0.91049 7.15458,-7.35163 8.5945,-11.10871 4.07612,-11.10859 -1.51959,0 -3.77416,2.33799 -4.96236,5.09896 -1.39142,3.23261 -7.39995,7.19875 -17.01464,11.29081 -18.24787,7.76605 -22.18659,7.101 -10.6343,-1.82115 4.77588,-3.68803 9.91665,-8.58267 11.34329,-10.9265 2.2615,-3.71678 2.11139,-4.02462 -1.41798,-2.54954 -5.75969,2.40705 -36.20822,10.16653 -40.05571,10.19811 -1.97052,0.0173 -1.18127,-1.6487 2.12697,-4.00638 2.97569,-2.12126 7.1465,-5.52402 9.39356,-7.64857 3.93929,-3.7252 3.92139,-3.87612 -3.36771,-5.28112 -4.15695,-0.80137 -13.36287,-0.4232 -20.38177,0.91061 -7.02064,1.33334 -13.13886,1.97876 -13.64751,1.45689 -1.5502,-1.59315 2.36311,-7.39245 12.22952,-18.0287 11.44722,-12.34148 20.75302,-15.36942 46.25881,-14.93294 24.71078,0.42263 48.30958,-7.5914 76.74314,-26.2235 19.92509,-13.05653 37.12333,-19.77151 61.6788,-24.03822 4.47161,-0.77741 8.73595,-2.43777 9.57023,-3.82428 1.09871,-1.82722 -3.23434,-2.15117 -15.77391,-1.09265 -10.1776,0.85905 -15.95231,0.61425 -14.17867,-0.54617 1.65874,-1.08537 2.24475,-2.99526 1.41798,-4.37058 -0.84409,-1.40291 -0.0577,-2.54931 1.7719,-2.54948 1.77652,0 3.49819,0.86828 3.89946,2.00319 0.84871,2.4007 12.76127,0.53347 12.76127,-2.00319 0,-2.69954 -11.91718,-4.5372 -20.5596,-3.09589 -8.13493,1.35614 -10.86004,5.1746 -4.0767,5.64537 2.40525,0.16686 1.84176,0.71748 -1.59524,1.63894 -3.00917,0.80673 -11.27631,4.53292 -18.25537,8.19491 -10.55231,5.53758 -12.92409,5.95334 -14.53317,3.27793 -2.1928,-3.64553 -14.81781,-4.33789 -26.05371,-1.45689 l -7.44383,2.00324 6.02585,-8.19485 6.02585,-8.01276 -6.38035,0 c -3.56112,0 -14.15962,1.89724 -23.57224,4.37063 -24.81585,6.52111 -31.70947,6.00772 -16.48347,-1.27486 9.54021,-4.56323 11.29537,-6.04478 8.50732,-7.6485 -4.41792,-2.54071 -24.24832,-3.29762 -35.80176,-1.27474 -8.16207,1.42901 -8.54023,1.24974 -4.60787,-2.00319 6.76198,-5.59428 2.21646,-6.7132 -14.17925,-3.82429 -34.71923,6.11713 -31.18582,1.74032 7.7989,-9.65175 15.64805,-4.57236 37.71165,-9.74938 48.91695,-11.47273 11.2053,-1.72346 21.15832,-3.73774 22.15483,-4.37052 0.99594,-0.6326 11.98416,-2.17275 24.45848,-3.46008 12.47432,-1.28716 26.29966,-2.92217 30.8394,-3.64224 4.81629,-0.76361 15.24332,0.37297 24.99022,2.73163 13.53839,3.27563 18.34891,5.73643 25.52196,12.74759 4.8671,4.75711 10.05117,8.15802 11.34329,7.64851 1.2927,-0.50981 4.95948,-13.94855 8.33007,-29.86564 7.31393,-34.54087 14.55858,-52.10383 25.52196,-62.28098 6.48023,-6.01493 12.6995,-9.18138 18.60988,-9.46954 z m -0.17898,21.48868 c -6.27873,0 -8.28908,1.35713 -12.93794,8.92336 -3.02419,4.92258 -5.49469,10.10821 -5.49469,11.47273 0,4.12895 5.36363,0.80235 6.20368,-3.82422 1.3129,-7.2346 4.73027,-9.6995 11.16604,-8.37702 4.86998,1.00091 6.3024,0.32679 7.26658,-3.46002 1.04386,-4.10315 0.25981,-4.7346 -6.20367,-4.73483 z m -127.61039,79.39897 c -5.25855,0.47227 -22.15426,6.98154 -22.15426,8.92336 0,2.35768 1.127,2.0518 9.39356,-1.639 3.95315,-1.76497 8.88722,-3.81521 11.16604,-4.55273 2.27882,-0.7378 3.67544,-1.86855 3.01264,-2.54954 -0.1963,-0.20438 -0.66685,-0.24999 -1.41798,-0.18186 z m -80.2881,1.82109 c -2.14487,0.42724 -4.24586,2.16023 -4.78511,3.82428 -0.62759,1.93518 0.34064,2.86437 2.83538,2.36739 2.14603,-0.42725 4.4237,-2.16029 4.96295,-3.82429 0.46765,-1.45135 -0.0982,-2.25832 -1.41799,-2.36738 -0.43879,-0.0346 -0.97111,-0.12413 -1.59523,0 z m 28.35793,9.46965 c -0.25981,0.052 -0.40992,0.17321 -0.70899,0.36431 -1.20321,0.76425 -2.30422,2.40538 -2.30422,3.64213 5.7e-4,1.23675 1.10043,1.67508 2.30422,0.9106 1.20378,-0.76435 2.12697,-2.40549 2.12697,-3.64218 0,-0.9274 -0.63335,-1.43057 -1.41798,-1.27474 z m 126.72415,29.1373 c -2.69567,0.80501 -8.54658,21.6235 -13.11519,47.71219 -0.6501,3.71031 -2.16796,7.92367 -3.36771,9.4696 -1.4659,1.88922 -1.3741,2.91373 0.17898,2.91373 1.26961,6e-5 2.75399,-1.84199 3.36771,-4.00638 10.85831,-38.28415 14.69945,-53.0269 14.00143,-55.17871 -0.24249,-0.74779 -0.67781,-1.02532 -1.06349,-0.91043 z m -25.34471,6.73796 c -3.17372,1.08693 -9.95764,19.54721 -10.10255,27.3161 -0.0693,3.60719 0.25403,5.92839 0.88624,5.28117 2.60098,-2.67205 11.26188,-33.29754 9.21631,-32.59727 z m 35.80176,1.63888 c -2.30076,0 -3.67371,3.72048 -5.8486,16.75403 -1.76902,10.5978 0.92434,9.18138 4.96236,-2.73164 3.38734,-9.99297 3.65408,-14.02216 0.88624,-14.02239 z m 8.68457,20.76035 c -1.3741,0.0924 -3.79899,6.70268 -8.68457,22.03503 -4.50798,14.14854 -9.04195,27.51926 -9.9253,29.68365 -1.14317,2.79976 -0.55426,4.00626 1.94972,4.00632 1.93414,-6e-5 3.54496,-1.66879 3.54496,-3.64218 -5.8e-4,-1.97352 1.31695,-6.18671 3.01264,-9.4696 5.57436,-10.79446 12.46278,-36.92963 10.98879,-41.70268 -0.1963,-0.64184 -0.57158,-0.9319 -0.88624,-0.91054 z m 24.99022,2.91379 c -0.63105,0.11547 -1.19801,1.56712 -1.7719,4.55262 -1.24362,6.46631 -2.04788,18.19285 -1.59523,22.21718 0.49652,4.41526 2.51553,-0.75651 4.43062,-11.29075 1.1039,-6.06955 1.13969,-12.43777 0.17898,-14.20436 -0.47921,-0.87678 -0.86142,-1.34443 -1.24074,-1.27469 z m -67.17233,3.27788 c -0.40992,-0.0173 -1.25055,1.12428 -2.83597,3.27798 -1.76728,2.40065 -3.19046,6.61372 -3.19046,9.4696 0,2.8556 0.88624,5.28107 1.94973,5.28107 2.17316,0 4.66791,-7.75555 4.60844,-14.56857 0,-2.21866 -0.12124,-3.44323 -0.53116,-3.46008 z m -26.7627,12.01913 c -1.86601,0.47632 -9.9253,11.36985 -9.9253,13.65808 0,0.73676 0.95379,1.2748 2.1264,1.2748 2.42431,0 9.70937,-13.33383 8.1534,-14.93288 -0.0635,-0.0664 -0.23094,-0.0289 -0.35219,0 z m 125.12892,1.09265 c -0.43301,0.17725 -1.19685,2.15174 -2.48147,6.3737 -1.57444,5.17478 -3.59287,12.36065 -4.43062,15.84342 -0.95263,3.96066 -0.74767,5.41322 0.53117,4.00638 3.10155,-3.41164 7.07721,-16.727 6.91209,-23.30982 -0.0577,-2.04078 -0.1963,-3.05167 -0.53117,-2.91368 z m 26.23096,5.46322 c -0.51385,0.15646 -1.27711,3.08861 -2.30422,8.9233 -0.93936,5.33857 -0.7396,8.55905 0.70899,8.55905 1.25805,0 2.30422,-4.3163 2.30422,-9.46954 0,-5.52349 -0.19053,-8.16905 -0.70899,-8.01281 z m -195.84679,1.0927 c -1.17953,0.12644 -3.00513,0.86378 -5.31686,2.73158 -3.2811,2.65219 -6.02585,5.77308 -6.02585,6.92011 0,3.18654 2.86599,2.46236 8.50732,-2.36738 4.99355,-4.27566 5.43176,-7.563 2.83539,-7.28431 z m -36.86525,0.72845 c -1.02711,0.0289 -2.65583,0.7218 -5.31686,2.18517 -2.36195,1.29864 -3.72162,3.37469 -3.01321,4.55284 1.5323,2.54591 9.74806,-1.4532 9.74806,-4.73488 5.7e-4,-1.38779 -0.3926,-2.03241 -1.41799,-2.00313 z m 15.95174,0.72833 c -2.31173,0.006 -12.22953,8.99126 -12.22953,11.29075 0,3.02701 3.76551,1.00973 8.68457,-4.37064 2.82211,-3.08659 4.57207,-6.04628 3.89945,-6.73796 -0.0808,-0.0826 -0.20207,-0.18244 -0.35219,-0.18244 z m 170.67874,44.07017 c 4.97853,-0.0964 9.4715,1.90094 13.29301,5.82742 7.32201,7.52316 5.17887,9.08669 -5.84918,4.55273 -4.88846,-2.01006 -9.30927,-3.64219 -9.9253,-3.64213 -0.61604,0 -1.96994,1.9682 -2.83539,4.37052 -1.54154,4.28033 -1.58426,4.31157 -6.91267,0.18186 -2.99012,-2.31744 -5.01433,-4.52305 -4.43062,-4.91686 6.10841,-4.11943 11.68162,-6.27712 16.66015,-6.37377 z m -30.48491,2.18523 c 3.60443,0 3.69796,2.73135 0.17898,7.46647 -1.50458,2.02409 -5.7822,4.38997 -9.39298,5.28118 -6.19964,1.53004 -6.36591,1.33611 -3.36771,-2.73164 4.58593,-6.22192 9.2983,-10.01606 12.58344,-10.01601 z"
     id="path9023" />
</svg>
