<?xml version="1.0" encoding="UTF-8" standalone="no"?>
<!-- Created with Inkscape (http://www.inkscape.org/) -->

<svg
   xmlns:dc="http://purl.org/dc/elements/1.1/"
   xmlns:cc="http://creativecommons.org/ns#"
   xmlns:rdf="http://www.w3.org/1999/02/22-rdf-syntax-ns#"
   xmlns:svg="http://www.w3.org/2000/svg"
   xmlns="http://www.w3.org/2000/svg"
   xmlns:sodipodi="http://sodipodi.sourceforge.net/DTD/sodipodi-0.dtd"
   xmlns:inkscape="http://www.inkscape.org/namespaces/inkscape"
   width="1000"
   height="1000"
   id="svg2"
   version="1.1"
   inkscape:version="0.47 r22583"
   sodipodi:docname="N.svg">
  <defs
     id="defs4">
    <inkscape:perspective
       sodipodi:type="inkscape:persp3d"
       inkscape:vp_x="0 : 526.18109 : 1"
       inkscape:vp_y="0 : 1000 : 0"
       inkscape:vp_z="744.09448 : 526.18109 : 1"
       inkscape:persp3d-origin="372.04724 : 350.78739 : 1"
       id="perspective10" />
    <inkscape:perspective
       id="perspective2940"
       inkscape:persp3d-origin="0.5 : 0.33333333 : 1"
       inkscape:vp_z="1 : 0.5 : 1"
       inkscape:vp_y="0 : 1000 : 0"
       inkscape:vp_x="0 : 0.5 : 1"
       sodipodi:type="inkscape:persp3d" />
    <inkscape:perspective
       id="perspective2953"
       inkscape:persp3d-origin="0.5 : 0.33333333 : 1"
       inkscape:vp_z="1 : 0.5 : 1"
       inkscape:vp_y="0 : 1000 : 0"
       inkscape:vp_x="0 : 0.5 : 1"
       sodipodi:type="inkscape:persp3d" />
    <inkscape:perspective
       id="perspective2966"
       inkscape:persp3d-origin="0.5 : 0.33333333 : 1"
       inkscape:vp_z="1 : 0.5 : 1"
       inkscape:vp_y="0 : 1000 : 0"
       inkscape:vp_x="0 : 0.5 : 1"
       sodipodi:type="inkscape:persp3d" />
    <inkscape:perspective
       id="perspective2979"
       inkscape:persp3d-origin="0.5 : 0.33333333 : 1"
       inkscape:vp_z="1 : 0.5 : 1"
       inkscape:vp_y="0 : 1000 : 0"
       inkscape:vp_x="0 : 0.5 : 1"
       sodipodi:type="inkscape:persp3d" />
    <inkscape:perspective
       id="perspective2992"
       inkscape:persp3d-origin="0.5 : 0.33333333 : 1"
       inkscape:vp_z="1 : 0.5 : 1"
       inkscape:vp_y="0 : 1000 : 0"
       inkscape:vp_x="0 : 0.5 : 1"
       sodipodi:type="inkscape:persp3d" />
    <inkscape:perspective
       id="perspective3005"
       inkscape:persp3d-origin="0.5 : 0.33333333 : 1"
       inkscape:vp_z="1 : 0.5 : 1"
       inkscape:vp_y="0 : 1000 : 0"
       inkscape:vp_x="0 : 0.5 : 1"
       sodipodi:type="inkscape:persp3d" />
    <inkscape:perspective
       id="perspective3018"
       inkscape:persp3d-origin="0.5 : 0.33333333 : 1"
       inkscape:vp_z="1 : 0.5 : 1"
       inkscape:vp_y="0 : 1000 : 0"
       inkscape:vp_x="0 : 0.5 : 1"
       sodipodi:type="inkscape:persp3d" />
    <inkscape:perspective
       id="perspective3031"
       inkscape:persp3d-origin="0.5 : 0.33333333 : 1"
       inkscape:vp_z="1 : 0.5 : 1"
       inkscape:vp_y="0 : 1000 : 0"
       inkscape:vp_x="0 : 0.5 : 1"
       sodipodi:type="inkscape:persp3d" />
    <inkscape:perspective
       id="perspective3044"
       inkscape:persp3d-origin="0.5 : 0.33333333 : 1"
       inkscape:vp_z="1 : 0.5 : 1"
       inkscape:vp_y="0 : 1000 : 0"
       inkscape:vp_x="0 : 0.5 : 1"
       sodipodi:type="inkscape:persp3d" />
    <inkscape:perspective
       id="perspective3057"
       inkscape:persp3d-origin="0.5 : 0.33333333 : 1"
       inkscape:vp_z="1 : 0.5 : 1"
       inkscape:vp_y="0 : 1000 : 0"
       inkscape:vp_x="0 : 0.5 : 1"
       sodipodi:type="inkscape:persp3d" />
    <inkscape:perspective
       id="perspective3070"
       inkscape:persp3d-origin="0.5 : 0.33333333 : 1"
       inkscape:vp_z="1 : 0.5 : 1"
       inkscape:vp_y="0 : 1000 : 0"
       inkscape:vp_x="0 : 0.5 : 1"
       sodipodi:type="inkscape:persp3d" />
    <inkscape:perspective
       id="perspective3083"
       inkscape:persp3d-origin="0.5 : 0.33333333 : 1"
       inkscape:vp_z="1 : 0.5 : 1"
       inkscape:vp_y="0 : 1000 : 0"
       inkscape:vp_x="0 : 0.5 : 1"
       sodipodi:type="inkscape:persp3d" />
  </defs>
  <sodipodi:namedview
     id="base"
     pagecolor="#ffffff"
     bordercolor="#666666"
     borderopacity="1.0"
     inkscape:pageopacity="0.0"
     inkscape:pageshadow="2"
     inkscape:zoom="4.256"
     inkscape:cx="105.26316"
     inkscape:cy="233.55263"
     inkscape:document-units="px"
     inkscape:current-layer="svg2"
     showgrid="false"
     showborder="true"
     inkscape:showpageshadow="false"
     showguides="true"
     inkscape:guide-bbox="true"
     inkscape:window-width="1280"
     inkscape:window-height="750"
     inkscape:window-x="0"
     inkscape:window-y="26"
     inkscape:window-maximized="1">
    <sodipodi:guide
       orientation="0,1"
       position="0,200"
       id="guide2818" />
  </sodipodi:namedview>
  <metadata
     id="metadata7">
    <rdf:RDF>
      <cc:Work
         rdf:about="">
        <dc:format>image/svg+xml</dc:format>
        <dc:type
           rdf:resource="http://purl.org/dc/dcmitype/StillImage" />
        <dc:title />
      </cc:Work>
    </rdf:RDF>
  </metadata>
  <g
     inkscape:label="Layer 1"
     inkscape:groupmode="layer"
     id="layer1" />
  <path
     style="fill:#800000"
     d="M 0,0 0,6.1344159 0,793.68516 0,800 l 5.9542806,0 725.1237494,0 5.95428,0 0,-6.31484 0,-787.5507441 L 737.03231,0 731.07803,0 5.9542806,0 0,0 z m 643.03112,12.449256 81.73236,0 0,760.306724 -2.88678,5.95399 c -0.40415,0.45553 -0.68937,1.0102 -1.26326,1.80424 -2.60676,3.6053 -7.3382,4.14421 -39.15172,5.41272 -13.31211,0.53059 -96.78982,1.1076 -197.023,1.62381 l -472.169888,0 0,-158.05142 c 0.311772,-55.77948 0.467659,-70.7848 0.902408,-153.90167 0.860839,-164.96278 1.890844,-267.45533 3.06692,-295.17365 l 0,-0.7217 -0.357962,-29.58954 c -0.05773,-0.2575 0,-0.45495 0,-0.72169 -1.230924,-10.95523 -1.691078,-29.49202 -1.804239,-61.34416 -0.121245,-34.819637 0.305999,-64.935375 1.082543,-66.937302 0.779432,-2.001754 4.370591,-4.36655 7.758521,-5.051872 3.386775,-0.685265 72.65862,-1.274746 154.082097,-1.443392 81.42347,-0.168588 165.15233,-0.521931 186.19756,-0.721696 5.41445,-0.05196 8.74522,-0.01732 12.80982,0 2.97742,0.01155 7.04259,-0.04619 9.38204,0 l 104.10494,0 c 21.58564,-0.293298 44.38546,-0.487867 77.58232,-0.721696 29.38746,-0.207271 51.96788,-0.482093 75.95821,-0.721696 z m 60.80318,7.036536 c -4.28052,-0.02887 -9.56738,0.183022 -14.79477,0.540983 -10.45535,0.716788 -158.83085,2.039397 -329.81506,2.886784 -170.98479,0.847444 -313.921592,1.599105 -317.546238,1.80424 -3.625223,0.204961 -9.964024,0.537519 -13.892937,0.721696 l -7.036247,0.360848 1.443392,68.921966 c 0.732089,34.639161 0.735553,59.231441 0,66.396031 -0.05774,0.32332 -0.144339,0.83209 -0.17898,1.08254 l 0,13.5318 c 0.931853,19.35404 0.944555,87.37308 0.17898,205.32251 -1.579648,243.64855 -1.895462,398.18964 -0.902408,398.91746 1.688768,1.23785 689.064358,-2.17548 690.302208,-3.42806 2.67201,-2.70249 3.08828,-32.64104 4.51089,-392.24177 l 1.62353,-362.652229 -5.05187,-1.443392 c -1.31522,-0.422048 -4.56055,-0.692597 -8.84049,-0.721696 z M 522.14705,43.843031 c 6.74179,-0.01732 13.54479,0.260388 20.3882,0.540983 52.27677,2.144015 86.81136,9.053301 117.81658,23.45512 13.42527,6.235511 34.00862,21.610753 37.7089,28.146143 3.09637,5.470223 -3.24705,3.183543 -15.87731,-5.773567 -17.51354,-12.420157 -52.92976,-25.138288 -89.4903,-31.935048 -10.59508,-1.96971 -8.87571,1.534384 3.06692,5.953992 11.82888,4.377288 19.62839,9.575982 17.50141,11.72756 -0.78867,0.798196 -7.09629,-0.690577 -14.07307,-3.247632 -25.41986,-9.315941 -62.10627,-18.16809 -74.69553,-18.0424 l -12.62968,0.180136 18.0424,8.660351 c 9.96806,4.740273 18.22253,9.703809 18.22253,11.005864 0,3.452825 -4.66908,2.862593 -16.77914,-1.984664 -26.25934,-10.511011 -50.57011,-16.829719 -61.88572,-16.057735 -6.27067,0.427821 -11.36642,1.329825 -11.36642,2.165087 0,0.835263 4.8521,3.545779 11.00557,5.953992 11.17128,4.371457 14.5875,7.036652 12.26883,9.382048 -0.67493,0.683129 -12.49977,-1.865844 -26.16119,-5.593144 -21.86739,-5.966058 -25.90831,-6.542029 -34.10042,-4.330176 -5.11769,1.381788 -9.21404,3.124713 -9.20134,3.788904 0,0.664134 4.01956,2.82316 8.84049,4.871448 8.33761,3.542026 11.82889,8.741702 5.95428,8.660352 -1.51094,-0.02309 -10.06622,-2.03091 -19.12494,-4.330176 -14.7099,-3.733651 -17.18965,-3.801952 -22.73343,-0.90212 -4.92196,2.574723 -7.00103,2.691811 -9.56276,0.540983 -4.16216,-3.494047 -2.43125,-4.833111 13.53209,-10.464591 41.58181,-14.669424 86.14741,-22.247289 133.33305,-22.372576 z m -363.73478,1.80424 c 14.12619,-0.151267 29.01506,0.314082 41.49752,1.262968 27.4077,2.083508 37.32785,3.875219 58.63809,10.645016 27.75123,8.816353 44.52517,15.566058 46.36867,18.583671 0.64145,1.049404 -11.3924,1.835822 -26.70275,1.80424 -15.31092,-0.02887 -32.03175,0.780067 -37.16734,1.80424 -11.62739,2.318838 -12.23073,-0.778912 -1.44339,-7.216959 8.63033,-5.150716 9.02639,-10.429431 0.72169,-9.742896 -2.90295,0.24018 -15.63886,2.52888 -28.32628,5.051872 -12.68799,2.523049 -27.58033,5.33391 -33.01788,6.134416 -8.78852,1.293798 -9.54717,0.918401 -7.03624,-2.165088 1.55309,-1.907587 6.09804,-4.077005 10.28388,-4.871448 4.18641,-0.794501 7.75852,-2.441527 7.75852,-3.60848 0,-4.514122 -27.53011,-1.739114 -60.98331,6.134416 -8.18577,1.926639 -5.70602,-3.306638 3.96932,-8.299504 4.95084,-2.554746 8.79315,-5.093846 8.29951,-5.593144 -0.49076,-0.499414 -6.59226,-0.06005 -13.53209,1.082544 -9.7377,1.603204 -15.66773,4.607249 -25.98106,12.449256 -14.574213,11.08219 -18.581647,11.447426 -11.005571,1.082544 3.146017,-4.305004 3.807668,-6.689834 1.984375,-6.675688 -5.894235,0.04619 -25.184303,10.834735 -37.167343,20.748759 -13.560956,11.220121 -15.155616,11.903885 -15.155616,7.21696 0,-4.435312 23.437799,-24.248639 36.445647,-30.852503 6.042039,-3.067381 14.354245,-6.203526 18.583961,-7.036536 4.229138,-0.832895 9.671307,-2.358387 12.088117,-3.428056 5.68523,-2.516179 27.33669,-4.258815 50.87957,-4.5106 z M 517.99758,86.24267 c 2.0935,0.04619 5.50048,0.750564 8.29951,1.984664 5.65347,2.492507 6.4508,4.03174 5.41272,8.660352 -3.61426,16.107044 -3.48435,18.887654 0.90183,25.981054 5.72507,9.2585 13.72261,13.22407 21.47074,10.46459 6.80357,-2.42334 9.83874,-10.4184 9.56218,-25.80063 -0.18475,-10.157898 -0.0577,-10.645129 5.95429,-10.645014 6.9023,-5.8e-5 29.16344,6.179454 31.93475,8.840774 0.97112,0.93243 -0.0693,5.12087 -2.16508,9.56247 -2.0935,4.44172 -3.30537,8.59598 -2.70608,9.20163 0.59815,0.60564 4.69969,0.11893 8.84049,-1.08255 19.71558,-5.71935 43.93223,2.45966 46.54939,15.69689 2.62293,13.26547 1.6293,18.92258 -5.232,26.52233 -6.7164,7.43762 -6.82147,7.54536 -21.8316,6.13441 l -15.15561,-1.62381 -4.33018,12.08841 c -7.27123,19.65963 -15.02282,53.43795 -19.84664,86.78394 -11.23652,77.67475 -12.33061,101.71791 -12.26883,274.60532 0.0577,117.62017 1.0785,128.92828 13.35138,139.8286 4.16793,3.70161 8.51601,6.85605 9.74289,6.85611 3.51149,-6e-5 15.74106,-6.87869 22.55329,-12.62968 11.03791,-9.31912 34.09523,-4.67532 40.41498,8.11908 3.799,7.69091 3.41622,20.18555 -0.7217,26.16148 -5.76375,8.32404 -2.26844,10.47164 5.05187,3.06721 11.51769,-11.65037 14.85886,-41.38476 8.29951,-72.71087 -1.79327,-8.56243 -3.04614,-27.05234 -3.0675,-41.3171 l 0,-25.98105 -7.21696,-6.13442 c -15.49857,-13.21945 -30.89667,-15.51796 -44.02346,-6.49526 -10.50616,7.22134 -11.31619,2.23119 -1.26268,-7.93866 6.71004,-6.78746 7.60495,-6.91281 21.47017,-5.95399 7.93981,0.54907 16.28897,1.77664 18.40325,2.70636 5.4081,2.37732 5.09921,-4.6972 -1.62353,-34.82183 -3.02073,-13.53677 -5.74585,-26.64277 -5.77357,-29.22869 -0.0577,-3.47927 -3.896,-7.12614 -15.15561,-13.5318 -15.37732,-8.74811 -19.57702,-13.39387 -15.51647,-17.50113 2.48553,-2.5145 10.24636,0.92146 17.50084,7.75823 7.58994,7.15207 9.52004,5.23444 7.57781,-7.5778 -0.97342,-6.41715 -1.7569,-15.67911 -1.80424,-20.56834 -0.0693,-7.3404 0.45611,-8.84083 3.96933,-8.84077 4.53571,-6e-5 6.37517,4.43796 9.0212,23.81596 0.79329,5.8059 2.05481,10.64721 2.88678,10.64502 0.83255,-0.002 4.31344,-4.58883 7.75852,-10.10375 6.59515,-10.56025 14.233,-17.26602 17.32071,-15.33603 3.69277,2.30861 1.48149,7.13953 -8.48022,18.94451 -16.65963,19.74203 -16.25548,18.30793 -12.62968,39.69328 1.76152,10.38971 4.60789,27.91451 6.31513,38.79116 1.70724,10.87689 4.06401,20.64992 5.23201,21.83131 1.3666,1.38207 4.11482,-0.94693 7.5778,-6.49527 6.97794,-11.18138 10.82025,-14.28005 14.61464,-11.90798 2.38852,1.49385 1.5248,3.7583 -4.15004,11.00586 -3.94451,5.03785 -8.60031,13.82556 -10.28388,19.48579 -4.01494,13.49272 -3.77534,48.05993 0.35796,71.80876 6.48198,37.22479 2.63217,62.71636 -11.90799,80.28867 l -6.67597,8.11908 10.10374,2.88679 c 12.65509,3.58394 24.71838,14.05275 24.71838,21.29003 0,7.52821 -4.46124,6.45797 -11.54714,-2.52594 -8.02988,-10.1792 -15.86172,-11.86254 -53.22537,-12.0884 -29.30547,-0.17725 -44.92528,-2.58218 -44.92528,-6.85612 0,-1.07654 10.16725,-1.52913 22.55271,-0.90212 l 22.37257,1.26297 -11.00557,-4.33017 c -6.04204,-2.30805 -15.00088,-5.99349 -20.02735,-8.11908 -8.4398,-3.56894 -9.60722,-3.46022 -15.87731,-0.18014 -3.73435,1.95331 -6.6754,4.40223 -6.6754,5.59314 -5.8e-4,2.3805 -8.78391,2.95532 -14.07308,0.90212 -2.61253,-1.0136 -3.13331,-3.63821 -2.16508,-11.90798 1.09871,-9.38742 0.64375,-10.97417 -3.96933,-14.2535 -9.40052,-6.68227 -20.71094,-8.54765 -29.4094,-4.87144 l -7.75794,3.24763 4.51031,11.72756 c 6.27298,16.69479 5.91444,18.21405 -5.59286,21.65088 -11.96399,3.57309 -19.48579,1.23554 -23.45512,-7.57781 -2.88216,-6.39798 -6.20427,-6.26345 -22.37257,1.08254 -17.48121,7.94224 -30.32105,-0.31235 -33.19802,-21.47045 -1.40759,-10.35391 -1.04848,-11.48848 3.06692,-12.81011 2.504,-0.80368 5.63673,-0.76205 6.85611,0 1.2188,0.76235 2.16509,0.41743 2.16509,-0.72169 0,-1.5942 -23.81943,-60.40953 -37.52819,-92.73794 -3.65525,-8.61959 -30.18017,-78.18958 -38.24989,-100.13531 -9.08817,-24.71549 -20.97826,-54.97696 -48.71448,-124.31214 -10.26771,-25.66841 -22.51056,-57.17044 -27.24373,-70.00451 -4.73317,-12.83429 -9.68516,-25.34071 -10.82544,-27.78529 -1.14086,-2.4447 -5.57034,-13.35652 -9.92361,-24.35724 -4.35327,-11.00067 -9.28736,-23.27753 -11.00558,-27.0636 -1.71763,-3.78596 -6.67482,-15.82091 -10.82544,-26.70275 -4.15061,-10.88174 -10.92416,-27.43323 -15.33632,-36.98692 -7.8994,-17.10426 -9.29545,-25.89186 -4.14947,-27.60487 1.43993,-0.47921 4.2378,2.44464 6.31455,6.49526 5.87865,11.46359 39.68924,94.8174 70.00451,172.84619 24.46896,62.97865 36.69796,93.50651 49.79703,124.49256 5.94273,14.0565 10.82602,26.97151 10.82544,28.68741 -10e-4,5.27652 46.02804,122.1008 67.47857,171.22237 20.57527,47.11445 29.73619,70.83065 28.14615,73.43257 -0.80599,1.31966 -3.45837,1.64529 -5.77357,0.90212 -4.52302,-1.45211 -6.16848,4.24074 -1.98438,6.85611 2.7309,1.70805 17.50084,-3.02061 17.50084,-5.59314 0,-1.01355 -2.87004,-8.60654 -6.49526,-16.77943 -6.67078,-15.03888 -8.11822,-20.92924 -4.87116,-20.92919 0.98093,0 5.82322,2.06596 10.82544,4.5106 5.00222,2.4447 12.31906,4.33012 16.05745,4.33018 7.96752,0 17.68155,-8.45002 17.68155,-15.51646 0,-2.57652 0.65356,-18.92391 1.80424,-36.26523 3.0444,-45.88156 4.89945,-221.63018 2.52593,-243.75282 -1.11487,-10.38953 -3.02131,-42.83439 -4.33017,-72.1696 -4.20893,-94.32249 -11.12451,-148.28508 -20.02678,-157.87099 -7.94327,-8.5525 -14.45817,-8.7327 -26.52261,-0.90212 -10.02927,6.51033 -10.99576,6.67315 -18.7641,4.14975 -9.89474,-3.21386 -15.4697,-7.67659 -19.84664,-16.23816 -2.67951,-5.24211 -2.87293,-8.25043 -0.7217,-17.3207 2.79383,-11.78005 6.3567,-14.7558 22.73343,-19.30537 9.05007,-2.51427 15.75433,-0.35912 27.42445,8.84077 2.88158,2.27161 6.63556,3.96927 8.11936,3.96933 1.48381,-6e-5 7.89132,-6.86223 14.25321,-15.51646 6.36247,-8.654349 12.80924,-16.329152 14.43392,-16.959857 0.40415,-0.157618 0.92608,-0.195147 1.62411,-0.180135 z m -324.9439,10.645016 c 4.21297,-0.422625 10.43572,1.714114 15.69717,5.773564 7.27297,5.6118 7.81453,5.78893 15.87731,2.52594 4.5871,-1.85661 12.8306,-3.95253 18.22254,-4.69102 8.40689,-1.15143 10.86816,-0.47575 18.40325,4.87144 12.84214,9.11277 19.10646,21.46526 17.3207,34.64141 -1.01384,7.48653 -2.86427,11.48623 -6.49526,13.89265 -6.60381,4.37711 -8.42422,2.86438 -16.05745,-12.26883 -10.51309,-20.84097 -11.33525,-21.4857 -20.74905,-18.0424 -9.05642,3.31252 -10.18515,7.9263 -4.69102,18.58367 3.73203,7.23849 3.57961,7.72653 -3.06692,9.0212 -14.06557,2.7399 -27.23103,18.61525 -32.47632,39.33243 -3.80998,15.04482 -3.95778,25.37939 -3.60848,138.38521 0.20785,67.22696 1.57965,138.78537 2.88678,158.95354 1.30656,20.16799 3.11138,69.251 4.33018,108.97609 2.68009,87.33809 1.07215,82.9649 28.50699,73.25214 20.70344,-7.32931 29.52025,-6.16859 41.31681,5.2323 9.64936,9.32541 9.77407,19.48094 0.35796,31.03293 -9.28101,11.38928 -18.11457,15.78331 -28.68713,14.07307 -9.77234,-1.58052 -26.35865,2.07704 -35.90466,7.93865 -7.85898,4.82567 -6.88383,4.81106 -17.32071,-0.90212 -8.29546,-4.54091 -8.23772,-4.62803 -6.85611,-14.79476 1.05887,-7.78249 0.30023,-12.98892 -3.06692,-20.92919 -4.91273,-11.5924 -6.915,-12.05555 -20.20749,-6.67569 -10.47152,4.23821 -13.95817,11.00281 -11.90798,23.2747 1.09698,6.56772 0.51385,9.5821 -3.42834,14.97519 -5.69736,7.79455 -8.32491,8.33068 -18.0424,3.24763 -4.56863,-2.38968 -11.82773,-3.58815 -21.10932,-3.42805 -16.07477,0.27713 -26.81707,-4.6494 -31.935338,-14.79477 -6.201967,-12.29476 1.411637,-30.13 15.697176,-36.98692 6.948489,-3.33551 8.143618,-3.48556 18.222532,0.18014 7.08128,2.57587 11.58582,3.22552 12.99053,1.80424 2.06059,-2.08409 2.63102,-24.06331 5.77357,-286.51331 0.64433,-53.78165 1.63334,-104.27878 2.16509,-112.22373 2.5802,-38.55005 1.77017,-94.62063 -1.4434,-104.46549 -3.71875,-11.39292 -9.81275,-14.39893 -11.90798,-5.95399 -2.58829,10.4307 -27.175028,16.93653 -34.821542,9.20162 -10.183419,-10.30056 -11.223816,-29.05981 -2.3458,-44.3843 4.435832,-7.65616 7.801245,-10.24832 17.681551,-14.07307 10.476141,-4.0553 13.636011,-4.43272 21.831591,-2.34551 8.98136,2.28771 9.99867,2.14655 19.30508,-4.33018 10.99056,-7.64905 15.05227,-8.53305 18.94481,-3.7889 2.08945,2.54649 1.68588,4.35996 -1.98495,9.38204 -7.37285,10.08723 -8.07145,20.90684 -1.98438,30.49166 2.84752,4.48456 7.4225,8.67253 10.10374,9.38205 9.40746,2.48933 31.82968,-16.39555 35.72396,-30.13081 1.73033,-6.10336 1.3412,-8.94112 -2.3458,-14.97519 -2.47513,-4.05137 -4.00802,-8.13738 -3.24764,-9.38205 0.7829,-1.28092 2.41509,-2.153426 4.33018,-2.345513 z m 141.45241,0.180135 c 0.21939,0.0231 0.62297,0.269049 0.90241,0.360848 3.71413,1.221691 10.18861,20.086011 10.46459,30.491651 0.43879,16.66362 1.31926,17.86192 16.05745,17.86198 12.95877,-6e-5 13.33867,0.0831 9.20191,3.96933 -2.34291,2.20013 -7.43924,5.95826 -11.367,8.2995 -6.24007,3.72043 -7.21696,5.43686 -7.21696,13.5318 0,6.81708 -1.1397,9.45497 -3.96933,10.46459 -2.11486,0.75455 -4.85095,1.89021 -6.13441,2.52594 -3.87984,1.9215 -5.37751,-1.20621 -5.41272,-11.90798 0,-5.60221 -0.54272,-11.37803 -1.4434,-12.81011 -0.90067,-1.43219 -7.07839,-4.07365 -13.71222,-5.77357 -15.51993,-3.97741 -15.95237,-8.65452 -1.08254,-11.72756 6.04203,-1.24853 12.23188,-2.99942 13.71222,-3.96932 2.69452,-1.76562 2.29037,-21.48385 -0.7217,-35.72395 -0.88393,-4.17932 -0.83774,-5.760582 0.7217,-5.593149 z m 86.96437,15.155619 c 0.90298,-0.12702 1.44339,0.31639 1.44339,1.44339 0,0.72799 -2.09812,4.15085 -4.51031,7.57781 -8.06626,11.45885 -13.25554,32.93468 -11.72785,48.35363 1.13162,11.42035 0.69456,13.89259 -1.98438,13.89265 -1.79211,0 -4.67601,-1.73392 -6.67597,-3.96933 -4.58191,-5.12116 -4.81112,-25.86414 -0.35797,-33.73929 1.72746,-3.05583 3.02478,-7.65858 3.0675,-10.10374 0.1097,-6.19481 15.86923,-22.76876 20.74847,-23.45512 z m -285.25005,4.51089 c -1.91336,5e-5 -3.42835,1.67312 -3.42835,3.60848 0,1.93535 1.27134,3.00981 2.70665,2.52593 4.07325,-1.37353 4.60153,-6.13453 0.7217,-6.13441 z m 157.69057,13.5318 c 1.51094,0.13394 1.51729,1.44356 0.54271,4.69102 -3.66217,12.17749 -4.0796,37.38252 -0.72169,44.74515 1.82964,4.01251 4.5438,10.75229 6.13441,15.33604 3.32269,9.57685 4.31806,9.85502 17.14,3.96933 20.12492,-9.23869 65.54904,-12.94526 92.01623,-7.57781 6.33245,1.2841 18.59667,18.41907 16.95986,23.63554 -0.74479,2.37352 -0.16743,3.96927 1.44339,3.96933 1.49131,0 2.0219,0.67591 1.26326,1.44339 -0.75923,0.76754 -18.91941,1.6341 -40.41498,1.98467 -26.98739,0.43994 -43.68801,1.76394 -54.30791,4.33017 -26.43543,6.38794 -34.62178,6.70854 -39.33243,1.4434 -6.56917,-7.34202 -10.16956,-27.67185 -9.92303,-56.83356 0.27136,-32.05791 1.65124,-39.87215 7.21696,-40.95625 0.85795,-0.16743 1.48092,-0.22459 1.98437,-0.18014 z M 42.940911,167.25304 c 1.181272,-0.49133 2.083681,6.23067 2.165088,20.74876 0.07506,12.77298 1.00691,28.34938 2.165088,34.46099 1.158178,6.11143 3.026504,17.30199 3.969328,24.89851 1.524222,12.27945 3.534578,18.57305 5.232585,15.87731 1.886802,-2.99579 16.151556,-23.50419 18.042399,-25.98105 1.244204,-1.62994 6.831863,-7.29144 12.268832,-12.62968 10.798881,-10.60287 16.680419,-10.15958 9.0212,0.72169 -2.565774,3.6441 -4.691024,7.19664 -4.691024,7.93866 0,3.39509 -18.63419,28.33471 -26.522616,35.54352 -12.903347,11.79194 -18.210988,27.13462 -16.418295,46.91024 2.347532,25.89486 7.663256,37.37802 11.005575,23.81597 3.715868,-15.07698 18.692503,-44.89636 23.99668,-47.63193 2.476861,-1.27758 6.267208,-4.44767 8.299504,-7.03654 5.976797,-7.61505 6.82147,-2.57888 1.623527,9.0212 -5.893081,13.15178 -7.757943,36.12983 -4.149463,49.6166 7.037979,26.30258 3.964132,49.63715 -7.577808,58.09653 -7.352061,5.38806 -14.416599,6.41143 -22.914136,3.24763 -8.266595,-3.07772 -13.927001,-12.97488 -11.366423,-20.20749 3.995886,-11.28981 4.557654,-25.49036 1.262679,-31.93505 -1.838881,-3.59676 -4.88848,-14.38819 -6.856112,-23.99639 -3.662751,-17.88068 -3.589427,-27.92877 1.082544,-58.27695 2.1189,-13.75737 1.887379,-19.82822 -1.262679,-37.52819 -2.800181,-15.73061 -3.0929,-26.63763 -1.984953,-42.58006 1.041552,-14.98565 2.427208,-22.60266 3.60848,-23.09428 z m 629.860459,18.40325 c 1.88796,-6e-5 9.38205,14.19547 9.38205,17.86198 0,4.58444 -6.99121,1.79165 -9.0212,-3.60848 -2.60792,-6.93775 -2.79729,-14.25356 -0.35796,-14.2535 z m -11.18629,2.34551 c 1.34755,0.0918 1.88507,1.93969 1.26268,5.2323 -0.73959,3.91535 -2.13506,4.96919 -5.232,4.14975 -4.74068,-1.25396 -5.87115,4.97509 -1.26326,6.85611 1.53346,0.62569 1.68992,1.16505 0.35796,1.26297 -6.30705,0.46477 -6.98544,-6.13557 -1.26268,-12.8101 2.70145,-3.15116 4.78687,-4.78277 6.13442,-4.69103 z m -311.77266,13.35138 c -0.25981,0.002 -0.51385,0.153 -0.7217,0.36085 -0.78058,0.78924 -0.79617,3.59768 0,6.13441 1.57157,5.00904 5.64771,6.30826 5.59286,1.80424 -0.0577,-3.56835 -3.03228,-8.31284 -4.87116,-8.2995 z m 14.2532,2.52594 c -0.38682,0.1478 -0.54271,0.9143 -0.54271,2.16508 0,1.8741 0.56004,4.16067 1.44339,5.05188 0.88105,0.89126 2.0629,0.32332 2.52594,-1.08255 0.46188,-1.40569 -0.27713,-3.51166 -1.62353,-4.87145 -0.89779,-0.90754 -1.41741,-1.411 -1.80424,-1.26296 z m 13.89294,0.36084 c -0.78751,0.0346 -1.26326,0.91621 -1.26326,2.34552 0,1.9055 0.95668,3.60842 2.16509,3.60848 1.20841,0 2.16509,-1.01511 2.16509,-2.16509 5.8e-4,-1.15027 -0.95668,-2.6727 -2.16509,-3.42806 -0.30022,-0.18879 -0.63913,-0.37239 -0.90183,-0.36085 z m 12.62968,1.4434 c -0.47343,5e-5 -0.7217,1.59454 -0.7217,3.42805 0,1.83357 0.99479,3.24758 2.16509,3.24763 1.17088,0 1.41684,-1.41417 0.7217,-3.24763 -0.69572,-1.83339 -1.6905,-3.42811 -2.16509,-3.42805 z m 11.18629,2.16508 c -0.53117,0 -1.08255,1.12314 -1.08255,2.34552 -5.7e-4,1.22238 1.24652,2.16503 2.52594,2.16508 1.28,0 1.64835,-0.94276 0.90183,-2.16508 -0.74652,-1.22227 -1.8129,-2.34557 -2.34522,-2.34552 z m 271.89867,0.36085 c 0.98382,-0.0115 1.95551,0.0883 3.0675,0.18014 l 8.66035,0.72169 -7.03682,3.78891 c -8.1569,4.51198 -10.76655,4.78704 -12.80982,1.44339 -2.21185,-3.62072 1.23843,-6.06103 8.11879,-6.13442 z m -278.57465,19.12495 c 1.32215,-0.0404 2.71589,0.004 4.15004,0 15.02283,-0.0404 17.70638,0.47401 22.73343,5.23229 5.4947,5.20031 6.82666,5.41266 37.88904,5.41272 l 32.11547,0 0.72169,5.95399 c 0.58256,5.09535 -0.35218,6.31242 -7.57781,8.66035 -4.60095,1.49472 -10.02233,3.934 -11.90798,5.59315 -1.88622,1.65909 -10.85719,3.93884 -19.84664,5.23229 -41.66842,5.99585 -51.72482,10.55132 -32.29618,14.07308 11.74286,2.12854 18.20868,0.90708 43.6626,-7.57781 19.70692,-6.56934 27.19005,-6.84018 18.58397,-0.7217 -2.41451,1.71677 -6.90288,5.29159 -9.92361,7.93866 -3.02073,2.64729 -8.59973,6.12714 -12.44897,7.75823 -7.64882,3.24088 -31.03755,4.35281 -41.49752,1.98466 -6.23661,-1.41163 -6.34457,-1.28571 -2.3458,1.98467 6.01837,4.92237 17.0759,6.54145 34.64141,5.05187 13.44721,-1.1404 15.05631,-0.7419 14.43392,2.52594 -0.45612,2.39995 -4.01321,4.33877 -10.28388,5.59314 -5.32439,1.06499 -12.45359,3.93486 -15.87731,6.49526 -10.87625,8.13386 -33.95724,7.24745 -57.1947,-2.34551 -8.81566,-3.63948 -25.697,-19.89698 -33.739,-32.65674 -8.42132,-13.36131 -16.49219,-37.17728 -14.07307,-41.13667 3.18643,-5.21486 8.15516,-0.39203 10.82544,10.46459 3.26842,13.29225 11.87103,32.26708 16.41829,36.0848 5.63327,4.72924 4.31921,-2.96427 -3.06691,-17.32071 -3.59809,-6.99259 -7.3359,-15.70803 -8.11937,-19.66621 -1.42203,-7.19444 -1.23035,-7.21696 7.93865,-7.21696 5.04437,6e-5 12.19031,-1.76492 16.05803,-3.7889 4.14657,-2.17023 10.77521,-3.32171 20.02677,-3.60848 z m 267.02752,1.26296 c 0.88393,-0.0999 1.82387,0.19169 2.52593,0.90212 1.52249,1.5401 1.11372,4.59802 -1.44339,9.7429 -6.97736,14.03958 -7.39709,15.18073 -7.39709,20.92918 l 0,5.77357 9.74289,-8.11908 c 9.43286,-7.81891 16.29936,-9.2634 18.0424,-3.96933 0.45611,1.39305 -2.99013,4.72353 -7.57781,7.57781 -4.58767,2.85439 -12.40278,9.1574 -17.50141,13.89265 -7.76834,7.21534 -9.77003,10.6602 -11.90799,21.65088 -2.44222,12.55393 -4.50915,15.73343 -7.39709,11.00586 -1.27769,-2.08997 -0.46766,-9.93365 2.34522,-26.70275 1.16684,-6.95952 5.8e-4,-9.53586 -10.82544,-23.45512 -11.1274,-14.30557 -11.8514,-15.49741 -7.93865,-17.3207 5.38385,-2.50902 9.75559,1.02567 15.51646,12.44925 2.37467,4.70858 5.1685,7.93352 6.31513,7.21696 1.14605,-0.71661 3.72222,-6.66108 5.59285,-13.17095 3.01034,-10.4751 8.07722,-17.97173 11.90799,-18.40325 z m -271.53783,5.05188 c -1.46591,0.0173 -2.80653,0.17436 -4.15004,0.36084 -7.45194,1.03313 -9.90629,2.16457 -9.38205,4.87145 0.54272,2.79989 2.86831,3.46281 10.82544,2.88679 6.22391,-0.45034 10.91551,0.17955 11.90799,1.80424 2.08772,3.41622 -3.3175,6.98087 -8.29951,5.41272 -4.99702,-1.57301 -12.99283,0.94674 -11.36642,3.60847 3.09752,5.07035 31.52945,-0.0346 32.11547,-5.77356 0.17898,-1.77607 0.42147,-4.36863 0.54272,-5.77357 0.32332,-3.73527 -11.93224,-7.51644 -22.19244,-7.39738 z m -68.02013,1.08254 c 3.87695,6e-5 6.14134,2.87645 11.00615,13.89265 14.39928,32.60605 17.18733,37.26047 29.40882,48.35363 14.20702,12.89538 21.87374,17.29639 35.18297,20.74876 5.12866,1.33034 9.61357,3.46847 9.92303,4.69102 1.06003,4.18728 -12.76016,3.20803 -27.42445,-1.98466 -17.17752,-6.08298 -37.64135,-21.1375 -46.00783,-33.73929 -8.27698,-12.46542 -19.99502,-42.73814 -18.40325,-47.81236 0.77251,-2.46295 3.45029,-4.14975 6.31456,-4.14975 z m -18.94424,3.96933 c 2.70319,0.20092 5.5969,3.76789 7.21696,9.92332 7.92711,30.12942 31.80486,65.78438 50.87957,75.9585 4.5311,2.4171 8.47964,5.00978 8.47964,5.95399 0,0.94438 -0.23672,1.62647 -0.54271,1.44339 -0.30023,-0.18302 -3.52015,-0.73486 -7.03625,-1.26296 -8.4704,-1.27204 -27.58091,-12.14078 -34.64141,-19.84664 -11.42127,-12.46416 -31.52195,-57.88233 -29.4094,-66.39603 1.00056,-4.03255 2.94914,-5.92992 5.05187,-5.77357 z m -69.82437,10.82544 c 2.15585,-0.0595 5.66907,0.33833 8.84106,1.08254 4.22914,0.99277 12.42992,1.77497 18.22254,1.80424 7.23774,0.0346 10.48653,0.79739 10.10374,2.70636 -0.306,1.52798 0.47921,5.00297 1.98496,7.75823 6.2291,11.38958 -6.36017,33.0561 -25.44008,43.84303 -11.87392,6.71287 -20.78484,7.57267 -19.84664,1.80424 0.34642,-2.1391 -0.13279,-5.14782 -1.08254,-6.67568 -2.90641,-4.68635 0,-6.63308 16.59901,-10.64502 17.12094,-4.14577 27.00182,-9.5302 11.54713,-6.31484 -15.28783,3.18083 -28.44637,2.39262 -29.22868,-1.62382 -0.56581,-2.88649 2.30769,-3.89496 14.61463,-5.05187 8.34858,-0.78497 18.70116,-2.8343 23.09427,-4.69102 12.50324,-5.28443 9.35433,-10.75812 -3.42835,-5.95399 -7.92826,2.98025 -31.14493,4.92941 -34.28055,2.88678 -4.94737,-3.22292 -0.39261,-9.22033 7.03682,-9.38205 6.56397,-0.14318 6.50277,-0.23383 1.80424,-2.52593 -5.38327,-2.62657 -6.36074,-7.35628 -1.98495,-8.84078 0.37528,-0.12817 0.72458,-0.1605 1.44339,-0.18013 z m 9.7429,9.56247 c -2.33657,0.2448 -2.78748,1.00772 -1.26268,1.98466 2.7257,1.74743 11.36642,0.75773 11.36642,-1.26297 0,-0.46881 -3.2892,-0.74046 -7.21696,-0.72169 -1.21303,0.006 -2.10793,-0.082 -2.88678,0 z m 40.41497,18.76409 c 0.18475,-0.0289 0.1963,0.0779 0.35796,0.18014 0.98844,0.6176 3.5392,6.40739 5.59343,12.8101 2.05308,6.40277 5.39656,16.15046 7.57781,21.65088 2.18126,5.50048 10.67822,26.85264 18.7641,47.63194 8.08646,20.7793 15.70872,38.87903 16.77914,40.23455 1.071,1.35558 3.18759,6.90155 4.87174,12.26883 2.91738,9.30018 22.22015,57.20821 28.86784,71.80875 8.36359,18.36953 29.76967,74.87613 29.76967,78.66486 0,2.36122 1.44743,5.52565 3.24763,7.03654 3.7915,3.18308 16.41887,41.81582 16.41887,50.15787 0,4.01731 -4.45604,10.14751 -15.33633,21.10961 -8.39592,8.45914 -16.16887,17.32867 -17.50084,19.84664 -1.33254,2.5182 -3.08539,13.00305 -3.78919,23.09427 l -1.26268,18.22282 19.30508,18.22283 c 14.58057,13.79934 18.17866,18.63286 15.51646,19.66621 -2.15354,0.83584 -6.71639,-1.41533 -11.72727,-5.59314 -7.61475,-6.34867 -13.38948,-7.86279 -7.5778,-1.98467 4.32151,4.37227 2.99186,8.89852 -2.3458,8.11908 -3.67834,-0.53751 -7.56973,-6.00145 -15.87732,-22.37257 -6.63844,-13.08291 -11.77577,-21.07549 -12.99052,-19.84664 -1.21476,1.22885 1.97051,9.67737 7.75852,21.10961 5.26491,10.40108 8.69903,19.79698 7.75794,20.74876 -3.52419,3.56448 -9.22963,-3.48966 -14.43392,-17.86198 -5.24586,-14.48732 -9.0212,-19.02391 -9.0212,-10.64501 5.8e-4,2.29528 1.61544,7.70038 3.42834,12.0884 4.32614,10.47464 4.18353,19.30525 -0.17898,19.30537 -1.85042,6e-5 -3.72626,-1.1785 -4.15004,-2.70636 -6.22333,-22.43476 -8.46751,-26.40235 -12.62968,-22.19215 -1.44454,1.46135 -1.0964,5.78003 1.26326,12.8101 3.99646,11.90822 1.73265,17.89725 -3.78919,9.92332 -3.17142,-4.58098 -3.25225,-4.59651 -5.41272,-0.72169 -1.73785,3.11645 -3.06808,3.42973 -5.05187,1.44339 -3.33944,-3.34267 0.57908,-20.61747 8.2995,-36.8065 7.44848,-15.6175 18.09667,-46.73911 16.77972,-48.8949 -0.59121,-0.96771 -3.45663,-1.80436 -6.49526,-1.80424 -10.17188,0 -38.96062,-11.27982 -61.16403,-23.99639 -16.30282,-9.33696 -26.11615,-16.8482 -37.88904,-29.22869 -16.4691,-17.31995 -17.35303,-21.74227 -4.51031,-19.30537 5.72045,1.08555 8.92652,4.02152 14.61406,12.81011 8.82085,13.62897 11.77981,13.07118 3.78919,-0.7217 -6.45716,-11.1442 -7.50622,-17.32076 -2.52594,-17.3207 3.0421,6e-5 6.24931,5.3551 12.44897,21.8313 1.06234,2.82374 2.83656,4.67763 3.96933,3.96933 1.15702,-0.72314 -0.49075,-6.82436 -3.60848,-13.71222 -5.59632,-12.36381 -5.7193,-18.76422 -0.17898,-18.7641 1.8002,0 4.66042,5.36203 6.85611,13.35138 2.01613,7.3337 4.54726,13.35131 5.77357,13.35137 1.22688,6e-5 1.81463,-2.30175 1.26325,-5.05187 -0.54848,-2.75007 -1.43357,-7.708 -2.16508,-11.18629 -1.28462,-6.10318 1.53115,-12.62974 5.59285,-12.62968 1.06061,0 1.98495,5.23853 1.98495,11.72756 0,6.4892 1.44224,13.80968 3.06692,16.05774 2.63333,3.64214 2.97743,2.65353 4.15004,-8.84078 1.26268,-12.37726 4.97855,-18.70174 8.84049,-14.79477 1.0046,1.01604 0.65415,6.19868 -0.72169,11.36672 -1.37585,5.16797 -2.04616,9.85444 -1.4434,10.46459 2.07387,2.0973 5.34575,-1.45448 6.85612,-7.57781 1.96994,-7.98635 11.44609,-20.74882 15.51646,-20.74876 4.28052,-6e-5 4.0057,2.83205 -0.90183,9.20162 -11.32543,14.70009 -14.37619,29.7154 -7.39767,35.90438 9.09163,8.06348 18.56433,10.97994 32.11547,10.10374 15.47027,-1.00015 24.31711,-6.08303 33.91971,-20.38791 5.31284,-7.91348 5.9768,-11.23317 5.95428,-25.80063 0,-15.53442 -0.58486,-17.52289 -8.48022,-29.95038 -8.97905,-14.13197 -53.92166,-61.78878 -56.65313,-60.08119 -0.88682,0.55426 -0.98671,5.02063 -0.35796,9.74289 0.62643,4.72232 -0.16744,15.81473 -1.62353,24.53766 -2.20031,13.19417 -3.1847,15.8772 -6.67598,15.87732 -5.05533,1.1e-4 -5.13097,-0.49942 -0.90183,-18.94452 3.29844,-14.38808 2.59695,-43.30182 -1.08254,-43.30176 -0.87181,0 -2.25631,8.17808 -2.88679,18.40325 -1.1345,18.38771 -4.60038,30.48311 -9.56276,32.11547 -4.54668,1.49552 -5.54609,-7.91141 -1.62352,-15.51647 3.76956,-7.30824 7.77237,-41.15988 5.77356,-48.8949 -2.16047,-8.35354 -4.39368,-3.23435 -5.59343,12.8101 -1.97225,26.38365 -16.05052,51.70254 -24.17681,43.48219 -1.72803,-1.74801 -1.0098,-4.24554 2.52593,-8.66035 8.03508,-10.03296 13.99917,-24.83685 15.69718,-39.15201 1.64546,-13.87833 1.05945,-19.125 -2.3458,-19.12495 -1.07908,6e-5 -1.96648,3.71576 -1.98438,8.29951 -0.0635,16.73168 -14.74049,49.43612 -22.19244,49.43617 -3.81748,6e-5 -4.40408,-0.93139 -3.24763,-5.59314 1.25286,-5.0476 0.75287,-5.52917 -3.96933,-4.33018 -9.58585,2.43368 -8.28103,-4.38947 2.88679,-15.51646 5.7828,-5.76127 12.78845,-15.21809 15.51646,-21.10961 l 4.87174,-10.82544 -5.41272,-15.15561 c -8.28565,-22.81743 -11.311,-49.14161 -9.56276,-82.63419 0.82157,-15.74545 2.39603,-34.6025 3.60848,-42.21922 2.37871,-14.94113 7.65748,-30.03751 10.46459,-30.49165 z m 89.31017,9.20163 c -0.58487,0.12933 -0.90645,0.64722 -0.90241,1.44339 0,4.51072 14.56844,13.17505 27.0636,16.23816 14.03439,3.44024 32.11547,4.10327 32.11547,1.08254 0,-1.22232 -3.19971,-2.34562 -7.21696,-2.34551 -7.72215,6e-5 -33.31349,-8.0849 -45.106,-14.25349 -3.28227,-1.71672 -4.98028,-2.38079 -5.9537,-2.16509 z m 82.63419,23.99639 c 1.77421,-0.51558 5.94562,3.89496 10.82544,11.72756 4.22914,6.78896 9.48828,14.99794 11.72727,18.58367 3.79323,6.07483 3.8706,7.13007 0.54271,12.26883 -4.85788,7.50027 -10.18861,6.87673 -19.66592,-2.16509 -8.53969,-8.14644 -12.26883,-15.86969 -12.26883,-24.89851 0,-8.79678 5.02646,-5.04702 7.03624,5.2323 0.97574,4.99183 3.44105,10.45281 5.41272,12.08841 3.19279,2.64793 3.45375,2.24072 1.98495,-2.70636 -1.93645,-6.51905 -5.6298,-21.72438 -6.31512,-26.16148 -0.35796,-2.31006 -0.0866,-3.73475 0.72169,-3.96933 z m 162.74244,8.47993 c 1.19744,-0.0756 2.49187,0.39606 4.14947,1.44339 2.30249,1.4543 6.70542,2.52588 9.74289,2.52594 5.78338,0 6.75334,2.80543 4.15004,12.62968 -1.83542,6.92868 -4.76954,6.44151 -15.87731,-3.24764 -8.82605,-7.6987 -9.21461,-8.65862 -5.77357,-11.54713 1.48323,-1.24571 2.41104,-1.72861 3.60848,-1.80424 z m 57.19412,1.26297 c 11.26596,-6e-5 16.7266,2.51277 14.07307,6.85611 -0.97227,1.59183 -5.31399,1.99147 -12.08812,1.08254 -11.17936,-1.50009 -20.02735,1.5968 -20.02735,6.85611 0,4.45754 5.99296,5.8566 9.0212,2.16509 2.96242,-3.60963 17.25893,-4.32509 17.68155,-0.90212 0.15012,1.22244 0.3926,3.34353 0.54272,4.87145 0.15011,1.52792 3.65062,3.2254 7.57781,3.60848 8.6309,0.84179 8.91727,3.40681 1.26325,8.47993 -5.08478,3.36974 -5.29956,4.17717 -2.16509,6.49526 1.94166,1.43641 3.60848,4.7819 3.60848,7.39738 -5.7e-4,6.33176 -1.71532,5.97143 -12.62968,-2.52593 -5.08824,-3.96078 -12.79826,-9.75427 -17.14056,-12.81011 -16.52857,-11.63223 -16.81668,-12.07345 -15.33575,-18.04239 1.98783,-8.01262 12.51189,-13.53186 25.6202,-13.5318 z m -346.77492,0.54098 c 0.306,-0.0681 0.66338,0 1.08254,0 2.06405,6e-5 6.20197,2.54643 9.38205,5.95399 5.08363,5.44869 5.95544,8.48749 6.67598,24.53766 0.98612,21.96381 -1.58427,24.80706 -6.49527,7.21696 -1.19455,-4.27815 -4.6483,-14.66336 -7.75852,-22.91384 -4.41851,-11.7226 -5.04783,-14.31672 -2.88678,-14.79477 z m -48.17292,5.23229 c -2.65815,0.66916 -3.57615,3.59705 -0.90241,6.85612 3.55767,4.33618 13.20127,4.25644 18.7641,0 4.07729,-3.11946 4.1102,-3.18008 -1.80424,-3.24764 -3.40237,-0.0404 -8.3584,-1.19039 -10.82544,-2.52593 -1.49709,-0.81049 -2.78113,-1.07394 -3.96933,-1.08255 -0.44456,-0.003 -0.88336,-0.0958 -1.26268,0 z m 153.3604,3.60848 c 1.11603,-0.18764 2.38506,1.00039 3.42777,3.78891 0.79963,2.13905 5.88615,10.92954 11.367,19.48579 9.74751,15.21705 11.05176,20.70217 5.9537,23.99639 -1.3897,0.89808 -3.48262,1.4106 -4.69103,1.26297 -8.38033,-1.02464 -12.08811,-2.55758 -12.08811,-5.05187 0,-1.58375 -1.85274,-5.34563 -4.15004,-8.29951 -2.76843,-3.56044 -3.9191,-7.88063 -3.42777,-12.99052 0.40992,-4.23936 0.82446,-11.00269 0.90183,-14.9752 0.0866,-4.36094 1.27134,-6.97545 2.70665,-7.21696 z m -12.26883,0.18014 c 1.79673,-0.34699 1.239,4.18861 -1.62411,13.71222 -6.31339,20.9987 -5.48085,43.35424 2.16509,65.67434 6.76951,19.76084 7.35091,21.21705 29.22869,44.92557 16.86343,18.27496 32.26443,40.40216 44.20416,64.23095 l 8.1188,16.41858 1.08254,35.54353 c 0.71708,22.97222 0.14434,38.48527 -1.44339,43.84303 -1.84985,6.24636 -1.79905,9.24868 0.17898,12.99053 1.44455,2.72957 1.95031,5.68327 1.08254,6.49526 -0.86776,0.81205 -1.81174,0.24884 -2.34522,-1.26297 -0.53117,-1.51163 -2.83425,-4.99165 -5.05187,-7.75823 -7.24468,-9.03933 -7.31685,-2.12063 -0.17898,12.99053 5.50047,11.64811 6.56166,15.98239 5.05187,20.56833 -3.0242,9.18246 -8.7943,8.77548 -12.81039,-1.08254 -9.26196,-22.73585 -17.0303,-39.80419 -18.7641,-41.67794 -3.11715,-3.37061 -5.34517,0.77706 -2.70607,5.05187 3.97452,6.43845 16.42811,38.58851 15.33575,39.69328 -2.44222,2.47068 -5.69216,-2.64816 -10.10374,-16.05774 -2.60908,-7.93173 -5.69505,-14.6144 -6.6754,-14.61434 -3.68816,6e-5 -4.24358,7.3475 -1.08255,13.5318 3.78111,7.39571 4.26205,13.35132 1.08255,13.35137 -1.20841,-5e-5 -2.29269,-0.88757 -2.3458,-1.80424 -0.0577,-0.91661 -1.28924,-6.69866 -2.88679,-12.8101 -2.463,-9.42194 -2.36427,-12.69342 0.35796,-22.01173 1.81868,-6.21611 2.71069,-14.35482 1.98496,-18.94452 -1.64893,-10.42897 0.10969,-12.38055 6.49526,-6.31484 4.0184,3.81893 5.23201,4.15761 5.23201,1.44339 0,-1.89673 -1.56233,-4.74893 -3.42777,-6.31484 -2.8354,-2.38073 -3.13389,-6.84138 -1.98495,-26.52232 l 1.44339,-23.45512 -8.11879,-12.81011 c -4.4214,-7.02833 -9.16208,-12.81022 -10.46459,-12.8101 -1.30252,-1.2e-4 -0.73036,1.92196 1.26268,4.14975 1.99303,2.22756 5.11769,8.95255 6.85611,14.79477 2.85849,9.60577 2.81634,11.99811 -0.90183,26.70275 -4.65061,18.39026 -10.7781,31.54279 -17.32071,37.52819 -5.29609,4.84455 -5.16214,4.86435 -14.79476,-19.84664 -3.33597,-8.55614 -8.33992,-20.48768 -11.18629,-26.52232 -2.84695,-6.03465 -5.05187,-12.0062 -5.05187,-13.35138 0,-1.3453 -3.65352,-10.94645 -7.93866,-21.29003 -19.6284,-47.37086 -31.57449,-77.68665 -31.57449,-79.56698 0,-1.12741 1.91336,-1.54132 4.33018,-0.90212 6.47794,1.71365 5.21815,-2.8014 -2.16509,-8.11908 -12.39874,-8.93091 -16.40213,-19.01548 -16.4183,-40.05413 0,-20.45102 4.36367,-36.5916 12.08812,-43.66261 6.75566,-6.1843 7.36881,-2.44557 1.4434,9.38205 -10.21691,20.39513 -9.70191,51.25872 1.08254,62.96797 6.17541,6.70462 7.2949,4.01263 3.0675,-6.67568 -6.32899,-15.99827 -3.63562,-44.59926 5.9537,-64.05052 2.82096,-5.72288 6.99756,-10.75668 9.20191,-11.18629 3.16449,-0.61667 3.5519,0.1784 2.16509,3.42806 -0.96592,2.26306 -3.59405,9.5153 -5.95428,16.23816 -5.13386,14.62375 -6.48141,44.87967 -2.16509,49.25575 2.27306,2.30405 2.60388,-0.0289 2.3458,-13.5318 -0.35796,-18.74199 4.04958,-34.80832 12.62968,-46.18855 7.42019,-9.84306 9.72211,-9.08026 5.95371,1.98467 -7.76892,22.80813 -7.36996,56.68985 0.72169,70.54578 5.05822,8.66122 8.5495,8.96652 4.15004,0.36085 -4.15119,-8.11972 -8.64649,-36.24756 -7.21696,-45.46685 1.40587,-9.06906 10.755,-33.01759 14.61406,-37.70861 1.78576,-2.17035 2.97223,-3.27038 3.78919,-3.42806 z m -346.053229,2.88678 c -3.002832,-0.20438 -6.9635,1.66129 -5.773568,3.60848 0.598142,0.97961 3.278232,1.20143 5.773568,0.54099 2.684132,-0.71009 3.693929,-2.06573 2.525936,-3.24763 -0.58313,-0.58943 -1.525377,-0.83423 -2.525936,-0.90212 z M 604.6011,336.8516 c 0.57736,-0.10912 1.06176,0 1.62353,0 5.11653,0 14.25378,5.80232 14.25378,9.0212 0,2.08611 -6.52182,2.12612 -18.0424,0.36085 -3.32326,-0.50923 -6.13441,-1.62919 -6.13441,-2.52594 0,-2.78569 4.2684,-6.09267 8.2995,-6.85611 z m 30.67208,13.35138 c 6.43118,-6e-5 11.61122,9.54515 8.11879,15.15561 -3.26495,5.24437 -7.61303,5.42144 -13.35137,0.54099 -8.09281,-6.88314 -5.23952,-15.69695 5.23258,-15.69689 z m -340.82122,1.08254 c -7.92191,0.23729 -10.22961,2.35475 -6.31455,6.31484 2.93644,2.97096 21.65088,0.47574 21.65088,-2.88678 0,-2.24852 -3.45548,-3.13366 -11.72785,-3.42806 -1.36256,-0.0462 -2.47686,-0.0346 -3.60848,0 z m 315.20101,0.90212 c 0.63163,0.0115 0.92031,0.27598 1.08255,0.54098 0.74767,1.22452 1.14489,2.46953 0.72169,2.70636 -0.42147,0.23672 -4.85845,3.61795 -9.92361,7.57781 -5.06399,3.9598 -10.23018,7.21685 -11.54713,7.21696 -3.22569,0 -5.67369,-6.57384 -3.24763,-8.84077 3.95547,-3.6963 18.48638,-9.30064 22.91413,-9.20163 z m 47.45122,4.69102 c 0.38683,-0.0878 0.84756,0 1.4434,0 4.61192,0 26.88346,17.91879 26.88346,21.65088 0,6.68972 -4.45662,4.82902 -16.95985,-7.03653 -11.4334,-10.8494 -14.09213,-14.00015 -11.36701,-14.61435 z m -589.084055,1.4434 c -3.518412,0.25461 -7.577808,1.64437 -7.577808,3.42805 0,1.22238 2.152964,1.63923 4.87116,0.90212 2.718773,-0.73699 5.698511,-1.24622 6.675976,-1.26297 0.976888,-0.0173 1.188201,-0.92625 0.542716,-1.98466 -0.583708,-0.95408 -2.400073,-1.23525 -4.510889,-1.08254 z m 32.115475,2.88678 c 3.70259,0.0115 8.56624,9.21571 8.11879,15.15562 -0.27713,3.69248 1.35679,12.24325 3.60848,18.94452 4.01609,11.95169 3.72972,19.30531 -0.90183,19.30536 -1.28462,6e-5 -3.10618,-1.83039 -3.7892,-3.96932 -0.68185,-2.13923 -1.77075,-5.38345 -2.34522,-7.21696 -0.85968,-2.74222 -1.3793,-2.6585 -3.96933,0.90212 -1.732068,2.3805 -2.860223,6.04105 -2.345798,7.93865 0.513848,1.89743 1.744198,5.72969 2.525938,8.47993 1.13797,4.0042 0.47343,4.87133 -3.066921,4.87145 -2.430095,0 -5.812251,-1.96048 -7.577808,-4.5106 -4.830167,-6.97557 -12.449545,-2.24205 -12.449545,7.75823 0,9.93348 -4.327866,13.44393 -10.825439,8.84078 -2.713,-1.92243 -6.994678,-3.02455 -9.562183,-2.34552 -4.555923,1.20529 -6.459468,-0.13856 -19.485792,-13.5318 -6.040884,-6.21085 -7.577231,-25.58435 -2.345801,-29.95038 2.148345,-1.79281 3.649473,-2.04148 4.150041,-0.54098 6.114208,18.34141 20.675724,26.24005 38.79087,21.1096 8.434606,-2.38846 10.623943,-4.28404 15.697177,-13.71222 4.929472,-9.16144 5.668491,-13.13643 5.051872,-24.17681 -0.40415,-7.28192 0.0029,-13.35369 0.721699,-13.35138 z m 344.60983,2.34551 c -1.20841,6e-5 -2.16509,0.94271 -2.16509,2.16509 0,1.22244 0.95668,2.16497 2.16509,2.16509 1.20841,0 2.34522,-0.94282 2.34522,-2.16509 0,-1.22221 -1.13681,-2.16515 -2.34522,-2.16509 z m 168.3353,2.88679 2.52594,5.59314 c 3.20259,6.86472 -0.49653,16.6236 -6.85612,17.86198 -3.40236,0.66292 -3.98607,-0.1888 -3.06692,-5.05188 0.99825,-5.28281 0.64953,-6.01796 -4.51088,-5.41272 -4.72221,0.55369 -6.11075,2.01694 -6.6754,7.93866 -0.51962,5.42277 -1.49651,7.39733 -4.69103,7.39738 -5.13674,-5e-5 -5.26376,-0.84334 -0.90241,-7.5778 1.85967,-2.87051 3.05538,-6.40318 2.70665,-7.75824 -0.34641,-1.35505 4.37059,-4.86642 10.46459,-7.75823 l 11.00558,-5.23229 z m -540.008733,0.90212 c -1.44166,0.052 -3.535733,0.41512 -6.134416,1.08254 -4.834208,1.2412 -8.841064,3.25658 -8.841064,4.33018 0,2.56721 2.27825,2.4089 10.645304,-0.54099 7.477348,-2.63696 8.654579,-5.02462 4.330176,-4.87144 z m 580.423703,0.54098 c 1.11199,-0.23325 2.53807,0.89796 4.69103,3.06721 1.59639,1.60938 5.87865,4.65788 9.20191,6.85611 4.8498,3.20814 5.9537,5.8044 5.9537,12.62968 0,9.58176 -3.8117,13.39751 -7.75794,7.93866 -2.34869,-3.24966 -3.00976,-3.12887 -5.23258,1.80424 -1.45263,3.22609 -4.25916,5.4126 -6.85612,5.41272 -2.44279,1.1e-4 -4.33017,1.12319 -4.33017,2.34551 0,2.49961 -4.97104,2.994 -7.21696,0.72169 -2.34234,-2.36953 -1.71533,-29.14849 0.7217,-30.67208 2.48436,-1.55326 3.20837,0.56119 5.41272,13.35138 2.23032,12.93441 5.27588,3.531 3.78919,-11.72756 -0.7292,-7.48243 -0.22517,-11.33929 1.62352,-11.72756 z m -336.67117,8.84078 c -1.08428,0.54387 -1.16453,3.51893 0.35796,7.5778 2.71819,7.23122 7.72561,8.04143 5.59343,0.90212 -0.82158,-2.75018 -2.37582,-5.89568 -3.42834,-7.03653 -0.8083,-0.87597 -1.45379,-1.37821 -1.98438,-1.44339 -0.1963,-0.0231 -0.38683,-0.0779 -0.54271,0 z m -240.324766,0.90212 c -0.893748,-0.0577 -2.060009,0.25057 -3.427767,0.72169 -2.71935,0.93619 -7.447902,1.57549 -10.464592,1.44339 -5.598628,-0.24537 -9.476157,3.09319 -7.397672,6.49527 0.635092,1.03959 2.208967,1.49847 3.60848,0.90212 1.399513,-0.59601 6.293766,-2.29378 10.82544,-3.78891 4.531673,-1.49518 8.299503,-3.76026 8.299503,-4.87144 0,-0.55889 -0.548489,-0.8445 -1.443392,-0.90212 z m 551.736586,4.87144 6.67597,0 0.54272,17.50113 c 0.68705,18.6458 -0.53694,22.34642 -6.49527,18.94452 -3.68296,-2.10296 -3.82845,-4.611 -0.72169,-24.89851 0.51385,-3.36137 0.0808,-5.95405 -1.08255,-5.95399 -1.16453,-6e-5 -2.68182,3.75923 -3.42834,8.47993 -2.00458,12.68193 -4.29092,15.60479 -8.66035,11.18628 -3.21819,-3.25415 -3.06115,-4.45211 1.6241,-14.43392 4.43757,-9.4556 5.85382,-10.82549 11.54714,-10.82544 z m -553.720961,9.7429 c -1.289815,0.14434 -2.735516,0.5329 -4.330176,0.90212 -5.389625,1.24744 -9.151682,3.23112 -8.480216,4.33018 1.103906,1.80579 12.714551,0.25519 16.77972,-2.16509 3.105025,-1.84853 2.450302,-2.91017 -0.542715,-3.06721 -0.89779,-0.0462 -2.13853,-0.14434 -3.428345,0 z m 243.752531,2.88678 c -0.45034,0.16744 -0.79329,1.31003 -0.7217,3.06721 0.10393,2.58881 0.74191,3.21611 1.4434,1.44339 0.63451,-1.6043 0.54848,-3.59173 -0.17898,-4.33017 -0.18476,-0.18476 -0.39261,-0.23614 -0.54272,-0.18014 z m 280.01804,0 c 0.23672,-0.0797 0.34064,0.0289 0.54272,0 1.41163,-0.18764 2.04846,0.85028 1.6241,3.06721 -0.41569,2.17848 -2.16335,4.14346 -3.78919,4.69103 -1.89084,0.63694 -2.65065,-0.35335 -2.16509,-2.88679 0.4157,-2.17848 2.16278,-4.32382 3.78919,-4.87145 z m 5.95428,11.36672 c 0.63163,0.006 0.88278,0.68838 1.44339,2.16508 1.62584,4.28694 -3.69508,9.47195 -5.95428,5.77357 -0.85448,-1.39899 -0.16743,-3.96263 1.62411,-5.77357 1.43762,-1.45436 2.25515,-2.17213 2.88678,-2.16508 z m -292.64772,1.44339 c -1.43184,-0.086 -3.81633,1.20026 -6.85611,3.7889 -2.51266,2.13893 -7.65229,5.676 -11.367,7.75823 -3.71472,2.08207 -6.85611,4.85511 -6.85611,6.13442 0,1.27902 1.1472,2.34545 2.52593,2.34551 3.13736,0 23.99668,-15.82454 23.99668,-18.22282 0,-1.08584 -0.58544,-1.75268 -1.44339,-1.80424 z m 106.63029,17.68155 c -1.2084,0 -1.64893,1.12313 -0.90183,2.34551 0.74595,1.22221 2.40007,2.16497 3.60848,2.16509 1.20841,0 1.64893,-0.94294 0.90183,-2.16509 -0.74652,-1.22232 -2.40007,-2.34563 -3.60848,-2.34551 z m -92.01623,8.11908 -4.14947,4.69102 c -2.90468,3.15381 -6.21293,4.18053 -10.10374,3.42806 -5.5484,-1.07285 -7.8457,3.11547 -3.96933,7.03653 1.8995,1.92087 11.47843,-0.37008 15.33575,-3.60848 1.5173,-1.27376 2.88679,-4.33075 2.88679,-6.85611 l 0,-4.69102 z m 59.35978,3.24763 c -0.51385,-0.0231 -0.95206,0.22632 -1.26326,0.54098 -1.76498,1.78548 26.10923,35.96517 43.48247,53.22508 20.26465,20.13243 27.03012,22.82026 10.64473,4.33018 -6.22737,-7.02828 -18.74331,-21.73564 -27.78529,-33.01759 -13.10254,-16.34913 -21.49211,-24.92409 -25.07865,-25.07894 z M 76.499774,447.09037 c 1.223997,0.18303 1.588886,1.74703 2.345801,5.2323 1.54443,7.11298 -1.986107,59.53039 -5.593432,82.45377 -1.250555,7.94506 -4.619432,23.03555 -7.757944,33.73928 -3.138511,10.70362 -5.043789,20.20559 -4.15004,21.10961 2.020171,2.04309 15.659648,-13.3027 30.311231,-33.73929 3.203176,-4.4666 8.299504,-3.1168 8.299504,2.16509 0,1.71839 -1.424339,7.39219 -3.066919,12.62968 -1.643735,5.23738 -4.076139,13.51396 -5.41272,18.40325 -3.848083,14.07249 -19.033721,35.65628 -32.115472,45.64727 -13.593288,10.38151 -15.08691,14.03139 -14.97548,39.8737 0.138566,31.93407 10.357204,52.72353 33.558863,68.56112 13.899288,9.48736 14.574218,9.7825 28.506994,8.84078 15.78378,-1.06701 32.90645,-7.73491 40.95653,-15.87731 3.22165,-3.25895 6.65981,-11.69564 9.20134,-21.83131 2.63217,-10.49756 5.43408,-16.70535 7.57781,-17.14028 6.15982,-1.2494 6.39942,3.94878 0.54271,21.29003 -7.65113,22.65006 -16.87036,32.66402 -35.90408,38.61074 -7.69848,2.40527 -20.16708,4.33012 -27.60517,4.33018 -12.367554,5e-5 -14.747996,-0.83169 -28.146138,-9.92332 -17.012395,-11.54483 -23.534217,-19.45704 -31.032927,-37.88904 -9.060461,-22.27102 -9.726153,-55.27845 -1.623528,-85.7014 1.139125,-4.2781 5.817447,-20.73623 10.103744,-36.62607 12.473216,-46.24848 18.583383,-84.23647 18.583383,-114.56924 0,-23.81019 0.346414,-26.62908 4.150041,-28.68742 1.361407,-0.73693 2.512656,-1.01181 3.247632,-0.90212 z m 256.743636,0.90241 c -1.01384,6e-5 -2.09696,6.01745 -2.16509,13.35138 -0.0982,10.54646 0.76731,13.17089 3.42777,13.17095 2.73783,6e-5 2.94105,-1.7114 1.80424,-10.10374 -0.76846,-5.67086 -1.26268,-11.68853 -1.26268,-13.35138 0,-1.6629 -0.79098,-3.06726 -1.80424,-3.06721 z m 23.81597,33.19802 c -2.67028,-6e-5 -5.19679,8.29205 -3.42835,11.18629 2.68702,4.39865 5.59344,2.04823 5.59344,-4.5106 0,-3.66703 -1.03867,-6.67575 -2.16509,-6.67569 z m 68.01956,21.29003 c -5.94043,0.27713 -17.57359,3.88376 -16.4183,5.77357 0.65876,1.07798 3.30652,1.84748 5.9537,1.80424 6.094,-0.0999 15.93505,-5.48916 13.17124,-7.21696 -0.56581,-0.35277 -1.33542,-0.42494 -2.70664,-0.36085 z m 12.26883,12.08841 c -6.27703,-1.2e-4 -23.31944,4.94512 -22.37258,6.49526 1.56175,2.5555 23.94357,-0.68191 24.89851,-3.60848 0.49653,-1.5278 -0.54271,-2.8869 -2.52593,-2.88678 z m 10.46459,10.10374 c -2.20031,-0.052 -5.65521,0.88873 -10.10374,3.06721 -5.30476,2.59782 -11.24518,4.69097 -13.35138,4.69102 -2.10678,0 -3.27246,1.12314 -2.52594,2.34552 2.48264,4.06337 17.74333,2.44949 23.99668,-2.52594 5.72681,-4.55714 5.65175,-7.48947 1.98438,-7.57781 z m 4.33017,23.2747 c -1.79788,1.1e-4 -20.56833,11.37012 -20.56833,12.44925 0,1.75424 4.44969,0.82343 13.17124,-2.70636 4.85788,-1.96624 8.84049,-4.97502 8.84049,-6.67569 0,-1.70089 -0.7523,-3.06726 -1.4434,-3.0672 z M 77.22147,593.41452 c -2.737825,0.22113 -25.620207,24.71832 -25.620207,27.60488 0,4.49137 3.952007,2.57143 11.727848,-6.13442 9.399369,-10.52406 15.676969,-20.03064 14.253207,-21.47046 -0.05773,-0.0462 -0.271357,-0.006 -0.357961,0 z m 310.14914,17.32071 c -1.14144,0.0404 -0.72401,2.1182 1.08254,6.67569 1.61141,4.06655 3.76783,9.10243 4.69103,11.54713 0.92319,2.44465 2.04153,3.4489 2.52593,2.16509 1.29848,-3.44445 -4.64195,-19.39792 -7.57781,-20.38791 -0.21939,-0.0751 -0.56003,-0.006 -0.72169,0 z m -15.51646,14.97519 c -3.18817,6e-5 -1.89835,8.91289 2.70607,18.0424 2.50111,4.95897 5.23605,8.48391 5.95428,7.75823 1.69916,-1.71943 -6.38268,-25.80069 -8.66035,-25.80063 z m -15.51647,5.2323 c -1.90701,0.43648 -2.10158,13.39034 0,15.51646 0.82562,0.83532 2.37409,0.70495 3.42777,-0.36085 2.17028,-2.19499 -0.0924,-13.1161 -3.06692,-14.97519 -0.13857,-0.0889 -0.23094,-0.20958 -0.35796,-0.18014 z m -12.99053,2.34551 c -1.03404,-0.052 -1.80424,2.12259 -1.80424,5.59314 0,3.73914 0.95668,6.85611 2.16509,6.85611 1.20783,-5e-5 2.34523,-2.42923 2.34523,-5.41272 0,-2.98366 -1.13682,-6.10075 -2.34523,-6.85611 -0.16166,-0.10046 -0.21362,-0.17321 -0.35796,-0.18013 z"
     id="path9106" />
</svg>
