<?xml version="1.0" encoding="UTF-8" standalone="no"?>
<!-- Created with Inkscape (http://www.inkscape.org/) -->

<svg
   xmlns:dc="http://purl.org/dc/elements/1.1/"
   xmlns:cc="http://creativecommons.org/ns#"
   xmlns:rdf="http://www.w3.org/1999/02/22-rdf-syntax-ns#"
   xmlns:svg="http://www.w3.org/2000/svg"
   xmlns="http://www.w3.org/2000/svg"
   xmlns:sodipodi="http://sodipodi.sourceforge.net/DTD/sodipodi-0.dtd"
   xmlns:inkscape="http://www.inkscape.org/namespaces/inkscape"
   width="1000"
   height="1000"
   id="svg2"
   version="1.1"
   inkscape:version="0.47 r22583"
   sodipodi:docname="W.svg">
  <defs
     id="defs4">
    <inkscape:perspective
       sodipodi:type="inkscape:persp3d"
       inkscape:vp_x="0 : 526.18109 : 1"
       inkscape:vp_y="0 : 1000 : 0"
       inkscape:vp_z="744.09448 : 526.18109 : 1"
       inkscape:persp3d-origin="372.04724 : 350.78739 : 1"
       id="perspective10" />
    <inkscape:perspective
       id="perspective2940"
       inkscape:persp3d-origin="0.5 : 0.33333333 : 1"
       inkscape:vp_z="1 : 0.5 : 1"
       inkscape:vp_y="0 : 1000 : 0"
       inkscape:vp_x="0 : 0.5 : 1"
       sodipodi:type="inkscape:persp3d" />
    <inkscape:perspective
       id="perspective2953"
       inkscape:persp3d-origin="0.5 : 0.33333333 : 1"
       inkscape:vp_z="1 : 0.5 : 1"
       inkscape:vp_y="0 : 1000 : 0"
       inkscape:vp_x="0 : 0.5 : 1"
       sodipodi:type="inkscape:persp3d" />
    <inkscape:perspective
       id="perspective2966"
       inkscape:persp3d-origin="0.5 : 0.33333333 : 1"
       inkscape:vp_z="1 : 0.5 : 1"
       inkscape:vp_y="0 : 1000 : 0"
       inkscape:vp_x="0 : 0.5 : 1"
       sodipodi:type="inkscape:persp3d" />
    <inkscape:perspective
       id="perspective2979"
       inkscape:persp3d-origin="0.5 : 0.33333333 : 1"
       inkscape:vp_z="1 : 0.5 : 1"
       inkscape:vp_y="0 : 1000 : 0"
       inkscape:vp_x="0 : 0.5 : 1"
       sodipodi:type="inkscape:persp3d" />
    <inkscape:perspective
       id="perspective2992"
       inkscape:persp3d-origin="0.5 : 0.33333333 : 1"
       inkscape:vp_z="1 : 0.5 : 1"
       inkscape:vp_y="0 : 1000 : 0"
       inkscape:vp_x="0 : 0.5 : 1"
       sodipodi:type="inkscape:persp3d" />
    <inkscape:perspective
       id="perspective3005"
       inkscape:persp3d-origin="0.5 : 0.33333333 : 1"
       inkscape:vp_z="1 : 0.5 : 1"
       inkscape:vp_y="0 : 1000 : 0"
       inkscape:vp_x="0 : 0.5 : 1"
       sodipodi:type="inkscape:persp3d" />
    <inkscape:perspective
       id="perspective3018"
       inkscape:persp3d-origin="0.5 : 0.33333333 : 1"
       inkscape:vp_z="1 : 0.5 : 1"
       inkscape:vp_y="0 : 1000 : 0"
       inkscape:vp_x="0 : 0.5 : 1"
       sodipodi:type="inkscape:persp3d" />
    <inkscape:perspective
       id="perspective3031"
       inkscape:persp3d-origin="0.5 : 0.33333333 : 1"
       inkscape:vp_z="1 : 0.5 : 1"
       inkscape:vp_y="0 : 1000 : 0"
       inkscape:vp_x="0 : 0.5 : 1"
       sodipodi:type="inkscape:persp3d" />
    <inkscape:perspective
       id="perspective3044"
       inkscape:persp3d-origin="0.5 : 0.33333333 : 1"
       inkscape:vp_z="1 : 0.5 : 1"
       inkscape:vp_y="0 : 1000 : 0"
       inkscape:vp_x="0 : 0.5 : 1"
       sodipodi:type="inkscape:persp3d" />
    <inkscape:perspective
       id="perspective3057"
       inkscape:persp3d-origin="0.5 : 0.33333333 : 1"
       inkscape:vp_z="1 : 0.5 : 1"
       inkscape:vp_y="0 : 1000 : 0"
       inkscape:vp_x="0 : 0.5 : 1"
       sodipodi:type="inkscape:persp3d" />
    <inkscape:perspective
       id="perspective3070"
       inkscape:persp3d-origin="0.5 : 0.33333333 : 1"
       inkscape:vp_z="1 : 0.5 : 1"
       inkscape:vp_y="0 : 1000 : 0"
       inkscape:vp_x="0 : 0.5 : 1"
       sodipodi:type="inkscape:persp3d" />
    <inkscape:perspective
       id="perspective3083"
       inkscape:persp3d-origin="0.5 : 0.33333333 : 1"
       inkscape:vp_z="1 : 0.5 : 1"
       inkscape:vp_y="0 : 1000 : 0"
       inkscape:vp_x="0 : 0.5 : 1"
       sodipodi:type="inkscape:persp3d" />
    <inkscape:perspective
       id="perspective3096"
       inkscape:persp3d-origin="0.5 : 0.33333333 : 1"
       inkscape:vp_z="1 : 0.5 : 1"
       inkscape:vp_y="0 : 1000 : 0"
       inkscape:vp_x="0 : 0.5 : 1"
       sodipodi:type="inkscape:persp3d" />
    <inkscape:perspective
       id="perspective3109"
       inkscape:persp3d-origin="0.5 : 0.33333333 : 1"
       inkscape:vp_z="1 : 0.5 : 1"
       inkscape:vp_y="0 : 1000 : 0"
       inkscape:vp_x="0 : 0.5 : 1"
       sodipodi:type="inkscape:persp3d" />
    <inkscape:perspective
       id="perspective3122"
       inkscape:persp3d-origin="0.5 : 0.33333333 : 1"
       inkscape:vp_z="1 : 0.5 : 1"
       inkscape:vp_y="0 : 1000 : 0"
       inkscape:vp_x="0 : 0.5 : 1"
       sodipodi:type="inkscape:persp3d" />
    <inkscape:perspective
       id="perspective3135"
       inkscape:persp3d-origin="0.5 : 0.33333333 : 1"
       inkscape:vp_z="1 : 0.5 : 1"
       inkscape:vp_y="0 : 1000 : 0"
       inkscape:vp_x="0 : 0.5 : 1"
       sodipodi:type="inkscape:persp3d" />
    <inkscape:perspective
       id="perspective3148"
       inkscape:persp3d-origin="0.5 : 0.33333333 : 1"
       inkscape:vp_z="1 : 0.5 : 1"
       inkscape:vp_y="0 : 1000 : 0"
       inkscape:vp_x="0 : 0.5 : 1"
       sodipodi:type="inkscape:persp3d" />
    <inkscape:perspective
       id="perspective3161"
       inkscape:persp3d-origin="0.5 : 0.33333333 : 1"
       inkscape:vp_z="1 : 0.5 : 1"
       inkscape:vp_y="0 : 1000 : 0"
       inkscape:vp_x="0 : 0.5 : 1"
       sodipodi:type="inkscape:persp3d" />
    <inkscape:perspective
       id="perspective2866"
       inkscape:persp3d-origin="0.5 : 0.33333333 : 1"
       inkscape:vp_z="1 : 0.5 : 1"
       inkscape:vp_y="0 : 1000 : 0"
       inkscape:vp_x="0 : 0.5 : 1"
       sodipodi:type="inkscape:persp3d" />
    <inkscape:perspective
       id="perspective2856"
       inkscape:persp3d-origin="0.5 : 0.33333333 : 1"
       inkscape:vp_z="1 : 0.5 : 1"
       inkscape:vp_y="0 : 1000 : 0"
       inkscape:vp_x="0 : 0.5 : 1"
       sodipodi:type="inkscape:persp3d" />
    <inkscape:perspective
       id="perspective2870"
       inkscape:persp3d-origin="0.5 : 0.33333333 : 1"
       inkscape:vp_z="1 : 0.5 : 1"
       inkscape:vp_y="0 : 1000 : 0"
       inkscape:vp_x="0 : 0.5 : 1"
       sodipodi:type="inkscape:persp3d" />
  </defs>
  <sodipodi:namedview
     id="base"
     pagecolor="#ffffff"
     bordercolor="#666666"
     borderopacity="1.0"
     inkscape:pageopacity="0.0"
     inkscape:pageshadow="2"
     inkscape:zoom="0.75248824"
     inkscape:cx="368.57813"
     inkscape:cy="600.00625"
     inkscape:document-units="px"
     inkscape:current-layer="svg2"
     showgrid="false"
     showborder="true"
     inkscape:showpageshadow="false"
     showguides="true"
     inkscape:guide-bbox="true"
     inkscape:window-width="1280"
     inkscape:window-height="750"
     inkscape:window-x="0"
     inkscape:window-y="26"
     inkscape:window-maximized="1">
    <sodipodi:guide
       orientation="0,1"
       position="0,200"
       id="guide2818" />
  </sodipodi:namedview>
  <metadata
     id="metadata7">
    <rdf:RDF>
      <cc:Work
         rdf:about="">
        <dc:format>image/svg+xml</dc:format>
        <dc:type
           rdf:resource="http://purl.org/dc/dcmitype/StillImage" />
        <dc:title />
      </cc:Work>
    </rdf:RDF>
  </metadata>
  <g
     inkscape:label="Layer 1"
     inkscape:groupmode="layer"
     id="layer1" />
  <path
     style="fill:#800000"
     d="m 725.99089,0.01250763 c -0.30138,0.01732036 -0.71105,0.13784532 -1.06249,0.18749706 l -718.7409776,0 L 0,0.20000469 0,6.4186575 0,793.78135 0,800 l 6.1874224,0 724.7409076,0 6.21867,0 0,-6.21865 0,-787.3626925 0,-6.21865281 -6.21867,0 -2.99996,0 C 727.31701,0.02391422 726.73971,-0.0267519 725.99089,0.01250763 z M 303.52744,12.63731 l 421.05722,0 c 0.10912,0.653729 0.0881,1.747698 0.15625,2.656208 l 0,15.093515 c -0.10219,2.479469 -0.17574,4.862891 -0.34375,7.812378 -1.41138,24.724315 -0.97942,358.780009 0.34375,548.928919 l 0,200.43436 -55.56181,0 c -86.55606,-1.06375 -241.02391,-1.09568 -332.21458,0 l -314.121057,0 c -2.007495,-1.04279 -3.57309,-1.99754 -4.78119,-2.8437 -0.643569,-0.4509 -1.4166,-0.93138 -1.59373,-1.21873 -0.62394,-1.01336 -1.241901,-12.26229 -1.249984,-24.68711 -0.0058,-12.42466 -0.0022,-72.81937 0,-134.40415 0.0017,-61.58473 -0.356126,-130.80423 -0.874989,-153.7476 -0.99096,-43.82343 -1.674815,-125.01174 -2.124973,-206.12178 l 0,-235.746312 c 0.137986,-5.828308 0.337254,-9.965469 0.531243,-10.312339 2.055646,-3.68514 9.039168,-3.920667 111.3111,-4.593678 78.34948,-0.51557 121.57274,-0.830307 179.4665,-1.249981 z M 86.905159,23.824635 c -37.585849,0.755514 -63.075997,1.338302 -63.71795,1.93747 -1.426279,1.33084 -2.064647,97.439505 -1.781228,278.214395 0.490746,313.21814 2.105326,462.96529 5.312434,474.02384 l 691.116325,0 0,-5.53116 c 0.41974,-4.30642 0.43648,-11.76452 0,-22.3434 l 0,-2.84371 c -0.0612,-1.48153 -0.0783,-2.67714 -0.15625,-4.28118 -1.80749,-37.23915 -5.37396,-549.82566 -4.43744,-637.33379 0.3874,-36.226193 0.0718,-71.165114 -0.71874,-77.592531 l -0.53124,-4.249934 -625.085911,0 z M 285.27767,74.542592 c 0.51706,-0.015 1.0502,0.05815 1.62498,0.0625 9.19639,0.07852 22.42975,7.313766 27.06216,16.499743 8.1152,16.091835 5.42584,32.357735 -7.06241,42.249335 -4.55799,3.60962 -8.08574,4.36185 -16.46854,3.56245 -13.12629,-1.25215 -16.95925,-5.05992 -18.40602,-17.93722 -1.34424,-11.967 -4.12629,-12.75659 -16.09355,-4.43744 -11.01094,7.65388 -19.32912,28.26871 -19.31226,47.56176 0.0173,20.30445 7.80025,70.92573 16.46854,106.34208 4.19651,17.14349 8.29075,37.85954 9.03114,45.81179 0.73958,7.95189 1.89909,14.81175 2.65622,15.28102 0.75725,0.46938 5.4444,-0.25682 10.43737,-1.59373 7.56244,-2.02498 10.44848,-1.79747 17.53103,1.40623 25.27558,11.43352 21.60668,54.65084 -5.31244,61.96778 -2.70903,0.73628 -7.79708,1.98496 -7.79708,3.73033 4.53084,50.9487 8.04073,79.51294 9.76705,110.45133 1.72632,30.93839 1.66908,64.25094 5.18619,111.43981 0.38397,0.38494 20.57361,-77.6529 33.04632,-120.30759 12.4727,-42.65467 15.25181,-51.90284 33.71437,-119.52089 12.07156,65.19746 10.89847,74.26188 17.18789,119.07011 6.28942,44.80823 15.67517,127.10202 15.67517,127.10202 0,0 7.98282,-60.98317 20.65689,-119.55346 12.67409,-58.57029 30.0394,-114.72774 27.40501,-114.00539 -17.47547,4.7918 -26.44024,1.67834 -32.90584,-11.71856 -4.68933,-9.71853 -3.88435,-15.59437 3.18746,-29.31205 3.28534,-6.37315 13.30265,-11.30056 22.65597,-11.34357 4.00829,-0.0173 18.03102,6.98395 18.03102,9.03111 6e-5,0.98368 1.56931,1.78122 3.37496,1.78122 1.80543,6e-5 3.18746,-0.29619 3.18746,-0.87498 0,-1.48009 11.99907,-44.50124 19.46851,-69.40517 26.72149,-89.08983 32.63387,-127.38003 22.31222,-146.46646 -6.566,-12.1417 -24.18455,-22.56215 -38.40577,-22.56215 -10.95252,-6e-5 -12.10086,1.82011 -5.49993,7.81239 2.89753,2.63038 4.24994,6.60396 4.24994,12.0623 -6e-5,11.42181 -9.48439,19.71844 -22.84346,19.71844 -8.97291,0 -9.88338,-0.59042 -15.7498,-10.46858 -8.55652,-14.40634 -8.44726,-27.20804 0.1875,-38.530646 12.40898,-16.27255 31.99409,-20.18546 57.87427,-11.718567 l 15.9373,5.312419 5.65618,-5.124923 c 3.06243,-2.847296 5.79674,-5.343666 6.18742,-5.343666 0.39087,1.16e-4 5.17286,3.238642 10.62487,7.093639 9.78055,6.915621 10.09362,7.190987 10.09362,19.530944 1.2e-4,14.68289 4.31891,21.5007 13.96858,22.2184 5.12182,0.38106 7.2005,-0.80795 10.62486,-6.59364 3.70941,-6.26727 4.0067,-8.15594 1.59373,-13.99978 -2.68287,-6.49682 -2.63618,-7.01742 6.53117,-14.937272 l 9.56238,-7.968625 9.37488,3.187451 c 8.59295,3.099827 10.68047,3.280157 24.2497,-0.187498 18.16543,-4.641976 32.60584,-3.035047 46.03067,5.499915 10.74826,6.833629 13.94196,15.403659 10.96861,28.937049 -2.51914,11.4651 -6.65739,17.86536 -14.68731,22.03091 -7.56667,3.9248 -15.1165,2.65537 -21.93723,-3.7187 -3.71303,-3.47001 -4.64922,-6.40594 -4.0937,-13.49979 0.66073,-8.43381 0.30433,-9.3078 -5.12493,-9.93734 -16.09685,-1.8664 -41.00645,22.72901 -60.53049,59.28032 -11.80151,22.0941 -26.22036,57.67857 -47.43691,118.24815 -5.71044,16.30188 -12.78997,35.83592 -15.7498,43.49932 -2.95982,7.66346 -4.89877,14.59875 -4.24995,15.24977 0.64935,0.65107 3.71948,-0.47681 6.74992,-2.46871 4.09051,-2.68866 7.91504,-3.23343 14.84356,-2.12498 12.19029,1.94988 20.72526,10.67903 22.65597,23.59339 4.62559,30.94117 -23.43671,46.38321 -47.24941,25.93709 -4.93471,-4.23708 -9.73686,-6.94271 -10.62487,-5.87491 l -65.84292,309.52641 -35.4683,-0.99998 -20.156,-173.62229 c -8.12187,0.0387 -39.28918,150.97666 -49.78063,176.96599 -18.30201,0.64131 -31.94852,2.38339 -33.40473,0.15405 -11.59791,-101.94715 -12.72663,-171.16008 -31.09446,-295.33694 -2.29265,-7.67443 -5.38449,-14.65012 -6.87491,-15.24976 -1.4895,-0.59974 -6.90669,1.56302 -12.06235,4.59368 -7.98229,4.69289 -10.83407,5.39263 -18.93726,3.90619 -25.66518,-4.7078 -32.32388,-33.28627 -13.43733,-56.81162 6.37628,-7.94248 8.99565,-9.44961 18.06227,-10.65607 5.83092,-0.77597 10.43737,-1.88997 10.43737,-2.65621 1.7e-4,-3.33194 -35.05653,-103.78728 -41.06199,-117.68566 -3.6475,-8.44185 -7.40174,-17.94955 -8.31239,-20.96843 -2.88056,-9.55213 -20.21255,-45.20362 -25.12469,-51.46795 -5.14318,-6.55916 -27.47218,-17.39142 -32.06209,-15.62474 -1.56906,0.60424 -2.81247,4.10303 -2.81247,7.81237 2.4e-4,22.98893 -34.969896,32.29168 -50.436865,13.46854 -7.573011,-9.21554 -8.130866,-15.29959 -3.031212,-33.53072 2.839106,-10.15112 5.208762,-13.62119 11.687353,-18.124724 12.766426,-8.874786 31.44937,-7.480146 56.811784,4.437434 8.93579,4.19868 17.98724,2.73434 34.34332,-5.31242 15.69768,-7.722752 17.18496,-6.062296 14.15607,15.781 -1.90431,13.73455 -1.70008,18.06864 0.87499,23.81213 5.94236,13.2546 8.84038,15.49637 18.59352,13.84353 8.10596,-1.37408 9.33593,-2.49678 14.68732,-13.84353 5.17759,-10.97972 5.59278,-14.14228 4.43744,-27.87456 -0.71481,-8.50032 -0.49586,-16.804842 0.53124,-18.468465 1.47554,-2.390963 5.84304,-2.664741 20.531,-1.437478 17.26488,1.442673 19.36503,1.200534 29.71837,-4.062436 6.12769,-3.114781 12.13872,-5.687411 13.46858,-5.687411 1.32987,-1.16e-4 3.81762,-1.531251 5.65618,-3.374947 1.29592,-1.300414 3.19253,-2.17871 5.31244,-2.468712 0.17664,-0.02425 0.32763,-0.0575 0.49999,-0.0625 z m 80.56149,50.280468 c 10.51374,-0.2321 21.75067,1.67142 28.46839,5.15616 7.74004,4.01469 8.25011,6.28628 0.90624,4.43744 -9.23842,-2.32624 -6.10953,1.67788 5.65618,7.28113 13.14094,6.25826 16.75498,10.79628 18.40602,24.15588 0.67134,5.43398 0.73439,8.7175 0,6.90614 -6.0468,-14.91469 -11.25731,-22.77798 -16.62479,-25.5621 -9.0557,-4.69758 -13.1532,-3.82919 -5.15619,1.06248 8.58054,5.24866 14.89096,15.32607 19.8435,32.312 l 3.87495,13.31228 14.34357,-2.6562 c 19.39478,-3.47332 24.96621,-6.40115 30.62462,-16.49974 2.63657,-4.70566 6.27387,-8.87486 8.1249,-8.87486 2.86289,6e-5 3.12079,2.61325 1.78123,16.15599 -2.03568,20.57719 -6.95274,30.18951 -19.28101,37.43692 -10.95401,6.43936 -12.36939,6.74222 -23.18721,2.68745 l -7.62491,-2.8437 6.03118,-2.49996 c 3.38874,-1.34793 6.93465,-2.46871 7.78115,-2.46871 0.84588,6e-5 5.06946,-2.43739 9.56238,-5.49991 8.4108,-5.73299 11.72159,-13.82431 4.4062,-10.84359 -2.10663,0.85823 -9.12901,2.18286 -15.74981,3.0312 -12.67255,1.62385 -21.04225,5.20345 -25.84342,10.99983 -2.44379,2.94996 -2.89833,1.95988 -1.74998,-6.40615 0.74576,-5.43409 2.29461,-10.82092 3.34371,-11.87482 1.07201,-1.07668 1.05671,-3.96879 0,-6.59364 -1.0338,-2.56884 -2.50533,-8.0234 -3.18746,-12.24981 -1.934,-11.98472 -8.50056,-21.33272 -17.49978,-24.31211 -7.56118,-2.50338 -8.54047,-2.2308 -16.81229,4.43742 l -8.68739,6.9374 -5.99993,-5.49992 c -9.66798,-9.22298 -16.14093,-9.56107 -26.21842,-1.43748 -5.69542,4.59146 -9.4486,10.05887 -10.78111,15.28101 -1.67362,6.55882 -2.31234,7.22149 -3.71871,3.9062 -1.06421,-2.50817 -0.35107,-7.28011 1.93748,-12.09356 3.75039,-7.88904 3.52316,-10.95392 -0.68749,-8.34363 -1.28403,0.79587 -2.31247,3.90148 -2.31247,6.93739 1.1e-4,4.1024 -1.06,5.38335 -3.9062,4.78119 -2.16512,-0.45784 -4.84084,1.2114 -6.34367,3.74994 -2.61983,4.42655 -2.76722,4.39097 -2.84372,-0.53125 -0.052,-3.34734 1.83256,-5.72615 5.49993,-7.12489 3.00942,-1.14799 5.44224,-3.88816 5.46868,-6.03115 0.0289,-2.14334 1.8957,-6.38727 4.24995,-9.40611 2.35413,-3.01893 4.41048,-6.44939 4.43744,-7.81237 0.0462,-2.44184 1.53383,-3.2573 22.65597,-10.81234 4.58293,-1.63925 10.50396,-2.5482 16.81229,-2.68745 z m 309.43362,24.03087 c 0.2146,-0.003 0.35374,0.041 0.43749,0.125 0.67059,0.67219 -1.7243,5.48382 -5.12493,10.65609 -5.92452,9.01104 -5.99993,10.47443 -5.99993,35.84319 -6e-5,17.18862 -1.06335,28.12878 -2.84371,31.2495 -3.47552,6.0932 -0.75271,8.05976 9.03113,6.21865 4.21089,-0.7924 8.0764,-0.52653 8.84364,0.71874 0.74628,1.21151 -3.72135,7.77436 -9.90612,14.56228 -11.495,12.61685 -12.61945,17.41433 -2.99997,12.2498 4.19541,-2.25222 6.02272,-2.41112 8.46865,-0.37499 5.54335,4.61461 -1.8854,14.64826 -19.62476,26.65584 -8.92324,6.04013 -16.28104,12.16469 -16.28104,13.31229 -6e-5,1.14794 2.45926,2.61723 5.46868,3.37494 7.48566,1.88475 6.7137,4.80304 -2.12497,9.03111 -9.92819,4.74908 -12.3283,10.96944 -13.78108,35.3432 -1.2159,20.39618 -1.2648,20.62626 -13.99983,40.99936 -7.03948,11.26159 -12.74984,21.49071 -12.74984,22.56215 -1.7e-4,1.0715 -1.20078,3.16487 -2.65621,4.62492 -4.79089,4.80584 -10.51142,37.81602 -8.1249,47.03052 2.57255,9.9315 5.2832,10.5173 7.06241,1.59372 1.28258,-6.43081 6.46024,-8.9148 9.21864,-4.43742 0.7442,1.20751 2.25088,2.12496 3.5312,2.12496 1.37305,1.7e-4 1.24174,-1.37372 -0.53124,-3.5312 -2.75129,-3.34953 -2.24356,-3.47165 7.78115,-2.31246 l 10.99986,1.06249 -8.15615,-3.56245 c -4.50793,-2.00599 -8.30644,-4.23775 -8.31239,-4.96868 -0.006,-0.73108 5.17969,-2.74841 11.49985,-4.59367 l 11.49986,-3.37495 -14.49982,-0.1875 c -12.71873,-0.224 -14.84646,0.29363 -17.87477,4.62494 -2.61567,3.74114 -3.87432,4.24209 -5.31244,2.12496 -2.15824,-3.17742 -0.89464,-15.81225 1.59373,-15.81225 0.89847,-6e-5 5.12295,-2.41801 9.37489,-5.31242 13.28084,-9.04118 18.95058,-9.18572 30.24962,-0.53124 8.92071,6.83242 10.13199,8.33363 9.21863,14.90601 -0.55829,4.01833 -2.26225,8.532 -3.53121,10.12485 -1.71887,2.15788 -0.8065,4.24473 3.34371,7.81237 12.78669,10.99141 22.48364,33.34818 17.18729,39.74938 -4.04386,4.88839 -9.54551,4.13249 -15.40606,-2.12496 -2.8268,-3.01911 -6.31883,-5.49991 -7.6249,-5.49991 -1.30597,-1.1e-4 -3.62158,-2.02228 -5.12494,-4.43744 -3.0167,-4.84503 -11.9519,-5.67102 -21.24973,-2.12496 -4.37936,1.6702 -5.44502,3.44712 -5.12494,8.15612 0.2269,3.34266 -0.22106,8.08881 -1.06249,10.65608 -1.12715,3.43862 -0.55418,4.9155 2.31248,5.68741 2.28254,0.61466 5.3973,5.53827 7.59365,11.87482 4.00096,11.54357 17.65058,29.49953 22.49972,29.49953 2.92952,6e-5 7.78115,-16.86905 7.78115,-27.34332 -5e-5,-2.88817 1.10876,-6.00367 2.31247,-6.7499 1.22375,-0.7588 2.09373,0.99931 2.09373,3.9062 6e-5,2.85935 1.2627,7.04945 2.84371,9.2186 2.67647,3.67157 3.9316,3.01778 17.87478,-7.43738 8.23759,-6.17696 15.39672,-10.66743 15.9373,-10.12484 0.54097,0.5427 -2.13749,5.37356 -6.03118,10.81233 -4.1714,5.82623 -6.62114,11.46643 -5.84368,13.49979 1.53229,4.00586 10.29107,7.62488 18.06228,7.62488 6.93239,-6e-5 9.55711,6.37324 3.9062,9.4061 -2.29276,1.23039 -8.58286,6.8699 -13.99983,12.43731 -7.49755,7.70565 -10.92243,13.70001 -14.68731,25.5621 -4.78251,15.06855 -7.30631,40.96503 -4.24995,44.03056 0.82128,0.82415 3.80079,-0.58483 6.56242,-3.18745 7.72104,-7.276 17.04604,-8.45432 22.28097,-2.65621 6.65116,7.36712 7.5475,39.73777 1.43748,53.59291 -2.461,5.58092 -6.05681,10.82632 -7.96865,11.56232 -4.22751,1.62674 -11.77532,-4.68539 -15.21856,-12.78105 -2.13948,-5.02845 -2.47787,-2.49136 -2.65621,16.49975 -0.19976,21.31052 -0.64128,23.14733 -9.21864,42.24934 -4.95809,11.04167 -9.53968,23.25158 -10.24987,26.81208 l 0,0.34374 -10.96861,0 c -2.68761,-1.01775 -8.08057,-1.64815 -18.06228,-2.28121 -11.13755,-0.70621 -20.53263,-1.62518 -21.06223,-2.15622 -0.52942,-0.53117 3.16852,-5.59587 8.31239,-10.99983 13.34563,-14.01866 20.17589,-25.23847 26.18718,-42.96808 8.65288,-25.51908 8.84545,-30.56772 2.31247,-51.31169 -3.20405,-10.17509 -8.23514,-21.72033 -11.15611,-25.56211 -5.38655,-7.08333 -22.9002,-16.156 -31.15586,-16.156 -2.4856,-1.2e-4 -4.59369,-0.99318 -4.59369,-2.12496 0,-4.0558 18.68935,-1.77558 29.21838,3.56244 5.83728,2.95947 11.12749,4.99914 11.68735,4.43744 0.56003,-0.56175 0.2834,-4.70658 -0.53124,-9.06236 -2.17256,-11.61667 -12.17633,-23.95987 -23.90595,-29.65579 -8.56656,-4.15983 -12.40211,-4.68167 -23.37471,-3.53119 -7.21673,0.75655 -16.19011,2.73836 -19.99975,4.43742 -14.24213,6.35173 -22.53693,5.64446 -32.03084,-2.68745 -9.04842,-7.94082 -24.72282,-16.02043 -33.43709,-17.21849 -8.322,-1.14435 -11.92504,-0.0576 -25.65592,6.7499 -8.83734,4.38096 -16.34199,7.59653 -16.81229,7.12489 -0.9334,-0.93646 8.8056,-17.90958 20.68724,-35.87444 10.10988,-15.2857 8.45008,-21.58663 -9.03114,-34.81196 -4.54724,-3.44017 -7.81134,-6.49962 -7.40616,-6.90613 0.99922,-1.00227 21.91874,6.97072 32.90584,12.59354 4.89671,2.5054 12.34151,8.17688 16.62479,12.24981 11.6212,11.05231 12.19011,8.74339 1.78123,-6.5624 -8.48735,-12.48013 -9.33612,-14.79698 -9.21863,-26.81208 0.0854,-8.79488 1.73669,-16.64537 4.96868,-23.59338 2.6662,-5.73165 5.88447,-12.9657 7.09366,-16.15599 3.85715,-10.17561 4.47554,-4.0553 1.06249,10.46858 -5.86746,24.97021 -3.42871,38.00452 10.24987,53.59291 11.18819,12.74965 14.03372,12.59019 14.34357,-1.06247 0.13626,-5.97826 1.74385,-13.65081 3.53121,-17.03099 3.05786,-5.78189 3.27592,-5.19874 2.12497,10.46859 -2.17856,29.6441 3.30222,36.79187 32.90584,41.56184 7.12112,1.14725 17.82028,3.691 23.71845,5.65617 5.89854,1.96534 11.17493,3.0148 11.87485,2.31246 0.70079,-0.70217 -1.48185,-5.28797 -4.96869,-10.28109 -14.75683,-21.13317 -19.59562,-31.82899 -23.8747,-53.09292 -1.63002,-8.10218 -3.9568,-7.74884 -9.56238,1.78123 -4.6626,7.9277 -4.70546,8.0366 -0.53124,16.49973 4.95094,10.03878 3.28367,10.9444 -4.78119,2.49997 -8.93047,-9.35012 -9.7798,-18.61079 -2.84371,-29.12455 3.16473,-4.79665 8.14881,-9.18044 11.15611,-9.93735 4.48662,-1.12969 5.49993,-2.76474 5.49993,-8.87486 1.8e-4,-9.18978 -2.40742,-9.54297 -6.21867,-0.90623 -2.0941,4.74549 -5.13942,7.07043 -10.96862,8.53112 -24.71088,6.19232 -24.99518,5.66505 -7.4374,-11.53107 11.54319,-11.30554 12.03648,-12.24981 6.90616,-12.24981 -3.06081,-5e-5 -9.42765,2.78582 -14.15607,6.37489 -4.72842,3.58891 -9.9765,6.56005 -11.68736,6.59366 -3.28244,0.0647 -10.96861,-6.06502 -10.96861,-8.71862 -5e-5,-0.85868 5.75502,-3.59155 12.93734,-6.21865 7.18273,-2.62692 13.85484,-5.92957 14.68732,-7.28113 0.85002,-1.37958 -2.27255,-5.83359 -6.90617,-10.0936 -7.25552,-6.66979 -9.22865,-7.42637 -16.81229,-6.40615 -5.93951,0.79917 -8.54512,0.48407 -7.96865,-1.24998 1.41353,-4.25256 14.3338,-6.91557 19.81225,-4.06244 4.54807,2.3688 19.27715,11.3037 24.78094,15.06227 1.33507,0.91187 3.34141,5.57499 4.43745,10.31233 3.51234,15.18709 6.78454,11.79102 5.65618,-5.84365 -0.81856,-12.79878 0.30123,-20.54428 4.96868,-37.99941 6.53846,-24.45272 11.94243,-40.5531 14.68732,-43.68682 3.6355,-4.1503 1.79685,-13.89879 -3.18746,-17.21847 -4.84677,-3.22828 -4.83066,-3.25991 -1.06249,-11.18733 4.64951,-9.78058 4.8075,-12.4373 0.68749,-12.4373 -1.7377,6e-5 -4.92905,3.12728 -7.06241,6.74989 -4.67894,7.9452 -6.21549,8.00037 -10.62486,1.24998 -3.94958,-6.04648 -2.38295,-11.3424 6.56241,-23.24963 5.75212,-7.65706 5.80869,-7.60872 1.06249,-8.34363 -3.14169,-0.4867 -6.93106,1.56268 -10.99986,6.03115 -8.13853,8.93894 -10.78112,8.54876 -10.78112,-1.59372 6e-5,-8.86433 3.07242,-12.99882 20.18725,-25.5621 9.31013,-6.8341 10.12929,-9.94736 3.87495,-15.62475 -4.51954,-4.10284 -5.81277,-10.89548 -2.46872,-12.96855 1.04639,-0.64911 4.6574,1.25854 8.1249,4.24993 8.27051,7.13496 9.81683,6.73726 8.15615,-1.59372 -1.32871,-6.66402 -1.09217,-6.79105 4.78119,-5.31241 4.6115,1.16098 6.98397,0.50431 10.09362,-2.84371 2.25829,-2.43168 8.07906,-5.44625 12.90609,-6.7499 12.16374,-3.28549 20.74728,-15.96929 18.78101,-27.87456 -3.98878,-24.15349 0.71175,-40.95085 14.31233,-50.40546 3.52482,-2.4502 6.9072,-4.18701 8.68739,-4.62493 0.29669,-0.073 0.56663,-0.12226 0.78124,-0.125 z m -286.62141,6.15615 c 8.38488,1.2e-4 17.70281,12.60221 18.40602,24.87461 0.20438,3.57106 -0.39844,3.52298 -7.4374,0.15625 -6.37986,-3.05179 -8.3688,-3.12331 -14.15608,-0.71874 -3.74386,1.55549 -7.69598,4.4423 -8.84364,6.59365 -1.81708,3.4057 -0.76181,4.30846 8.84364,6.3749 6.06834,1.30532 13.43695,2.31246 16.46855,2.31246 4.20303,0 5.26461,0.97628 4.43744,3.9062 -0.5957,2.11325 -1.73002,10.08826 -2.49997,17.93721 -2.8607,29.15395 -7.66301,37.14738 -28.31214,45.43679 -11.70821,4.70029 -29.78037,1.18245 -38.74952,-7.43738 -12.15732,-11.68416 -14.44593,-28.29678 -9.56238,-72.09262 1.45539,-13.05431 8.88638,-24.4932 16.99979,-26.28084 5.72261,-1.26063 7.7507,-0.3816 15.03106,6.74989 l 8.49989,8.53112 7.78116,-8.34362 c 4.82905,-4.98833 9.76996,-7.99988 13.09358,-7.99988 z m -112.56108,2.12497 5.31243,6.40615 c 3.63152,4.32894 11.10202,8.43891 22.99971,12.59355 16.21839,5.66313 17.53103,6.46993 17.53103,12.09356 -6e-5,3.3422 -1.13621,6.79888 -2.46872,7.62489 -2.73518,1.69578 -18.42155,-2.73064 -24.96844,-7.09364 -5.16004,-3.43862 -9.90664,-3.82764 -9.90612,-0.71875 1.8e-4,3.28169 19.9227,15.24977 25.31218,15.24977 5.64623,-6e-5 9.90613,3.96892 9.90613,9.24985 1.1e-4,2.1736 -1.33927,3.98564 -2.84372,3.90619 -4.70873,-0.24883 -25.8079,-6.33387 -30.24962,-8.71861 -8.96857,-4.81477 -15.04808,-26.64799 -12.0311,-42.78058 l 1.40624,-7.81238 z m 71.93659,17.90597 c -0.47721,-0.0171 -0.98706,-0.005 -1.49998,0.0312 -2.46199,0.17435 -5.31688,1.01356 -9.03114,2.31247 -9.42312,3.29537 -8.08411,8.7025 3.03122,12.06231 11.61998,3.51262 10.75085,3.58596 16.62479,-1.40624 l 5.31243,-4.43742 -5.31243,-4.28119 c -3.22719,-2.7424 -5.78436,-4.16168 -9.12489,-4.28118 l 0,5e-5 z m -6.93741,4.24994 c 0.21233,-0.0138 0.39742,0.0312 0.65624,0.0312 1.13276,0 2.12445,1.4074 2.12497,3.2187 2.3e-4,3.39538 -2.66024,4.41013 -5.12493,1.93747 -1.53061,-1.53475 -0.0826,-4.46993 2.12497,-5.15617 0.0788,-0.0246 0.14797,-0.0266 0.21875,-0.0312 z m 60.12425,6.62489 c 3.98197,0.0289 4.2486,0.40384 1.59373,2.12496 -4.24363,2.75077 -6.53117,2.75071 -6.53117,0 1.2e-4,-1.20745 2.2291,-2.14332 4.93744,-2.12496 z M 89.561376,192.1345 c 11.237614,-0.39432 26.465074,12.3888 32.218344,30.34328 2.22434,6.94114 3.89218,17.40577 3.68746,23.09338 -0.40299,11.16461 -8.43052,40.59317 -11.65611,42.59309 -4.75498,2.94805 -1.29091,4.97712 7.96865,4.62493 7.59501,-0.28866 10.80394,0.57828 13.09359,3.7187 5.06235,6.94304 0.36081,11.45479 -14.87482,14.74976 -18.51882,4.00464 -19.65517,7.69856 -12.56234,36.56193 2.88548,11.74263 5.96152,22.12665 6.90617,23.24964 0.97092,1.15365 7.60571,-3.70703 15.21855,-11.34358 7.40974,-7.43327 15.30136,-14.23707 17.49978,-14.93726 6.55359,-2.08613 12.74984,2.8953 12.74984,9.9686 -1.2e-4,6.2736 -0.4968,6.98843 -19.4685,21.6559 -8.76437,6.77615 -14.24767,20.09236 -18.40602,44.37431 -3.12022,18.22323 -3.23011,21.9116 -0.15625,39.78063 2.81486,16.36019 3.0788,23.5254 1.03124,42.06184 -1.35809,12.29093 -3.3996,38.66841 -4.4062,58.59284 -2.01142,39.82624 -4.21616,52.23218 -11.87485,67.62393 -6.94786,13.96357 -8.373628,23.5616 -5.28118,34.28072 l 2.62497,9.06236 1.78122,-18.31221 c 1.37716,-14.11085 3.48744,-22.07437 9.37489,-34.06198 4.20551,-8.56365 7.78115,-17.34534 7.78115,-19.53094 -1.7e-4,-2.18577 1.19752,-3.90619 2.84371,-3.90619 1.64671,0 9.60572,-4.44994 17.53103,-9.78109 22.82665,-15.3544 37.44195,-17.9381 75.56156,-13.31229 8.20093,0.99505 11.30758,0.79088 10.28112,-0.87499 -0.80789,-1.31133 -3.81162,-2.31246 -6.74992,-2.31246 -4.42981,-6e-5 -5.46868,-1.15428 -5.46868,-6.40615 1.7e-4,-10.87004 17.10943,-17.8204 24.78094,-10.12485 5.11345,5.12932 6.94263,22.60901 2.81246,27.18708 -1.89572,2.10095 -3.52907,5.18993 -3.5312,6.90614 -0.003,3.31287 -21.24782,12.96855 -28.49964,12.96855 -4.31678,6e-5 -19.27802,3.29235 -31.49961,6.74989 -3.61153,1.02174 -10.83917,2.81429 -15.7498,4.09369 -10.49398,2.7339 -24.91283,15.75517 -31.15586,28.03081 -4.84724,9.53013 -11.1901,30.79292 -10.78112,35.87444 1.39396,17.32695 -3.02864,22.18791 -10.96861,12.06231 -4.4021,-5.61353 -12.605048,-7.6495 -10.62486,-2.65621 7.87346,19.85383 8.36413,20.79755 17.87477,25.5621 5.36038,2.68529 9.90613,5.8144 9.90613,6.93739 -2.3e-4,3.26911 -4.75822,1.8834 -17.34354,-4.81242 -15.197287,-8.08533 -18.858972,-11.50333 -24.437189,-23.06214 -6.452437,-13.3715 -6.31719,-48.28 0.187498,-63.03027 6.363641,-14.43162 15.233691,-56.87173 15.218561,-72.62386 -0.0173,-16.03105 -5.353396,-52.91611 -9.906128,-68.68642 -2.168576,-7.51329 -5.464912,-13.34295 -10.093624,-17.24974 -11.485983,-9.69537 -16.119659,-10.34579 -28.312144,-4.78117 -5.940215,2.71075 -10.375971,5.88611 -9.906126,7.09363 3.980119,10.22561 3.890571,10.92579 -0.718741,5.68742 -4.503138,-5.11812 -6.00029,-16.7292 -2.812465,-21.31217 0.884786,-1.27119 5.21549,-4.952 9.718628,-8.34362 l 8.156148,-6.1874 -3.718703,-6.21865 c -2.033534,-3.45363 -6.608324,-7.41092 -10.281121,-8.71862 -6.417046,-2.28455 -6.551491,-2.45008 -2.468719,-5.49991 7.81134,-5.8357 29.042838,-1.92163 37.874524,6.93739 1.71582,1.72165 4.006787,2.99996 5.124936,2.99996 4.110081,1.1e-4 1.857178,-5.74383 -8.312396,-20.74968 -8.161963,-12.04269 -12.362336,-16.21067 -18.749764,-18.31221 -10.324188,-3.397 -12.785862,-2.23622 -18.593517,7.81237 -3.849523,6.66188 -4.740198,7.29882 -4.78119,3.37495 -0.0791,-7.5171 3.757869,-15.76561 10.093623,-21.65591 7.092889,-6.59364 22.864775,-7.43649 34.687065,-1.78122 4.239059,2.02776 8.327408,3.20623 9.031137,2.49996 0.704018,-0.70632 -3.308031,-10.72733 -8.843639,-22.37466 -10.41818,-21.92026 -14.473383,-39.00271 -10.093624,-41.71809 1.345856,-0.83409 2.468199,-3.34373 2.468719,-5.68741 -1.15e-4,-2.34403 1.760604,-6.00413 3.906201,-8.15612 13.413979,-13.45627 28.84339,-47.16251 28.84339,-62.68653 -6e-5,-9.96684 -5.734965,-23.59338 -9.906127,-23.59338 -1.78972,6e-5 -3.18746,-1.3137 -3.18746,-3.0312 -1.73e-4,-1.71766 -3.567843,-4.29265 -7.781153,-5.68741 -8.671473,-2.87109 -8.843133,-3.66682 -4.093698,-10.46859 2.361813,-3.38244 5.472572,-4.99362 9.218634,-5.12492 z m 287.996384,9.37486 c -0.20395,-0.007 -0.41086,0.0126 -0.59374,0.0312 -1.88071,0.19225 -2.56568,1.87107 -2.99996,5.65616 -0.54964,4.79127 -1.65787,6.0624 -5.99993,6.0624 -3.57528,-1.1e-4 -6.40114,-1.74102 -7.8124,-4.96867 -2.51383,-5.74696 -5.35421,-5.95783 -17.34353,-1.62497 l -8.84364,3.0312 9.37488,0.18749 c 6.46606,0.0664 9.70665,1.13164 10.62487,3.5312 0.73144,1.91234 3.49003,4.31368 6.03117,5.34367 8.23419,3.33746 14.44751,2.22941 19.62476,-3.37495 2.78899,-3.01871 6.25786,-5.49992 7.6249,-5.49992 4.42676,1.1e-4 2.53561,-3.60287 -3.18746,-6.21865 -3.08907,-1.41197 -5.07227,-2.10686 -6.49992,-2.15621 l 0,5e-5 z m -65.49918,26.09334 c 0.24366,0.0124 0.55605,0.0931 0.84374,0.1875 1.39719,0.46707 6.11308,8.077 10.62487,17.06223 6.99797,13.93378 9.66169,17.04188 18.06227,21.31217 12.89194,6.55367 29.49996,6.75653 41.40573,0.53124 11.57017,-6.04961 21.39075,-17.57999 23.18721,-27.18708 2.11732,-11.31846 4.80846,-11.09161 6.37492,0.37499 1.10868,8.11443 0.36318,11.09716 -3.18746,15.62476 -4.84954,6.18424 -4.18265,9.33508 1.06249,4.96867 2.69743,-2.24564 4.22163,-2.20821 7.06241,0.15625 2.7088,2.25523 3.20693,5.82188 2.49997,15.62476 -1.06376,14.75186 1.33956,16.58008 5.12494,3.90619 1.99052,-6.6635 2.05706,-10.91858 0.18749,-17.03098 -2.85042,-9.31577 -2.38266,-10.276 3.68746,-8.34363 5.83392,1.85745 17.71852,21.5252 17.71852,29.2808 2.9e-4,5.7331 -0.52745,6.2151 -7.96865,5.34366 -6.02376,-0.70534 -7.65677,-0.16542 -6.90616,2.12497 0.54386,1.65917 4.4451,3.35473 8.68739,3.71869 6.82419,0.58589 7.60299,1.23536 6.71867,5.87491 -1.96149,10.29483 -8.84565,13.43816 -24.59344,11.53107 -4.69655,-0.56868 -5.64797,0.33977 -6.21868,6.21865 -0.55483,5.7155 -2.19096,7.38894 -9.53113,10.28109 -5.96538,2.35066 -10.39605,2.92788 -13.81232,1.62497 -5.2854,-2.01586 -9.90613,0.60619 -9.90613,5.65616 0,1.48229 -2.67207,4.77841 -5.84367,7.28114 -9.22574,7.27941 -26.35445,4.8954 -33.62458,-4.59367 -2.67411,-3.48954 -6.15343,-4.53894 -15.74981,-4.81243 -14.52439,-0.41338 -20.07679,-4.45332 -20.18724,-15.09351 -0.067,-6.48642 -0.63406,-7.16241 -6.37492,-6.7499 -3.47107,0.24942 -9.31851,-0.98258 -12.90609,-2.8437 -6.00978,-3.11726 -6.41879,-4.14367 -5.15619,-12.06232 1.07935,-6.77249 0.63657,-8.53111 -1.93747,-8.53111 -3.95761,5e-5 -6.44305,-9.10938 -4.59369,-16.49975 0.81476,-3.25599 5.9425,-8.36306 13.09358,-13.12479 6.50128,-4.32847 13.04762,-9.43219 14.49982,-11.18732 1.45232,-1.75502 3.55749,-2.63048 4.62494,-1.96872 3.7755,2.34114 1.88119,8.00532 -5.68743,16.87474 -4.21342,4.93763 -7.59365,10.77087 -7.59365,12.96854 1.2e-4,6.08869 3.55771,4.70128 6.53117,-2.49996 1.45971,-3.53527 4.29398,-7.86061 6.37492,-9.74985 3.47442,-3.15381 4.20675,-2.88498 10.09362,3.37495 6.10123,6.48822 21.30378,17.21848 24.2497,17.21848 0.76101,-6e-5 -3.29567,-4.45117 -8.84364,-9.93734 -11.24644,-11.12182 -14.86472,-17.34779 -18.59352,-31.24952 -1.39602,-5.20761 -3.14801,-11.06786 -3.87495,-12.96855 -0.59865,-1.56477 -0.58968,-2.48439 0.15625,-2.6562 0.0621,-0.0144 0.13753,-0.0354 0.21874,-0.0312 l 0,-5e-5 z m 52.53059,2.15622 c -14.95786,0 -24.99886,7.329 -12.56234,9.2186 11.00592,1.6724 12.8708,1.73979 19.81225,-0.68749 11.3469,-3.96804 7.51074,-8.53111 -7.24991,-8.53111 z m 4.06245,18.28096 c -5.41979,0.17724 -13.96857,2.23218 -13.96857,3.90619 -1.1e-4,2.57179 16.97046,2.39624 18.56227,-0.1875 0.69235,-1.12415 0.34838,-2.54544 -0.68749,-3.18745 -0.69144,-0.42897 -2.0994,-0.59048 -3.90621,-0.53124 z m 29.06214,25.90585 c -0.0562,-0.007 -0.14119,0.0226 -0.21875,0.0312 -1.241,0.13915 -5.07447,2.20343 -12.90609,6.18741 -11.1502,5.67207 -14.46095,6.36654 -25.12468,5.34366 -12.00456,-1.15144 -12.24999,-1.00834 -5.84368,2.12497 3.61131,1.7664 8.20547,3.46434 10.09363,3.56244 7.51175,0.39029 25.36387,-6.87672 30.24962,-12.09356 3.04623,-3.25244 4.59233,-5.05851 3.74995,-5.15616 l 0,5e-5 z m -98.96751,9.24985 c -0.18764,0.0231 -0.42789,0.0836 -0.53124,0.1875 -0.80817,0.81826 1.51363,4.00129 5.12493,6.90614 6.82108,5.48589 9.90613,6.61043 9.90613,3.56244 -1.1e-4,-2.61906 -11.68536,-11.00988 -14.49982,-10.65608 z m 114.15482,10.46858 c -1.46849,0.0231 -5.15465,1.48384 -13.81233,5.34367 -18.25267,8.13833 -36.80791,9.32562 -59.09301,3.5312 -20.86314,-5.42497 -20.18724,-5.46276 -20.18724,-2.46871 1.1e-4,3.35074 13.63939,8.70329 27.9684,10.81233 17.83017,2.62467 20.0919,2.48412 34.49956,-0.15625 12.03435,-2.20535 31.67793,-11.83113 31.68711,-15.62476 0.002,-0.9066 -0.18129,-1.45024 -1.06249,-1.43748 z m 201.24747,39.0619 c -0.5733,0.14202 -0.94763,2.9264 -0.90624,8.87486 0.0774,10.92736 0.3741,11.40757 1.96873,4.62492 0.96827,-4.12201 0.82788,-9.57418 -0.1875,-12.09356 -0.41395,-1.02571 -0.61478,-1.47071 -0.87499,-1.40622 z m -55.4993,9.37485 c 1.78572,0.0391 3.5592,0.63654 5.93743,1.62497 7.43225,3.08794 19.53009,15.07328 12.74984,12.62481 -4.27803,-1.54475 -3.63101,0.48906 2.62496,8.34361 3.41143,4.28305 3.37541,4.27915 -1.06248,0.53125 -6.52167,-5.50741 -11.42399,-5.10037 -6.34367,0.53124 2.17896,2.4151 5.21781,4.43743 6.87491,4.43743 4.29795,-6e-5 6.03212,6.08368 2.84371,9.93734 -1.48562,1.79596 -5.92773,3.18746 -9.90612,3.18746 -7.59172,0 -14.62132,-6.3438 -17.53103,-15.96851 -0.7916,-2.61727 -3.79324,-8.14485 -6.71867,-12.06231 l -5.31243,-6.93738 7.6249,-3.7187 c 3.1776,-1.51992 5.38333,-2.36394 7.43741,-2.49996 0.25674,-0.017 0.52613,-0.0368 0.78124,-0.0312 l 0,-5e-5 z m -272.65283,3.74994 c -4.37698,-0.0404 -9.0707,2.35963 -12.18735,6.74989 -5.67999,8.00144 -4.31281,14.21432 3.87496,17.21848 8.35324,3.06502 8.59472,2.95173 13.46858,-1.93747 4.86259,-4.87799 5.80214,-15.12238 1.74997,-19.1872 -1.86246,-1.86845 -4.27986,-2.81974 -6.90616,-2.8437 z m 378.21401,1.24998 c 4.85768,-0.13106 8.33825,2.23545 14.15607,7.81238 8.24233,7.90168 8.45375,8.71862 1.43748,8.71862 -3.00948,0 -7.19528,1.71959 -9.37488,3.90618 -2.18007,2.18646 -6.31544,5.585 -9.21864,7.62488 -6.98711,4.90928 -20.46258,4.80711 -24.96843,-0.18749 -3.23736,-3.58827 -3.03714,-4.43634 1.43748,-12.43731 3.73879,-6.68682 7.37401,-9.54366 15.5623,-12.59355 4.62438,-1.72223 8.05336,-2.76514 10.96862,-2.84371 z m -379.62024,5.84366 c 0.17666,-0.007 0.3475,0.005 0.53124,0.0312 5.60974,0.80275 7.96096,7.99587 3.53121,10.81233 -4.10344,2.60839 -5.21724,2.49151 -8.3124,-1.24998 -3.656,-4.41901 -1.43054,-9.61881 3.71871,-9.56235 0.17146,0.002 0.35458,-0.0242 0.53124,-0.0312 z m 150.06062,0 c -0.22889,0.007 -0.44608,0.0303 -0.6875,0.0312 -3.37944,0.0173 -5.93334,1.60124 -8.84363,5.31241 -5.71736,7.29038 -5.67438,8.52754 -0.1875,14.03104 5.10271,5.11869 8.32036,5.42644 13.81232,1.24997 2.89674,-2.20309 3.69074,-5.22654 3.18746,-11.37481 -0.5953,-7.26441 -1.59694,-8.64132 -6.56241,-9.21861 -0.25895,-0.03 -0.48986,-0.0385 -0.71874,-0.0312 z m -227.5909,4.09369 c -5.4982,-6e-5 -8.50175,1.39981 -10.78111,4.96867 -5.23915,8.20281 -5.19498,17.00682 0,22.2184 4.29684,4.30966 10.21879,4.30627 18.21852,0.15625 15.20249,-7.88603 9.90005,-27.34332 -7.43741,-27.34332 z m 225.30967,0.31249 c 5.29109,0.0397 9.4682,4.86105 5.65618,9.46861 -3.8322,4.63233 -8.23715,4.22042 -11.15611,-1.24999 -1.943,-3.64288 -1.93554,-5.09374 0.375,-6.5624 1.32715,-0.84361 2.73085,-1.44108 4.06245,-1.59372 0.36062,-0.0413 0.70975,-0.0652 1.06248,-0.0625 z m 224.59094,2.18747 c -0.94732,0.0231 -2.17871,0.2915 -3.87496,0.71874 -6.51201,1.63937 -11.68735,5.00681 -11.68735,7.81237 -1.8e-4,0.97 4.04097,0.0546 8.84364,-1.96871 8.07582,-3.4022 10.82256,-6.66776 6.71867,-6.5624 z m -149.99812,4.78117 c -10.05678,0.46594 -16.10037,14.99893 -8.03115,23.09339 8.59041,8.61718 22.12472,3.56513 22.12472,-8.34362 6e-5,-7.43234 -4.04605,-12.70243 -10.99986,-14.37478 -0.74073,-0.17839 -1.41587,-0.34322 -2.12497,-0.37499 -0.33241,-0.0149 -0.64433,-0.015 -0.96874,0 z m -299.90249,2.49997 c 7.64726,0 9.68043,5.36542 4.24995,10.81233 -5.95442,5.97299 -12.65952,2.72744 -11.49986,-5.49992 0.58994,-4.18841 2.02572,-5.31241 7.24991,-5.31241 z m 300.71498,3.71868 c 2.74701,-0.0462 5.6011,1.32511 7.4374,4.24994 1.66455,2.65186 1.5538,4.76027 -0.53124,7.28113 -6.5992,7.97638 -18.6373,-0.16582 -12.56234,-8.49987 1.43546,-1.96903 3.5197,-2.99412 5.65618,-3.0312 z m -325.87091,61.2178 c 0.18959,0.0104 0.39027,0.0312 0.56249,0.0312 2.14282,10e-4 6.00786,1.69986 12.0311,4.62493 10.3724,5.03659 17.9517,16.80813 19.12476,29.46828 0.35737,3.85621 2.34025,9.95237 4.24995,13.65604 3.9781,7.71721 4.35907,18.50819 1.06248,24.68711 -1.24395,2.33168 -6.26768,6.31773 -11.3436,8.87486 -11.28391,5.68391 -24.16966,15.35603 -22.65597,16.87474 0.61216,0.61333 4.12941,-1.16391 7.96865,-3.90619 7.82087,-5.58628 13.6748,-3.97137 14.87481,4.09369 1.48211,9.95916 -5.29429,15.13903 -27.62465,21.46842 -1.80646,0.5121 -2.29425,2.66762 -1.40623,6.21865 1.49037,5.9548 2.59637,5.15594 -21.40598,14.37477 -6.79481,2.60972 -14.41173,7.00698 -17.15604,9.93735 -4.76721,5.09016 -10.89157,7.20429 -10.81236,3.71869 0.0762,-3.37875 12.15831,-22.0553 21.06223,-32.46825 26.84748,-31.3967 37.95637,-47.218 32.90584,-47.218 -0.45725,6e-5 -5.33288,5.49532 -10.59362,12.2498 -5.26096,6.75454 -13.1976,17.09558 -17.71853,22.71839 -14.64955,18.21873 -26.7915,34.21946 -28.49964,37.62442 -1.62772,3.24486 -0.62847,-22.49291 1.96873,-49.53048 l 1.40623,-13.65603 8.49989,1.06248 8.3124,1.24998 0,-14.74977 c -1.8e-4,-8.00795 0.90125,-14.37478 1.93747,-14.37478 1.03564,0 5.36863,2.32979 9.74988,5.31243 4.38138,2.98244 8.20565,4.77538 8.3124,3.90618 0.10681,-0.86942 -0.1463,-6.30305 -0.34375,-12.06231 -0.19688,-5.75943 0.42847,-13.41981 1.21874,-17.03098 l 1.43748,-6.59365 6.37492,4.62493 c 5.6923,4.06589 6.72762,4.22518 7.9374,1.06248 1.29545,-3.38602 0.69055,-9.66545 -2.65622,-28.06206 -0.87982,-4.83585 -1.11785,-7.57364 0.71874,-8.15612 0.13135,-0.0415 0.31041,-0.0417 0.5,-0.0312 z m 419.49473,55.24913 c -0.32851,0.0115 -0.70734,0.14457 -0.90624,0.34375 -0.74443,0.74674 -0.0852,2.78451 1.43749,4.62492 3.04285,3.6778 6.71866,4.46186 6.71866,1.43748 2.4e-4,-2.45632 -4.95288,-6.49609 -7.24991,-6.40615 z m -560.524213,8.68737 c 1.844107,-0.0699 4.793644,0.0451 8.687391,0.53124 14.084626,1.76523 26.085118,7.03421 32.562091,14.21852 4.622707,5.12729 11.340824,6.02079 12.74984,1.78123 0.01732,-0.0462 0.140083,0.0231 0.156249,0 0.539242,1.30664 1.431868,11.3787 2.124973,24.31212 1.730311,32.2745 -0.677751,52.71715 -9.56238,78.84252 -9.175959,26.98209 -11.913089,52.77134 -7.249909,67.43644 4.089873,12.86113 18.111815,27.91733 32.405848,34.62446 l 8.84363,4.09369 -12.56234,-1.24999 c -15.42817,-1.74641 -17.298242,2.16293 -2.12497,4.43744 5.71794,0.8573 16.07818,3.74443 22.99971,6.56239 13.46138,5.48028 13.86238,5.46924 10.09362,-1.59372 -3.27403,-6.13729 -8.77209,-32.53624 -7.6249,-36.74943 0.50056,-1.83896 1.53438,-5.43913 2.31247,-8.15612 0.77855,-2.717 0.44697,-4.96867 -0.71874,-4.96867 -1.16533,1.8e-4 -3.05102,3.62771 -4.24995,8.15612 l -2.12497,8.34362 -0.34375,-11.87481 c -0.21996,-11.42897 0.004,-11.67396 5.31244,-10.65608 3.48388,0.66804 5.49993,-0.029 5.49993,-1.78123 -5e-5,-3.12569 4.75675,-5.34366 11.31236,-5.34366 4.00356,5e-5 4.32942,0.76633 2.65621,8.18736 -2.9615,13.13341 -2.15938,29.61225 1.93748,37.99941 5.21541,10.67785 17.79916,25.14693 33.81207,39.40564 7.41667,6.60477 13.51814,12.50808 13.62483,13.12479 0.10681,0.61661 -15.38397,1.46062 -34.34332,1.78123 l -17.34353,0.34374 -17.49978,0 -10.96861,-9.21861 c -22.689932,-19.2714 -34.749933,-21.09411 -60.71799,-8.53112 -16.964089,8.20703 -18.374631,8.27764 -19.999749,1.78123 -2.128334,-8.50569 2.890046,-17.434 16.999787,-30.34328 l 13.624829,-12.4373 -5.656179,-8.53112 c -3.149835,-4.77533 -6.950127,-12.30576 -8.156148,-16.68724 -2.908908,-10.56866 -1.519333,-35.49904 2.656217,-47.21801 1.842548,-5.17117 4.636519,-17.78624 5.999925,-28.06206 3.268134,-24.63627 0.208172,-42.2857 -8.999887,-53.78041 -3.631921,-4.53321 -6.562418,-9.37755 -6.562418,-10.65609 0,-3.89164 11.660573,-2.64962 19.468506,2.12497 4.047842,2.47573 7.737455,4.13878 8.156147,3.71869 0.418577,-0.41972 -1.331577,-6.30204 -3.906201,-13.31228 C 70.17826,525.51709 67.067307,521.56355 54.499316,511.50451 39.301622,499.34082 35.343786,495.90229 40.874487,495.69226 z m 145.498173,89.81109 c -0.30984,0.003 -0.61479,0.008 -0.90624,0.0312 -3.49756,0.28406 -6.31726,1.0631 -6.87491,1.96872 -1.64429,2.66797 9.18506,2.66803 15.37481,0 3.40282,-1.46686 2.35044,-1.84886 -4.78119,-1.96872 -0.63056,-0.0116 -1.24919,-0.0223 -1.87498,-0.0312 -0.3129,-0.005 -0.62764,-0.003 -0.93749,0 z m 315.80854,3.09371 c 4.91485,-0.0404 8.46864,0.67894 8.46864,2.12496 1.8e-4,1.20769 -0.92386,2.15622 -2.12497,2.15622 -3.6702,0 -20.78507,17.30885 -18.93726,19.15595 0.95163,0.95124 3.42482,-0.43273 5.49993,-2.99996 4.43685,-5.48958 17.68728,-12.8143 17.68728,-9.78109 2.3e-4,1.15094 -2.72588,4.47679 -6.18743,7.28113 -9.8731,7.99787 -11.58268,12.93588 -8.84364,25.7496 2.77798,12.99207 5.89274,14.74067 4.96869,2.84371 -0.35217,-4.52824 -0.16273,-7.00927 0.53125,-5.49991 2.32088,5.04981 4.64685,2.80066 5.99992,-5.68741 1.23702,-7.75976 8.76633,-17.86591 11.34361,-15.28102 0.61008,0.61239 -0.4753,4.65045 -2.31247,9.06236 -1.86692,4.4828 -2.45814,8.15613 -1.24999,8.15613 3.13702,-6e-5 9.55009,-13.04373 8.15615,-16.68725 -0.65108,-1.70224 -0.41305,-3.18745 0.68749,-3.18745 1.09968,6e-5 2.4472,4.73272 2.84372,10.46859 l 0.53124,10.46858 3.18746,-6.56239 c 1.65196,-3.69698 3.33561,-5.44661 3.9062,-3.90619 0.55887,1.50946 2.08717,2.65621 3.34371,2.65621 1.42657,-1.2e-4 1.91329,-4.07636 1.24998,-10.99983 -0.8655,-9.03454 -0.4422,-10.9253 2.12498,-9.93734 1.73336,0.66711 5.37793,1.24998 8.12489,1.24998 5.75662,1.2e-4 16.46855,13.88183 16.46855,21.31217 6e-5,2.55123 1.03058,5.07134 2.31247,5.49991 1.28142,0.42838 2.77848,5.24808 3.34371,10.65608 4.13767,39.59577 8.401,53.13564 21.06223,67.0927 3.68631,4.06417 8.0444,9.27553 9.74988,11.71856 2.77103,3.96863 2.81445,4.48093 -0.71874,4.43744 -8.40076,-0.10392 -24.30895,-19.10747 -29.90588,-35.68694 -1.95004,-5.7782 -3.5312,-16.35013 -3.5312,-23.62464 -6e-5,-7.27432 -0.91582,-12.71523 -1.96873,-12.06231 -3.05065,1.89081 -7.61417,35.82787 -7.40615,55.03039 0.25057,23.16883 4.51401,34.55108 18.56226,48.84299 6.23195,6.3395 10.84266,11.60777 10.28112,11.53107 -0.5606,-0.0762 -3.39401,-1.30699 -6.37492,-2.49996 -2.98171,-1.19326 -7.547,-1.70358 -10.09362,-1.06249 -3.38765,0.85287 -5.47278,-0.4038 -7.6249,-4.43742 -1.61761,-3.03273 -6.99999,-8.64581 -12.0311,-12.78106 -16.48554,-13.55105 -22.75363,-37.56474 -16.96854,-64.09274 1.80011,-8.25587 3.87593,-18.9507 4.59369,-23.78088 1.13432,-7.62853 0.72505,-8.39111 -2.12497,-6.03116 -3.66708,3.03626 -9.60677,25.18907 -7.62491,28.40581 2.2374,3.63087 -5.08103,40.56245 -11.6561,59.46782 -12.84183,36.9249 -25.24725,31.31927 -27.62465,-12.43731 -0.62186,-11.45177 -1.56299,-21.43147 -2.12498,-22.34339 -1.5044,-2.44137 5.25004,-30.20909 8.6874,-35.68695 4.96207,-7.90911 6.40763,-14.56227 2.99996,-14.56227 -3.74942,1.1e-4 -10.43737,13.49302 -10.43737,21.12467 6e-5,8.65019 -12.99504,31.17597 -22.31222,38.68689 -4.57455,3.68798 -8.3124,8.07118 -8.3124,9.7811 0,1.70986 -1.1517,2.67258 -2.65621,2.12497 -1.50498,-0.54733 -6.03453,0.31433 -10.09363,1.96872 -4.05962,1.65461 -10.37771,2.99995 -13.96857,2.99995 -6.26711,1.2e-4 -6.48552,-0.25221 -5.49993,-8.15612 0.56407,-4.5283 3.0633,-13.99292 5.65618,-20.96843 2.59291,-6.97543 5.39748,-18.73434 6.03117,-26.24959 4.14323,-49.12509 18.48276,-75.40752 45.65568,-82.7487 5.51021,-1.48863 11.7412,-2.27457 16.65604,-2.31246 z m 12.90609,0.71874 c 0.81446,-0.0404 2.15764,0.11785 3.9062,0.53124 3.2783,0.77461 6.81388,2.34352 7.9374,3.37495 2.80959,2.5798 1.21407,3.16635 -5.65618,2.31246 -3.20855,-0.39837 -6.39038,-2.15042 -7.06241,-3.90619 -0.59704,-1.56068 -0.48167,-2.24806 0.87499,-2.31246 z m -349.77686,2.43746 -8.6874,1.40623 c -9.02579,1.43165 -16.13536,5.99659 -22.81221,14.56226 -5.27875,6.77239 -15.53803,27.18654 -15.40606,30.71827 0.0583,1.54949 2.92579,-2.57704 6.37492,-9.2186 7.08695,-13.64638 18.92341,-25.87584 31.84335,-32.84324 l 8.6874,-4.62492 z m -47.09316,49.71797 -3.18746,8.68736 c -1.75837,4.83031 -3.16968,11.71879 -3.18746,15.28101 -0.0577,11.12234 3.75357,3.14309 5.15618,-10.84357 l 1.21874,-13.1248 z m 219.93474,51.28045 c 1.6966,-0.11894 4.74627,3.8199 8.49989,11.37481 6.56139,13.20852 7.37548,29.98821 2.46872,46.34303 -2.536,8.452 -2.41245,10.46859 0,10.46859 3.3134,-6e-5 12.06235,-11.49532 12.06235,-15.81225 5e-5,-6.84305 3.99073,2.11235 4.74994,10.65608 l 0.71874,9.4061 -21.06224,0 c -25.69676,-1.1e-4 -28.29866,-1.82703 -28.12464,-19.87468 0.1045,-10.85434 0.3857,-11.62913 3.18746,-7.62488 9.90993,14.16037 9.11863,13.86976 11.8436,3.71868 1.37172,-5.10887 2.77466,-16.74264 3.18746,-26.09333 0.41338,-9.35111 0.92243,-18.36534 1.06248,-19.8747 0.16744,-1.79629 0.63519,-2.63341 1.40624,-2.68745 z m -210.15362,5.53116 c 0.0464,-0.0246 0.0755,-0.0185 0.125,0 0.13221,0.052 0.22316,0.30985 0.375,0.68749 0.60662,1.50936 0.60674,4.0217 0,5.53117 -0.60736,1.50935 -1.06307,0.17528 -1.06249,-2.84372 0,-1.981 0.23742,-3.2025 0.56249,-3.37494 z m 106.31117,16.90598 c 3.20884,-5e-5 10.85465,35.8769 8.46864,39.74938 -0.96889,1.57316 -1.32979,3.92668 -0.68749,4.96868 1.75577,2.84914 9.35606,-5.1798 14.49982,-15.09352 l 4.59369,-8.68737 2.49997,13.1248 c 1.35047,7.24523 2.03835,14.03159 1.59373,14.93727 -1.4186,2.89182 -45.42952,1.91459 -49.21813,-1.09374 -1.92517,-1.52897 -3.79779,-7.55195 -4.4062,-13.46853 l -1.06248,-10.65608 6.90616,6.74989 c 3.82356,3.73705 7.62324,6.74989 8.46864,6.74989 0.84547,6e-5 1.59373,-3.90586 1.59373,-8.71861 1.1e-4,-9.6687 4.47067,-28.56206 6.74992,-28.56206 z m -85.99892,26.40584 c -0.32851,0.0116 -0.67615,0.14456 -0.87499,0.34375 -0.74426,0.74673 -0.11646,2.78434 1.40623,4.62493 3.04303,3.67775 6.71867,4.4306 6.71867,1.40622 1.1e-4,-2.45649 -4.95287,-6.46486 -7.24991,-6.3749 z"
     id="path2425"
     sodipodi:nodetypes="ccccccccccccccccccccscccccssccsccssccsccccccscccccssssssscssssscscscscsscscssscssssssscccsssssscccssssssssssssssscccccccssssssssssscsssssssssssssssccssssssscccsssscccsssssssssscccssssssssssssssccsssssssssssssssssssssscccscccsssssssssssssssssssssssssssssssssssssscccssssssssssssssssssssssssssssssscsssssssssssssssssssssssssssssssssssssssssssssssssccsssssssssscsccccccssssssssscccsssccccccssscccscccssssssssssscsscscccssssssssssssssssssssssscsssssscccsssssssssssssssssssscccssscccsssssccscsssssssssssssssssssssssssssssssssssssssscssccssccsscccsscsssccsssccssscssccsssccssscssssscccsccssssccsssscssccssssccsssscsccsssccssssccsssccssssccsscccssccsssscsssssssssssssscccccsssscccsssccssscccssccsscccsssssscccsssssssccccsscccsssssssssccsssscccsssscscsssssssscccsssssssssssssssssssssssssscsssssssssssssccsssscccsssccccscccsssscccsssssccssssccsscccsscccssccsssccsssc" />
</svg>
